<?xml version="1.0" encoding="utf-8" ?>
<svg xmlns="http://www.w3.org/2000/svg" xmlns:cc="http://creativecommons.org/ns#" xmlns:dc="http://purl.org/dc/elements/1.1/" xmlns:ev="http://www.w3.org/2001/xml-events" xmlns:inkscape="http://www.inkscape.org/namespaces/inkscape" xmlns:rdf="http://www.w3.org/1999/02/22-rdf-syntax-ns#" xmlns:sodipodi="http://sodipodi.sourceforge.net/DTD/sodipodi-0.dtd" xmlns:xlink="http://www.w3.org/1999/xlink" baseProfile="tiny" height="24.00001296cm" version="1.2" viewBox="0 0 1209.449472 907.0871040000001" width="32.00001728cm">
  <metadata>
    <rdf:RDF>
      <cc:Work>
        <dc:format>image/svg+xml</dc:format>
        <dc:source>vpype read akira_multi_big.svg ldelete 1 linemerge linesimplify reloop linesort write akira_multi_red.svg
</dc:source>
        <dc:date>2021-02-11T17:38:22.634196</dc:date>
      </cc:Work>
    </rdf:RDF>
  </metadata>
  <defs/>
  <g fill="none" id="layer2" inkscape:groupmode="layer" inkscape:label="2" stroke="#00f" style="display:inline">
    <polyline points="500.1579,387.0608 490.8527,391.0704 485.6136,393.0037 489.026,391.3357 503.1929,385.9312 484.3557,390.7249 487.5275,389.2529 505.1302,383.1973 504.8172,383.0092 501.9573,383.645 483.9515,388.6817 486.5128,387.2177 504.6408,379.152 483.0076,386.6794 507.0213,377.168 502.9286,378.3891 484.9867,384.8849 482.3898,385.5584 485.5144,384.0823 503.1057,377.3948 507.2157,375.5729 503.0157,376.2889 481.3174,381.9548 485.0531,380.3219 504.6288,373.6149 507.4256,372.4997 507.25,372.3995 480.9208,380.5618 489.0983,377.0528 508.507,369.7394 480.026,377.8015 499.884,370.2105 509.0465,366.1861 507.8826,366.0676 503.5148,367.1993 479.2904,374.7286 484.321,372.544 510.3796,362.8231 484.4066,371.147 479.6295,372.492 478.6665,372.5088 484.0725,370.204 511.866,360.4543 506.8203,361.7174 477.755,370.8454 512.0102,359.9728 502.7668,362.3622 477.5529,369.8077 508.1865,356.4452 477.24,367.6216"/>
    <line x1="471.695" x2="470.8504" y1="369.4781" y2="370.5583"/>
    <polyline points="469.5243,369.7317 467.279,370.3394 467.718,370.154"/>
    <polyline points="465.9967,371.605 461.936,371.4698 462.5436,370.4913"/>
    <polyline points="456.1115,374.3408 450.6334,375.1339 451.5874,374.0447"/>
    <polyline points="449.2662,373.961 448.0409,375.096 448.1512,375.5394"/>
    <polyline points="439.8369,377.253 439.7965,376.7863 439.7174,377.7576 438.3602,379.4391"/>
    <polyline points="433.4382,378.5688 435.1832,378.103 435.7595,378.0718 436.1046,378.3829 434.7977,379.9402 432.1637,381.8956 451.1759,375.6967 456.4913,374.2558 419.105,385.9897"/>
    <polyline points="418.151,385.2468 418.6202,386.1891 418.4472,386.5548 415.7374,387.6848 377.6839,400.8713"/>
    <polyline points="378.3933,401.0567 386.3731,397.7842 389.831,395.8914 386.8301,396.6966 381.4909,399.8413 381.5535,398.8717 381.2038,397.9591"/>
    <line x1="386.3278" x2="389.401" y1="397.1313" y2="396.7515"/>
    <polyline points="391.3836,395.0971 403.9865,390.7159 394.001,393.6629 394.2547,392.5312"/>
    <polyline points="399.4457,391.6107 399.5049,392.8608 402.9823,392.4462"/>
    <line x1="406.1481" x2="407.8025" y1="389.5598" y2="389.5263"/>
    <polyline points="409.6346,388.3109 409.5298,387.9205 417.6528,385.7785"/>
    <line x1="417.6618" x2="414.505" y1="386.5639" y2="386.7917"/>
    <polyline points="415.2311,388.8336 415.744,388.039 476.4379,369.9004 429.2594,385.2824 418.663,388.987 418.5308,389.1465 427.8735,386.3387 476.8581,370.4137 421.5538,392.3625 464.4843,377.765 474.2261,374.6524 477.6533,373.8593 423.3845,393.7968 478.5069,375.7673 436.9081,390.8502 425.7225,395.3507 425.737,395.6014 426.4912,395.4601 433.0719,393.4872 472.6579,379.8951 479.2832,377.8774 427.5301,396.212 469.9615,382.4245 479.4853,379.6245 429.9608,399.4783 480.2707,380.975 440.1169,395.5101 430.7539,399.1577 473.8909,386.0293 481.056,384.0894 432.5525,401.7236 473.1707,387.3895 481.2581,384.8155 474.8634,387.5109 434.5435,402.6888 434.0459,403.0149 482.7014,388.75 445.0358,403.051 436.6531,406.4993 436.3159,406.9067 444.9787,404.0525 481.8351,390.5584 482.7941,390.3618 436.9749,406.8644 473.2312,395.5345 484.1034,392.405 440.2527,410.0874 438.5365,411.0344 446.1171,408.1557 455.7575,403.9264 446.9558,407.8342 439.0013,412.1571"/>
    <line x1="441.2041" x2="440.1574" y1="416.3864" y2="416.985"/>
    <line x1="443.7366" x2="444.733" y1="414.3432" y2="413.6093"/>
    <polyline points="448.0083,411.7863 446.0746,410.8658 446.9784,410.4662 448.7344,410.3675"/>
    <line x1="453.0217" x2="454.3052" y1="406.8477" y2="406.9996"/>
    <polyline points="454.9721,405.9606 459.8516,404.2393 458.3659,406.155"/>
    <polyline points="461.6244,402.1884 484.0107,395.1228 500.3094,390.4116 482.9843,395.6018 495.3625,392.5029 500.0421,391.6219 485.92,396.5859 497.5071,393.359 497.9141,393.6666 495.2708,396.8107 495.5871,397.2785 497.5151,396.9188 498.098,397.0901"/>
    <polyline points="492.8903,396.4811 490.9125,397.2717 490.8362,397.65 491.1857,398.0428"/>
    <polyline points="479.663,396.7772 480.2539,396.4811 477.1898,397.7312"/>
    <line x1="473.9982" x2="472.7236" y1="400.2211" y2="399.3264"/>
    <polyline points="469.7779,402.1034 469.2037,402.6866 468.2762,402.5438 468.2497,402.0609 474.0093,398.2322 474.4037,397.9333 474.3553,397.5125 470.7147,398.1454 462.1806,400.7863"/>
    <polyline points="436.4354,420.371 438.2992,419.0355 437.71,418.7579 434.2138,419.5179 434.333,419.1209 441.7851,414.8424 441.2634,414.4526 439.7817,414.5379 431.6743,415.7438 447.3115,411.2816 450.6334,410.0804 448.1968,410.4922 438.2112,413.3206 411.5001,421.7885"/>
    <polyline points="411.9301,421.9237 413.9928,421.927 414.795,422.4652 414.6994,421.822"/>
    <polyline points="418.7175,420.6569 422.043,419.2484 421.2744,419.923"/>
    <polyline points="423.1322,417.3906 426.0487,416.1488 427.06,416.1836 425.9762,417.3906"/>
    <line x1="408.3252" x2="407.9544" y1="423.2742" y2="424.9286"/>
    <polyline points="402.6527,427.4018 402.9141,428.0566 401.3447,427.5872"/>
    <polyline points="399.9349,430.829 400.722,429.5039 400.298,429.006 396.2966,429.2081"/>
    <line x1="393.7307" x2="392.5243" y1="434.4171" y2="433.6987"/>
    <polyline points="388.0916,438.6464 387.2763,438.0814 384.3915,437.9011 384.555,437.4723 385.0314,437.2835 393.984,434.2037 380.4274,439.4987"/>
    <line x1="378.7306" x2="377.9375" y1="438.6284" y2="439.8618"/>
    <polyline points="357.4928,439.6931 353.9974,440.427 344.6005,443.2308 308.6173,454.7692 344.9969,442.3516 356.9521,437.9962 317.6202,451.0281 308.3727,453.7302 310.1537,452.6796 317.0388,449.8424 355.7756,434.8771 307.8834,451.1218 355.4753,432.3572 306.9552,448.6654 307.3942,448.4419 355.6183,431.8255 346.2774,434.5023 306.735,447.2054 354.4364,427.546 306.1866,444.082 354.26,426.9795 315.1464,438.3228 305.1824,440.8492 307.0847,439.8342 312.3368,437.873 345.9545,426.2386 353.6098,423.3077 345.1897,425.8736 305.2493,439.7935 344.5599,424.8123 353.0858,421.2826 351.1054,421.682 343.1197,424.3733 305.4862,437.9203 313.5451,434.5029 352.6904,419.217 352.8412,419.0784 304.6918,434.3824 314.8595,430.5203 353.1193,417.5592 304.9109,433.393 343.325,417.3812 352.3262,413.339 344.8779,415.655 304.0842,430.0192 304.5366,429.8082 352.4782,412.1481 303.8653,427.537 342.1502,413.7677 352.0906,409.8783 350.4743,410.137 344.1931,412.1096 310.4495,423.4054 303.6451,425.2067 304.5452,424.6083 319.9015,418.5057 351.8705,406.9996 304.1781,423.6798 339.2229,409.6097 351.2461,404.4169 339.9973,407.8349 303.2151,420.447"/>
    <polyline points="304.4472,419.3746 335.0423,408.7109 348.0635,403.6985 337.067,406.6475 309.3859,415.162 345.9701,401.6734 341.8946,402.7512 313.7246,412.0918 319.9841,409.5831 344.8809,400.7863 318.7874,409.3164 314.28,410.4784 319.8748,407.8746 344.0454,398.0853 314.4158,408.4724 342.4335,396.8866 337.3945,398.1471 313.8508,405.4379 337.955,396.0553 341.952,394.2358 336.7263,395.4782 313.4375,402.863 339.8325,391.516 329.4535,395.9592 331.2533,394.3301 338.3896,389.6782 328.7414,392.0252 330.1493,391.2428 336.8212,389.2088 337.7227,388.8259 337.9671,388.3254 335.2894,388.4072 329.0171,389.8562 337.5708,387.7625 327.5336,388.4281 328.0888,387.7215 335.0234,384.0205 334.101,383.9691 327.3191,385.9015 327.3484,385.3897 328.2231,384.851 333.7121,382.6255 333.4265,382.3938 332.4508,382.6743 327.7707,384.6468 332.7596,380.6712 333.2987,380.1269 332.9205,379.7854 326.8119,381.851 326.7497,381.3214 327.5777,380.7489 333.1278,377.8002 332.172,377.7267 323.9067,379.9908 325.3127,379.3477 333.5563,377.243 333.2076,377.0161 331.6929,377.1251 323.4389,378.2736 323.7101,377.8259 325.0925,377.2543 331.952,374.9605 330.3057,375.1624 322.9427,377.1346 330.6528,371.0956 329.3836,371.352 322.5993,374.3876 323.2166,373.613 327.8993,370.4203 329.1574,369.2295 328.7079,368.9039 327.1867,369.0276 321.3386,370.2634 328.4649,368.6055 328.2264,368.3889 321.4293,370.522 320.4348,370.7449 320.0387,370.4735 321.5822,368.8534 326.7262,365.1215 325.5157,365.4371 319.6111,368.5107 319.8696,368.0851 326.6982,364.7763 319.6913,366.4527 319.616,366.0844 320.4225,365.4416 324.6422,362.85 324.4285,362.531 323.4327,362.6902 318.2944,364.0671 318.4688,363.7296 323.4822,361.062 323.9111,360.5095 323.441,360.1338 315.3719,361.6386 323.8731,358.3873 323.4989,358.209 322.0228,358.4792 314.4708,360.2717 314.5859,359.8969 315.7715,359.0316 321.4377,355.5194 314.472,358.3563 314.7211,357.9219 321.5042,354.9824 320.1888,354.8351 314.4485,355.3865 314.6451,354.9428 318.2101,352.3861 319.3656,351.1871 318.8731,350.9491 318.4233,351.1447 314.4129,353.5039 314.3155,353.0515 314.6621,352.6511 318.433,349.3277 318.0543,349.1763 312.713,351.7262 318.5672,348.914 318.2075,348.6111 317.1529,348.6006 312.1703,349.0144 312.8153,348.3767 317.2986,346.7726 317.211,346.4507 310.8291,346.1302 316.3172,344.5765 316.172,344.2299 309.1537,343.6394 309.2082,343.2347 314.5769,340.1281 308.3493,343.8564 308.7488,343.2144 313.981,339.8612 313.4465,339.5539 312.4095,339.5557 305.6528,340.0489 307.5269,338.9934 313.3113,336.8438 306.8626,338.0201 304.902,337.8599 305.0382,337.418 305.9318,336.9133 310.8732,334.846 310.4661,334.5907 309.0076,334.8227 303.8395,336.464 306.9204,334.3371 304.6506,335.949 304.7169,334.8655 305.4909,332.7478 305.4649,332.2007 305.1489,331.7455 304.5837,331.7836 304.5322,331.2897"/>
    <polyline points="294.7913,340.8709 294.828,341.5406 295.3398,341.6975 294.6806,339.1831 293.9043,338.2793 294.2474,338.6587 295.2046,338.6501 291.4342,336.7886 290.7642,336.0507 291.0526,335.6011 293.2631,335.8579 293.7021,335.6542 292.2816,334.2404 290.5955,333.181 292.5113,334.126 289.7265,332.1845 289.0703,331.4239 288.9746,330.9859 290.19,330.2263 289.8192,328.9942"/>
    <polyline points="297.8632,346.4932 298.1928,348.4926 299.1415,348.7223 300.1555,348.0761 300.2527,348.5686 299.2305,350.747 299.5161,351.1649 300.9804,351.6842 299.7195,352.3762 300.6335,351.5664 301.1475,351.4641 301.3736,351.9338 301.1887,352.8996 300.1677,354.5282 301.1782,354.828 303.8486,354.8668 303.9435,355.2685 301.6625,356.2173 302.7426,356.3345"/>
    <polyline points="294.7823,353.6167 294.5969,356.0654 294.191,356.3226 294.127,356.7897 295.3733,358.8 294.7231,359.4836"/>
    <polyline points="301.3161,373.2941 301.1483,373.754 302.2086,373.0991 303.1392,373.2761 300.8681,377.3534 303.7468,376.3235 302.0757,377.8517 302.2365,378.2984 305.0549,379.0426 304.2193,381.2621 305.6806,381.4643 304.0339,382.4669 306.3642,383.8448 305.427,383.6001 309.0138,385.6176 308.9667,386.0556 306.1698,387.281 306.3967,387.576 308.1853,386.7769 308.7692,386.8085 307.9002,387.8462 305.79,389.104 308.719,388.3693 309.7266,388.778 307.5628,390.9953 307.8622,391.4771 310.2124,389.8636 309.4361,393.5779 311.2995,392.1711 311.8166,391.9235 311.9648,392.3073 310.3309,395.3842 310.6011,395.8267 313.5392,395.5194 313.4776,395.7482 311.1262,396.2659 310.7107,396.5661 310.9672,397.0769 313.7422,397.4469 315.1511,397.9668 311.4368,397.8497 317.1943,398.8539 313.352,400.8313 312.9058,401.1327 312.8499,401.5643 315.4856,400.9755 324.31,398.0608 314.1469,403.6316"/>
    <polyline points="324.0821,398.2797 321.5755,397.4866 322.6132,395.9159"/>
    <polyline points="320.7734,390.8845 320.0437,391.1605 319.6752,390.9103 319.7859,386.8162 319.5183,386.9126 319.3211,387.711 318.5358,392.0162 318.0464,392.2695 318.0654,390.0048 318.9413,387.5088"/>
    <polyline points="316.0884,381.0845 314.9591,380.1464 314.2228,378.8984 315.0417,380.9416 314.1469,373.8168 313.4542,376.805 314.7043,373.0147 314.2114,372.7514 311.926,373.9018 312.8388,371.1157 310.9408,372.366 310.4236,371.8843 309.9086,370.1707 308.4486,370.584"/>
    <polyline points="271.2476,379.7005 272.3458,381.9625 269.5508,381.3291"/>
    <polyline points="268.159,382.2496 268.3515,381.6081 268.5633,381.6754 266.641,382.3765 265.4399,383.2796 267.5095,383.5435 275.2155,383.3053 262.511,388.6148 273.4525,384.4643 276.2622,383.5577 277.242,383.5332 255.6861,392.2685 249.0133,395.5696 257.4922,393.4452 280.592,386.175 248.9799,397.7145 273.4552,388.2978 279.4874,386.3102 281.0143,386.1583 277.3186,387.8755 254.4722,396.2945 250.2544,398.1535 282.6484,388.6566 252.3401,401.2936 276.7709,392.3898 283.3021,390.4545 253.7911,401.6644 284.1969,393.6796 258.9609,403.5435 256.304,404.7515 255.6802,405.3014 261.6341,403.4004 280.7025,396.4511 285.0917,395.249 257.2767,407.0741 287.2263,396.7537 266.094,405.9393 259.2949,409.3801 264.8147,407.7108 289.2664,398.6514 265.7038,407.607 260.2232,409.9968 284.1785,401.2768 288.8652,399.7564 290.7474,399.495 261.7269,411.5494 292.4401,400.8806 263.2113,413.6338 294.0652,403.4539 271.4774,412.1269 265.0189,415.0358 265.0978,415.2518 268.7223,414.3004 290.0456,407.552 295.0208,406.3309 266.4324,416.9841 295.1364,409.1522 295.596,409.2228 268.4426,419.307 294.7398,410.6714 294.9891,410.8107 288.2981,413.4765 269.2984,420.1432 286.0989,414.7813 295.2716,412.3425 292.292,413.9687 274.4149,421.8567 271.8141,423.2485 271.5708,423.6835 278.4191,421.6162 297.4409,414.1655 272.5737,424.2952 291.5838,417.8577 298.5851,415.9678 299.1712,416.0568 296.1507,417.8312 274.9506,427.592 279.817,425.8678 299.8472,417.4665 281.9197,426.5059 276.718,429.5712 300.7767,422.2399 277.5278,429.8583 300.7419,422.2533"/>
    <polyline points="300.8089,417.7871 301.5305,419.2387 301.2056,420.7203 299.8237,421.49 298.7837,421.4512 304.9432,419.2898 308.5386,418.487 308.4744,418.9613 307.2437,419.8004 302.0255,422.6833 349.414,404.6693"/>
    <polyline points="353.0524,407.3961 354.9089,407.185 352.4279,407.709 353.8206,408.4586 357.8837,408.2591 363.0987,407.065 370.4664,404.695 358.645,408.4125 353.0356,410.6546 363.5302,407.5197 416.395,390.3194 365.7149,408.3477 353.4579,413.0017 418.5308,390.7918 353.8969,415.7697 406.5636,397.7852 418.3275,394.013 420.9287,393.5378 410.5552,397.4645 360.7551,415.0452 354.123,417.7997 365.8068,414.1775 423.3433,394.9027 354.6509,420.7207 408.0791,401.373 421.4876,396.6923 424.8165,395.7939 365.1761,417.9993 356.7808,421.2635 354.4182,422.5312 364.8956,419.0267 419.6458,398.9723 426.8417,396.7824 407.9454,404.7208 355.3569,425.6673 428.7197,398.7557 369.7671,421.444 355.4663,427.2074 418.7584,404.5694 430.5003,400.6511 366.4242,424.6127 358.4984,427.6948 356.0248,428.9313 367.8629,425.0018 424.6549,404.8729 432.2061,402.4755 364.6135,428.6834 356.2349,432.222"/>
    <polyline points="356.6315,432.1628 377.3626,424.8651 433.5858,404.061 358.4356,431.6867 356.6482,432.4589 420.7399,410.7721 434.6278,406.3919 423.7232,410.7911 357.1889,435.599 423.8209,413.7902 433.363,410.8013 436.3801,410.129 357.664,436.7551 437.5246,410.047 359.021,441.1698 409.5238,422.27 368.5921,437.2119 358.6656,441.3642 391.3387,430.9441 394.2393,430.1591 394.731,430.0952 394.9526,430.391 388.0101,433.692 364.3457,443.8071 360.1681,445.9553 363.9988,445.0178 379.5945,440.0974 373.6797,441.9844 360.3368,445.3566 360.1781,445.4639 371.6782,443.4639 375.2675,443.1681 361.6873,447.4243 360.998,447.8267 361.0629,448.0834 373.2015,444.6409 374.9839,444.4332 370.213,446.5088 361.4002,449.7288 371.3061,447.785 374.3522,447.4241 375.3961,447.6354 373.1706,448.7362 362.9464,452.5148 362.824,452.767 374.8811,448.5894 375.1956,448.6581 365.3471,454.4062 363.9545,455.5418 364.0266,455.9498 366.3942,455.3847 375.4632,452.1348 376.4518,451.8569 376.8263,452.0266 364.8794,458.3666 375.4677,454.6809 377.7323,454.1924 368.5348,458.6589 365.7975,460.3356 368.1456,459.8974 379.8003,456.3746 366.6195,462.1525 377.3173,457.4201 380.0212,456.518 369.0455,461.4771 367.1261,462.6517 367.4113,462.9059 379.9215,459.8232 381.8707,459.4787 382.0305,459.6624 368.1194,465.4976 379.404,462.2596 382.8535,461.5137 384.0233,461.5811 372.5403,467.0295 369.918,468.7441 370.3403,468.8321 373.1373,467.7687 384.7919,462.4076 370.7176,469.9884 372.0198,469.8883 384.1958,466.8655 386.222,466.5315 387.2896,466.6627 373.6478,471.5102 371.9922,472.3306 387.7151,466.1362 387.7891,466.3422 385.277,467.9009 373.0156,474.9771 388.2358,468.3763 377.3696,473.11 374.2189,474.7619 373.3877,475.5848 376.337,474.9206 386.7779,471.6333 389.9477,471.022 389.755,471.3645 387.5396,472.3915 376.4189,476.8445 374.8779,477.862 390.3329,472.2578 378.6505,477.4036 376.4183,478.5137 375.6832,479.2308 390.2899,475.0614 393.0263,474.6499 376.5305,481.2933 389.8315,477.068 393.2093,476.2708 394.1954,476.4036 390.8376,478.3992 380.2839,483.7351 378.3777,485.0963 395.6826,477.9767 379.279,486.7444 392.1755,482.1099 397.9265,480.4809 383.2727,487.6121 380.9015,489.1226 397.1126,482.311 398.2805,482.2705 384.0934,487.3735 381.1751,488.7966 381.4999,488.9897 385.347,488.2752 400.0366,484.4476 386.5254,490.4733 382.647,492.5096 398.3149,486.7639 400.7567,485.9868 401.9446,485.9166 384.3487,495.0232 403.7536,488.8418 385.7654,497.0015 403.2681,491.6879 406.9863,490.8218 391.1635,496.7596 387.9216,498.144 386.6059,499.0769 387.6326,498.9775 390.0337,498.0328 406.2568,490.6525 401.9346,492.8003 387.2728,498.8915 407.0019,494.711 392.0732,499.6529 389.7009,500.5696 388.7933,501.2462 403.5266,497.3195 406.7466,496.7807 403.1888,498.2117 389.8645,502.2595 407.009,499.6052 393.689,504.2686 391.6193,505.2023 391.5587,505.5013 395.7953,504.2605 406.1649,500.3257 392.3467,507.2136 399.7224,505.8169 403.4838,505.5533 403.3904,505.9055 395.8641,508.9543 394.4903,509.6121 394.1988,510.0518 402.115,506.6528 403.0505,506.3188 403.3597,506.6135 401.3872,507.7693 395.3696,510.2957 395.0254,510.695 403.3544,509.9069 403.4281,510.1696 398.1575,512.8011 396.9953,513.711 402.4073,513.09 403.4638,513.0895 403.9162,513.4514 398.5212,513.9813 397.7972,514.3845 403.2436,513.562 403.2082,513.8671 399.5886,516.6686 399.6822,517.1529 402.4924,515.6049 403.2947,515.5776 400.8812,520.1795 403.4715,518.6101 402.2137,521.8596 402.6234,522.3703 403.8925,523.01 403.6769,524.2281 404.1217,524.7976"/>
    <polyline points="402.7209,529.2715 403.2535,527.8246 403.008,527.6004 398.6674,530.5284 399.0634,529.785 403.2842,526.1909 402.8986,525.8688 396.0775,527.0014 396.1614,526.5949 397.4786,525.8193 402.9823,523.1342 397.2691,525.3946 394.5635,526.0862 394.6087,525.6164 396.054,525.0718 402.2542,523.5229 399.9085,523.4661 391.2449,524.3228 391.1648,523.8771 399.109,520.3044 400.3237,519.2937 399.3456,519.2599 395.5414,520.3084 383.9306,524.392 398.9605,518.6558 384.9785,521.9937 382.0226,522.4004 382.879,521.6037 385.6493,520.3594 397.4084,516.0796 381.0169,520.1979 383.0005,519.0392 396.0262,513.7564 392.1941,514.9767 378.6345,520.7022 395.0405,513.7711 375.6644,517.1339 377.4705,516.3194 393.8749,511.2742 389.7358,512.2807 372.5558,518.282 374.7011,516.782 391.6707,508.0672 387.1611,509.3363 371.0141,515.1641 388.992,508.9338 391.291,507.9745 391.1929,507.7678 369.2768,511.9411 371.6955,510.8983 389.522,505.1092 368.0859,511.5356 369.0199,510.8337 372.2357,509.3869 388.4446,502.931 368.2044,510.5481 370.6639,508.8785 387.1801,500.4017 385.959,500.4642 382.0636,501.5144 366.9404,506.3032 385.7459,499.0679 369.7911,503.7325 365.9925,504.5885 365.7701,504.419 369.2277,502.8651 384.7919,497.4483 383.604,497.4984 380.167,498.5936 366.3686,503.7713 381.2354,497.7293 383.7241,496.5931 383.6525,496.3166 363.8644,499.6466 364.1103,499.2623 381.8964,492.7632 378.1723,493.5116 363.431,497.9584 378.7542,490.9789 380.2588,490.0622 364.7397,495.0365 361.7385,495.7191 365.3183,494.491 379.995,490.4795 360.7299,493.7589 378.3833,488.1419 375.7327,488.5688 360.7166,492.4002 377.1066,485.6813 376.3926,485.681 359.2231,491.235 360.0921,490.3827 362.7232,488.9485 375.7089,482.5486 357.5633,488.7226 360.1311,487.2561 372.6673,481.8474 374.4086,480.9702 374.4986,480.6612 370.9185,481.4786 357.1465,485.8831 357.9756,485.1859 373.5224,478.2934 356.0183,483.3108 370.3747,478.3794 372.7879,477.3035 367.7459,478.8431 356.2348,483.1595 372.2233,476.3931 369.3317,476.6214 353.4322,479.5772 353.854,479.1251 356.3587,477.9536 370.353,472.4658 370.0364,472.4782 352.9688,479.4174 355.3535,478.0283 369.8678,471.5332 368.6176,471.5756 366.2077,472.2577 352.7907,476.599 368.4355,468.4911 366.2269,468.7736 353.824,472.3377 350.7425,472.9288 354.2373,471.5522 367.715,467.2218 351.5294,472.4081 348.0558,473.2635 348.6604,472.5127 351.7061,470.81 366.6002,463.6153 360.5691,465.8786 346.5185,471.9554 361.1162,466.3096 365.8705,464.1036 346.3362,468.5468 343.86,468.8488 348.0112,466.8026 364.2678,460.5085 341.2612,467.6998 359.0269,460.1198 363.3932,457.9505 362.4135,457.8791 358.1339,459.1473 339.3597,465.8761 342.2187,464.4022 362.6925,455.6675 344.223,463.269 339.099,464.9157 341.0486,463.5634 362.4224,454.5992 353.9007,456.8023 336.3812,462.3239 361.1821,452.9001 321.4322,466.6126 313.8508,468.8488 320.8966,465.4852 353.3191,452.1182 360.2608,448.9525 347.0172,453.2526 312.8556,465.4886 359.366,447.6109 358.8168,447.7472 321.7542,461.1779 311.9852,464.4007 312.8416,463.9197 359.6531,447.02 310.8883,461.5553 317.8709,458.6549 352.0984,445.6347 358.3708,442.9336 349.8671,445.5894 311.2873,459.2942 310.6862,459.4452 322.3139,455.0422 357.6909,442.8124 321.5572,454.2961 309.5713,457.6981 316.5923,454.8626 352.1184,442.038 357.3074,439.8695"/>
    <polyline points="335.3769,460.6863 299.0102,473.6941 288.9565,477.4881 286.7795,478.5652 327.4739,466.3718 332.1776,465.2015 288.7892,482.9374 324.5379,471.6851 295.1441,482.7253 290.0715,484.9716 296.7313,482.975 319.2739,475.2697 323.5565,474.2058 315.0487,477.7136 291.3719,486.7019 323.6006,474.766 299.2826,484.635 292.8832,487.6546 319.3306,479.8247 324.1091,478.5482 325.6013,478.412 320.5609,480.4152 297.1293,488.2044 293.9635,489.7068 301.2588,487.9105 323.9894,481.1981 295.3488,490.9151 322.7316,481.4349 323.0416,481.4599 296.5886,492.704 321.091,484.8634 324.9679,483.9674 319.4835,486.5676 298.3782,495.548 323.1342,486.1448 303.9755,494.7885 299.8047,497.0337 299.8789,497.2122 302.9212,496.2656 320.4528,490.1793 323.271,489.6991 300.965,499.6561 318.6781,493.3803 323.0856,492.1465 323.0963,492.3538 320.0565,493.5237 302.1161,499.7301 324.0731,495.4643 308.158,501.9714 304.1225,504.0748 323.6599,497.4483 309.6985,503.8328 305.5926,505.9868 319.4061,500.8407 322.048,500.2755 309.2191,506.1687 307.0479,507.2986 306.6969,507.7427 310.0837,506.6671 321.7853,501.9709 307.0981,507.6191 318.2265,505.2814 321.8492,504.9644 319.2032,506.2653 308.7692,510.1181 318.5782,507.7032 321.8103,507.1774 320.6686,507.7801 310.251,511.1258 310.3309,511.3167 311.3231,511.0917 321.3698,508.39 320.5126,509.3283 312.2891,515.0567 312.0841,515.5572 315.5796,514.3404 321.9038,511.4184 315.9043,514.1278 313.2527,515.6824 312.9727,516.1112 318.744,513.8223 319.8696,513.7229 314.1379,518.0784 316.4849,518.7788"/>
    <polyline points="313.3448,517.7655 297.8632,521.3704 309.0684,517.3624 311.5898,516.1989 310.8458,516.3313 294.376,521.3564 294.6137,520.8979 297.7161,519.1481 309.7399,513.5028 289.4136,519.9864 305.3483,514.1192 308.6289,512.6601 283.8853,518.6603 285.6974,517.8841 307.4193,511.5002 307.0994,511.3927 286.9633,516.4347 282.6724,517.2666 285.9304,515.8775 302.0334,510.9923 306.0124,509.4552 300.4653,510.7256 281.219,516.7111 304.7433,507.402 304.8953,507.1724 302.4395,507.7279 281.1682,514.0076 298.9252,506.7743 302.9654,504.7919 301.902,504.9239 279.1461,511.6967 279.4694,511.2909 283.89,509.1886 301.4178,501.7445 280.1029,508.0642 273.6769,509.6964 277.7842,507.8966 300.0219,499.6765 273.2406,510.27 274.1354,509.5773 277.6858,507.9623 299.121,498.9327 295.1351,499.8455 275.254,505.9843 271.5682,506.7836 275.5451,504.9515 297.9147,496.8148 296.35,496.944 290.0104,498.5656 270.8266,504.2087 287.3099,497.8491 296.2346,494.0211 295.6915,494.0925 269.5765,503.4066 271.8616,502.0576 294.7076,491.4964 267.9426,501.5583 273.1831,499.0795 293.7356,490.442 274.367,496.1641 267.29,497.8815 267.1793,497.6671 267.6305,497.3752 288.7839,489.6119 292.2074,488.0615 290.6699,488.2143 287.7347,489.1089 266.4583,496.3076 290.9328,487.5632 253.2775,499.4991 241.1044,503.0358 247.5112,500.4957 282.953,487.8643 289.7934,485.09 281.8117,487.2203 246.6312,498.4678 240.2453,500.2715 249.1955,496.5182 287.3858,481.8207 239.0894,499.3717 287.1851,481.9744 244.4198,495.0727 237.4155,496.95 239.8357,495.8118 251.5043,491.5593 285.8513,479.7883"/>
    <polyline points="279.6805,482.7095 279.1784,481.6009 278.7355,481.6036 239.5552,495.2728 247.368,491.9521 278.1781,480.1681 249.3972,488.7419 237.9895,491.6406 242.422,489.6238 271.3597,479.3751 276.5918,477.2057 275.0398,477.2866 267.2683,479.3974 237.1538,488.7953 275.9417,475.9568 243.6704,485.4775 236.5798,487.2671 238.4304,486.2165 243.1344,484.3184 274.3465,472.5039 263.7926,476.0084 236.335,486.111 273.6796,472.1833 268.4615,473.752 241.1381,483.2322 235.685,484.7437 236.975,483.9321 242.0821,481.8512 272.835,470.3345 262.1651,473.0905 234.5201,481.2483 271.2734,468.545 234.3345,480.1346 239.7511,477.7509 270.2267,466.0203 264.3907,467.3628 232.8741,476.4203 269.0705,463.8342 240.733,472.6635 232.5195,474.8754 233.4213,474.216 237.617,472.4952 262.2544,463.7265 266.4699,462.096 267.1715,461.5463 256.428,464.9465 231.9962,473.8042 265.9639,459.9936 231.1242,471.6091 264.4782,459.0396 259.6634,460.0575 230.2301,468.2898 235.0526,466.2577 263.2756,456.8894 236.72,464.6788 229.2698,466.4851 230.5781,465.6238 235.1279,463.6977 261.3196,453.6026 255.7074,455.227 228.8192,464.8453 259.9876,451.7128 233.3637,460.4661 227.4295,462.1295 232.8922,459.5957 258.0886,449.4172 251.357,451.7453 227.362,461.3944 256.759,448.3491 252.3918,449.4443 232.3157,455.7486 226.1654,457.4139 230.8152,455.2788 255.0637,445.9261 249.2011,447.6051 225.4543,455.4605 229.5348,453.4987 253.6391,443.5336 246.2213,445.7 224.7452,453.2606 252.3659,441.6758 230.2066,450.7588 224.0445,452.8779 225.3305,451.8942 228.9945,450.1343 251.6307,440.275 242.6158,442.7171 222.4998,449.1469 232.1585,445.5359 229.791,445.4437 222.3563,446.3364 221.6161,446.2818 221.892,445.981 222.9349,445.8171 226.1127,445.7454 221.5037,445.6772"/>
    <polyline points="220.111,444.3266 220.0011,443.5838 219.3427,443.5133 220.7514,443.698 221.6979,444.2005 214.2519,446.3577 212.9021,447.1204 216.5205,446.1362 222.4407,443.6173"/>
    <polyline points="208.5211,447.3238 201.0876,450.2939 196.0628,451.95 195.8845,451.5943 196.0985,451.154 197.539,449.1636 196.3404,449.2061"/>
    <polyline points="203.4479,449.5344 201.8019,450.1433 206.5121,449.5434"/>
    <polyline points="187.6965,451.6368 185.5429,451.9147 183.3831,451.705 183.0221,451.1928 184.2019,449.0709"/>
    <polyline points="174.2496,452.0591 173.077,454.4348 171.2783,456.8201 187.8505,452.5549 169.3789,457.4187"/>
    <polyline points="159.7475,454.4306 160.2203,454.8451 162.7368,454.9237 163.0565,455.2417 162.1169,456.7201 161.9422,457.8333 165.7746,455.6549 164.7183,457.2749 163.1778,458.8087 163.5291,458.1539 164.9257,457.4349 168.7818,456.655 168.805,457.0724 165.4876,459.0396 164.8745,459.538 164.9895,459.8327 189.4607,454.3804 170.4683,460.1157 167.1958,461.2822 165.9519,462.0703 166.4926,462.0209 173.8986,459.7308 200.4428,450.379 209.3314,447.7204 200.1859,451.5589 167.5725,464.1303 221.0427,447.9143 178.946,462.6673 169.8686,466.1053 210.6667,452.6371 219.7796,449.827 221.8751,449.4584 213.4683,452.7599 170.8984,467.7596 214.6285,453.9967 222.829,451.7218 216.3546,454.2027 172.2491,469.1025 222.9726,452.2702 180.073,468.3014 173.4645,471.0439 181.478,468.7287 223.9433,455.0473 186.6603,469.7931 175.8365,474.4879 176.7819,474.4196 184.199,471.965 224.7199,457.3351 177.0183,476.0071 217.2256,462.868 226.0367,460.2717 214.5221,464.7053 178.7509,477.4472 226.234,461.6459 186.8639,475.3532 179.1287,478.3361 185.9474,476.4222 220.6164,465.4125 227.058,463.6655 221.6648,465.9283 188.1667,477.397 180.3695,480.4475 189.2926,477.7662 227.4042,464.6788 189.4248,479.2557 181.9733,482.4559 220.9764,471.2308 229.3626,469.2196 228.4557,469.6297 218.6042,472.9006 182.3025,484.0086 230.1138,471.2126 194.629,484.422 184.472,488.5417 221.3749,475.6393 230.654,472.8245 229.1026,473.6135 184.4551,489.0399 196.5758,485.7629 231.6586,475.2899 187.8721,490.4722 185.5861,491.4706 191.0894,489.9935 223.555,479.0293 231.7768,476.5813 185.9112,492.9906 232.6051,479.3202 195.6343,491.4387 188.6335,493.9361 186.6413,494.957 195.4624,492.4414 233.4228,480.1436 187.0719,498.0379 226.6806,484.7524 233.7014,482.6761 187.4348,499.2455 226.6287,488.0026 235.2124,485.8496 227.962,488.4883 196.1183,498.6643 187.6458,501.626 236.0987,488.2726 189.0046,504.1706 188.1101,504.5975 226.6838,491.2667 235.7948,488.458 228.6658,491.744 188.6756,507.847 229.9451,493.3815 237.0188,491.1501 188.5406,508.5564 228.3313,497.1918 238.2343,494.7717 231.6933,497.4946 195.804,510.6148 189.0302,513.3341 207.7136,506.9868 238.5297,495.7089 238.7239,496.2908"/>
    <polyline points="236.4616,496.4518 221.3778,501.9797 213.114,505.3388 211.484,506.3446 237.0399,497.4442 215.6792,505.4995 212.2779,506.9125 210.8931,507.7878 234.2342,500.4645 238.2786,499.7226 237.8207,500.0811 227.6996,504.1495 211.0957,510.0421 240.3953,503.4246 231.7965,506.1726 230.3839,506.8685 232.3524,506.5031 236.7086,505.3575 240.9102,503.7452"/>
    <polyline points="246.0419,505.7961 245.0802,506.1621 245.1986,505.7292 248.5059,504.5117 248.2203,504.2254 247.7113,504.3069 239.4129,506.0274 254.1303,498.3289 232.5871,506.3278"/>
    <polyline points="233.1696,505.6532 236.926,505.0623 236.5313,506.1035 236.5545,507.2393"/>
    <polyline points="227.9697,506.5132 210.9607,514.8533 218.0559,511.2117 218.6337,511.3424 215.1942,514.5492 214.6568,515.5365 215.2319,515.7816 216.2521,515.3846 217.0959,514.6821 217.6039,513.7229 218.2792,515.7056"/>
    <polyline points="221.6641,512.532 221.8751,511.5948 219.4187,510.8777"/>
    <line x1="226.1886" x2="226.6951" y1="507.8637" y2="506.7926"/>
    <polyline points="209.9223,505.155 194.8409,510.9033 205.1223,508.0908 208.0314,507.5264 209.9887,507.5007 210.4203,507.7543 209.6417,508.4332 203.9881,511.6965 204.1338,512.1431 210.3528,511.663 210.5945,512.0415 206.8243,514.2624 210.1924,513.0136 210.3971,513.3517 209.4158,514.2379"/>
    <polyline points="196.1631,511.5021 181.2633,517.467 173.6967,520.833 191.0476,513.4693 175.7268,522.8806 190.8113,518.4247 182.0155,521.6318 190.364,519.3864 188.4224,520.4331 189.621,521.6375 190.06,522.6875"/>
    <polyline points="188.4224,515.0902 188.2368,514.4066 187.0112,514.6335 157.1921,523.2847 148.9005,525.2701 150.181,524.5606 154.8754,522.9531 181.9286,514.6996 188.1766,512.5245 182.0636,513.9159 149.4186,523.9628 187.2997,507.5766 149.4323,522.1042 150.5271,521.5676 187.8653,507.4672 182.7496,508.6554 148.5628,518.4157 149.0681,518.0994 187.2829,504.1842 155.8729,514.01 146.9084,516.4485 148.3022,515.5867 153.9604,513.336 186.9452,501.0943 179.8791,503.3754 142.8059,516.7188 186.9874,500.9759 176.3077,503.7571 139.7038,514.2228 175.1611,502.8258 184.0364,499.7792 186.7595,498.5786 185.0998,498.7626 179.1838,500.3289 146.1042,510.1128 138.8723,511.9334 152.6723,507.0084 185.8394,496.2741 151.8564,507.0047 138.6698,510.8184 185.1473,493.0915 137.6483,509.7215 144.4717,506.7032 179.0939,492.7969 184.0921,490.4999 182.0153,490.8942 172.9917,493.8774 136.551,506.8763 183.1213,487.8078 174.7406,490.2453 141.4207,501.3497 136.1879,502.9264 135.3354,502.9508 144.0012,499.5099 182.3532,485.6385 181.3132,485.8704 133.5712,501.5166 181.7032,484.4566 180.7486,484.6639 140.9827,498.916 132.5751,501.6685 143.7701,497.1655 180.9182,483.7395 131.1401,500.1738 166.3342,485.5169 179.1624,479.7548 172.7745,481.8292 137.4119,495.0163 129.3674,497.6169 132.0095,496.1814 140.7035,492.7554 178.1579,479.2231 127.7551,493.7172 167.6998,479.2832 176.6131,475.7792 169.8683,477.8086 127.3585,492.4246 136.1779,488.7208 175.0346,473.9394 135.1159,487.1911 126.6916,489.7236 134.295,486.7273 173.4054,473.0446 162.41,476.2666 125.0539,488.4322 161.9493,474.7984 172.2574,470.5792 166.3467,472.203 131.4693,483.7807 123.315,486.2371 131.0336,483.1485 170.4595,469.1359 160.4642,472.0068 122.3359,484.2622 168.9823,466.2237 124.5137,483.1653 167.7414,466.4426 163.411,467.4056 123.7793,478.3785 130.5493,475.5863 165.7998,463.1596 156.2027,465.9651 124.0326,476.6907 155.3238,465.3472 164.5928,461.7162 158.158,463.6987 124.328,475.8217 131.85,472.2387 162.2461,458.9302 133.4649,469.5679 124.2351,472.6391 125.5557,471.8398 130.2242,469.97 161.6721,458.1964 155.7422,459.9886 125.7377,470.5959 160.1886,457.113 140.2672,463.738 134.4913,465.3959 147.17,458.8375 146.9041,458.4912 137.26,459.4362 137.03,459.1885 139.7502,457.2668 138.762,457.3518 137.547,458.3058 137.6652,455.7644"/>
    <polyline points="147.7019,457.3853 155.8898,453.8061 154.42,454.3747 153.2984,455.5197"/>
    <line x1="151.1206" x2="150.0231" y1="455.9498" y2="457.1741"/>
    <polyline points="157.9242,454.6752 160.0176,454.6584 159.4098,452.5148"/>
    <polyline points="128.3461,467.3296 129.6882,465.4551 126.5143,469.2878"/>
    <polyline points="169.8602,520.8554 157.6461,525.3069 150.9802,528.2079 165.343,522.959 162.8697,524.5033 153.0736,529.3388 151.9562,530.259 161.4911,528.2447 162.6006,528.3175 158.6143,530.4867 159.03,530.8499 159.5882,530.5247 159.6462,529.8199"/>
    <polyline points="162.8285,526.0554 164.2383,526.1121 164.673,526.5413 164.4747,525.9962"/>
    <line x1="193.2086" x2="194.6859" y1="512.9376" y2="513.3007"/>
    <polyline points="252.5757,500.4184 252.5757,501.9891 253.8503,501.5926"/>
    <polyline points="258.4001,498.1319 261.9548,495.8016 262.3846,496.1055 261.8106,499.6344"/>
    <line x1="304.3301" x2="305.9844" y1="520.6777" y2="520.1203"/>
    <polyline points="310.9051,518.762 310.4493,519.6568 309.8481,520.1169 310.2795,519.5108 312.7873,517.723"/>
    <polyline points="320.055,517.7655 319.6805,517.2193 320.4863,516.7523"/>
    <polyline points="313.6988,469.5235 279.4192,481.1054 312.3483,466.9074 277.891,477.8133 282.3893,475.7959 311.066,464.7213 310.0768,464.9445 283.3495,475.1017 277.3089,477.1374 281.4533,475.0196 304.2418,465.1463 310.4583,462.1463 302.9712,464.2915 276.5326,473.3987 275.8456,473.5907 309.6562,461.6223 304.5187,463.0784 280.5615,471.1352 275.3932,472.5206 281.0614,469.7921 308.8542,458.0689 299.9463,460.8113 273.7556,470.1067 307.8483,455.6483 281.8449,464.5269 272.4887,467.3889 277.8496,465.075 307.6633,454.1435 277.3887,463.6716 271.3236,465.3289 274.9452,463.6398 298.6961,454.8521 306.4569,451.6201 304.9265,451.7097 298.7522,453.5328 270.1765,463.0913 274.5988,461.4291 306.9127,451.0459 268.8504,460.8627 306.3642,449.0786 280.3863,456.2215 267.2218,459.4709 271.7378,457.7377 305.7385,446.7406 301.3189,447.6796 273.0861,455.7397 265.6433,457.6131 269.9396,455.8159 304.912,443.5413 302.9348,443.9122 295.9046,446.1609 264.7228,456.8368 294.2867,445.0652 304.1357,440.8158 302.5952,441.0549 297.3505,442.7474 268.8528,452.811 263.3934,454.4911 272.0446,451.1817 304.2296,440.0214 262.1827,453.8152 269.3909,450.3739 303.4005,435.675 260.0378,449.9657 293.5611,438.8974 303.7636,435.1342 302.1113,435.2208 294.3563,437.2276 258.6301,447.7093 264.51,445.258 303.0207,430.8213 297.8933,432.5182 265.3721,444.7969 257.6573,447.3908 261.1527,445.5175 271.0983,441.3374 303.3246,428.7523 256.1381,446.1844 291.2699,432.4802 303.4005,427.2241 301.4095,427.5833 294.7518,429.6654 254.3448,443.0342 262.2143,439.8636 303.0259,424.9209 264.8587,438.4971 253.1589,442.1663 254.8939,441.1706 260.8639,438.7424 295.3355,425.7255 302.5238,422.733 297.5751,424.0786 287.2945,427.5112 251.7826,440.0974"/>
    <polyline points="276.8197,429.6729 236.7318,443.71 255.1357,437.7045 276.1271,430.3308 247.4838,438.44 238.7408,440.5789 244.5581,438.1486 274.4225,428.0018 270.2176,428.9247 242.227,437.4465 244.1577,436.4671 249.9506,434.4744 273.0127,427.2666 243.0989,435.6891 270.9217,423.8998 265.679,425.094 243.991,431.6813 270.1674,423.4262 248.7933,428.1117 243.3833,428.8708 247.4259,427.0555 267.6024,419.9404 263.3938,420.9558 244.0708,427.1482 262.0931,420.5091 266.4789,418.615 262.2651,419.6489 244.4104,426.0115 260.3042,418.3928 264.5207,416.031 260.6976,416.8792 243.8006,422.1781 263.2371,415.6178 249.2791,418.8812 242.2693,419.9655 243.1026,419.2478 245.1502,418.4702 261.3928,413.3641 260.515,413.2566 257.1231,414.1611 242.6495,419.3913 259.5373,410.2565 256.9515,411.0674 242.7499,417.2309 244.5258,416.0224 258.198,409.2449 245.9851,413.6419 242.7702,414.4214 246.182,412.8294 257.1178,408.9835 242.2627,410.6313 255.2433,407.0665 253.67,406.951 244.0898,408.4653 242.5812,408.6282 242.2726,408.4103 244.3024,407.3895 252.2289,404.4131 253.1332,403.9947 253.3577,403.5682 250.1758,404.243 242.607,406.9326 252.053,402.2553 250.5542,402.5163 244.5588,404.9654 244.5211,404.6667 245.0802,404.1208 250.1025,399.9933 249.8911,399.7551 245.6801,400.4658 248.6168,397.7312 247.5701,398.8281 247.3847,396.212"/>
    <polyline points="248.8872,393.941 254.3987,391.8051 250.0858,392.3793 249.342,392.2877 249.5039,391.7973"/>
    <polyline points="254.6266,391.5347 258.3499,389.3654 257.3948,389.9764 256.7882,390.9863"/>
    <line x1="262.2329" x2="263.026" y1="387.9479" y2="386.7158"/>
    <polyline points="281.9181,304.2017 282.9551,303.4947 283.4463,303.6031 283.9021,305.0463 283.7278,301.7372 284.2651,301.6359 286.5607,304.5056 287.1102,304.7217 287.2108,304.0331 286.7051,302.1231 284.408,296.1153"/>
    <line x1="277.8575" x2="276.7013" y1="285.9598" y2="285.9006"/>
    <line x1="274.2191" x2="276.0846" y1="280.989" y2="277.451"/>
    <polyline points="273.3075,276.7931 272.2106,269.9979 271.6323,267.8523 271.0622,266.9171 270.7766,268.5409 271.1173,271.7001 271.9523,274.0862 273.0797,275.7541"/>
    <polyline points="272.7681,270.4112 273.3577,276.6077 273.8169,272.1066 274.3285,270.2348 274.9348,271.1302 276.2647,275.9774 278.4056,285.9858 276.0773,270.1532 276.3549,270.4447 280.0268,290.5445 279.92,284.5195 278.5411,269.837 281.8208,285.5328 283.6663,292.747 282.2889,269.3735 283.0039,275.3011 285.1485,304.9786 282.4164,269.34 288.7635,305.8729 288.6236,301.6336 286.1138,274.0551 285.877,268.9178 286.4565,270.8442 287.5375,277.2053 292.3684,309.8743 287.7683,268.5289 293.1704,309.8743 293.3628,307.8831 293.143,300.9709 291.4053,268.1067 296.2256,313.1328 295.9677,307.4419 293.1189,275.046 292.8666,268.0397 293.4116,270.0262 294.2505,276.4839 298.2306,314.0581 297.6448,306.0361 293.6756,268.4179 301.983,314.6352 296.5719,268.1994 301.3424,311.271 302.583,319.2818 302.8353,319.1594 302.8706,318.0997 302.5821,312.3526 298.9949,268.0642 300.6807,278.1094 306.4054,319.5984 301.611,269.1109 301.7294,268.2418 303.4981,280.1564 308.0984,319.4362 303.9155,267.862 308.5487,310.2397 309.9511,319.4297 309.3523,308.5143 305.79,267.9123 307.5589,280.6035 312.0374,320.12 309.3176,280.6002 308.7782,267.8878 310.2745,276.081 315.4503,313.5058 316.4759,319.337 316.9406,320.4687 316.9418,318.3787 315.897,309.968 309.7625,268.3296 310.4656,271.3969 311.838,281.204 316.5351,319.6331 313.2394,282.8716 312.2389,267.8955 313.5694,275.3894 319.3546,314.8554 318.4871,304.9253 314.2396,268.4028 319.4396,304.6238 321.1867,314.5001 320.9774,304.6894 318.5525,268.2161 322.3183,312.4401 322.2294,306.513 319.9546,268.453 320.3086,269.34 321.1967,276.1001 324.6295,309.906 323.432,268.2676 327.4874,300.5434 328.6397,306.8101 328.6896,304.6677 328.0394,298.7014 323.9212,268.6474 330.1872,301.2886 327.6445,269.1695 328.5338,272.9996 331.3086,294.9385 331.3414,290.3338 329.6105,269.8203 330.3677,274.4984 332.1677,292.1934 331.6459,269.4405"/>
    <polyline points="347.945,254.3979 347.3177,255.0969 346.8147,255.0403 345.0328,253.7567 346.4479,259.8543 345.3239,254.0172 344.8049,252.5671 344.5101,252.1445 344.1008,252.131 343.6137,253.5466 342.8628,260.0794 342.4056,261.4277 341.558,248.558 340.9053,272.0231 339.1103,252.5092 338.1757,247.2117 340.8538,274.0981 334.768,243.4584 337.7516,270.5632 338.2467,277.8489 334.2146,249.0129 333.1986,243.6271 336.224,278.5505 336.6181,285.0331 336.5073,287.6567 334.9993,279.2287 330.2271,243.9644 335.3679,289.4038 333.1561,275.4335 328.6487,242.5469"/>
    <polyline points="353.297,240.7316 351.7018,241.2891 352.9931,237.4396"/>
    <polyline points="356.0663,264.1233 356.3946,257.5972 356.8091,265.0683 357.8301,252.9881 358.1875,253.1198 358.4987,254.8919 359.1047,265.0181"/>
    <polyline points="378.3933,276.8098 378.3867,277.0865 375.9917,243.0418 375.5055,230.9405 376.0787,232.8674 377.2345,239.7023 382.7912,277.1729 381.7292,267.8717 376.587,232.2576 382.4539,267.7861 384.3271,277.1137 384.4121,275.1297 383.8638,269.2339 379.5919,232.4172 381.2307,240.6631 387.1634,278.0008 383.2379,238.3176 389.067,278.2873 387.9455,252.2702 389.6844,279.1576 390.077,260.7243 390.4219,256.6522 391.6524,261.4527 393.7374,276.5401 394.3641,279.4273 394.5456,278.9006 394.2207,276.1996 391.8676,263.23 394.7542,279.8914 395.031,279.5792 395.0721,278.5994 394.9621,271.451 395.9676,273.5063 398.2805,280.5577 396.6429,272.3192 398.6935,280.6752 399.0525,280.9607 399.4959,280.8113 399.9162,280.1443 400.3482,280.1869 401.4798,281.7228 402.645,280.7264"/>
    <polyline points="403.16,280.895 403.8883,280.675 404.8645,284.0699"/>
    <line x1="399.3864" x2="397.8158" y1="272.4544" y2="272.1763"/>
    <polyline points="396.2721,270.7665 396.1961,267.432 394.9035,267.5672"/>
    <line x1="389.0714" x2="389.1306" y1="255.8244" y2="252.5839"/>
    <line x1="386.6742" x2="386.2261" y1="250.7261" y2="244.4974"/>
    <line x1="382.9174" x2="383.0023" y1="237.4396" y2="234.1991"/>
    <polyline points="378.3933,277.2321 374.6532,240.3953 373.497,230.9249 372.9229,228.2974 376.5355,275.5443 369.6399,224.0269 373.5284,263.7663 374.0211,271.4334 366.8429,224.051 367.1199,229.5644 370.0911,261.4393 370.441,266.8677 370.2553,268.3345 368.4546,256.3352 364.5995,222.6004 368.383,255.8079 369.2086,266.3004 368.9165,264.2888 365.3727,229.1118 364.5343,222.1719 364.0176,220.1349 364.1652,226.8703 366.1922,259.9237 366.3389,266.469 361.704,219.2324 363.764,264.3512 358.3111,227.4886 356.8402,219.0541 356.7924,219.2917 362.9709,264.4606 356.9592,226.4939 355.341,217.8581 354.69,216.0241 355.7951,227.8271 360.7423,264.8146 354.3269,215.2735 356.0923,236.9249 356.2982,241.8629 355.9736,243.273 350.7314,214.2838 350.1659,212.9265 350.6256,218.7659 352.7498,235.8711 352.706,237.3469 347.572,210.6608 348.8656,234.8904 346.2396,215.8313 344.9401,208.7655 346.3849,225.2435 346.3834,229.9397 345.5157,226.6704 342.8643,211.4446 342.1721,208.9933 341.8456,208.8347 345.5143,228.0528 341.6571,208.2505 341.6481,223.1579 341.4155,225.9788 340.9125,226.7238 338.5219,210.5864 337.9506,208.5376 337.6913,208.4652 338.065,211.666 340.3888,224.0383 335.816,207.9119 335.7052,223.3175 334.7268,211.3906 334.0084,207.7098 334.6052,220.5245 334.4435,223.0533 332.9581,207.6179 332.2865,221.6887 331.8313,223.8158 329.6458,210.6129 328.8241,207.8015 331.3525,223.4834 331.3588,225.2757 327.6445,211.4498 326.8969,209.015 326.1665,207.693 328.8676,227.9328 329.3863,233.39 329.2474,234.3677 325.6606,207.4651 330.4155,253.6784 331.6202,267.947 324.7965,220.6344 323.0585,209.8914 322.402,207.4317 322.939,216.3773 327.1874,260.6061 327.5124,268.1997 327.239,268.0062 326.8013,266.0402 325.7131,259.1043 318.9323,207.8282 324.5714,267.6509 320.5402,221.057 319.406,210.267 318.8911,207.7767 319.6413,219.2683 324.2173,267.3136 315.4382,208.3767 320.1726,256.3272 320.7787,265.1946 320.6382,267.3728 320.5185,266.8886 318.8653,255.6233 313.1839,208.5711 317.4724,267.499 310.1287,208.9341"/>
    <polyline points="310.112,209.3049 316.5016,267.2454 310.36,221.7637 308.8732,212.4241 308.0415,209.7185 308.6658,217.9214 313.6172,259.1328 314.2653,266.8488 312.2051,251.3244 307.6221,209.8456 310.6437,267.2119 305.3722,222.3271 304.1504,213.5986 303.4071,211.0159 304.1056,219.6312 308.7356,258.5494 309.4528,266.984 308.3595,259.2492 303.0722,211.2799 306.6848,266.6724 300.5231,212.1167 303.9528,255.386 304.5155,266.5875 303.0752,257.5941 298.2768,221.0628 296.8925,213.1286 302.8457,259.483 303.4765,266.6467 295.9732,213.4325 299.9352,258.5127 300.4214,266.7136 294.6973,214.1921 297.3994,258.45 297.6611,266.7317 292.1237,225.1502 291.068,218.3042 290.4011,215.8387 291.5161,226.8207 295.9849,261.4657 296.3942,266.6969 294.6091,254.5736 290.3252,216.3627 292.2544,251.8608 292.7224,266.908 289.327,226.4248 288.206,217.7892 288.5724,230.1414 290.6052,267.1126 287.779,232.0224 286.316,219.2749 286.0996,219.2163 286.0792,219.9998 286.2391,226.8736 288.206,267.4913 283.7856,220.5382 285.7146,255.8841 286.0882,267.8363 281.5048,221.5447 284.5736,257.9251 285.084,267.9715 280.9531,232.6976 279.3934,223.3098 279.1028,223.2005 279.1941,230.4191 281.4533,268.538 279.9114,255.4586 276.9034,224.4492 278.9857,253.4375 279.6213,268.2586 278.7286,262.6313 275.5467,232.7574 274.7708,227.3219 274.304,225.8499 274.5629,233.4538 277.2004,265.362 277.1828,269.1031 276.0073,260.4844 272.91,227.6638 276.9996,269.0291 269.9944,229.2066 271.9221,258.6229 272.3458,269.5499 272.0832,269.5956 271.4259,264.4343 269.2081,237.0351 268.3869,230.7719 268.776,254.9124 266.2479,236.3748 265.3897,232.434 266.8409,248.4085 266.7932,252.0422 265.9836,249.2396 263.8804,236.2002 263.305,234.3621 264.6391,247.5615 263.1354,234.9587"/>
    <polyline points="254.1129,231.5559 252.8873,230.9705 250.9303,230.9997"/>
    <polyline points="243.6112,215.8889 245.2488,216.9189 245.0892,204.4087"/>
    <polyline points="243.5442,203.2951 243.2906,201.6909 243.0962,202.9578 241.1213,202.6539"/>
    <polyline points="243.2237,195.5459 241.0269,188.0872 239.7622,185.366 239.2304,184.8984 238.8252,185.2978 238.7288,186.8055 238.8927,194.9125 238.7566,193.4556 239.07,192.017 239.387,193.1645 238.7915,194.176 237.5253,194.3473"/>
    <polyline points="240.9271,186.1514 241.4155,195.4418 242.8258,204.325 243.0373,204.9731 243.3046,204.0327 242.2377,186.6944 243.5176,192.2913 248.2112,217.7132 247.8926,213.1788 244.6746,186.6573 244.839,187.2683 248.3052,219.992 248.5457,219.0027 248.5512,214.0608 247.7812,186.9354 247.9123,187.4196 249.6594,200.6372 253.0411,231.1427 250.6766,195.8782 250.4463,187.9487 250.4889,187.1871 250.7295,187.2483 251.7293,194.2323 254.4335,224.5496 255.336,231.6151 255.4027,229.633 254.8187,223.2647 250.808,187.4672 252.5142,196.1512 258.0628,231.3963 253.7666,187.4672 258.5096,220.3718 260.6879,232.9489 260.2221,226.6733 255.336,187.5689 261.7848,233.9029 261.7915,228.2356 260.1135,193.7877 260.0468,187.695 260.5427,189.724 261.3119,196.1652 264.9082,232.0876 264.1144,222.6678 260.0545,188.21 267.4071,230.6277 264.0224,197.1501 263.398,188.1096 263.8358,189.5214 264.6699,195.92 268.1165,228.8973 267.88,222.6485 265.5841,193.9173 265.4155,188.1173 266.7339,196.5073 270.0155,227.4618 268.9263,188.1508 273.5689,225.5551 273.1636,218.3523 269.8205,188.5501 270.6147,192.5421 275.0211,223.9677 274.2687,212.8854 271.8643,188.3542 274.3864,211.7536 275.9326,222.6596 276.0496,217.7734 274.9192,195.4774 274.8589,188.7487 275.2799,189.4594 275.9701,193.4392 279.0913,221.1123 277.9835,188.6476 281.555,219.8234 280.0423,195.0232 279.9676,188.4971 280.4642,189.9565 281.0289,194.86 282.8966,218.9119 282.8167,210.1631 281.8756,188.5898 287.1091,217.215 285.1342,194.0435 285.008,188.3709 285.3841,189.3035 285.8068,192.7954 287.2243,212.8035 287.7001,216.3279 287.9672,214.8265 287.9028,209.3784 286.8928,188.5061 288.8729,215.2568 289.1326,212.1739 289.1675,191.9028 289.4136,187.9577 290.0984,192.9981 291.3909,213.7464 291.5708,209.1205 290.9419,188.0246 295.4193,212.6032 295.1646,208.7434 292.7686,191.8743 292.579,188.0832 293.4652,192.1126 295.443,208.3105 296.176,211.9945 295.9643,207.2681 293.921,187.771 294.4915,189.1059 295.4981,193.4292 298.9952,211.104 296.5127,187.2483 301.904,210.1722 302.1259,209.9216 302.1008,207.001 301.1339,191.3577 301.1552,187.068 302.0827,191.5983 304.3816,209.6255 304.3517,205.3714 302.9596,186.6596 305.3088,209.0658 305.5361,205.4456 305.2918,186.2943 305.5557,186.2777 305.8196,187.0462 306.3329,189.9604 308.7267,208.4359 308.8386,202.4205 307.8409,185.6197 310.7879,207.7432 310.7629,207.2249 307.604,185.6776 308.4286,189.6802 310.7926,207.5063 311.0687,205.5236 311.474,184.7928 311.7574,185.0455 313.2618,207.1568 313.4967,206.9334 313.3412,202.0097 311.7574,184.3271"/>
    <polyline points="311.7999,183.9473 312.8974,189.7063 315.4472,207.3969 314.7173,192.5645 314.6087,183.6833 314.6786,183.1967 315.2216,185.2828 317.7517,204.3344 318.4174,207.1111 318.7392,203.2359 318.744,182.6822 319.308,187.5258 320.1824,206.7133 318.7524,182.0452 319.4944,184.5302 323.7983,206.2395 324.0319,205.8777 323.8622,200.4009 322.3685,181.196 325.8489,201.5912 327.0278,206.6798 326.7742,202.8058 324.0788,185.7339 325.2248,191.3573 327.5351,206.5279 326.9581,191.8918 327.0957,186.1612 327.4501,186.3445 328.0934,188.8712 330.8078,206.1827 331.2902,205.4601 331.3833,202.6707 330.4125,188.5563 331.8905,206.7892 331.3284,196.3759 331.4515,191.081 332.2091,192.8984 335.6628,206.309 335.9777,206.6737 336.0195,204.9694 334.338,195.6219 334.8697,196.3905 335.3533,198.3659 336.7777,206.8999 336.5575,198.1968 339.1823,205.4042 340.1547,207.2115 340.7958,205.7181 340.8216,200.2477 341.3326,201.6212 342.0112,207.1278 341.5889,203.0505 342.6067,205.9471 343.3707,207.263 343.9319,207.5685 344.3917,207.0763 344.5269,205.4812 345.1337,206.4217 345.253,207.5321"/>
    <polyline points="320.6382,180.4789 321.4001,180.5046 319.6018,180.6144 318.156,180.1403 318.6819,180.7496 317.7427,175.3716 315.8437,181.9221 314.9574,175.5921 314.1667,173.3062 313.3996,180.8329 313.1169,182.2762 312.7098,182.6571 311.985,179.5528 310.6695,170.653 312.8518,180.5423 313.0788,182.8755 308.7463,166.2276 308.5169,166.4997 308.4064,169.5143 308.5503,183.8301 308.214,169.9133 307.8838,166.3278 307.4611,165.1827 306.9284,181.2418 306.735,183.2469 306.4701,183.9889 306.1608,183.8378 303.7694,165.2284 303.0688,161.5617 302.9554,164.758 303.9892,180.9684 303.9614,184.6449 301.1248,160.4051 303.1549,184.984 299.8543,164.7803 298.3872,157.7708 300.5158,180.6107 300.6492,185.5347 297.4332,155.2732 298.5686,185.9715 295.9081,157.5789 294.7913,150.6473 294.9445,155.1063 297.2868,181.6562 297.3817,186.2093 295.5987,175.6426 292.0388,150.3847 293.7048,179.6958 293.6931,186.5144 293.4965,186.2376 288.0104,139.6615 286.6199,130.4047 287.1879,138.3477 292.3001,186.6573 283.1245,128.5985 290.809,186.0029 290.8324,187.0539 284.1314,139.2182 282.3571,128.7581 282.1962,129.6361 282.6978,137.5647 287.0589,187.4427 281.2063,138.8274 279.7397,128.7929 283.7345,179.2219 284.1541,185.8495 283.9924,187.3189 275.8322,124.167 281.2501,174.0955 282.4241,187.8135 281.0839,178.2019 274.8435,123.3817 275.7473,134.7937 281.0658,187.7208 275.1502,137.8589 273.0294,123.3315 273.6391,131.5832 278.7076,177.6434 279.5119,187.426 270.9438,123.3984 275.7008,176.6403 276.2912,184.6941 276.2019,187.4372 274.9189,178.427 270.0322,134.6285 268.5633,123.6521 269.0408,132.0185 274.0246,187.5689 265.6601,122.4277 269.9563,187.7208 265.9301,135.9961 264.6831,123.5555 263.9362,120.3039 264.6301,136.7107 268.2092,187.704 260.1668,121.1829 264.6456,167.1717 265.8089,181.4804 265.9974,187.0462 265.7911,187.2876 264.4482,178.7508 258.8386,130.1728 257.6238,121.829 258.2805,131.5838 263.5577,187.3912 256.0119,123.4486 263.5332,186.8852 261.8123,178.092 252.998,124.0653 260.9081,186.5479 254.4331,139.3542 252.4328,126.8514 256.1955,176.2761 256.7123,186.3368 255.3547,177.109 250.5385,136.6323 249.2077,128.404 250.145,141.724 254.2133,186.472 248.9417,140.8506 247.3087,129.0285 252.4025,176.1743 253.1666,186.1758 247.941,142.6712 246.2788,132.0514 246.0342,132.9114 246.2823,139.3889 249.1638,178.1088 249.5116,186.1424 243.9665,131.7553 247.2213,172.5478 247.8237,185.4587 247.4941,184.6657 246.5205,177.3076 241.7459,133.2667 246.1011,185.9737 240.7422,143.531 239.433,135.5957 244.9617,185.3995 237.2213,137.7059 241.6017,176.0204 242.3536,185.2309 241.4865,181.3306 238.5826,159.755 238.1077,156.7499 237.8281,156.3702 237.6125,170.7244 237.4493,174.1395 237.1749,174.7256 236.8669,169.0064 236.5777,168.6353 234.478,171.0161"/>
    <polyline points="238.6985,175.8943 238.4274,177.487 237.5505,179.3472"/>
    <polyline points="218.8785,175.7011 217.914,177.0911 218.2792,179.2043 216.3883,176.6629"/>
    <polyline points="212.1002,169.1841 211.8017,169.6438 211.8753,170.6737 214.3625,174.088 214.0638,174.427 208.6224,171.8851 221.6143,181.4311 224.2556,183.6769 224.2936,184.0406 220.2313,181.7699 208.6519,174.3756 206.8022,173.5458 227.8854,189.4434 211.1378,176.4237 206.4192,173.2524 206.6919,173.719 210.0294,177.0703 227.5562,192.9375 224.6567,191.0578 203.9966,174.7883 207.0692,178.0726 224.7104,195.0706 228.2061,198.8379 224.0282,195.6711 200.7889,175.6072 227.9001,201.9499 222.6544,197.8501 196.5197,175.6994 227.6068,202.2909 225.898,201.0394 201.9896,180.3702 194.4833,174.2154 198.0448,178.0927 220.7003,199.5964 225.775,204.7718 224.4383,203.9396 190.1108,174.966 196.779,181.7211 223.5645,206.684 191.3629,178.0684 185.4174,173.0913 215.0264,201.3676 222.0102,208.562 221.5371,208.3267 210.9019,199.9133 182.5051,176.0217 220.1278,209.8456 219.6772,209.6114 211.9532,203.4091 185.007,180.6284 180.4877,177.2845 187.5445,183.805 219.3596,210.7996 180.7071,178.9249 186.131,184.069 217.7558,212.0227 211.454,207.3318 179.5844,181.9298 216.5614,213.394 187.8234,191.1068 178.6391,184.3863 185.2307,190.4389 214.6748,215.0534 206.8858,209.2516 179.1539,186.9779 204.4319,208.91 213.2228,217.0708 209.914,214.6311 185.6265,193.468 179.5001,188.5396 184.0035,193.5018 210.3951,219.5955 209.5172,219.2067 204.5238,215.3053 176.8928,192.5387 181.7577,197.2536 208.9601,221.022 185.035,199.9443 176.7819,193.1152 179.9053,196.3222 201.8097,216.0452 208.1413,222.1781 206.3209,221.0889 200.1493,216.068 176.2417,195.4957 207.2717,222.491 202.3341,219.4125 178.2339,202.502 185.1245,208.3931 205.1361,224.3977 186.8187,209.901 179.9053,205.0679 180.7905,206.3655 184.4802,209.7634 203.9375,226.4319 197.8793,221.9919 179.5761,207.0094 201.9706,227.9523 177.4151,209.2289 180.15,212.2596 199.7676,231.1427 176.1404,211.052 198.054,232.5782 196.7033,231.797 193.678,229.1199 176.6469,213.0562 178.7076,215.4063 193.3265,229.5763 197.041,233.5656 192.9095,230.2604 178.2906,217.3305 176.3936,216.0499 195.3759,235.8212 175.8788,219.3419 189.712,232.5835 194.2638,237.549 192.775,236.8776 182.0204,228.9507 179.7449,227.7489 180.2583,228.6055 182.1928,230.1629 193.4619,237.8953 191.6354,237.1399 178.7741,229.8681 191.0139,240.6724 180.9231,232.2772 178.5209,230.468 178.3457,230.5804 189.0714,239.9171 190.651,241.6521 190.1553,241.5533 185.8213,238.9706 176.3684,232.3335 188.5828,244.1845 176.6089,233.6667 176.6216,234.0639 178.2659,235.979 186.2599,244.2863 187.1563,245.4591 186.961,245.7398 184.0966,244.0862 173.2029,236.6723 185.5313,247.6325 185.1219,247.6452 183.0134,246.2685 173.2333,239.2052 171.9451,238.4438 171.7615,238.6297 184.5057,247.7546 184.5236,247.9526 182.9335,247.1039 172.8652,240.6981 172.7745,240.9178 174.3124,242.6758 182.5642,250.8535 173.1691,242.6731 181.1039,252.9637 172.021,246.1595 178.9683,254.9811 178.8332,255.3747 178.1409,255.0403 173.1033,250.5673 172.2912,249.924 172.0833,250.0365 173.3916,251.8418 177.8962,256.4243 176.4781,254.9888 176.1574,258.7714 175.5021,258.6255 175.3386,259.9017"/>
    <polyline points="176.2163,267.3046 177.8647,269.7557 178.6813,271.5429 178.4759,271.9554 178.0172,271.8616 176.056,270.1408 175.6065,270.506 176.0392,271.9137"/>
    <polyline points="175.5073,267.8788 188.5913,279.081 184.7252,276.506 185.8142,280.5744"/>
    <polyline points="196.3066,294.9244 195.5891,293.3717 200.3161,297.2547 198.8194,294.3187 195.9689,289.9947 203.0568,296.8834 206.4699,299.7798 196.5997,288.4949 194.6184,285.6818 207.0106,295.5394 209.974,297.5171 205.5059,293.563 182.3807,274.6813 174.9249,267.9638 203.9401,291.7588 211.0281,297.1117 205.9297,292.3508 180.5142,270.6715 174.8573,265.515 219.2077,298.7996 175.4145,261.9874 221.0648,297.6847 186.8461,267.6808 177.3475,258.855 215.88,291.9483 221.5374,296.486 213.4611,288.9875 178.3182,258.0027 212.5872,286.5419 222.1115,294.0296 217.587,289.8016 179.306,256.5595 223.2679,291.2693 188.1544,259.7963 181.7369,253.7065 217.7908,285.4355 224.1036,290.6874 187.4116,256.8595 184.0981,253.6791 183.1108,252.3619 191.842,259.2063 227.0211,288.2954 194.7727,260.18 184.5226,250.7183 220.0747,281.3403 225.7714,286.0326 227.0074,286.8469 227.0148,286.6515 185.2317,249.5699 228.9236,285.8839"/>
    <polyline points="228.6788,285.5968 186.4978,248.2361 221.4113,275.8179 230.232,282.3395 197.217,252.4889 190.7301,246.4026 189.4101,244.818 189.843,245.1375 227.2438,278.0678 231.4054,281.4525 190.6088,243.8125 226.1348,273.441 232.0721,278.0768 190.9348,242.8403 225.4856,270.5126 231.8949,275.2572 197.9798,245.7916 192.8837,240.8354 199.0575,245.7792 227.0243,269.9031 232.1144,273.7959 194.4326,238.4785 229.3309,266.1322 234.4273,269.8885 203.2115,242.2431 196.9492,236.2867 234.4611,269.3235 204.7776,241.2705 197.9104,234.4012 234.461,267.2376 198.2987,233.9197 237.1792,263.8606 204.8745,235.5406 200.4091,231.328 231.1776,258.5407 236.4279,262.7547 229.8519,256.1162 201.9791,229.6737 228.6568,253.5203 235.8268,259.5956 236.2591,259.8515 203.3719,228.0953 212.3144,234.9356 239.2472,256.6689 213.4474,235.4631 206.0355,229.043 204.3595,227.1837 210.4011,231.4082 235.913,251.265 239.9816,254.1455 240.9608,254.4661 229.9849,244.811 206.1322,225.3607 230.8074,246.7973 241.1381,255.2 212.7456,228.4256 208.2256,223.7231 242.1511,251.2333 209.9477,222.0172 240.4881,246.9023 217.5982,227.644 211.7583,222.3122 210.8762,221.0297 216.4953,224.8006 235.8961,239.2806 239.5427,241.7191 233.5635,236.3239 212.7754,218.9363 232.2379,234.3624 237.4408,238.2156 238.8506,238.8661 214.1683,217.9411 216.2209,219.0858 234.7565,231.9872 238.0149,233.9532 215.3975,216.7459 237.77,231.3036 222.1496,218.1261 217.7315,214.0154 233.4876,226.9676 236.0302,228.8858 237.0272,229.3196 235.2402,227.0684 222.3689,214.2332 219.9928,211.3816 223.7073,214.4112 235.4255,225.2474 236.7571,226.1628 223.1989,214.223 220.3019,211.313 224.0727,213.7615 236.9428,223.3767 226.3944,213.6394 222.3985,209.4903 222.4998,209.2232 223.5448,209.9548 233.9968,218.9029 236.1831,220.4311 236.3371,220.1872 233.6194,216.8881 224.4835,206.9411 232.9384,212.9798 234.2406,213.7807 235.1955,213.8972 228.1494,207.8891 226.3279,205.8582 226.6191,205.6923 228.5016,207.2575 232.8657,211.8631 227.6658,203.7084 231.5404,205.9369 232.2389,206.1294 232.8995,205.8777 230.0921,202.2385 230.0378,201.7669 230.4841,201.8156 229.6824,201.8924 228.9995,202.6539"/>
    <polyline points="235.7694,152.6982 235.3764,148.5701 234.9591,147.0682 235.7189,150.8585"/>
    <line x1="290.0896" x2="291.5753" y1="149.262" y2="144.0968"/>
    <polyline points="289.0596,132.7943 289.4141,135.8605 289.2115,138.9393 288.7043,131.2068"/>
    <line x1="185.2401" x2="184.1934" y1="172.7297" y2="173.936"/>
    <polyline points="177.6767,222.1022 176.1489,218.9363 176.1151,221.9"/>
    <line x1="199.7844" x2="199.6746" y1="296.5375" y2="297.01"/>
    <polyline points="204.4862,300.2171 205.6426,299.0442 204.4946,297.0435 207.5081,298.7069"/>
    <line x1="212.117" x2="214.0333" y1="297.7272" y2="298.9258"/>
    <polyline points="263.5242,247.0967 263.3723,238.4863 263.5499,245.7127"/>
    <polyline points="378.3508,277.6711 379.3975,278.0617 381.0183,277.8506 382.9933,278.3381 382.3264,278.4051"/>
    <polyline points="386.2429,279.2574 388.1015,279.1432 388.9002,279.7453 389.4177,280.6671 389.2138,280.1486 389.5864,280.2114 391.4527,284.6322 391.8819,284.4407 391.9417,283.9277 391.9255,280.5569 392.2282,280.8281 393.0756,284.2705 393.6798,285.5828 394.1272,285.4204 394.1953,284.9202 394.0586,280.796 394.6051,282.3445 394.8907,286.4249 395.4989,285.8532 397.7223,281.42 398.1209,281.6044 399.4761,288.7794 399.6993,288.7549 398.8613,281.7848 399.3195,282.1026 399.6496,283.0466 401.3216,289.5935 401.7167,289.3626 401.7009,288.3231 401.0761,282.4522 401.5604,283.7999 402.8495,293.4591 403.1844,293.27 403.1976,292.2879 402.8346,285.1056 406.6987,300.396 407.0004,300.1836 406.4262,288.518 406.6374,285.1076 407.2116,286.2984 407.7257,288.7119 410.4985,306.1852 411.1872,309.5279 411.4563,309.6361 411.3534,304.4022 410.2088,289.5557 412.6538,309.5328 412.2082,292.1731 412.7505,293.6981 413.1662,297.223 414.0325,311.9252 413.7286,297.1697 414.4043,299.56 416.7015,314.9125 416.8462,313.1778 416.0065,299.4705 416.1594,300.1759 419.8646,328.3273 420.0002,323.939 419.1475,300.3523 424.5479,327.8743 424.3974,324.6348 421.239,302.4217 426.9559,328.0569 424.3698,305.3994 428.0686,327.7965 426.0354,307.8311 427.324,311.2412 431.04,325.4832 430.7064,310.1646 431.0842,312.0909 431.8037,323.5426 432.3209,321.5211 433.0417,312.7787 433.8312,314.2123 434.4515,317.1677 434.5496,316.6789 434.289,315.2182 433.2026,314.2464"/>
    <polyline points="418.0081,316.0875 418.1985,322.6616 417.9784,327.4164 417.6876,328.0569 417.67,320.9643 417.6026,319.9537 417.244,319.4819 416.8839,321.6011 417.0619,327.7029 416.7384,327.8368 415.7339,326.6063 415.8053,327.466"/>
    <polyline points="409.8199,309.7313 408.8772,307.0619 408.2583,306.2951 408.1566,309.1816 407.7549,311.0891 407.0103,311.6486 406.376,310.93"/>
    <polyline points="406.3425,299.5425 406.4185,298.0735 405.8208,298.8564 404.8813,299.2463"/>
    <polyline points="391.4763,296.3097 390.9794,295.5668 391.2627,295.1129 392.7265,294.4776 390.3202,293.8107 393.2839,294.7055 392.2421,291.9084 392.4728,292.5864"/>
    <polyline points="424.8535,382.2496 426.1281,383.0427 418.6326,384.4524 430.9818,380.7729"/>
    <polyline points="420.0758,384.3173 420.6299,383.8956 420.5071,384.1576 418.7175,384.5541"/>
    <polyline points="371.2943,401.5974 370.758,401.325 370.8552,401.7236 375.8686,402.6016 368.3653,406.0881"/>
    <polyline points="364.4231,405.125 361.9576,405.3191 360.161,404.791 360.4112,404.4382 361.0461,404.5431"/>
    <polyline points="335.4349,462.9059 334.2118,463.336 335.0731,464.4844"/>
    <polyline points="331.4682,465.616 327.622,468.0704 327.1537,468.7112 331.4682,468.1897 331.7796,468.5109 331.6034,469.1102"/>
    <polyline points="387.5432,524.1217 386.6742,527.6081 386.0999,526.0297"/>
    <polyline points="318.4431,600.3555 305.7003,619.0079 302.7336,622.8512 304.9193,618.7008 317.0757,599.3296 302.5484,622.1271 304.4284,617.2916 311.9696,600.6323 313.0001,597.6125 298.9356,619.7355 300.442,616.4525 312.7539,594.3869 312.368,594.6884 309.4585,599.2389 298.0911,618.9167 312.4668,594.2685 296.2983,617.5865 298.029,613.9041 310.9429,592.1099 296.409,612.9082 293.7691,616.1209 296.8327,610.7656 309.7399,590.3945 309.5326,590.4912 292.0053,614.8239 303.9008,596.1846 307.8667,589.2036 306.5763,590.2601 303.7113,593.9321 289.7175,613.3459 294.2757,605.8454 306.3127,587.3973 295.499,604.1868 289.4136,612.7807 289.549,611.7956 290.7227,609.0371 301.5125,587.0988 302.8611,583.9701 302.5753,584.0503 297.9995,591.4151 286.8387,611.1173 298.8816,588.2825 301.6026,582.4416 285.1638,609.8003 287.6816,604.5683 300.8514,579.8258 282.6625,607.7585 282.2554,608.2566 284.3063,604.7702 297.7731,584.8021 300.3699,580.2649 299.1547,581.304 296.9044,584.0943 279.6973,606.6434 280.2558,605.2139 283.3146,600.0926 297.874,577.1753 282.9439,598.5756 277.9,605.3611 280.4018,600.7257 296.4792,575.2335 291.6766,582.402 277.596,605.3354 290.6693,581.8513 294.9085,573.6216 293.0401,575.9385 278.7653,596.9847 274.0839,603.3437 274.6067,601.7761 276.3744,598.5821 290.377,575.2618 292.8027,570.5987 289.4545,575.804 273.6448,603.1235 278.0746,594.8489 292.107,570.5575 274.9139,594.5296 269.5508,601.4434 286.1582,574.1882 289.8359,567.4933 288.6782,568.7045 283.8854,576.3941 269.4246,601.6378 289.7432,566.7415 271.8874,592.9892 267.8231,598.5305 266.5124,599.9925 266.232,599.9049 269.7584,593.5161 285.6862,568.0561 287.5481,564.3867 286.1839,565.997 282.6702,571.5002 265.5339,599.7723 268.6903,592.9584 284.1665,562.4085 262.8663,598.6497 283.127,561.5505 259.667,597.3159 281.4533,560.2089 257.4049,596.6657 276.48,567.2663 280.3062,560.648 279.154,561.7649 276.0865,565.8929 257.7147,592.501 254.9222,596.1123 260.2817,586.9396 277.4441,559.2884 262.2441,584.4504 254.6266,596.4546 256.3917,592.766 271.0679,566.8766 275.2323,558.8661 274.1261,559.9513 271.812,563.2674 254.0351,590.9449 250.7485,595.3641 255.3216,586.7568 272.1939,558.7644 255.8298,584.2807 248.4816,595.0538 250.6046,591.0524 269.8726,558.8494 269.1556,559.6022 246.6586,594.3702 267.2218,558.7824"/>
    <polyline points="267.2642,558.4953 261.7445,566.1421 243.3527,593.6653 263.8448,560.6132 245.1124,587.6571 240.6148,593.5423 243.7695,587.6839 259.6503,561.7359 255.2858,568.4898 240.0925,593.6498 255.8342,565.5428 241.1282,587.5709 237.0779,593.1973 237.3142,592.2322 238.959,589.172 251.6642,567.4431 248.5743,570.9965 232.8487,592.0656 233.9774,589.8803 244.932,572.9271 247.3165,568.7937 242.8256,574.9504 231.7768,592.3193 241.2815,573.3512 228.2051,590.9716 230.3851,586.8275 238.1246,574.9631 227.9697,591.315 228.3001,590.0687 233.8131,578.6216 235.1701,575.0314 234.345,575.5382 232.8131,577.4752 224.2503,590.3944 233.828,576.0768 222.4111,589.7529 222.1115,589.4148 223.2875,586.6977 230.0716,575.0739 220.744,589.3478 226.7036,577.3192 225.9776,577.8753 220.2902,585.3175 217.7716,588.0551 217.376,587.8364 217.7596,586.426 222.5673,576.2467 221.226,578.4777 217.224,587.8956 221.1123,580.6035 222.0608,578.1715 220.2831,579.1991 214.489,585.1095 214.0428,585.0584 214.1852,584.2907 216.7936,580.2558 214.2695,582.3325 214.3118,581.1596"/>
    <line x1="214.7423" x2="213.2819" y1="584.6628" y2="586.3262"/>
    <polyline points="211.3658,586.3506 212.7839,584.8907 213.0665,587.8268 212.7586,589.7611 215.6614,587.7778 215.3352,588.7447 211.1508,594.5048 210.5354,596.0186 211.2878,595.2793 214.8458,589.2689 215.4344,588.4608 215.9062,588.4212 214.7282,591.9965 211.0957,600.7521 219.5475,590.2506 210.6239,603.0409 208.7362,606.0579 208.3691,607.1417 221.1302,591.1395 209.1626,611.7598 223.0221,591.7343 209.897,616.2916 223.0773,596.3356 226.1391,592.4684 223.3539,597.4003 211.6539,615.9301 209.5003,620.0407 215.1391,611.1096 226.501,591.7953 214.0953,613.319 209.4581,622.0581 226.022,597.515 229.5399,592.7827 211.7963,625.0875 228.642,600.1603 233.2624,594.0161 215.0842,621.4948 212.0833,626.6079 235.205,593.9881 217.5898,622.0675 213.7251,628.8306 217.0276,624.2689 232.8604,600.3055 236.3846,595.393 237.5505,594.3109 232.2149,603.9598 215.0219,631.9763 238.7408,593.644 220.4343,624.5771 216.4226,631.9026 215.6286,633.6979 215.789,633.9619 220.6818,627.4958 240.3905,598.9127 243.2147,595.4079 236.5331,606.3194 217.052,636.012 244.9009,596.0587 225.3657,626.128 217.9162,638.3572 221.7817,632.7717 241.7149,600.6773 245.9157,594.7667 242.2071,602.1005 223.4004,635.2707 220.2544,641.3209 227.2303,631.1531 249.5264,596.7651 228.9039,632.1167 222.6095,643.6165 252.7109,597.1047 226.9827,638.2853 223.0063,645.1022 249.0468,604.4625 252.6272,599.1192 254.0793,597.522 249.4781,605.3217 228.0509,639.0152 223.7322,646.2583 250.4237,604.3408 255.2768,597.2064 226.8808,648.9762 257.6328,597.9828 227.5814,649.947 253.8604,610.1407 261.2621,599.6204 229.5482,651.6438 256.7606,608.7209 262.6552,599.9242 231.8949,653.4759 257.5307,609.964 263.8782,599.9577 259.9893,609.8256 259.5485,611.3787 259.9747,611.7137 262.3731,608.864 265.727,603.9591 267.3276,601.0387 267.5166,600.5152 267.1888,600.0047 266.246,600.8212 265.6343,606.1207 265.9015,606.2419 268.7075,602.1026 266.8186,605.6247 266.4622,606.5507 266.6163,606.8074 269.0419,603.5191 269.8469,602.7862 270.4626,602.7116 270.5214,603.8429 269.2469,608.6441 269.5989,608.9535 272.4517,604.7698 273.2433,604.1229 271.7334,609.716 271.5772,610.7298 271.933,610.9636 274.8991,605.6878 272.911,612.1808 276.6099,607.4932 277.4512,606.8041 275.3704,611.5807 274.9117,613.5493 279.1396,608.6594 279.9509,608.0828 280.3259,608.3179 275.5642,614.0418 274.9619,614.8741 274.9938,615.3181 276.9471,613.5059 281.0311,608.6699 279.0774,615.3637 278.6686,617.3138 278.8689,617.6917 283.8171,610.7968 284.3321,610.757 284.1132,611.4134 280.3932,617.7592 280.3196,618.3256 285.2783,612.6946 286.2961,611.9194 281.7926,618.5976 280.7539,620.7439 285.5809,612.5104 286.0907,612.2521 283.8237,620.6191 283.6394,621.601 283.9404,621.9557 289.1746,615.2362 289.9413,614.5967 284.7544,622.6233 289.7809,614.9839 287.2334,622.2467 286.7718,624.8305 287.6088,624.1446 292.3219,618.2723 293.626,617.3274 292.3629,619.4741 287.238,625.6377 294.6983,618.3485 291.1865,624.8053 290.1005,627.9005 290.4771,627.907 291.4272,626.7109 295.7325,620.3085 296.4702,619.5836 296.7132,619.8205 291.4713,630.1285 297.8276,620.5378 293.5705,628.9351 292.4255,632.0143 293.564,630.5169 298.2444,622.5113 299.2395,621.5035 293.5213,634.7285 300.8641,622.552 294.705,633.8229 293.4744,636.5066 293.3224,637.5049 304.6746,624.9478 293.4448,641.7833 303.2215,629.1486 306.4402,625.6951 305.4089,627.9918 297.3269,642.1821 296.1696,644.5074 295.914,645.7189 297.2486,644.109 299.1249,641.0193 307.25,626.3453 296.4443,645.8568 305.6287,631.8778 308.322,628.1233 309.1657,627.3753 297.0384,649.9106 309.7981,632.6836 312.365,629.5279 312.7265,629.4175 308.869,635.5413 292.7916,659.0126 289.4471,664.5595 294.0749,658.6733 314.4675,630.4059 295.5422,658.9735 291.153,666.1045 310.5859,636.3703 314.9657,630.0931 295.381,663.2218 292.1907,669.3038 297.1904,662.597 318.4431,631.8749 295.829,671.701 315.3927,639.2628 319.9121,632.4144 314.4676,642.1895 296.7959,671.861 320.3863,634.8295 321.6334,633.2422 321.3811,634.137 318.4137,639.3347 298.3782,672.731 323.5581,634.0777 305.3803,664.5349 301.7552,670.9826 300.5141,673.9296 302.7098,671.1688 307.9787,663.3564 326.2515,634.9815 302.8186,674.9763 322.244,645.3381 327.2467,638.06 328.628,636.5841 304.2708,676.0642 325.2122,645.1338 330.979,637.2552 327.4222,643.6931 306.6591,677.5589 331.6208,636.6628 312.7936,669.307 309.0351,676.2168 308.2297,678.0057 308.4116,678.113 331.3404,644.2441 335.7143,638.383 310.627,679.3227 332.3691,646.2935 337.7819,638.6199 317.8734,673.1854 314.2821,680.1248 315.0082,679.2983 320.4613,670.4282 338.737,638.9847 319.2821,675.8362 316.9241,680.8126 336.1961,648.2931 340.3993,641.608 341.7666,639.9356 338.5726,645.9783 317.5406,682.4036 344.7625,641.0583 324.6707,676.286 320.8326,683.6705 345.8092,640.7969 321.2794,684.8099"/>
    <polyline points="321.4145,684.6154 343.2263,650.3133 348.8154,642.19 328.4568,677.1392 324.1838,685.2489 328.9648,677.8341 350.1492,641.9119 327.602,685.5025 346.956,654.8204 353.9281,644.3371 354.2845,643.9461 331.122,679.2765 328.3539,684.0 351.7853,650.8392 355.7032,645.6429 356.4628,645.1022 335.0188,679.315 331.9665,684.8768 332.3085,684.431 338.9363,674.3335 357.2559,644.9078 332.5742,686.3973 352.6316,656.894 359.0493,647.975 360.4719,646.4617 355.1335,656.0104 338.0021,684.9708 335.1735,690.2635 360.759,646.1579 340.4379,680.8799 335.5726,689.5633 334.7512,691.5123 359.3784,652.8688 363.249,647.3565 337.4948,692.8036 366.8897,649.0148 344.8792,683.6331 340.1975,691.484 339.5972,693.0483 345.3523,684.6514 367.5709,648.9427 341.9352,692.3904 361.891,662.1649 368.4145,652.668 370.1201,650.6061 347.649,687.3911 344.8217,692.5333 367.2416,657.8076 371.9187,651.2975 368.4571,657.9147 350.605,688.5394 347.6245,694.1374 356.3038,681.2073 374.4768,652.9017 355.6479,684.1429 349.6662,694.5937 370.4227,661.633 374.7664,655.0828 376.0797,653.6278 372.2491,660.8128 352.1911,694.4155 378.5529,655.5525 360.9259,686.0605 356.1535,695.1632 359.4052,690.5093 377.2674,661.7785 379.8325,657.9047 380.9424,656.7009 376.8163,663.4743 357.2833,693.381 356.9263,694.2894 362.4056,686.6859 382.3187,657.4438 360.4217,694.9472 383.7787,658.524 383.5416,658.9978 364.2809,689.9026 360.0754,697.2183 386.3188,660.3045 369.336,688.8022 364.3806,697.8685 364.337,698.4003 368.3102,692.403 384.0666,666.1759 386.2829,662.7433 387.3655,661.5958 382.3221,671.1471 365.8574,699.9026 384.5597,669.696 389.1731,662.8794 366.7037,698.8941 390.9446,664.1372 375.4093,691.6257 371.8058,698.3465 371.2685,699.8782 389.8436,669.6248 392.8694,665.1749"/>
    <polyline points="392.7522,665.5728 375.0125,694.7274 372.0024,700.2915 393.9957,666.4769 377.7445,696.8957 375.6325,701.511 391.4684,674.4863 394.9628,669.0 396.0262,667.894 395.3872,669.2535 378.2492,698.2587 375.8686,702.9333 382.3963,694.3152 399.3105,669.784 382.5186,694.9909 377.0505,703.8448 399.8512,670.6711 380.394,704.9842 396.0855,679.9876 401.6318,671.8697 382.8079,707.2553 399.9609,680.2722 404.3496,673.9966 383.7088,706.3521 383.2804,707.3055 405.8918,675.3316 388.8528,701.7398 384.9478,708.4568 387.9056,704.9726 404.2786,681.7652 408.284,676.6049 388.0255,709.0299 404.2688,683.4293 407.836,678.1756 408.6973,677.3813 389.7885,709.6525 412.0326,679.567 391.739,710.7842 408.6123,686.4342 412.4064,681.3215 413.5008,680.2857 410.5963,685.4008 397.1694,706.395 394.6177,711.1125 395.3941,710.5048 399.1628,705.3086 414.9625,681.5695 396.7778,712.174 396.6261,712.6909 417.8021,683.2355 400.071,714.5093 415.2441,689.893 419.2571,683.9542 416.4228,689.6024 401.2573,715.8297 415.324,692.5954 420.6333,684.6863 418.0303,689.6227 404.8567,711.2728 402.9231,714.7482 402.5523,716.0177 408.0214,708.2595 422.6893,685.7658 409.4628,710.4168 406.3425,716.9292 421.5766,692.2029 425.2423,687.0384 421.9387,692.9773 406.9256,716.8918 422.9777,693.683 426.9509,688.3648 411.9241,712.7124 409.1865,717.4609 408.6883,718.8282 409.6476,717.6949 428.9643,689.4691 411.8351,720.9996 427.1199,697.2348 430.5718,692.1556 431.7002,690.9549 412.9343,722.5927 431.6744,691.1493 418.1625,714.2105 413.9398,722.3313 417.5807,717.432 431.4245,696.8929 434.0717,693.3276 434.9407,692.7367 430.7784,700.591 416.5528,724.6259 435.5406,692.7109 422.7373,717.8791 419.6115,724.5482 419.0214,726.4164 419.7127,725.7328 422.4716,721.1252 437.3302,694.458 421.6776,721.2037 418.4716,727.2185 436.3196,701.7238 439.8198,696.9961 440.8758,695.9939 436.1458,704.6135 422.0675,728.1223 441.8041,696.1974 426.9995,724.4822 423.6974,731.516 445.1631,698.9152 428.4209,726.9875 424.9629,733.3725"/>
    <polyline points="425.2758,733.0597 444.7274,699.6233 426.9134,733.4485 443.7987,708.0439 447.0791,703.4704 448.2027,702.2831 448.3925,702.4437 444.1565,710.1595 428.4539,736.0697 445.0459,708.9461 448.8576,703.2521 432.6304,730.2201 429.3615,736.1381 432.0364,732.9923 445.8809,713.9828 447.2793,712.2355 447.6877,712.0832 432.7289,737.3224 432.501,738.176 444.6466,717.1532 447.0213,713.5471 436.1638,734.9859 433.9275,740.0067 450.7686,716.1014 437.5312,736.4644 434.8173,741.1532 449.9073,716.6421 450.3357,716.2876 447.9689,721.8709 437.9804,742.4297 454.1366,719.0818 442.3661,738.0948 439.1248,743.8586 438.6383,745.4012 442.3121,740.0839 459.8928,711.088 443.1971,740.3865 439.8703,746.744 459.4419,718.2411 461.0502,716.27 454.8907,727.4056 439.4069,753.9022 455.4375,727.6679 461.4467,718.4226 441.5777,750.6285 438.6975,755.8012 459.9342,725.9012 463.9168,720.6802 460.8357,725.7084 443.516,751.3401 440.6417,755.9152 440.0905,757.2869 441.4393,755.6883 465.1354,720.5083 443.2808,760.6291 461.8601,728.0354 465.2036,722.6094 465.98,721.9593 460.4617,732.0362 443.4393,760.3486 461.038,732.8081 464.8225,727.3704 448.2105,761.6166 465.389,735.0938 468.0901,731.431 450.8887,757.968 448.692,761.9037 469.0106,731.6332 454.3588,755.9359 450.9592,761.9229 450.2536,763.7435 454.7316,757.7669 469.1793,736.9516 471.7786,733.7098 466.1264,743.6843 453.2251,764.8919 473.4024,733.6553 459.3311,759.036 456.7905,764.0188 456.3394,765.6438 461.7651,757.3647 475.4529,734.5755 457.1505,766.3441 471.949,742.2618 476.4469,735.5844 461.8583,760.6664 459.2606,765.8626 476.3027,740.8256 479.2832,736.8924 479.4732,736.9999 479.1815,737.7022 477.1341,741.6474 463.1538,766.684 480.9207,738.8056 465.3127,766.4447 479.122,745.0888 482.3641,740.7921 470.571,763.4744 469.1033,766.8759 483.7236,742.9112 474.3412,759.7177 471.5329,765.1526 471.01,766.7239 473.4372,762.6856 481.7306,747.0298 483.6979,744.2283 483.1661,746.144 481.7304,749.3108 473.3004,766.4798 483.5123,748.8776 484.9634,746.8534 477.2899,762.7415 475.875,766.3852 485.8832,751.5235 487.2847,749.8416 480.6548,763.1838 479.2903,766.5603 486.7028,752.3483 487.4714,751.3273 482.4752,763.7709 481.7474,766.1999 481.9167,766.6734 488.4312,755.0067 489.4463,753.9357 488.5895,756.8779 484.4832,767.1037 491.1174,756.8312 486.6183,764.8698 486.2045,766.3017 493.3035,759.2451 489.179,764.6085 488.4846,765.9643 492.6122,760.4103 492.3418,764.8249 492.6102,765.7401 493.0757,765.8626 493.2681,764.6968 492.916,763.5504"/>
    <line x1="492.7976" x2="491.7586" y1="759.388" y2="757.4633"/>
    <polyline points="491.008,754.2897 490.7582,753.2645 489.9732,752.6721 490.139,751.6556 496.1646,740.9379 495.1174,741.8756 488.6211,750.0458 489.0817,748.3505 493.5002,738.1924 492.2087,740.1567 488.1756,748.0353 491.2111,738.2576 490.4679,738.8023 485.639,745.0285 485.4192,744.6416 486.1708,743.2653 489.5044,738.8633 488.2996,740.0679 485.8762,743.8137 487.4881,740.2694 487.6703,739.5473 487.4546,739.054 483.0508,740.7948 482.6795,740.2694 482.7273,739.7552 483.7648,737.9056 483.3258,739.4673 482.946,737.1293 480.8449,736.4869"/>
    <polyline points="479.1223,727.4554 481.7229,727.8854 483.4867,727.4129"/>
    <line x1="467.1696" x2="465.1096" y1="725.7753" y2="727.2018"/>
    <line x1="460.3485" x2="460.8893" y1="712.3459" y2="712.109"/>
    <polyline points="460.9227,710.8177 455.9262,717.3334 457.5834,713.5878 458.8294,709.3654 458.019,709.8832 455.5129,713.4685 455.6781,712.5022 457.4325,709.8351 457.7324,708.8079 456.7055,709.1621 453.7735,712.0163 453.6173,710.9271 455.0056,707.0609 453.999,707.3562 451.5928,708.8804 451.6315,707.8451 452.7101,705.0434 449.0718,707.5424 450.0563,706.3683 452.2891,704.6216 450.4311,705.9386 447.156,709.1041"/>
    <polyline points="443.3825,696.281 443.5177,695.8768 443.1891,695.3011 440.9595,695.0412 439.3901,693.2427 437.9804,693.3276 437.7847,692.7338 438.1915,692.1535 437.4731,692.7612 437.1783,690.6175 436.6539,690.4795 434.3588,691.166 434.3049,690.7222 435.6975,689.213 435.3797,689.0301 431.2431,689.5206 433.4162,687.26 432.4769,687.1887 429.4626,688.313 430.4843,685.1367 430.1037,684.9875 427.8385,687.2969 428.0449,686.654 430.4407,684.2633 430.1964,683.991 425.5127,686.0447 425.3852,685.6287 425.7189,685.2088 428.5152,682.3342 428.2215,682.1255 423.8766,685.3232 423.9007,683.8548 425.313,680.016 423.578,684.8271 423.2249,684.6154 423.3055,683.5612 424.2595,678.2223 423.0764,679.1484 420.0758,683.1297 424.096,676.2982 423.6214,676.1067 419.237,681.026 417.994,681.981 418.8914,680.1029 424.1245,672.6917 422.8435,674.0079 417.5257,681.3819 417.358,681.1548 417.7878,680.2812 422.1788,672.4136 421.7559,672.3756 420.5674,673.3495 414.0541,679.5413 413.905,679.2468 419.424,670.4256 418.4423,671.2694 412.9681,678.5641 412.7914,678.1576 413.2924,676.7848 416.7318,669.0109 416.243,669.1338 415.2445,670.2376 410.0934,676.5912 410.9137,674.8808 415.8628,667.2223 410.5825,674.9721 409.5148,676.111 409.5161,675.4398 410.289,673.6431 414.0592,666.5686 413.5845,666.8641 408.335,674.8448 409.0032,673.0178 414.5209,662.1493 413.1272,663.6153 406.0044,673.4605 406.9114,671.3429 412.7995,660.6522 414.0492,657.8069 413.0375,658.4191 411.0402,660.731 403.0962,671.1202 411.6208,657.2281 411.3057,657.2494 409.6781,659.0766 400.5941,670.1393 402.8204,665.5138 408.9329,654.9191 402.4778,666.5018 400.4924,669.4132 400.0838,669.4256 400.3404,668.6781 407.6225,656.7612 408.8569,654.0835 407.9726,654.5269 405.7558,657.1859 398.4749,667.7164 408.0471,651.8215 396.5849,666.3575 396.4575,666.0118 397.3113,664.2509 404.3115,652.2639 406.1599,648.581 405.6756,648.7741 403.5902,651.5053 394.5752,665.5135 397.3786,659.262 403.9698,646.1991 396.5564,659.131 393.4054,663.8081 393.6637,663.0738 402.5774,646.9331 403.8101,644.0465 402.9481,644.7547 401.4328,646.8282 392.3332,660.7726 390.7167,662.8125 392.6788,658.2737 400.6493,643.4258 389.5709,659.0979 387.923,660.9302 388.0477,660.3698 399.2601,641.8853 386.8446,659.256 396.724,644.7791 397.9857,642.4088 396.6191,643.5335 393.9799,646.583 384.9181,658.1866 390.6597,648.3447 392.1162,645.361 384.8854,656.0427 383.9095,657.0984 384.826,654.0582 388.1599,646.9342 384.0592,653.0624 381.7765,655.9428 381.5836,655.51 381.8643,654.5643 384.8751,646.5391 384.4031,646.6896 383.4894,647.88 379.5822,654.0427 379.3975,653.7964 381.7247,647.7737 382.03,646.1748 381.5334,646.4695 378.5754,653.8513 378.3675,653.4166 378.699,651.9295 380.4934,646.3587 380.1313,646.3175 379.0154,647.3985 374.8901,652.0584 379.6756,645.5489 374.5576,651.6506 374.2399,651.3657 374.3375,650.8806 375.9737,645.4566 375.5055,645.406 375.1214,645.7265 371.105,649.7386 370.8037,649.2466 372.653,644.6749 372.1633,644.7983 371.722,645.7076 370.4999,649.5839 370.4933,648.6134 371.2246,645.9748 371.0574,645.4987 370.0371,645.8971 367.5701,647.6681 367.2929,647.3385 368.7361,644.4353 365.6412,646.9568 365.2497,646.8415 366.1536,642.0868 365.4731,642.7769 364.0343,645.7691 363.5544,646.3433 363.3082,646.006 366.0991,641.2733 365.6552,641.1433 360.662,644.9849 360.4295,644.4945 360.8593,643.6144 364.8353,637.1565 364.4141,637.1586 363.6727,637.8571 358.2828,643.6707 362.5067,638.497 363.1618,637.1428 361.5098,638.4774 357.2137,643.5897 356.8503,643.3036 357.0624,642.3313 358.9619,636.3663 358.6154,636.2638 357.5649,637.3145 353.885,641.787 356.8928,636.2394 351.9555,641.2952 355.3826,635.6562 355.6924,634.9556 355.2809,634.7871 350.7789,640.0823 349.5843,640.9838 350.366,639.0554 355.3312,630.9069 354.9848,631.0136 354.1931,632.2493 349.9917,639.7855 349.1192,641.075 348.8842,640.9802 350.1036,638.0212 355.3765,627.5484 345.9553,639.9297 352.7688,625.6153 344.2398,639.3795 352.6224,623.7369 343.8972,636.4286 342.0471,638.6826 342.8804,636.1418 348.3221,624.5903 349.5325,621.3397 348.716,622.0682 347.6908,623.8467 341.3789,636.8338 340.0607,638.898 340.2555,637.8609 341.9055,634.2168 348.5574,621.191 338.586,634.5941 336.3514,637.0913 344.7972,621.1968 345.9366,618.2588 343.6763,621.0182 333.6376,636.2304 334.0084,635.1669 336.083,631.8337 345.4574,617.7306 333.1136,636.6436 340.5253,621.6862 343.191,615.6105 342.83,615.7599 341.1637,618.2101 330.6637,635.6835 332.3302,631.5368 340.8383,613.3717 327.2845,634.1476 329.2382,630.8035 338.39,617.18 340.1648,614.0598 338.5605,616.2972 327.0278,634.3648 327.1727,633.2613 328.5081,629.9417 336.8219,611.2654 322.5282,632.3307 324.1884,628.9616 336.246,608.957 335.4439,609.6406 333.2639,612.9676 321.6167,632.2122 324.6953,625.8295 334.1024,608.1459 323.0628,626.5325 319.8781,631.2405 320.1992,630.5321 334.0084,607.7416 330.1093,612.7646 318.0686,630.5009 329.2266,609.9677 330.6237,606.8546 328.1579,610.31 316.2403,630.0519 316.5254,628.8588 318.0886,625.6225 328.5638,605.6302 324.4364,611.767 314.1379,628.9962 325.0954,604.8114 324.4027,605.3521 322.7393,607.8144 310.5755,626.8436 313.3016,621.4077 323.4745,604.0866 308.6334,625.6576 308.7022,625.2651 319.1793,608.6336 321.9136,603.7045 321.5497,603.7995 319.6247,606.6522 308.6937,625.4793 308.3559,625.6115 308.5884,624.5705 310.2522,620.7818 319.1219,603.2948 304.6259,622.9714 318.3247,600.7006"/>
    <polyline points="297.0869,650.7156 290.5955,660.6933 292.9426,654.9358 291.3294,656.9288 290.7544,656.4821 291.153,656.1602"/>
    <polyline points="293.415,653.8479 295.2548,652.0828 294.7488,652.7253"/>
    <polyline points="292.8499,670.9659 293.6095,672.3422 296.2423,672.7477 296.8451,674.7055 298.0544,673.8456 297.81,674.7189 298.1502,674.9848 299.2887,674.5624 299.9064,674.6467 299.8974,676.6049 302.2611,675.947 302.8508,676.2134 302.9538,676.9422 303.3439,677.0872 302.7235,675.9348 303.2319,676.2084"/>
    <line x1="294.006" x2="295.5844" y1="694.6859" y2="695.8085"/>
    <polyline points="294.2596,699.3542 294.1489,699.9541 295.6673,696.0992 295.1364,695.86 289.7175,699.8434"/>
    <polyline points="304.5747,716.8532 304.4305,716.0177 304.3043,719.1578"/>
    <polyline points="302.8443,720.7606 301.7886,722.948 303.4688,722.1884"/>
    <polyline points="301.029,727.5056 297.421,735.8552 296.774,738.0192 297.0276,738.3768 301.9405,731.3293 302.3838,731.1203 301.2664,732.9651 299.2897,735.1788 299.8251,735.0884 300.2012,735.5676"/>
    <line x1="302.7761" x2="302.3706" y1="732.7906" y2="731.4812"/>
    <polyline points="298.0833,732.3593 301.4755,729.6564 303.0632,727.8017 303.0433,727.2376 301.9554,727.5543 296.4109,732.0979 303.0774,723.2854 304.7008,720.7104 304.6526,720.2391 302.763,722.0871 294.5438,732.0646 304.5246,713.8898 292.8326,732.6393 292.5872,732.8241 302.3316,713.8596 300.5537,716.1965 292.1294,730.218 290.5344,732.4861 290.1823,732.4443 290.6254,730.8228 292.7916,726.2418 300.1782,712.5512 287.5605,732.4663 297.9631,713.4275 299.5935,709.8804 298.4689,710.9223 296.6695,713.3543 284.1882,731.3781 297.5426,708.6985 294.0959,713.2881 282.1125,732.0889 284.2869,727.5275 294.4975,708.4973 278.1948,730.8903 281.3636,724.7824 292.5834,705.5377 282.4408,724.1968 277.7647,731.9718 277.9633,731.032 279.7741,727.584 290.2145,709.8559 292.8725,704.8083 292.4945,704.8323 289.5897,708.2704 274.7383,728.1059 273.0228,730.2934 272.9535,730.0882 289.7728,701.8498 271.9312,731.2791 275.9201,723.4496 292.976,692.3904 268.6315,730.0972 287.7473,698.5079 291.5663,691.5715 288.408,696.3409 267.6479,730.7984 267.3402,731.1864 271.6096,723.2179 289.8617,692.205 265.3414,730.1954 265.1876,730.3341 282.7985,700.7035 286.4733,694.1413 287.27,692.196 285.9188,693.6464 281.7419,699.7552 262.1067,730.1989 281.6812,696.1806 284.9063,690.1116 281.002,695.6801 263.1325,723.3044 259.2614,728.7876 259.1185,728.5021 266.1072,715.8822 282.7627,688.5576 256.9067,728.7892 282.061,687.1311 259.6376,722.8175 256.0879,728.1982 255.3695,728.8729 258.4614,722.6081 275.5563,691.6333 279.0819,684.6747 277.6218,686.5569 272.7088,694.4132 252.4753,728.3502 278.2205,682.1938 272.4315,690.8648 249.5116,727.8687 276.3382,679.7618 256.256,714.3593 248.0342,727.5259 248.5518,725.8465 251.3769,720.409 274.6156,678.3185 266.7817,690.3772 244.6065,726.3923 266.2678,690.5841 275.2534,675.014 273.8203,676.5944 270.4961,681.4749 241.5686,725.438 248.3127,713.5837 273.9487,671.5736 239.3486,724.914 271.8051,669.363 266.0602,678.0924 242.1547,716.7092 237.1876,724.0282 242.9186,714.5535 267.2588,677.1543 272.8878,668.0719 271.4504,669.7702 267.5715,675.5967 236.0564,724.4337"/>
    <polyline points="235.7104,724.8213 242.4854,712.5395 271.3828,662.4906 232.7053,723.1669 233.1608,722.2879 263.3053,674.2579 272.307,659.1611 270.2246,661.759 264.2054,670.9928 231.1605,723.3111 270.9528,657.4348 237.3106,710.5262 229.2781,722.7279 235.1608,712.5211 263.6738,665.2389 268.9521,655.9777 267.3312,657.9001 261.3776,666.881 228.3833,718.0943 268.074,654.4041 237.7617,701.0086 227.343,716.1992 228.3697,713.7633 232.294,706.9364 264.9417,652.54 263.2724,654.6506 258.7037,661.7008 227.058,712.0922 263.837,650.9602 227.9613,708.9689 261.6329,648.8166 254.3743,660.2157 226.712,706.4365 259.143,646.8493 233.457,688.0084 223.4273,703.2793 223.842,702.1909 259.437,646.6582 258.0207,648.2619 253.6307,654.9211 224.5595,700.8734 230.6216,690.2818 257.8557,645.0777 248.4646,658.3033 221.4784,698.2225 246.4675,657.914 255.5304,642.7719 221.2262,696.6002 222.7519,693.2594 228.1263,683.7776 253.4113,640.9489 228.4938,680.5986 220.2291,693.2427 224.3216,685.4936 250.8636,638.8881 246.6504,645.1619 219.0389,690.8197 224.831,679.9841 249.2522,637.2054 218.161,689.9904 241.0874,647.5921 247.5199,635.1746"/>
    <polyline points="247.6036,634.8966 220.2827,678.508 214.7086,686.92 215.5696,684.9682 219.13,678.9213 241.3079,643.1211 246.5916,634.061 245.2174,635.7442 240.4039,643.3872 216.2343,683.3771 220.1058,676.4194 246.5157,633.4701"/>
    <polyline points="267.0106,637.953 266.9256,641.2785 267.4813,640.3866 268.3277,639.8095"/>
    <polyline points="273.0539,658.5909 270.5443,655.9388 269.0023,655.1985 269.0914,654.6131 271.9171,652.0336 272.4295,651.1713 272.3768,650.7212 271.5012,650.8765 268.3702,653.9406 268.5455,652.4594 269.8803,648.6312 266.9604,652.2103 266.5539,652.1599 266.8252,651.4327 268.4114,648.7316 267.4524,649.1852 265.7434,650.8747 265.3305,650.7413 265.1902,646.0441 264.2154,646.4049 262.5032,648.4033 262.7415,647.4638 265.2301,642.9328 262.1067,647.6011 262.152,646.468 262.7646,644.8318 266.7737,636.2136 265.8352,636.8327 259.1095,645.2374 265.6858,633.8499 265.8891,633.162 264.7622,634.6558 259.5743,644.4855 259.3543,644.2686 259.7392,642.55 263.9222,630.8501 264.2336,629.9077 264.0413,629.7719 256.4754,642.2749 264.1061,628.7091 257.6233,638.6218 256.1304,640.6283 255.6949,640.8237 255.7673,640.0631 256.7868,637.852 262.6552,627.3251 260.4008,629.6206 253.2851,639.0756 261.0253,622.125 259.9874,623.2065 251.4323,636.817 252.9491,633.4436 260.8141,619.9222 258.5096,623.0288 250.5673,635.884 259.6155,616.3766 250.9584,630.6116 248.2537,634.2979 249.7668,630.4652 258.9599,613.2766 247.3173,632.341 250.7639,624.9467 259.2614,609.2351"/>
    <polyline points="260.9918,610.0204 258.7555,611.6413 260.6377,610.856"/>
    <polyline points="244.3283,571.5372 244.3631,571.9672 246.0252,568.0585"/>
    <polyline points="257.768,562.8173 257.1178,563.1624 259.2872,561.9727"/>
    <line x1="211.906" x2="210.9016" y1="590.6057" y2="592.0914"/>
    <polyline points="209.6859,600.2706 209.4338,601.8614 209.5805,603.4924 209.4412,602.8879"/>
    <polyline points="209.7028,621.5599 209.0455,621.5804 208.9175,622.7013 208.0853,624.69 208.0484,625.2317 209.4834,624.0498 209.8358,624.3335 207.2214,632.5552 206.7379,635.0092 210.7992,626.7499 206.1744,636.9397 206.1533,637.4407 210.4446,630.0977 211.2645,628.87 211.7604,628.6881 208.8535,639.5521 211.9036,632.6123 212.881,631.1074 208.915,640.0456 208.4578,641.8073 214.4458,633.7646 209.6319,642.1896 208.1201,645.6521 208.4536,645.7008 209.8584,644.3418 216.9033,636.6951 209.6353,651.0786 216.8082,641.2494 218.295,639.5414 218.4142,639.776 210.1756,655.6117 216.9855,644.02 218.3383,641.9286 219.2668,641.1008 217.893,643.8896 209.0233,658.9936 219.6973,642.2492 210.8934,658.9506 208.6952,663.654 220.8451,648.1259 222.9261,645.9788 209.0698,667.5142 220.8268,651.3594 223.6984,647.8715 224.1194,647.7823 213.2814,666.7549 211.7287,669.9025 211.7815,670.2752 214.7609,665.3676 224.0087,648.4408 211.5631,670.6381 227.1425,651.3065 227.4422,651.278 214.9259,669.356 213.3484,672.1848 226.4687,655.9048 229.3541,652.809 216.4336,671.142 213.7524,675.3604 213.2736,676.7491 216.6794,672.5817 230.2099,653.9775 214.6832,680.9179 230.5443,654.202 215.9663,682.8182"/>
    <polyline points="229.2107,723.3523 228.758,723.1321 227.6068,729.8359 231.6154,725.7074 232.4098,725.0247 232.8456,725.0477 228.3612,734.1192 233.1242,724.7908 225.7832,737.5614 223.2595,742.8778 233.4028,727.1703 235.1258,725.1148 225.7599,741.9688 224.0615,745.8492 236.3706,729.1641 237.8797,727.252 238.4601,726.6942 238.5466,726.9147 227.4757,743.743 225.4806,747.2055 240.4121,726.4924 226.4482,750.0555 237.9837,732.3751 242.2439,726.5439 240.785,729.7473 228.3021,753.1346 241.7704,732.1642 244.3463,728.5098 244.888,727.9361 244.9875,728.1725 233.6078,750.1141 231.6767,754.2079 231.456,755.3287 236.8036,747.8763 248.8872,729.169 235.914,748.6253 231.7092,755.5141"/>
    <polyline points="231.9878,755.2862 247.1319,734.3184 251.2677,729.3209 248.7694,734.2606 235.0435,757.6075 252.7988,729.7532 239.1054,752.5042 236.0818,758.071 253.943,728.9913 236.7993,760.2326 251.9079,738.4668 257.8182,730.7384 255.0749,735.431 241.009,757.2004 238.3356,762.2333 238.7711,761.9139 243.7962,754.9875 259.8614,730.7809 242.2241,759.4183 239.7706,763.9173 257.1995,736.214 260.4935,731.3461 261.3046,730.629 256.1548,740.4458 242.1733,765.4917 265.2315,731.7315 248.6574,759.869 245.9103,764.8469 245.2823,766.3519 245.5078,766.3346 264.1359,735.4686 266.9939,731.2199 262.999,738.558 245.9383,767.6355 269.8134,731.7606 252.2744,763.5237 249.5664,768.7555 249.0223,770.1177 249.267,770.1276 252.9164,764.5675 268.7563,738.4479 272.0632,733.3919 273.1389,732.2666 269.3303,739.0882 249.3004,771.1219 255.0828,762.8818 275.2447,732.4848 249.791,772.9114 270.1197,740.5166 275.0451,733.057 276.3382,731.5327 271.715,740.3144 253.0572,772.7093 280.8379,733.0944 261.3752,763.5187 256.7574,771.1588 255.9437,773.0633 257.5412,771.1714 261.3573,765.4641 282.1724,732.867 262.2641,769.3434 259.2363,775.37 280.1374,741.9199 284.1544,735.7865 285.8938,733.6673 279.8569,744.0711 260.7077,774.8494 287.8854,733.2463 266.7636,769.0682 260.9918,779.5547 286.0267,739.7858 289.3598,734.8143 290.5048,733.7204 285.3841,742.511 259.9116,783.0321 292.7383,733.7584 269.4862,772.0925 263.6297,782.2276 261.6497,786.3379 266.5505,779.2903 295.4235,733.5154 265.373,787.0927 292.0316,741.9512 296.3115,735.0155 297.5413,733.5938 292.3425,743.5835 268.9019,785.2529 294.0317,744.5231 275.204,777.4488 272.6121,782.3804 272.405,782.8467 272.6434,783.1146 295.6938,747.6632 279.2915,776.633 291.0647,755.1086 294.3176,749.7734 283.3409,770.0417 281.201,774.5568 282.0858,773.8081 284.2006,770.7976 294.6441,754.634 292.9168,760.7978 294.4785,758.6207 294.9305,758.7725 295.6102,760.8235"/>
    <line x1="290.3767" x2="291.0178" y1="763.3058" y2="764.3936"/>
    <polyline points="287.6241,769.9992 287.6799,769.3521 287.1593,769.6619 284.3411,774.5915 285.831,771.2384 290.5028,763.4229 283.4631,775.0975"/>
    <polyline points="276.1773,781.1498 275.6763,778.9549 275.1306,778.8195 272.0922,782.8132"/>
    <line x1="293.1279" x2="294.5544" y1="741.974" y2="740.1677"/>
    <line x1="228.5521" x2="227.7249" y1="723.9007" y2="726.0791"/>
    <polyline points="224.0193,740.8513 224.895,740.7028 225.3867,739.8729 223.1751,742.4387"/>
    <polyline points="206.3939,630.0429 206.0974,630.4079 207.7782,625.1132"/>
    <polyline points="410.2847,739.2137 409.659,741.0792 408.5788,739.6501 409.4904,740.6234"/>
    <line x1="414.6479" x2="414.5294" y1="741.5942" y2="743.1468"/>
    <polyline points="428.3901,747.9168 429.2429,748.2902 429.5128,748.0353"/>
    <line x1="436.9156" x2="439.4236" y1="752.1796" y2="751.1239"/>
    <line x1="438.3846" x2="439.3979" y1="748.8194" y2="746.7607"/>
    <polyline points="495.8282,745.9754 495.2767,745.0541 494.7983,744.9364 492.3251,746.0256 492.3669,745.3568 496.0896,741.9148"/>
    <line x1="503.9314" x2="502.7586" y1="386.2085" y2="386.1158"/>
    <polyline points="508.3126,357.2718 470.1505,369.3828 502.9865,356.0654 476.0581,366.4642 478.3133,365.1179 499.5758,354.8526 494.9407,355.98 475.1891,361.8216 490.2317,357.5164 477.4388,359.3011 478.6214,359.4059 477.8247,358.3706 477.7048,357.7365"/>
    <polyline points="484.5502,357.0696 483.7738,357.255 487.7662,356.9087"/>
    <polyline points="496.5363,356.0307 495.962,355.7172 495.684,356.0989 499.4241,355.2299"/>
  </g>
</svg>
