<?xml version="1.0" encoding="utf-8" ?>
<svg xmlns="http://www.w3.org/2000/svg" xmlns:cc="http://creativecommons.org/ns#" xmlns:dc="http://purl.org/dc/elements/1.1/" xmlns:ev="http://www.w3.org/2001/xml-events" xmlns:inkscape="http://www.inkscape.org/namespaces/inkscape" xmlns:rdf="http://www.w3.org/1999/02/22-rdf-syntax-ns#" xmlns:sodipodi="http://sodipodi.sourceforge.net/DTD/sodipodi-0.dtd" xmlns:xlink="http://www.w3.org/1999/xlink" baseProfile="tiny" height="1.5cm" version="1.2" viewBox="0 0 56.69291338582677 56.69291338582677" width="1.5cm">
  <metadata>
    <rdf:RDF>
      <cc:Work>
        <dc:format>image/svg+xml</dc:format>
        <dc:source>vpype read /Users/fanu/bellefort.svg linemerge linesimplify reloop linesort rotate 270 layout -l --fit-to-margins 0cm 1.5cmx1.5cm translate -- 3cm -3cm show write bellefort.svg
</dc:source>
        <dc:date>2021-05-24T14:52:06.462285</dc:date>
      </cc:Work>
    </rdf:RDF>
  </metadata>
  <defs/>
  <g fill="none" id="layer1" inkscape:groupmode="layer" inkscape:label="1" stroke="#00f" style="display:inline">
    <line x1="146.2582" x2="137.2064" y1="-58.5985" y2="-58.5985"/>
    <line x1="137.2064" x2="146.2582" y1="-59.0749" y2="-59.0749"/>
    <polyline points="146.7346,-60.5042 146.2582,-59.5514 137.2064,-59.5514 136.73,-60.5042"/>
    <polyline points="136.73,-62.8863 137.2064,-63.8391 138.1592,-64.3155 139.112,-64.3155 139.5884,-63.8391"/>
    <polyline points="139.5884,-63.3626 140.5412,-64.7918 141.9705,-65.2683 143.8761,-65.2683 145.3054,-64.7918 146.2582,-63.8391"/>
    <polyline points="144.8289,-65.2683 143.8761,-65.7447 141.9705,-65.7447 141.0177,-65.2683"/>
    <polyline points="140.0649,-64.7918 139.112,-65.2683 138.1592,-65.2683 137.2064,-64.3155 136.73,-62.8863 136.73,-60.5042 137.2064,-58.5985 137.6828,-57.6457 138.6356,-56.6929"/>
    <polyline points="144.8289,-56.6929 145.7818,-57.6457 146.2582,-58.5985 146.7346,-60.5042 146.7346,-62.4098 146.2582,-63.8391 145.7818,-64.7918 144.8289,-65.7447 143.3997,-66.2211 141.9705,-66.2211 141.0177,-65.7447 140.0649,-64.7918 139.5884,-63.3626 139.5884,-61.9334 140.0649,-60.5042 140.5412,-60.0277 141.4941,-59.5514 142.4469,-59.5514 143.3997,-60.0277 143.8761,-60.9806"/>
    <polyline points="140.0649,-64.3155 139.112,-64.7918 138.1592,-64.7918 137.6828,-64.3155"/>
    <polyline points="141.4941,-69.556 145.7818,-69.556 146.2582,-70.0323"/>
    <polyline points="143.8761,-70.0323 141.9705,-73.3672 140.0649,-71.938 141.4941,-69.0795 145.7818,-69.0795 146.7346,-70.0323 145.7818,-70.9852 145.7818,-70.5088 145.3054,-70.0323 141.0177,-70.0323"/>
    <line x1="140.5412" x2="142.4469" y1="-70.9852" y2="-72.4144"/>
    <line x1="141.9705" x2="140.5412" y1="-72.8908" y2="-71.4616"/>
    <polyline points="137.6828,-76.2257 136.73,-75.2729 138.6356,-75.7492 145.3054,-75.7492 145.7818,-75.2729 146.7346,-76.2257 145.7818,-77.1785 145.3054,-76.7021 138.6356,-76.7021 136.73,-77.1785 137.6828,-76.2257 145.3054,-76.2257 145.7818,-75.7492 146.2582,-76.2257 145.7818,-76.7021 145.3054,-76.2257"/>
    <polyline points="145.3054,-80.9898 145.7818,-81.4662 146.2582,-80.9898 145.7818,-80.5134 145.3054,-80.9898 137.6828,-80.9898 136.73,-81.9426 138.6356,-81.4662 145.3054,-81.4662 145.7818,-81.9426 146.7346,-80.9898 145.7818,-80.0369 145.3054,-80.5134 138.6356,-80.5134 136.73,-80.0369 137.6828,-80.9898"/>
    <polyline points="141.4941,-85.2775 145.7818,-85.2775 146.2582,-85.7538"/>
    <polyline points="143.8761,-85.7538 141.9705,-89.0887 140.0649,-87.6595 141.4941,-84.801 145.7818,-84.801 146.7346,-85.7538 145.7818,-86.7067 145.7818,-86.2303 145.3054,-85.7538 141.0177,-85.7538"/>
    <line x1="140.5412" x2="142.4469" y1="-86.7067" y2="-88.1359"/>
    <line x1="141.9705" x2="140.5412" y1="-88.6123" y2="-87.1831"/>
    <line x1="140.0649" x2="140.0649" y1="-90.0415" y2="-91.4708"/>
    <line x1="140.0649" x2="140.0649" y1="-92.4236" y2="-94.3292"/>
    <line x1="137.6828" x2="137.2064" y1="-94.8056" y2="-93.8528"/>
    <polyline points="137.2064,-93.3764 138.1592,-94.3292 137.6828,-95.2821 136.73,-94.3292 138.1592,-91.4708 145.3054,-91.4708 145.7818,-90.9944 146.7346,-91.9472 145.7818,-92.9 145.3054,-92.4236 137.6828,-92.4236"/>
    <polyline points="138.1592,-91.9472 145.3054,-91.9472 145.7818,-91.4708 146.2582,-91.9472 145.7818,-92.4236 145.3054,-91.9472"/>
    <polyline points="146.2582,-98.1405 145.3054,-97.1877 141.4941,-97.1877"/>
    <polyline points="141.0177,-97.6641 144.8289,-97.6641 146.2582,-99.0933"/>
    <polyline points="145.7818,-100.5226 141.9705,-100.5226 140.5412,-99.0933"/>
    <polyline points="140.5412,-100.0461 141.4941,-100.999 145.3054,-100.999"/>
    <polygon points="145.7818,-100.5226 146.7346,-98.1405 145.3054,-96.7113 141.4941,-96.7113 141.0177,-97.6641 140.0649,-100.0461 141.4941,-101.4754 145.3054,-101.4754"/>
    <polyline points="145.3054,-105.2867 145.7818,-105.763 146.2582,-105.2867 145.7818,-104.8102 145.3054,-105.2867 141.0177,-105.2867 140.5412,-104.8102"/>
    <polygon points="141.4941,-104.8102 141.0177,-104.3338 141.0177,-103.8574 140.0649,-104.8102 141.0177,-105.763 145.3054,-105.763 145.7818,-106.2395 146.7346,-105.2867 145.7818,-104.3338 145.3054,-104.8102"/>
    <polyline points="141.0177,-105.763 140.0649,-107.6687 141.0177,-108.6215 141.4941,-107.6687 140.5412,-106.7159"/>
    <line x1="140.5412" x2="141.0177" y1="-107.1923" y2="-108.1451"/>
    <line x1="140.0649" x2="140.0649" y1="-109.5744" y2="-111.0033"/>
    <line x1="140.0649" x2="140.0649" y1="-111.9566" y2="-113.3858"/>
    <polyline points="137.6828,-111.48 136.73,-110.5274 138.6356,-111.0033 145.3054,-111.0033 145.7818,-110.5274 146.7346,-111.48 145.7818,-112.4325 145.3054,-111.9566 138.6356,-111.9566 136.73,-112.4325 137.6828,-111.48 145.3054,-111.48 145.7818,-111.0033 146.2582,-111.48 145.7818,-111.9566 145.3054,-111.48"/>
  </g>
</svg>
