<svg xmlns="http://www.w3.org/2000/svg" width="937.69" height="697.6" viewBox="0 0 937.69 697.6"><defs><style>.a{fill:#ff0;}.b{fill:none;stroke:#000;stroke-linecap:round;stroke-linejoin:round;stroke-width:2px;}</style></defs><title>cartiglio</title><path class="a" d="M-91.19,236.52l-20.59-30.17-4.15,13,3.24,14-9.45-4.93L-133.8,196.9l1-26.29s10.1-29.14,34.18-47.91L-87.31,107l-25.64-8.42s42.35-49.21,182.2,3.63l28.23,14.24,47.66,33.41,59.57,32.63s24.86,11.14,39.1-6c0,0,.78-39.89,10.36-64.75,0,0,72.26-16.06,113.44-2.85,0,0,7.77,21,7.51,63.19,0,0,5.18,7.77,33.15,2.59s75.37-33.92,151.26-84.43c0,0,136-36.78,181,4.66L714.4,97.06,689,110.78S762.58,128.91,752,194.7l-23.57,5.43s-4.15,19.43-30.82,39.11L753,250.12s17.59,3.89,10.86,18.65c0,0,3.2,26.21,1.54,62.93-1.55,34.16-8,77.41-9.83,120.43-1.77,41.81-.45,83,1.3,113.18,1.28,22.16,2.23,38.43,5.18,44.81,15.54,33.67-31.6,30.56-31.6,30.56s-32.89-6.73-76.14,42c0,0,44.8,13.47,86.76-19.43,0,0,10.1,31.08-66.3,69.41l21,16.32s-8,6.73-54.91,0l-59.57-27.19-94.79-49.47s-49.21-11.92-145.81,8.29c0,0-1.56,30.56-28.23,33.15s-30.31-17.1-31.08-37c0,0-79.51,0-91.69-3.37l-8.28,4.41-24.09-.26-9.84,3.37h-9.84l-13.47,5.69h-8l-2.85,5.7L68.22,708.54l-9.33-1.82L31.44,725.63l-5.18-.26L-7.41,743l-10.1.26s-21.76,17.87-60.09-1l7.77-5.18,5.7-10.88-29-15.8L-96,705.69-110,692l-1.81-6.21s-10.1,1.29-5.44-11.4l-9.07-21.5,6-10.1-23.83-13.21L-147,613.75l9.59-22,.77-14.5,2.33-11.92,1-25.64,1-5.69-3.63-83.92-6.73-71-.26-18.65L-141,354l-2.07-7.26.26-17.61-7.51-59.57s-8.27-15.79,32.11-25.89c5.22-1.31,10.8-.86,17.87-2.59C-97.67,240.39-94.15,236.83-91.19,236.52Z" transform="translate(171 -73.54)"/><path class="b" d="M741,94.89c-1.13-3.7-4.63-4.17-7.5-5.5-20.3-9.41-41.59-15.29-64-14.82A420.34,420.34,0,0,0,599,81.77c-10,1.92-20.22,3-30,6.14-13.1,4.23-24.55,11.64-36,19-21.89,14.09-43.31,29-65.64,42.29C448.27,160.62,428,170,406,174.84A97.36,97.36,0,0,1,388.5,177c-5,.17-8.44-3.52-13-4.1" transform="translate(171 -73.54)"/><path class="b" d="M764.5,267.89c1.78,2.31,1.07,5,.94,7.5-1,17.66-.35,35.33-.39,53s-2.7,35-4.16,52.49c-1.29,15.5-3.23,30.93-4,46.5-1.58,31.83-1.64,63.67-1.25,95.51.24,19.19,2.13,38.34,3.19,57.51.55,9.89,2.84,19.57,2.7,29.49,0,1.89,1.23,3.37,2,5,2.62,5.61,1.77,10.61-2,15.55-6,8-14.78,8.94-23.56,9.31-4.42.19-6.77,1.81-8.55,5.62-2.46,5.24-6.25,9.51-10.33,13.63a20.7,20.7,0,0,0-4.61,8.4" transform="translate(171 -73.54)"/><path class="b" d="M401.5,203.89a15.76,15.76,0,0,1-12.53-.43c-5.25-2.35-10.38-4.91-15.5-7.5-3.51-1.78-4.6-3.59-3.08-7.61,4-10.41,6.35-21.19,5.09-32.46-.9-8-2.65-16-2.77-24-.09-6.4-1.87-12.33-2.76-18.49-.35-2.48-1.13-4.19-4.37-5.25-6.33-2.06-12.76-1.33-19.09-2.22-19.67-2.77-39.32-.83-59,.39-9.93.61-19.61,3-29.5,3.52-2.84.15-3.72,1-4.71,4-3.34,10.17-6.22,20.35-7.07,31.07-.64,8.17-.15,16.34-.15,24.5,0,3.79-1,6.59-4,9.05-13.44,10.81-27.62,8.17-41.49,1.85a401.77,401.77,0,0,1-75.18-44.73c-19.13-14.38-39.69-26.92-61.93-36C41,90.35,17.86,83.11-6.48,80.23c-9.34-1.1-18.66-2.65-28-3.2C-43.35,76.5-52.18,78-61,78.87c-11.36,1.19-22.84,2.1-33.45,6.65-5.35,2.3-10.91,4.31-14.76,9.72-3.13,4.39-9.05,5.4-14.29,6.65" transform="translate(171 -73.54)"/><path class="b" d="M291,664.89c-19.12-12.45-39.48-21.66-61.95-26.73-19.37-4.36-38.76-7.26-58.55-6.67s-39.17,3.45-58,9.84c-24.26,8.23-48.69,15.93-73,24.11C26.93,669.69,14.65,674.82,2,678.88a171.66,171.66,0,0,1-35,7.5c-.5,0-1.2.23-1.47,0-6.2-5.64-13.47,0-20.06-1.86a9.64,9.64,0,0,1-4-2.61" transform="translate(171 -73.54)"/><path class="b" d="M752.5,653.39a2.91,2.91,0,0,0-3,1c-4.15,6.19-9,11.2-16.47,13.69-4,1.34-7,5.24-11,7.35-11.31,6-23.61,7.7-36,8.92-18.69,1.84-36.8-2.18-55-5.43-14.55-2.6-29-5.6-43.5-8.53-12.28-2.49-23.72-7.49-35.5-11.5-15-5.08-29.49-11.57-45-15-15.15-3.36-30.52-5-46-6.09a363.59,363.59,0,0,0-40-.81c-14.72.6-29.5,1.44-44,4.43-14.17,2.91-26.1,10.46-37.51,18.95-2.49,1.85-5,3.67-7.5,5.5" transform="translate(171 -73.54)"/><path class="b" d="M369.5,194.39c-3.64,1.43-4.58,5.06-5.9,8-4.88,11-12.24,19.88-21.51,27.57-7.73,6.41-16.18,12-23.07,19.41-2.85,3.05-5.91,3.28-9.53,1.5-13.72-6.74-27.76-13-38-25-7.36-8.65-13.15-18.38-18.8-28.12-2.32-4-2.75-9.18-3.6-13.91a9.55,9.55,0,0,0-3.09-6" transform="translate(171 -73.54)"/><path class="b" d="M534,672.89c1.6,3.49,5.22,4.49,8,6.48,14.9,10.6,30.8,19.49,46.89,28.19,19,10.28,38.42,19.84,57.65,29.72,7.41,3.8,14.7,8.1,22.94,10.11" transform="translate(171 -73.54)"/><path class="b" d="M360.5,115.89a162.67,162.67,0,0,1-45,1c-16.15-1.93-32.33.6-48.5,0-1.68-.07-3.37,0-5.55,0-2.55,3.84-2.06,9.18-3.37,14-2.93,10.81-2.52,22-1.92,33,.45,8.23,3,16.22,5.86,24,3.59,9.89,7.19,19.7,15.43,27.06,10.58,9.44,21.22,18.81,32,28a1.88,1.88,0,0,0,1.52.47,1.6,1.6,0,0,0,1.51-.48A236.58,236.58,0,0,1,335,221.84c11.26-9.5,18-21.93,22-36,3.05-10.62,6.19-21.23,5-32.5-1-9.68-1.79-19.41-3.59-29-.44-2.35.19-4.79-.9-7" transform="translate(171 -73.54)"/><path class="b" d="M567,689.39q19.25,10.25,38.5,20.5c12.46,6.66,25.78,11.41,38.55,17.38,11.43,5.34,22.58,11.2,34,16.61,1.62.76,3.32,1.34,5,2" transform="translate(171 -73.54)"/><path class="b" d="M29.5,120.39c-3.15,5.59-9.06,7.71-14,11C9.09,135.52,2.2,139-3.92,143.5c-6.56,4.85-13.5,8.9-20.43,13.14-13,8-17,21-16.72,35.75.22,11.55,3.83,21.46,13.66,27.87A46.47,46.47,0,0,0-3.5,227.48c3.06.12,6.54-.36,9,2.41" transform="translate(171 -73.54)"/><path class="b" d="M590.5,122.89c6.3,5.85,13.93,9.77,20.93,14.61,2.74,1.9,6.6,2.75,7.68,6.86.36,1.37,2.23,1.73,3.87,2.13,6.72,1.63,13.11,4.27,19.6,6.69,14.56,5.44,19.63,16.61,22.08,30.68,2.23,12.82-6.74,29.12-19.17,34.52-2,.88-4.5,1-5.49,3.51" transform="translate(171 -73.54)"/><path class="b" d="M657.5,121.89c.42,2.71,2.45,4.09,4.49,5.51,5.93,4.11,10.65,9.87,18,12.17,2.2.69,3.91,3.34,5.53,5.34,11.91,14.73,13.57,30.82,6,48a113,113,0,0,1-6,11.5c-5.8,9.91-15.92,13.13-26,15.9-6.7,1.84-13.26,3.59-20.75,3.11-7.68-.49-15.91.78-23.66,2.31-3.81.75-6.28-2-9.56-1.3" transform="translate(171 -73.54)"/><path class="b" d="M710.5,710.89c-1.4-3.75-5.47-2.74-8.08-4.38-1-.62-3.28-.81-3.77-1.28-5.27-5-10.57-2.12-16.17-.94A240.82,240.82,0,0,1,643,709.56c-11.6.48-21.61-3.26-32.1-7.44-22.23-8.85-43.36-20.17-65.85-28.38-4.85-1.77-10-.31-14.57-2.83-10.11-5.58-21.48-7.45-32.55-9.13-6.5-1-12.88-2.77-19.44-3.42-6.35-.63-12.72-1.19-19-2.44a6.35,6.35,0,0,0-4.49.72" transform="translate(171 -73.54)"/><path class="b" d="M683.5,112.39c9.59-3.12,18.18.6,25.87,5.22A135.66,135.66,0,0,1,731.89,135c10.55,9.9,16.09,22.65,18.72,36.86,1.08,5.83,1.75,11.71,2.84,17.53.32,1.75.36,3.72-1.45,5" transform="translate(171 -73.54)"/><path class="b" d="M35.5,698.89c.15,2.15-1.67,2.55-3,3.53-8.77,6.6-18.56,11.5-28,17.06C-13.64,730.26-33.2,738-52.54,746.3c-1.45.62-2,1.8-3,2.5-4.77,3.28-8.93.85-12.94-1.91" transform="translate(171 -73.54)"/><path class="b" d="M491.5,662.39c1.44,3.64,5.17,4.34,8,5.93,28,15.5,54.37,33.66,83,48.07" transform="translate(171 -73.54)"/><path class="b" d="M613,226.89c.22,3.15,2.66,4.14,5,5.56,7.86,4.81,17,5.45,25.54,7.9,9.78,2.81,19.91,3.61,30,4.51a24.9,24.9,0,0,0,11.91-1.68c7.89-3.49,15.78-2.45,23.57-1.17,14.57,2.38,29.33,4,43.5,8.43,4.71,1.47,9.25,3.46,11.54,8.44,1.63,3.56,1.29,6.45-1.46,9.57-11,12.42-25.43,14.37-40.55,13.29a63.93,63.93,0,0,1-28-8.85" transform="translate(171 -73.54)"/><path class="b" d="M656.5,109.89c-3.33-2.74-7.9-3.17-11.11-6.39-1.92-1.94-5-.49-7.37,0q-30.4,6.27-60.5,14A59.91,59.91,0,0,0,561,123.89" transform="translate(171 -73.54)"/><path class="b" d="M6,704.89c.5,2.89-1,4.34-3.48,5.54C-17.22,720-35.83,731.7-56.41,739.62c-4.13,1.58-9.18,2.45-12.19,6.7-.67,1-2.54,1-3.91.08s-3-2-4.49-3" transform="translate(171 -73.54)"/><path class="b" d="M-80,109.39c0-1.54.17-3.08,1.52-4,4.27-2.84,8.43-5.76,11.51-10,1.07-1.47,2.94-1.22,4.46-1A439.51,439.51,0,0,1,9,111.47c2.32.76,5.39,1.38,5.52,4.92" transform="translate(171 -73.54)"/><path class="b" d="M14,117.39c-1.62,4.91-6.54,6.19-10,8.93-18,14-36.31,27.63-55.47,40-.39.25-1.13-.08-1.48.53" transform="translate(171 -73.54)"/><path class="b" d="M-160,352.89c4.67-6.5,9-13.25,14.13-19.39,2.42-2.91,3.47-5.12,3.06-9.13-1.61-15.63-6.78-30.69-7.17-46.48-.12-5-.54-10.07.1-15,1-7.68,6.29-11.62,13.35-14.11,7.92-2.8,16.13-4.56,24.08-7.28,2.58-.88,5.66-.69,8.47-.91,3.48-.28,6.7-.58,9.46-2.74,2.14-1.67,4.14-1.13,6.54-.56,13,3.12,25.78,7.68,39.48,7.12,5.21-.21,10.32-1.21,15.5-1.53,2.44-.14,3.63-1.81,5.05-3.47,2.15-2.51,3.22-6.31,7.45-6.56,2.32-.14,4.41.13,6,2" transform="translate(171 -73.54)"/><path class="b" d="M171.5,177.39c-2.82-4-7.55-4.86-11.56-6.33-10.07-3.68-19.56-8.61-29.4-12.76-14.3-6-28.36-12.65-42.4-19.21C75,133,61,129.18,47.84,123.24A43.07,43.07,0,0,0,32.5,120c-2.68-.1-4.73-1.34-7-2.19-8-3-16.07-1.06-24-.31-11,1-22.12,1.77-33,3.94a57,57,0,0,0-13,4c-8.34,3.92-17.6,4.15-26.16,7.64a92.1,92.1,0,0,0-38.76,29.36,21.4,21.4,0,0,1-3.63,3.9" transform="translate(171 -73.54)"/><path class="b" d="M-56.5,130.39c-1.42,3.46-4.81,5.22-7,8-10.21,13.06-17.36,27.25-14.94,44.48,1.18,8.46,6.11,15.41,10.47,22.49,4.56,7.41,9.92,14.22,17,19.52" transform="translate(171 -73.54)"/><path class="b" d="M-86,596.39c3.7-4.68,1.23-10.06,1.28-15,.08-8-.53-16-1-24-.39-7.17-.39-14.36-.6-21.52-.2-7-.19-14-.09-21,.15-10.7.26-21.32-.94-32-1-8.56-.19-17.31-.19-26,0-10.5-.18-21,.06-31.5.15-6.51.85-13,1.46-19.5.87-9.15,1.19-18.32,1.49-27.5.35-10.84-.49-21.77.16-32.47.66-10.86,2.1-21.93,5.53-32.63,1.5-4.67,1.6-10.21,2.13-15.37.56-5.47,1.57-11,2.37-16.5.65-4.5-1.52-9.5,2.18-13.63.62-.69-.44-2.39-1.81-3.48-9.13-7.26-32.35-8.62-41.51-1.83-3.27,2.42-5.81,5.56-3.25,10.51.88,1.71-.48,4.57-.81,6.9" transform="translate(171 -73.54)"/><path class="b" d="M740.5,279.89a85.7,85.7,0,0,1-4.49-16.5,6.91,6.91,0,0,0-5.54-5.82c-10.05-1.51-20.17-4.69-30,1.71-6.85,4.43-8.18,5.24-6.86,13.1,3.12,18.57,4.51,37.31,6.5,56,1.15,10.83,3.14,21.57,2.9,32.51a8.16,8.16,0,0,0,.78,3" transform="translate(171 -73.54)"/><path class="b" d="M-9.5,148.89c6.4,2.39,12.73.3,19-.65a57.24,57.24,0,0,1,9.52-.52c15.62.21,29.86,5.61,44,11.27,11.69,4.69,23.42,9.31,34.62,15.24,5.23,2.77,10.29,5.78,15.39,8.7A313.88,313.88,0,0,0,163,205.81c11.07,4,22.86,5.17,34.49,5.72,3.72.17,7.63.72,11.48.41a33.23,33.23,0,0,0,23.37-11.66c4.19-4.88,9.92-5.31,15.14-7.37a14.67,14.67,0,0,1,2.49-.52" transform="translate(171 -73.54)"/><path class="b" d="M-12.5,120.39c-3.16,4.59-8.34,6.67-12.54,10-13.57,10.55-27,21.31-40,32.55" transform="translate(171 -73.54)"/><path class="b" d="M65,689.64c-1.89-1.13-3.81-.39-5.48.31-6.2,2.58-12.79,3.93-19.07,6.32-8,3.05-16.66,4-25,5.85q-19,4.13-38.41,6.52a113.31,113.31,0,0,1-47.48-4.4c-7.87-2.4-16.22-4.32-22.59-10.31-.69-.66-2.21-1.08-2.9-.48-2.27,2-5.53,2.15-7.56,4.44" transform="translate(171 -73.54)"/><path class="b" d="M611,120.39c1.38,3,4.55,3.49,7,5,14.15,8.74,27.19,19.06,40.5,29,1.64,1.22,3.33,2.34,5,3.51" transform="translate(171 -73.54)"/><path class="b" d="M88,682.39c-8.57,1.6-16.65,3.14-23.73,9.75a133,133,0,0,1-31.74,22.31c-6.49,3.19-12.7,6.94-19,10.44" transform="translate(171 -73.54)"/><path class="b" d="M281.5,677.39c2.13,3.09,2,6.69,1.4,10-2.12,11.87,7.38,23.2,18.09,26,8.68,2.32,16.79,0,23.87-4.26,5.57-3.38,11.28-7.64,13.13-14.77,1-3.8.95-7.81,2.44-11.53.32-.8.09-2.49-.49-2.89-5.47-3.76-6.32-11.21-12.33-14.76-3.14-1.86-6-3.32-9.61-3.32-6.07,0-12.11-.24-18,1.91-3.59,1.3-6.91,2.49-9.52,5.55-4.66,5.44-10.41,7.91-17.9,8.94-8.13,1.12-15.69-1.83-23.56-1-.59.07-1.32-1.23-2-1.9" transform="translate(171 -73.54)"/><path class="b" d="M761,609.89c-.33,0-.79.14-1,0-10.64-9.19-23.5-5.23-35.53-5.85a33.37,33.37,0,0,0-11,1.29c-5.26,1.52-8.55,5.44-11.87,9.17-1.86,2.09,1.15,8.77,4.39,10.91,9.1,6,19.17,6.25,29.5,5,3.41-.41,5.84-2.65,8.52-4.47,1.69-1.14,1-2.65,1-4-.08-5.67.35-11.35-.48-17" transform="translate(171 -73.54)"/><path class="b" d="M560,124.89c.94,2.17,2.44,1.93,4.52,1.59,6.2-1,12.3-2.77,18.5-3.43,9.17-1,18-3.92,27.49-3.51,4.06.18,8.61-1.2,13-1.77,4.77-.63,7.92.39,11.72,3.91,8.23,7.61,17.26,14.39,25.81,21.7a257.31,257.31,0,0,0,21,16.51" transform="translate(171 -73.54)"/><path class="b" d="M307.5,169.39c1.11,2.78.47,5.68.46,8.5a377.57,377.57,0,0,0,1.54,40.5" transform="translate(171 -73.54)"/><path class="b" d="M203.5,659.89c-2.54-3.27-6-1.66-9-1.44-14.54,1.07-29.16,1.38-43.5,4.46a21.43,21.43,0,0,0-11.65,6.34c-4.71,4.93-11.15,7.86-16.9,11.56-5.16,3.33-7.57,8.23-10.09,13.51A95.35,95.35,0,0,1,101,711.89" transform="translate(171 -73.54)"/><path class="b" d="M630.5,760.39c3.8-10.89,8.26-12.64,19.53-10.68a167.91,167.91,0,0,0,43,1.64c1.93-.17,3.22-2.51,5.5-2" transform="translate(171 -73.54)"/><path class="b" d="M-37.5,104.89c-1.8-.31-3.46.46-5,1.08-4.54,1.86-8.94,4.06-14,3.92-.33,0-.83-.14-1,0-4.83,5.33-11.08,3.88-17,3.42-3.72-.3-6.55,1.33-9.52,3a51.8,51.8,0,0,1-12.94,5.71c-3.85,1-6.52,4.66-9.51,7.35-8.71,7.84-14.24,18-20.17,27.88A48.83,48.83,0,0,0-133,174.88c-.81,5-5.25,7.71-8,11.48-4,5.47-7.48,11.25-11,17" transform="translate(171 -73.54)"/><path class="b" d="M223.5,658.89c-2.81-2.73-6.81-2.24-9.39-1.22-3.92,1.57-8.11,2.59-11.79,5.5A149,149,0,0,1,185.06,675c-4.92,2.85-8.16,7.26-8.06,13.4" transform="translate(171 -73.54)"/><path class="b" d="M633,711.89a237.72,237.72,0,0,0,25,12.4c6.59,2.86,12.71,5.94,18.11,10.94,4.44,4.11,10.21,6.78,15.33,10.19,1.67,1.1,3.78,1.79,4.52,4" transform="translate(171 -73.54)"/><path class="b" d="M-11.5,711.89c-4.15.69-7.71,3-11.46,4.6-10,4.37-20.1,8.58-29.38,14.17A102.19,102.19,0,0,1-67,737.85a1.53,1.53,0,0,1-2-.46" transform="translate(171 -73.54)"/><path class="b" d="M-158.5,627.39c4.42-3.5,5.38-9.65,10.18-13.32,2.5,2.79,4.55,2.73,7.44-.05a33.68,33.68,0,0,1,12.77-7.8c2.18,3.09.79,6.52,1.51,9.69,2.28,10.17,7.77,14.7,18.1,15.05,7.32.25,14-.67,19.5-6.07" transform="translate(171 -73.54)"/><path class="b" d="M728.5,200.39c0,6.11-4.4,10.2-7.15,14.91a62.91,62.91,0,0,1-21.82,22.13,10.1,10.1,0,0,0-2,2.46" transform="translate(171 -73.54)"/><path class="b" d="M555.5,154.89c-5.92,4.37-13,6.24-19.57,9.34-14.74,7-29.51,14-44,21.6-7.12,3.75-14.58,6.84-22.13,10.35-8.09-6.89-18.43-10-27-16.44-4.16,2.32-9.71,1.59-13.3,5.65" transform="translate(171 -73.54)"/><path class="b" d="M-143,362.39c3.06,6,1.29,14.17-2.34,19.61-5.31,7.94-12.23,14.92-15.24,24.36-.8,2.51-2.59,4.7-3.92,7" transform="translate(171 -73.54)"/><path class="b" d="M468.5,195.89c-5.5,4.65-12.53,4.47-19,5.94-2.26.52-4.72.12-7,.62-3.42.76-5.74.39-8.69-2.36-5-4.66-11.83-6.91-17.95-10-3.66-1.82-8.31.58-12.34,1.84a38.28,38.28,0,0,1-5,1.15c-9.92,1.79-18.25-2.85-27-5.74" transform="translate(171 -73.54)"/><path class="b" d="M156.5,170.89c-6.29,3.72-13.47,5.36-20,8.55-4.88,2.39-10.37,3.63-14.52,7.45" transform="translate(171 -73.54)"/><path class="b" d="M308.5,123.39a241.13,241.13,0,0,1,0,34" transform="translate(171 -73.54)"/><path class="b" d="M723,604.89c.13,4.33-1.53,8.7.28,13.17,6.71-3.17,13.57-4.43,20.72-1.67" transform="translate(171 -73.54)"/><path class="b" d="M4.5,230.89c-3.25,3.49-8.11,2.61-12.07,4.33a115.82,115.82,0,0,0-11,5.05c-3,1.68-6.49,2.51-9.93.62" transform="translate(171 -73.54)"/><path class="b" d="M593.5,720.39c8.5,4.67,17,9.39,25.51,14,5.82,3.12,6.61,4.9,2.92,10.48-4.76,7.19-7.95,15.21-12.43,22.54" transform="translate(171 -73.54)"/><path class="b" d="M282.5,695.89c-3.21-.21-3.5,2.61-4.46,4.52-4.52,9-9.74,17.63-13.54,27" transform="translate(171 -73.54)"/><path class="b" d="M122.5,671.89c-2.17-1.54-4.54-.69-6.46.09-6,2.48-12.39,3.88-18.5,6-3.56,1.26-7.21,2.83-9.6,6.34s-6.49,5.53-10,8c-4.89,3.48-10,6.71-15,10-1.86,1.24-3.55,2.63-4,5" transform="translate(171 -73.54)"/><path class="b" d="M-31,711.89c-5.54,4-12.46,4.66-18.53,7.43-3.12,1.42-6.06,3.3-9.47,4.08-1.86.43-1.79,2.06-2,3.49" transform="translate(171 -73.54)"/><path class="b" d="M245,154.89c-3.72,0-4.43,3.34-5.93,5.54-4.36,6.38-8.4,13-12.58,19.46-.79,1.23-1.9,2.33-1.49,4" transform="translate(171 -73.54)"/><path class="b" d="M143,165.39c-5.34,5.72-12.88,7.54-19.51,11-3.63,1.88-7.9,2.53-11,5.51" transform="translate(171 -73.54)"/><path class="b" d="M-134,518.39c-5.16,3.15-6.54,9.09-9.9,13.57-3.76,5-6.77,10.6-10.1,15.93" transform="translate(171 -73.54)"/><path class="b" d="M687,725.39a169.68,169.68,0,0,0-26.52-10.93c-1.27-.41-2.39-1.78-4-1.07" transform="translate(171 -73.54)"/><path class="b" d="M-138.5,453.89l-21.5,30" transform="translate(171 -73.54)"/><path class="b" d="M-135,559.39c-2-.37-2.25,1.33-3,2.49q-8.48,13-17,26" transform="translate(171 -73.54)"/><path class="b" d="M100,145.39c-4,5-10.25,6.14-15.49,9-4.4,2.4-9.67,3.26-13,7.49" transform="translate(171 -73.54)"/><path class="b" d="M559,126.39c-7.41,1.68-14.67,3.84-20.45,9.06-2.35,2.11-6.57,1.54-7.55,5.44" transform="translate(171 -73.54)"/><path class="b" d="M-143,348.39a9.48,9.48,0,0,1-.28,12.23c-7.35,7.6-11.42,17-16.73,25.77-.55.91-1.85,1.25-2,2.5" transform="translate(171 -73.54)"/><path class="b" d="M-75.5,273.89c-6.16,2.13-11.4,6.19-18,7.63a51.08,51.08,0,0,1-26.16-.68c-6.67-1.91-13.6-3.5-20.4-5.33-3.2-.86-5.41-3.28-8.47-4.12" transform="translate(171 -73.54)"/><path class="b" d="M-142,381.39c2.74,5.21,2,10.94,2.53,16.5.36,4,1.14,8,1.41,12,.21,3,0,5.45-2.74,8.2-6,6.06-9.44,14.19-14.1,21.36-1.11,1.71-2,3.66-3.1,5.44" transform="translate(171 -73.54)"/><path class="b" d="M-134.5,549.39c-2.89.12-2.88,2.94-3.91,4.56-4.87,7.6-10.32,14.9-13.59,23.44" transform="translate(171 -73.54)"/><path class="b" d="M-89,618.89c-5.53-7.64-12-14.19-22-14.87a37.37,37.37,0,0,0-16.49,2.37" transform="translate(171 -73.54)"/><path class="b" d="M-134,510.39c1.39,2.59.34,5.42.72,8,.68,4.56-.7,9.06.27,13.53.92,4.21-1.47,7-3.88,10.08A195.61,195.61,0,0,0-151,563.88c-.6,1-1.32,2-2,3" transform="translate(171 -73.54)"/><path class="b" d="M197,192.89c-.14-4.06-.79-7.47-6-8.15-2.12-.27-3.91-2.47-6-3.3-12.61-4.89-12.94-4.91-28.45,3-4.56,2.33-9,4.7-14,5.94" transform="translate(171 -73.54)"/><path class="b" d="M266,679.89c-3.13,8.2-8.62,15-13.08,22.45-1.19,2-2.32,4-3.42,6" transform="translate(171 -73.54)"/><path class="b" d="M736,267.39A29.92,29.92,0,0,1,715.5,273c-3.56-.27-3.92,3.07-5,5.44" transform="translate(171 -73.54)"/><path class="b" d="M495,676.89c-.72,4.22-3.64,7.35-5.53,11-2.88,5.56-6,11-9,16.52" transform="translate(171 -73.54)"/><path class="b" d="M-140.5,391.39c-4.29,2.54-5.75,7.26-8.54,11a86,86,0,0,0-9.46,15" transform="translate(171 -73.54)"/><path class="b" d="M-147.5,622.89c-2.24.5-3.6,2.51-4.36,4.07-3.76,7.7-9.51,14.18-13.14,21.93" transform="translate(171 -73.54)"/><path class="b" d="M501,678.89c-5.47,8.92-11.12,17.73-16,27" transform="translate(171 -73.54)"/><path class="b" d="M-122.5,658.89c4.17-1,7,2,9.39,4.12,13.06,11.67,28.69,16.5,45.58,19.09,5.61.85,8.87.19,11.13-5.17,1.09-2.57,3.28-4.68,5.1-7.18-5.15-10.35-13.82-16.09-24-21.16C-87,642.81-99.43,643.2-111.52,641c-6.68-1.23-14,5.11-14.47,11.92-.05.66-.29,1.54,0,2,3.62,4.79,3.06,11.35,6.9,16.08a6.38,6.38,0,0,1,1.19,5.47c-1.24,6.78,3,10.5,9.88,9.53,5.82-.83,8.88,3.08,11.49,7.45" transform="translate(171 -73.54)"/><path class="b" d="M743,195.39c-1.55,1.15-1.57,2.8-1.5,4.5a30.39,30.39,0,0,1-2,12.51,11.59,11.59,0,0,0,0,9.49" transform="translate(171 -73.54)"/><path class="b" d="M-136.5,459.39c-5.25,4.31-7.62,10.7-11.5,16-2.19,3-3.27,6.77-6.5,9" transform="translate(171 -73.54)"/><path class="b" d="M518,147.39c6.28,4.75,14.06,6.19,21.07,9.35,2,.89,3.49,1.46,3.93,3.65" transform="translate(171 -73.54)"/><path class="b" d="M-89,279.39c-2.62-7.39-2.59-7.22-10.51-6.05-6.11.89-12.28,2-18.49.55" transform="translate(171 -73.54)"/><path class="b" d="M518,687.89c-5,7.79-8.33,16.51-13,24.52-.29.5,0,1.31,0,2" transform="translate(171 -73.54)"/><path class="b" d="M510.5,682.39a279.53,279.53,0,0,1-15,25.5" transform="translate(171 -73.54)"/><path class="b" d="M-133,202.89c-5.73,4-8.52,10.45-13,15.51-2.59,2.92-4.55,6.37-7.51,9" transform="translate(171 -73.54)"/><path class="b" d="M40.5,129.39c-9,4.84-18,9.78-25.5,17" transform="translate(171 -73.54)"/><path class="b" d="M574,720.39l-14.5,26" transform="translate(171 -73.54)"/><path class="b" d="M-104.5,595.39c5.62,2.3,12-.28,17.37,2.68,1.43,5.75,3.94,11.25,1.73,17.36a24.2,24.2,0,0,1-2.31,4.64c-1.08,1.73,0,4.82.21,7.32" transform="translate(171 -73.54)"/><path class="b" d="M114.5,152.39a129,129,0,0,1-26,13" transform="translate(171 -73.54)"/><path class="b" d="M-135,180.39c2.25,3.29,2.12,5.83-.87,9.12a131.18,131.18,0,0,0-15.21,20.33c-.54.9-.82,2.48-2.42,2.55" transform="translate(171 -73.54)"/><path class="b" d="M476.5,665.39c2.89-.3,4.79,1.8,7,3.06,3.36,1.94,3,5.13,1.47,7.91-3.65,6.76-7.57,13.39-11.49,20a4.54,4.54,0,0,0-.45,2" transform="translate(171 -73.54)"/><path class="b" d="M747.5,96.39a29.1,29.1,0,0,0-11.5,0c-6.46,1.2-13,.17-19.52.85-3.79.4-7.24-3.08-11.5-1.94-1.47.39-3.08.31-4.48,1.09" transform="translate(171 -73.54)"/><path class="b" d="M231,675.89a166.78,166.78,0,0,1-13.5,24.5" transform="translate(171 -73.54)"/><path class="b" d="M539.5,699.89c-4.84,8.15-9.14,16.59-13.5,25" transform="translate(171 -73.54)"/><path class="b" d="M-69,652.39c-5.11,8.59-11.57,16.29-16.5,25" transform="translate(171 -73.54)"/><path class="b" d="M-88,714.89l-22,23" transform="translate(171 -73.54)"/><path class="b" d="M-135.5,468.39c-3.4,1.14-4.25,4.57-5.88,7.08-3.64,5.56-8,10.69-10.62,16.92" transform="translate(171 -73.54)"/><path class="b" d="M594.5,728.39c-3.08,7.15-7.72,13.46-11,20.5-.67,1.44-1.86,2.72-1.51,4.5" transform="translate(171 -73.54)"/><path class="b" d="M179.5,183.89c-3.07-.89-5.24,1.29-7.45,2.59-5.6,3.3-11.24,6.5-17.05,9.41" transform="translate(171 -73.54)"/><path class="b" d="M579,721.89c-4.33,7.67-8.68,15.33-13,23-.22.38,0,1,0,1.48" transform="translate(171 -73.54)"/><path class="b" d="M6.5,728.89c-7,3.25-13.31,7.69-20.5,10.49a5.24,5.24,0,0,0-3,3.51" transform="translate(171 -73.54)"/><path class="b" d="M377.5,655.39c5.72-4.15,9.7-3.63,16.09-.16,5.5,3,10.84,6.3,16.43,9.12,3.16,1.6,5.29,4.54,8.48,6" transform="translate(171 -73.54)"/><path class="b" d="M283.5,673.89c0-3.31-.71-6-4.49-7-7.36-1.91-14.53-4.53-22-6a4.83,4.83,0,0,0-3,0c-5.23,2.92-9.3,7.49-14.52,10.46-.07,0,0,.32,0,.48,1.08,8.8-6.61,13.53-9.59,20.46-1.33,3.12-4.06,5.59-4.91,9" transform="translate(171 -73.54)"/><path class="b" d="M-134,539.89a79.09,79.09,0,0,1,0,18c-.42,4.51.28,9-1.31,13.57a22.37,22.37,0,0,1-4.17,7.47c-5.68,6.66-9.33,14.65-14.08,21.93-1,1.48.23,3.22-1,4.53" transform="translate(171 -73.54)"/><path class="b" d="M680,138.89c-.17-.83.27-1.68-.47-2.52C674.84,131,671.6,123.68,664,122c-9.55-2.05-19-5.18-29-4.61-.68,0-1.33.63-2,1" transform="translate(171 -73.54)"/><path class="b" d="M714.5,360.39c-3.64,1.4-7.17,3.11-10.5,3.75,0,8.75.06,17.25,0,25.75-.05,5.17-.27,10.34-.49,15.5-.37,8.83-1,17.62-1,26.5.11,12-.83,24-1.1,36-.26,11.17-.39,22.33-.57,33.5-.12,7.15-.91,14.31-.87,21.5.12,21.67-1.28,43.32-1,65,.08,7-.11,14,.09,21,0,1.88.11,4.08,1.92,5.5" transform="translate(171 -73.54)"/><path class="b" d="M-137,446.39c-3.06-.39-2.83,2.52-4,4a175.75,175.75,0,0,0-12.51,19" transform="translate(171 -73.54)"/><path class="b" d="M494.5,157.89c2.49,3.81,7.09,4.19,10.5,6.5,4.15,2.82,9.62,3.35,13,7.5" transform="translate(171 -73.54)"/><path class="b" d="M283,702.39l-12,24.5" transform="translate(171 -73.54)"/><path class="b" d="M-147.5,301.39c-4.12,2.42-6.38,6.64-9.43,10.07-3.54,4-7.26,7.85-10.07,12.43" transform="translate(171 -73.54)"/><path class="b" d="M480.5,164.89c6,4.47,13,7,19.53,10.45,1.69.89,3.69,1.18,4,3.55" transform="translate(171 -73.54)"/><path class="b" d="M680,659.39c.52,4.54-3.44,6.94-5.07,10.47-2.26,4.87-6.43,8.7-7.93,14" transform="translate(171 -73.54)"/><path class="b" d="M728.5,205.89a34.64,34.64,0,0,1,1.84,16c-.33,3.08-.17,5.6,1.66,8" transform="translate(171 -73.54)"/><path class="b" d="M469,170.39c6.86-5.19,15.13-7.79,22.45-12.08,10.1-5.91,21.9-8.13,31.55-14.92,3.88-2.73,7.74-2.8,12-.56,6.55,3.41,13.16,6.74,19.42,10.65,2,1.25,2.94.89,5.13.13,11.34-4,22.74-7.73,34.9-8.9,6.6-.63,13-1,19.52.17a6.77,6.77,0,0,0,4.5-1" transform="translate(171 -73.54)"/><path class="b" d="M391.5,652.89c1.89-2.23,4.7-1.88,7-1.89,17.07-.09,34.13.22,51,3.34,1.37.25,2.84.65,3.41,1.6,3.05,5,8.7,6.34,13.09,9.43,4.15,2.93,4.14,4,2.07,9-2.56,6.26-6.87,11.58-9.08,18" transform="translate(171 -73.54)"/><path class="b" d="M252,197.89a55.41,55.41,0,0,1-16.52,8.43c-2.46.83-5.27,1.57-7.48-.93" transform="translate(171 -73.54)"/><path class="b" d="M-142.5,369.39c-4.09,1.43-5.1,5.59-7.47,8.53a75.73,75.73,0,0,0-9.53,14.47" transform="translate(171 -73.54)"/><path class="b" d="M-111.5,99.89c.67.5,1.33,1.44,2,1.43,8.85,0,16.79,3.59,25,6.14,2.75.85,5.66,2.12,5.52,5.93" transform="translate(171 -73.54)"/><path class="b" d="M-139,591.39c-2-.34-2.68,1.21-3.49,2.5q-6.27,10-12.51,20" transform="translate(171 -73.54)"/><path class="b" d="M526,691.39c-4.63,7.67-9.14,15.4-13,23.5" transform="translate(171 -73.54)"/><path class="b" d="M347.5,666.39c3.77-3.64,8.83-4.37,13.49-6,5-1.77,10-3.68,15.36-5.67,4.57,6,12,7.83,18.2,11.6,2,1.21,4.33,1.78,5.45,4.09" transform="translate(171 -73.54)"/><path class="b" d="M71,133.39c-5.87,5.42-13.12,8.83-19.54,13.45-1.94,1.39-3.63,2.78-4.46,5" transform="translate(171 -73.54)"/><path class="b" d="M-134.5,493.39c-5.31,3.1-6.49,9.37-10.44,13.56-2.3,2.43-2.68,6.28-5.56,8.44" transform="translate(171 -73.54)"/><path class="b" d="M-73.5,722.39c-3.3,5.9-8.88,9.81-13,15-1.78,2.2-3.89,4.14-5.45,6.54" transform="translate(171 -73.54)"/><path class="b" d="M547,705.39c-5.2,7.52-9,15.88-14,23.5" transform="translate(171 -73.54)"/><path class="b" d="M-144.5,317.39c-4.37,2.26-5.72,7-8.44,10.54-2.92,3.82-5.39,8-8.06,12" transform="translate(171 -73.54)"/><path class="b" d="M718.5,641.39c1.67,2.93-.6,5.48-1.7,7.38-3.07,5.31-5.22,11.11-8.8,16.12" transform="translate(171 -73.54)"/><path class="b" d="M674.5,711.39c6.87.86,13.24,3.68,20,5.07a4.24,4.24,0,0,1,3,2.93" transform="translate(171 -73.54)"/><path class="b" d="M-134,188.89c1.76,3.52,1.44,6.32-1.38,9.6-5.89,6.83-11.12,14.23-16.62,21.4" transform="translate(171 -73.54)"/><path class="b" d="M514,684.39c-3.71,6.81-7.7,13.47-11.07,20.47-.41.84-1.08,1.5-.93,2.53" transform="translate(171 -73.54)"/><path class="b" d="M479,672.89c-1.07,4.32-3.72,7.8-6,11.52s-3.48,7.94-6,11.48" transform="translate(171 -73.54)"/><path class="b" d="M-140,399.39c-1.6-.23-2.31.67-3,2-3.6,6.54-7.3,13-11,19.52" transform="translate(171 -73.54)"/><path class="b" d="M-150.5,281.39c-7.38,5.62-13.42,12.58-19.5,19.5" transform="translate(171 -73.54)"/><path class="b" d="M-137.5,577.89c1.43,1.63,1.47,3.33,1.09,5.52-1.63,9.4-3.73,18.66-8.73,26.9-.82,1.36-1,2.84-1.86,4.08" transform="translate(171 -73.54)"/><path class="b" d="M-137.5,453.39c2.08-.75,2,.94,2,2-.44,11.18,2.09,22.19,1.25,33.53-.41,5.55.15,11.63.31,17.47,0,1.76-.84,2.71-1.86,4.12-5.25,7.27-10.6,14.55-14.14,22.89-1.21,2.85-3.63,5-4.52,8" transform="translate(171 -73.54)"/><path class="b" d="M-135,478.39c-.5,0-1.33-.19-1.45,0-4.11,7-9.5,13.31-12.55,21" transform="translate(171 -73.54)"/><path class="b" d="M-95,643.89l-13,22.5" transform="translate(171 -73.54)"/><path class="b" d="M435,202.39c-6.41,2.87-13.33,1.71-20,2.47-2.49.28-5,0-7.52.39-2.22.31-5.36,1.4-6.12-2.84-.3-1.69-2.77-2.15-4.36-3-2.41-1.34-5.35-2-6.5-5" transform="translate(171 -73.54)"/><path class="b" d="M157,662.89c1.34,2,0,2.6-1.47,3.54-5.4,3.4-10.7,7-16,10.46-1.26.83-2.75,2.12-1.9,3.44,2,3.13.19,5-1.59,7.07a112.19,112.19,0,0,0-9,11.49" transform="translate(171 -73.54)"/><path class="b" d="M-145,629.89a242.39,242.39,0,0,0-13.55,20.47,4.83,4.83,0,0,0-.45,2" transform="translate(171 -73.54)"/><path class="b" d="M-61,658.39c-3.37,5.31-6.86,10.54-10.1,15.94a30.9,30.9,0,0,0-2.9,6.06" transform="translate(171 -73.54)"/><path class="b" d="M257,679.89c-5.5,7-10,14.65-15,22" transform="translate(171 -73.54)"/><path class="b" d="M522,689.89c-4.43,7.1-8.22,14.55-12,22" transform="translate(171 -73.54)"/><path class="b" d="M249,677.89c.17,3.42-2.55,5.49-4.13,7.91-2.92,4.46-4.92,9.48-8.37,13.59" transform="translate(171 -73.54)"/><path class="b" d="M699.5,648.39a6.58,6.58,0,0,1-.44,5.53c-3.1,5.54-6.95,10.65-9.56,16.47" transform="translate(171 -73.54)"/><path class="b" d="M742.5,664.89c1.1,3.57.1,6.76-1.46,10a137.33,137.33,0,0,1-12.63,21.92c-2.55,3.49-6.42,5.85-9.52,9-2.65,2.67-6.39,4.23-9.34,6.66-2.43,2-3.79,2.84-7.22.72-4.1-2.52-9.48-3-14.34-4.25-2.51-.63-4.21-1.81-4.49-4.53" transform="translate(171 -73.54)"/><path class="b" d="M221,675.89c.21,3.69-2.69,6.1-4.23,8.87A135.92,135.92,0,0,1,209,697.89" transform="translate(171 -73.54)"/><path class="b" d="M-78,189.39c-6.43,5.05-12.3,10.79-19,15.49-1.1.76-1.36,2-2,3" transform="translate(171 -73.54)"/><path class="b" d="M61,129.39c-6,6.39-14.25,9.65-21,15" transform="translate(171 -73.54)"/><path class="b" d="M610.5,736.39,600,757.89" transform="translate(171 -73.54)"/><path class="b" d="M289,707.89l-10.5,21.5" transform="translate(171 -73.54)"/><path class="b" d="M-100,609.39c-2.74,2.59-1.31,6.71-3.71,9.76-7.2-3.3-14.56-4.28-21.79.24" transform="translate(171 -73.54)"/><path class="b" d="M-134.5,636.39l-13.5,21.5" transform="translate(171 -73.54)"/><path class="b" d="M-141,633.89c-4.54,7-10,13.52-13,21.5" transform="translate(171 -73.54)"/><path class="b" d="M603,733.89a121,121,0,0,0-11.5,21.5" transform="translate(171 -73.54)"/><path class="b" d="M-132,165.39c-2.66-.25-3.65,2.08-4.93,3.56-4.51,5.18-8.74,10.61-13.07,15.94" transform="translate(171 -73.54)"/><path class="b" d="M190,185.39c-3.76,3.59-8.71,5.26-13,8-2.41,1.55-5.58,2.41-6,6" transform="translate(171 -73.54)"/><path class="b" d="M543,701.39a183.9,183.9,0,0,0-11.93,23c-.39.91-.4,1.81-1.57,2" transform="translate(171 -73.54)"/><path class="b" d="M585.5,725.39c-3.33,5.67-6.55,11.41-10,17-1.81,2.86-2,5.88-2,9" transform="translate(171 -73.54)"/><path class="b" d="M617.5,739.89c-3.93,7-8.07,13.78-11.5,21" transform="translate(171 -73.54)"/><path class="b" d="M-137.5,439.39c-2.94.37-3.11,3.24-4.49,5-3.47,4.46-5.1,10.17-9.51,14" transform="translate(171 -73.54)"/><path class="b" d="M-144,323.89c-2.18.2-3,2.11-3.95,3.53-3.78,5.42-7.38,11-11.05,16.47" transform="translate(171 -73.54)"/><path class="b" d="M-134,528.39c-2.51-.17-3,2.05-4,3.52-3.43,5.28-6.71,10.65-10,16" transform="translate(171 -73.54)"/><path class="b" d="M187.5,664.39c-7.26,3-14.72,5.69-20,12" transform="translate(171 -73.54)"/><path class="b" d="M445.5,669.89c-.63,5.54-5.24,8.86-7.74,13.37-1.33,2.42-2.45,5.56-5.26,7.13" transform="translate(171 -73.54)"/><path class="b" d="M-142.5,331.89c1,2.67.54,4.4-1.87,6.64-5.95,5.53-9.68,12.94-14.63,19.36" transform="translate(171 -73.54)"/><path class="b" d="M140.5,666.89c-1.85-2-4.4-1.14-5.93-.36-4.7,2.43-10.2,3.42-13.72,8.25-1.8,2.48-5.91,3.06-8.15,4.86-7.65,6.13-17.4,9-24,17-2.65,3.19-6.86,6.74-11.24,8-4.67,1.38-9.06,4.42-14.46,3.3a8.74,8.74,0,0,0-8.49,2.4c-2.59,2.71-7.1,2.8-9,6.51" transform="translate(171 -73.54)"/><path class="b" d="M489,675.89c-3.81,6.92-8,13.66-11,21" transform="translate(171 -73.54)"/><path class="b" d="M118.5,164.39c-6.38,1-11.48,5.13-17.46,7.11a3,3,0,0,0-1.54,2.89" transform="translate(171 -73.54)"/><path class="b" d="M410.5,653.89c5.1,3.85,11,6.38,16.11,10.36a17.29,17.29,0,0,1,3.89,3.64" transform="translate(171 -73.54)"/><path class="b" d="M417,188.89c5.2-2.44,9.89-5.43,16.13-1.2,5.23,3.54,11.89,4.77,17.37,8.2" transform="translate(171 -73.54)"/><path class="b" d="M-146,310.89c-6.26,5.92-10.43,13.52-16,20" transform="translate(171 -73.54)"/><path class="b" d="M164,678.89c-1.79,5.87-6.69,9.76-9.6,14.94a35.38,35.38,0,0,0-2.9,5.56" transform="translate(171 -73.54)"/><path class="b" d="M581,129.89c6.42,4.45,13.78,7.5,19.5,13" transform="translate(171 -73.54)"/><path class="b" d="M-78,720.89c-6.17,6.2-12.56,12.2-17.5,19.5" transform="translate(171 -73.54)"/><path class="b" d="M434.5,669.89c-1.73,5.48-6.4,9.05-9.12,13.93-1.23,2.19-2.77,4.26-3.88,6.57" transform="translate(171 -73.54)"/><path class="b" d="M454.5,175.89c3.31-2.55,7.37-3.59,11-5.45a3.93,3.93,0,0,1,4,.45c6.42,4.19,13.78,6.43,20.5,10" transform="translate(171 -73.54)"/><path class="b" d="M-130.5,637.89c-3.73,6.89-8.19,13.37-11.5,20.5" transform="translate(171 -73.54)"/><path class="b" d="M430,652.89c-.52,2.81,1.13,3.6,3.46,4.6,5.81,2.48,11.93,4.6,16,9.9" transform="translate(171 -73.54)"/><path class="b" d="M372.5,674.89c.73,4.64-3.23,7.11-5.16,10.41-2,3.46-4.47,6.78-6.84,10.09" transform="translate(171 -73.54)"/><path class="b" d="M550.5,705.39c-3.15,7.22-8.07,13.44-11.5,20.5" transform="translate(171 -73.54)"/><path class="b" d="M221,195.89c-2,4.73-7,5.65-10.57,8.41-2.72,2.11-6.52,2.78-8.43,6.09" transform="translate(171 -73.54)"/><path class="b" d="M567,715.89l-13,20" transform="translate(171 -73.54)"/><path class="b" d="M468.5,668.89c-4.17,1.54-8.25,1.21-12.52.07-6.76-1.79-13.66,1.1-20.47-.1-5.46-1-10.57,2.46-15.89.94-4.43,7.17-8.55,14.37-14.12,20.59" transform="translate(171 -73.54)"/><path class="b" d="M505,680.89l-11,20" transform="translate(171 -73.54)"/><path class="b" d="M578.5,146.39c-5.14-5.73-11.3-9.7-19-11" transform="translate(171 -73.54)"/><path class="b" d="M715,642.89c0,4.58-3.23,7.74-5.11,11.44-1.45,2.84-2.51,6.11-5.39,8.06" transform="translate(171 -73.54)"/><path class="b" d="M591,726.89c-4.08,6.35-6.64,13.6-11.5,19.5" transform="translate(171 -73.54)"/><path class="b" d="M400,671.39a10.78,10.78,0,0,1-1.91,7.06c-2.83,4.11-5.09,8.61-7.59,12.94" transform="translate(171 -73.54)"/><path class="b" d="M-65,655.89c-5.28,6.24-9,13.55-14,20" transform="translate(171 -73.54)"/><path class="b" d="M464,670.89c-2.84,7.12-7,13.51-11,20" transform="translate(171 -73.54)"/><path class="b" d="M334.5,670.89c2.68-2.52,6.61-2.4,9.51-4.49a2,2,0,0,1,2.48,0c3.5,2.65,8.13,3,11.54,5.94,2.75,2.35,3.53,5.26,1.45,8-3.77,5-6.45,10.71-10.48,15.52" transform="translate(171 -73.54)"/><path class="b" d="M-148.5,296.39c-3.93,1.4-5.42,5.26-7.95,8-2.87,3.15-5.38,6.63-8.05,10" transform="translate(171 -73.54)"/><path class="b" d="M453.5,177.39c6.21,4.12,13.44,6.11,20,9.5" transform="translate(171 -73.54)"/><path class="b" d="M694,651.39c1.64,4.63-2.65,7.09-4.24,10.39a56.87,56.87,0,0,1-6.26,9.61" transform="translate(171 -73.54)"/><path class="b" d="M191.5,195.89c-3.95-1.55-7.43-1-11.07,1.39a13.93,13.93,0,0,1-9.93,2.61" transform="translate(171 -73.54)"/><path class="b" d="M-149.5,290.39c-6.58,5.09-11.23,12.11-17.5,17.5" transform="translate(171 -73.54)"/><path class="b" d="M245.5,164.89c-1.89.13-3.53-.45-4.71,2.42a39.75,39.75,0,0,1-6.7,10.16c-1.11,1.32-2.78,3.22-1.09,5.42" transform="translate(171 -73.54)"/><path class="b" d="M-88,644.89c-1.28,5.32-4.94,9.37-7.51,14-1,1.83-2.59,3.35-3,5.51" transform="translate(171 -73.54)"/><path class="b" d="M-131.5,208.39c-5.78,4.84-9.05,11.63-13.51,17.49a9.44,9.44,0,0,1-1,1" transform="translate(171 -73.54)"/><path class="b" d="M-81.5,646.39c-3.22,7.1-8.18,13.1-12.5,19.5" transform="translate(171 -73.54)"/><path class="b" d="M598.5,730.39a125.16,125.16,0,0,1-10,19" transform="translate(171 -73.54)"/><path class="b" d="M245,146.89c-1.58-.57-3.3-1.2-4.47.52-2.61,3.83-6.15,7.18-7,12-.41,2.39-1.9,4.07-3.05,6l-7.5,12.5" transform="translate(171 -73.54)"/><path class="b" d="M368,658.89c.55,1.78,2.17,2.73,3.54,3.42,6.39,3.24,12.36,7,17,12.58" transform="translate(171 -73.54)"/><path class="b" d="M-146.5,306.39c-5.93,4.34-10,10.37-14.53,16-.5.61-.91,1.54-2,1.52" transform="translate(171 -73.54)"/><path class="b" d="M-67.5,95.39c-.5-.17-1-.53-1.5-.47-6.14.82-12.48-2.26-18.52.93a4.22,4.22,0,0,1-2,0c-4.4-.21-7.56,1.31-8.5,6" transform="translate(171 -73.54)"/><path class="b" d="M453,669.39c-1,5.82-4.2,10.72-6.53,16a10.49,10.49,0,0,0-1,3" transform="translate(171 -73.54)"/><path class="b" d="M262.5,666.39c-6.4,2.62-13.89,4.17-17.78,10.14-4.13,6.32-8.56,12.64-11.22,19.86" transform="translate(171 -73.54)"/><path class="b" d="M-49,710.39c-.21,2.82-2.66,2.82-4.51,3.48-4.52,1.61-9.15,2.92-13.49,5" transform="translate(171 -73.54)"/><path class="b" d="M730.5,641.89c-2.66-3.06-6.44-2.54-9.47-1.86-14.49,3.26-27.5,10-40.08,17.77-8.38,5.19-16.45,10.57-23,18.06a29.06,29.06,0,0,0-4,6" transform="translate(171 -73.54)"/><path class="b" d="M528.5,163.39c-4.64-1.69-8.71-4.68-13.51-5.95a33.27,33.27,0,0,0-5.49-.55" transform="translate(171 -73.54)"/><path class="b" d="M180.5,677.39c-4.68-.41-8.41-.33-10.75,5.4-2.23,5.44-7.12,9.63-9.75,15.1" transform="translate(171 -73.54)"/><path class="b" d="M273,666.39c-2.28,3-6,3.33-9.06,4.89-3.75,1.93-5.65,4.62-4.79,8.58a4.43,4.43,0,0,1-.68,3.51c-2.76,4.88-5.64,9.69-8.47,14.52" transform="translate(171 -73.54)"/><path class="b" d="M710,643.89c.37,2.63-1.35,4.44-2.48,6.51-2.24,4.13-4.35,8.32-6.52,12.49" transform="translate(171 -73.54)"/><path class="b" d="M239,138.89c-3.92,6.33-9.35,11.64-12.5,18.5" transform="translate(171 -73.54)"/><path class="b" d="M242.5,659.39c-4.51-1.79-9.31-1.73-14-1.85-1.91,0-3.82,1.1-5.65,2.68-3.49,3-6.8,6.53-11.35,8.17" transform="translate(171 -73.54)"/><path class="b" d="M633,745.89c-3.83,6.17-8.47,11.84-11.5,18.5" transform="translate(171 -73.54)"/><path class="b" d="M-60.5,751.39c.67,2.51-1.42,4.06-2.62,5.4-3.83,4.29-7.18,9-10.88,13.35" transform="translate(171 -73.54)"/><path class="b" d="M198.5,676.39c0,.56-.11,1.15.5,1.5-3.91,5.53-7,11.68-12.5,16" transform="translate(171 -73.54)"/><path class="b" d="M174.5,664.39a39.65,39.65,0,0,0-16.39,11.09c-1.53,1.73-2.87,3-5.11,3.42a6.76,6.76,0,0,0-6,5.5c-1.06,5.09-4.42,8.7-7.54,12.49" transform="translate(171 -73.54)"/><path class="b" d="M-83,716.89c-4.62,6.32-10.75,11.37-15,18" transform="translate(171 -73.54)"/><path class="b" d="M459,670.89c-.18,4.78-3.87,7.82-6.2,11.37-1.9,2.91-3.09,7.47-8.31,7.34-.79,0-1.66,2.79-2.49,4.29" transform="translate(171 -73.54)"/><path class="b" d="M252,661.39c-4.76-3.4-6.58-3.1-11,.44-4.72,3.75-10.49,5.68-16,8.06" transform="translate(171 -73.54)"/><path class="b" d="M-139.5,408.39c-5.5,4.54-8.72,10.62-11.5,17" transform="translate(171 -73.54)"/><path class="b" d="M155,678.89a4.32,4.32,0,0,1-.49,4.51c-3.2,4.48-6.34,9-9.51,13.49" transform="translate(171 -73.54)"/><path class="b" d="M293,710.89l-9,18" transform="translate(171 -73.54)"/><path class="b" d="M217,675.89c-2.78,6.81-8.53,11.64-12,18" transform="translate(171 -73.54)"/><path class="b" d="M-111.5,206.39c-.11,2.14.73,3.48,2.36,5.13,3.42,3.47,4.47,8.75,8.55,12,.83.66,1.7,1.68,2.62,2.33,3.56,2.54,6.19,5.63,7,10" transform="translate(171 -73.54)"/><path class="b" d="M671,665.39c.69,3.72-2.3,6-3.59,9s-3.4,5.67-3.91,9" transform="translate(171 -73.54)"/><path class="b" d="M-150,286.39c-3.68.53-5.37,3.73-7.38,6.1-2.75,3.26-5.67,6.34-8.62,9.4" transform="translate(171 -73.54)"/><path class="b" d="M344,672.39c1.19,1.36,3.08.91,4.56,1.9,3,2,4.06,4.88,2.46,8.11-2.19,4.41-5.91,8-7,13" transform="translate(171 -73.54)"/><path class="b" d="M-129.5,215.39c-4.94,4-8,9.41-11.52,14.49a16.32,16.32,0,0,1-2,2" transform="translate(171 -73.54)"/><path class="b" d="M-70,724.39c-2.57,4.33-6.54,7.49-9.59,11.43-1.14,1.47-2.11,2.69-1.91,4.57" transform="translate(171 -73.54)"/><path class="b" d="M-65,750.89a128.56,128.56,0,0,0-14.5,17.5" transform="translate(171 -73.54)"/><path class="b" d="M-54,666.39c-1,.25-2.27-.62-3,.51-3.08,4.89-7.78,8.72-9.52,14.49" transform="translate(171 -73.54)"/><path class="b" d="M-60,707.89c-1.73,4.32-6.32,3.69-9.51,5.48-2.75,1.55-6.89.85-8,5" transform="translate(171 -73.54)"/><path class="b" d="M67.5,708.89c-2.79,6.24-6,12.19-12,16" transform="translate(171 -73.54)"/><path class="b" d="M550.5,136.89l17,8.5" transform="translate(171 -73.54)"/><path class="b" d="M717.5,598.39c-6.5.31-11.44,4.4-17,7" transform="translate(171 -73.54)"/><path class="b" d="M561.5,712.39c-1.13-2.82-3.9-3.27-6.2-4.58q-16.53-9.48-32.78-19.46C511.69,681.64,499.67,677.67,488,673c-3.91-1.58-8.49.46-12.28-2L465.5,689.39" transform="translate(171 -73.54)"/><path class="b" d="M270.5,693.89c-4,2.13-3.55,6.73-5.5,10l-7.5,12.5" transform="translate(171 -73.54)"/><path class="b" d="M-92.5,710.89c-4.15,5.64-8.43,11.15-14,15.5" transform="translate(171 -73.54)"/><path class="b" d="M439.5,669.89c-2.29,6.41-7.57,11-10.5,17" transform="translate(171 -73.54)"/><path class="b" d="M30,726.39c-3.31-1.37-5.89.26-8.51,2-7.29,4.81-15.41,7.87-23.47,11-1.86.73-3.41,2.32-5.3,2.87-2.63.77-4.94,2.17-8.28,1.33-4.39-1.11-8.07,2.91-12.41,3.89-5,1.13-9.71,3.44-15,2.88a2.2,2.2,0,0,0-2.57,1.46c-2.4,4.85-6.27,8.69-9.43,13" transform="translate(171 -73.54)"/><path class="b" d="M607,735.89c-4.51,4.86-6.18,11.52-10.5,16.5" transform="translate(171 -73.54)"/><path class="b" d="M720.5,414.89c-5.81,2-10.71,6.19-17,7" transform="translate(171 -73.54)"/><path class="b" d="M737.5,666.89c.17,2-.72,3.51-2,5-7.74,9.36-16.42,17.75-26.64,24.3-1.86,1.19-4.62,1.31-6.39,3.18" transform="translate(171 -73.54)"/><path class="b" d="M-142.5,337.89c2,4.31.54,7.58-2.4,11.08-4.18,5-8.9,9.76-10.62,16.41-.59,2.29-3.63,3.24-3.48,6" transform="translate(171 -73.54)"/><path class="b" d="M-102,642.89c.48,3.57-2.67,5.34-4.08,8-1.55,2.88-4,5.27-4.92,8.54" transform="translate(171 -73.54)"/><path class="b" d="M640.5,748.89c-3.28-4.69-8.55-6.23-13.54-7.34-7.62-1.69-14.53-4.83-21.47-8.13-6.55-3.11-13.52-5.76-19.71-9.06-7.57-4-16.11-6.7-23-13.32-4.71,8.21-10.57,15.09-11.78,24.35" transform="translate(171 -73.54)"/><path class="b" d="M234,197.14c-1.92-2-4.33-2.37-7-2.29-3.06.09-6.17.55-9-1.4-1.8-1.23-4.2-.58-5.9.09-2.51,1-6,1.76-7.42,1.07-7.77-3.84-11.81.67-16.26,5.67-1.18,1.33-3.14,3.11-6,1.79-1-.46-2.92,1.15-4.42,1.82" transform="translate(171 -73.54)"/><path class="b" d="M426,670.89c1.39,3.36-2.17,4.62-3.21,6.91-1.48,3.27-4,6.1-5.29,9.59" transform="translate(171 -73.54)"/><path class="b" d="M719.5,200.89c-4.85-1.79-7.24-6.44-11-9.49-1.51-1.24-2.37-3.6-5-3" transform="translate(171 -73.54)"/><path class="b" d="M87,139.89c-4.91,4-10.64,6.71-16,10" transform="translate(171 -73.54)"/><path class="b" d="M146,685.39c-5.6,2-7.24,7.76-11,11.46-.85.82-.86,2.47-2.46,2.54" transform="translate(171 -73.54)"/><path class="b" d="M298,714.89c-2.66,5.26-4.7,10.87-8.5,15.5" transform="translate(171 -73.54)"/><path class="b" d="M624,752.89a112.83,112.83,0,0,1-10.5,15.5" transform="translate(171 -73.54)"/><path class="b" d="M-67.5,217.89c-5.25,3.68-10.78,7-15,12" transform="translate(171 -73.54)"/><path class="b" d="M-102,111.89l-10.5,10c-.85.81-1.56,1.87-3,1.5" transform="translate(171 -73.54)"/><path class="b" d="M-51,669.89c7.35,1,8.21,6.74,9,12.5" transform="translate(171 -73.54)"/><path class="b" d="M720.5,454.39c-5.74,3.12-11.34,6.58-18,7.5" transform="translate(171 -73.54)"/><path class="b" d="M-104,713.39c-1.36,4.19-4.88,6.76-7.52,10-1.51,1.83-3.58,3.2-4.48,5.52" transform="translate(171 -73.54)"/><path class="b" d="M204,195.39a10.65,10.65,0,0,1-7.46,9.1c-2.51.91-5.25,2.33-5,5.9" transform="translate(171 -73.54)"/><path class="b" d="M-78.5,304.39c-5.08-.09-9.87-2.31-15-2" transform="translate(171 -73.54)"/><path class="b" d="M715.5,587.39c-5.59,1.07-10,4.63-15,7" transform="translate(171 -73.54)"/><path class="b" d="M410,671.89c1.29,1.63-.19,2.43-1,3.51-2.61,3.59-4.26,7.84-7.52,11" transform="translate(171 -73.54)"/><path class="b" d="M719.5,549.39c-5.75,1.5-10.12,5.46-15,8.5" transform="translate(171 -73.54)"/><path class="b" d="M658.5,101.89c3.57,5,9.88,5,14.5,8" transform="translate(171 -73.54)"/><path class="b" d="M-146,616.89c-2.66,11.3,4.66,16,13.49,19.53,3.59,1.44,8,1.29,10.51,5" transform="translate(171 -73.54)"/><path class="b" d="M119,688.89c.34,2.33-.65,4.18-2,6-2.11,2.93-4,6-6,9" transform="translate(171 -73.54)"/><path class="b" d="M-100.5,372.39l15,3.5" transform="translate(171 -73.54)"/><path class="b" d="M-49.5,101.39c-5.33,1.18-9.39,5.52-15,6" transform="translate(171 -73.54)"/><path class="b" d="M-135,503.89c-3.08-.38-4.15,2.12-5.46,4-2,2.89-3.71,6-5.54,9" transform="translate(171 -73.54)"/><path class="b" d="M-87.5,107.39c-1.62,3.86-4.63,6.63-7.5,9.5-1.4,1.39-3.17,2.58-2.5,5" transform="translate(171 -73.54)"/><path class="b" d="M-110.5,115.89c-5.78,2.92-9.79,7.82-14,12.5" transform="translate(171 -73.54)"/><path class="b" d="M-151,276.39c-3.36.11-4.53,3.09-6.49,5-2.53,2.47-5,5-7.51,7.49" transform="translate(171 -73.54)"/><path class="b" d="M44,725.39c-.4-2.93,3-4.91,1.66-8.49-3.86-.35-6.55,2.64-9.65,4.5-4.69,2.82-5.63,7.79-7,12.49" transform="translate(171 -73.54)"/><path class="b" d="M719.5,385.39c-4.45.57-7.33,4-11,6-1.15.63-2,1.88-3.52,1" transform="translate(171 -73.54)"/><path class="b" d="M529,699.39c-1.5,2.67-3.45,5.19-4.39,8-1.3,3.91-3.85,6.7-6.61,9.46" transform="translate(171 -73.54)"/><path class="b" d="M685.5,106.39a14.64,14.64,0,0,1-9.73-4.24c-4.45-4.94-9.19-3.33-13.72-2.07-3.55,1-7.06.7-10.56,1.23-1.94.29-3.64.62-5,2.08" transform="translate(171 -73.54)"/><path class="b" d="M715,97.89c-1.6,3.39-4.78,4-8,4.49-5.16.74-9.51,3.76-14.47,5.11-1,.29-1.7,1.9-2.53,2.9" transform="translate(171 -73.54)"/><path class="b" d="M276,678.89a25,25,0,0,1-3.48,8c-1.37,1.94-2.11,4.09-1,6.48" transform="translate(171 -73.54)"/><path class="b" d="M-107.5,685.39c-.2-6.41-3.48-10.22-9.5-11" transform="translate(171 -73.54)"/><path class="b" d="M-58,95.89c0,1,.35,2.69,0,2.9-5,2.55-8.66,7.4-14.45,8.6" transform="translate(171 -73.54)"/><path class="b" d="M422.5,670.89c-1.62,5.4-5.46,9.46-8.5,14" transform="translate(171 -73.54)"/><path class="b" d="M307,714.89c.29,5.65-4.3,9.2-6,14" transform="translate(171 -73.54)"/><path class="b" d="M380,674.89a1.07,1.07,0,0,1,.46,1.47c-3.28,3.8-5.47,8.4-9,12" transform="translate(171 -73.54)"/><path class="b" d="M-76.5,649.39c-3.4,6.38-7,12.63-13,17" transform="translate(171 -73.54)"/><path class="b" d="M-86,391.39c-4.62.54-8.91-1.8-13.5-1.5" transform="translate(171 -73.54)"/><path class="b" d="M-95,110.89l-12.5,12.5" transform="translate(171 -73.54)"/><path class="b" d="M112,692.39c-4.44-1.33-7.53,2.51-11.5,3-4.54.57-8.36,2.11-10,7-1.25,3.61-4.92,6-5.46,10" transform="translate(171 -73.54)"/><path class="b" d="M694.5,702.39c3.09-2.78,5.75-4.61,10.15-1.19,3.28,2.54,8.33,2.36,11.85,5.19" transform="translate(171 -73.54)"/><path class="b" d="M702,198.39c2,6,8.2,7.8,12,12" transform="translate(171 -73.54)"/><path class="b" d="M208,675.89c-.76,5.18-4.49,8.93-6.5,13.5" transform="translate(171 -73.54)"/><path class="b" d="M-98.5,538.39a11.14,11.14,0,0,0,0,1.92c3.94.64,7.26,3.59,11.49,3.08" transform="translate(171 -73.54)"/><path class="b" d="M366,675.89c-1.05,5-4.78,8.6-7,13" transform="translate(171 -73.54)"/><path class="b" d="M-85,663.39c.81,1.31.28,2.27-.43,3.54-1.72,3.13-4.51,5.71-5.07,9.46" transform="translate(171 -73.54)"/><path class="b" d="M-107,642.89l-9,13" transform="translate(171 -73.54)"/><path class="b" d="M-122.5,173.39l6.45-8.57c2.37.25,3.8,1.8,2.93,3-3.06,4.13-3.19,10.28-8.84,12.68-1.41.59-2.37,2.24-3.54,3.41" transform="translate(171 -73.54)"/><path class="b" d="M691.5,204.89c5.32,1.81,8.73,6.24,13,9.5" transform="translate(171 -73.54)"/><path class="b" d="M714.5,478.39c-4.45.51-8.33,3.45-13,3" transform="translate(171 -73.54)"/><path class="b" d="M-74.5,703.39c-.08,3.31-3,3-5,4-2.83,1.39-6.91.81-8,5" transform="translate(171 -73.54)"/><path class="b" d="M-138.5,427.39c-3.92,3-5.64,7.69-8.5,11.5" transform="translate(171 -73.54)"/><path class="b" d="M-53,751.39c-1.09,4.21-4.68,6.66-7.06,10-.49.68-1.15,1.1-.94,2" transform="translate(171 -73.54)"/><path class="b" d="M-135.5,488.89c-4.41,3-6.16,8.14-9.5,12" transform="translate(171 -73.54)"/><path class="b" d="M-23,746.89c.07,2.39.17,4.75-2,6.52-1.85,1.52-2.29,3.84-3,6" transform="translate(171 -73.54)"/><path class="b" d="M649.5,224.39c.06,1.22-.08,2.16,1.43,3.11a49.71,49.71,0,0,1,9.07,7.39" transform="translate(171 -73.54)"/><path class="b" d="M-51.5,233.39c1.74-1.3.48-3.49,1.24-4.87a15.47,15.47,0,0,1,13.76,3.37" transform="translate(171 -73.54)"/><path class="b" d="M102,695.89c1,2.86-1.28,4.46-2.47,6.52s-2,4-3,6" transform="translate(171 -73.54)"/><path class="b" d="M-81,315.89c-3.91-2.07-8.2-2.82-12.5-3.5" transform="translate(171 -73.54)"/><path class="b" d="M709.5,696.89c3.44,3.59,8.67,1.62,12.5,4" transform="translate(171 -73.54)"/><path class="b" d="M-63.5,727.39c-3.67,5-5.26,11.82-12.49,13.54-1.06.25-1.38,1-1.73,2.4-1,4-4.24,6.87-6.8,10-.74.91-1.88,1.56-1.48,3" transform="translate(171 -73.54)"/><path class="b" d="M-108.5,95.39c3.89,1.65,8.17-1.38,12,1" transform="translate(171 -73.54)"/><path class="b" d="M713.5,328.39l-12,5" transform="translate(171 -73.54)"/><path class="b" d="M-121,701.39c-1.92,5-6.72,7.69-9.5,12" transform="translate(171 -73.54)"/><path class="b" d="M-85.5,356.89c-4.08.17-7.89-1.87-12-1.5" transform="translate(171 -73.54)"/><path class="b" d="M-97.5,227.89a18.84,18.84,0,0,1-5.54,7,5.21,5.21,0,0,0-2,5" transform="translate(171 -73.54)"/><path class="b" d="M704.5,101.89c-1.81-2-2.9-5.28-5.54-5.83A22,22,0,0,0,688,97a12.46,12.46,0,0,1-6.55.52,9.21,9.21,0,0,0-8,1.88" transform="translate(171 -73.54)"/><path class="b" d="M714,496.39c-4.49.77-7.57,4.6-12,5.5" transform="translate(171 -73.54)"/><path class="b" d="M147.5,680.89c-7.4-1.78-13.72.9-20.06,4.38-3.23,1.77-6.75,4.36-10.94,2.12" transform="translate(171 -73.54)"/><path class="b" d="M373,673.89c-2.25-4.19-6.26-5.52-10.5-6.5" transform="translate(171 -73.54)"/><path class="b" d="M-138.5,416.89c2.3,5.3,1.13,11.06,1.64,16.53.59,6.36,1.86,13,.36,19.47" transform="translate(171 -73.54)"/><path class="b" d="M571,717.39l-7,11.5" transform="translate(171 -73.54)"/><path class="b" d="M-36.5,750.89c-.74,4.87-5,7.32-7.5,11" transform="translate(171 -73.54)"/><path class="b" d="M-115.5,708.39a55.12,55.12,0,0,0-9.5,10.5" transform="translate(171 -73.54)"/><path class="b" d="M-98,396.89c3.74,1.27,7.47,2.58,11.5,2.5" transform="translate(171 -73.54)"/><path class="b" d="M712.5,540.89a55,55,0,0,0-11.5,6" transform="translate(171 -73.54)"/><path class="b" d="M-126.5,221.39c-4.76,2.06-5.81,7.47-9.5,10.5" transform="translate(171 -73.54)"/><path class="b" d="M712.5,505.39c-3.79,1.32-7.25,3.7-11.5,3.5" transform="translate(171 -73.54)"/><path class="b" d="M125,687.39c-.41,5-4.75,7.61-7,11.5" transform="translate(171 -73.54)"/><path class="b" d="M-31,748.89c.19,4.8-4.57,7.23-5.5,11.5" transform="translate(171 -73.54)"/><path class="b" d="M401.5,193.89c2,3.58,6.13,4.2,9.17,6.25,1.91,1.29,1.62,2.32,1.83,3.75" transform="translate(171 -73.54)"/><path class="b" d="M713,572.39l-8.5,5c-1.19.71-1.07,1.87-1,3" transform="translate(171 -73.54)"/><path class="b" d="M-7.5,743.39c-.08,4.72-4.61,7-6,11" transform="translate(171 -73.54)"/><path class="b" d="M-84,700.39c-2.65,4.31-8.28,2.28-11.61,5.38-.5.46-2.4-.77-3.42-1.85-2.74-2.92-5.5-5.85-8.51-8.48a8.48,8.48,0,0,1-3-7.55" transform="translate(171 -73.54)"/><path class="b" d="M-101,225.89a136,136,0,0,0-10.53,12c-.83,1-.22,2-.47,3" transform="translate(171 -73.54)"/><path class="b" d="M704,715.39c-5.77,5.49-13.19,8.27-20.06,11.88-3.06,1.61-6.05,3.26-8.94,5.12" transform="translate(171 -73.54)"/><path class="b" d="M187.5,681.39c-3.83,1.84-4.84,7.44-10,7.5" transform="translate(171 -73.54)"/><path class="b" d="M-126,650.89c-5.51-.9-6.68,3.79-9,7" transform="translate(171 -73.54)"/><path class="b" d="M-76.5,204.39c-3.17,3.68-7.84,5.79-10.5,10" transform="translate(171 -73.54)"/><path class="b" d="M-110,709.89c-2.44,4.12-6.56,6.88-9,11" transform="translate(171 -73.54)"/><path class="b" d="M554,709.39c-2,3.66-4.79,6.9-6,11" transform="translate(171 -73.54)"/><path class="b" d="M-126.5,231.39c1-2.15,2.12-4.09,5.17-2.4a28.81,28.81,0,0,1-8.17,11.4" transform="translate(171 -73.54)"/><path class="b" d="M-82,200.39c-4.1,3-7.28,7.05-11,10.5" transform="translate(171 -73.54)"/><path class="b" d="M-117.5,232.89c-1.07,2.63-3.16,4.45-5,6.54-1,1.19-2.5,2.56-1,4.46" transform="translate(171 -73.54)"/><path class="b" d="M-98,554.89c3.7,1.59,7,4.05,11,5" transform="translate(171 -73.54)"/><path class="b" d="M303,714.39c.14,4.06-2.07,7.23-4,10.5" transform="translate(171 -73.54)"/><path class="b" d="M714.5,347.89l-10.5,5" transform="translate(171 -73.54)"/><path class="b" d="M52,712.89c1.54,4.4-2.43,7-3.5,10.5" transform="translate(171 -73.54)"/><path class="b" d="M713.5,445.39c-3.73,1-6.63,3.87-10.5,4.5" transform="translate(171 -73.54)"/><path class="b" d="M714,427.39l-10.5,5" transform="translate(171 -73.54)"/><path class="b" d="M-71.5,212.39c-3.56,2.59-7,5.28-9.5,9" transform="translate(171 -73.54)"/><path class="b" d="M712.5,405.39c-.79,4.83-4.94,5.28-8.5,6.5" transform="translate(171 -73.54)"/><path class="b" d="M-84,334.39c-3.85.23-6.67-3.17-10.5-3" transform="translate(171 -73.54)"/><path class="b" d="M415,669.39c-3.45,2.08-7.29,1.65-11,1.45-7-.39-12.68,2.6-17.4,7.15-3.2,3.09-6.71,6.14-8.6,10.4" transform="translate(171 -73.54)"/><path class="b" d="M551.5,729.39c-4.52,1.57-4.26,6.92-7.5,9.5" transform="translate(171 -73.54)"/><path class="b" d="M708.5,298.39c-3.77.79-6.23,4.21-10,5" transform="translate(171 -73.54)"/><path class="b" d="M-85.5,345.89c-3.55.05-6.48-2.4-10-2.5" transform="translate(171 -73.54)"/><path class="b" d="M714.5,368.39c-4-.41-6,4.24-10,4" transform="translate(171 -73.54)"/><path class="b" d="M715.5,489.39a16.88,16.88,0,0,0-8,1.94,4.75,4.75,0,0,1-5.47-.44" transform="translate(171 -73.54)"/><path class="b" d="M-88.5,458.39a23.42,23.42,0,0,1-10-2" transform="translate(171 -73.54)"/><path class="b" d="M351,677.39c-3.11,1.73-6.69,1.94-10,3" transform="translate(171 -73.54)"/><path class="b" d="M233,157.89c-4.36,1.49-5,6.31-8,9" transform="translate(171 -73.54)"/><path class="b" d="M-72,747.89c-2.53,2.81-4,6.51-7.5,8.5" transform="translate(171 -73.54)"/><path class="b" d="M677.5,221.39c3.82,1.19,6.44,4.39,10,6" transform="translate(171 -73.54)"/><path class="b" d="M-56.5,221.89l-10,8" transform="translate(171 -73.54)"/><path class="b" d="M658.5,226.39c2.94,2,7,2.71,8,7" transform="translate(171 -73.54)"/><path class="b" d="M-77.5,296.89c-3.32-.59-6.58-1.56-10-1.5" transform="translate(171 -73.54)"/><path class="b" d="M709.5,565.39c-2.42-.45-4,1.3-5.42,2.59a5,5,0,0,1-4.08,1.41" transform="translate(171 -73.54)"/><path class="b" d="M-97,531.89a25.88,25.88,0,0,0,9.5,3" transform="translate(171 -73.54)"/><path class="b" d="M715.5,336.39a26.91,26.91,0,0,1-13,6" transform="translate(171 -73.54)"/><path class="b" d="M710.5,530.39c-3.56-.24-5.84,3.57-9.5,3" transform="translate(171 -73.54)"/><path class="b" d="M-96.5,408.39c3.35-.23,6.16,2.14,9.5,2" transform="translate(171 -73.54)"/><path class="b" d="M-85,365.89c-3.31.4-6.26-1.43-9.5-1.5" transform="translate(171 -73.54)"/><path class="b" d="M-98.5,466.39c3,1.69,6.32,2.37,9.5,3.5" transform="translate(171 -73.54)"/><path class="b" d="M190.5,673.89c4.1,4.09,9,1.49,13.5,1.37,10.85-.28,21.68-.91,32.5.6,2.31.32,4.71-.27,7,.53" transform="translate(171 -73.54)"/><path class="b" d="M-97,433.39c3,.55,5.81,2.21,9,2" transform="translate(171 -73.54)"/><path class="b" d="M713.5,398.39c-3.61-.39-5.36,4-9,3.5" transform="translate(171 -73.54)"/><path class="b" d="M680.5,230.89c-3.09-2-5.41-5.16-9-6.5" transform="translate(171 -73.54)"/><path class="b" d="M-96.5,503.39c3.28.16,5.94,2.17,9,3" transform="translate(171 -73.54)"/><path class="b" d="M-119,116.89l-8.5,7.5" transform="translate(171 -73.54)"/><path class="b" d="M.5,739.89c-.36,3.9-3.8,5.92-5.5,9" transform="translate(171 -73.54)"/><path class="b" d="M-88,482.39c-3.09.41-5.47-2.16-8.5-2" transform="translate(171 -73.54)"/><path class="b" d="M706.5,289.39l-8.5,4.5" transform="translate(171 -73.54)"/><path class="b" d="M690.5,216.39c3.06,1.3,5.88,2.9,7.5,6" transform="translate(171 -73.54)"/><path class="b" d="M-82,322.89a21,21,0,0,0-8.5-2.5" transform="translate(171 -73.54)"/><path class="b" d="M-94,381.89c2.83,1.09,5.67.37,8.5,0" transform="translate(171 -73.54)"/><path class="b" d="M712.5,516.39c-3,.72-5.3,2.6-7.43,4.57-1.37,1.26-2.7.73-4.07.93" transform="translate(171 -73.54)"/><path class="b" d="M-106,219.89c-2.36,1.8-2.75,6.11-7,5.5" transform="translate(171 -73.54)"/><path class="b" d="M710.5,468.89c-2.9,1-5,4-8.5,3.5" transform="translate(171 -73.54)"/><path class="b" d="M453.75,175.89c-2.68,2.34-7.26.76-9.25,4.5" transform="translate(171 -73.54)"/><path class="b" d="M710.5,306.39c-3.73,2.05-6.12,6.38-11,6.5" transform="translate(171 -73.54)"/><path class="b" d="M711.5,437.39c-3.17-.32-5.25,3.08-8.5,2.5" transform="translate(171 -73.54)"/><path class="b" d="M-131,700.89a49.73,49.73,0,0,1-6,8" transform="translate(171 -73.54)"/><path class="b" d="M76,706.39c.14,2.57.33,4.81-2.94,6.15-2.5,1-3.31,4.24-5.06,6.35" transform="translate(171 -73.54)"/><path class="b" d="M176.5,688.39c-3.48,2.49-7.76,4-10,8" transform="translate(171 -73.54)"/><path class="b" d="M-94.5,565.39c2.71,0,5.22,1.55,8,1" transform="translate(171 -73.54)"/><path class="b" d="M713,379.39c-2.94.28-5.1,2.62-8,3" transform="translate(171 -73.54)"/><path class="b" d="M-95.5,514.39l8,1.5" transform="translate(171 -73.54)"/><path class="b" d="M637,757.39l3.3-7.6c3.23,2.77.84,5.75.7,8.6" transform="translate(171 -73.54)"/><path class="b" d="M711.5,317.39l-8,3" transform="translate(171 -73.54)"/><path class="b" d="M170,200.39c-2.5-1.41-5,.44-7.5,0" transform="translate(171 -73.54)"/><path class="b" d="M-130,119.39c-.53,3.68-4.16,4.87-6,7.5" transform="translate(171 -73.54)"/><path class="b" d="M726.5,683.39c1.45,3.63,5.52.71,7.5,3" transform="translate(171 -73.54)"/><path class="b" d="M747.5,176.89c-2.5.64-5-1.46-7.5,0" transform="translate(171 -73.54)"/><path class="b" d="M-76,288.89a24.7,24.7,0,0,0-7.5-1.5" transform="translate(171 -73.54)"/><path class="b" d="M-38.5,238.39c3.4.4,3.77-2.23,4.78-4.77-4.36-1.35-6.48,2.1-9.28,3.77" transform="translate(171 -73.54)"/><path class="b" d="M686.5,726.89c2.16,3.4-2.08,4.52-2.5,7" transform="translate(171 -73.54)"/><path class="b" d="M-111,211.39c-4.35,4.87-4.68,10.33-1.94,16,1.21,2.47-1,5.43,1.44,7.53" transform="translate(171 -73.54)"/><path class="b" d="M695,722.89c1.1,3.23-2,4.65-3,7" transform="translate(171 -73.54)"/><path class="b" d="M278.5,688.89c-2.59.89-3.5,4.21-6.5,4.5" transform="translate(171 -73.54)"/><path class="b" d="M-55,749.39c2.85,2.49,6.51-.13,9.5,1.5" transform="translate(171 -73.54)"/><path class="b" d="M-95,706.39c1.69,3.8,5.51,5.54,8.61,7.31,9.64,5.48,18.33,13.07,29.88,14.76.91.13,1.68,1.26,2.51,1.93" transform="translate(171 -73.54)"/><path class="b" d="M-133,197.39c1.17,7.79,2.91,15.36,6.36,22.57,1.29,2.71,4.54,4.39,4.14,7.93" transform="translate(171 -73.54)"/><path class="b" d="M-87,601.89a5.77,5.77,0,0,1-6.5,1" transform="translate(171 -73.54)"/><path class="b" d="M-126.5,654.89c-2.4.6-3.7,2.3-4.5,4.5" transform="translate(171 -73.54)"/><path class="b" d="M-119.75,186.89c2.34,4.21-.14,8.66.58,13,.39,2.43-4.24,2.48-4.33,5.47" transform="translate(171 -73.54)"/><path class="b" d="M-119.5,180.39c.58,2.71,1.56,5.39-2.46,6.62-1.24.38-2,2.21-3,3.38" transform="translate(171 -73.54)"/><path class="b" d="M158,677.14c1.76,1.56,5.33,1.42,5.81,1,2.88-2.38,5.19-.39,7.69.23" transform="translate(171 -73.54)"/><path class="b" d="M385.5,672.89c-8.15.8-16.22,2.7-24.5,1.75" transform="translate(171 -73.54)"/><path class="b" d="M-78.5,741.89l-4.64-1.74L-87,744.89" transform="translate(171 -73.54)"/><path class="b" d="M-119.5,201.89c2.09,3.75,3.4,7.29-2,9.53-1.26.52-1.08,1.84-1,3" transform="translate(171 -73.54)"/><path class="b" d="M-113.5,232.89c-3.42.8-4.47-3.47-7.5-3.5" transform="translate(171 -73.54)"/></svg>