<?xml version="1.0" encoding="utf-8" ?>
<svg xmlns="http://www.w3.org/2000/svg" xmlns:cc="http://creativecommons.org/ns#" xmlns:dc="http://purl.org/dc/elements/1.1/" xmlns:ev="http://www.w3.org/2001/xml-events" xmlns:inkscape="http://www.inkscape.org/namespaces/inkscape" xmlns:rdf="http://www.w3.org/1999/02/22-rdf-syntax-ns#" xmlns:sodipodi="http://sodipodi.sourceforge.net/DTD/sodipodi-0.dtd" xmlns:xlink="http://www.w3.org/1999/xlink" baseProfile="tiny" height="21.0cm" version="1.2" viewBox="0 0 1122.5196850393702 793.7007874015749" width="29.7cm">
  <metadata>
    <rdf:RDF>
      <cc:Work>
        <dc:format>image/svg+xml</dc:format>
        <dc:source>vpype read hypercube_signature.svg rotate 180 scaleto 1000cm 0.4cm layout -h right -v top -l a4 translate -- -3cm 3cm write hypercube_signature_a4.svg
</dc:source>
        <dc:date>2021-02-09T15:37:57.553869</dc:date>
      </cc:Work>
    </rdf:RDF>
  </metadata>
  <defs/>
  <g fill="none" id="layer1" inkscape:groupmode="layer" inkscape:label="1" stroke="#00f" style="display:inline">
    <line x1="1009.1339" x2="1009.1339" y1="126.6142" y2="116.6929"/>
    <polyline points="1009.1339,121.4173 1007.7165,122.8346 1006.7717,123.3071 1005.3543,123.3071 1004.4094,122.8346 1003.937,121.4173 1003.937,116.6929"/>
    <line x1="1001.1024" x2="998.2677" y1="123.3071" y2="116.6929"/>
    <polyline points="995.4331,123.3071 998.2677,116.6929 999.2126,114.8031 1000.1575,113.8583 1001.1024,113.3858 1001.5748,113.3858"/>
    <line x1="992.5984" x2="992.5984" y1="123.3071" y2="113.3858"/>
    <polyline points="992.5984,121.8898 991.6535,122.8346 990.7087,123.3071 989.2913,123.3071 988.3465,122.8346 987.4016,121.8898 986.9291,120.4724 986.9291,119.5276 987.4016,118.1102 988.3465,117.1654 989.2913,116.6929 990.7087,116.6929 991.6535,117.1654 992.5984,118.1102"/>
    <polyline points="984.0945,120.4724 978.4252,120.4724 978.4252,121.4173 978.8976,122.3622 979.3701,122.8346 980.315,123.3071 981.7323,123.3071 982.6772,122.8346 983.622,121.8898 984.0945,120.4724 984.0945,119.5276 983.622,118.1102 982.6772,117.1654 981.7323,116.6929 980.315,116.6929 979.3701,117.1654 978.4252,118.1102"/>
    <line x1="975.1181" x2="975.1181" y1="123.3071" y2="116.6929"/>
    <polyline points="975.1181,120.4724 974.6457,121.8898 973.7008,122.8346 972.7559,123.3071 971.3386,123.3071"/>
    <polyline points="963.7795,121.8898 964.7244,122.8346 965.6693,123.3071 967.0866,123.3071 968.0315,122.8346 968.9764,121.8898 969.4488,120.4724 969.4488,119.5276 968.9764,118.1102 968.0315,117.1654 967.0866,116.6929 965.6693,116.6929 964.7244,117.1654 963.7795,118.1102"/>
    <polyline points="960.4724,123.3071 960.4724,118.5827 960.0,117.1654 959.0551,116.6929 957.6378,116.6929 956.6929,117.1654 955.2756,118.5827"/>
    <line x1="955.2756" x2="955.2756" y1="123.3071" y2="116.6929"/>
    <line x1="951.4961" x2="951.4961" y1="126.6142" y2="116.6929"/>
    <polyline points="951.4961,121.8898 950.5512,122.8346 949.6063,123.3071 948.189,123.3071 947.2441,122.8346 946.2992,121.8898 945.8268,120.4724 945.8268,119.5276 946.2992,118.1102 947.2441,117.1654 948.189,116.6929 949.6063,116.6929 950.5512,117.1654 951.4961,118.1102"/>
    <polyline points="942.9921,120.4724 937.3228,120.4724 937.3228,121.4173 937.7953,122.3622 938.2677,122.8346 939.2126,123.3071 940.6299,123.3071 941.5748,122.8346 942.5197,121.8898 942.9921,120.4724 942.9921,119.5276 942.5197,118.1102 941.5748,117.1654 940.6299,116.6929 939.2126,116.6929 938.2677,117.1654 937.3228,118.1102"/>
    <line x1="926.4567" x2="934.9606" y1="128.5039" y2="113.3858"/>
    <polyline points="920.7874,126.6142 921.7323,126.6142 922.6772,126.1417 923.1496,124.7244 923.1496,116.6929"/>
    <line x1="924.5669" x2="921.2598" y1="123.3071" y2="123.3071"/>
    <line x1="912.7559" x2="912.7559" y1="123.3071" y2="116.6929"/>
    <polyline points="912.7559,121.8898 913.7008,122.8346 914.6457,123.3071 916.063,123.3071 917.0079,122.8346 917.9528,121.8898 918.4252,120.4724 918.4252,119.5276 917.9528,118.1102 917.0079,117.1654 916.063,116.6929 914.6457,116.6929 913.7008,117.1654 912.7559,118.1102"/>
    <line x1="908.9764" x2="908.9764" y1="123.3071" y2="116.6929"/>
    <polyline points="908.9764,121.4173 907.5591,122.8346 906.6142,123.3071 905.1969,123.3071 904.252,122.8346 903.7795,121.4173 903.7795,116.6929"/>
    <polyline points="900.0,123.3071 900.0,118.5827 899.5276,117.1654 898.5827,116.6929 897.1654,116.6929 896.2205,117.1654 894.8031,118.5827"/>
    <line x1="894.8031" x2="894.8031" y1="123.3071" y2="116.6929"/>
    <polyline points="883.4646,124.252 883.4646,124.7244 882.9921,125.6693 882.5197,126.1417 881.5748,126.6142 879.685,126.6142 878.7402,126.1417 878.2677,125.6693 877.7953,124.7244 877.7953,123.7795 878.2677,122.8346 879.2126,121.4173 883.937,116.6929 877.3228,116.6929"/>
    <polygon points="871.6535,126.6142 873.0709,126.1417 874.0157,124.7244 874.4882,122.3622 874.4882,120.9449 874.0157,118.5827 873.0709,117.1654 871.6535,116.6929 870.7087,116.6929 869.2913,117.1654 868.3465,118.5827 867.874,120.9449 867.874,122.3622 868.3465,124.7244 869.2913,126.1417 870.7087,126.6142"/>
    <polyline points="864.5669,124.252 864.5669,124.7244 864.0945,125.6693 863.622,126.1417 862.6772,126.6142 860.7874,126.6142 859.8425,126.1417 859.3701,125.6693 858.8976,124.7244 858.8976,123.7795 859.3701,122.8346 860.315,121.4173 865.0394,116.6929 858.4252,116.6929"/>
    <polyline points="854.1732,124.7244 853.2283,125.1969 851.811,126.6142 851.811,116.6929"/>
  </g>
</svg>
