<?xml version="1.0"?><svg  viewBox="0 0 200 200" xmlns="http://www.w3.org/2000/svg"  version="1.2" viewport-fill="#fff">
  <polyline points="76.200,91.400 76.200,97.700"  style="fill:none;stroke:#000;stroke-width:0.1953;opacity:1" stroke-linecap="round"/>
  <polyline points="76.200,94.700 77.100,93.800 77.700,93.500 78.600,93.500 79.200,93.800 79.500,94.700 79.500,97.700"  style="fill:none;stroke:#000;stroke-width:0.1953;opacity:1" stroke-linecap="round"/>
  <polyline points="81.300,93.500 83.100,97.700"  style="fill:none;stroke:#000;stroke-width:0.1953;opacity:1" stroke-linecap="round"/>
  <polyline points="84.900,93.500 83.100,97.700 82.500,98.900 81.900,99.500 81.300,99.800 81.000,99.800"  style="fill:none;stroke:#000;stroke-width:0.1953;opacity:1" stroke-linecap="round"/>
  <polyline points="86.700,93.500 86.700,99.800"  style="fill:none;stroke:#000;stroke-width:0.1953;opacity:1" stroke-linecap="round"/>
  <polyline points="86.700,94.400 87.300,93.800 87.900,93.500 88.800,93.500 89.400,93.800 90.000,94.400 90.300,95.300 90.300,95.900 90.000,96.800 89.400,97.400 88.800,97.700 87.900,97.700 87.300,97.400 86.700,96.800"  style="fill:none;stroke:#000;stroke-width:0.1953;opacity:1" stroke-linecap="round"/>
  <polyline points="92.100,95.300 95.700,95.300 95.700,94.700 95.400,94.100 95.100,93.800 94.500,93.500 93.600,93.500 93.000,93.800 92.400,94.400 92.100,95.300 92.100,95.900 92.400,96.800 93.000,97.400 93.600,97.700 94.500,97.700 95.100,97.400 95.700,96.800"  style="fill:none;stroke:#000;stroke-width:0.1953;opacity:1" stroke-linecap="round"/>
  <polyline points="97.800,93.500 97.800,97.700"  style="fill:none;stroke:#000;stroke-width:0.1953;opacity:1" stroke-linecap="round"/>
  <polyline points="97.800,95.300 98.100,94.400 98.700,93.800 99.300,93.500 100.200,93.500"  style="fill:none;stroke:#000;stroke-width:0.1953;opacity:1" stroke-linecap="round"/>
  <polyline points="105.000,94.400 104.400,93.800 103.800,93.500 102.900,93.500 102.300,93.800 101.700,94.400 101.400,95.300 101.400,95.900 101.700,96.800 102.300,97.400 102.900,97.700 103.800,97.700 104.400,97.400 105.000,96.800"  style="fill:none;stroke:#000;stroke-width:0.1953;opacity:1" stroke-linecap="round"/>
  <polyline points="107.100,93.500 107.100,96.500 107.400,97.400 108.000,97.700 108.900,97.700 109.500,97.400 110.400,96.500"  style="fill:none;stroke:#000;stroke-width:0.1953;opacity:1" stroke-linecap="round"/>
  <polyline points="110.400,93.500 110.400,97.700"  style="fill:none;stroke:#000;stroke-width:0.1953;opacity:1" stroke-linecap="round"/>
  <polyline points="112.800,91.400 112.800,97.700"  style="fill:none;stroke:#000;stroke-width:0.1953;opacity:1" stroke-linecap="round"/>
  <polyline points="112.800,94.400 113.400,93.800 114.000,93.500 114.900,93.500 115.500,93.800 116.100,94.400 116.400,95.300 116.400,95.900 116.100,96.800 115.500,97.400 114.900,97.700 114.000,97.700 113.400,97.400 112.800,96.800"  style="fill:none;stroke:#000;stroke-width:0.1953;opacity:1" stroke-linecap="round"/>
  <polyline points="118.200,95.300 121.800,95.300 121.800,94.700 121.500,94.100 121.200,93.800 120.600,93.500 119.700,93.500 119.100,93.800 118.500,94.400 118.200,95.300 118.200,95.900 118.500,96.800 119.100,97.400 119.700,97.700 120.600,97.700 121.200,97.400 121.800,96.800"  style="fill:none;stroke:#000;stroke-width:0.1953;opacity:1" stroke-linecap="round"/>
  <polyline points="128.700,90.200 123.300,99.800"  style="fill:none;stroke:#000;stroke-width:0.1953;opacity:1" stroke-linecap="round"/>
  <polyline points="132.300,91.400 131.700,91.400 131.100,91.700 130.800,92.600 130.800,97.700"  style="fill:none;stroke:#000;stroke-width:0.1953;opacity:1" stroke-linecap="round"/>
  <polyline points="129.900,93.500 132.000,93.500"  style="fill:none;stroke:#000;stroke-width:0.1953;opacity:1" stroke-linecap="round"/>
  <polyline points="137.400,93.500 137.400,97.700"  style="fill:none;stroke:#000;stroke-width:0.1953;opacity:1" stroke-linecap="round"/>
  <polyline points="137.400,94.400 136.800,93.800 136.200,93.500 135.300,93.500 134.700,93.800 134.100,94.400 133.800,95.300 133.800,95.900 134.100,96.800 134.700,97.400 135.300,97.700 136.200,97.700 136.800,97.400 137.400,96.800"  style="fill:none;stroke:#000;stroke-width:0.1953;opacity:1" stroke-linecap="round"/>
  <polyline points="139.800,93.500 139.800,97.700"  style="fill:none;stroke:#000;stroke-width:0.1953;opacity:1" stroke-linecap="round"/>
  <polyline points="139.800,94.700 140.700,93.800 141.300,93.500 142.200,93.500 142.800,93.800 143.100,94.700 143.100,97.700"  style="fill:none;stroke:#000;stroke-width:0.1953;opacity:1" stroke-linecap="round"/>
  <polyline points="145.500,93.500 145.500,96.500 145.800,97.400 146.400,97.700 147.300,97.700 147.900,97.400 148.800,96.500"  style="fill:none;stroke:#000;stroke-width:0.1953;opacity:1" stroke-linecap="round"/>
  <polyline points="148.800,93.500 148.800,97.700"  style="fill:none;stroke:#000;stroke-width:0.1953;opacity:1" stroke-linecap="round"/>
  <polyline points="156.000,92.900 156.000,92.600 156.300,92.000 156.600,91.700 157.200,91.400 158.400,91.400 159.000,91.700 159.300,92.000 159.600,92.600 159.600,93.200 159.300,93.800 158.700,94.700 155.700,97.700 159.900,97.700"  style="fill:none;stroke:#000;stroke-width:0.1953;opacity:1" stroke-linecap="round"/>
  <polyline points="163.500,91.400 162.600,91.700 162.000,92.600 161.700,94.100 161.700,95.000 162.000,96.500 162.600,97.400 163.500,97.700 164.100,97.700 165.000,97.400 165.600,96.500 165.900,95.000 165.900,94.100 165.600,92.600 165.000,91.700 164.100,91.400 163.500,91.400"  style="fill:none;stroke:#000;stroke-width:0.1953;opacity:1" stroke-linecap="round"/>
  <polyline points="168.000,92.900 168.000,92.600 168.300,92.000 168.600,91.700 169.200,91.400 170.400,91.400 171.000,91.700 171.300,92.000 171.600,92.600 171.600,93.200 171.300,93.800 170.700,94.700 167.700,97.700 171.900,97.700"  style="fill:none;stroke:#000;stroke-width:0.1953;opacity:1" stroke-linecap="round"/>
  <polyline points="174.600,92.600 175.200,92.300 176.100,91.400 176.100,97.700"  style="fill:none;stroke:#000;stroke-width:0.1953;opacity:1" stroke-linecap="round"/>
</svg>
