<?xml version="1.0" encoding="utf-8" ?>
<svg xmlns="http://www.w3.org/2000/svg" xmlns:cc="http://creativecommons.org/ns#" xmlns:dc="http://purl.org/dc/elements/1.1/" xmlns:ev="http://www.w3.org/2001/xml-events" xmlns:inkscape="http://www.inkscape.org/namespaces/inkscape" xmlns:rdf="http://www.w3.org/1999/02/22-rdf-syntax-ns#" xmlns:sodipodi="http://sodipodi.sourceforge.net/DTD/sodipodi-0.dtd" xmlns:xlink="http://www.w3.org/1999/xlink" baseProfile="tiny" height="21.0cm" version="1.2" viewBox="0 0 559.3700787401575 793.7007874015749" width="14.8cm">
  <metadata>
    <rdf:RDF>
      <cc:Work>
        <dc:format>image/svg+xml</dc:format>
        <dc:source>vpype read labyrinth.svg rotate 270 layout --fit-to-margins 3cm a5 write labyrinth_a5.svg
</dc:source>
        <dc:date>2021-02-06T22:43:25.174644</dc:date>
      </cc:Work>
    </rdf:RDF>
  </metadata>
  <defs/>
  <g fill="none" id="layer2" inkscape:groupmode="layer" inkscape:label="2" stroke="#00f" style="display:inline">
    <polyline points="145.8345,396.8504 133.6662,375.7744 149.8905,375.7744 162.0588,396.8504 141.7784,431.9771 129.6101,410.9011 125.5541,417.9264 263.4607,656.7877 295.9094,656.7877 445.9843,396.8504 413.5356,396.8504 409.4795,389.8251 360.8066,474.1291 340.5262,439.0024 348.6384,424.9517 360.8066,446.0277 377.0309,446.0277"/>
    <polyline points="360.8066,446.0277 389.1992,396.8504 372.9748,368.7491 389.1992,368.7491 360.8066,319.5717 348.6384,340.6477 372.9748,340.6477"/>
    <polyline points="377.0309,347.6731 360.8066,347.6731 364.8627,354.6984 352.6944,375.7744 368.9188,375.7744 372.9748,368.7491"/>
    <polyline points="368.9188,375.7744 381.087,396.8504 360.8066,431.9771 348.6384,410.9011 324.3019,410.9011 320.2458,417.9264 356.7505,481.1544 299.9654,579.5091 291.8533,565.4584 328.358,502.2304 324.3019,495.2051 348.6384,495.2051"/>
    <line x1="344.5823" x2="328.358" y1="502.2304" y2="502.2304"/>
    <polyline points="324.3019,495.2051 312.1337,516.2811 291.8533,481.1544 304.0215,460.0784 299.9654,453.0531 283.7411,481.1544 267.5168,481.1544 291.8533,523.3064 308.0776,523.3064 283.7411,565.4584 295.9094,586.5344 263.4607,642.7371 255.3486,628.6864 271.5729,628.6864"/>
    <polyline points="255.3486,628.6864 267.5168,607.6104 263.4607,600.5851 251.2925,621.6611 206.6756,544.3824 231.0121,502.2304 218.8439,481.1544 235.0682,481.1544 247.2364,502.2304 231.0121,502.2304"/>
    <polyline points="235.0682,481.1544 247.2364,460.0784 231.0121,460.0784 214.7878,431.9771 198.5635,460.0784 202.6196,467.1037 214.7878,446.0277 222.8999,460.0784 210.7317,481.1544 222.8999,502.2304 206.6756,502.2304 182.3392,460.0784 198.5635,460.0784"/>
    <line x1="202.6196" x2="218.8439" y1="467.1037" y2="467.1037"/>
    <line x1="218.8439" x2="231.0121" y1="481.1544" y2="460.0784"/>
    <polyline points="247.2364,460.0784 235.0682,439.0024 247.2364,417.9264 239.1243,403.8757 226.956,424.9517 214.7878,403.8757 182.3392,460.0784"/>
    <polyline points="206.6756,502.2304 202.6196,509.2557 218.8439,509.2557 202.6196,537.3571 170.1709,481.1544 186.3952,481.1544 178.2831,467.1037 170.1709,481.1544"/>
    <line x1="186.3952" x2="202.6196" y1="481.1544" y2="509.2557"/>
    <line x1="218.8439" x2="222.8999" y1="509.2557" y2="502.2304"/>
    <polyline points="247.2364,502.2304 222.8999,544.3824 206.6756,544.3824"/>
    <polyline points="222.8999,544.3824 226.956,551.4077 243.1803,551.4077 251.2925,537.3571 275.629,537.3571 283.7411,523.3064 259.4046,481.1544 243.1803,481.1544 267.5168,523.3064 263.4607,530.3317 251.2925,509.2557 226.956,551.4077"/>
    <polyline points="243.1803,551.4077 235.0682,565.4584 251.2925,593.5597 291.8533,593.5597"/>
    <line x1="287.7972" x2="263.4607" y1="600.5851" y2="600.5851"/>
    <line x1="267.5168" x2="283.7411" y1="607.6104" y2="607.6104"/>
    <line x1="271.5729" x2="267.5168" y1="600.5851" y2="593.5597"/>
    <polyline points="251.2925,593.5597 255.3486,586.5344 271.5729,586.5344 275.629,593.5597 279.685,586.5344 267.5168,565.4584 291.8533,523.3064"/>
    <line x1="283.7411" x2="267.5168" y1="523.3064" y2="523.3064"/>
    <line x1="263.4607" x2="279.685" y1="530.3317" y2="530.3317"/>
    <polyline points="275.629,537.3571 263.4607,558.4331 251.2925,537.3571"/>
    <line x1="267.5168" x2="271.5729" y1="537.3571" y2="530.3317"/>
    <line x1="267.5168" x2="283.7411" y1="565.4584" y2="565.4584"/>
    <line x1="291.8533" x2="308.0776" y1="565.4584" y2="565.4584"/>
    <line x1="295.9094" x2="279.685" y1="586.5344" y2="586.5344"/>
    <polyline points="271.5729,586.5344 251.2925,551.4077 243.1803,565.4584 255.3486,586.5344"/>
    <line x1="259.4046" x2="243.1803" y1="565.4584" y2="565.4584"/>
    <polyline points="243.1803,481.1544 255.3486,460.0784 271.5729,460.0784 259.4046,439.0024 243.1803,439.0024 255.3486,417.9264 239.1243,389.8251 255.3486,389.8251 271.5729,417.9264 259.4046,439.0024"/>
    <line x1="255.3486" x2="271.5729" y1="417.9264" y2="417.9264"/>
    <polyline points="255.3486,389.8251 239.1243,361.7237 226.956,382.7997 251.2925,382.7997"/>
    <polyline points="235.0682,382.7997 231.0121,389.8251 214.7878,389.8251 226.956,410.9011 239.1243,389.8251 231.0121,389.8251"/>
    <polyline points="226.956,382.7997 214.7878,361.7237 166.1148,446.0277 162.0588,439.0024 145.8345,439.0024 166.1148,474.1291 214.7878,389.8251"/>
    <line x1="226.956" x2="243.1803" y1="424.9517" y2="424.9517"/>
    <line x1="239.1243" x2="214.7878" y1="431.9771" y2="431.9771"/>
    <line x1="231.0121" x2="235.0682" y1="431.9771" y2="424.9517"/>
    <line x1="243.1803" x2="255.3486" y1="439.0024" y2="460.0784"/>
    <line x1="259.4046" x2="271.5729" y1="481.1544" y2="460.0784"/>
    <polyline points="267.5168,481.1544 299.9654,424.9517 320.2458,460.0784 308.0776,481.1544 291.8533,481.1544"/>
    <line x1="283.7411" x2="308.0776" y1="481.1544" y2="523.3064"/>
    <polyline points="308.0776,481.1544 312.1337,488.1797 352.6944,488.1797"/>
    <polyline points="356.7505,481.1544 340.5262,481.1544 304.0215,417.9264 324.3019,382.7997 336.4701,403.8757 377.0309,403.8757"/>
    <polyline points="372.9748,410.9011 348.6384,410.9011 336.4701,431.9771 324.3019,410.9011"/>
    <line x1="320.2458" x2="304.0215" y1="417.9264" y2="417.9264"/>
    <line x1="299.9654" x2="316.1897" y1="453.0531" y2="453.0531"/>
    <line x1="320.2458" x2="304.0215" y1="460.0784" y2="460.0784"/>
    <polyline points="312.1337,488.1797 324.3019,467.1037 336.4701,488.1797 340.5262,481.1544"/>
    <line x1="332.4141" x2="328.358" y1="495.2051" y2="488.1797"/>
    <line x1="340.5262" x2="356.7505" y1="439.0024" y2="439.0024"/>
    <line x1="340.5262" x2="344.5823" y1="410.9011" y2="403.8757"/>
    <polyline points="336.4701,403.8757 348.6384,382.7997 360.8066,403.8757 364.8627,396.8504 352.6944,375.7744"/>
    <line x1="364.8627" x2="381.087" y1="354.6984" y2="354.6984"/>
    <polyline points="389.1992,368.7491 397.3113,382.7997 429.7599,382.7997 433.816,375.7744 295.9094,136.913 263.4607,136.913 401.3674,375.7744 433.816,375.7744"/>
    <polyline points="445.9843,396.8504 441.9282,389.8251 409.4795,389.8251"/>
    <line x1="413.5356" x2="263.4607" y1="396.8504" y2="656.7877"/>
    <line x1="182.3392" x2="166.1148" y1="446.0277" y2="446.0277"/>
    <polyline points="162.0588,439.0024 186.3952,396.8504 153.9466,340.6477 133.6662,375.7744"/>
    <polyline points="149.8905,375.7744 153.9466,368.7491 170.1709,368.7491"/>
    <polyline points="153.9466,368.7491 170.1709,396.8504 145.8345,439.0024"/>
    <line x1="153.9466" x2="129.6101" y1="410.9011" y2="410.9011"/>
    <polyline points="158.0027,403.8757 117.4419,403.8757 129.6101,382.7997 141.7784,403.8757 145.8345,396.8504 162.0588,396.8504"/>
    <line x1="170.1709" x2="186.3952" y1="396.8504" y2="396.8504"/>
    <polyline points="117.4419,403.8757 113.3858,396.8504 263.4607,136.913"/>
    <polyline points="348.6384,340.6477 344.5823,333.6224 356.7505,312.5464 340.5262,312.5464 312.1337,263.3691 308.0776,270.3944 320.2458,291.4704 295.9094,333.6224 312.1337,361.7237 336.4701,361.7237 320.2458,333.6224 304.0215,333.6224 316.1897,354.6984 332.4141,354.6984"/>
    <polyline points="328.358,361.7237 332.4141,368.7491 324.3019,368.7491 299.9654,410.9011 287.7972,389.8251 312.1337,389.8251"/>
    <polyline points="316.1897,382.7997 275.629,382.7997 287.7972,361.7237 299.9654,382.7997 304.0215,375.7744 279.685,333.6224 295.9094,333.6224"/>
    <polyline points="304.0215,333.6224 324.3019,298.4957 332.4141,312.5464 320.2458,333.6224"/>
    <line x1="316.1897" x2="312.1337" y1="354.6984" y2="361.7237"/>
    <line x1="320.2458" x2="304.0215" y1="375.7744" y2="375.7744"/>
    <line x1="295.9094" x2="291.8533" y1="389.8251" y2="382.7997"/>
    <polyline points="287.7972,389.8251 283.7411,396.8504 295.9094,417.9264 279.685,417.9264 243.1803,354.6984 279.685,291.4704 255.3486,249.3184 271.5729,249.3184 275.629,242.2931 287.7972,263.3691 308.0776,228.2424 275.629,172.0397 251.2925,214.1917 247.2364,207.1664 271.5729,165.0144 263.4607,150.9637 206.6756,249.3184 226.956,284.4451 239.1243,263.3691 255.3486,291.4704 271.5729,291.4704 251.2925,326.5971 239.1243,305.5211 222.8999,333.6224 226.956,340.6477 243.1803,340.6477 247.2364,333.6224 239.1243,319.5717 226.956,340.6477"/>
    <polyline points="231.0121,319.5717 214.7878,319.5717 210.7317,312.5464 222.8999,291.4704 202.6196,256.3437 170.1709,312.5464 186.3952,312.5464 202.6196,284.4451 218.8439,284.4451"/>
    <polyline points="222.8999,291.4704 206.6756,291.4704 194.5074,312.5464 226.956,368.7491 243.1803,340.6477"/>
    <polyline points="243.1803,354.6984 259.4046,354.6984 275.629,382.7997"/>
    <polyline points="279.685,417.9264 267.5168,439.0024 275.629,453.0531 295.9094,417.9264"/>
    <line x1="283.7411" x2="267.5168" y1="439.0024" y2="439.0024"/>
    <polyline points="259.4046,354.6984 263.4607,347.6731 279.685,347.6731 271.5729,333.6224 295.9094,291.4704 279.685,291.4704"/>
    <polyline points="271.5729,291.4704 239.1243,235.2677 226.956,256.3437 222.8999,249.3184 206.6756,249.3184"/>
    <polyline points="222.8999,249.3184 239.1243,221.217 263.4607,221.217 251.2925,242.2931 239.1243,221.217"/>
    <polyline points="251.2925,214.1917 267.5168,214.1917 275.629,200.141 291.8533,228.2424 287.7972,235.2677 275.629,214.1917 255.3486,249.3184"/>
    <line x1="251.2925" x2="226.956" y1="256.3437" y2="256.3437"/>
    <line x1="239.1243" x2="255.3486" y1="263.3691" y2="263.3691"/>
    <line x1="247.2364" x2="243.1803" y1="263.3691" y2="256.3437"/>
    <polyline points="255.3486,291.4704 251.2925,298.4957 267.5168,298.4957"/>
    <line x1="263.4607" x2="239.1243" y1="305.5211" y2="305.5211"/>
    <polyline points="251.2925,298.4957 239.1243,277.4197 214.7878,319.5717"/>
    <line x1="210.7317" x2="194.5074" y1="312.5464" y2="312.5464"/>
    <polyline points="186.3952,312.5464 210.7317,354.6984 194.5074,354.6984 190.4513,361.7237 166.1148,319.5717 158.0027,333.6224 190.4513,389.8251 210.7317,354.6984"/>
    <line x1="206.6756" x2="190.4513" y1="361.7237" y2="361.7237"/>
    <line x1="194.5074" x2="170.1709" y1="354.6984" y2="312.5464"/>
    <line x1="174.227" x2="158.0027" y1="333.6224" y2="333.6224"/>
    <line x1="202.6196" x2="206.6756" y1="284.4451" y2="291.4704"/>
    <line x1="255.3486" x2="259.4046" y1="305.5211" y2="298.4957"/>
    <polyline points="279.685,333.6224 304.0215,291.4704 291.8533,270.3944 308.0776,270.3944"/>
    <polyline points="312.1337,263.3691 328.358,263.3691 356.7505,312.5464"/>
    <polyline points="340.5262,312.5464 328.358,333.6224 344.5823,333.6224"/>
    <polyline points="328.358,333.6224 348.6384,368.7491 360.8066,347.6731"/>
    <line x1="364.8627" x2="368.9188" y1="340.6477" y2="347.6731"/>
    <line x1="364.8627" x2="381.087" y1="396.8504" y2="396.8504"/>
    <line x1="389.1992" x2="405.4235" y1="396.8504" y2="396.8504"/>
    <line x1="413.5356" x2="417.5917" y1="382.7997" y2="389.8251"/>
    <line x1="401.3674" x2="397.3113" y1="375.7744" y2="382.7997"/>
    <polyline points="336.4701,361.7237 344.5823,375.7744 336.4701,389.8251 324.3019,368.7491"/>
    <line x1="332.4141" x2="340.5262" y1="368.7491" y2="368.7491"/>
    <line x1="320.2458" x2="304.0215" y1="291.4704" y2="291.4704"/>
    <line x1="295.9094" x2="271.5729" y1="291.4704" y2="249.3184"/>
    <line x1="275.629" x2="299.9654" y1="242.2931" y2="242.2931"/>
    <line x1="304.0215" x2="287.7972" y1="235.2677" y2="235.2677"/>
    <line x1="291.8533" x2="295.9094" y1="242.2931" y2="235.2677"/>
    <line x1="291.8533" x2="308.0776" y1="228.2424" y2="228.2424"/>
    <line x1="291.8533" x2="275.629" y1="200.141" y2="200.141"/>
    <line x1="267.5168" x2="263.4607" y1="214.1917" y2="221.217"/>
    <line x1="259.4046" x2="255.3486" y1="214.1917" y2="221.217"/>
    <polyline points="291.8533,270.3944 312.1337,235.2677 328.358,263.3691"/>
    <polyline points="279.685,347.6731 283.7411,354.6984 275.629,368.7491 263.4607,347.6731"/>
  </g>
</svg>
