<svg xmlns="http://www.w3.org/2000/svg" xmlns:inkscape="http://www.inkscape.org/namespaces/inkscape" viewBox="-70.49446786805329 -12.100000000000001 140.9889357361066 90.2" fill="none" stroke="black" stroke-width="0.1" width="150mm" height="100mm">
<g inkscape:groupmode="layer" id="layer2" inkscape:label="2-black" style="display:inline" stroke="black">
<polyline points="
0.0 0
5.196152422706632 -3
5.196152422706632 1
0.0 4
-8.660254037844386 -1
-3.4641016151377544 -4
-5.196152422706632 -5
-64.08587988004845 29
-64.08587988004845 37
0.0 74
0.0 66
1.7320508075688772 65
-19.05255888325765 53
-10.392304845413264 48
-6.928203230275509 50
-12.12435565298214 53
-12.12435565298214 57
"/>
<polyline points="
-12.12435565298214 53
0.0 60
6.928203230275509 56
6.928203230275509 60
19.05255888325765 53
13.856406460551018 50
13.856406460551018 56
"/>
<polyline points="
12.12435565298214 57
12.12435565298214 53
10.392304845413264 54
5.196152422706632 51
5.196152422706632 55
6.928203230275509 56
"/>
<polyline points="
5.196152422706632 55
0.0 58
-8.660254037844386 53
-3.4641016151377544 50
-3.4641016151377544 44
-5.196152422706632 43
-20.784609690826528 52
-45.033320996790806 38
-41.569219381653056 36
-25.980762113533157 45
-24.24871130596428 44
-24.24871130596428 50
"/>
<polyline points="
-25.980762113533157 49
-25.980762113533157 45
"/>
<polyline points="
-24.24871130596428 44
-29.444863728670914 41
-20.784609690826528 36
-15.588457268119894 39
-13.856406460551018 38
-20.784609690826528 34
-20.784609690826528 30
-31.17691453623979 36
-31.17691453623979 40
-41.569219381653056 34
-46.76537180435968 37
-60.6217782649107 29
-57.157676649772945 27
-57.157676649772945 31
"/>
<polyline points="
-57.157676649772945 27
-51.96152422706631 30
-50.22947341949744 29
-55.42562584220407 26
-36.373066958946424 15
-25.980762113533157 21
-20.784609690826528 18
-20.784609690826528 22
-25.980762113533157 25
-25.980762113533157 21
"/>
<polyline points="
-20.784609690826528 22
-15.588457268119894 25
-15.588457268119894 21
-8.660254037844386 17
-15.588457268119894 13
-17.32050807568877 14
-12.12435565298214 17
-15.588457268119894 19
-20.784609690826528 16
-25.980762113533157 19
-25.980762113533157 15
-15.588457268119894 9
-15.588457268119894 13
"/>
<polyline points="
-17.32050807568877 14
-17.32050807568877 18
"/>
<polyline points="
-20.784609690826528 18
-15.588457268119894 21
"/>
<polyline points="
-15.588457268119894 25
-10.392304845413264 22
-5.196152422706632 25
-1.7320508075688772 23
-6.928203230275509 20
-1.7320508075688772 17
-15.588457268119894 9
"/>
<polyline points="
-25.980762113533157 15
-27.712812921102035 14
-27.712812921102035 18
-34.64101615137754 14
-20.784609690826528 6
-20.784609690826528 10
-17.32050807568877 8
-20.784609690826528 6
"/>
<polyline points="
-20.784609690826528 10
-27.712812921102035 14
"/>
<polyline points="
-27.712812921102035 18
-25.980762113533157 19
"/>
<polyline points="
-25.980762113533157 25
-36.373066958946424 19
-36.373066958946424 15
"/>
<polyline points="
-36.373066958946424 19
-38.1051177665153 20
-38.1051177665153 24
-34.64101615137754 26
-34.64101615137754 32
-31.17691453623979 34
-20.784609690826528 28
-20.784609690826528 24
-31.17691453623979 30
-32.90896534380867 29
-27.712812921102035 26
-38.1051177665153 20
"/>
<polyline points="
-38.1051177665153 24
-41.569219381653056 22
-48.49742261192856 26
-48.49742261192856 36
"/>
<polyline points="
-50.22947341949744 35
-50.22947341949744 29
"/>
<polyline points="
-51.96152422706631 30
-51.96152422706631 34
"/>
<polyline points="
-50.22947341949744 31
-48.49742261192856 30
"/>
<polyline points="
-48.49742261192856 26
-46.76537180435968 27
-46.76537180435968 31
-48.49742261192856 32
-46.76537180435968 33
-41.569219381653056 30
-31.17691453623979 36
"/>
<polyline points="
-31.17691453623979 34
-31.17691453623979 30
"/>
<polyline points="
-32.90896534380867 29
-32.90896534380867 33
"/>
<polyline points="
-34.64101615137754 32
-39.837168574084174 29
-34.64101615137754 26
"/>
<polyline points="
-34.64101615137754 30
-32.90896534380867 31
"/>
<polyline points="
-41.569219381653056 30
-41.569219381653056 34
"/>
<polyline points="
-41.569219381653056 36
-41.569219381653056 40
"/>
<polyline points="
-46.76537180435968 37
-46.76537180435968 33
"/>
<polyline points="
-46.76537180435968 31
-38.1051177665153 26
-41.569219381653056 24
-46.76537180435968 27
"/>
<polyline points="
-41.569219381653056 28
-41.569219381653056 24
"/>
<polyline points="
-20.784609690826528 24
-15.588457268119894 27
-15.588457268119894 31
-10.392304845413264 28
-10.392304845413264 24
-5.196152422706632 27
1.7320508075688772 23
1.7320508075688772 27
-5.196152422706632 31
-10.392304845413264 28
"/>
<polyline points="
-5.196152422706632 27
-5.196152422706632 31
"/>
<polyline points="
1.7320508075688772 27
8.660254037844386 23
3.4641016151377544 20
3.4641016151377544 26
"/>
<polyline points="
3.4641016151377544 22
1.7320508075688772 21
1.7320508075688772 17
-3.4641016151377544 20
1.7320508075688772 23
1.7320508075688772 21
"/>
<polyline points="
3.4641016151377544 20
8.660254037844386 17
-12.12435565298214 5
-10.392304845413264 4
-10.392304845413264 0
-19.05255888325765 5
1.7320508075688772 17
"/>
<polyline points="
-6.928203230275509 20
-6.928203230275509 24
"/>
<polyline points="
-8.660254037844386 23
-8.660254037844386 17
"/>
<polyline points="
-8.660254037844386 21
-6.928203230275509 22
"/>
<polyline points="
-10.392304845413264 24
-15.588457268119894 27
"/>
<polyline points="
-20.784609690826528 28
-15.588457268119894 31
"/>
<polyline points="
-20.784609690826528 30
-6.928203230275509 38
-15.588457268119894 43
-20.784609690826528 40
-20.784609690826528 36
"/>
<polyline points="
-20.784609690826528 34
-31.17691453623979 40
"/>
<polyline points="
-20.784609690826528 40
-22.516660498395403 41
-22.516660498395403 51
"/>
<polyline points="
-20.784609690826528 52
-20.784609690826528 48
-5.196152422706632 39
3.4641016151377544 44
-1.7320508075688772 47
-1.7320508075688772 57
"/>
<polyline points="
-3.4641016151377544 56
-3.4641016151377544 50
-8.660254037844386 47
-3.4641016151377544 44
"/>
<polyline points="
-5.196152422706632 43
-5.196152422706632 39
"/>
<polyline points="
-13.856406460551018 38
-13.856406460551018 42
"/>
<polyline points="
-15.588457268119894 43
-15.588457268119894 39
"/>
<polyline points="
-22.516660498395403 41
-17.32050807568877 44
-22.516660498395403 47
-20.784609690826528 48
"/>
<polyline points="
-24.24871130596428 46
-22.516660498395403 45
"/>
<polyline points="
-10.392304845413264 48
-10.392304845413264 52
"/>
<polyline points="
-3.4641016151377544 48
-1.7320508075688772 49
"/>
<polyline points="
-1.7320508075688772 47
3.4641016151377544 50
-1.7320508075688772 53
0.0 54
5.196152422706632 51
"/>
<polyline points="
10.392304845413264 54
10.392304845413264 58
"/>
<polyline points="
6.928203230275509 60
3.4641016151377544 62
3.4641016151377544 70
5.196152422706632 71
64.08587988004845 37
64.08587988004845 29
5.196152422706632 63
5.196152422706632 71
"/>
<polyline points="
0.0 74
1.7320508075688772 73
1.7320508075688772 65
"/>
<polyline points="
0.0 66
-64.08587988004845 29
"/>
<polyline points="
-12.12435565298214 9
-12.12435565298214 5
"/>
<polyline points="
-10.392304845413264 4
0.0 10
13.856406460551018 2
5.196152422706632 -3
"/>
<polyline points="
5.196152422706632 1
6.928203230275509 2
6.928203230275509 6
"/>
<polyline points="
6.928203230275509 2
0.0 6
-10.392304845413264 0
"/>
<polyline points="
-3.4641016151377544 2
-3.4641016151377544 -4
"/>
<polyline points="
-1.7320508075688772 3
-1.7320508075688772 -7
3.4641016151377544 -4
-1.7320508075688772 -1
0.0 0
0.0 4
"/>
<polyline points="
0.0 6
0.0 10
"/>
<polyline points="
-1.7320508075688772 -7
0.0 -8
64.08587988004845 29
"/>
<polyline points="
13.856406460551018 50
15.588457268119894 49
20.784609690826528 52
20.784609690826528 48
32.90896534380867 41
31.17691453623979 40
25.980762113533157 43
15.588457268119894 37
8.660254037844386 41
8.660254037844386 47
15.588457268119894 43
15.588457268119894 39
10.392304845413264 42
10.392304845413264 46
"/>
<polyline points="
8.660254037844386 45
6.928203230275509 46
6.928203230275509 44
-3.4641016151377544 38
1.7320508075688772 35
1.7320508075688772 41
"/>
<polyline points="
3.4641016151377544 42
3.4641016151377544 32
8.660254037844386 35
3.4641016151377544 38
5.196152422706632 39
15.588457268119894 33
15.588457268119894 37
"/>
<polyline points="
15.588457268119894 39
24.24871130596428 44
20.784609690826528 46
15.588457268119894 43
"/>
<polyline points="
10.392304845413264 42
8.660254037844386 41
"/>
<polyline points="
5.196152422706632 43
5.196152422706632 39
"/>
<polyline points="
1.7320508075688772 37
3.4641016151377544 36
"/>
<polyline points="
1.7320508075688772 35
0.0 34
-5.196152422706632 37
-5.196152422706632 33
10.392304845413264 24
25.980762113533157 33
36.373066958946424 27
36.373066958946424 31
38.1051177665153 32
32.90896534380867 35
41.569219381653056 40
55.42562584220407 32
45.033320996790806 26
46.76537180435968 25
57.157676649772945 31
60.6217782649107 29
36.373066958946424 15
27.712812921102035 20
32.90896534380867 23
25.980762113533157 27
25.980762113533157 31
17.32050807568877 26
22.516660498395403 23
15.588457268119894 19
13.856406460551018 20
13.856406460551018 24
15.588457268119894 25
19.05255888325765 23
13.856406460551018 20
"/>
<polyline points="
19.05255888325765 21
19.05255888325765 17
20.784609690826528 16
25.980762113533157 19
34.64101615137754 14
20.784609690826528 6
20.784609690826528 10
27.712812921102035 14
27.712812921102035 18
"/>
<polyline points="
25.980762113533157 19
25.980762113533157 15
20.784609690826528 12
6.928203230275509 20
13.856406460551018 24
"/>
<polyline points="
10.392304845413264 24
10.392304845413264 28
3.4641016151377544 32
"/>
<polyline points="
-5.196152422706632 33
-10.392304845413264 30
-13.856406460551018 32
-5.196152422706632 37
"/>
<polyline points="
-10.392304845413264 34
-10.392304845413264 30
"/>
<polyline points="
10.392304845413264 28
12.12435565298214 29
12.12435565298214 33
15.588457268119894 31
25.980762113533157 37
25.980762113533157 33
"/>
<polyline points="
25.980762113533157 31
39.837168574084174 23
34.64101615137754 20
36.373066958946424 19
36.373066958946424 15
"/>
<polyline points="
36.373066958946424 19
43.30127018922193 23
43.30127018922193 29
38.1051177665153 26
43.30127018922193 23
"/>
<polyline points="
45.033320996790806 26
45.033320996790806 30
48.49742261192856 32
41.569219381653056 36
39.837168574084174 35
45.033320996790806 32
36.373066958946424 27
"/>
<polyline points="
34.64101615137754 26
34.64101615137754 20
"/>
<polyline points="
32.90896534380867 23
32.90896534380867 27
"/>
<polyline points="
32.90896534380867 25
34.64101615137754 24
"/>
<polyline points="
25.980762113533157 27
24.24871130596428 26
24.24871130596428 30
"/>
<polyline points="
22.516660498395403 29
22.516660498395403 23
"/>
<polyline points="
24.24871130596428 26
29.444863728670914 23
19.05255888325765 17
"/>
<polyline points="
20.784609690826528 16
20.784609690826528 12
"/>
<polyline points="
20.784609690826528 10
10.392304845413264 16
10.392304845413264 12
8.660254037844386 11
19.05255888325765 5
15.588457268119894 3
1.7320508075688772 11
10.392304845413264 16
"/>
<polyline points="
8.660254037844386 15
8.660254037844386 11
"/>
<polyline points="
10.392304845413264 12
20.784609690826528 6
"/>
<polyline points="
15.588457268119894 7
15.588457268119894 3
"/>
<polyline points="
27.712812921102035 14
25.980762113533157 15
"/>
<polyline points="
22.516660498395403 27
24.24871130596428 28
"/>
<polyline points="
15.588457268119894 33
25.980762113533157 39
31.17691453623979 36
31.17691453623979 40
"/>
<polyline points="
32.90896534380867 41
32.90896534380867 45
20.784609690826528 52
"/>
<polyline points="
20.784609690826528 48
15.588457268119894 45
15.588457268119894 49
"/>
<polyline points="
15.588457268119894 45
6.928203230275509 50
12.12435565298214 53
"/>
<polyline points="
13.856406460551018 54
12.12435565298214 55
"/>
<polyline points="
0.0 54
0.0 58
"/>
<polyline points="
0.0 60
0.0 64
"/>
<polyline points="
3.4641016151377544 66
1.7320508075688772 67
"/>
<polyline points="
5.196152422706632 63
3.4641016151377544 62
"/>
<polyline points="
8.660254037844386 47
5.196152422706632 49
1.7320508075688772 47
6.928203230275509 44
"/>
<polyline points="
6.928203230275509 46
6.928203230275509 48
"/>
<polyline points="
25.980762113533157 43
25.980762113533157 39
"/>
<polyline points="
25.980762113533157 37
36.373066958946424 31
"/>
<polyline points="
38.1051177665153 32
38.1051177665153 38
"/>
<polyline points="
39.837168574084174 39
39.837168574084174 35
"/>
<polyline points="
38.1051177665153 36
39.837168574084174 37
"/>
<polyline points="
41.569219381653056 36
41.569219381653056 40
"/>
<polyline points="
48.49742261192856 36
48.49742261192856 32
"/>
<polyline points="
45.033320996790806 30
43.30127018922193 29
"/>
<polyline points="
45.033320996790806 28
43.30127018922193 27
"/>
<polyline points="
31.17691453623979 36
39.837168574084174 41
32.90896534380867 45
"/>
<polyline points="
12.12435565298214 33
10.392304845413264 34
6.928203230275509 32
12.12435565298214 29
"/>
</g>
</svg>
