<?xml version="1.0" encoding="utf-8" ?>
<svg xmlns="http://www.w3.org/2000/svg" xmlns:cc="http://creativecommons.org/ns#" xmlns:dc="http://purl.org/dc/elements/1.1/" xmlns:ev="http://www.w3.org/2001/xml-events" xmlns:inkscape="http://www.inkscape.org/namespaces/inkscape" xmlns:rdf="http://www.w3.org/1999/02/22-rdf-syntax-ns#" xmlns:sodipodi="http://sodipodi.sourceforge.net/DTD/sodipodi-0.dtd" xmlns:xlink="http://www.w3.org/1999/xlink" baseProfile="tiny" height="21.0cm" version="1.2" viewBox="0 0 1122.5196850393702 793.7007874015749" width="29.7cm">
  <metadata>
    <rdf:RDF>
      <cc:Work>
        <dc:format>image/svg+xml</dc:format>
        <dc:source>vpype read reptile_signature.svg scaleto 1000cm 1cm rotate 180 layout -v top -h right -l a4 translate -- -3cm 1.5cm show write reptile_signature_a4.svg
</dc:source>
        <dc:date>2021-02-11T00:02:43.898639</dc:date>
      </cc:Work>
    </rdf:RDF>
  </metadata>
  <defs/>
  <g fill="none" id="layer1" inkscape:groupmode="layer" inkscape:label="1" stroke="#00f" style="display:inline">
    <line x1="1009.1339" x2="1009.1339" y1="89.2913" y2="82.6772"/>
    <polyline points="1009.1339,87.4016 1007.7165,88.8189 1006.7717,89.2913 1005.3543,89.2913 1004.4094,88.8189 1003.937,87.4016 1003.937,82.6772"/>
    <polyline points="1003.937,87.4016 1002.5197,88.8189 1001.5748,89.2913 1000.1575,89.2913 999.2126,88.8189 998.7402,87.4016 998.7402,82.6772"/>
    <polyline points="990.2362,87.874 990.7087,88.8189 992.126,89.2913 993.5433,89.2913 994.9606,88.8189 995.4331,87.874 994.9606,86.9291 994.0157,86.4567 991.6535,85.9843 990.7087,85.5118 990.2362,84.5669 990.2362,84.0945 990.7087,83.1496 992.126,82.6772 993.5433,82.6772 994.9606,83.1496 995.4331,84.0945"/>
    <polyline points="986.9291,89.2913 986.9291,84.5669 986.4567,83.1496 985.5118,82.6772 984.0945,82.6772 983.1496,83.1496 981.7323,84.5669"/>
    <line x1="981.7323" x2="981.7323" y1="89.2913" y2="82.6772"/>
    <line x1="977.9528" x2="977.9528" y1="89.2913" y2="82.6772"/>
    <polyline points="977.9528,86.4567 977.4803,87.874 976.5354,88.8189 975.5906,89.2913 974.1732,89.2913"/>
    <polyline points="966.6142,89.2913 966.6142,81.7323 967.0866,80.315 967.5591,79.8425 968.5039,79.3701 969.9213,79.3701 970.8661,79.8425"/>
    <polyline points="966.6142,87.874 967.5591,88.8189 968.5039,89.2913 969.9213,89.2913 970.8661,88.8189 971.811,87.874 972.2835,86.4567 972.2835,85.5118 971.811,84.0945 970.8661,83.1496 969.9213,82.6772 968.5039,82.6772 967.5591,83.1496 966.6142,84.0945"/>
    <polyline points="962.8346,89.2913 962.8346,84.5669 962.3622,83.1496 961.4173,82.6772 960.0,82.6772 959.0551,83.1496 957.6378,84.5669"/>
    <line x1="957.6378" x2="957.6378" y1="89.2913" y2="82.6772"/>
    <line x1="954.8031" x2="951.9685" y1="89.2913" y2="82.6772"/>
    <polyline points="949.1339,89.2913 951.9685,82.6772 952.9134,80.7874 953.8583,79.8425 954.8031,79.3701 955.2756,79.3701"/>
    <line x1="934.4882" x2="934.4882" y1="91.1811" y2="82.6772"/>
    <line x1="938.7402" x2="930.2362" y1="86.9291" y2="86.9291"/>
    <line x1="918.8976" x2="918.8976" y1="89.2913" y2="82.6772"/>
    <polyline points="918.8976,86.4567 918.4252,87.874 917.4803,88.8189 916.5354,89.2913 915.1181,89.2913"/>
    <polygon points="913.2283,92.5984 912.7559,92.126 912.2835,92.5984 912.7559,93.0709"/>
    <line x1="912.7559" x2="912.7559" y1="89.2913" y2="82.6772"/>
    <polyline points="903.7795,87.874 904.7244,88.8189 905.6693,89.2913 907.0866,89.2913 908.0315,88.8189 908.9764,87.874 909.4488,86.4567 909.4488,85.5118 908.9764,84.0945 908.0315,83.1496 907.0866,82.6772 905.6693,82.6772 904.7244,83.1496 903.7795,84.0945"/>
    <line x1="900.4724" x2="900.4724" y1="92.5984" y2="82.6772"/>
    <polyline points="900.4724,87.4016 899.0551,88.8189 898.1102,89.2913 896.6929,89.2913 895.748,88.8189 895.2756,87.4016 895.2756,82.6772"/>
    <line x1="891.4961" x2="891.4961" y1="89.2913" y2="79.3701"/>
    <polyline points="891.4961,87.874 890.5512,88.8189 889.6063,89.2913 888.189,89.2913 887.2441,88.8189 886.2992,87.874 885.8268,86.4567 885.8268,85.5118 886.2992,84.0945 887.2441,83.1496 888.189,82.6772 889.6063,82.6772 890.5512,83.1496 891.4961,84.0945"/>
    <line x1="874.9606" x2="883.4646" y1="94.4882" y2="79.3701"/>
    <polyline points="871.6535,92.5984 871.6535,84.5669 871.1811,83.1496 870.2362,82.6772 869.2913,82.6772"/>
    <line x1="873.0709" x2="869.7638" y1="89.2913" y2="89.2913"/>
    <polyline points="866.9291,86.4567 861.2598,86.4567 861.2598,87.4016 861.7323,88.3465 862.2047,88.8189 863.1496,89.2913 864.5669,89.2913 865.5118,88.8189 866.4567,87.874 866.9291,86.4567 866.9291,85.5118 866.4567,84.0945 865.5118,83.1496 864.5669,82.6772 863.1496,82.6772 862.2047,83.1496 861.2598,84.0945"/>
    <polyline points="853.2283,87.874 853.7008,88.8189 855.1181,89.2913 856.5354,89.2913 857.9528,88.8189 858.4252,87.874 857.9528,86.9291 857.0079,86.4567 854.6457,85.9843 853.7008,85.5118 853.2283,84.5669 853.2283,84.0945 853.7008,83.1496 855.1181,82.6772 856.5354,82.6772 857.9528,83.1496 858.4252,84.0945"/>
    <polyline points="845.1969,87.874 845.6693,88.8189 847.0866,89.2913 848.5039,89.2913 849.9213,88.8189 850.3937,87.874 849.9213,86.9291 848.9764,86.4567 846.6142,85.9843 845.6693,85.5118 845.1969,84.5669 845.1969,84.0945 845.6693,83.1496 847.0866,82.6772 848.5039,82.6772 849.9213,83.1496 850.3937,84.0945"/>
    <polyline points="842.3622,86.4567 836.6929,86.4567 836.6929,87.4016 837.1654,88.3465 837.6378,88.8189 838.5827,89.2913 840.0,89.2913 840.9449,88.8189 841.8898,87.874 842.3622,86.4567 842.3622,85.5118 841.8898,84.0945 840.9449,83.1496 840.0,82.6772 838.5827,82.6772 837.6378,83.1496 836.6929,84.0945"/>
    <line x1="833.3858" x2="833.3858" y1="92.5984" y2="82.6772"/>
    <line x1="824.4094" x2="824.4094" y1="89.2913" y2="82.6772"/>
    <polyline points="824.4094,87.874 825.3543,88.8189 826.2992,89.2913 827.7165,89.2913 828.6614,88.8189 829.6063,87.874 830.0787,86.4567 830.0787,85.5118 829.6063,84.0945 828.6614,83.1496 827.7165,82.6772 826.2992,82.6772 825.3543,83.1496 824.4094,84.0945"/>
    <polyline points="820.1575,92.5984 820.1575,84.5669 819.685,83.1496 818.7402,82.6772 817.7953,82.6772"/>
    <line x1="821.5748" x2="818.2677" y1="89.2913" y2="89.2913"/>
    <polygon points="815.4331,92.5984 814.9606,92.126 814.4882,92.5984 814.9606,93.0709"/>
    <line x1="814.9606" x2="814.9606" y1="89.2913" y2="82.6772"/>
    <polygon points="809.2913,89.2913 810.2362,88.8189 811.1811,87.874 811.6535,86.4567 811.6535,85.5118 811.1811,84.0945 810.2362,83.1496 809.2913,82.6772 807.874,82.6772 806.9291,83.1496 805.9843,84.0945 805.5118,85.5118 805.5118,86.4567 805.9843,87.874 806.9291,88.8189 807.874,89.2913"/>
    <line x1="802.2047" x2="802.2047" y1="89.2913" y2="82.6772"/>
    <polyline points="802.2047,87.4016 800.7874,88.8189 799.8425,89.2913 798.4252,89.2913 797.4803,88.8189 797.0079,87.4016 797.0079,82.6772"/>
    <polyline points="776.6929,88.3465 776.6929,88.8189 777.1654,89.2913 777.6378,89.2913 778.1102,88.8189 778.5827,87.874 779.5276,85.5118 780.4724,84.0945 781.4173,83.1496 782.3622,82.6772 784.252,82.6772 785.1969,83.1496 785.6693,83.622 786.1417,84.5669 786.1417,85.5118 785.6693,86.4567 785.1969,86.9291 781.8898,88.8189 781.4173,89.2913 780.9449,90.2362 780.9449,91.1811 781.4173,92.126 782.3622,92.5984 783.3071,92.126 783.7795,91.1811 783.7795,90.2362 783.3071,88.8189 782.3622,87.4016 780.0,84.0945 779.0551,83.1496 778.1102,82.6772 777.1654,82.6772 776.6929,83.1496 776.6929,83.622"/>
    <polyline points="762.9921,92.5984 763.937,92.5984 764.8819,92.126 765.3543,90.7087 765.3543,82.6772"/>
    <line x1="766.7717" x2="763.4646" y1="89.2913" y2="89.2913"/>
    <polygon points="760.6299,92.5984 760.1575,92.126 759.685,92.5984 760.1575,93.0709"/>
    <line x1="760.1575" x2="760.1575" y1="89.2913" y2="82.6772"/>
    <line x1="756.378" x2="756.378" y1="89.2913" y2="82.6772"/>
    <polyline points="756.378,86.4567 755.9055,87.874 754.9606,88.8189 754.0157,89.2913 752.5984,89.2913"/>
    <polyline points="750.7087,86.4567 745.0394,86.4567 745.0394,87.4016 745.5118,88.3465 745.9843,88.8189 746.9291,89.2913 748.3465,89.2913 749.2913,88.8189 750.2362,87.874 750.7087,86.4567 750.7087,85.5118 750.2362,84.0945 749.2913,83.1496 748.3465,82.6772 746.9291,82.6772 745.9843,83.1496 745.0394,84.0945"/>
    <line x1="742.2047" x2="740.315" y1="89.2913" y2="82.6772"/>
    <line x1="738.4252" x2="740.315" y1="89.2913" y2="82.6772"/>
    <line x1="738.4252" x2="736.5354" y1="89.2913" y2="82.6772"/>
    <line x1="734.6457" x2="736.5354" y1="89.2913" y2="82.6772"/>
    <polygon points="729.4488,89.2913 730.3937,88.8189 731.3386,87.874 731.811,86.4567 731.811,85.5118 731.3386,84.0945 730.3937,83.1496 729.4488,82.6772 728.0315,82.6772 727.0866,83.1496 726.1417,84.0945 725.6693,85.5118 725.6693,86.4567 726.1417,87.874 727.0866,88.8189 728.0315,89.2913"/>
    <line x1="722.3622" x2="722.3622" y1="89.2913" y2="82.6772"/>
    <polyline points="722.3622,86.4567 721.8898,87.874 720.9449,88.8189 720.0,89.2913 718.5827,89.2913"/>
    <line x1="716.2205" x2="716.2205" y1="92.5984" y2="82.6772"/>
    <line x1="711.4961" x2="716.2205" y1="89.2913" y2="84.5669"/>
    <line x1="714.3307" x2="711.0236" y1="86.4567" y2="82.6772"/>
    <line x1="1009.1339" x2="1009.1339" y1="66.6142" y2="60.0"/>
    <polyline points="1009.1339,63.7795 1008.6614,65.1969 1007.7165,66.1417 1006.7717,66.6142 1005.3543,66.6142"/>
    <polyline points="1003.4646,63.7795 997.7953,63.7795 997.7953,64.7244 998.2677,65.6693 998.7402,66.1417 999.685,66.6142 1001.1024,66.6142 1002.0472,66.1417 1002.9921,65.1969 1003.4646,63.7795 1003.4646,62.8346 1002.9921,61.4173 1002.0472,60.4724 1001.1024,60.0 999.685,60.0 998.7402,60.4724 997.7953,61.4173"/>
    <line x1="994.4882" x2="994.4882" y1="66.6142" y2="56.6929"/>
    <polyline points="994.4882,65.1969 993.5433,66.1417 992.5984,66.6142 991.1811,66.6142 990.2362,66.1417 989.2913,65.1969 988.8189,63.7795 988.8189,62.8346 989.2913,61.4173 990.2362,60.4724 991.1811,60.0 992.5984,60.0 993.5433,60.4724 994.4882,61.4173"/>
    <polyline points="985.0394,69.9213 985.0394,61.8898 984.5669,60.4724 983.622,60.0 982.6772,60.0"/>
    <line x1="986.4567" x2="983.1496" y1="66.6142" y2="66.6142"/>
    <polygon points="980.315,69.9213 979.8425,69.4488 979.3701,69.9213 979.8425,70.3937"/>
    <line x1="979.8425" x2="979.8425" y1="66.6142" y2="60.0"/>
    <line x1="976.063" x2="976.063" y1="69.9213" y2="60.0"/>
    <polyline points="972.7559,63.7795 967.0866,63.7795 967.0866,64.7244 967.5591,65.6693 968.0315,66.1417 968.9764,66.6142 970.3937,66.6142 971.3386,66.1417 972.2835,65.1969 972.7559,63.7795 972.7559,62.8346 972.2835,61.4173 971.3386,60.4724 970.3937,60.0 968.9764,60.0 968.0315,60.4724 967.0866,61.4173"/>
    <polyline points="956.6929,63.7795 951.0236,63.7795 951.0236,64.7244 951.4961,65.6693 951.9685,66.1417 952.9134,66.6142 954.3307,66.6142 955.2756,66.1417 956.2205,65.1969 956.6929,63.7795 956.6929,62.8346 956.2205,61.4173 955.2756,60.4724 954.3307,60.0 952.9134,60.0 951.9685,60.4724 951.0236,61.4173"/>
    <line x1="948.6614" x2="945.8268" y1="66.6142" y2="60.0"/>
    <polyline points="942.9921,66.6142 945.8268,60.0 946.7717,58.1102 947.7165,57.1654 948.6614,56.6929 949.1339,56.6929"/>
    <polyline points="940.6299,63.7795 934.9606,63.7795 934.9606,64.7244 935.4331,65.6693 935.9055,66.1417 936.8504,66.6142 938.2677,66.6142 939.2126,66.1417 940.1575,65.1969 940.6299,63.7795 940.6299,62.8346 940.1575,61.4173 939.2126,60.4724 938.2677,60.0 936.8504,60.0 935.9055,60.4724 934.9606,61.4173"/>
    <line x1="924.0945" x2="932.5984" y1="71.811" y2="56.6929"/>
    <polyline points="918.4252,69.9213 919.3701,69.9213 920.315,69.4488 920.7874,68.0315 920.7874,60.0"/>
    <line x1="922.2047" x2="918.8976" y1="66.6142" y2="66.6142"/>
    <line x1="910.3937" x2="910.3937" y1="66.6142" y2="60.0"/>
    <polyline points="910.3937,65.1969 911.3386,66.1417 912.2835,66.6142 913.7008,66.6142 914.6457,66.1417 915.5906,65.1969 916.063,63.7795 916.063,62.8346 915.5906,61.4173 914.6457,60.4724 913.7008,60.0 912.2835,60.0 911.3386,60.4724 910.3937,61.4173"/>
    <line x1="906.6142" x2="906.6142" y1="66.6142" y2="60.0"/>
    <polyline points="906.6142,64.7244 905.1969,66.1417 904.252,66.6142 902.8346,66.6142 901.8898,66.1417 901.4173,64.7244 901.4173,60.0"/>
    <polyline points="897.6378,66.6142 897.6378,61.8898 897.1654,60.4724 896.2205,60.0 894.8031,60.0 893.8583,60.4724 892.4409,61.8898"/>
    <line x1="892.4409" x2="892.4409" y1="66.6142" y2="60.0"/>
    <polyline points="881.1024,67.5591 881.1024,68.0315 880.6299,68.9764 880.1575,69.4488 879.2126,69.9213 877.3228,69.9213 876.378,69.4488 875.9055,68.9764 875.4331,68.0315 875.4331,67.0866 875.9055,66.1417 876.8504,64.7244 881.5748,60.0 874.9606,60.0"/>
    <polygon points="869.2913,69.9213 870.7087,69.4488 871.6535,68.0315 872.126,65.6693 872.126,64.252 871.6535,61.8898 870.7087,60.4724 869.2913,60.0 868.3465,60.0 866.9291,60.4724 865.9843,61.8898 865.5118,64.252 865.5118,65.6693 865.9843,68.0315 866.9291,69.4488 868.3465,69.9213"/>
    <polyline points="862.2047,67.5591 862.2047,68.0315 861.7323,68.9764 861.2598,69.4488 860.315,69.9213 858.4252,69.9213 857.4803,69.4488 857.0079,68.9764 856.5354,68.0315 856.5354,67.0866 857.0079,66.1417 857.9528,64.7244 862.6772,60.0 856.063,60.0"/>
    <polyline points="851.811,68.0315 850.8661,68.5039 849.4488,69.9213 849.4488,60.0"/>
  </g>
</svg>
