<?xml version="1.0"?><svg  viewBox="0 0 200 200" width="180mm" height="180mm" xmlns="http://www.w3.org/2000/svg"  version="1.2" viewport-fill="#fff">
  <polyline points="1.200,93.500 1.200,97.700"  style="fill:none;stroke:#000;stroke-width:0.1953;opacity:1" stroke-linecap="round"/>
  <polyline points="1.200,94.700 2.100,93.800 2.700,93.500 3.600,93.500 4.200,93.800 4.500,94.700 4.500,97.700"  style="fill:none;stroke:#000;stroke-width:0.1953;opacity:1" stroke-linecap="round"/>
  <polyline points="4.500,94.700 5.400,93.800 6.000,93.500 6.900,93.500 7.500,93.800 7.800,94.700 7.800,97.700"  style="fill:none;stroke:#000;stroke-width:0.1953;opacity:1" stroke-linecap="round"/>
  <polyline points="13.200,94.400 12.900,93.800 12.000,93.500 11.100,93.500 10.200,93.800 9.900,94.400 10.200,95.000 10.800,95.300 12.300,95.600 12.900,95.900 13.200,96.500 13.200,96.800 12.900,97.400 12.000,97.700 11.100,97.700 10.200,97.400 9.900,96.800"  style="fill:none;stroke:#000;stroke-width:0.1953;opacity:1" stroke-linecap="round"/>
  <polyline points="15.300,93.500 15.300,96.500 15.600,97.400 16.200,97.700 17.100,97.700 17.700,97.400 18.600,96.500"  style="fill:none;stroke:#000;stroke-width:0.1953;opacity:1" stroke-linecap="round"/>
  <polyline points="18.600,93.500 18.600,97.700"  style="fill:none;stroke:#000;stroke-width:0.1953;opacity:1" stroke-linecap="round"/>
  <polyline points="21.000,93.500 21.000,97.700"  style="fill:none;stroke:#000;stroke-width:0.1953;opacity:1" stroke-linecap="round"/>
  <polyline points="21.000,95.300 21.300,94.400 21.900,93.800 22.500,93.500 23.400,93.500"  style="fill:none;stroke:#000;stroke-width:0.1953;opacity:1" stroke-linecap="round"/>
  <polyline points="28.200,93.500 28.200,98.300 27.900,99.200 27.600,99.500 27.000,99.800 26.100,99.800 25.500,99.500"  style="fill:none;stroke:#000;stroke-width:0.1953;opacity:1" stroke-linecap="round"/>
  <polyline points="28.200,94.400 27.600,93.800 27.000,93.500 26.100,93.500 25.500,93.800 24.900,94.400 24.600,95.300 24.600,95.900 24.900,96.800 25.500,97.400 26.100,97.700 27.000,97.700 27.600,97.400 28.200,96.800"  style="fill:none;stroke:#000;stroke-width:0.1953;opacity:1" stroke-linecap="round"/>
  <polyline points="30.600,93.500 30.600,96.500 30.900,97.400 31.500,97.700 32.400,97.700 33.000,97.400 33.900,96.500"  style="fill:none;stroke:#000;stroke-width:0.1953;opacity:1" stroke-linecap="round"/>
  <polyline points="33.900,93.500 33.900,97.700"  style="fill:none;stroke:#000;stroke-width:0.1953;opacity:1" stroke-linecap="round"/>
  <polyline points="35.700,93.500 37.500,97.700"  style="fill:none;stroke:#000;stroke-width:0.1953;opacity:1" stroke-linecap="round"/>
  <polyline points="39.300,93.500 37.500,97.700 36.900,98.900 36.300,99.500 35.700,99.800 35.400,99.800"  style="fill:none;stroke:#000;stroke-width:0.1953;opacity:1" stroke-linecap="round"/>
  <polyline points="48.600,92.300 48.600,97.700"  style="fill:none;stroke:#000;stroke-width:0.1953;opacity:1" stroke-linecap="round"/>
  <polyline points="45.900,95.000 51.300,95.000"  style="fill:none;stroke:#000;stroke-width:0.1953;opacity:1" stroke-linecap="round"/>
  <polyline points="58.500,93.500 58.500,97.700"  style="fill:none;stroke:#000;stroke-width:0.1953;opacity:1" stroke-linecap="round"/>
  <polyline points="58.500,95.300 58.800,94.400 59.400,93.800 60.000,93.500 60.900,93.500"  style="fill:none;stroke:#000;stroke-width:0.1953;opacity:1" stroke-linecap="round"/>
  <polyline points="62.100,91.400 62.400,91.700 62.700,91.400 62.400,91.100 62.100,91.400"  style="fill:none;stroke:#000;stroke-width:0.1953;opacity:1" stroke-linecap="round"/>
  <polyline points="62.400,93.500 62.400,97.700"  style="fill:none;stroke:#000;stroke-width:0.1953;opacity:1" stroke-linecap="round"/>
  <polyline points="68.100,94.400 67.500,93.800 66.900,93.500 66.000,93.500 65.400,93.800 64.800,94.400 64.500,95.300 64.500,95.900 64.800,96.800 65.400,97.400 66.000,97.700 66.900,97.700 67.500,97.400 68.100,96.800"  style="fill:none;stroke:#000;stroke-width:0.1953;opacity:1" stroke-linecap="round"/>
  <polyline points="70.200,91.400 70.200,97.700"  style="fill:none;stroke:#000;stroke-width:0.1953;opacity:1" stroke-linecap="round"/>
  <polyline points="70.200,94.700 71.100,93.800 71.700,93.500 72.600,93.500 73.200,93.800 73.500,94.700 73.500,97.700"  style="fill:none;stroke:#000;stroke-width:0.1953;opacity:1" stroke-linecap="round"/>
  <polyline points="75.900,93.500 75.900,99.800"  style="fill:none;stroke:#000;stroke-width:0.1953;opacity:1" stroke-linecap="round"/>
  <polyline points="75.900,94.400 76.500,93.800 77.100,93.500 78.000,93.500 78.600,93.800 79.200,94.400 79.500,95.300 79.500,95.900 79.200,96.800 78.600,97.400 78.000,97.700 77.100,97.700 76.500,97.400 75.900,96.800"  style="fill:none;stroke:#000;stroke-width:0.1953;opacity:1" stroke-linecap="round"/>
  <polyline points="86.400,90.200 81.000,99.800"  style="fill:none;stroke:#000;stroke-width:0.1953;opacity:1" stroke-linecap="round"/>
  <polyline points="88.500,91.400 88.500,96.500 88.800,97.400 89.400,97.700 90.000,97.700"  style="fill:none;stroke:#000;stroke-width:0.1953;opacity:1" stroke-linecap="round"/>
  <polyline points="87.600,93.500 89.700,93.500"  style="fill:none;stroke:#000;stroke-width:0.1953;opacity:1" stroke-linecap="round"/>
  <polyline points="91.500,95.300 95.100,95.300 95.100,94.700 94.800,94.100 94.500,93.800 93.900,93.500 93.000,93.500 92.400,93.800 91.800,94.400 91.500,95.300 91.500,95.900 91.800,96.800 92.400,97.400 93.000,97.700 93.900,97.700 94.500,97.400 95.100,96.800"  style="fill:none;stroke:#000;stroke-width:0.1953;opacity:1" stroke-linecap="round"/>
  <polyline points="100.200,94.400 99.900,93.800 99.000,93.500 98.100,93.500 97.200,93.800 96.900,94.400 97.200,95.000 97.800,95.300 99.300,95.600 99.900,95.900 100.200,96.500 100.200,96.800 99.900,97.400 99.000,97.700 98.100,97.700 97.200,97.400 96.900,96.800"  style="fill:none;stroke:#000;stroke-width:0.1953;opacity:1" stroke-linecap="round"/>
  <polyline points="105.300,94.400 105.000,93.800 104.100,93.500 103.200,93.500 102.300,93.800 102.000,94.400 102.300,95.000 102.900,95.300 104.400,95.600 105.000,95.900 105.300,96.500 105.300,96.800 105.000,97.400 104.100,97.700 103.200,97.700 102.300,97.400 102.000,96.800"  style="fill:none;stroke:#000;stroke-width:0.1953;opacity:1" stroke-linecap="round"/>
  <polyline points="107.100,95.300 110.700,95.300 110.700,94.700 110.400,94.100 110.100,93.800 109.500,93.500 108.600,93.500 108.000,93.800 107.400,94.400 107.100,95.300 107.100,95.900 107.400,96.800 108.000,97.400 108.600,97.700 109.500,97.700 110.100,97.400 110.700,96.800"  style="fill:none;stroke:#000;stroke-width:0.1953;opacity:1" stroke-linecap="round"/>
  <polyline points="112.800,91.400 112.800,97.700"  style="fill:none;stroke:#000;stroke-width:0.1953;opacity:1" stroke-linecap="round"/>
  <polyline points="118.500,93.500 118.500,97.700"  style="fill:none;stroke:#000;stroke-width:0.1953;opacity:1" stroke-linecap="round"/>
  <polyline points="118.500,94.400 117.900,93.800 117.300,93.500 116.400,93.500 115.800,93.800 115.200,94.400 114.900,95.300 114.900,95.900 115.200,96.800 115.800,97.400 116.400,97.700 117.300,97.700 117.900,97.400 118.500,96.800"  style="fill:none;stroke:#000;stroke-width:0.1953;opacity:1" stroke-linecap="round"/>
  <polyline points="121.200,91.400 121.200,96.500 121.500,97.400 122.100,97.700 122.700,97.700"  style="fill:none;stroke:#000;stroke-width:0.1953;opacity:1" stroke-linecap="round"/>
  <polyline points="120.300,93.500 122.400,93.500"  style="fill:none;stroke:#000;stroke-width:0.1953;opacity:1" stroke-linecap="round"/>
  <polyline points="124.200,91.400 124.500,91.700 124.800,91.400 124.500,91.100 124.200,91.400"  style="fill:none;stroke:#000;stroke-width:0.1953;opacity:1" stroke-linecap="round"/>
  <polyline points="124.500,93.500 124.500,97.700"  style="fill:none;stroke:#000;stroke-width:0.1953;opacity:1" stroke-linecap="round"/>
  <polyline points="128.100,93.500 127.500,93.800 126.900,94.400 126.600,95.300 126.600,95.900 126.900,96.800 127.500,97.400 128.100,97.700 129.000,97.700 129.600,97.400 130.200,96.800 130.500,95.900 130.500,95.300 130.200,94.400 129.600,93.800 129.000,93.500 128.100,93.500"  style="fill:none;stroke:#000;stroke-width:0.1953;opacity:1" stroke-linecap="round"/>
  <polyline points="132.600,93.500 132.600,97.700"  style="fill:none;stroke:#000;stroke-width:0.1953;opacity:1" stroke-linecap="round"/>
  <polyline points="132.600,94.700 133.500,93.800 134.100,93.500 135.000,93.500 135.600,93.800 135.900,94.700 135.900,97.700"  style="fill:none;stroke:#000;stroke-width:0.1953;opacity:1" stroke-linecap="round"/>
  <polyline points="148.800,94.100 148.800,93.800 148.500,93.500 148.200,93.500 147.900,93.800 147.600,94.400 147.000,95.900 146.400,96.800 145.800,97.400 145.200,97.700 144.000,97.700 143.400,97.400 143.100,97.100 142.800,96.500 142.800,95.900 143.100,95.300 143.400,95.000 145.500,93.800 145.800,93.500 146.100,92.900 146.100,92.300 145.800,91.700 145.200,91.400 144.600,91.700 144.300,92.300 144.300,92.900 144.600,93.800 145.200,94.700 146.700,96.800 147.300,97.400 147.900,97.700 148.500,97.700 148.800,97.400 148.800,97.100"  style="fill:none;stroke:#000;stroke-width:0.1953;opacity:1" stroke-linecap="round"/>
  <polyline points="157.500,91.400 156.900,91.400 156.300,91.700 156.000,92.600 156.000,97.700"  style="fill:none;stroke:#000;stroke-width:0.1953;opacity:1" stroke-linecap="round"/>
  <polyline points="155.100,93.500 157.200,93.500"  style="fill:none;stroke:#000;stroke-width:0.1953;opacity:1" stroke-linecap="round"/>
  <polyline points="159.000,91.400 159.300,91.700 159.600,91.400 159.300,91.100 159.000,91.400"  style="fill:none;stroke:#000;stroke-width:0.1953;opacity:1" stroke-linecap="round"/>
  <polyline points="159.300,93.500 159.300,97.700"  style="fill:none;stroke:#000;stroke-width:0.1953;opacity:1" stroke-linecap="round"/>
  <polyline points="161.700,93.500 161.700,97.700"  style="fill:none;stroke:#000;stroke-width:0.1953;opacity:1" stroke-linecap="round"/>
  <polyline points="161.700,95.300 162.000,94.400 162.600,93.800 163.200,93.500 164.100,93.500"  style="fill:none;stroke:#000;stroke-width:0.1953;opacity:1" stroke-linecap="round"/>
  <polyline points="165.300,95.300 168.900,95.300 168.900,94.700 168.600,94.100 168.300,93.800 167.700,93.500 166.800,93.500 166.200,93.800 165.600,94.400 165.300,95.300 165.300,95.900 165.600,96.800 166.200,97.400 166.800,97.700 167.700,97.700 168.300,97.400 168.900,96.800"  style="fill:none;stroke:#000;stroke-width:0.1953;opacity:1" stroke-linecap="round"/>
  <polyline points="170.700,93.500 171.900,97.700"  style="fill:none;stroke:#000;stroke-width:0.1953;opacity:1" stroke-linecap="round"/>
  <polyline points="173.100,93.500 171.900,97.700"  style="fill:none;stroke:#000;stroke-width:0.1953;opacity:1" stroke-linecap="round"/>
  <polyline points="173.100,93.500 174.300,97.700"  style="fill:none;stroke:#000;stroke-width:0.1953;opacity:1" stroke-linecap="round"/>
  <polyline points="175.500,93.500 174.300,97.700"  style="fill:none;stroke:#000;stroke-width:0.1953;opacity:1" stroke-linecap="round"/>
  <polyline points="178.800,93.500 178.200,93.800 177.600,94.400 177.300,95.300 177.300,95.900 177.600,96.800 178.200,97.400 178.800,97.700 179.700,97.700 180.300,97.400 180.900,96.800 181.200,95.900 181.200,95.300 180.900,94.400 180.300,93.800 179.700,93.500 178.800,93.500"  style="fill:none;stroke:#000;stroke-width:0.1953;opacity:1" stroke-linecap="round"/>
  <polyline points="183.300,93.500 183.300,97.700"  style="fill:none;stroke:#000;stroke-width:0.1953;opacity:1" stroke-linecap="round"/>
  <polyline points="183.300,95.300 183.600,94.400 184.200,93.800 184.800,93.500 185.700,93.500"  style="fill:none;stroke:#000;stroke-width:0.1953;opacity:1" stroke-linecap="round"/>
  <polyline points="187.200,91.400 187.200,97.700"  style="fill:none;stroke:#000;stroke-width:0.1953;opacity:1" stroke-linecap="round"/>
  <polyline points="190.200,93.500 187.200,96.500"  style="fill:none;stroke:#000;stroke-width:0.1953;opacity:1" stroke-linecap="round"/>
  <polyline points="188.400,95.300 190.500,97.700"  style="fill:none;stroke:#000;stroke-width:0.1953;opacity:1" stroke-linecap="round"/>
  <polyline points="1.200,107.900 1.200,112.100"  style="fill:none;stroke:#000;stroke-width:0.1953;opacity:1" stroke-linecap="round"/>
  <polyline points="1.200,109.700 1.500,108.800 2.100,108.200 2.700,107.900 3.600,107.900"  style="fill:none;stroke:#000;stroke-width:0.1953;opacity:1" stroke-linecap="round"/>
  <polyline points="4.800,109.700 8.400,109.700 8.400,109.100 8.100,108.500 7.800,108.200 7.200,107.900 6.300,107.900 5.700,108.200 5.100,108.800 4.800,109.700 4.800,110.300 5.100,111.200 5.700,111.800 6.300,112.100 7.200,112.100 7.800,111.800 8.400,111.200"  style="fill:none;stroke:#000;stroke-width:0.1953;opacity:1" stroke-linecap="round"/>
  <polyline points="10.500,107.900 10.500,114.200"  style="fill:none;stroke:#000;stroke-width:0.1953;opacity:1" stroke-linecap="round"/>
  <polyline points="10.500,108.800 11.100,108.200 11.700,107.900 12.600,107.900 13.200,108.200 13.800,108.800 14.100,109.700 14.100,110.300 13.800,111.200 13.200,111.800 12.600,112.100 11.700,112.100 11.100,111.800 10.500,111.200"  style="fill:none;stroke:#000;stroke-width:0.1953;opacity:1" stroke-linecap="round"/>
  <polyline points="16.500,105.800 16.500,110.900 16.800,111.800 17.400,112.100 18.000,112.100"  style="fill:none;stroke:#000;stroke-width:0.1953;opacity:1" stroke-linecap="round"/>
  <polyline points="15.600,107.900 17.700,107.900"  style="fill:none;stroke:#000;stroke-width:0.1953;opacity:1" stroke-linecap="round"/>
  <polyline points="19.500,105.800 19.800,106.100 20.100,105.800 19.800,105.500 19.500,105.800"  style="fill:none;stroke:#000;stroke-width:0.1953;opacity:1" stroke-linecap="round"/>
  <polyline points="19.800,107.900 19.800,112.100"  style="fill:none;stroke:#000;stroke-width:0.1953;opacity:1" stroke-linecap="round"/>
  <polyline points="22.200,105.800 22.200,112.100"  style="fill:none;stroke:#000;stroke-width:0.1953;opacity:1" stroke-linecap="round"/>
  <polyline points="24.300,109.700 27.900,109.700 27.900,109.100 27.600,108.500 27.300,108.200 26.700,107.900 25.800,107.900 25.200,108.200 24.600,108.800 24.300,109.700 24.300,110.300 24.600,111.200 25.200,111.800 25.800,112.100 26.700,112.100 27.300,111.800 27.900,111.200"  style="fill:none;stroke:#000;stroke-width:0.1953;opacity:1" stroke-linecap="round"/>
  <polyline points="34.500,109.700 38.100,109.700 38.100,109.100 37.800,108.500 37.500,108.200 36.900,107.900 36.000,107.900 35.400,108.200 34.800,108.800 34.500,109.700 34.500,110.300 34.800,111.200 35.400,111.800 36.000,112.100 36.900,112.100 37.500,111.800 38.100,111.200"  style="fill:none;stroke:#000;stroke-width:0.1953;opacity:1" stroke-linecap="round"/>
  <polyline points="39.600,107.900 41.400,112.100"  style="fill:none;stroke:#000;stroke-width:0.1953;opacity:1" stroke-linecap="round"/>
  <polyline points="43.200,107.900 41.400,112.100 40.800,113.300 40.200,113.900 39.600,114.200 39.300,114.200"  style="fill:none;stroke:#000;stroke-width:0.1953;opacity:1" stroke-linecap="round"/>
  <polyline points="44.700,109.700 48.300,109.700 48.300,109.100 48.000,108.500 47.700,108.200 47.100,107.900 46.200,107.900 45.600,108.200 45.000,108.800 44.700,109.700 44.700,110.300 45.000,111.200 45.600,111.800 46.200,112.100 47.100,112.100 47.700,111.800 48.300,111.200"  style="fill:none;stroke:#000;stroke-width:0.1953;opacity:1" stroke-linecap="round"/>
  <polyline points="55.200,104.600 49.800,114.200"  style="fill:none;stroke:#000;stroke-width:0.1953;opacity:1" stroke-linecap="round"/>
  <polyline points="58.800,105.800 58.200,105.800 57.600,106.100 57.300,107.000 57.300,112.100"  style="fill:none;stroke:#000;stroke-width:0.1953;opacity:1" stroke-linecap="round"/>
  <polyline points="56.400,107.900 58.500,107.900"  style="fill:none;stroke:#000;stroke-width:0.1953;opacity:1" stroke-linecap="round"/>
  <polyline points="63.900,107.900 63.900,112.100"  style="fill:none;stroke:#000;stroke-width:0.1953;opacity:1" stroke-linecap="round"/>
  <polyline points="63.900,108.800 63.300,108.200 62.700,107.900 61.800,107.900 61.200,108.200 60.600,108.800 60.300,109.700 60.300,110.300 60.600,111.200 61.200,111.800 61.800,112.100 62.700,112.100 63.300,111.800 63.900,111.200"  style="fill:none;stroke:#000;stroke-width:0.1953;opacity:1" stroke-linecap="round"/>
  <polyline points="66.300,107.900 66.300,112.100"  style="fill:none;stroke:#000;stroke-width:0.1953;opacity:1" stroke-linecap="round"/>
  <polyline points="66.300,109.100 67.200,108.200 67.800,107.900 68.700,107.900 69.300,108.200 69.600,109.100 69.600,112.100"  style="fill:none;stroke:#000;stroke-width:0.1953;opacity:1" stroke-linecap="round"/>
  <polyline points="72.000,107.900 72.000,110.900 72.300,111.800 72.900,112.100 73.800,112.100 74.400,111.800 75.300,110.900"  style="fill:none;stroke:#000;stroke-width:0.1953;opacity:1" stroke-linecap="round"/>
  <polyline points="75.300,107.900 75.300,112.100"  style="fill:none;stroke:#000;stroke-width:0.1953;opacity:1" stroke-linecap="round"/>
  <polyline points="82.500,107.300 82.500,107.000 82.800,106.400 83.100,106.100 83.700,105.800 84.900,105.800 85.500,106.100 85.800,106.400 86.100,107.000 86.100,107.600 85.800,108.200 85.200,109.100 82.200,112.100 86.400,112.100"  style="fill:none;stroke:#000;stroke-width:0.1953;opacity:1" stroke-linecap="round"/>
  <polyline points="90.000,105.800 89.100,106.100 88.500,107.000 88.200,108.500 88.200,109.400 88.500,110.900 89.100,111.800 90.000,112.100 90.600,112.100 91.500,111.800 92.100,110.900 92.400,109.400 92.400,108.500 92.100,107.000 91.500,106.100 90.600,105.800 90.000,105.800"  style="fill:none;stroke:#000;stroke-width:0.1953;opacity:1" stroke-linecap="round"/>
  <polyline points="94.500,107.300 94.500,107.000 94.800,106.400 95.100,106.100 95.700,105.800 96.900,105.800 97.500,106.100 97.800,106.400 98.100,107.000 98.100,107.600 97.800,108.200 97.200,109.100 94.200,112.100 98.400,112.100"  style="fill:none;stroke:#000;stroke-width:0.1953;opacity:1" stroke-linecap="round"/>
  <polyline points="101.100,107.000 101.700,106.700 102.600,105.800 102.600,112.100"  style="fill:none;stroke:#000;stroke-width:0.1953;opacity:1" stroke-linecap="round"/>
</svg>