<?xml version="1.0" encoding="utf-8" ?>
<svg xmlns="http://www.w3.org/2000/svg" xmlns:cc="http://creativecommons.org/ns#" xmlns:dc="http://purl.org/dc/elements/1.1/" xmlns:ev="http://www.w3.org/2001/xml-events" xmlns:inkscape="http://www.inkscape.org/namespaces/inkscape" xmlns:rdf="http://www.w3.org/1999/02/22-rdf-syntax-ns#" xmlns:sodipodi="http://sodipodi.sourceforge.net/DTD/sodipodi-0.dtd" xmlns:xlink="http://www.w3.org/1999/xlink" baseProfile="tiny" height="24.00001296cm" version="1.2" viewBox="0 0 1209.449472 907.0871040000001" width="32.00001728cm">
  <metadata>
    <rdf:RDF>
      <cc:Work>
        <dc:format>image/svg+xml</dc:format>
        <dc:source>vpype read --single-layer -l 1 map.svg crop 13cm 7cm 3cm 3cm rect -l 2 12.72cm 7.2cm 3cm 1.2cm read --single-layer -l 3 salesin_small.svg translate -l 3 13.72cm 8.2cm write salesin_placed.svg
</dc:source>
        <dc:date>2021-05-24T22:51:12.407597</dc:date>
      </cc:Work>
    </rdf:RDF>
  </metadata>
  <defs/>
  <g fill="none" id="layer1" inkscape:groupmode="layer" inkscape:label="1" stroke="#00f" style="display:inline">
    <polyline points="604.7244,273.039 604.6798,272.999 603.4267,272.0217 600.2668,269.7212 599.4301,269.0486 598.7225,268.418 598.0571,267.7454 597.4663,267.0516 596.9063,266.2658 596.2802,265.2119 596.0539,264.935 595.7956,264.685 595.6416,264.5669"/>
    <polyline points="593.2369,264.6362 593.492,264.7245 593.9879,265.092 594.1988,265.1956 594.4767,265.2048 594.7557,265.0701"/>
    <line x1="596.9355" x2="596.9253" y1="264.5669" y2="264.6362"/>
    <polyline points="570.664,264.5669 570.6561,264.5737 570.5685,264.7277 570.499,265.0132 570.4753,265.907 570.3527,266.5069 570.0746,267.176 569.6572,267.7779 569.2266,268.2186 568.677,268.6605 566.7358,269.906 566.1099,270.3467 565.7991,269.7041 565.4472,269.1763 565.0756,268.8023 564.6569,268.5573 564.221,268.4574 563.7353,268.492 563.1953,268.6723 562.645,268.9777"/>
    <polyline points="562.211,270.0603 561.8364,270.2249 561.3681,270.3781 559.4291,270.8045 558.628,271.0687 558.2391,271.2673 557.8785,271.5224 557.5798,271.8132 557.3131,272.1692 557.4489,272.4896 557.6922,272.7195 557.931,272.8357 558.8568,273.1618 559.1055,272.9914 559.5214,272.5204 559.7103,272.3562 559.9757,272.2373 560.2583,272.2299"/>
    <polyline points="561.1262,272.6639 561.8627,272.4929 562.6265,272.1883 563.3162,271.8236 564.9097,270.8755 565.6825,270.4942 565.6825,270.7112 565.8994,270.9282"/>
    <polyline points="567.6351,272.013 567.8154,272.3491 567.8271,272.6542 567.7279,272.9386 567.4109,273.5202 567.3333,273.8417 567.4032,274.1507 567.6189,274.4473 567.0786,274.5131 566.1014,274.7949 565.7768,274.8505 565.3893,274.8081 565.0316,274.6166"/>
    <polyline points="565.8994,273.0978 565.9672,272.7775 566.0933,272.4831 566.2632,272.2623 566.4701,272.1025 566.7069,271.9911 566.9665,271.9156 568.1328,271.7122 568.5778,271.5357 570.3339,273.0951 571.7351,274.2162 573.0981,275.1493 574.391,275.8656 575.0458,276.162 575.7194,276.4198 576.3743,276.6249 577.0488,276.7899 577.744,276.912 578.4186,276.9852 579.1137,277.0156 579.7851,277.0032"/>
    <polyline points="582.6057,276.7862 581.6188,276.3091 579.7432,275.2228 578.9496,274.8068 578.0871,274.4498 577.256,274.2272 576.7148,274.1528 576.1496,274.1356 575.4443,274.1889 574.9096,274.2738 574.4853,274.3939 574.1223,274.5562 573.7812,274.7822 573.4932,275.0505"/>
    <polyline points="568.0691,278.305 567.7956,278.2735 567.4795,278.2896 566.3214,278.5305 565.8069,278.5664 565.5339,278.5258 565.2647,278.4274 565.0377,278.2875 564.8146,278.0881"/>
    <polyline points="564.5976,278.522 564.0305,278.8077 563.398,278.9748 562.7481,279.0459 561.1197,279.1111 560.5888,279.1835 560.1444,279.2891 559.7375,279.4427 559.3651,279.6545 559.0244,279.9348 558.7396,280.2577"/>
    <polyline points="560.6923,278.9559 561.0966,278.3886 561.573,277.8311 563.3108,276.1007 563.8946,275.4681 564.3762,274.8506 565.0185,273.8581 565.4112,273.4204 565.8257,273.1488 566.2376,273.0457 566.4881,273.053 566.7116,273.099 567.2012,273.3148"/>
    <polyline points="563.2958,271.5791 563.0631,270.9213 562.3537,269.4464 562.2229,269.0555 562.1459,268.6848 561.5017,268.5801 560.937,268.5668 560.4891,268.6432 560.1139,268.812 559.8139,269.0801 559.5915,269.4545 559.4489,269.942 559.3905,270.4942"/>
    <polyline points="559.3905,269.6264 558.7714,269.4577 558.1836,269.2385 557.5868,268.9564 556.9473,268.5897 555.8411,267.8187 553.424,265.9087 552.8088,266.1075 552.1905,266.3688 550.3153,267.351 549.6271,267.6737"/>
    <polyline points="549.1932,266.8058 549.8716,266.1508 550.0078,265.951 550.0773,265.7514 549.7191,265.1925 549.3704,264.8266 549.1308,264.6709 548.8943,264.5877 548.6601,264.5675 548.3944,264.6101 547.8983,264.8322 546.8567,265.5368 546.4021,265.7804 545.9306,265.9075 545.7061,265.9107 545.4766,265.8707 545.608,265.5716 545.6036,265.4422 545.5451,265.2953 545.3301,265.0603 544.6828,264.5669"/>
    <line x1="522.7235" x2="522.8054" y1="264.6362" y2="264.5669"/>
    <polyline points="594.5387,267.4567 594.1022,267.925 593.771,268.4399 593.555,269.0023 593.4595,269.574 593.4612,270.1531 593.5436,270.777 594.1048,273.0978"/>
    <polyline points="595.8405,273.0978 595.6274,272.7635 595.4485,272.3834 595.3223,271.9953 595.2342,271.5608 595.1741,270.7557 595.1896,268.7585"/>
    <polyline points="596.9253,268.1076 597.0579,268.5954 597.2448,269.0177 597.4848,269.3762 597.7766,269.6726 598.1188,269.9086 598.5482,270.0992 598.9919,270.2144 599.5289,270.2773"/>
    <polyline points="600.6137,271.796 600.8159,271.8068 601.0063,271.8644 601.5838,272.1767 601.8455,272.2779 602.0862,272.2989 602.3494,272.2299"/>
    <polyline points="603.4342,271.1451 604.1825,271.2904 604.7244,271.481"/>
    <polyline points="604.7244,285.9807 604.4028,286.9723 604.0573,288.3292 603.9341,289.0645 603.8716,289.7306 603.8607,290.3676 603.9029,291.0181 604.6761,291.4167 604.7244,291.4458"/>
    <polyline points="604.7244,367.6356 604.3687,367.5308 603.6776,367.4389 603.0003,367.4773"/>
    <polyline points="602.3494,368.7791 602.8029,367.4198 602.5017,366.9567 602.1937,366.6209 601.9191,366.4096 601.6577,366.2699 601.38,366.1756 601.086,366.1271 600.7756,366.1243 600.4489,366.1675 599.7458,366.3925"/>
    <polyline points="598.878,368.3452 598.9861,368.0567 599.4012,367.5616 599.5224,367.3588 599.5716,367.0802 599.4963,366.7885 598.6253,365.8223 597.9746,365.2592 597.654,365.065 597.3651,364.9468 597.0721,364.8828 596.7685,364.8716 596.3472,364.9339 595.8449,365.0952 595.275,365.3507 594.5181,365.7536 594.1371,365.5197 593.7899,365.3514 593.401,365.2134 593.0501,365.1349 592.6998,365.1011 592.3518,365.1138 592.0077,365.1742 591.6689,365.2841 591.1204,365.581 590.126,366.349 588.0726,367.787 587.3417,368.3832 586.728,368.9961"/>
    <polyline points="588.4637,371.1657 587.7575,370.1871 587.4297,369.8338 587.1013,369.5554 586.7668,369.3514 586.4206,369.2214 586.088,369.1669 585.7035,369.1774 585.1826,369.2926 584.5661,369.5395 583.8736,369.9135 583.0396,370.4487 583.0714,370.7733 583.0133,371.5202 583.0226,371.8466 583.0729,372.0914 583.1546,372.2936 583.281,372.4928 583.4605,372.6877 585.0937,372.3739 586.171,372.2274 586.949,372.2149 587.2637,372.2597 587.5375,372.3409 587.9274,372.5678 588.2494,372.9139 588.5516,373.4202 588.903,374.2065"/>
    <polyline points="588.0298,375.2881 588.2156,374.9347 588.4218,374.6764 588.679,374.4819 588.9556,374.3775 589.2104,374.3456 589.5126,374.3608 590.6475,374.5979 591.0673,374.6372"/>
    <polyline points="591.5012,374.6372 592.9353,374.3508 593.2893,373.9879 593.5384,373.6121 593.7029,373.2269 593.8103,372.7963 593.9376,371.4688 594.0061,371.0564 594.3717,369.9884 594.4995,369.5161 594.5396,369.1879 594.5127,368.906 594.3508,368.5652 593.9994,368.2345 593.4435,367.8981 592.4775,367.4274 591.3621,367.969 591.0707,368.0635 590.8129,368.0975 590.5157,368.061 590.2539,367.9465 589.9911,367.7395 589.7655,367.4773"/>
    <polyline points="590.8503,368.3452 591.0503,369.2902 591.0738,369.9704 591.0229,370.2813 590.937,370.5471 590.8067,370.8062 590.6266,371.0578 590.3772,371.2618 590.0206,371.3833 589.6693,371.4096 588.7341,371.378 588.4634,371.4086 588.2449,371.4733 588.0431,371.5849 587.8618,371.7542 587.705,371.9921 587.5958,372.2506"/>
    <polyline points="590.6333,371.3827 590.8993,371.7629 591.0893,372.1491 591.2228,372.5799 591.2901,373.0158 591.2835,373.8584 591.0448,375.8781 591.0449,376.3571 591.0955,376.7916 591.7496,377.9528"/>
    <polyline points="602.1004,377.9528 601.9924,377.7707 601.6515,377.4152 601.2303,377.1324 600.7248,376.926 600.1798,376.8068"/>
    <polyline points="598.878,377.2407 599.2338,377.0725 599.5296,376.8499 599.7424,376.566 599.8532,376.2532 599.8854,375.7637 599.7791,374.4852 600.0333,372.6342 600.0527,372.1556 600.0097,371.7782 599.9188,371.5322 599.7888,371.3579 599.6085,371.2227 599.3439,371.1123 598.6336,370.9932 597.3592,370.9488"/>
    <polyline points="596.2744,369.647 596.4594,369.2562 596.7539,368.9601 597.0701,368.7777 597.8092,368.4686 598.098,368.2899 598.7744,368.5809 599.4554,368.893 599.8691,369.1208 600.1461,369.3364 600.2976,369.5596 600.3351,369.8104 600.2699,370.1085 600.0949,370.511 599.7458,371.1657"/>
    <polyline points="600.6137,372.0336 601.566,371.9432 602.213,371.9464 602.7008,372.0398 603.0431,372.2359 603.1642,372.3765 603.2541,372.5475 603.3476,372.9873 603.3376,373.5679 603.2173,374.4202"/>
    <polyline points="604.0851,375.2881 603.7732,374.9524 603.4154,374.6861 603.0474,374.5175 602.6325,374.4267 602.2481,374.4137 601.7798,374.4634 599.9628,374.8541"/>
    <polyline points="599.5289,374.6372 599.2724,374.5082 599.0024,374.4426 598.1043,374.4058 597.7741,374.3617 597.5302,374.2857 597.292,374.1577 596.5675,374.7385 596.3152,374.9952 596.1336,375.3132 596.0574,375.722"/>
    <polyline points="597.3592,373.9863 596.8764,372.9909 596.7675,372.6272 596.7215,372.2559 596.7489,371.9136 596.8555,371.5623 597.0546,371.2003 597.3202,370.8685 596.9422,370.5531 596.2194,369.7929 595.8507,369.5222 595.6046,369.418 595.3267,369.3664 595.0577,369.3718 594.7557,369.43"/>
    <polyline points="600.6137,369.2131 600.8863,368.9814 601.1844,368.8158 601.4716,368.746 601.7517,368.762 602.0626,368.8697 602.3742,369.0586 602.7635,369.3785 603.0683,369.6908 603.2751,369.9732 603.4237,370.2593 603.5176,370.5498 603.5605,370.8452 603.5558,371.1461 603.4983,371.4918 603.3903,371.846 603.2173,372.2506"/>
    <line x1="603.8682" x2="604.7244" y1="370.9488" y2="371.039"/>
    <polyline points="604.7244,375.236 604.6557,375.2884 604.4821,375.5416 604.3942,375.8794 604.4081,376.3184 604.519,376.8068 603.5824,376.9882 603.0296,377.1457 602.5447,377.37 602.1324,377.6747"/>
    <polyline points="570.5179,377.9528 569.9688,377.3709 569.7006,376.9923 570.3312,376.2754 570.5762,376.0496 570.9099,375.8565 571.2912,375.7592 571.6562,375.7488 571.9357,375.7891 572.3933,376.373 572.6253,376.5898"/>
    <polyline points="570.6715,375.7242 570.5115,375.2153 570.4324,374.7718 570.4323,374.3923 570.5146,374.0399 570.6701,373.7492 570.9132,373.4868 571.2536,373.2557 571.6664,373.0696 572.333,372.8402 572.8979,372.712 573.4417,372.6694 573.9242,372.7215 574.3478,372.8599 574.7477,373.0962 575.1216,373.441 575.4393,373.8615 575.4334,374.278 575.3752,374.7063 575.0347,375.939 574.1552,376.104 573.6244,376.2427 573.2601,376.4061 573.0123,376.6113 572.8172,376.9184 572.6751,377.3407 572.5544,377.9528"/>
    <polyline points="576.7451,377.9528 576.7392,377.8579 576.6668,377.5448 576.5298,377.224 576.3401,376.9332 576.104,376.6685 575.7952,376.4008 575.4458,376.1559"/>
    <polyline points="575.6628,374.2032 576.7022,374.022 577.3995,373.946 577.8997,373.9628 578.2616,374.0671 578.5503,374.2689 578.8077,374.6087 579.0563,375.1298 579.3512,375.939 578.811,376.9626 578.5784,377.2843 578.3104,377.5672 578.0316,377.7804 577.7103,377.9469 577.6911,377.9528"/>
    <polyline points="582.2848,377.9528 582.3433,377.7907 582.327,377.4807 582.1799,376.7965 582.2019,376.4518 582.3135,376.2402 582.7263,375.8347 582.88,375.7465 583.0678,375.6886 583.2515,375.6804 583.432,375.7131 583.7509,375.8469 584.4527,376.2558 584.7753,376.3729"/>
    <polyline points="585.6432,374.8541 586.1885,374.8466 586.7308,374.9212 587.2269,375.0747 587.6809,375.2999 588.1278,375.6142 588.5364,375.9942 588.9377,376.4638 589.3316,377.0238"/>
    <polyline points="588.35,377.9528 588.683,377.7117 589.3405,377.3246 589.7119,377.1719 590.0667,377.0748 590.4449,377.0232 590.8503,377.0238"/>
    <polyline points="591.9351,377.6747 592.1235,377.4405 592.3558,377.2358 592.6003,377.0972 592.8927,377.0096 593.1968,376.9863 593.5104,377.0156 594.3217,377.2407"/>
    <polyline points="594.6639,377.9528 594.5774,377.6016 594.5252,377.1679 594.5659,376.8347 594.717,376.5324 595.0116,376.2718 595.5149,376.0508 596.0274,375.9639 596.5047,376.0066 596.9164,376.1365 597.3429,376.352 598.6057,377.2397 598.7052,377.9528"/>
    <polyline points="585.3056,377.9528 585.3097,377.5674 585.2511,377.2037 585.0093,376.2004 584.9813,375.6942 585.033,375.4292 585.1478,375.1707 585.3061,374.9551 585.5282,374.7456 584.3414,373.1184"/>
    <polyline points="582.8226,375.722 582.5848,374.5729 582.3269,373.865 582.1505,373.5538 581.9554,373.2943 581.7185,373.0535 581.4343,372.8338 581.1867,372.6845 579.7895,372.6742 579.2013,372.736 578.7003,372.9015"/>
    <polyline points="578.2664,373.9863 578.3925,373.7229 578.4803,373.4248 578.5128,373.1273 578.4952,372.8278 578.4325,372.5235 578.3142,372.1721 577.9301,371.3827 576.3306,371.3774 575.9098,371.4272 575.5416,371.5274 575.1925,371.6972 574.8677,371.9533 574.6005,372.2711 574.361,372.6845"/>
    <polyline points="579.5682,376.1559 579.9744,376.177 581.2017,376.1455 581.6024,376.2203 581.9548,376.3729"/>
    <polyline points="569.5878,377.2407 568.6821,377.6757 568.2956,377.9528"/>
    <line x1="604.7244" x2="601.0476" y1="324.9017" y2="326.4711"/>
    <polyline points="600.6137,326.2541 593.2825,321.9083 593.1816,321.9117 592.5199,321.9824 591.9369,322.1347 591.4341,322.3675 591.0128,322.6799 590.6745,323.0709 590.4206,323.5394 590.2525,324.0845 590.1745,324.6584 589.693,324.785 588.604,324.8057 588.1563,324.902 587.9375,325.0107 587.7224,325.1739 587.3283,325.6297 587.0397,325.8898 586.3524,326.3434 585.8983,326.5677 585.4136,326.7492 584.962,326.8608 584.5583,326.905"/>
    <polyline points="583.2566,324.3015 582.8916,324.6694 582.2134,325.64 581.8687,326.0303 581.6494,326.2035 581.3975,326.3409 581.1505,326.4244 580.8699,326.4711"/>
    <polyline points="580.436,326.6881 580.0458,327.0016 579.7002,327.3431 579.3978,327.713 579.137,328.1115 578.9163,328.5389 578.7341,328.9954 578.5888,329.4813 578.4714,330.0413 578.5852,330.2706 578.7839,330.4796 579.5845,330.9885 579.839,331.1947 580.047,331.4573 580.1719,331.7512 580.2266,332.1209 580.0923,332.7203 579.8832,333.2065 579.2729,334.387 579.0226,335.0475 578.9147,335.6354 578.9245,336.1792 579.0095,336.6153 579.5312,336.8193 580.0096,337.1113 580.3763,337.4469 580.6874,337.8751 580.8848,338.2948 581.0264,338.8021 581.0927,339.3619 581.0869,339.9229"/>
    <polyline points="581.5208,341.0077 581.3579,341.39 581.2805,341.6652 581.2631,341.9141 581.3079,342.1017 581.4182,342.2613 581.6037,342.3889 581.8742,342.4805 582.1717,342.5265"/>
    <polyline points="583.0331,342.7391 582.8161,342.956 582.6765,342.9793 582.6089,342.956 582.485,342.7357 582.4134,342.5169 582.3831,342.2592 582.4041,341.9703 582.546,341.3885 582.946,341.1218 583.3115,340.9585 583.4776,340.9279 583.6475,340.9451 583.7811,341.0156 583.8848,341.1305 584.0156,341.421 584.2615,342.3622 584.3767,342.5793 584.5149,342.7103 584.7753,342.7781 584.7758,342.6241 584.8393,342.4664 585.2092,342.0925"/>
    <polyline points="584.5583,341.6586 585.4452,341.8841 586.4232,342.026 587.4918,342.0898 588.8976,342.0925"/>
    <polyline points="584.9923,342.9604 585.2065,343.1283 585.4636,343.2692 585.7276,343.3585 586.0366,343.4082 586.5918,343.3962 587.9743,343.2077 588.2979,343.2057 588.618,343.2454 589.0882,343.4101 589.6645,343.7852 590.0648,343.9855 590.5252,344.1443 591.005,344.2473 591.8753,344.3125 593.0842,344.2471 593.58,344.3348 593.9864,344.5069 594.3291,344.7384 594.5872,345.0018 594.9799,345.6211 595.3373,346.0271 595.8021,346.3914 596.3438,346.6684 596.9542,346.8564 597.6585,346.9647 598.2793,346.9958 599.784,346.9955 600.9974,347.0959 602.0085,347.2654 603.0287,347.5186 604.3196,347.9611 604.7244,348.1431"/>
    <polyline points="604.7244,349.6763 604.5797,349.6005 604.0851,349.4693"/>
    <polyline points="602.3494,352.0729 598.1555,349.9922 597.5913,350.4298 596.9448,350.7825 596.264,351.0587 594.5589,351.6491 593.6708,352.0729"/>
    <polyline points="595.4066,345.347 596.2162,344.9684 596.8639,344.748 597.406,344.6731 597.9152,344.7366 598.395,344.931 598.9375,345.2888 599.5859,345.8473 600.3967,346.6488"/>
    <polyline points="596.4914,344.4791 596.3474,344.2091 596.1213,343.9795 595.8492,343.809 594.9288,343.3674 594.712,343.1917 594.5387,342.9604"/>
    <polyline points="598.0101,336.8854 597.9974,336.6943 597.9042,336.5324 597.7677,336.4646 597.5762,336.4515"/>
    <polyline points="595.8405,334.4988 595.5691,334.4351 595.2684,334.4745 595.0108,334.5756 594.3188,334.934 593.9468,335.0294 593.6001,334.9716 593.4007,334.8578 593.2369,334.7157"/>
    <polyline points="591.5012,325.1693 591.517,324.8404 591.6125,324.536 591.7837,324.2133 592.2311,323.5165 592.3935,323.1492 592.4498,322.7493 592.3691,322.3488"/>
    <polyline points="593.8878,320.1791 593.2631,319.5862 591.5495,317.8154 590.9903,317.3322 590.4164,316.9247"/>
    <polyline points="587.8128,318.8774 586.4917,320.1027 585.3163,321.1172 584.2194,321.9834 582.9085,322.9286 582.4153,323.3366 581.7228,324.0557 581.1904,324.8286 580.8915,325.4557 580.6831,326.1201 580.5641,326.8242 580.5337,327.5709 580.5809,328.2771 580.6977,329.0213 580.8834,329.8054 581.1875,330.8263 581.306,331.4494 580.4382,331.8909"/>
    <polyline points="580.436,334.4988 580.5809,334.8533 580.7096,335.7698 580.826,336.147 580.9279,336.3176 581.0696,336.4716 581.2588,336.6056 581.5276,336.7281 581.566,336.788 581.5498,336.9121 581.4483,337.1108 581.0869,337.5363"/>
    <polyline points="578.0494,337.3193 578.8343,338.0355 580.2882,339.5933 580.9317,340.2202 581.6687,340.8043 582.3887,341.2247"/>
    <line x1="577.1816" x2="575.4458" y1="336.8854" y2="336.8854"/>
    <polyline points="576.3137,334.7157 577.0959,334.7077 577.701,334.7699 578.2487,334.9218 578.7003,335.1497"/>
    <polyline points="574.7949,334.4988 574.7888,334.9929 574.7043,335.3937 574.5302,335.7437 574.284,336.0091 573.9787,336.2061 573.5901,336.363 572.1393,336.6988 571.0887,335.9205 570.6707,335.6825 570.2339,335.4919 569.8137,335.3688 569.3717,335.3044 568.9486,335.3042 568.503,335.3666"/>
    <polyline points="568.9369,330.3765 569.7571,330.3692 570.4986,330.289 571.1608,330.1371 571.7802,329.901 572.319,329.5929 572.8101,329.1932 573.2228,328.7278 573.5854,328.1678 574.2025,328.0225 574.7826,327.9699 575.3377,328.0062 575.8798,328.1276 575.9072,329.1937 575.8178,329.8166 575.7101,330.0714 575.5688,330.2664 575.3796,330.4351 575.1061,330.599 574.2806,330.8976 572.8423,331.2443 572.0017,330.6602 571.8333,330.4283 571.7575,330.1595"/>
    <polyline points="573.2762,328.2068 573.0059,327.8291 572.6801,327.5166 572.3259,327.3023 571.9447,327.1765 571.4997,327.1286 571.0263,327.1614 570.4834,327.2734 569.8666,327.4648 568.0148,329.3177 568.7221,330.3765 568.8007,330.5473 568.8441,330.7511 568.8366,330.9458 568.7757,331.1706 568.379,331.9327 568.2796,332.1971 568.2487,332.518 568.3272,332.8216 568.7857,333.2021 569.2478,333.4647 569.7504,333.6235 570.2589,333.662 570.7743,333.5889 571.335,333.3962 571.9057,333.0955 572.5266,332.6676 573.3609,333.5068 573.7336,333.8316 574.1505,334.099 574.5877,334.2677 574.7952,334.021 575.0763,333.8027 575.4685,333.5999 576.5034,333.1876 576.7575,333.0099 576.8442,332.9128 576.8654,332.8344 576.9231,332.5518 576.9389,332.2617 576.9004,332.0333 576.7948,331.8271 576.5144,331.6059 575.6911,331.2894 575.5365,331.1669 575.4458,331.0274"/>
    <polyline points="579.5682,325.8202 579.8002,325.0107 580.1372,324.2439 580.5593,323.5552 581.1095,322.8768 581.7366,322.2692 582.4923,321.6721 583.4104,321.063 584.5583,320.3961"/>
    <polyline points="581.0869,320.6131 586.7964,317.4247 588.2883,316.5218 589.6255,315.637 589.8629,316.0728 590.0326,316.5388 590.1232,317.0332 590.1311,317.5148 590.08,317.9467 589.9655,318.4475 589.3316,320.3961"/>
    <polyline points="584.1244,316.2738 583.715,316.5411 583.3014,316.7411 582.8837,316.8738 582.4233,316.942 581.9969,316.9347 581.5664,316.8606 581.1318,316.7199 580.653,316.4908"/>
    <polyline points="581.3039,317.1416 580.7517,317.3289 580.3176,317.3943 579.9231,317.3339 579.5682,317.1416"/>
    <polyline points="578.0494,318.2265 578.9813,317.012 579.9124,315.5587 580.7142,314.1244 582.6005,310.5165 583.6905,308.68"/>
    <polyline points="582.1717,308.4631 583.2978,307.8122 583.5557,308.1227 583.834,308.3688 584.1322,308.5496 584.4498,308.6642 584.7864,308.7116 585.1413,308.691 585.5141,308.6014 585.8601,308.4631"/>
    <polyline points="584.9923,311.7175 584.8027,311.5202 584.5492,311.3874 584.2715,311.3273 583.4447,311.2554 583.2151,311.1784 583.0396,311.0666"/>
    <line x1="582.3887" x2="586.728" y1="313.0193" y2="313.0193"/>
    <polyline points="585.4262,313.8872 584.9193,314.0653 584.3594,314.2114 583.8301,314.3036 583.2538,314.3555 582.7166,314.3593 582.1807,314.3203 581.6091,314.2308 581.0869,314.1041"/>
    <polyline points="581.7378,316.2738 582.0883,316.0851 582.4777,316.0082 582.8671,316.0711 583.2566,316.2738"/>
    <polyline points="578.9173,312.1515 578.1941,311.947 577.4789,311.6395 576.7987,311.2653 575.0664,310.1671 573.8974,309.4994 573.029,309.082 572.1968,308.8019 571.3615,308.6529 570.7902,309.0993 570.1858,309.425 569.5531,309.6228 568.9359,309.6854 568.4615,309.65 568.0197,309.553 567.4906,309.356 566.6474,308.9266 566.2911,308.8373 565.9545,308.8187 565.6971,308.8563 565.5179,308.9257 563.2133,310.2335 562.2562,310.8557 561.685,311.313 561.2179,311.7717 560.8225,312.2562 560.4753,312.8024"/>
    <line x1="560.6923" x2="565.8994" y1="312.8024" y2="312.5854"/>
    <polyline points="565.2485,311.0666 564.5205,311.26 563.9136,311.3184 563.3877,311.2584 562.8619,311.0666"/>
    <polyline points="567.2012,314.5381 567.8493,314.1931 568.4743,313.9941 569.1187,313.9212 569.8201,313.9827 570.4261,314.1391 571.0559,314.383 573.0401,315.3904 573.8633,315.763 574.0743,315.9115 574.2286,316.0862 574.3338,316.2837 574.4047,316.5382 574.4287,317.0612 574.3314,318.219 574.361,318.6604"/>
    <polyline points="576.5307,318.2265 576.2731,319.1135 575.8334,320.0392 575.3359,320.8388 574.0441,322.6935 573.4932,323.6506"/>
    <polyline points="572.4083,322.9997 572.1246,322.9751 571.2176,323.0157 570.9391,322.9474 570.6726,322.7827"/>
    <polyline points="571.5405,324.7354 570.6579,324.7721 568.6257,324.6869 567.7469,324.7498 567.239,324.861 566.7425,325.0464 566.2964,325.2965 565.8994,325.6032"/>
    <polyline points="568.0691,324.5184 568.3787,324.1669 568.7761,323.7896 570.5041,322.3763 570.8675,322.0022 571.138,321.6545 571.6815,321.6927 573.1301,321.703 573.5527,321.7771 573.9271,321.9149"/>
    <polyline points="570.0217,318.8774 569.9993,318.3862 569.89,317.9391 569.7037,317.5819 569.4245,317.2756 569.1165,317.0605 568.7332,316.8758 567.4257,316.4482 566.9842,316.2738"/>
    <line x1="565.2485" x2="562.428" y1="317.7925" y2="318.2265"/>
    <polyline points="561.7771,318.6604 561.5067,318.7829 561.1853,318.8537 560.1879,318.883 559.8605,318.9205 559.6215,318.9854 559.3905,319.0943"/>
    <polyline points="561.9941,319.9622 561.3788,320.1078 560.8391,320.292 560.3716,320.5112 559.9402,320.7822 559.5481,321.1108 559.2241,321.47 558.9392,321.8874 558.6962,322.3672 558.7737,322.6417 558.9016,322.919 559.0645,323.1559 559.2867,323.3851 559.7795,323.7269 560.9092,324.3015"/>
    <polyline points="561.1262,324.7354 561.2872,324.2997 561.5005,323.9391 561.7444,323.7013 562.0469,323.5635 562.3779,323.5395 562.7325,323.6091 563.1823,323.788 563.7298,324.0845"/>
    <polyline points="562.211,323.4347 562.184,322.7992 562.2806,322.1527 562.5065,321.4966 562.8619,320.8311 562.6366,320.5364 562.4583,320.2304 562.2062,319.5526 562.0818,318.896 561.9228,317.3668 561.7641,316.7088 564.359,314.1139 565.5434,314.0896 565.8546,314.1237 566.1156,314.1938 566.3605,314.3132 566.5836,314.4934 566.7793,314.7457 566.9212,315.028 566.9693,315.1932 566.9718,315.4554 566.9275,315.688 566.823,315.9331 566.527,316.3055 565.812,316.8862 565.6092,317.0899 565.4769,317.3426 565.4693,317.6142 565.511,318.056 565.5941,318.4593 565.713,318.8288 565.88,319.2055 566.2939,319.8774 567.2012,321.047"/>
    <polyline points="566.9842,321.9149 567.2512,322.0456 567.5273,322.1112 568.503,322.1318"/>
    <polyline points="565.6825,319.5283 565.3025,319.5641 564.9532,319.6799 564.6247,319.8499 563.8479,320.3333 563.5157,320.4933 563.2014,320.5859 562.8619,320.6131"/>
    <polyline points="562.428,325.1693 563.1904,324.821 563.9448,324.3988 564.6917,323.9025 565.4643,323.3078 566.8285,322.081 569.8775,319.0455 570.6279,319.27 571.362,319.3796 572.1217,319.3852 572.946,319.2785 573.7193,319.0853 574.5983,318.7769 575.5463,318.3679 576.9852,317.6775 577.6336,318.0794 578.2432,318.5145 578.8167,318.9812 579.386,319.5059 579.9489,320.0916 580.4782,320.7089 581.0022,321.3885 581.5208,322.1318"/>
    <polyline points="572.1914,316.0568 571.8067,316.5987 571.3379,317.1267 570.8131,317.5989 570.2387,318.0095"/>
    <polyline points="574.361,309.5479 574.8191,309.0948 575.2748,308.8088 575.7301,308.6791 576.2222,308.7017 576.6117,308.8288 577.041,309.0689 578.1633,309.9995 578.8302,310.4321 579.1643,310.5838 579.4848,310.6823 579.7912,310.7277 580.1148,310.716 580.4201,310.6392 580.7066,310.4976 580.9738,310.2913 581.1972,310.0506 581.4262,309.7221 581.6145,309.3719 581.9548,308.4631 581.3831,308.0569 581.0009,307.8384 580.6724,307.7341 580.3574,307.7257 579.9997,307.8049 579.529,307.9933 577.8324,308.897"/>
    <polyline points="575.8787,308.4631 575.8265,307.8626 575.8307,307.3989 575.8968,306.9724 576.017,306.6547 576.1986,306.3981 576.4455,306.1969 576.7617,306.0458 577.194,305.9308 578.168,305.8395 579.3899,305.9276 579.8736,305.9179 580.3751,305.8167 581.0814,305.5303 581.4875,305.4128 581.8881,305.3679 582.2446,305.4125 582.4786,305.5016 582.6932,305.639 582.8899,305.825 583.0919,306.093 583.426,306.7705 583.7111,307.6755 585.0425,306.5642 585.4875,306.2836 585.903,306.1103 586.2898,306.0454 586.6478,306.0811 587.0503,306.2421 587.4255,306.5147 587.6742,306.5208 588.1185,306.4139 588.771,306.0426 589.0187,305.9384 589.3073,305.8844 589.6017,305.8953 590.6241,307.0263 591.6868,308.3493 592.6796,309.6927 595.1141,313.1144 596.5042,314.9158 597.2573,315.7983 598.0221,316.6185 598.7699,317.3456 599.5289,318.0095"/>
    <polyline points="602.3494,321.6979 602.7562,321.4481 603.2116,321.2334 603.6774,321.071 604.192,320.9443 604.7244,320.8716"/>
    <polyline points="604.7244,356.0002 603.7277,356.3934 603.2341,356.6214 602.7348,356.9329 602.3494,357.28"/>
    <polyline points="597.3592,358.3648 594.2013,356.1822 593.5851,356.2567 592.9584,356.4561 592.3503,356.7401 590.8236,357.5672 589.9686,357.9023 589.3397,358.022 588.7584,358.0202 588.1419,357.8954 587.5329,357.65 585.8601,358.5818"/>
    <polyline points="571.9744,344.6961 571.7436,344.721 571.6209,344.8026 571.5532,344.9389 571.5405,345.13"/>
    <polyline points="569.3708,344.2622 569.3581,344.0711 569.2904,343.9347 569.1677,343.8532 568.9369,343.8282"/>
    <polyline points="567.2012,342.9604 567.0101,342.9477 566.8482,342.8544 566.7804,342.718 566.7673,342.5265"/>
    <polyline points="565.0316,341.6586 564.8405,341.6459 564.6786,341.5527 564.6107,341.4162 564.5976,341.2247"/>
    <polyline points="561.5601,337.7532 561.5728,337.5621 561.6406,337.4258 561.7633,337.3442 561.9941,337.3193"/>
    <polyline points="560.2583,335.5836 560.271,335.3925 560.3388,335.2562 560.4615,335.1746 560.6923,335.1497"/>
    <polyline points="558.5226,332.98 558.5095,333.1715 558.4417,333.308 558.2798,333.4013 558.0887,333.414"/>
    <polyline points="556.353,331.6782 556.3281,331.909 556.2465,332.0318 556.1102,332.0995 555.9191,332.1122"/>
    <polyline points="548.9762,329.9425 548.9635,329.7514 548.8958,329.6151 548.7338,329.5217 548.5423,329.5086"/>
    <polyline points="544.203,328.2068 544.0119,328.1941 543.85,328.1009 543.7822,327.9644 543.7691,327.7729"/>
    <polyline points="542.4673,326.4711 542.48,326.28 542.5477,326.1437 542.7097,326.0503 542.9012,326.0372"/>
    <polyline points="536.8262,325.1693 535.4572,327.1251 534.0745,329.3185 532.5122,332.025 529.6288,337.2938 528.9125,338.4708 528.2226,339.467 527.6815,340.1494 527.1292,340.7605 526.5644,341.304 525.956,341.8082 525.3322,342.2493 524.6955,342.6318 524.0886,342.9417 523.1037,343.3827 522.6423,343.7504 522.3663,344.0875 522.0919,344.5412 521.2324,346.534 520.9995,346.9744 520.7185,347.4146 520.3366,347.9136 519.8932,348.3904 519.3828,348.8436 518.8338,349.2517 517.7759,349.8929 515.9112,350.8439 513.9356,351.7457 509.6355,353.5764 507.7259,354.4303 506.1395,355.2052 502.8809,356.9193 501.2896,357.6603 500.2216,358.0709 499.2275,358.368 498.4626,358.5293 497.0883,358.7289 496.1293,358.9564 495.217,359.2556 494.3068,359.6319 493.467,360.0422 492.5815,360.5297 491.3386,361.2906"/>
    <polyline points="491.3386,358.7211 491.9403,358.1331 492.2882,357.8677 492.5995,357.6921 492.9421,357.5653 493.2787,357.5019 495.1271,357.4819 495.9492,357.4009 496.7971,357.2632 497.6308,357.0766 498.4518,356.8462 499.2999,356.5633 500.2131,356.2129 501.5272,355.6393 503.0111,354.9196 503.9682,354.4296 504.8023,353.9097 505.2091,353.6997 507.0546,353.1572 508.4156,352.6881 509.9332,352.0737 511.4893,351.3513 513.0496,350.5436 514.7254,349.5994 516.6591,348.4383 519.0389,346.9493 519.401,346.6705 519.6898,346.3967 519.9643,346.0678 520.1758,345.7389 520.4548,345.1016 520.7242,344.0131 520.9394,343.4131 521.275,342.7937 521.7156,342.2408 522.1347,341.8621 522.5865,341.5542 523.0177,341.329 524.219,340.8008 524.7834,340.4761 525.3242,340.1123 525.9082,339.6639 526.5318,339.1273 527.3417,338.359 527.8594,337.8174 528.001,337.5728 528.106,337.2723 528.2964,335.9809 528.3695,335.7084 528.4821,335.4496 528.737,335.1128 529.2354,334.7356 529.5303,334.4533 529.7846,334.1347 530.0303,333.7536 531.7782,330.6405 534.0493,326.0741 534.5706,325.1417 535.0905,324.3015"/>
    <polyline points="533.357,312.1526 532.6091,309.4268 532.2945,308.6279 531.9172,307.9219 531.3244,307.1057 530.6023,306.3155 529.7886,305.5964 528.8869,304.9486 527.7233,304.2753 526.4005,303.6636 525.1244,303.1771 522.9423,302.4579 521.6203,301.9783 520.0182,301.3263 518.3341,300.5664 515.2575,299.0245 508.4185,295.357 506.6386,294.463 504.9239,293.6537 502.6712,292.6741 500.4285,291.799 498.2263,291.0404 496.0586,290.3952 495.3338,290.2393 494.52,290.1199 491.608,289.8806 491.3386,289.8469"/>
    <polyline points="491.3386,288.1502 491.8557,288.2193 496.1505,288.6774 497.3098,288.8683 498.3444,289.1033 499.2943,289.3897 500.1988,289.7405 500.8632,290.0551 502.3592,290.8491 503.8107,291.4848 505.1592,291.9951 508.3766,293.1312 509.8838,293.7251 510.5214,294.038 511.1635,294.4131 513.8611,296.284 514.4907,296.6736 515.1124,297.0052 517.3072,298.0383 519.7854,299.1393 527.7375,302.483 530.5276,303.689 531.5564,304.1697 532.3821,304.6586 533.1075,305.2069 533.7343,305.8146 534.2643,306.4818 534.7167,307.2432 535.054,308.0326 535.3088,308.922 535.4607,309.834 535.5255,310.8519"/>
    <polyline points="538.7789,304.3408 537.9947,304.0587 537.8156,303.9481 537.6669,303.7991 537.5588,303.5997 537.5014,303.3382 537.4998,303.0642 537.5465,302.732 537.6549,302.5615 537.8136,302.3964 538.2082,302.1704 538.6366,302.0478 539.6645,301.8606 540.0807,301.7372"/>
    <polyline points="540.2976,300.6524 540.2019,300.9196 540.157,301.2022 540.1782,301.4486 540.2719,301.698 540.5577,302.0559 541.3471,302.7273 541.568,303.0249 542.7893,302.1438 543.0155,301.9039 543.165,301.6257 543.2123,301.2965 543.1321,300.9036 542.899,300.4343 542.688,300.3 542.3558,300.1932 542.0091,300.1758 541.6129,300.2278 540.6151,300.4438 540.3063,300.4675 540.045,300.4437 539.7596,300.3484 539.524,300.1908 539.3041,299.9504 539.1022,299.6142 538.8394,299.8124 538.5236,299.9906 537.458,300.4154 537.147,300.5698 536.8543,300.7937 536.6533,301.067 536.6125,301.3247 536.6168,301.6184 536.6541,301.8296 536.737,302.0462 536.859,302.2265 537.0176,302.3747 537.21,302.4948 537.4738,302.605"/>
    <polyline points="541.8164,304.9916 540.5025,305.4142 540.1727,305.4635 539.8554,305.4418 539.5554,305.3254 539.307,305.1229 539.0792,304.8101 538.8754,304.37 539.3034,304.3161 539.7555,304.2082 541.2721,303.6667 541.8123,303.5142 542.3661,303.4402 542.9012,303.4729"/>
    <polyline points="548.9762,311.7175 549.68,311.0769 550.3876,310.2806 550.9611,309.533 552.4214,307.4972 553.759,305.8446 554.5725,304.6712 556.5708,301.524 557.1942,300.6631 557.7935,299.9376 558.4214,299.2849 559.0815,298.7078 561.3241,297.1094 562.171,296.4494 562.8001,295.8712 563.6325,294.9629 563.9526,294.6859 564.3172,294.4264 564.9779,294.0637 565.8674,293.6966 567.5099,293.1094 569.0885,292.6414 571.7279,292.0245 576.7353,291.077 578.7859,290.6437 580.7267,290.1398 582.5503,289.5292 583.6979,289.0715 584.8532,288.5535 586.0169,287.9745 587.1903,287.3343 588.4102,286.6126 589.6436,285.8295 592.3691,283.9461"/>
    <polyline points="593.2369,285.6818 596.4314,285.5893 597.1643,285.6047 597.8107,285.6592 598.5306,285.7817 599.2015,285.9714 599.8234,286.2286 600.3967,286.5497"/>
    <polyline points="601.2646,286.1158 600.9557,286.5513 600.5708,286.9739 599.0502,288.2983 598.5293,288.8183 598.088,289.4092 597.7932,290.0211 595.8405,290.0211"/>
    <polyline points="597.7932,289.1533 596.7085,288.7999 596.2249,288.591 595.7877,288.2879 595.4721,287.9226 595.3968,287.8016 595.5338,287.4611 595.603,287.1046 595.6235,285.8988"/>
    <polyline points="595.6235,285.4649 595.2948,284.8873 595.1982,284.61 595.1484,284.3359 595.149,284.1079 595.1946,283.8904 595.2901,283.687 595.4405,283.5015 597.2017,282.1875 597.9355,281.7635 598.347,281.6181 598.7835,281.5458 599.206,281.5567 599.6569,281.6528 599.9164,282.0677 600.0859,282.4879 600.1427,282.9047 600.0845,283.2773 599.9711,283.5497 599.7893,283.8348 598.7811,284.9365 598.5803,285.2085 598.4441,285.4649"/>
    <polyline points="600.3967,282.8613 601.3319,282.8669 601.9389,282.9701 602.2168,283.0796 602.4416,283.2169 602.6463,283.3995 602.8036,283.5968 602.9635,283.88 603.0784,284.1728 602.9595,284.5147 602.651,284.9605 601.7388,285.9076 601.5421,286.1972 601.385,286.5323 601.7054,286.5557 602.5009,286.5299 602.8851,286.5913 603.0873,286.6908 603.2338,286.8227 603.3562,287.0081 603.4342,287.2006"/>
    <polyline points="601.6985,286.7667 601.9726,287.1785 602.1553,287.5612 602.2535,287.917 602.2722,288.2839 602.2051,288.6241 602.0619,288.9411 601.8279,289.2669 601.4959,289.6003 600.9206,290.0441 600.0025,290.6383 599.579,290.8531 599.2019,290.9537 598.8701,290.9304 598.5504,290.7666 598.2742,290.474 598.0101,290.0211"/>
    <polyline points="601.9155,289.8042 602.182,289.9689 602.4605,290.0371 603.3674,289.9965 603.6512,290.0211"/>
    <polyline points="603.8682,291.9738 603.7784,292.0867 603.6356,292.169 603.2173,292.1908"/>
    <polyline points="604.7244,302.8315 604.5069,302.9734 603.8345,303.5011 604.0277,303.7343 604.1718,304.0285 604.4023,305.0742 604.519,305.4256"/>
    <line x1="603.6512" x2="601.2646" y1="303.6899" y2="303.6899"/>
    <polyline points="600.1798,305.6425 600.202,305.4102 600.2748,305.1989 600.8328,304.339 600.9385,304.1099 601.0058,303.8532 601.0118,303.4545 600.8063,303.202 600.5799,303.0058 600.2995,302.843 599.9616,302.7281 599.5656,302.6708 599.1561,302.6713 598.5765,302.7374 597.4763,302.9349 597.158,303.0514 596.8829,303.2344 596.6771,303.4473 596.5103,303.7024 596.3848,303.9947 596.3027,304.3193 596.2653,304.7171 596.2834,305.0941 596.3644,305.5384 596.451,305.6456 596.6958,305.8868 596.9598,306.0676 597.2773,306.2057 597.6138,306.2823 597.9666,306.3054 598.3744,306.2778 599.3119,306.0721"/>
    <polyline points="601.0476,307.3783 598.0101,309.0879 598.0297,309.8817 597.9284,310.6057 597.7077,311.249 597.3592,311.826"/>
    <polyline points="595.8405,311.5006 595.8922,310.9765 596.0644,310.6013 596.1882,310.4638 596.3646,310.3385 596.7888,310.2025 597.3163,310.1965 599.1068,310.4397 599.6958,310.6032 600.1798,310.8497"/>
    <polyline points="599.3119,309.7649 600.3837,309.2919 599.9628,308.4631"/>
    <polyline points="601.2657,307.3783 601.4705,307.8307 601.7472,308.257 602.1005,308.651 602.5316,309.0113 603.1423,309.4028 604.7244,310.2217"/>
    <polyline points="492.1712,264.5669 492.3265,264.7893 492.5155,265.3118 492.5655,265.938"/>
    <polyline points="495.0278,264.5669 494.8502,264.7477 494.2506,265.2554 493.6175,265.6959 492.9163,266.0901 492.1811,266.4161 491.4134,266.6771 491.3386,266.6958"/>
    <polyline points="512.7432,267.6737 512.0467,267.1857 511.3726,266.7775 510.7177,266.4488 510.0792,266.1991 509.454,266.0281 508.8749,265.9386 508.2669,265.919 507.6633,265.9769 507.2028,266.0731 506.7418,266.2143 506.2789,266.4001 505.7768,266.65 504.8656,267.2239 503.5467,268.2325 503.092,268.5047 502.6175,268.7392 501.3869,269.1962 499.0744,269.8433"/>
    <polyline points="511.2244,269.6264 511.5463,269.2744 511.8905,268.9628 512.7044,268.398 513.5413,267.963 515.8196,266.9467 516.4185,266.6103 516.949,266.2396 517.8892,266.6686 518.8003,267.1563 519.7132,267.7236 520.5539,268.3246"/>
    <polyline points="517.9503,270.2773 518.2776,269.9337 518.7152,269.6035 520.259,268.7843 520.7299,268.4834 521.1344,268.1118 521.4272,267.6737 523.0226,267.6734 523.5397,267.7262 523.9557,267.8161 524.3499,267.9601 524.7204,268.1699 525.0351,268.4277 525.3271,268.7585"/>
    <polyline points="527.7137,269.4094 527.6416,269.6832 527.5159,269.9347 527.3537,270.114 527.1271,270.2488 526.7534,270.3404 525.9433,270.3831 525.6391,270.4306 524.1603,270.8879 523.8061,271.0404 523.5226,271.2138 523.2141,271.5189 523.0193,271.8941 522.9307,272.3328 522.9405,272.8808"/>
    <polyline points="523.8084,273.3148 524.0964,273.5689 524.4383,273.6741 524.7529,273.6593 525.5516,273.4951 525.7865,273.4919 525.978,273.5317"/>
    <polyline points="526.4119,272.4469 525.565,272.4563 524.698,272.5397 523.852,272.692 522.986,272.9186 522.1005,273.2213 521.1956,273.5999 520.2707,274.0523 519.2521,274.6166"/>
    <polyline points="529.0155,278.739 529.726,278.1634 530.5019,277.6739 531.3443,277.2745 532.2534,276.9664 533.2288,276.7478 534.2691,276.6138 535.4544,276.554 536.8262,276.5692"/>
    <polyline points="535.7414,274.8335 533.6595,271.6003 532.2514,269.6291 531.5321,268.7391 530.8249,267.9475 530.1031,267.2234 529.3659,266.5672 529.0939,266.6303 528.8788,266.7248 528.6858,266.874 528.5521,267.0558 528.42,267.4508 528.2938,268.4827 528.2075,268.7302 528.0868,268.916 527.8741,269.0924 527.6161,269.2011 527.4682,269.1675 527.3165,269.0585 526.979,268.6659 526.796,268.5231 527.1855,267.9358 527.4556,267.6513 527.7744,267.4904 528.1476,267.4567"/>
    <polyline points="534.4396,266.3719 535.1571,266.0623 535.657,265.9027 536.0938,265.8417 536.4656,265.8859 536.803,266.0506 537.0742,266.3251 537.3061,266.7368 537.4771,267.2398"/>
    <polyline points="537.2601,266.155 537.8044,265.7701 538.3127,265.5294 538.7859,265.4288 539.2252,265.464 539.6315,265.6311 540.0334,265.9537 540.3997,266.4194 540.7316,267.0228"/>
    <polyline points="540.0807,267.6737 539.3947,267.6823 537.8051,267.5916 537.0433,267.6362 536.6117,267.7284 536.2275,267.8692 535.8526,268.075 535.5244,268.3246"/>
    <polyline points="534.6566,264.8532 534.8781,264.5833 534.9011,264.5669"/>
    <polyline points="537.7269,264.5669 537.8734,264.7543 538.128,265.2871"/>
    <polyline points="540.2998,265.938 540.4727,265.5644 540.7497,265.2733 541.088,265.0694 541.9059,264.7068 542.1221,264.5669"/>
    <polyline points="542.2903,264.5669 542.9383,265.0777 543.255,265.3832 543.4693,265.7046 543.5879,266.0953 543.3161,266.435 542.9501,266.6574 542.4959,266.7766 541.2949,266.9304 540.966,267.0487 540.673,267.2493 540.4526,267.5187 540.2976,267.8408 540.4925,267.9553 540.5725,268.1104 540.5757,268.2959 540.5006,268.761 540.5146,268.9755"/>
    <polyline points="542.0334,269.1925 543.1707,268.0659 543.5288,267.8166 543.8818,267.6739 544.3028,267.6441 544.7295,267.7608 545.1575,268.0095 545.6295,268.4146 545.9933,268.0704 546.4163,267.7688 546.8324,267.5531 547.3101,267.3837 547.8148,267.2777 548.3453,267.2311 548.9006,267.2402 549.5251,267.3081 548.7296,268.1694 547.8311,268.9547 546.7681,269.7214 545.5048,270.4942"/>
    <polyline points="545.5048,268.5416 545.3096,268.9196 545.0571,269.2416 544.7331,269.5522 544.0273,270.1297 540.4831,269.1534 538.3298,270.555 536.5427,270.1091 536.0182,269.8422 535.787,269.6452 535.606,269.4282 535.3494,268.9412 535.1426,268.1803 535.0223,267.8902 534.7778,267.519 534.4496,267.1746 533.9423,266.7963 533.3931,266.511 532.7927,266.307 532.1626,266.1994 532.2896,265.7659 532.4502,265.4151 532.6675,265.1096 532.9198,264.8878 533.203,264.7385 533.549,264.6442 533.9613,264.6098 534.4407,264.6319"/>
    <line x1="547.6575" x2="547.6744" y1="264.5669" y2="264.6362"/>
    <line x1="549.4112" x2="549.4726" y1="264.6362" y2="264.5669"/>
    <polyline points="565.4655,265.2871 564.8513,264.5869 564.826,264.5669"/>
    <polyline points="563.0177,264.5669 562.8028,264.7396 562.2284,265.2708 562.1958,265.3739 562.1838,265.5531 562.2299,265.7028 562.3452,265.8606 562.7826,266.2859 562.848,266.4245 562.8619,266.5889"/>
    <polyline points="561.9941,265.721 560.0587,266.7961 559.8233,266.6324 559.295,266.4152 559.074,266.2902 558.24,265.5381 557.4679,264.9877 556.7986,264.6161 556.6837,264.5669"/>
    <polyline points="492.3485,311.9345 492.7589,312.1451 492.959,312.185 493.1956,312.1871 493.5835,312.1081 494.6193,311.7442 494.892,311.7029 495.1691,311.7175"/>
    <polyline points="498.2066,314.755 498.0313,314.2433 497.9636,313.7697 498.0166,313.3801 498.1795,313.0649 498.4699,312.7945 498.8643,312.5884 499.3927,312.4232 500.1104,312.2871 500.3474,312.6506 500.6945,313.0211 502.0057,314.0397 502.4634,314.4635 502.8289,314.9368 503.0883,315.471 502.7928,315.8018 502.473,316.0793 502.0973,316.3313 501.7007,316.5371 500.9021,316.8359 499.0213,317.3739 498.0635,317.7879 497.7576,317.8141 497.4554,317.7433 497.1559,317.5835 496.8887,317.3343 496.7513,317.133 496.6455,316.8965 496.7011,316.7061 496.8505,316.3169 497.0326,315.9802 497.2465,315.6942 497.4909,315.4569 497.9293,315.1805 498.4349,315.0106 499.0464,314.9386 499.7253,314.972"/>
    <polyline points="501.0271,314.1041 500.6691,314.4214 500.4234,314.6939 500.2339,314.9816 500.1232,315.2531 500.0761,315.5418 500.1015,315.8504 500.2085,316.1811 500.3762,316.4908"/>
    <polyline points="499.9423,317.5756 501.0024,317.7898 501.2817,317.8128 501.4724,317.7839 501.591,317.6968 501.654,317.5454 501.678,316.9247"/>
    <line x1="501.2441" x2="497.3387" y1="318.6604" y2="318.6604"/>
    <line x1="504.7155" x2="507.753" y1="317.3586" y2="317.3586"/>
    <polyline points="507.3191,318.6604 507.739,318.7093 508.1862,318.6728 509.5256,318.3072 509.9226,318.2265"/>
    <line x1="512.0923" x2="512.7432" y1="316.4908" y2="314.755"/>
    <polyline points="509.7079,312.8024 509.5358,312.3752 509.5235,311.9306 509.6377,311.5042 510.0853,310.4411 510.1518,310.1286 510.1534,309.847 510.0818,309.6397 509.8512,309.2582 509.6077,308.9573 509.3035,308.6636 508.5801,308.1544 506.9072,307.2822 506.2712,306.879 505.951,306.6063 505.7002,306.3231 505.5134,306.0335 505.3686,305.7055 504.5888,305.4104 502.8224,304.9372 502.3935,304.7656 502.0563,304.58 501.7707,304.3697 501.5328,304.1414 500.9156,303.3464 500.4684,303.02 500.0311,302.8482 499.5161,302.7563 498.8888,302.7476 498.2066,302.822"/>
    <polyline points="497.7726,304.3408 497.7577,304.0126 497.9627,303.2891 497.9843,302.9505 497.9289,302.7681 497.8369,302.6264 497.4928,302.3577 497.2525,302.4117 497.0145,302.5129 496.8266,302.6507 496.6841,302.8216 496.5819,303.0221 496.5071,303.2888 496.4709,303.9068"/>
    <polyline points="496.4709,302.3881 495.6322,302.1214 494.7923,301.6922 493.9775,301.1404 492.4908,299.9769 491.8351,299.5034 491.3386,299.2038"/>
    <polyline points="491.3386,333.8988 492.3497,334.1585 492.8846,334.2399 493.4323,334.2807"/>
    <polyline points="497.7726,334.7157 498.577,335.1349 499.168,335.3664 499.6087,335.4302 499.9473,335.3486 500.154,335.2081 500.3468,334.9959 500.5538,334.6726 500.763,334.2535 501.0553,333.5593 500.9426,333.1718 500.761,332.9167 500.4541,332.6816 499.5138,332.2337 499.42,332.2702 499.105,332.4734 498.8025,332.7943 497.9225,334.1632 497.5913,334.58 497.211,334.8733 496.8284,334.9834 496.4586,334.9486 496.0788,334.8006 495.6481,334.5266 495.2176,334.165 495.1604,334.1115 495.3119,333.5951 495.5203,333.1847 495.8312,332.7585 497.2118,331.3561 498.6405,332.5494"/>
    <polyline points="496.0369,329.9425 496.0242,329.7514 495.931,329.5896 495.7945,329.5217 495.603,329.5086"/>
    <polyline points="493.4334,329.0747 493.4089,329.3055 493.3274,329.4282 493.1909,329.4959 492.9994,329.5086"/>
    <polyline points="491.6977,328.2068 491.5062,328.1941 491.3697,328.1264 491.3386,328.0724"/>
    <polyline points="494.3012,307.3783 494.8521,307.0669 495.5094,306.8458 496.1495,306.7236 497.7726,306.5104"/>
    <polyline points="499.9423,299.1336 499.9296,298.9425 499.8619,298.8062 499.7391,298.7246 499.5084,298.6997"/>
    <polyline points="507.0989,303.9068 506.7093,303.9534 506.3317,303.9264 506.0459,303.8357 505.7756,303.6634 505.5547,303.4215 505.3778,303.1151 505.2397,302.7494 505.1256,302.2796 505.7182,301.582 505.9707,301.3493 506.3252,301.1622 506.7391,301.0922 507.0782,301.1134 507.2986,301.2287 507.4955,301.4173 507.9481,301.9585 508.1869,302.1711"/>
    <polyline points="509.2718,304.9916 509.4198,304.614 509.9049,303.9962 510.0531,303.7537 510.1366,303.4795 510.1543,303.105 510.124,302.8899 510.0159,302.6792 509.4483,302.1548 509.2718,301.9357 508.8039,302.0265 508.3642,302.1863 508.0317,302.3859 507.7394,302.6647 507.5397,302.9717 507.3919,303.3679 507.3186,303.8251 507.3191,304.3429 507.5354,304.5755 507.7674,304.7645 508.0492,304.9339 508.3459,305.0617 508.9724,305.2252 510.3566,305.4277"/>
    <polyline points="509.0548,305.4256 508.9016,305.7862 508.6663,305.9817 508.3339,306.0664 507.753,306.0765"/>
    <polyline points="507.3191,308.0291 507.3463,308.5356 507.2846,309.1094 507.1349,309.709 506.8851,310.4158"/>
    <line x1="508.1869" x2="509.0548" y1="311.7175" y2="309.114"/>
    <polyline points="509.0548,314.755 509.1719,314.6153 509.247,314.4186 509.2868,313.5896 509.3867,313.285 509.5098,313.1449 509.6985,313.0331 509.9668,312.9558 510.2481,312.9228 511.0357,313.2389 511.7282,313.5733 512.3286,313.9323 512.812,314.2983 513.2186,314.6969 513.5507,315.1334 513.8108,315.6129 514.0012,316.1408 514.1184,316.6842 514.1783,317.2791 514.1829,317.9297 514.129,318.69 514.0086,319.5573 513.9311,319.694 513.6334,320.0511 513.5713,320.2333 513.605,320.3425 514.0479,320.9615 514.3016,321.5027 514.4523,322.1189 514.4765,322.7335 514.3973,323.3475 514.2255,324.0002 513.9752,324.693 513.4895,325.8549 514.1464,326.8451 514.6909,327.736 515.1424,328.5633 515.5027,329.3265 515.7907,330.0617 516.0167,330.806 516.1666,331.5226 516.2463,332.2495 516.2559,332.7921 516.2209,333.3413 516.1458,333.8573 516.0276,334.3795 515.6706,335.4024 515.1298,336.4515"/>
    <polyline points="511.2244,338.1872 511.2117,337.9961 511.144,337.8597 511.0213,337.7782 510.7905,337.7532"/>
    <polyline points="508.1869,341.4416 507.5809,341.4991 507.0222,341.4616 506.4661,341.3299 505.9139,341.101 505.4643,340.8441 505.0025,340.5219 503.0651,338.9559 502.5573,338.6294 502.0913,338.3965 502.0463,338.5162 501.9409,338.6312 501.3628,338.9429 501.2736,339.0774 501.2441,339.272"/>
    <polyline points="502.5459,340.1399 501.8382,339.9053 501.0923,339.5629 500.3753,339.1613 498.4727,337.9974 497.3593,337.4517 496.4692,337.7839 495.748,338.1109 495.1562,338.453 494.6869,338.806 494.2769,339.2179 493.9558,339.6645 493.7016,340.1797 493.5321,340.7267 493.1267,340.9612 492.6311,341.1859 491.3386,341.6286"/>
    <polyline points="491.3386,342.9872 491.5113,342.9923 492.2437,342.9368 492.5655,342.9604"/>
    <polyline points="604.7244,308.1138 604.3718,308.0037 603.8531,307.7721 603.1648,307.3864 602.725,307.2356 602.4557,307.1999 602.1508,307.2096 601.4815,307.3783"/>
    <polyline points="596.2744,303.6899 596.0079,303.5251 595.7294,303.4569 594.8225,303.4975 594.5387,303.4729"/>
    <polyline points="588.2467,301.5202 587.7193,301.1279 587.0725,300.7486 586.0296,300.1734 585.2631,299.8057 584.7298,299.6028 584.278,299.485 583.8612,299.4382 583.47,299.4639 583.1479,299.545 582.8056,299.6958 582.463,299.9133 582.1126,300.1989 581.3273,301.0155 580.2191,302.3881 579.7979,302.5276 578.9094,302.6791 578.5179,302.782 578.1199,302.9848 577.8324,303.2559"/>
    <polyline points="580.0021,301.5202 578.7743,300.3036 577.3765,299.0806 575.8247,297.8661 574.0356,296.5908 572.9869,297.7031 570.6645,299.9163 569.7189,300.8814 568.7927,301.9766 568.0691,303.039"/>
    <polyline points="569.1539,301.9541 569.4336,302.1152 569.7134,302.2247 570.0332,302.2948 570.3529,302.3155 570.9924,302.2467 572.1914,301.9541 572.711,301.864 573.2305,301.855 573.7101,301.9541"/>
    <polyline points="574.1441,300.8693 572.8146,300.885 572.014,300.8529 571.6537,300.9157 571.4552,301.0553 571.3449,301.2605 571.3017,301.5592 571.3235,301.9541"/>
    <polyline points="571.5405,299.7845 572.1918,300.0013 572.5125,300.0493 572.8296,300.0524 573.1426,300.0071 573.4131,299.9248 573.9434,299.6315 573.8028,299.3512 573.6093,299.2043 573.3805,299.1482 572.6936,299.1103 572.5225,299.032 572.4083,298.9166"/>
    <polyline points="569.3708,300.6524 569.1269,300.3686 568.7906,300.0688 567.6033,299.2527 567.1838,298.9166 567.0229,299.1455 566.7814,299.3444 565.7388,299.8285 565.3776,300.0748 565.2224,300.2558 565.1234,300.4406 565.0316,300.8693"/>
    <polyline points="566.7673,300.8693 566.4389,300.9897 566.0924,301.0559 564.5522,301.1053 564.1984,301.1495 563.8966,301.2268 563.5763,301.3709 563.313,301.5625 563.0736,301.8254 562.8619,302.1711"/>
    <polyline points="566.7673,299.7845 566.9386,299.9574 567.1098,300.0068 567.2469,299.9574 567.4182,299.7845"/>
    <polyline points="550.7119,293.4925 550.9257,293.7311 551.1582,293.9077 551.4066,294.0307 551.707,294.1168 552.2637,294.1642 553.626,294.1095 554.2131,294.1919 554.4698,294.2884 554.6782,294.4094 554.8744,294.5716 555.0566,294.7802 554.7318,295.5336 554.4282,296.0705 554.0964,296.4796 553.7451,296.7497 553.3156,296.9161 552.8455,296.9609 552.2983,296.8987 551.6185,296.7172 550.4574,296.2618 548.8211,295.4767 548.733,295.087 548.7222,294.7584 548.7919,294.4478 548.9352,294.1953 549.1377,293.9894 549.3847,293.8187 550.495,293.2756"/>
    <polyline points="552.4476,280.0408 553.3632,278.5122 553.1702,278.1923 552.9136,277.866 552.6167,277.5757 552.3193,277.3495 552.0343,277.1789 551.5738,277.2732 551.1427,277.4131 550.7758,277.5814 550.4326,277.7905 550.1125,278.0417 549.8441,278.305"/>
    <polyline points="548.9762,276.1353 548.482,275.3357 548.2669,274.9016 548.131,274.4351 548.1083,273.9657 548.4506,273.4538 548.8276,273.0915 549.2692,272.8452 549.7764,272.7224 550.116,272.7075 550.5029,272.738 551.4552,272.9475 552.9157,273.3985 556.2563,274.5704 557.2043,274.8465 558.0887,275.0505"/>
    <polyline points="559.3905,273.3148 559.5939,273.4423 559.7915,273.5202 560.1728,273.5488 560.6155,273.4094 561.1653,273.075 560.9643,272.7308 560.3757,272.0999 560.1849,271.8409 560.052,271.5042 560.0414,271.1451"/>
    <polyline points="561.5601,268.3246 561.8009,267.8351 562.0671,267.4327 562.3849,267.0867 562.733,266.8229 563.1418,266.6172 563.6195,266.4746 564.1247,266.4034 564.7008,266.393 564.871,266.4012 564.866,266.7457 564.9239,267.0588 565.042,267.2889 565.2397,267.4672 565.4245,267.553 565.6716,267.6135 566.8723,267.6928 567.3907,267.8111 567.6359,267.9401 567.8186,268.1003 567.9703,268.315 568.0691,268.5416"/>
    <polyline points="567.6351,267.6737 567.8008,267.2179 567.8874,266.8341 567.9114,266.4771 567.8692,266.1486 567.7575,265.8503 567.5727,265.5839 567.3115,265.3513 567.0123,265.1741 566.6968,265.043 566.2325,265.1116 565.8237,265.238 565.496,265.3955 565.2,265.5893 564.9007,265.8412 564.5976,266.155"/>
    <line x1="567.2012" x2="567.7517" y1="265.2871" y2="264.5669"/>
    <polyline points="571.6488,264.5669 571.8538,264.9048 571.9744,265.2871"/>
    <polyline points="571.5405,265.5041 571.2106,265.6911 570.8249,265.7562 570.4257,265.7194 569.4923,265.5212 569.018,265.5128 568.6404,265.6384 568.4599,265.7633 568.286,265.938"/>
    <polyline points="565.8994,277.4371 565.3833,277.5091 564.1614,277.8276 563.6059,277.9127 563.2855,277.9128 563.0026,277.8733 562.7169,277.7895 562.428,277.6541"/>
    <polyline points="551.5798,274.8335 550.649,274.804 547.8177,274.7988 546.9316,274.7346 546.129,274.6145 545.3298,274.4166 544.5744,274.1398 544.06,273.8923 542.4642,273.0186 541.4761,272.6102 540.9579,272.4721 540.4225,272.395 539.912,272.3889 539.4298,272.4469"/>
    <polyline points="539.2128,272.6639 538.7517,272.4785 538.5965,272.4553 537.9017,273.1319 537.1034,273.7756 536.2979,274.3403 534.3086,275.6454 533.3548,276.3523"/>
    <polyline points="534.6566,277.8711 533.8524,278.0575 533.0293,278.1201 532.2063,278.0575 531.4021,277.8711"/>
    <polyline points="529.8834,289.8042 528.9404,289.7852 528.0453,289.6723 527.1665,289.4682 526.075,289.1052 525.5061,289.0221 525.1113,289.0458 524.7414,289.1276 523.5914,289.5872"/>
    <polyline points="525.1101,290.889 524.5075,290.6198 523.0973,289.6991 522.1662,289.2321 521.6501,289.049 521.1414,288.9226 520.6401,288.8512 520.1087,288.8342 519.5488,288.8829 518.9989,288.9986 518.4589,289.179 517.894,289.4401 517.3748,289.7471 516.8319,290.138 516.3006,290.5919 515.7807,291.1059"/>
    <polyline points="546.812,280.2577 546.8874,279.7407 547.0951,279.2071 547.4188,278.6908 547.9858,277.972 548.7415,278.1697 549.4533,278.4917 550.1052,278.8938 551.8504,280.1272 552.4243,280.4446 553.0096,280.6841 551.8933,281.4056 551.2614,281.7529 550.7483,281.9261 550.2793,281.9339 549.9639,281.8548 549.6154,281.7122 547.9079,280.7868 547.2829,280.5239 546.9704,280.4471 546.6413,280.4122 545.6414,280.476 545.3797,280.4334 545.1299,280.3496 544.8278,280.1803 544.5492,279.9403 544.2962,279.6282 544.0945,279.289 544.6915,278.6778 545.0516,278.3634 545.4234,278.1302 545.7483,278.0225 546.092,278.0146 546.4595,278.1263 546.8556,278.3774 547.2405,278.739"/>
    <polyline points="543.7691,313.8883 544.2655,313.1586 544.9158,312.4667 545.6408,311.8515 547.547,310.3983 548.0621,309.9369 548.4778,309.495 548.8461,309.01 550.3356,306.696 552.0046,304.2616 554.0832,301.3654 556.6916,297.8214 557.6797,296.6499 558.6696,295.6314 559.6859,294.7366 560.7262,293.9678 561.578,293.4416 562.4292,293.0029 563.3143,292.6336 564.2342,292.338 564.9476,292.1674 567.78,291.6183 570.2274,291.0641 577.2412,289.3152 580.7952,288.4965 581.6179,288.2671 582.389,288.0094 583.2586,287.6652 584.1071,287.2695 584.9319,286.8217 585.6962,286.3443 586.4338,285.8184 587.1425,285.2437 587.82,284.6198 588.4637,283.9461"/>
    <polyline points="588.0298,289.1533 587.8383,289.166 587.6763,289.2592 587.6085,289.3957 587.5958,289.5872"/>
    <polyline points="596.2744,295.2283 596.2989,294.9975 596.3804,294.8747 596.5168,294.807 596.7083,294.7943"/>
    <polyline points="604.0851,282.2104 604.1799,281.4557 604.2319,280.1386 604.283,279.7033 604.4296,279.0736 604.7244,278.1022"/>
    <line x1="604.7244" x2="604.519" y1="275.1682" y2="274.8335"/>
    <polyline points="596.0574,276.3523 593.9042,274.9827 591.9421,273.6659 591.4864,273.4381 590.9764,273.2827 590.5382,273.2225 590.0597,273.2283 589.5877,273.3055 589.1292,273.4509 588.6911,273.6614 588.2805,273.9337 587.9043,274.2645 587.5958,274.6166"/>
    <polyline points="589.7655,274.3996 588.8896,274.4458 587.9673,274.6345 587.1095,274.9056 585.1471,275.6312 584.1244,275.9183"/>
    <polyline points="510.3566,326.0372 509.7968,326.1571 508.267,326.6306 507.7808,326.7009 507.3191,326.6881"/>
    <polyline points="518.6012,340.7907 518.4097,340.8038 518.2732,340.8717 518.1918,340.9943 518.1673,341.2247"/>
    <polyline points="531.6191,341.2247 531.8701,341.34 532.4227,341.4973 532.6337,341.6032 532.825,341.8078 532.9209,342.0839 532.7026,342.3065 532.4199,342.4557 532.0709,342.5248 531.6191,342.5265"/>
    <line x1="531.6191" x2="537.6941" y1="343.3943" y2="343.3943"/>
    <polyline points="536.8262,342.3095 537.1354,342.4638 537.4929,342.5401 538.6329,342.5016 538.9959,342.5265"/>
    <polyline points="536.6092,341.4416 536.389,341.1948 535.7479,340.6098 535.6069,340.4129 535.5092,340.1832 535.9279,339.0856 536.0768,338.791 536.2333,338.5653 536.3873,338.4187 536.5628,338.3197 536.7673,338.2649 537.0411,338.2521 537.7208,338.3532 538.9438,338.6645 539.1605,339.4472 539.2463,340.0195 539.205,340.4958 539.0413,340.8453 538.7927,341.0863 538.4247,341.2746 537.9777,341.3934 537.1698,341.5049 536.9347,341.5872 536.69,341.7226 536.4145,341.9483 536.1733,342.2181 535.5255,343.1763"/>
    <polyline points="533.7887,340.7907 533.3105,340.1836 532.9707,339.6518 532.768,339.1794 532.7015,338.7825 532.7496,338.4104 532.93,338.021 533.2424,337.6305 533.6763,337.2314 534.1208,336.9222 534.523,336.7407 534.9567,336.6579 535.3613,336.6874 535.7758,336.8197 536.2426,337.08 536.735,337.4631 537.2601,337.9702"/>
    <polyline points="549.8441,353.1577 550.2253,352.5104 550.6403,352.0127 551.0958,351.6632 551.5985,351.4605 552.1549,351.4032 552.7719,351.49 553.4559,351.7195 554.2137,352.0902 554.1464,352.4589 554.0182,352.8269 553.8417,353.1516 553.5978,353.4698 553.0318,353.9825 551.8427,354.7952 551.3933,355.143 551.0008,355.5414 550.7119,355.9782"/>
    <polyline points="551.3628,357.497 551.3049,356.8831 551.1622,356.38 550.9482,356.0397 550.6445,355.822 550.353,355.7418 549.9949,355.7312 548.5059,355.9836 548.17,356.0048 547.8914,355.9782"/>
    <polyline points="552.0137,354.2447 551.521,353.8771 551.0328,353.6149 550.548,353.4525 550.0657,353.3842 549.5479,353.4097 549.0308,353.5311 548.5131,353.7413 547.9564,354.0575 547.3587,354.4888 547.5155,354.7946 547.6055,355.0887 547.6378,355.4124 547.6071,355.7246 547.4076,356.3229 546.7415,357.6521 547.3413,358.1516 547.9491,358.4897 548.5304,358.6641 548.8365,358.6923 549.0982,358.6762 549.4223,358.5956 550.1597,358.2621 550.8579,358.0158 553.1637,357.418 553.9824,357.166 554.8086,356.8167 555.4851,356.4122"/>
    <polyline points="554.4003,355.1104 554.7841,354.8272 555.6817,354.3497 556.0518,354.0998 556.3915,353.7382 556.5982,353.3324 556.5241,352.9986 556.4114,352.7426 556.2379,352.5288 556.0263,352.3915 555.8208,352.3226 555.5596,352.2854 554.4003,352.2898"/>
    <polyline points="514.045,358.3648 513.8673,358.4197 513.6745,358.5368 513.0156,359.1868 512.6965,359.3881 512.5136,359.4302 512.3095,359.4194 512.08,359.345 511.8753,359.2327"/>
    <polyline points="505.1494,365.5247 504.1115,365.5166 503.0965,365.3934 502.169,365.1601 501.3037,364.8062 500.56,364.3488 499.9753,363.8239 499.7217,363.5172 499.5065,363.19 499.3313,362.8435 499.208,362.5128 499.0728,361.8458 499.0744,361.1333 500.5629,360.5438 500.8949,360.4576 501.2239,360.4194 501.5132,360.4376 501.799,360.5152 502.0457,360.64 502.2888,360.8249 502.528,361.0768 502.7628,361.4023"/>
    <polyline points="500.1593,363.1381 500.7394,362.6005 501.3104,362.1967 501.9056,361.8974 502.5261,361.7061 503.1736,361.6264 503.8089,361.6565 504.5128,361.8035 505.2037,362.0532 505.364,362.5103 505.4198,362.9099 505.3839,363.2589 505.2518,363.5959 505.0396,363.8888 504.7344,364.1713 504.3421,364.4468 503.6307,364.8738"/>
    <polyline points="493.6503,370.0809 493.6319,369.7527 493.6735,368.7228 493.611,368.4042 493.4844,368.1347 492.474,368.0191 491.9253,368.0552 491.4978,368.209 491.3386,368.2933"/>
    <polyline points="491.3386,369.6459 491.5876,370.0243 491.6688,370.2579 491.6977,370.5148"/>
    <polyline points="491.3386,370.8694 491.8671,370.5746 492.5048,370.3556 493.1093,370.3028 493.4181,370.3418 493.7203,370.4271 494.0169,370.5583 494.3089,370.7356 494.8826,371.2273 495.449,371.9012 495.2268,372.3144 494.9519,372.7027 494.6462,373.0258 494.311,373.288 493.9476,373.4933 493.5204,373.6576 493.0629,373.7647 492.5766,373.8203 491.9309,373.8255 491.3386,373.7758"/>
  </g>
  <g fill="none" id="layer2" inkscape:groupmode="layer" inkscape:label="2" stroke="#080" style="display:inline">
    <polygon points="480.7559,272.126 480.7559,317.4803 594.1417,317.4803 594.1417,272.126"/>
  </g>
  <g fill="none" id="layer3" inkscape:groupmode="layer" inkscape:label="3" stroke="#f00" style="display:inline">
    <polyline points="522.9122,314.7547 522.5488,314.3913 521.8219,314.0279 520.7317,313.6645"/>
    <line x1="523.2756" x2="522.5488" y1="314.3913" y2="314.0279"/>
    <polyline points="523.639,314.0279 522.1853,313.6645 520.7317,313.6645 519.6414,314.0279 519.278,314.3913 518.9146,315.1182 519.278,315.845 519.6414,316.2084 520.7317,316.5719 523.639,316.5719 524.3658,316.9352 524.7293,317.2987 524.7293,318.0255 524.3658,319.1157"/>
    <polyline points="519.278,315.4815 519.6414,315.845 520.7317,316.2084 524.0024,316.2084 524.7293,316.5719 525.0926,316.9352 525.0926,317.6621 524.7293,318.3889"/>
    <polyline points="519.278,314.3913 519.278,315.1182 519.6414,315.4815 520.7317,315.845 524.3658,315.845 525.0926,316.2084 525.4561,316.9352 525.4561,317.6621 524.3658,319.1157 522.9122,321.2962"/>
    <polyline points="518.5512,316.9352 518.9146,317.2987 519.6414,317.6621 522.9122,317.6621 523.2756,318.0255 523.2756,318.3889 522.9122,319.1157"/>
    <polyline points="518.9146,317.6621 519.6414,318.0255 522.5488,318.0255 522.9122,318.3889"/>
    <polyline points="518.5512,316.9352 518.5512,317.2987 518.9146,318.0255 519.6414,318.3889 522.1853,318.3889 522.9122,318.7523 522.9122,319.1157"/>
    <polyline points="518.5512,321.2962 519.6414,320.5694 521.0951,320.206 522.1853,320.206 523.2756,320.5694"/>
    <polyline points="519.278,320.9328 520.3683,320.5694 521.8219,320.5694 522.9122,320.9328"/>
    <polyline points="518.5512,321.2962 520.0048,320.9328 521.8219,320.9328 522.9122,321.2962"/>
    <polyline points="523.639,314.0279 522.9122,314.7547 522.1853,315.845"/>
    <line x1="521.8219" x2="521.0951" y1="316.5719" y2="317.6621"/>
    <polyline points="520.7317,318.3889 520.0048,319.1157 519.278,319.4792 518.9146,319.4792 518.9146,319.1157 519.278,319.4792"/>
    <polyline points="528.3634,318.0255 527.6366,318.7523 527.2732,319.4792 527.2732,320.206 527.6366,320.9328 528.3634,321.2962 529.0903,320.5694 530.1805,320.206"/>
    <polyline points="527.2732,319.4792 527.6366,320.206 528.0,320.5694 528.7269,320.9328"/>
    <polyline points="527.6366,318.7523 527.6366,319.4792 528.0,320.206 528.7269,320.5694 529.0903,320.5694"/>
    <polyline points="527.6366,317.2987 528.3634,317.2987 529.4537,316.9352 530.1805,316.5719 530.5439,316.2084 531.2708,316.9352 530.9074,317.2987 530.9074,320.206 531.2708,320.5694 531.6342,320.5694"/>
    <polyline points="528.0,316.5719 527.6366,316.9352 528.7269,316.9352"/>
    <polyline points="529.8171,316.9352 530.9074,316.9352 530.5439,316.5719 530.5439,320.5694 530.9074,320.9328"/>
    <polyline points="527.2732,316.9352 528.0,316.2084 528.3634,316.5719 529.0903,316.9352 530.1805,317.2987 530.1805,320.5694 530.9074,321.2962 531.6342,320.5694"/>
    <line x1="527.2732" x2="529.0903" y1="316.9352" y2="318.7523"/>
    <polyline points="533.4512,314.3913 533.8147,315.1182 533.8147,320.206 533.0878,320.5694 533.4512,320.5694 534.1781,320.9328 534.5415,321.2962"/>
    <polyline points="534.1781,315.1182 533.8147,314.3913 534.1781,314.0279 534.1781,320.5694 534.9049,320.9328"/>
    <polyline points="533.4512,314.3913 534.5415,313.6645 534.5415,320.206 535.2683,320.5694 535.6317,320.5694 534.9049,320.9328 534.5415,321.2962"/>
    <polyline points="537.4489,316.9352 537.4489,320.206 536.722,320.5694 537.0854,320.5694 537.8122,320.9328 538.1757,321.2962"/>
    <polyline points="537.8122,316.9352 537.8122,320.5694 538.5391,320.9328"/>
    <polyline points="538.1757,316.9352 538.1757,320.206 538.9025,320.5694 539.2659,320.5694 538.5391,320.9328 538.1757,321.2962"/>
    <polyline points="537.4489,316.9352 538.9025,316.5719 539.6294,316.2084 540.7196,317.6621 539.9927,318.0255 538.1757,319.1157"/>
    <line x1="539.2659" x2="540.3562" y1="316.5719" y2="317.6621"/>
    <polyline points="538.1757,316.9352 538.9025,316.5719 539.9927,318.0255"/>
    <polyline points="542.1732,316.9352 542.1732,318.3889 542.9001,318.7523 545.0806,318.7523 545.8074,319.1157 545.8074,320.5694"/>
    <line x1="542.5367" x2="542.5367" y1="316.9352" y2="318.3889"/>
    <line x1="545.444" x2="545.444" y1="319.1157" y2="320.5694"/>
    <polyline points="543.2635,316.5719 542.9001,316.9352 542.9001,318.3889 543.6269,318.7523"/>
    <polyline points="544.3537,318.7523 545.0806,319.1157 545.0806,320.5694 544.7172,320.9328"/>
    <polyline points="542.1732,316.9352 543.2635,316.5719 543.9903,316.2084 544.7172,316.5719 545.444,316.5719 545.8074,316.2084"/>
    <line x1="543.6269" x2="544.3537" y1="316.5719" y2="316.5719"/>
    <polyline points="543.2635,316.5719 543.9903,316.9352 544.7172,316.9352 545.444,316.5719"/>
    <polyline points="545.8074,320.5694 544.7172,320.9328 543.9903,321.2962 543.2635,320.9328 542.5367,320.9328 541.8098,321.2962"/>
    <line x1="544.3537" x2="543.6269" y1="320.9328" y2="320.9328"/>
    <polyline points="544.7172,320.9328 543.9903,320.5694 542.9001,320.5694 541.8098,321.2962"/>
    <polyline points="545.8074,316.2084 545.444,316.9352 544.7172,318.0255 542.9001,319.8426 541.8098,321.2962"/>
    <polygon points="548.7147,313.6645 547.9879,314.3913 548.7147,314.7547 549.4416,314.3913"/>
    <polygon points="548.7147,314.0279 548.3514,314.3913 549.0782,314.3913"/>
    <polyline points="548.7147,316.2084 548.3514,316.5719 547.6245,316.9352 548.3514,317.2987 548.3514,320.5694 549.0782,321.2962 549.805,320.5694"/>
    <polyline points="548.7147,317.2987 549.0782,316.9352 548.7147,316.5719 548.3514,316.9352 548.7147,317.2987 548.7147,320.5694 549.0782,320.9328"/>
    <polyline points="548.7147,316.2084 549.0782,316.5719 549.805,316.9352 549.0782,317.2987 549.0782,320.206 549.4416,320.5694 549.805,320.5694"/>
    <polyline points="551.2587,316.9352 551.622,316.9352 551.9855,317.2987 551.9855,320.206 551.2587,320.5694 551.622,320.5694 552.3489,320.9328 552.7123,321.2962"/>
    <polyline points="551.9855,316.5719 552.3489,316.9352 552.3489,320.5694 553.0757,320.9328"/>
    <polyline points="551.2587,316.9352 551.9855,316.2084 552.7123,316.9352 552.7123,320.206 553.4392,320.5694 552.7123,321.2962"/>
    <polyline points="552.7123,317.2987 553.8025,316.9352 554.5294,316.5719 554.8928,316.2084 555.2562,316.5719 555.983,316.9352 556.3465,316.9352"/>
    <polyline points="556.3465,316.9352 555.6197,317.2987 555.6197,320.206 555.983,320.5694 556.3465,320.5694"/>
    <polyline points="554.5294,316.5719 555.2562,316.9352 555.2562,320.5694 555.6197,320.9328"/>
    <polyline points="553.8025,316.9352 554.166,316.9352 554.8928,317.2987 554.8928,320.5694 555.6197,321.2962 556.3465,320.5694"/>
  </g>
</svg>
