<?xml version="1.0" encoding="UTF-8" standalone="no"?>
<svg
   xmlns:dc="http://purl.org/dc/elements/1.1/"
   xmlns:cc="http://creativecommons.org/ns#"
   xmlns:rdf="http://www.w3.org/1999/02/22-rdf-syntax-ns#"
   xmlns:svg="http://www.w3.org/2000/svg"
   xmlns="http://www.w3.org/2000/svg"
   width="210mm"
   height="297mm"
   viewBox="0 0 210 297"
   version="1.1"
   id="svg8">
  <defs
     id="defs2" />
  <metadata
     id="metadata5">
    <rdf:RDF>
      <cc:Work
         rdf:about="">
        <dc:format>image/svg+xml</dc:format>
        <dc:type
           rdf:resource="http://purl.org/dc/dcmitype/StillImage" />
        <dc:title></dc:title>
      </cc:Work>
    </rdf:RDF>
  </metadata>
  <g
     id="layer1">
    <g
       id="g1926">
      <path
         style="fill:none;stroke:#000000;stroke-width:0.4;stroke-linecap:round;stroke-linejoin:round"
         d="m 21.5732,20.8123 -0.6667,-0.6667 -1.3333,-0.6666 -2,-0.6667 m 4.6666,1.3333 -1.3333,-0.6666 m 2,0 -2.6667,-0.6667 h -2.6666 l -2,0.6667 -0.6667,0.6666 -0.6667,1.3334 0.6667,1.3333 0.6667,0.6667 2,0.6667 h 5.3333 l 1.3333,0.6666 0.6667,0.6667 v 1.3333 l -0.6667,2 m -9.3333,-6.6667 0.6667,0.6667 2,0.6667 h 5.9999 l 1.3334,0.6667 0.6666,0.6666 v 1.3334 l -0.6666,1.3333 m -10,-7.3334 v 1.3334 l 0.6667,0.6666 2,0.6667 h 6.6666 l 1.3333,0.6667 0.6667,1.3333 v 1.3334 l -2,2.6666 -2.6666,4 m -8,-8 0.6666,0.6667 1.3334,0.6667 h 6 l 0.6666,0.6666 v 0.6667 l -0.6666,1.3333 m -7.3334,-2.6666 1.3334,0.6666 h 5.3333 l 0.6667,0.6667 m -8,-2.6667 v 0.6667 l 0.6666,1.3333 1.3334,0.6667 h 4.6666 l 1.3334,0.6667 v 0.6666 m -8,4 2,-1.3333 2.6666,-0.6667 h 2 l 2,0.6667 m -7.3333,0.6667 2,-0.6667 h 2.6667 l 2,0.6667 m -8,0.6666 2.6666,-0.6666 h 3.3334 l 2,0.6666 m 1.3333,-13.3333 -1.3333,1.3333 -1.3334,2 m -0.6666,1.3334 -1.3334,2 m -0.6666,1.3333 -1.3334,1.3333 -1.3333,0.6667 h -0.6667 v -0.6667 l 0.6667,0.6667"
         id="path1912" />
      <path
         style="fill:none;stroke:#000000;stroke-width:0.4;stroke-linecap:round;stroke-linejoin:round"
         d="m 31.5732,26.8123 -1.3333,1.3334 -0.6667,1.3333 v 1.3333 l 0.6667,1.3334 1.3333,0.6666 1.3333,-1.3333 2,-0.6667 m -5.3333,-1.3333 0.6667,1.3333 0.6666,0.6667 1.3334,0.6667 m -2,-4 v 1.3333 l 0.6666,1.3333 1.3334,0.6667 h 0.6666 m -2.6666,-6 h 1.3333 l 2,-0.6667 1.3333,-0.6666 0.6667,-0.6667 1.3333,1.3333 -0.6666,0.6667 v 5.3333 l 0.6666,0.6667 h 0.6667 m -6.6667,-7.3333 -0.6666,0.6666 h 2 m 2,0 h 2 l -0.6667,-0.6666 v 7.3333 l 0.6667,0.6667 m -6.6667,-7.3334 1.3333,-1.3333 0.6667,0.6667 1.3333,0.6666 2,0.6667 v 6 l 1.3334,1.3333 1.3333,-1.3333 m -8,-6.6667 3.3333,3.3334"
         id="path1914" />
      <path
         style="fill:none;stroke:#000000;stroke-width:0.4;stroke-linecap:round;stroke-linejoin:round"
         d="m 40.9065,20.1456 0.6667,1.3334 v 9.3333 l -1.3334,0.6667 h 0.6667 l 1.3333,0.6667 0.6667,0.6666 M 42.2398,21.479 41.5732,20.1456 42.2398,19.479 v 12 l 1.3334,0.6667 m -2.6667,-12.0001 2,-1.3333 v 12 l 1.3333,0.6667 h 0.6667 l -1.3333,0.6667 -0.6667,0.6666"
         id="path1916" />
      <path
         style="fill:none;stroke:#000000;stroke-width:0.4;stroke-linecap:round;stroke-linejoin:round"
         d="m 48.2399,24.8123 v 6 l -1.3334,0.6667 h 0.6667 l 1.3333,0.6667 0.6667,0.6666 m -0.6667,-8 v 6.6667 l 1.3334,0.6667 m -0.6667,-7.3334 v 6 l 1.3333,0.6667 h 0.6667 l -1.3333,0.6667 -0.6667,0.6666 m -1.3333,-8 2.6666,-0.6666 1.3334,-0.6667 2,2.6667 -1.3334,0.6666 -3.3333,2 m 2,-4.6666 2,2 m -4,-1.3334 1.3333,-0.6666 2,2.6666"
         id="path1918" />
      <path
         style="fill:none;stroke:#000000;stroke-width:0.4;stroke-linecap:round;stroke-linejoin:round"
         d="m 56.9065,24.8123 v 2.6667 l 1.3333,0.6667 h 4 l 1.3334,0.6666 v 2.6667 m -6,-6.6667 v 2.6667 m 5.3333,1.3333 v 2.6667 m -4,-7.3333 -0.6667,0.6666 v 2.6667 l 1.3334,0.6667 m 1.3333,0 1.3333,0.6666 v 2.6667 l -0.6666,0.6667 m -4.6667,-7.3334 2,-0.6666 1.3333,-0.6667 1.3334,0.6667 h 1.3333 l 0.6667,-0.6667 m -4,0.6667 h 1.3333 m -2,0 1.3333,0.6666 h 1.3334 l 1.3333,-0.6666 m 0.6667,7.3333 -2,0.6667 -1.3334,0.6666 -1.3333,-0.6666 h -1.3333 l -1.3334,0.6666 m 4.6667,-0.6666 h -1.3333 m 2,0 -1.3334,-0.6667 h -2 l -2,1.3333 m 7.3334,-9.3333 -0.6667,1.3333 -1.3333,2 -3.3334,3.3334 -2,2.6666"
         id="path1920" />
      <path
         style="fill:none;stroke:#000000;stroke-width:0.4;stroke-linecap:round;stroke-linejoin:round"
         d="m 68.9065,18.8123 -1.3333,1.3333 1.3333,0.6667 1.3334,-0.6667 z m 0,0.6667 -0.6666,0.6666 h 1.3333 z m 0,4 -0.6666,0.6667 -1.3334,0.6666 1.3334,0.6667 v 6 l 1.3333,1.3333 1.3333,-1.3333 m -2,-6 0.6667,-0.6667 -0.6667,-0.6666 -0.6666,0.6666 0.6666,0.6667 v 6 l 0.6667,0.6667 m -0.6667,-8.6667 0.6667,0.6667 1.3333,0.6666 -1.3333,0.6667 v 5.3333 l 0.6667,0.6667 h 0.6666"
         id="path1922" />
      <path
         style="fill:none;stroke:#000000;stroke-width:0.4;stroke-linecap:round;stroke-linejoin:round"
         d="m 73.5732,24.8123 h 0.6666 l 0.6667,0.6667 v 5.3333 l -1.3333,0.6667 h 0.6666 l 1.3334,0.6667 0.6666,0.6666 m -1.3333,-8.6666 0.6667,0.6666 v 6.6667 l 1.3333,0.6667 m -3.3333,-7.3334 1.3333,-1.3333 1.3333,1.3333 v 6 l 1.3334,0.6667 -1.3334,1.3333 m 0,-7.3333 2,-0.6667 1.3334,-0.6666 0.6666,-0.6667 0.6667,0.6667 1.3333,0.6666 h 0.6667 l -1.3333,0.6667 v 5.3333 l 0.6666,0.6667 h 0.6667 m -3.3333,-7.3333 1.3333,0.6666 v 6.6667 l 0.6667,0.6667 m -3.3334,-7.3334 h 0.6667 l 1.3333,0.6667 v 6 l 1.3334,1.3333 1.3333,-1.3333"
         id="path1924" />
    </g>
  </g>
</svg>
