<?xml version="1.0" encoding="utf-8" ?>
<svg xmlns="http://www.w3.org/2000/svg" xmlns:cc="http://creativecommons.org/ns#" xmlns:dc="http://purl.org/dc/elements/1.1/" xmlns:ev="http://www.w3.org/2001/xml-events" xmlns:inkscape="http://www.inkscape.org/namespaces/inkscape" xmlns:rdf="http://www.w3.org/1999/02/22-rdf-syntax-ns#" xmlns:sodipodi="http://sodipodi.sourceforge.net/DTD/sodipodi-0.dtd" xmlns:xlink="http://www.w3.org/1999/xlink" baseProfile="tiny" height="0.4cm" version="1.2" viewBox="0 0 37.79527559055118 15.118110236220472" width="1.0cm">
  <metadata>
    <rdf:RDF>
      <cc:Work>
        <dc:format>image/svg+xml</dc:format>
        <dc:source>vpype read salesin.svg layout -l --fit-to-margins 0cm 1cmx0.4cm write salesin_small.svg
</dc:source>
        <dc:date>2021-05-24T21:07:44.430005</dc:date>
      </cc:Work>
    </rdf:RDF>
  </metadata>
  <defs/>
  <g fill="none" id="layer1" inkscape:groupmode="layer" inkscape:label="1" stroke="#00f" style="display:inline">
    <polyline points="4.361,4.8334 3.9976,4.47 3.2707,4.1066 2.1805,3.7432"/>
    <line x1="4.7244" x2="3.9976" y1="4.47" y2="4.1066"/>
    <polyline points="5.0878,4.1066 3.6341,3.7432 2.1805,3.7432 1.0902,4.1066 0.7268,4.47 0.3634,5.1969 0.7268,5.9237 1.0902,6.2871 2.1805,6.6506 5.0878,6.6506 5.8146,7.0139 6.1781,7.3774 6.1781,8.1042 5.8146,9.1944"/>
    <polyline points="0.7268,5.5602 1.0902,5.9237 2.1805,6.2871 5.4512,6.2871 6.1781,6.6506 6.5414,7.0139 6.5414,7.7408 6.1781,8.4676"/>
    <polyline points="0.7268,4.47 0.7268,5.1969 1.0902,5.5602 2.1805,5.9237 5.8146,5.9237 6.5414,6.2871 6.9049,7.0139 6.9049,7.7408 5.8146,9.1944 4.361,11.3749"/>
    <polyline points="0.0,7.0139 0.3634,7.3774 1.0902,7.7408 4.361,7.7408 4.7244,8.1042 4.7244,8.4676 4.361,9.1944"/>
    <polyline points="0.3634,7.7408 1.0902,8.1042 3.9976,8.1042 4.361,8.4676"/>
    <polyline points="0.0,7.0139 0.0,7.3774 0.3634,8.1042 1.0902,8.4676 3.6341,8.4676 4.361,8.831 4.361,9.1944"/>
    <polyline points="0.0,11.3749 1.0902,10.6481 2.5439,10.2847 3.6341,10.2847 4.7244,10.6481"/>
    <polyline points="0.7268,11.0115 1.8171,10.6481 3.2707,10.6481 4.361,11.0115"/>
    <polyline points="0.0,11.3749 1.4536,11.0115 3.2707,11.0115 4.361,11.3749"/>
    <polyline points="5.0878,4.1066 4.361,4.8334 3.6341,5.9237"/>
    <line x1="3.2707" x2="2.5439" y1="6.6506" y2="7.7408"/>
    <polyline points="2.1805,8.4676 1.4536,9.1944 0.7268,9.5579 0.3634,9.5579 0.3634,9.1944 0.7268,9.5579"/>
    <polyline points="9.8122,8.1042 9.0854,8.831 8.722,9.5579 8.722,10.2847 9.0854,11.0115 9.8122,11.3749 10.5391,10.6481 11.6293,10.2847"/>
    <polyline points="8.722,9.5579 9.0854,10.2847 9.4488,10.6481 10.1757,11.0115"/>
    <polyline points="9.0854,8.831 9.0854,9.5579 9.4488,10.2847 10.1757,10.6481 10.5391,10.6481"/>
    <polyline points="9.0854,7.3774 9.8122,7.3774 10.9025,7.0139 11.6293,6.6506 11.9927,6.2871 12.7196,7.0139 12.3562,7.3774 12.3562,10.2847 12.7196,10.6481 13.083,10.6481"/>
    <polyline points="9.4488,6.6506 9.0854,7.0139 10.1757,7.0139"/>
    <polyline points="11.2659,7.0139 12.3562,7.0139 11.9927,6.6506 11.9927,10.6481 12.3562,11.0115"/>
    <polyline points="8.722,7.0139 9.4488,6.2871 9.8122,6.6506 10.5391,7.0139 11.6293,7.3774 11.6293,10.6481 12.3562,11.3749 13.083,10.6481"/>
    <line x1="8.722" x2="10.5391" y1="7.0139" y2="8.831"/>
    <polyline points="14.9,4.47 15.2635,5.1969 15.2635,10.2847 14.5366,10.6481 14.9,10.6481 15.6269,11.0115 15.9903,11.3749"/>
    <polyline points="15.6269,5.1969 15.2635,4.47 15.6269,4.1066 15.6269,10.6481 16.3537,11.0115"/>
    <polyline points="14.9,4.47 15.9903,3.7432 15.9903,10.2847 16.7171,10.6481 17.0805,10.6481 16.3537,11.0115 15.9903,11.3749"/>
    <polyline points="18.8977,7.0139 18.8977,10.2847 18.1708,10.6481 18.5342,10.6481 19.261,11.0115 19.6245,11.3749"/>
    <polyline points="19.261,7.0139 19.261,10.6481 19.9879,11.0115"/>
    <polyline points="19.6245,7.0139 19.6245,10.2847 20.3513,10.6481 20.7147,10.6481 19.9879,11.0115 19.6245,11.3749"/>
    <polyline points="18.8977,7.0139 20.3513,6.6506 21.0782,6.2871 22.1684,7.7408 21.4415,8.1042 19.6245,9.1944"/>
    <line x1="20.7147" x2="21.805" y1="6.6506" y2="7.7408"/>
    <polyline points="19.6245,7.0139 20.3513,6.6506 21.4415,8.1042"/>
    <polyline points="23.622,7.0139 23.622,8.4676 24.3489,8.831 26.5294,8.831 27.2562,9.1944 27.2562,10.6481"/>
    <line x1="23.9855" x2="23.9855" y1="7.0139" y2="8.4676"/>
    <line x1="26.8928" x2="26.8928" y1="9.1944" y2="10.6481"/>
    <polyline points="24.7123,6.6506 24.3489,7.0139 24.3489,8.4676 25.0757,8.831"/>
    <polyline points="25.8025,8.831 26.5294,9.1944 26.5294,10.6481 26.166,11.0115"/>
    <polyline points="23.622,7.0139 24.7123,6.6506 25.4391,6.2871 26.166,6.6506 26.8928,6.6506 27.2562,6.2871"/>
    <line x1="25.0757" x2="25.8025" y1="6.6506" y2="6.6506"/>
    <polyline points="24.7123,6.6506 25.4391,7.0139 26.166,7.0139 26.8928,6.6506"/>
    <polyline points="27.2562,10.6481 26.166,11.0115 25.4391,11.3749 24.7123,11.0115 23.9855,11.0115 23.2586,11.3749"/>
    <line x1="25.8025" x2="25.0757" y1="11.0115" y2="11.0115"/>
    <polyline points="26.166,11.0115 25.4391,10.6481 24.3489,10.6481 23.2586,11.3749"/>
    <polyline points="27.2562,6.2871 26.8928,7.0139 26.166,8.1042 24.3489,9.9213 23.2586,11.3749"/>
    <polygon points="30.1635,3.7432 29.4367,4.47 30.1635,4.8334 30.8904,4.47"/>
    <polygon points="30.1635,4.1066 29.8002,4.47 30.527,4.47"/>
    <polyline points="30.1635,6.2871 29.8002,6.6506 29.0733,7.0139 29.8002,7.3774 29.8002,10.6481 30.527,11.3749 31.2538,10.6481"/>
    <polyline points="30.1635,7.3774 30.527,7.0139 30.1635,6.6506 29.8002,7.0139 30.1635,7.3774 30.1635,10.6481 30.527,11.0115"/>
    <polyline points="30.1635,6.2871 30.527,6.6506 31.2538,7.0139 30.527,7.3774 30.527,10.2847 30.8904,10.6481 31.2538,10.6481"/>
    <polyline points="32.7075,7.0139 33.0708,7.0139 33.4343,7.3774 33.4343,10.2847 32.7075,10.6481 33.0708,10.6481 33.7977,11.0115 34.1611,11.3749"/>
    <polyline points="33.4343,6.6506 33.7977,7.0139 33.7977,10.6481 34.5245,11.0115"/>
    <polyline points="32.7075,7.0139 33.4343,6.2871 34.1611,7.0139 34.1611,10.2847 34.888,10.6481 34.1611,11.3749"/>
    <polyline points="34.1611,7.3774 35.2513,7.0139 35.9782,6.6506 36.3416,6.2871 36.705,6.6506 37.4318,7.0139 37.7953,7.0139 37.0685,7.3774 37.0685,10.2847 37.4318,10.6481 37.7953,10.6481"/>
    <polyline points="35.9782,6.6506 36.705,7.0139 36.705,10.6481 37.0685,11.0115"/>
    <polyline points="35.2513,7.0139 35.6148,7.0139 36.3416,7.3774 36.3416,10.6481 37.0685,11.3749 37.7953,10.6481"/>
  </g>
</svg>
