<?xml version="1.0" encoding="utf-8" ?>
<svg xmlns="http://www.w3.org/2000/svg" xmlns:cc="http://creativecommons.org/ns#" xmlns:dc="http://purl.org/dc/elements/1.1/" xmlns:ev="http://www.w3.org/2001/xml-events" xmlns:inkscape="http://www.inkscape.org/namespaces/inkscape" xmlns:rdf="http://www.w3.org/1999/02/22-rdf-syntax-ns#" xmlns:sodipodi="http://sodipodi.sourceforge.net/DTD/sodipodi-0.dtd" xmlns:xlink="http://www.w3.org/1999/xlink" baseProfile="tiny" height="29.7cm" version="1.2" viewBox="0 0 793.7007874015749 1122.5196850393702" width="21.0cm">
  <metadata>
    <rdf:RDF>
      <cc:Work>
        <dc:format>image/svg+xml</dc:format>
        <dc:source>vpype read hypercube_signature.svg scaleto 2000cm 2cm rotate 90 translate 17cm 10cm show write --page-size a4 signature.svg
</dc:source>
        <dc:date>2021-02-09T14:48:54.299150</dc:date>
      </cc:Work>
    </rdf:RDF>
  </metadata>
  <defs/>
  <g fill="none" id="layer1" inkscape:groupmode="layer" inkscape:label="1" stroke="#00f" style="display:inline">
    <line x1="1099.975" x2="1050.3687" y1="307.7955" y2="307.7955"/>
    <polyline points="1073.9908,307.7955 1081.0774,314.8821 1083.4396,319.6065 1083.4396,326.6931 1081.0774,331.4175 1073.9908,333.7797 1050.3687,333.7797"/>
    <line x1="1083.4396" x2="1050.3687" y1="347.9529" y2="362.1262"/>
    <polyline points="1083.4396,376.2994 1050.3687,362.1262 1040.9199,357.4017 1036.1955,352.6773 1033.8333,347.9529 1033.8333,345.5907"/>
    <line x1="1083.4396" x2="1033.8333" y1="390.4726" y2="390.4726"/>
    <polyline points="1076.353,390.4726 1081.0774,395.197 1083.4396,399.9214 1083.4396,407.008 1081.0774,411.7325 1076.353,416.4569 1069.2664,418.8191 1064.542,418.8191 1057.4553,416.4569 1052.7309,411.7325 1050.3687,407.008 1050.3687,399.9214 1052.7309,395.197 1057.4553,390.4726"/>
    <polyline points="1069.2664,432.9923 1069.2664,461.3388 1073.9908,461.3388 1078.7152,458.9766 1081.0774,456.6143 1083.4396,451.8899 1083.4396,444.8033 1081.0774,440.0789 1076.353,435.3545 1069.2664,432.9923 1064.542,432.9923 1057.4553,435.3545 1052.7309,440.0789 1050.3687,444.8033 1050.3687,451.8899 1052.7309,456.6143 1057.4553,461.3388"/>
    <line x1="1083.4396" x2="1050.3687" y1="477.8742" y2="477.8742"/>
    <polyline points="1069.2664,477.8742 1076.353,480.2364 1081.0774,484.9608 1083.4396,489.6852 1083.4396,496.7718"/>
    <polyline points="1076.353,534.5671 1081.0774,529.8427 1083.4396,525.1183 1083.4396,518.0317 1081.0774,513.3073 1076.353,508.5829 1069.2664,506.2206 1064.542,506.2206 1057.4553,508.5829 1052.7309,513.3073 1050.3687,518.0317 1050.3687,525.1183 1052.7309,529.8427 1057.4553,534.5671"/>
    <polyline points="1083.4396,551.1025 1059.8176,551.1025 1052.7309,553.4647 1050.3687,558.1892 1050.3687,565.2758 1052.7309,570.0002 1059.8176,577.0868"/>
    <line x1="1083.4396" x2="1050.3687" y1="577.0868" y2="577.0868"/>
    <line x1="1099.975" x2="1050.3687" y1="595.9844" y2="595.9844"/>
    <polyline points="1076.353,595.9844 1081.0774,600.7088 1083.4396,605.4332 1083.4396,612.5199 1081.0774,617.2443 1076.353,621.9687 1069.2664,624.3309 1064.542,624.3309 1057.4553,621.9687 1052.7309,617.2443 1050.3687,612.5199 1050.3687,605.4332 1052.7309,600.7088 1057.4553,595.9844"/>
    <polyline points="1069.2664,638.5041 1069.2664,666.8506 1073.9908,666.8506 1078.7152,664.4884 1081.0774,662.1262 1083.4396,657.4017 1083.4396,650.3151 1081.0774,645.5907 1076.353,640.8663 1069.2664,638.5041 1064.542,638.5041 1057.4553,640.8663 1052.7309,645.5907 1050.3687,650.3151 1050.3687,657.4017 1052.7309,662.1262 1057.4553,666.8506"/>
    <line x1="1109.4239" x2="1033.8333" y1="721.1813" y2="678.6616"/>
    <polyline points="1099.975,749.5277 1099.975,744.8033 1097.6128,740.0789 1090.5262,737.7167 1050.3687,737.7167"/>
    <line x1="1083.4396" x2="1083.4396" y1="730.6301" y2="747.1655"/>
    <line x1="1083.4396" x2="1050.3687" y1="789.6852" y2="789.6852"/>
    <polyline points="1076.353,789.6852 1081.0774,784.9608 1083.4396,780.2364 1083.4396,773.1498 1081.0774,768.4254 1076.353,763.701 1069.2664,761.3388 1064.542,761.3388 1057.4553,763.701 1052.7309,768.4254 1050.3687,773.1498 1050.3687,780.2364 1052.7309,784.9608 1057.4553,789.6852"/>
    <line x1="1083.4396" x2="1050.3687" y1="808.5829" y2="808.5829"/>
    <polyline points="1073.9908,808.5829 1081.0774,815.6695 1083.4396,820.3939 1083.4396,827.4805 1081.0774,832.2049 1073.9908,834.5671 1050.3687,834.5671"/>
    <polyline points="1083.4396,853.4647 1059.8176,853.4647 1052.7309,855.8269 1050.3687,860.5514 1050.3687,867.638 1052.7309,872.3624 1059.8176,879.449"/>
    <line x1="1083.4396" x2="1050.3687" y1="879.449" y2="879.449"/>
    <polyline points="1088.164,936.1419 1090.5262,936.1419 1095.2506,938.5041 1097.6128,940.8663 1099.975,945.5907 1099.975,955.0395 1097.6128,959.764 1095.2506,962.1262 1090.5262,964.4884 1085.8018,964.4884 1081.0774,962.1262 1073.9908,957.4017 1050.3687,933.7797 1050.3687,966.8506"/>
    <polygon points="1099.975,995.197 1097.6128,988.1104 1090.5262,983.386 1078.7152,981.0238 1071.6286,981.0238 1059.8176,983.386 1052.7309,988.1104 1050.3687,995.197 1050.3687,999.9214 1052.7309,1007.008 1059.8176,1011.7325 1071.6286,1014.0947 1078.7152,1014.0947 1090.5262,1011.7325 1097.6128,1007.008 1099.975,999.9214"/>
    <polyline points="1088.164,1030.6301 1090.5262,1030.6301 1095.2506,1032.9923 1097.6128,1035.3545 1099.975,1040.0789 1099.975,1049.5277 1097.6128,1054.2521 1095.2506,1056.6143 1090.5262,1058.9766 1085.8018,1058.9766 1081.0774,1056.6143 1073.9908,1051.8899 1050.3687,1028.2679 1050.3687,1061.3388"/>
    <polyline points="1090.5262,1082.5986 1092.8884,1087.323 1099.975,1094.4096 1050.3687,1094.4096"/>
  </g>
</svg>
