<?xml version="1.0" encoding="utf-8" ?>
<svg xmlns="http://www.w3.org/2000/svg" xmlns:cc="http://creativecommons.org/ns#" xmlns:dc="http://purl.org/dc/elements/1.1/" xmlns:ev="http://www.w3.org/2001/xml-events" xmlns:inkscape="http://www.inkscape.org/namespaces/inkscape" xmlns:rdf="http://www.w3.org/1999/02/22-rdf-syntax-ns#" xmlns:sodipodi="http://sodipodi.sourceforge.net/DTD/sodipodi-0.dtd" xmlns:xlink="http://www.w3.org/1999/xlink" baseProfile="tiny" height="21.0cm" version="1.2" viewBox="0 0 559.3700787401575 793.7007874015749" width="14.8cm">
  <metadata>
    <rdf:RDF>
      <cc:Work>
        <dc:format>image/svg+xml</dc:format>
        <dc:source>vpype read spirolateral.svg rotate 270 layout --fit-to-margins 3cm -v center a5 write spirolateral_a5.svg
</dc:source>
        <dc:date>2021-02-06T23:21:17.888838</dc:date>
      </cc:Work>
    </rdf:RDF>
  </metadata>
  <defs/>
  <g fill="none" id="layer2" inkscape:groupmode="layer" inkscape:label="2" stroke="#00f" style="display:inline">
    <polyline points="275.0656,404.8515 284.3045,404.8515 298.1627,380.8482 251.9685,380.8482 201.1549,468.8601 164.1995,468.8601 131.8635,412.8525 154.9606,372.8472 238.1102,372.8472 242.7297,380.8482 247.3491,372.8472 293.5433,372.8472 298.1627,380.8482"/>
    <polyline points="293.5433,372.8472 251.9685,300.8375 233.4908,332.8418 256.5879,372.8472"/>
    <polyline points="251.9685,364.8461 270.4462,364.8461 265.8268,372.8472"/>
    <line x1="270.4462" x2="279.685" y1="364.8461" y2="348.8439"/>
    <line x1="284.3045" x2="275.0656" y1="356.845" y2="372.8472"/>
    <line x1="275.0656" x2="247.3491" y1="356.845" y2="356.845"/>
    <polyline points="238.1102,372.8472 215.0131,332.8418 265.8268,244.83 348.9764,244.83 381.3123,300.8375 372.0735,300.8375 330.4987,372.8472 367.4541,372.8472 418.2677,460.859 409.0289,460.859 372.0735,524.8676 367.4541,516.8665 399.79,460.859 358.2152,388.8493 362.8346,380.8482 307.4016,380.8482 256.5879,292.8364 275.0656,260.8321 339.7375,260.8321 362.8346,300.8375 321.2598,372.8472 312.021,372.8472 261.2073,284.8353"/>
    <line x1="256.5879" x2="251.9685" y1="292.8364" y2="300.8375"/>
    <polyline points="242.7297,284.8353 238.1102,276.8343 191.916,276.8343 159.5801,332.8418 173.4383,356.845 145.7218,356.845 150.3412,364.8461 233.4908,364.8461"/>
    <line x1="228.8714" x2="173.4383" y1="356.845" y2="356.845"/>
    <polyline points="164.1995,356.845 150.3412,332.8418 187.2966,268.8332 182.6772,260.8321 141.1024,332.8418 154.9606,356.845"/>
    <polyline points="150.3412,364.8461 122.6247,412.8525 131.8635,412.8525"/>
    <polyline points="122.6247,412.8525 159.5801,476.8611 251.9685,476.8611 247.3491,468.8601 270.4462,428.8547 251.9685,396.8504 256.5879,388.8493 279.685,428.8547 251.9685,476.8611"/>
    <line x1="247.3491" x2="201.1549" y1="468.8601" y2="468.8601"/>
    <line x1="210.3937" x2="251.9685" y1="468.8601" y2="396.8504"/>
    <line x1="247.3491" x2="256.5879" y1="404.8515" y2="404.8515"/>
    <line x1="261.2073" x2="242.7297" y1="412.8525" y2="412.8525"/>
    <line x1="238.1102" x2="265.8268" y1="420.8536" y2="420.8536"/>
    <polyline points="270.4462,428.8547 275.0656,436.8558 385.9318,436.8558"/>
    <line x1="381.3123" x2="279.685" y1="428.8547" y2="428.8547"/>
    <polyline points="284.3045,436.8558 256.5879,484.8622 154.9606,484.8622 159.5801,476.8611"/>
    <polyline points="154.9606,484.8622 113.3858,412.8525 145.7218,356.845"/>
    <line x1="150.3412" x2="159.5801" y1="332.8418" y2="332.8418"/>
    <polyline points="164.1995,372.8472 191.916,420.8536 196.5354,412.8525 224.252,412.8525 242.7297,380.8482"/>
    <polyline points="251.9685,380.8482 224.252,332.8418 233.4908,332.8418"/>
    <polyline points="224.252,332.8418 270.4462,252.8311 265.8268,244.83"/>
    <polyline points="270.4462,252.8311 344.357,252.8311 339.7375,260.8321"/>
    <line x1="344.357" x2="372.0735" y1="252.8311" y2="300.8375"/>
    <line x1="381.3123" x2="339.7375" y1="300.8375" y2="372.8472"/>
    <line x1="330.4987" x2="321.2598" y1="372.8472" y2="372.8472"/>
    <polyline points="312.021,372.8472 316.6404,380.8482 293.5433,420.8536 376.6929,420.8536"/>
    <polyline points="395.1706,420.8536 404.4094,420.8536 409.0289,428.8547 436.7454,380.8482 399.79,316.8396 372.0735,316.8396"/>
    <polyline points="367.4541,324.8407 395.1706,324.8407 399.79,316.8396"/>
    <polyline points="395.1706,324.8407 427.5066,380.8482 404.4094,420.8536"/>
    <line x1="409.0289" x2="399.79" y1="428.8547" y2="428.8547"/>
    <polyline points="404.4094,436.8558 413.6483,436.8558 445.9843,380.8482 404.4094,308.8386 376.6929,308.8386"/>
    <polyline points="358.2152,308.8386 302.7822,308.8386 307.4016,316.8396 293.5433,340.8429"/>
    <line x1="288.9239" x2="302.7822" y1="332.8418" y2="308.8386"/>
    <line x1="307.4016" x2="353.5958" y1="316.8396" y2="316.8396"/>
    <polyline points="348.9764,324.8407 312.021,324.8407 298.1627,348.8439"/>
    <line x1="288.9239" x2="284.3045" y1="364.8461" y2="372.8472"/>
    <line x1="293.5433" x2="256.5879" y1="388.8493" y2="388.8493"/>
    <polyline points="265.8268,388.8493 284.3045,420.8536 307.4016,380.8482"/>
    <line x1="312.021" x2="358.2152" y1="388.8493" y2="388.8493"/>
    <line x1="362.8346" x2="409.0289" y1="380.8482" y2="460.859"/>
    <polyline points="418.2677,460.859 376.6929,532.8687 312.021,532.8687 270.4462,460.859"/>
    <polyline points="275.0656,452.8579 316.6404,524.8676 372.0735,524.8676"/>
    <polyline points="367.4541,516.8665 321.2598,516.8665 279.685,444.8568"/>
    <line x1="265.8268" x2="256.5879" y1="436.8558" y2="420.8536"/>
    <line x1="247.3491" x2="261.2073" y1="420.8536" y2="444.8568"/>
    <line x1="279.685" x2="284.3045" y1="412.8525" y2="404.8515"/>
    <line x1="288.9239" x2="284.3045" y1="396.8504" y2="388.8493"/>
    <line x1="275.0656" x2="270.4462" y1="388.8493" y2="396.8504"/>
    <line x1="284.3045" x2="293.5433" y1="420.8536" y2="420.8536"/>
    <line x1="298.1627" x2="302.7822" y1="412.8525" y2="420.8536"/>
    <line x1="312.021" x2="302.7822" y1="420.8536" y2="404.8515"/>
    <line x1="307.4016" x2="321.2598" y1="396.8504" y2="420.8536"/>
    <line x1="316.6404" x2="330.4987" y1="412.8525" y2="388.8493"/>
    <line x1="321.2598" x2="312.021" y1="388.8493" y2="404.8515"/>
    <polyline points="312.021,436.8558 325.8793,460.859 307.4016,492.8633"/>
    <polyline points="312.021,500.8644 335.1181,460.859 321.2598,436.8558"/>
    <polyline points="330.4987,436.8558 344.357,460.859 335.1181,460.859"/>
    <line x1="344.357" x2="316.6404" y1="460.859" y2="508.8654"/>
    <line x1="316.6404" x2="312.021" y1="524.8676" y2="532.8687"/>
    <polyline points="307.4016,524.8676 293.5433,548.8708 210.3937,548.8708 215.0131,540.8697 187.2966,492.8633 196.5354,492.8633 201.1549,484.8622"/>
    <polyline points="196.5354,492.8633 219.6325,532.8687 284.3045,532.8687 288.9239,540.8697 215.0131,540.8697"/>
    <polyline points="210.3937,548.8708 178.0577,492.8633 182.6772,484.8622"/>
    <line x1="187.2966" x2="191.916" y1="492.8633" y2="484.8622"/>
    <line x1="191.916" x2="224.252" y1="468.8601" y2="412.8525"/>
    <polyline points="228.8714,404.8515 201.1549,404.8515 182.6772,372.8472"/>
    <line x1="173.4383" x2="196.5354" y1="372.8472" y2="412.8525"/>
    <line x1="191.916" x2="219.6325" y1="420.8536" y2="420.8536"/>
    <polyline points="238.1102,276.8343 242.7297,268.8332 187.2966,268.8332"/>
    <polyline points="182.6772,260.8321 247.3491,260.8321 251.9685,268.8332"/>
    <line x1="247.3491" x2="242.7297" y1="276.8343" y2="268.8332"/>
    <line x1="298.1627" x2="284.3045" y1="508.8654" y2="532.8687"/>
    <line x1="288.9239" x2="302.7822" y1="540.8697" y2="516.8665"/>
    <line x1="436.7454" x2="445.9843" y1="380.8482" y2="380.8482"/>
  </g>
</svg>
