<svg xmlns="http://www.w3.org/2000/svg" xmlns:xlink="http://www.w3.org/1999/xlink" version="1.1" width="741" height="149"><g fill="none" fill-rule="nonzero" stroke="#010100" stroke-width="1" stroke-linecap="butt" stroke-linejoin="miter" stroke-miterlimit="10" stroke-dasharray="" stroke-dashoffset="0" font-family="none" font-weight="none" font-size="none" text-anchor="none" style="mix-blend-mode: normal" transform="scale(1)"><g><g id="text"><g id="text-line-0"><path d="M7.88,63.5l3.82,-6.3l7.2,-4.4l7.6,-1.3l6.6,0.6l6,6l-2.6,12.9l-9.4,13.6l-8.2,8.47l-4.4,5.35l-8.2,2.84l-5.355,-1.575l-1.575,-3.775l4.41,-6.61l8.22,1.88l6.6,2.52l11.3,5.67l7.3,1.575l4.4,-2.835l1.9,-5.04l1.2,-6.97"></path><path d="M119.7,51.2l-7.6,5.3h-20.5l-2.5,-0.3l-6.9,-3.1l-1,8.8l-4.4,13.5l-6,13.3l-5,7.21l11,-6.61l10.1,-1.3l9.5,1l10,5.96l5.7,9.14l2.5,12.9l-4.1,13.6l-9.4,9.4l-12.6,3.5l-18.3,-2.2l-11.96,-10.1l-3.46,-8.2l0.62,-6.6"></path><path d="M161.25,101.26l20.45,-95.16l25.9,94.845l19.2,-96.345"></path><path d="M253.6,52.4l-9.2,3.8l-7.85,12l-3.78,11.6v15.48l6.93,5.665l7.2,-1.26l8.9,-11.385l4.1,-12.9l1.2,-11l-0.6,-7.9l-2.2,-2.5l-4.7,-1.6"></path><path d="M267.73,50.9l6.27,49.415l11.4,-15.415l7.2,-18.9l1.9,-15.1v-7.3l-4.1,-5.7l-1.6,-1.8l-6.9,-1.3"></path><path d="M305.19,79.2l10.11,-3.5l9.4,-6.6l2.2,-8.8v-4.7l-3.4,-3.5l-7,1l-8.5,10l-4.07,13.6l-1.58,12.6l1.9,8.49l5.05,4.1l4.7,-0.945l8.2,-4.095"></path><path d="M348.3,51.5l-3.2,19.2l-4.05,20.48l-3.15,9.765l9.5,-22.045l8.5,-17.3l4.1,-5.4l5,-3.4l5.3,-1l3.5,4.7l-0.9,8.9l-7.3,17l-4.1,12.88l-0.3,5.665l11.4,-34.045l8.1,-10.4l7.6,-4.4l5.7,0.3l0.6,6.3l-5,18.3l-4.1,12.3l-1.9,5.98l0.6,5.665"></path><path d="M407.8,78.6l5.7,-14.5l8.2,-10.1l6.6,-1.2l3.8,8.8l-3.8,21.7l-4.4,10.4l-6,6.93l-5.3,0.63l-4.5,-4.1l-2.16,-7.86l4.06,-26.5l11.1,-57"></path><path d="M455.1,52.1l-9.8,49.48l7.2,-27.08l8.5,-14.2l6.7,-6.6l3.4,-1.9l4.4,1.6"></path><path d="M478.39,79.2l10.11,-3.5l9.4,-6.6l2.2,-8.8v-4.7l-3.4,-3.5l-7,1l-8.5,10l-4.07,13.6l-1.58,12.6l1.9,8.49l5.05,4.1l4.7,-0.945l8.2,-4.095"></path><path d="M550.48,63.5l3.82,-6.3l7.2,-4.4l7.6,-1.3l6.6,0.6l6,6l-2.6,12.9l-9.4,13.6l-8.2,8.47l-4.4,5.35l-8.2,2.84l-5.355,-1.575l-1.575,-3.775l4.41,-6.61l8.22,1.88l6.6,2.52l11.3,5.67l7.3,1.575l4.4,-2.835l1.9,-5.04l1.2,-6.97"></path><path d="M635.5,56.5l-3.5,-1.9l-4.4,-3.7l-11,1.5l-8.2,8.2l-4.1,11.4l-0.62,13.2l3.42,13.22l9.8,3.47l9.5,-4.73l6.9,-10.36l2.5,-10.4l0.6,-7.9l-1.9,-7.6"></path><path d="M651.28,63.5l3.82,-6.3l7.2,-4.4l7.6,-1.3l6.6,0.6l6,6l-2.6,12.9l-9.4,13.6l-8.2,8.47l-4.4,5.35l-8.2,2.84l-5.355,-1.575l-1.575,-3.775l4.41,-6.61l8.22,1.88l6.6,2.52l11.3,5.67l7.3,1.575l4.4,-2.835l1.9,-5.04l1.2,-6.97"></path><path d="M704.48,63.5l3.82,-6.3l7.2,-4.4l7.6,-1.3l6.6,0.6l6,6l-2.6,12.9l-9.4,13.6l-8.2,8.47l-4.4,5.35l-8.2,2.84l-5.355,-1.575l-1.575,-3.775l4.41,-6.61l8.22,1.88l6.6,2.52l11.3,5.67l7.3,1.575l4.4,-2.835l1.9,-5.04l1.2,-6.97"></path></g></g></g></g></svg>