<?xml version="1.0" encoding="utf-8" ?>
<svg xmlns="http://www.w3.org/2000/svg" xmlns:cc="http://creativecommons.org/ns" xmlns:dc="http://purl.org/dc/elements/1.1/" xmlns:ev="http://www.w3.org/2001/xml-events" xmlns:inkscape="http://www.inkscape.org/namespaces/inkscape" xmlns:rdf="http://www.w3.org/1999/02/22-rdf-syntax-ns" xmlns:sodipodi="http://sodipodi.sourceforge.net/DTD/sodipodi-0.dtd" xmlns:xlink="http://www.w3.org/1999/xlink" baseProfile="tiny" height="4.0cm" version="1.2" viewBox="0 0 340.1574803149606 151.1811023622047" width="9.0cm">
  <metadata>
    <rdf:RDF>
      <cc:Work>
        <dc:format>image/svg+xml</dc:format>
        <dc:source>vpype read -m -l1 -c fanusele/alessio.svg scaleto -l1 -o 0 0 4.5cm 1.5cm layout -l -v center -h center 9cmx4cm write fanusele/alessio.out.svg
</dc:source>
        <dc:date>2022-11-20T19:46:53.979383</dc:date>
      </cc:Work>
    </rdf:RDF>
  </metadata>
  <defs/>
  <g fill="none" id="layer1" inkscape:groupmode="layer" inkscape:label="1" stroke="#010100" stroke-width="1.0" style="display:inline">
    <polyline points="85.0394,94.486 91.6723,77.083 95.8178,65.5859 98.8026,57.5712 99.687,57.737 103.0035,63.1539 107.8676,73.0479 111.3499,81.7813 114.4452,89.4367 117.0984,94.1378"/>
    <polyline points="89.9035,81.2285 96.3706,79.8467 103.8326,77.5804 110.1339,76.3644 116.0482,74.9825"/>
    <polyline points="125.6106,56.5209 126.1081,80.8969 126.495,92.3994"/>
    <polyline points="135.2284,78.299 142.1929,78.1332 150.2077,77.9673 155.4034,77.083 156.2878,75.1484 155.5693,73.269 151.0368,69.234 145.2883,69.234 140.0925,71.1686 136.4444,74.4851 133.7912,81.2285 132.94,85.2635 132.7686,88.0272 135.7258,91.8743 140.5899,94.3119 146.1726,93.9637 152.087,92.5708 156.2878,90.4814 157.8355,88.58"/>
    <polyline points="184.6435,71.0028 182.8747,69.234 177.6789,69.234 171.7646,70.45 166.3477,73.269 164.0815,76.9171 164.0815,80.8969 166.3477,82.6656 171.3777,82.6656 176.7946,81.6154 180.2768,81.7813 183.0405,82.8315 184.8093,84.3792 184.3118,86.977 178.895,91.1779 171.9304,93.0904 167.8954,94.6602 166.1819,94.486"/>
    <polyline points="210.4013,71.0028 208.6325,69.234 203.4367,69.234 197.5224,70.45 192.1055,73.269 189.8393,76.9171 189.8393,80.8969 192.1055,82.6656 197.1355,82.6656 202.5523,81.6154 206.0346,81.7813 208.7983,82.8315 210.5671,84.3792 210.0696,86.977 204.6528,91.1779 197.6882,93.0904 193.6532,94.6602 191.9397,94.486"/>
    <line x1="218.416" x2="219.411" y1="59.5058" y2="59.5058"/>
    <polyline points="219.7979,69.9526 220.2954,92.2226 221.3456,93.2672"/>
    <polyline points="241.5207,68.7365 234.5561,71.8319 230.908,77.083 228.4759,82.2787 229.692,89.2599 231.9582,93.0904 239.3097,94.3119 245.3898,92.7477 251.6358,88.7458 255.1181,82.2787 253.9021,74.264 251.1384,71.1686 247.9877,69.234 241.5207,68.7365"/>
  </g>
</svg>
