<svg xmlns="http://www.w3.org/2000/svg" xmlns:xlink="http://www.w3.org/1999/xlink" version="1.1" width="330" height="131"><g fill="none" fill-rule="nonzero" stroke="#010100" stroke-width="1" stroke-linecap="butt" stroke-linejoin="miter" stroke-miterlimit="10" stroke-dasharray="" stroke-dashoffset="0" font-family="none" font-weight="none" font-size="none" text-anchor="none" style="mix-blend-mode: normal" transform="scale(1)"><g><g id="text"><g id="text-line-0"><path d="M10.7,99.685l12,-31.485l7.5,-20.8l5.4,-14.5l1.6,0.3l6,9.8l8.8,17.9l6.3,15.8l5.6,13.85l4.8,8.505M19.5,75.7l11.7,-2.5l13.5,-4.1l11.4,-2.2l10.7,-2.5"></path><path d="M84.1,31l0.9,44.1l0.7,20.81"></path><path d="M101.5,70.4l12.6,-0.3l14.5,-0.3l9.4,-1.6l1.6,-3.5l-1.3,-3.4l-8.2,-7.3h-10.4l-9.4,3.5l-6.6,6l-4.8,12.2l-1.54,7.3l-0.31,5l5.35,6.96l8.8,4.41l10.1,-0.63l10.7,-2.52l7.6,-3.78l2.8,-3.44"></path><path d="M190.9,57.2l-3.2,-3.2h-9.4l-10.7,2.2l-9.8,5.1l-4.1,6.6v7.2l4.1,3.2h9.1l9.8,-1.9l6.3,0.3l5,1.9l3.2,2.8l-0.9,4.7l-9.8,7.6l-12.6,3.46l-7.3,2.84l-3.1,-0.315"></path><path d="M237.5,57.2l-3.2,-3.2h-9.4l-10.7,2.2l-9.8,5.1l-4.1,6.6v7.2l4.1,3.2h9.1l9.8,-1.9l6.3,0.3l5,1.9l3.2,2.8l-0.9,4.7l-9.8,7.6l-12.6,3.46l-7.3,2.84l-3.1,-0.315"></path><path d="M252,36.4h1.8M254.5,55.3l0.9,40.29l1.9,1.89"></path><path d="M293.8,53.1l-12.6,5.6l-6.6,9.5l-4.4,9.4l2.2,12.63l4.1,6.93l13.3,2.21l11,-2.83l11.3,-7.24l6.3,-11.7l-2.2,-14.5l-5,-5.6l-5.7,-3.5l-11.7,-0.9"></path></g></g></g></g></svg>