<svg xmlns="http://www.w3.org/2000/svg" xmlns:xlink="http://www.w3.org/1999/xlink" version="1.1" width="90" height="131"><g fill="none" fill-rule="nonzero" stroke="#010100" stroke-width="1" stroke-linecap="butt" stroke-linejoin="miter" stroke-miterlimit="10" stroke-dasharray="" stroke-dashoffset="0" font-family="none" font-weight="none" font-size="none" text-anchor="none" style="mix-blend-mode: normal" transform="scale(1)"><g><g id="text"><g id="text-line-0"><path d="M75,69.1l-6,7.6l-8.5,6.9l-11.7,7.58l-11.3,5.67l-10.4,2.835l-8.5,-0.315l-4.4,-2.21l0.3,-6.3l2.5,-5.36l16.4,-21.7l6.6,-12l1.6,-6.6l0.9,-6.9l-1.5,-4.8l-2.9,-2.2l-4.4,0.7l-5.7,3.1l-4.1,5.1l-1.9,4.4l-0.3,8.8l1.6,6.9l4.4,6.6l3.8,4.7l7.6,7l10.7,9.1l10.4,5.69l6,2.52h2.5"></path></g></g></g></g></svg>