<?xml version="1.0" encoding="utf-8" ?>
<svg xmlns="http://www.w3.org/2000/svg" xmlns:cc="http://creativecommons.org/ns" xmlns:dc="http://purl.org/dc/elements/1.1/" xmlns:ev="http://www.w3.org/2001/xml-events" xmlns:inkscape="http://www.inkscape.org/namespaces/inkscape" xmlns:rdf="http://www.w3.org/1999/02/22-rdf-syntax-ns" xmlns:sodipodi="http://sodipodi.sourceforge.net/DTD/sodipodi-0.dtd" xmlns:xlink="http://www.w3.org/1999/xlink" baseProfile="tiny" height="4.0cm" version="1.2" viewBox="0 0 340.1574803149606 151.1811023622047" width="9.0cm">
  <metadata>
    <rdf:RDF>
      <cc:Work>
        <dc:format>image/svg+xml</dc:format>
        <dc:source>vpype read -m -l1 -c fanusele/andrea-b-.svg scaleto -l1 -o 0 0 4.5cm 1.5cm layout -l -v center -h center 9cmx4cm write fanusele/andrea-b-.out.svg
</dc:source>
        <dc:date>2022-11-20T19:35:30.494697</dc:date>
      </cc:Work>
    </rdf:RDF>
  </metadata>
  <defs/>
  <g fill="none" id="layer1" inkscape:groupmode="layer" inkscape:label="1" stroke="#010100" stroke-width="1.0" style="display:inline">
    <polyline points="85.0394,88.6765 89.632,76.6268 92.5023,68.6663 94.569,63.1169 95.1813,63.2317 97.4776,66.9823 100.8455,73.8329 103.2566,79.8798 105.3998,85.1804 107.2369,88.4354"/>
    <polyline points="88.4073,79.4971 92.885,78.5403 98.0517,76.9712 102.4147,76.1292 106.5097,75.1724"/>
    <polyline points="110.2374,71.5749 110.356,88.0738 110.2374,76.3971 114.6998,73.4885 119.0245,71.4218 121.8183,71.1922 123.8467,71.4218 125.1862,72.8761 126.143,77.086 126.0282,88.4354"/>
    <polyline points="146.5035,63.8441 145.9294,73.986 145.6615,80.4922 145.9294,85.7813 146.0442,88.0738 145.8146,81.7934 142.2936,85.5402 136.6294,88.0738 132.6492,88.3149 129.8936,86.7457 129.0363,82.6354 131.08,78.6551 136.0171,75.2872 140.4948,74.5601 143.8627,75.0576 146.0442,77.3539"/>
    <polyline points="151.5936,70.8478 151.1343,88.1924 152.3207,78.4255 155.2294,74.6749 158.9417,72.5317 161.9652,71.307 163.3047,71.1922 167.2849,71.5749 167.7442,71.9194"/>
    <polyline points="171.9923,77.4687 176.8145,77.3539 182.3639,77.2391 185.9614,76.6268 186.5738,75.2872 186.0762,73.986 182.938,71.1922 178.9577,71.1922 175.3602,72.5317 172.8343,74.828 170.9973,79.4971 170.4079,82.2909 170.2892,84.2045 172.3368,86.8682 175.7047,88.556 179.5701,88.3149 183.6651,87.3504 186.5738,85.9038 187.6454,84.5872"/>
    <polyline points="207.5466,78.1959 205.3651,83.0181 201.8441,86.2674 199.3182,87.7102 196.9071,88.556 193.5392,88.1924 191.7404,86.9907 191.2429,83.2477 193.0799,79.4971 195.4528,75.8996 199.3182,73.2589 202.2268,71.9194 204.4083,71.9194 207.0491,72.4169 207.5466,74.2156 208.0058,88.6765"/>
    <polyline points="227.0268,63.7292 227.1799,74.6749 227.6391,81.449 228.4811,88.556 234.6428,88.0738 241.149,86.6271 246.3157,84.5872 249.9515,82.2909 250.5638,79.9946 249.7218,77.5835 246.3157,75.67 242.7181,75.1724 238.6231,74.6749 233.9157,75.0576 228.749,75.5552 236.0972,73.6033 240.8046,71.5749 244.0576,69.6231 245.1292,67.7095 244.8996,65.6428 243.6749,64.686 240.6515,63.3465 236.3268,62.6194 232.0021,62.5046 225.4768,62.8873"/>
    <line x1="254.5287" x2="255.1181" y1="88.4354" y2="88.3149"/>
  </g>
</svg>
