<?xml version="1.0" encoding="utf-8" ?>
<svg xmlns="http://www.w3.org/2000/svg" xmlns:cc="http://creativecommons.org/ns" xmlns:dc="http://purl.org/dc/elements/1.1/" xmlns:ev="http://www.w3.org/2001/xml-events" xmlns:inkscape="http://www.inkscape.org/namespaces/inkscape" xmlns:rdf="http://www.w3.org/1999/02/22-rdf-syntax-ns" xmlns:sodipodi="http://sodipodi.sourceforge.net/DTD/sodipodi-0.dtd" xmlns:xlink="http://www.w3.org/1999/xlink" baseProfile="tiny" height="4.0cm" version="1.2" viewBox="0 0 340.1574803149606 151.1811023622047" width="9.0cm">
  <metadata>
    <rdf:RDF>
      <cc:Work>
        <dc:format>image/svg+xml</dc:format>
        <dc:source>vpype read -m -l1 -c fanusele/andrea-s-.svg scaleto -l1 -o 0 0 4.5cm 1.5cm layout -l -v center -h center 9cmx4cm write fanusele/andrea-s-.out.svg
</dc:source>
        <dc:date>2022-11-20T19:54:11.976166</dc:date>
      </cc:Work>
    </rdf:RDF>
  </metadata>
  <defs/>
  <g fill="none" id="layer1" inkscape:groupmode="layer" inkscape:label="1" stroke="#010100" stroke-width="1.0" style="display:inline">
    <polyline points="85.0394,88.6106 89.7183,76.3343 92.6426,68.2242 94.7481,62.5705 95.372,62.6875 97.7114,66.5086 101.1427,73.488 103.5991,79.6485 105.7826,85.0488 107.6541,88.365"/>
    <polyline points="88.4706,79.2586 93.0325,78.2839 98.2963,76.6852 102.7413,75.8274 106.9133,74.8526"/>
    <polyline points="110.711,71.1875 110.8319,87.9965 110.711,76.1004 115.2574,73.137 119.6634,71.0315 122.5097,70.7976 124.5762,71.0315 125.9409,72.5132 126.9157,76.8022 126.7987,88.365"/>
    <polyline points="147.6589,63.3113 147.0741,73.6439 146.8011,80.2724 147.0741,85.661 147.191,87.9965 146.9571,81.5981 143.3699,85.4153 137.5992,87.9965 133.5442,88.2422 130.7368,86.6435 129.8634,82.4559 131.9455,78.4008 136.9754,74.9696 141.5373,74.2288 144.9685,74.7357 147.191,77.0751"/>
    <polyline points="152.8447,70.4467 152.3768,88.1174 153.5855,78.1669 156.5489,74.3458 160.331,72.1623 163.4113,70.9146 164.776,70.7976 168.831,71.1875 169.2989,71.5384"/>
    <polyline points="173.6269,77.1921 178.5398,77.0751 184.1935,76.9582 187.8586,76.3343 188.4825,74.9696 187.9756,73.6439 184.7783,70.7976 180.7233,70.7976 177.0581,72.1623 174.4847,74.5017 172.6132,79.2586 172.0127,82.105 171.8918,84.0545 173.9778,86.7683 177.409,88.4878 181.3471,88.2422 185.5192,87.2596 188.4825,85.7857 189.5742,84.4444"/>
    <polyline points="209.8496,77.9329 207.6271,82.8458 204.0399,86.1561 201.4665,87.6261 199.0101,88.4878 195.5789,88.1174 193.7463,86.8931 193.2394,83.0797 195.111,79.2586 197.5284,75.5935 201.4665,72.9031 204.4298,71.5384 206.6523,71.5384 209.3427,72.0453 209.8496,73.8779 210.3175,88.6106"/>
    <polyline points="248.9965,62.8044 243.9667,63.6622 238.8199,65.0269 234.141,66.3916 232.1524,67.9902 231.1776,69.199 230.8267,70.3297 231.8015,72.0453 236.9483,73.7609 241.7442,75.4765 246.6571,77.4261 249.3474,78.9077 250.9461,80.2724 250.8291,81.5981 248.7626,84.0545 243.9667,86.5227 238.313,88.365 234.141,88.6106 231.1776,88.2422 229.462,87.3844 228.8382,86.1561"/>
    <line x1="254.5176" x2="255.1181" y1="88.365" y2="88.2422"/>
  </g>
</svg>
