<svg xmlns="http://www.w3.org/2000/svg" xmlns:xlink="http://www.w3.org/1999/xlink" version="1.1" width="466" height="131"><g fill="none" fill-rule="nonzero" stroke="#010100" stroke-width="1" stroke-linecap="butt" stroke-linejoin="miter" stroke-miterlimit="10" stroke-dasharray="" stroke-dashoffset="0" font-family="none" font-weight="none" font-size="none" text-anchor="none" style="mix-blend-mode: normal" transform="scale(1)"><g><g id="text"><g id="text-line-0"><path d="M10.7,99.685l12,-31.485l7.5,-20.8l5.4,-14.5l1.6,0.3l6,9.8l8.8,17.9l6.3,15.8l5.6,13.85l4.8,8.505M19.5,75.7l11.7,-2.5l13.5,-4.1l11.4,-2.2l10.7,-2.5"></path><path d="M76.54,55l0.31,43.11l-0.31,-30.51l11.66,-7.6l11.3,-5.4l7.3,-0.6l5.3,0.6l3.5,3.8l2.5,11l-0.3,29.655"></path><path d="M171.3,34.8l-1.5,26.5l-0.7,17l0.7,13.82l0.3,5.99l-0.6,-16.41l-9.2,9.79l-14.8,6.62l-10.4,0.63l-7.2,-4.1l-2.24,-10.74l5.34,-10.4l12.9,-8.8l11.7,-1.9l8.8,1.3l5.7,6"></path><path d="M184.6,53.1l-1.2,45.32l3.1,-25.52l7.6,-9.8l9.7,-5.6l7.9,-3.2l3.5,-0.3l10.4,1l1.2,0.9"></path><path d="M237.9,70.4l12.6,-0.3l14.5,-0.3l9.4,-1.6l1.6,-3.5l-1.3,-3.4l-8.2,-7.3h-10.4l-9.4,3.5l-6.6,6l-4.8,12.2l-1.54,7.3l-0.31,5l5.35,6.96l8.8,4.41l10.1,-0.63l10.7,-2.52l7.6,-3.78l2.8,-3.44"></path><path d="M330.8,72.3l-5.7,12.6l-9.2,8.49l-6.6,3.77l-6.3,2.21l-8.8,-0.95l-4.7,-3.14l-1.3,-9.78l4.8,-9.8l6.2,-9.4l10.1,-6.9l7.6,-3.5h5.7l6.9,1.3l1.3,4.7l1.2,37.785"></path><path d="M381.7,34.5l0.4,28.6l1.2,17.7l2.2,18.57l16.1,-1.26l17,-3.78l13.5,-5.33l9.5,-6l1.6,-6l-2.2,-6.3l-8.9,-5l-9.4,-1.3l-10.7,-1.3l-12.3,1l-13.5,1.3l19.2,-5.1l12.3,-5.3l8.5,-5.1l2.8,-5l-0.6,-5.4l-3.2,-2.5l-7.9,-3.5l-11.3,-1.9l-11.3,-0.3l-17.05,1"></path><path d="M453.56,99.055l1.54,-0.315"></path></g></g></g></g></svg>