<?xml version="1.0" encoding="utf-8" ?>
<svg xmlns="http://www.w3.org/2000/svg" xmlns:cc="http://creativecommons.org/ns" xmlns:dc="http://purl.org/dc/elements/1.1/" xmlns:ev="http://www.w3.org/2001/xml-events" xmlns:inkscape="http://www.inkscape.org/namespaces/inkscape" xmlns:rdf="http://www.w3.org/1999/02/22-rdf-syntax-ns" xmlns:sodipodi="http://sodipodi.sourceforge.net/DTD/sodipodi-0.dtd" xmlns:xlink="http://www.w3.org/1999/xlink" baseProfile="tiny" height="5.3cm" version="1.2" viewBox="0 0 200.31496062992125 200.31496062992125" width="5.3cm">
  <metadata>
    <rdf:RDF>
      <cc:Work>
        <dc:format>image/svg+xml</dc:format>
        <dc:source>vpype read -l1 fanusele/ari.svg scaleto -l1 -o 0 0 3cm 3cm layout -h center -v center 5.3cmx5.3cm write fanusele/ari.out.svg
</dc:source>
        <dc:date>2022-11-20T19:04:23.124771</dc:date>
      </cc:Work>
    </rdf:RDF>
  </metadata>
  <defs/>
  <g fill="none" id="layer1" inkscape:groupmode="layer" inkscape:label="1" stroke="#010100" stroke-width="1.0" style="display:inline">
    <polyline points="43.4646,128.776 53.749,101.7923 60.1768,83.9659 64.8048,71.5389 66.176,71.796 71.3182,80.195 78.8601,95.5359 84.2595,109.0771 89.0589,120.947 93.1726,128.2361"/>
    <polyline points="51.0065,108.22 61.0338,106.0775 72.6038,102.5636 82.374,100.6781 91.5443,98.5355"/>
    <polyline points="103.1143,88.851 102.0858,127.6919 104.7426,105.8203 111.2561,97.4214 119.5693,92.622 126.3399,89.8795 129.3395,89.6224 138.2527,90.4794 139.2812,91.2507"/>
    <line x1="152.3081" x2="153.8508" y1="74.5385" y2="74.5385"/>
    <polyline points="154.4507,90.7365 155.222,125.2665 156.8504,126.8863"/>
  </g>
</svg>
