<svg xmlns="http://www.w3.org/2000/svg" xmlns:xlink="http://www.w3.org/1999/xlink" version="1.1" width="327" height="132"><g fill="none" fill-rule="nonzero" stroke="#010100" stroke-width="1" stroke-linecap="butt" stroke-linejoin="miter" stroke-miterlimit="10" stroke-dasharray="" stroke-dashoffset="0" font-family="none" font-weight="none" font-size="none" text-anchor="none" style="mix-blend-mode: normal" transform="scale(1)"><g><g id="text"><g id="text-line-0"><path d="M13.5,34.5l0.4,28.6l1.2,17.7l2.2,18.57l16.1,-1.26l17,-3.78l13.5,-5.33l9.5,-6l1.6,-6l-2.2,-6.3l-8.9,-5l-9.4,-1.3l-10.7,-1.3l-12.3,1l-13.5,1.3l19.2,-5.1l12.3,-5.3l8.5,-5.1l2.8,-5l-0.6,-5.4l-3.2,-2.5l-7.9,-3.5l-11.3,-1.9l-11.3,-0.3l-17.05,1"></path><path d="M93.6,36.4h1.8M96.1,55.3l0.9,40.29l1.9,1.89"></path><path d="M154.4,72.3l-5.7,12.6l-9.2,8.49l-6.6,3.77l-6.3,2.21l-8.8,-0.95l-4.7,-3.14l-1.3,-9.78l4.8,-9.8l6.2,-9.4l10.1,-6.9l7.6,-3.5h5.7l6.9,1.3l1.3,4.7l1.2,37.785"></path><path d="M163.14,55l0.31,43.11l-0.31,-30.51l11.66,-7.6l11.3,-5.4l7.3,-0.6l5.3,0.6l3.5,3.8l2.5,11l-0.3,29.655"></path><path d="M256.1,58.4l-3.2,-2.8l-9.4,-1l-10.1,3.8l-8.5,6.3l-9.2,12l-2.8,12.6l6,7.24l12.3,3.775l13.2,-0.63l9.4,-2.205l10.1,-5.36"></path><path d="M316.3,72.3l-5.7,12.6l-9.2,8.49l-6.6,3.77l-6.3,2.21l-8.8,-0.95l-4.7,-3.14l-1.3,-9.78l4.8,-9.8l6.2,-9.4l10.1,-6.9l7.6,-3.5h5.7l6.9,1.3l1.3,4.7l1.2,37.785"></path></g></g></g></g></svg>