<?xml version="1.0" encoding="utf-8" ?>
<svg xmlns="http://www.w3.org/2000/svg" xmlns:cc="http://creativecommons.org/ns" xmlns:dc="http://purl.org/dc/elements/1.1/" xmlns:ev="http://www.w3.org/2001/xml-events" xmlns:inkscape="http://www.inkscape.org/namespaces/inkscape" xmlns:rdf="http://www.w3.org/1999/02/22-rdf-syntax-ns" xmlns:sodipodi="http://sodipodi.sourceforge.net/DTD/sodipodi-0.dtd" xmlns:xlink="http://www.w3.org/1999/xlink" baseProfile="tiny" height="5.3cm" version="1.2" viewBox="0 0 200.31496062992125 200.31496062992125" width="5.3cm">
  <metadata>
    <rdf:RDF>
      <cc:Work>
        <dc:format>image/svg+xml</dc:format>
        <dc:source>vpype read -l1 fanusele/bianca.svg scaleto -l1 -o 0 0 3cm 3cm layout -h center -v center 5.3cmx5.3cm write fanusele/bianca.out.svg
</dc:source>
        <dc:date>2022-11-20T19:04:38.209895</dc:date>
      </cc:Work>
    </rdf:RDF>
  </metadata>
  <defs/>
  <g fill="none" id="layer1" inkscape:groupmode="layer" inkscape:label="1" stroke="#010100" stroke-width="1.0" style="display:inline">
    <polyline points="44.9553,88.6339 45.1025,99.1609 45.5442,105.6759 46.354,112.511 52.28,112.0473 58.5373,110.6559 63.5063,108.6941 67.003,106.4856 67.592,104.2772 66.7822,101.9583 63.5063,100.1179 60.0464,99.6394 56.108,99.1609 51.5806,99.529 46.6116,100.0075 53.6787,98.1303 58.206,96.1795 61.3347,94.3023 62.3653,92.4619 62.1444,90.4743 60.9666,89.5541 58.0588,88.2659 53.8995,87.5665 49.7403,87.4561 43.4646,87.8242"/>
    <line x1="74.4382" x2="75.1007" y1="89.3333" y2="89.3333"/>
    <polyline points="75.3584,96.2899 75.6896,111.1197 76.389,111.8154"/>
    <polyline points="96.8172,102.5472 94.7192,107.185 91.3329,110.3099 88.9036,111.6976 86.5847,112.511 83.3456,112.1614 81.6156,111.0056 81.1372,107.4058 82.9039,103.7987 85.186,100.3388 88.9036,97.799 91.7009,96.5108 93.799,96.5108 96.3387,96.9893 96.8172,98.7192 97.2589,112.627"/>
    <polyline points="100.0342,96.1795 100.1483,112.0473 100.0342,100.8173 104.3259,98.0199 108.4852,96.0323 111.1722,95.8114 113.123,96.0323 114.4112,97.431 115.3314,101.4798 115.221,112.3951"/>
    <polyline points="134.2505,97.431 133.0727,96.4003 129.6128,96.0323 125.8952,97.431 122.7666,99.7498 119.3803,104.1667 118.3496,108.8045 120.5581,111.4694 125.0854,112.8589 129.944,112.627 133.4039,111.8154 137.1215,109.8425"/>
    <polyline points="156.4087,102.5472 154.3107,107.185 150.9244,110.3099 148.4951,111.6976 146.1762,112.511 142.9371,112.1614 141.2072,111.0056 140.7287,107.4058 142.4954,103.7987 144.7775,100.3388 148.4951,97.799 151.2924,96.5108 153.3905,96.5108 155.9302,96.9893 156.4087,98.7192 156.8504,112.627"/>
  </g>
</svg>
