<svg xmlns="http://www.w3.org/2000/svg" xmlns:xlink="http://www.w3.org/1999/xlink" version="1.1" width="379" height="131"><g fill="none" fill-rule="nonzero" stroke="#010100" stroke-width="1" stroke-linecap="butt" stroke-linejoin="miter" stroke-miterlimit="10" stroke-dasharray="" stroke-dashoffset="0" font-family="none" font-weight="none" font-size="none" text-anchor="none" style="mix-blend-mode: normal" transform="scale(1)"><g><g id="text"><g id="text-line-0"><path d="M58,35.4l-3.8,-3.4l-9.5,-1.3l-11.9,3.8l-10.8,7.5l-6.6,9.5l-3.4,8.2l-1.6,9.1l-0.3,9.5l5,8.8l6.3,6.6l7.6,3.46l10.1,1.26l12.2,-1.88l9.8,-5.05l8.5,-6.59l6,-5.1"></path><path d="M128.3,72.3l-5.7,12.6l-9.2,8.49l-6.6,3.77l-6.3,2.21l-8.8,-0.95l-4.7,-3.14l-1.3,-9.78l4.8,-9.8l6.2,-9.4l10.1,-6.9l7.6,-3.5h5.7l6.9,1.3l1.3,4.7l1.2,37.785"></path><path d="M140.8,53.1l-1.2,45.32l3.1,-25.52l7.6,-9.8l9.7,-5.6l7.9,-3.2l3.5,-0.3l10.4,1l1.2,0.9"></path><path d="M192.5,53.7l0.6,45.985l3.8,-31.485l6.3,-9.5l11,-4.7l6.6,-0.3l4.4,2.8l3.5,8.5l-1.3,34.685l3.5,-32.085l7.6,-8.6l10.7,-5h9.1l5.7,2.5l1.2,7.9l0.4,14.8l0.6,19.54"></path><path d="M278.8,70.4l12.6,-0.3l14.5,-0.3l9.4,-1.6l1.6,-3.5l-1.3,-3.4l-8.2,-7.3h-10.4l-9.4,3.5l-6.6,6l-4.8,12.2l-1.54,7.3l-0.31,5l5.35,6.96l8.8,4.41l10.1,-0.63l10.7,-2.52l7.6,-3.78l2.8,-3.44"></path><path d="M327.24,55l0.31,43.11l-0.31,-30.51l11.66,-7.6l11.3,-5.4l7.3,-0.6l5.3,0.6l3.5,3.8l2.5,11l-0.3,29.655"></path></g></g></g></g></svg>