<?xml version="1.0" encoding="utf-8" ?>
<svg xmlns="http://www.w3.org/2000/svg" xmlns:cc="http://creativecommons.org/ns" xmlns:dc="http://purl.org/dc/elements/1.1/" xmlns:ev="http://www.w3.org/2001/xml-events" xmlns:inkscape="http://www.inkscape.org/namespaces/inkscape" xmlns:rdf="http://www.w3.org/1999/02/22-rdf-syntax-ns" xmlns:sodipodi="http://sodipodi.sourceforge.net/DTD/sodipodi-0.dtd" xmlns:xlink="http://www.w3.org/1999/xlink" baseProfile="tiny" height="4.0cm" version="1.2" viewBox="0 0 340.1574803149606 151.1811023622047" width="9.0cm">
  <metadata>
    <rdf:RDF>
      <cc:Work>
        <dc:format>image/svg+xml</dc:format>
        <dc:source>vpype read -m -l1 -c fanusele/carmen.svg scaleto -l1 -o 0 0 4.5cm 1.5cm layout -l -v center -h center 9cmx4cm write fanusele/carmen.out.svg
</dc:source>
        <dc:date>2022-11-20T20:02:44.703326</dc:date>
      </cc:Work>
    </rdf:RDF>
  </metadata>
  <defs/>
  <g fill="none" id="layer1" inkscape:groupmode="layer" inkscape:label="1" stroke="#010100" stroke-width="1.0" style="display:inline">
    <polyline points="107.7513,61.4643 105.9495,59.8522 101.4451,59.2358 95.8026,61.0376 90.6818,64.5938 87.5524,69.0982 85.9403,72.9863 85.1816,77.3011 85.0394,81.8055 87.4101,85.9781 90.3973,89.1075 94.0009,90.748 98.7898,91.3455 104.5745,90.4541 109.2212,88.0596 113.2515,84.9349 116.0964,82.5167"/>
    <polyline points="141.0843,78.9606 138.3816,84.9349 134.0194,88.9605 130.89,90.748 127.9028,91.7959 123.7303,91.3455 121.5017,89.8566 120.8853,85.2194 123.1613,80.5727 126.101,76.1157 130.89,72.844 134.4935,71.1845 137.1962,71.1845 140.4679,71.8009 141.0843,74.0294 141.6533,91.9453"/>
    <polyline points="147.0112,69.8569 146.4422,91.3455 147.9121,79.2451 151.5156,74.5984 156.1149,71.9431 159.8607,70.4258 161.5203,70.2836 166.4515,70.7577 167.0205,71.1845"/>
    <polyline points="171.5249,70.1413 171.8094,91.9453 173.6112,77.0166 176.5983,72.5121 181.814,70.2836 184.9434,70.1413 187.0297,71.469 188.6893,75.4993 188.0729,91.9453 189.7324,76.7321 193.336,72.6544 198.4094,70.2836 202.7242,70.2836 205.4269,71.469 205.9958,75.2148 206.1855,82.2323 206.47,91.4972"/>
    <polyline points="212.4443,78.0597 218.4187,77.9175 225.2939,77.7752 229.7509,77.0166 230.5096,75.357 229.8932,73.7449 226.0051,70.2836 221.0739,70.2836 216.6169,71.9431 213.4875,74.788 211.2115,80.5727 210.4813,84.034 210.3343,86.4048 212.8711,89.7049 217.0436,91.7959 221.8326,91.4972 226.906,90.3023 230.5096,88.51 231.8372,86.879"/>
    <polyline points="235.4123,70.7577 235.5593,91.1985 235.4123,76.7321 240.9409,73.1285 246.2989,70.5681 249.7602,70.2836 252.2732,70.5681 253.9327,72.3699 255.1181,77.5856 254.9759,91.6466"/>
  </g>
</svg>
