<svg xmlns="http://www.w3.org/2000/svg" xmlns:xlink="http://www.w3.org/1999/xlink" version="1.1" width="380" height="131"><g fill="none" fill-rule="nonzero" stroke="#010100" stroke-width="1" stroke-linecap="butt" stroke-linejoin="miter" stroke-miterlimit="10" stroke-dasharray="" stroke-dashoffset="0" font-family="none" font-weight="none" font-size="none" text-anchor="none" style="mix-blend-mode: normal" transform="scale(1)"><g><g id="text"><g id="text-line-0"><path d="M58,35.4l-3.8,-3.4l-9.5,-1.3l-11.9,3.8l-10.8,7.5l-6.6,9.5l-3.4,8.2l-1.6,9.1l-0.3,9.5l5,8.8l6.3,6.6l7.6,3.46l10.1,1.26l12.2,-1.88l9.8,-5.05l8.5,-6.59l6,-5.1"></path><path d="M87.6,53.1l-1.2,45.32l3.1,-25.52l7.6,-9.8l9.7,-5.6l7.9,-3.2l3.5,-0.3l10.4,1l1.2,0.9"></path><path d="M145,36.4h1.8M147.5,55.3l0.9,40.29l1.9,1.89"></path><path d="M202.3,57.2l-3.2,-3.2h-9.4l-10.7,2.2l-9.8,5.1l-4.1,6.6v7.2l4.1,3.2h9.1l9.8,-1.9l6.3,0.3l5,1.9l3.2,2.8l-0.9,4.7l-9.8,7.6l-12.6,3.46l-7.3,2.84l-3.1,-0.315"></path><path d="M226.5,32.9l1.6,66.47l-0.9,-37.17h-19.26l35.86,-0.3"></path><path d="M258.7,36.4h1.8M261.2,55.3l0.9,40.29l1.9,1.89"></path><path d="M319.5,72.3l-5.7,12.6l-9.2,8.49l-6.6,3.77l-6.3,2.21l-8.8,-0.95l-4.7,-3.14l-1.3,-9.78l4.8,-9.8l6.2,-9.4l10.1,-6.9l7.6,-3.5h5.7l6.9,1.3l1.3,4.7l1.2,37.785"></path><path d="M328.24,55l0.31,43.11l-0.31,-30.51l11.66,-7.6l11.3,-5.4l7.3,-0.6l5.3,0.6l3.5,3.8l2.5,11l-0.3,29.655"></path></g></g></g></g></svg>