<?xml version="1.0" encoding="utf-8" ?>
<svg xmlns="http://www.w3.org/2000/svg" xmlns:cc="http://creativecommons.org/ns" xmlns:dc="http://purl.org/dc/elements/1.1/" xmlns:ev="http://www.w3.org/2001/xml-events" xmlns:inkscape="http://www.inkscape.org/namespaces/inkscape" xmlns:rdf="http://www.w3.org/1999/02/22-rdf-syntax-ns" xmlns:sodipodi="http://sodipodi.sourceforge.net/DTD/sodipodi-0.dtd" xmlns:xlink="http://www.w3.org/1999/xlink" baseProfile="tiny" height="4.0cm" version="1.2" viewBox="0 0 340.1574803149606 151.1811023622047" width="9.0cm">
  <metadata>
    <rdf:RDF>
      <cc:Work>
        <dc:format>image/svg+xml</dc:format>
        <dc:source>vpype read -m -l1 -c fanusele/cristian.svg scaleto -l1 -o 0 0 4.5cm 1.5cm layout -l -v center -h center 9cmx4cm write fanusele/cristian.out.svg
</dc:source>
        <dc:date>2022-11-20T19:53:56.074055</dc:date>
      </cc:Work>
    </rdf:RDF>
  </metadata>
  <defs/>
  <g fill="none" id="layer1" inkscape:groupmode="layer" inkscape:label="1" stroke="#010100" stroke-width="1.0" style="display:inline">
    <polyline points="107.6882,61.4291 105.8914,59.8215 101.3995,59.2068 95.7727,61.0036 90.6661,64.5499 87.5454,69.0418 85.9378,72.919 85.1812,77.2218 85.0394,81.7138 87.4035,85.8747 90.3824,88.9954 93.976,90.6314 98.7516,91.2272 104.5202,90.3383 109.154,87.9505 113.1731,84.8345 116.0101,82.423"/>
    <polyline points="121.6841,69.7983 121.1167,91.2272 122.5825,79.1605 126.176,74.5267 130.7625,71.8788 134.4979,70.3657 136.1528,70.2239 141.0703,70.6967 141.6377,71.1223"/>
    <line x1="148.8248" x2="149.6759" y1="61.902" y2="61.902"/>
    <polyline points="150.0069,70.8386 150.4324,89.8891 151.3308,90.7827"/>
    <polyline points="175.9183,71.7369 174.4052,70.2239 169.9605,70.2239 164.9012,71.2641 160.2674,73.6756 158.3288,76.7963 158.3288,80.2007 160.2674,81.7138 164.5702,81.7138 169.204,80.8154 172.1829,80.9572 174.547,81.8556 176.0601,83.1796 175.6346,85.4019 171.0008,88.9954 165.043,90.6314 161.5914,91.9743 160.1256,91.8253"/>
    <polyline points="187.3609,60.2471 188.1174,91.6764 187.6918,74.1011 178.585,74.1011 195.5409,73.9593"/>
    <line x1="202.5861" x2="203.4372" y1="61.902" y2="61.902"/>
    <polyline points="203.7682,70.8386 204.1938,89.8891 205.0922,90.7827"/>
    <polyline points="231.3345,78.8768 228.6394,84.8345 224.2893,88.8488 221.1686,90.6314 218.1897,91.6764 214.0288,91.2272 211.8064,89.7425 211.1917,85.1182 213.4613,80.4844 216.3929,76.0397 221.1686,72.7772 224.7621,71.1223 227.4573,71.1223 230.7198,71.7369 231.3345,73.9593 231.9019,91.8253"/>
    <polyline points="235.4671,70.6967 235.6137,91.0806 235.4671,76.6544 240.9803,73.0609 246.3234,70.5076 249.7751,70.2239 252.2811,70.5076 253.936,72.3043 255.1181,77.5055 254.9763,91.5275"/>
  </g>
</svg>
