<?xml version="1.0" encoding="utf-8" ?>
<svg xmlns="http://www.w3.org/2000/svg" xmlns:cc="http://creativecommons.org/ns" xmlns:dc="http://purl.org/dc/elements/1.1/" xmlns:ev="http://www.w3.org/2001/xml-events" xmlns:inkscape="http://www.inkscape.org/namespaces/inkscape" xmlns:rdf="http://www.w3.org/1999/02/22-rdf-syntax-ns" xmlns:sodipodi="http://sodipodi.sourceforge.net/DTD/sodipodi-0.dtd" xmlns:xlink="http://www.w3.org/1999/xlink" baseProfile="tiny" height="4.0cm" version="1.2" viewBox="0 0 340.1574803149606 151.1811023622047" width="9.0cm">
  <metadata>
    <rdf:RDF>
      <cc:Work>
        <dc:format>image/svg+xml</dc:format>
        <dc:source>vpype read -m -l1 -c fanusele/daniele.svg scaleto -l1 -o 0 0 4.5cm 1.5cm layout -l -v center -h center 9cmx4cm write fanusele/daniele.out.svg
</dc:source>
        <dc:date>2022-11-20T19:32:30.460408</dc:date>
      </cc:Work>
    </rdf:RDF>
  </metadata>
  <defs/>
  <g fill="none" id="layer1" inkscape:groupmode="layer" inkscape:label="1" stroke="#010100" stroke-width="1.0" style="display:inline">
    <polyline points="85.0394,57.6099 85.2033,94.4457 90.1767,93.7571 96.2431,91.8661 102.5828,88.5979 107.7748,84.9908 111.8738,80.8372 115.1529,76.0278 116.1913,72.0381 115.6995,67.6113 112.0377,63.2937 106.0259,60.0146 100.1781,58.4843 94.1663,58.1017 89.6848,58.6483 85.2033,59.6867"/>
    <polyline points="144.9932,79.3069 141.878,86.1931 136.85,90.8331 133.2429,92.8935 129.7998,94.1014 124.9904,93.5822 122.4217,91.8661 121.7112,86.5211 124.3346,81.1651 127.723,76.0278 133.2429,72.2567 137.3965,70.3439 140.5117,70.3439 144.2827,71.0544 144.9932,73.6231 145.649,94.2735"/>
    <polyline points="149.7699,69.852 149.9393,93.4127 149.7699,76.7383 156.1423,72.5847 162.3181,69.6334 166.3077,69.3055 169.2043,69.6334 171.1171,71.7102 172.4835,77.722 172.3195,93.9292"/>
    <line x1="181.1186" x2="182.1023" y1="59.6867" y2="59.6867"/>
    <polyline points="182.4849,70.016 182.9767,92.0355 184.0151,93.0684"/>
    <polyline points="192.6502,78.2685 199.5365,78.1046 207.4611,77.9406 212.5984,77.0662 213.4729,75.1533 212.7624,73.2951 208.2809,69.3055 202.597,69.3055 197.4597,71.2183 193.8526,74.4975 191.2293,81.1651 190.3876,85.1547 190.2182,87.8874 193.1421,91.6912 197.9515,94.1014 203.4714,93.7571 209.3193,92.3798 213.4729,90.3139 215.0031,88.4339"/>
    <polyline points="223.2557,56.7354 223.7475,80.8372 224.1301,92.2104"/>
    <polyline points="232.7652,78.2685 239.6514,78.1046 247.5761,77.9406 252.7134,77.0662 253.5878,75.1533 252.8774,73.2951 248.3958,69.3055 242.712,69.3055 237.5746,71.2183 233.9676,74.4975 231.3443,81.1651 230.5026,85.1547 230.3332,87.8874 233.2571,91.6912 238.0665,94.1014 243.5864,93.7571 249.4342,92.3798 253.5878,90.3139 255.1181,88.4339"/>
  </g>
</svg>
