<svg xmlns="http://www.w3.org/2000/svg" xmlns:xlink="http://www.w3.org/1999/xlink" version="1.1" width="324" height="133"><g fill="none" fill-rule="nonzero" stroke="#010100" stroke-width="1" stroke-linecap="butt" stroke-linejoin="miter" stroke-miterlimit="10" stroke-dasharray="" stroke-dashoffset="0" font-family="none" font-weight="none" font-size="none" text-anchor="none" style="mix-blend-mode: normal" transform="scale(1)"><g><g id="text"><g id="text-line-0"><path d="M12.3,32.6l0.3,67.4l9.1,-1.26l11.1,-3.46l11.6,-5.98l9.5,-6.6l7.5,-7.6l6,-8.8l1.9,-7.3l-0.9,-8.1l-6.7,-7.9l-11,-6l-10.7,-2.8l-11,-0.7l-8.2,1l-8.2,1.9"></path><path d="M122,72.3l-5.7,12.6l-9.2,8.49l-6.6,3.77l-6.3,2.21l-8.8,-0.95l-4.7,-3.14l-1.3,-9.78l4.8,-9.8l6.2,-9.4l10.1,-6.9l7.6,-3.5h5.7l6.9,1.3l1.3,4.7l1.2,37.785"></path><path d="M133.9,53.4l21.4,40.93l2.5,4.09l6.3,-15.12l13.6,-28.3"></path><path d="M193.5,36.4h1.8M196,55.3l0.9,40.29l1.9,1.89"></path><path d="M256.1,34.8l-1.5,26.5l-0.7,17l0.7,13.82l0.3,5.99l-0.6,-16.41l-9.2,9.79l-14.8,6.62l-10.4,0.63l-7.2,-4.1l-2.24,-10.74l5.34,-10.4l12.9,-8.8l11.7,-1.9l8.8,1.3l5.7,6"></path><path d="M270.4,70.4l12.6,-0.3l14.5,-0.3l9.4,-1.6l1.6,-3.5l-1.3,-3.4l-8.2,-7.3h-10.4l-9.4,3.5l-6.6,6l-4.8,12.2l-1.54,7.3l-0.31,5l5.35,6.96l8.8,4.41l10.1,-0.63l10.7,-2.52l7.6,-3.78l2.8,-3.44"></path></g></g></g></g></svg>