<svg xmlns="http://www.w3.org/2000/svg" xmlns:xlink="http://www.w3.org/1999/xlink" version="1.1" width="471" height="131"><g fill="none" fill-rule="nonzero" stroke="#010100" stroke-width="1" stroke-linecap="butt" stroke-linejoin="miter" stroke-miterlimit="10" stroke-dasharray="" stroke-dashoffset="0" font-family="none" font-weight="none" font-size="none" text-anchor="none" style="mix-blend-mode: normal" transform="scale(1)"><g><g id="text"><g id="text-line-0"><path d="M53.9,33.2l-41,1.3l-0.3,34.6l42.2,-4.7l-41.9,4.7l1.3,28.69l48.5,-3.15"></path><path d="M78.8,31l0.9,44.1l0.7,20.81"></path><path d="M100.3,36.4h1.8M102.8,55.3l0.9,40.29l1.9,1.89"></path><path d="M157.6,57.2l-3.2,-3.2h-9.4l-10.7,2.2l-9.8,5.1l-4.1,6.6v7.2l4.1,3.2h9.1l9.8,-1.9l6.3,0.3l5,1.9l3.2,2.8l-0.9,4.7l-9.8,7.6l-12.6,3.46l-7.3,2.84l-3.1,-0.315"></path><path d="M207.7,72.3l-5.7,12.6l-9.2,8.49l-6.6,3.77l-6.3,2.21l-8.8,-0.95l-4.7,-3.14l-1.3,-9.78l4.8,-9.8l6.2,-9.4l10.1,-6.9l7.6,-3.5h5.7l6.9,1.3l1.3,4.7l1.2,37.785"></path><path d="M221.8,32.9l0.6,63.01l4.7,1.88l8.2,-1.57l12.3,-5.04l15.1,-11.98l6,-10.4l2.2,-8.2l-1.9,-4.4l-4.7,-1.9l-11,1l-9.8,6.6l-10.7,7.5l-9.7,13.9"></path><path d="M280.1,70.4l12.6,-0.3l14.5,-0.3l9.4,-1.6l1.6,-3.5l-1.3,-3.4l-8.2,-7.3h-10.4l-9.4,3.5l-6.6,6l-4.8,12.2l-1.54,7.3l-0.31,5l5.35,6.96l8.8,4.41l10.1,-0.63l10.7,-2.52l7.6,-3.78l2.8,-3.44"></path><path d="M347.1,32.9l1.6,66.47l-0.9,-37.17h-19.26l35.86,-0.3"></path><path d="M389,32.9l1.6,66.47l-0.9,-37.17h-19.26l35.86,-0.3"></path><path d="M456.8,72.3l-5.7,12.6l-9.2,8.49l-6.6,3.77l-6.3,2.21l-8.8,-0.95l-4.7,-3.14l-1.3,-9.78l4.8,-9.8l6.2,-9.4l10.1,-6.9l7.6,-3.5h5.7l6.9,1.3l1.3,4.7l1.2,37.785"></path></g></g></g></g></svg>