<?xml version="1.0" encoding="utf-8" ?>
<svg xmlns="http://www.w3.org/2000/svg" xmlns:cc="http://creativecommons.org/ns" xmlns:dc="http://purl.org/dc/elements/1.1/" xmlns:ev="http://www.w3.org/2001/xml-events" xmlns:inkscape="http://www.inkscape.org/namespaces/inkscape" xmlns:rdf="http://www.w3.org/1999/02/22-rdf-syntax-ns" xmlns:sodipodi="http://sodipodi.sourceforge.net/DTD/sodipodi-0.dtd" xmlns:xlink="http://www.w3.org/1999/xlink" baseProfile="tiny" height="4.0cm" version="1.2" viewBox="0 0 340.1574803149606 151.1811023622047" width="9.0cm">
  <metadata>
    <rdf:RDF>
      <cc:Work>
        <dc:format>image/svg+xml</dc:format>
        <dc:source>vpype read -m -l1 -c fanusele/elisabetta.svg scaleto -l1 -o 0 0 4.5cm 1.5cm layout -l -v center -h center 9cmx4cm write fanusele/elisabetta.out.svg
</dc:source>
        <dc:date>2022-11-20T19:54:16.231128</dc:date>
      </cc:Work>
    </rdf:RDF>
  </metadata>
  <defs/>
  <g fill="none" id="layer1" inkscape:groupmode="layer" inkscape:label="1" stroke="#010100" stroke-width="1.0" style="display:inline">
    <polyline points="100.81,63.2566 85.1539,63.753 85.0394,76.9652 101.1537,75.1705 85.1539,76.9652 85.6503,87.9207 104.1704,86.7178"/>
    <polyline points="110.3182,62.4165 110.6619,79.2564 110.9292,87.2028"/>
    <line x1="118.5282" x2="119.2155" y1="64.4785" y2="64.4785"/>
    <polyline points="119.4828,71.6956 119.8265,87.0806 120.552,87.8023"/>
    <polyline points="140.4085,72.4211 139.1866,71.1992 135.5971,71.1992 131.5113,72.0393 127.7691,73.9868 126.2035,76.507 126.2035,79.2564 127.7691,80.4783 131.244,80.4783 134.9862,79.7528 137.3919,79.8673 139.3011,80.5929 140.5231,81.6621 140.1794,83.4568 136.4372,86.3589 131.6258,87.6801 128.8383,88.7646 127.6545,88.6443"/>
    <polyline points="159.5395,78.1872 157.3629,82.9986 153.8499,86.2405 151.3296,87.6801 148.9239,88.524 145.5636,88.1613 143.7688,86.9622 143.2724,83.2277 145.1053,79.4855 147.4729,75.896 151.3296,73.2612 154.2317,71.9247 156.4083,71.9247 159.0431,72.4211 159.5395,74.2159 159.9977,88.6443"/>
    <polyline points="164.9237,63.142 165.1528,87.2028 166.9475,87.9207 170.0787,87.3212 174.7756,85.3966 180.5416,80.822 182.8327,76.8507 183.6728,73.7195 182.9473,72.0393 181.1526,71.3138 176.9522,71.6956 173.21,74.2159 169.1241,77.0798 165.4201,82.3876"/>
    <polyline points="187.1859,77.4616 191.9973,77.3471 197.5342,77.2325 201.1236,76.6216 201.7346,75.2851 201.2382,73.9868 198.107,71.1992 194.1357,71.1992 190.5462,72.5357 188.026,74.8268 186.1931,79.4855 185.605,82.273 185.4866,84.1823 187.5296,86.84 190.8899,88.524 194.7466,88.2835 198.8325,87.3212 201.7346,85.8778 202.8038,84.5642"/>
    <polyline points="212.7703,63.142 213.3812,88.524 213.0376,74.3304 205.683,74.3304 219.3764,74.2159"/>
    <polyline points="228.77,63.142 229.381,88.524 229.0373,74.3304 221.6828,74.3304 235.3761,74.2159"/>
    <polyline points="254.6599,78.1872 252.4833,82.9986 248.9702,86.2405 246.45,87.6801 244.0443,88.524 240.6839,88.1613 238.8892,86.9622 238.3928,83.2277 240.2257,79.4855 242.5932,75.896 246.45,73.2612 249.3521,71.9247 251.5287,71.9247 254.1635,72.4211 254.6599,74.2159 255.1181,88.6443"/>
  </g>
</svg>
