<?xml version="1.0" encoding="utf-8" ?>
<svg xmlns="http://www.w3.org/2000/svg" xmlns:cc="http://creativecommons.org/ns" xmlns:dc="http://purl.org/dc/elements/1.1/" xmlns:ev="http://www.w3.org/2001/xml-events" xmlns:inkscape="http://www.inkscape.org/namespaces/inkscape" xmlns:rdf="http://www.w3.org/1999/02/22-rdf-syntax-ns" xmlns:sodipodi="http://sodipodi.sourceforge.net/DTD/sodipodi-0.dtd" xmlns:xlink="http://www.w3.org/1999/xlink" baseProfile="tiny" height="5.3cm" version="1.2" viewBox="0 0 200.31496062992125 200.31496062992125" width="5.3cm">
  <metadata>
    <rdf:RDF>
      <cc:Work>
        <dc:format>image/svg+xml</dc:format>
        <dc:source>vpype read -l1 fanusele/enea-lupo.svg scaleto -l1 -o 0 0 3cm 3cm layout -h center -v center 5.3cmx5.3cm write fanusele/enea-lupo.out.svg
</dc:source>
        <dc:date>2022-11-20T19:04:53.461389</dc:date>
      </cc:Work>
    </rdf:RDF>
  </metadata>
  <defs/>
  <g fill="none" id="layer1" inkscape:groupmode="layer" inkscape:label="1" stroke="#010100" stroke-width="1.0" style="display:inline">
    <polyline points="53.5373,87.4385 43.5377,87.7555 43.4646,96.1942 53.7568,95.0479 43.5377,96.1942 43.8548,103.1915 55.6836,102.4232"/>
    <polyline points="57.7664,92.7553 57.8421,103.2696 57.7664,95.8284 60.6102,93.9748 63.3662,92.6578 65.1466,92.5114 66.4393,92.6578 67.2929,93.5846 67.9026,96.2674 67.8295,103.5"/>
    <polyline points="70.7562,96.5113 73.8292,96.4381 77.3657,96.3649 79.6583,95.9747 80.0485,95.1211 79.7314,94.2919 77.7315,92.5114 75.195,92.5114 72.9024,93.3651 71.2928,94.8284 70.1221,97.8039 69.7465,99.5843 69.6709,100.8038 70.9757,102.5013 73.1219,103.5769 75.5853,103.4232 78.1949,102.8086 80.0485,101.8867 80.7314,101.0477"/>
    <polyline points="93.4138,96.9747 92.0237,100.0477 89.7798,102.1184 88.1701,103.0379 86.6336,103.5769 84.4874,103.3452 83.3411,102.5793 83.024,100.1941 84.1947,97.8039 85.7068,95.5113 88.1701,93.8285 90.0237,92.9748 91.4139,92.9748 93.0968,93.2919 93.4138,94.4382 93.7065,103.6537"/>
    <polyline points="106.1451,87.3653 106.1451,87.5116 106.2182,94.1943 106.2182,98.1941 105.9987,101.655 105.9255,103.0379 110.8278,103.0379 117.8275,103.1915"/>
    <polyline points="120.8762,92.5114 120.2665,96.0479 120.0469,100.1209 120.9737,102.5013 122.8761,103.5 126.1199,103.2696 127.9491,102.1184 128.949,101.655 129.949,100.2672 130.6563,98.8039 130.0953,92.2188 130.8758,103.4232"/>
    <polyline points="132.4123,92.9748 132.5587,112.9497 132.4855,94.5114 135.2659,92.9748 138.4121,92.2919 141.9485,92.8285 143.0948,94.5114 142.8753,97.121 141.7778,98.9014 139.5584,100.8038 137.2658,101.9647 132.6562,103.1159"/>
    <polyline points="150.8506,92.2919 147.7776,93.6577 146.1679,95.9747 145.0948,98.2673 145.6313,101.3477 146.6313,103.0379 149.8751,103.5769 152.5579,102.8866 155.3139,101.1209 156.8504,98.2673 156.3138,94.7309 155.0944,93.3651 153.7042,92.5114 150.8506,92.2919"/>
  </g>
</svg>
