<svg xmlns="http://www.w3.org/2000/svg" xmlns:xlink="http://www.w3.org/1999/xlink" version="1.1" width="202" height="176"><g fill="none" fill-rule="nonzero" stroke="#010100" stroke-width="1" stroke-linecap="butt" stroke-linejoin="miter" stroke-miterlimit="10" stroke-dasharray="" stroke-dashoffset="0" font-family="none" font-weight="none" font-size="none" text-anchor="none" style="mix-blend-mode: normal" transform="scale(1)"><g><g id="text"><g id="text-line-0"><path d="M53.9,33.2l-41,1.3l-0.3,34.6l42.2,-4.7l-41.9,4.7l1.3,28.69l48.5,-3.15"></path><path d="M71.24,55l0.31,43.11l-0.31,-30.51l11.66,-7.6l11.3,-5.4l7.3,-0.6l5.3,0.6l3.5,3.8l2.5,11l-0.3,29.655"></path><path d="M166,73.9l-6.6,11.3l-11.9,9.44l-13,4.73h-9.1l-2.8,-4.73l3.8,-11.94l9.4,-14.2l10.7,-8.8l6.9,-3.5l7,1l5.6,4.4l1.6,44.7l-1.2,15.1l-3.5,9.5l-4.4,6.3l-4.1,3.4l-5.4,1l-4.1,0.3l-11.3,-0.3"></path><path d="M183.7,36.4h1.8M186.2,55.3l0.9,40.29l1.9,1.89"></path></g></g></g></g></svg>