<?xml version="1.0" encoding="utf-8" ?>
<svg xmlns="http://www.w3.org/2000/svg" xmlns:cc="http://creativecommons.org/ns" xmlns:dc="http://purl.org/dc/elements/1.1/" xmlns:ev="http://www.w3.org/2001/xml-events" xmlns:inkscape="http://www.inkscape.org/namespaces/inkscape" xmlns:rdf="http://www.w3.org/1999/02/22-rdf-syntax-ns" xmlns:sodipodi="http://sodipodi.sourceforge.net/DTD/sodipodi-0.dtd" xmlns:xlink="http://www.w3.org/1999/xlink" baseProfile="tiny" height="7.0cm" version="1.2" viewBox="0 0 243.0 264.56692913385825" width="6.429375cm">
  <metadata>
    <rdf:RDF>
      <cc:Work>
        <dc:format>image/svg+xml</dc:format>
        <dc:source>vpype pagesize 7cmx2cm read -m -l1 -c fanusele/fanu.svg scaleto -l1 -o 0 0 1.5cm 1.5cm translate -l1 0.15cm 1.2cm read -m -l2 -c fanusele/and.svg scaleto -l2 -o 0 0 0.5cm 0.5cm translate -l2 0.75cm 1.85cm read -m -l3 -c fanusele/sele.svg scaleto -l3 -o 0 0 1.5cm 1.5cm translate -l3 0.15cm 2.5cm rotate -o 0 0 -- -90 translate 0 2cm write fanusele/fanusele.out.svg
</dc:source>
        <dc:date>2022-11-20T15:33:38.923068</dc:date>
      </cc:Work>
    </rdf:RDF>
  </metadata>
  <defs/>
  <g fill="none" id="layer1" inkscape:groupmode="layer" inkscape:label="1" stroke="#010100" stroke-width="1.0" style="display:inline">
    <polyline points="54.2093,50.0368 54.5499,55.7218 55.2049,59.5992 55.5454,63.1621 56.1218,65.8867 53.7378,66.3845 57.6937,65.5462 61.8068,64.8126 64.1122,64.8126 64.872,66.4631 63.6407,63.3193 62.6451,57.2937 61.7282,51.7659 63.6407,63.3979 64.2956,64.8126 71.305,64.8912"/>
    <polyline points="64.2956,36.6495 67.5966,38.1428 69.8208,40.5531 70.8085,42.2822 71.3875,43.9326 71.1386,46.2381 70.316,47.4694 67.7538,47.81 65.1864,46.5525 62.7237,44.9282 60.9161,42.2822 59.9991,40.2911 59.9991,38.7978 60.3397,36.9901 61.571,36.6495 71.47,36.3352"/>
    <polyline points="59.7633,34.3598 71.0574,34.2786 63.0643,34.3598 61.0733,31.3051 59.6586,28.3447 59.5014,26.4322 59.6586,25.0437 60.6541,24.1268 63.5359,23.4718 71.305,23.5504"/>
    <polyline points="59.5014,20.5114 63.3001,21.1664 67.6752,21.4022 70.2321,20.4067 71.305,18.3632 71.0574,14.8788 69.8208,12.914 69.3231,11.8398 67.8324,10.7657 66.2605,10.006 59.187,10.6085 71.2224,9.7702"/>
  </g>
  <g fill="none" id="layer2" inkscape:groupmode="layer" inkscape:label="2" stroke="#010100" stroke-width="1.0" style="display:inline">
    <polyline points="89.0165,26.5185 91.1167,28.1765 93.0234,30.5254 95.1181,33.7586 96.685,36.8813 97.4684,39.7552 97.3814,42.1041 96.7706,43.32 95.0297,43.2371 93.5485,42.5463 87.5519,38.0143 84.2358,36.1904 82.4119,35.7483 80.5052,35.4996 79.1787,35.9141 78.5708,36.7155 78.7642,37.9314 79.6209,39.5065 81.0302,40.6395 82.2461,41.1646 84.6779,41.2475 86.5847,40.8053 88.4085,39.5894 89.7073,38.5393 91.6417,36.4391 94.1564,33.4823 95.7288,30.6083 96.4252,28.9503 96.4252,28.2594"/>
  </g>
  <g fill="none" id="layer3" inkscape:groupmode="layer" inkscape:label="3" stroke="#010100" stroke-width="1.0" style="display:inline">
    <polyline points="104.7932,50.5417 105.4699,54.5099 106.5466,58.5704 107.6232,62.2617 108.8844,63.8305 109.838,64.5996 110.7301,64.8764 112.0836,64.1074 113.4371,60.0469 114.7906,56.2633 116.3286,52.3874 117.4976,50.2648 118.5742,49.0036 119.6201,49.0959 121.5581,50.7263 123.5052,54.5099 124.9587,58.9703 125.1525,62.2617 124.8618,64.5996 124.1851,65.9531 123.2161,66.4452"/>
    <polyline points="116.1441,44.9124 116.0518,41.0365 115.9595,36.5761 115.4673,33.6846 114.3907,33.1924 113.3448,33.5923 111.0992,36.1147 111.0992,39.3139 112.1759,42.2054 114.0216,44.2356 117.7744,45.7122 120.02,46.1859 121.5581,46.2813 123.699,44.6355 125.0556,41.9286 124.8618,38.8217 124.0866,35.5302 122.9239,33.1924 121.8657,32.3311"/>
    <polyline points="104.0242,27.6861 117.5899,27.4093 123.9913,27.1939"/>
    <polyline points="116.1441,22.3337 116.0518,18.4578 115.9595,13.9974 115.4673,11.1058 114.3907,10.6136 113.3448,11.0135 111.0992,13.536 111.0992,16.7351 112.1759,19.6267 114.0216,21.6569 117.7744,23.1335 120.02,23.6072 121.5581,23.7025 123.699,22.0568 125.0556,19.3498 124.8618,16.2429 124.0866,12.9515 122.9239,10.6136 121.8657,9.7523"/>
  </g>
</svg>
