<?xml version="1.0" encoding="utf-8" ?>
<svg xmlns="http://www.w3.org/2000/svg" xmlns:cc="http://creativecommons.org/ns" xmlns:dc="http://purl.org/dc/elements/1.1/" xmlns:ev="http://www.w3.org/2001/xml-events" xmlns:inkscape="http://www.inkscape.org/namespaces/inkscape" xmlns:rdf="http://www.w3.org/1999/02/22-rdf-syntax-ns" xmlns:sodipodi="http://sodipodi.sourceforge.net/DTD/sodipodi-0.dtd" xmlns:xlink="http://www.w3.org/1999/xlink" baseProfile="tiny" height="7.5cm" version="1.2" viewBox="0 0 476.22047244094483 283.4645669291338" width="12.6cm">
  <metadata>
    <rdf:RDF>
      <cc:Work>
        <dc:format>image/svg+xml</dc:format>
        <dc:source>vpype read -m -l1 -c fanusele/fanu-posto.svg layout -l -v center -h center -m 1cm 12.6cmx7.5cm write fanusele/fanu-posto.out.svg
</dc:source>
        <dc:date>2022-11-30T21:52:08.059911</dc:date>
      </cc:Work>
    </rdf:RDF>
  </metadata>
  <defs/>
  <g fill="none" id="layer1" inkscape:groupmode="layer" inkscape:label="1" stroke="#010100" stroke-width="1.0" style="display:inline">
    <polyline points="54.343,95.2244 65.1426,84.0764 81.6904,84.0764 92.6642,89.6504 103.6379,84.0764"/>
    <line x1="70.7166" x2="87.0902" y1="89.6504" y2="89.6504"/>
    <polyline points="54.343,95.2244 65.1426,89.6504 76.2906,95.2244 92.6642,95.2244 103.6379,84.0764"/>
    <polyline points="87.0902,111.5979 81.6904,117.1719 76.2906,127.9715 76.2906,133.5455 65.1426,133.5455 59.7428,139.1195 59.7428,149.9191 65.1426,144.5193 76.2906,144.5193 76.2906,171.8666"/>
    <line x1="81.6904" x2="81.6904" y1="122.5717" y2="161.067"/>
    <line x1="65.1426" x2="81.6904" y1="139.1195" y2="139.1195"/>
    <polyline points="87.0902,111.5979 87.0902,155.4931 81.6904,166.4668 76.2906,171.8666"/>
    <polyline points="103.6379,106.024 103.6379,188.4144 98.2381,193.9013 92.6642,193.9013 70.7166,182.9275 59.7428,182.9275 48.7691,188.4144 37.7953,199.3882"/>
    <line x1="109.0377" x2="109.0377" y1="106.024" y2="182.9275"/>
    <line x1="109.0377" x2="130.9853" y1="139.1195" y2="139.1195"/>
    <polyline points="87.0902,193.9013 81.6904,193.9013 70.7166,188.4144 54.343,188.4144"/>
    <polyline points="114.6117,100.6242 114.6117,133.5455 130.9853,133.5455"/>
    <polyline points="130.9853,144.5193 114.6117,144.5193 114.6117,177.4406 109.0377,188.4144 87.0902,199.3882 76.2906,199.3882 65.1426,193.9013 54.343,193.9013 37.7953,199.3882"/>
    <polyline points="103.6379,106.024 114.6117,100.6242 130.9853,84.0764 142.1332,89.6504 152.9328,89.6504 158.5068,84.0764"/>
    <polyline points="125.5855,89.6504 136.5593,95.2244 147.533,95.2244"/>
    <polyline points="120.1857,95.2244 130.9853,100.6242 142.1332,100.6242 152.9328,95.2244 158.5068,84.0764"/>
    <line x1="130.9853" x2="130.9853" y1="100.6242" y2="177.4406"/>
    <polyline points="191.254,149.9191 180.4544,161.067 174.8804,171.8666 174.8804,182.9275 180.4544,193.9013 191.254,199.3882 202.4019,188.4144 218.7755,182.9275"/>
    <polyline points="174.8804,171.8666 180.4544,182.9275 185.8542,188.4144 196.8279,193.9013"/>
    <polyline points="180.4544,161.067 180.4544,171.8666 185.8542,182.9275 196.8279,188.4144 202.4019,188.4144"/>
    <polyline points="180.4544,139.1195 191.254,139.1195 207.8017,133.5455 218.7755,127.9715 224.3495,122.5717 235.1491,133.5455 229.7493,139.1195 229.7493,182.9275 235.1491,188.4144 240.723,188.4144"/>
    <polyline points="185.8542,127.9715 180.4544,133.5455 196.8279,133.5455"/>
    <polyline points="213.2015,133.5455 229.7493,133.5455 224.3495,127.9715 224.3495,188.4144 229.7493,193.9013"/>
    <polyline points="174.8804,133.5455 185.8542,122.5717 191.254,127.9715 202.4019,133.5455 218.7755,139.1195 218.7755,188.4144 229.7493,199.3882 240.723,188.4144"/>
    <line x1="174.8804" x2="202.4019" y1="133.5455" y2="161.067"/>
    <polyline points="262.7577,133.5455 268.2446,133.5455 273.8186,139.1195 273.8186,182.9275 262.7577,188.4144 268.2446,188.4144 279.2183,193.9013 284.6181,199.3882"/>
    <polyline points="273.8186,127.9715 279.2183,133.5455 279.2183,188.4144 290.1921,193.9013"/>
    <polyline points="262.7577,133.5455 273.8186,122.5717 284.6181,133.5455 284.6181,182.9275 295.7661,188.4144 284.6181,199.3882"/>
    <polyline points="284.6181,139.1195 301.1659,133.5455 312.1397,127.9715 317.7137,122.5717 323.1135,127.9715 334.0872,133.5455 339.6612,133.5455 328.5132,139.1195 328.5132,182.9275 334.0872,188.4144 339.6612,188.4144"/>
    <polyline points="312.1397,127.9715 323.1135,133.5455 323.1135,188.4144 328.5132,193.9013"/>
    <polyline points="301.1659,133.5455 306.5657,133.5455 317.7137,139.1195 317.7137,188.4144 328.5132,199.3882 339.6612,188.4144"/>
    <polyline points="361.5217,133.5455 367.0086,133.5455 372.5825,139.1195 372.5825,182.9275 361.5217,188.4144"/>
    <polyline points="367.0086,127.9715 377.9823,133.5455 377.9823,188.4144 388.9561,193.9013"/>
    <polyline points="361.5217,133.5455 372.5825,122.5717 383.3821,133.5455 383.3821,182.9275 394.5301,188.4144 399.9299,188.4144"/>
    <polyline points="361.5217,188.4144 367.0086,188.4144 377.9823,193.9013 383.3821,199.3882 388.9561,193.9013 399.9299,188.4144 416.4776,182.9275"/>
    <polyline points="416.4776,122.5717 421.8774,127.9715 432.8512,133.5455 438.4252,133.5455 427.2772,139.1195 427.2772,182.9275 432.8512,188.4144 438.4252,188.4144"/>
    <polyline points="410.9037,127.9715 421.8774,133.5455 421.8774,188.4144 427.2772,193.9013"/>
    <polyline points="416.4776,122.5717 405.3297,133.5455 416.4776,139.1195 416.4776,188.4144 427.2772,199.3882 438.4252,188.4144"/>
  </g>
</svg>
