<svg xmlns="http://www.w3.org/2000/svg" xmlns:xlink="http://www.w3.org/1999/xlink" version="1.1" width="243" height="134"><g fill="none" fill-rule="nonzero" stroke="#010100" stroke-width="1" stroke-linecap="butt" stroke-linejoin="miter" stroke-miterlimit="10" stroke-dasharray="" stroke-dashoffset="0" font-family="none" font-weight="none" font-size="none" text-anchor="none" style="mix-blend-mode: normal" transform="scale(1)"><g><g id="text"><g id="text-line-0"><path d="M15.8,40.2l6.2,-6.4h9.5l6.3,3.2l6.3,-3.2M25.2,37h9.4M15.8,40.2l6.2,-3.2l6.4,3.2h9.4l6.3,-6.4M34.6,49.6l-3.1,3.2l-3.1,6.2v3.2h-6.4l-3.1,3.2v6.2l3.1,-3.1h6.4v15.7M31.5,55.9v22.1M22,65.4h9.5M34.6,49.6v25.2l-3.1,6.3l-3.1,3.1M44.1,46.4v47.3l-3.1,3.15h-3.2l-12.6,-6.3h-6.3l-6.3,3.15l-6.3,6.3M47.2,46.4v44.15M47.2,65.4h12.6M34.6,96.85h-3.1l-6.3,-3.15h-9.4M50.4,43.3v18.9h9.4M59.8,68.5h-9.4v18.9l-3.2,6.3l-12.6,6.3h-6.2l-6.4,-3.15h-6.2l-9.5,3.15M44.1,46.4l6.3,-3.1l9.4,-9.5l6.4,3.2h6.2l3.2,-3.2M56.7,37l6.3,3.2h6.3M53.6,40.2l6.2,3.1h6.4l6.2,-3.1l3.2,-6.4M59.8,43.3v44.1"></path><path d="M94.4,71.6l-6.2,6.4l-3.2,6.2v6.35l3.2,6.3l6.2,3.15l6.4,-6.3l9.4,-3.15M85,84.2l3.2,6.35l3.1,3.15l6.3,3.15M88.2,78v6.2l3.1,6.35l6.3,3.15h3.2M88.2,65.4h6.2l9.5,-3.2l6.3,-3.2l3.2,-3.1l6.2,6.3l-3.1,3.2v25.15l3.1,3.15h3.2M91.3,59l-3.1,3.2h9.4M107,62.2h9.5l-3.1,-3.2v34.7l3.1,3.15M85,62.2l6.3,-6.3l3.1,3.1l6.4,3.2l9.4,3.2v28.3l6.3,6.3l6.3,-6.3M85,62.2l15.8,15.8"></path><path d="M135.45,62.2h3.15l3.2,3.2v25.15l-6.35,3.15h3.15l6.3,3.15l3.1,3.15M141.8,59l3.1,3.2v31.5l6.3,3.15M135.45,62.2l6.35,-6.3l6.2,6.3v28.35l6.4,3.15l-6.4,6.3M148,65.4l9.5,-3.2l6.3,-3.2l3.2,-3.1l3.1,3.1l6.3,3.2h3.2l-6.4,3.2v25.15l3.2,3.15h3.2M163.8,59l6.3,3.2v31.5l3.1,3.15M157.5,62.2h3.1l6.4,3.2v28.3l6.2,6.3l6.4,-6.3"></path><path d="M192.15,62.2h3.15l3.2,3.2v25.15l-6.35,3.15M195.3,59l6.3,3.2v31.5l6.3,3.15M192.15,62.2l6.35,-6.3l6.2,6.3v28.35l6.4,3.15h3.1M192.15,93.7h3.15l6.3,3.15l3.1,3.15l3.2,-3.15l6.3,-3.15l9.5,-3.15M223.7,55.9l3.1,3.1l6.3,3.2h3.2l-6.4,3.2v25.15l3.2,3.15h3.2M220.5,59l6.3,3.2v31.5l3.1,3.15M223.7,55.9l-6.4,6.3l6.4,3.2v28.3l6.2,6.3l6.4,-6.3"></path></g></g></g></g></svg>