<?xml version="1.0" encoding="utf-8" ?>
<svg xmlns="http://www.w3.org/2000/svg" xmlns:cc="http://creativecommons.org/ns" xmlns:dc="http://purl.org/dc/elements/1.1/" xmlns:ev="http://www.w3.org/2001/xml-events" xmlns:inkscape="http://www.inkscape.org/namespaces/inkscape" xmlns:rdf="http://www.w3.org/1999/02/22-rdf-syntax-ns" xmlns:sodipodi="http://sodipodi.sourceforge.net/DTD/sodipodi-0.dtd" xmlns:xlink="http://www.w3.org/1999/xlink" baseProfile="tiny" height="0.5cm" version="1.2" viewBox="0 0 56.69291338582677 18.89763779527559" width="1.5cm">
  <metadata>
    <rdf:RDF>
      <cc:Work>
        <dc:format>image/svg+xml</dc:format>
        <dc:source>vpype read fanusele/fanu.svg layout -l -m 0 1.5cmx0.5cm write fanusele/fanu-out.svg
</dc:source>
        <dc:date>2022-11-20T15:08:55.360879</dc:date>
      </cc:Work>
    </rdf:RDF>
  </metadata>
  <defs/>
  <g fill="none" id="layer1" inkscape:groupmode="layer" inkscape:label="1" stroke="#010100" stroke-width="1.0" style="display:inline">
    <polyline points="16.4263,1.0543 10.7413,1.3948 6.8639,2.0498 3.301,2.3904 0.5764,2.9667 0.0786,0.5827 0.9169,4.5386 1.6505,8.6517 1.6505,10.9572 0.0,11.7169 3.1438,10.4856 9.1694,9.4901 14.6972,8.5731 3.0652,10.4856 1.6505,11.1406 1.5719,18.1499"/>
    <polyline points="29.8136,11.1406 28.3203,14.4415 25.91,16.6658 24.1809,17.6534 22.5305,18.2324 20.225,17.9835 18.9937,17.1609 18.6531,14.5987 19.9106,12.0313 21.5349,9.5687 24.1809,7.761 26.172,6.8441 27.6653,6.8441 29.473,7.1846 29.8136,8.416 30.1279,18.3149"/>
    <polyline points="32.1033,6.6083 32.1845,17.9023 32.1033,9.9093 35.158,7.9182 38.1184,6.5035 40.0309,6.3463 41.4194,6.5035 42.3363,7.499 42.9913,10.3808 42.9127,18.1499"/>
    <polyline points="45.9516,6.3463 45.2967,10.145 45.0609,14.5201 46.0564,17.0771 48.0999,18.1499 51.5843,17.9023 53.5491,16.6658 54.6233,16.168 55.6974,14.6773 56.4571,13.1054 55.8546,6.0319 56.6929,18.0674"/>
  </g>
</svg>
