<?xml version="1.0" encoding="utf-8" ?>
<svg xmlns="http://www.w3.org/2000/svg" xmlns:cc="http://creativecommons.org/ns" xmlns:dc="http://purl.org/dc/elements/1.1/" xmlns:ev="http://www.w3.org/2001/xml-events" xmlns:inkscape="http://www.inkscape.org/namespaces/inkscape" xmlns:rdf="http://www.w3.org/1999/02/22-rdf-syntax-ns" xmlns:sodipodi="http://sodipodi.sourceforge.net/DTD/sodipodi-0.dtd" xmlns:xlink="http://www.w3.org/1999/xlink" baseProfile="tiny" height="2.7cm" version="1.2" viewBox="0 0 270.23622047244095 102.04724409448819" width="7.15cm">
  <metadata>
    <rdf:RDF>
      <cc:Work>
        <dc:format>image/svg+xml</dc:format>
        <dc:source>vpype read -m -l1 -c fanusele/fanu.svg scaleto -l1 -o 0 0 1.5cm 1.5cm translate -l1 0.15cm 1.2cm read -m -l2 -c fanusele/and.svg scaleto -l2 -o 0 0 0.5cm 0.5cm translate -l2 0.75cm 1.85cm read -m -l3 -c fanusele/sele.svg scaleto -l3 -o 0 0 1.5cm 1.5cm translate -l3 0.15cm 2.5cm lmove 1,2,3 1 rotate -l1 -o 0 0 -- -90 layout -l -v center -h left -m 3mm 7.15cmx2.7cm translate -l1 1.1cm 0 write fanusele/fanusele.out.svg
</dc:source>
        <dc:date>2022-11-30T21:43:17.500641</dc:date>
      </cc:Work>
    </rdf:RDF>
  </metadata>
  <defs/>
  <g fill="none" id="layer1" inkscape:groupmode="layer" inkscape:label="1" stroke="#010100" stroke-width="1.0" style="display:inline">
    <polyline points="53.5734,67.7191 54.05,75.6756 54.9667,81.1022 55.4433,86.0888 56.25,89.902 52.9134,90.5987 58.4499,89.4254 64.2065,88.3987 67.4331,88.3987 68.4964,90.7087 66.7731,86.3087 65.3798,77.8756 64.0965,70.1391 66.7731,86.4187 67.6898,88.3987 77.4997,88.5087"/>
    <polyline points="67.6898,48.9828 72.3097,51.0728 75.4226,54.446 76.8049,56.866 77.6152,59.176 77.2669,62.4026 76.1156,64.1259 72.5297,64.6025 68.9364,62.8425 65.4898,60.5693 62.9599,56.866 61.6765,54.0794 61.6765,51.9894 62.1532,49.4595 63.8765,48.9828 77.7307,48.5428"/>
    <polyline points="61.3466,45.7782 77.1532,45.6646 65.9665,45.7782 63.1798,41.503 61.1999,37.3597 60.9799,34.6831 61.1999,32.7398 62.5932,31.4565 66.6264,30.5399 77.4997,30.6499"/>
    <polyline points="60.9799,26.3966 66.2965,27.3133 72.4197,27.6432 75.9983,26.2499 77.4997,23.39 77.1532,18.5134 75.4226,15.7635 74.726,14.2602 72.6397,12.7569 70.4397,11.6936 60.5399,12.5369 77.3842,11.3636"/>
    <polyline points="102.2881,34.8038 105.2274,37.1243 107.896,40.4117 110.8276,44.9368 113.0206,49.3071 114.117,53.3294 113.9952,56.6169 113.1404,58.3186 110.7039,58.2026 108.6309,57.2357 100.2382,50.8929 95.5972,48.3403 93.0446,47.7214 90.3759,47.3734 88.5195,47.9535 87.6686,49.0751 87.9394,50.7768 89.1383,52.9813 91.1108,54.567 92.8125,55.3019 96.216,55.4179 98.8846,54.7991 101.4372,53.0974 103.2549,51.6277 105.9622,48.6883 109.4817,44.55 111.6824,40.5278 112.657,38.2072 112.657,37.2403"/>
    <polyline points="124.3685,68.4257 125.3156,73.9794 126.8225,79.6623 128.3293,84.8286 130.0944,87.0242 131.429,88.1005 132.6776,88.488 134.5719,87.4117 136.4661,81.7288 138.3604,76.4334 140.513,71.0088 142.149,68.0382 143.6559,66.2731 145.1196,66.4023 147.8319,68.684 150.5571,73.9794 152.5913,80.222 152.8626,84.8286 152.4557,88.1005 151.5086,89.9948 150.1524,90.6837"/>
    <polyline points="140.2547,60.5472 140.1256,55.1226 139.9964,48.88 139.3076,44.8331 137.8008,44.1443 136.337,44.704 133.1942,48.2343 133.1942,52.7117 134.701,56.7586 137.2841,59.6 142.5365,61.6665 145.6793,62.3295 147.8319,62.463 150.8283,60.1597 152.7269,56.3711 152.4557,52.0229 151.3708,47.4163 149.7434,44.1443 148.2624,42.9389"/>
    <polyline points="123.2922,36.438 142.2782,36.0505 151.2373,35.7491"/>
    <polyline points="140.2547,28.9469 140.1256,23.5223 139.9964,17.2798 139.3076,13.2329 137.8008,12.544 136.337,13.1037 133.1942,16.634 133.1942,21.1114 134.701,25.1583 137.2841,27.9998 142.5365,30.0663 145.6793,30.7293 147.8319,30.8627 150.8283,28.5594 152.7269,24.7708 152.4557,20.4226 151.3708,15.816 149.7434,12.544 148.2624,11.3386"/>
  </g>
</svg>
