<?xml version="1.0" encoding="utf-8" ?>
<svg xmlns="http://www.w3.org/2000/svg" xmlns:cc="http://creativecommons.org/ns" xmlns:dc="http://purl.org/dc/elements/1.1/" xmlns:ev="http://www.w3.org/2001/xml-events" xmlns:inkscape="http://www.inkscape.org/namespaces/inkscape" xmlns:rdf="http://www.w3.org/1999/02/22-rdf-syntax-ns" xmlns:sodipodi="http://sodipodi.sourceforge.net/DTD/sodipodi-0.dtd" xmlns:xlink="http://www.w3.org/1999/xlink" baseProfile="tiny" height="4.0cm" version="1.2" viewBox="0 0 340.1574803149606 151.1811023622047" width="9.0cm">
  <metadata>
    <rdf:RDF>
      <cc:Work>
        <dc:format>image/svg+xml</dc:format>
        <dc:source>vpype read -m -l1 -c fanusele/fanu-posto.svg scaleto -l1 -o 0 0 4.5cm 1.5cm layout -l -v center -h center 9cmx4cm write fanusele/fanu-posto.out.svg
</dc:source>
        <dc:date>2022-11-20T20:16:09.641306</dc:date>
      </cc:Work>
    </rdf:RDF>
  </metadata>
  <defs/>
  <g fill="none" id="layer1" inkscape:groupmode="layer" inkscape:label="1" stroke="#010100" stroke-width="1.0" style="display:inline">
    <polyline points="92.0644,55.8466 96.6491,51.114 103.6741,51.114 108.3328,53.4803 112.9914,51.114"/>
    <line x1="99.0154" x2="105.9664" y1="53.4803" y2="53.4803"/>
    <polyline points="92.0644,55.8466 96.6491,53.4803 101.3817,55.8466 108.3328,55.8466 112.9914,51.114"/>
    <polyline points="105.9664,62.7977 103.6741,65.164 101.3817,69.7487 101.3817,72.115 96.6491,72.115 94.3567,74.4813 94.3567,79.0661 96.6491,76.7737 101.3817,76.7737 101.3817,88.3834"/>
    <line x1="103.6741" x2="103.6741" y1="67.4564" y2="83.7987"/>
    <line x1="96.6491" x2="103.6741" y1="74.4813" y2="74.4813"/>
    <polyline points="105.9664,62.7977 105.9664,81.4324 103.6741,86.0911 101.3817,88.3834"/>
    <polyline points="112.9914,60.4314 112.9914,95.4084 110.6991,97.7378 108.3328,97.7378 99.0154,93.0791 94.3567,93.0791 89.698,95.4084 85.0394,100.0671"/>
    <line x1="115.2838" x2="115.2838" y1="60.4314" y2="93.0791"/>
    <line x1="115.2838" x2="124.6012" y1="74.4813" y2="74.4813"/>
    <polyline points="105.9664,97.7378 103.6741,97.7378 99.0154,95.4084 92.0644,95.4084"/>
    <polyline points="117.6501,58.139 117.6501,72.115 124.6012,72.115"/>
    <polyline points="124.6012,76.7737 117.6501,76.7737 117.6501,90.7497 115.2838,95.4084 105.9664,100.0671 101.3817,100.0671 96.6491,97.7378 92.0644,97.7378 85.0394,100.0671"/>
    <polyline points="112.9914,60.4314 117.6501,58.139 124.6012,51.114 129.3338,53.4803 133.9185,53.4803 136.2848,51.114"/>
    <polyline points="122.3088,53.4803 126.9675,55.8466 131.6262,55.8466"/>
    <polyline points="120.0164,55.8466 124.6012,58.139 129.3338,58.139 133.9185,55.8466 136.2848,51.114"/>
    <line x1="124.6012" x2="124.6012" y1="58.139" y2="90.7497"/>
    <polyline points="150.1869,79.0661 145.6022,83.7987 143.2359,88.3834 143.2359,93.0791 145.6022,97.7378 150.1869,100.0671 154.9195,95.4084 161.8706,93.0791"/>
    <polyline points="143.2359,88.3834 145.6022,93.0791 147.8946,95.4084 152.5532,97.7378"/>
    <polyline points="145.6022,83.7987 145.6022,88.3834 147.8946,93.0791 152.5532,95.4084 154.9195,95.4084"/>
    <polyline points="145.6022,74.4813 150.1869,74.4813 157.2119,72.115 161.8706,69.7487 164.2369,67.4564 168.8216,72.115 166.5293,74.4813 166.5293,93.0791 168.8216,95.4084 171.1879,95.4084"/>
    <polyline points="147.8946,69.7487 145.6022,72.115 152.5532,72.115"/>
    <polyline points="159.5043,72.115 166.5293,72.115 164.2369,69.7487 164.2369,95.4084 166.5293,97.7378"/>
    <polyline points="143.2359,72.115 147.8946,67.4564 150.1869,69.7487 154.9195,72.115 161.8706,74.4813 161.8706,95.4084 166.5293,100.0671 171.1879,95.4084"/>
    <line x1="143.2359" x2="154.9195" y1="72.115" y2="83.7987"/>
    <polyline points="180.5423,72.115 182.8716,72.115 185.2379,74.4813 185.2379,93.0791 180.5423,95.4084 182.8716,95.4084 187.5303,97.7378 189.8227,100.0671"/>
    <polyline points="185.2379,69.7487 187.5303,72.115 187.5303,95.4084 192.189,97.7378"/>
    <polyline points="180.5423,72.115 185.2379,67.4564 189.8227,72.115 189.8227,93.0791 194.5553,95.4084 189.8227,100.0671"/>
    <polyline points="189.8227,74.4813 196.8477,72.115 201.5063,69.7487 203.8726,67.4564 206.165,69.7487 210.8237,72.115 213.19,72.115 208.4574,74.4813 208.4574,93.0791 210.8237,95.4084 213.19,95.4084"/>
    <polyline points="201.5063,69.7487 206.165,72.115 206.165,95.4084 208.4574,97.7378"/>
    <polyline points="196.8477,72.115 199.14,72.115 203.8726,74.4813 203.8726,95.4084 208.4574,100.0671 213.19,95.4084"/>
    <polyline points="222.4704,72.115 224.7997,72.115 227.166,74.4813 227.166,93.0791 222.4704,95.4084"/>
    <polyline points="224.7997,69.7487 229.4584,72.115 229.4584,95.4084 234.1171,97.7378"/>
    <polyline points="222.4704,72.115 227.166,67.4564 231.7508,72.115 231.7508,93.0791 236.4834,95.4084 238.7758,95.4084"/>
    <polyline points="222.4704,95.4084 224.7997,95.4084 229.4584,97.7378 231.7508,100.0671 234.1171,97.7378 238.7758,95.4084 245.8008,93.0791"/>
    <polyline points="245.8008,67.4564 248.0931,69.7487 252.7518,72.115 255.1181,72.115 250.3855,74.4813 250.3855,93.0791 252.7518,95.4084 255.1181,95.4084"/>
    <polyline points="243.4344,69.7487 248.0931,72.115 248.0931,95.4084 250.3855,97.7378"/>
    <polyline points="245.8008,67.4564 241.0681,72.115 245.8008,74.4813 245.8008,95.4084 250.3855,100.0671 255.1181,95.4084"/>
  </g>
</svg>
