<svg xmlns="http://www.w3.org/2000/svg" xmlns:xlink="http://www.w3.org/1999/xlink" version="1.1" width="243" height="132"><g fill="none" fill-rule="nonzero" stroke="#010100" stroke-width="1" stroke-linecap="butt" stroke-linejoin="miter" stroke-miterlimit="10" stroke-dasharray="" stroke-dashoffset="0" font-family="none" font-weight="none" font-size="none" text-anchor="none" style="mix-blend-mode: normal" transform="scale(1)"><g><g id="text"><g id="text-line-0"><path d="M75.9,33.8l-21.7,1.3l-14.8,2.5l-13.6,1.3l-10.4,2.2l-1.9,-9.1l3.2,15.1l2.8,15.7v8.8l-6.3,2.9l12,-4.7l23,-3.8l21.1,-3.5l-44.4,7.3l-5.4,2.5l-0.3,26.755"></path><path d="M127,72.3l-5.7,12.6l-9.2,8.49l-6.6,3.77l-6.3,2.21l-8.8,-0.95l-4.7,-3.14l-1.3,-9.78l4.8,-9.8l6.2,-9.4l10.1,-6.9l7.6,-3.5h5.7l6.9,1.3l1.3,4.7l1.2,37.785"></path><path d="M135.74,55l0.31,43.11l-0.31,-30.51l11.66,-7.6l11.3,-5.4l7.3,-0.6l5.3,0.6l3.5,3.8l2.5,11l-0.3,29.655"></path><path d="M188.6,54l-2.5,14.5l-0.9,16.7l3.8,9.76l7.8,4.095l13.3,-0.945l7.5,-4.72l4.1,-1.9l4.1,-5.69l2.9,-6l-2.3,-27l3.2,45.94"></path></g></g></g></g></svg>