<svg xmlns="http://www.w3.org/2000/svg" xmlns:xlink="http://www.w3.org/1999/xlink" version="1.1" width="251" height="132"><g fill="none" fill-rule="nonzero" stroke="#010100" stroke-width="1" stroke-linecap="butt" stroke-linejoin="miter" stroke-miterlimit="10" stroke-dasharray="" stroke-dashoffset="0" font-family="none" font-weight="none" font-size="none" text-anchor="none" style="mix-blend-mode: normal" transform="scale(1)"><g><g id="text"><g id="text-line-0"><path d="M75.9,33.8l-21.7,1.3l-14.8,2.5l-13.6,1.3l-10.4,2.2l-1.9,-9.1l3.2,15.1l2.8,15.7v8.8l-6.3,2.9l12,-4.7l23,-3.8l21.1,-3.5l-44.4,7.3l-5.4,2.5l-0.3,26.755"></path><path d="M87.3,70.4l12.6,-0.3l14.5,-0.3l9.4,-1.6l1.6,-3.5l-1.3,-3.4l-8.2,-7.3h-10.4l-9.4,3.5l-6.6,6l-4.8,12.2l-1.54,7.3l-0.31,5l5.35,6.96l8.8,4.41l10.1,-0.63l10.7,-2.52l7.6,-3.78l2.8,-3.44"></path><path d="M182,34.8l-1.5,26.5l-0.7,17l0.7,13.82l0.3,5.99l-0.6,-16.41l-9.2,9.79l-14.8,6.62l-10.4,0.63l-7.2,-4.1l-2.24,-10.74l5.34,-10.4l12.9,-8.8l11.7,-1.9l8.8,1.3l5.7,6"></path><path d="M196.3,70.4l12.6,-0.3l14.5,-0.3l9.4,-1.6l1.6,-3.5l-1.3,-3.4l-8.2,-7.3h-10.4l-9.4,3.5l-6.6,6l-4.8,12.2l-1.54,7.3l-0.31,5l5.35,6.96l8.8,4.41l10.1,-0.63l10.7,-2.52l7.6,-3.78l2.8,-3.44"></path></g></g></g></g></svg>