<svg xmlns="http://www.w3.org/2000/svg" xmlns:xlink="http://www.w3.org/1999/xlink" version="1.1" width="516" height="133"><g fill="none" fill-rule="nonzero" stroke="#010100" stroke-width="1" stroke-linecap="butt" stroke-linejoin="miter" stroke-miterlimit="10" stroke-dasharray="" stroke-dashoffset="0" font-family="none" font-weight="none" font-size="none" text-anchor="none" style="mix-blend-mode: normal" transform="scale(1)"><g><g id="text"><g id="text-line-0"><path d="M75.9,33.8l-21.7,1.3l-14.8,2.5l-13.6,1.3l-10.4,2.2l-1.9,-9.1l3.2,15.1l2.8,15.7v8.8l-6.3,2.9l12,-4.7l23,-3.8l21.1,-3.5l-44.4,7.3l-5.4,2.5l-0.3,26.755"></path><path d="M86.3,53.1l-1.2,45.32l3.1,-25.52l7.6,-9.8l9.7,-5.6l7.9,-3.2l3.5,-0.3l10.4,1l1.2,0.9"></path><path d="M179.3,72.3l-5.7,12.6l-9.2,8.49l-6.6,3.77l-6.3,2.21l-8.8,-0.95l-4.7,-3.14l-1.3,-9.78l4.8,-9.8l6.2,-9.4l10.1,-6.9l7.6,-3.5h5.7l6.9,1.3l1.3,4.7l1.2,37.785"></path><path d="M188.04,55l0.31,43.11l-0.31,-30.51l11.66,-7.6l11.3,-5.4l7.3,-0.6l5.3,0.6l3.5,3.8l2.5,11l-0.3,29.655"></path><path d="M281,58.4l-3.2,-2.8l-9.4,-1l-10.1,3.8l-8.5,6.3l-9.2,12l-2.8,12.6l6,7.24l12.3,3.775l13.2,-0.63l9.4,-2.205l10.1,-5.36"></path><path d="M301.5,70.4l12.6,-0.3l14.5,-0.3l9.4,-1.6l1.6,-3.5l-1.3,-3.4l-8.2,-7.3h-10.4l-9.4,3.5l-6.6,6l-4.8,12.2l-1.54,7.3l-0.31,5l5.35,6.96l8.8,4.41l10.1,-0.63l10.7,-2.52l7.6,-3.78l2.8,-3.44"></path><path d="M390.9,57.2l-3.2,-3.2h-9.4l-10.7,2.2l-9.8,5.1l-4.1,6.6v7.2l4.1,3.2h9.1l9.8,-1.9l6.3,0.3l5,1.9l3.2,2.8l-0.9,4.7l-9.8,7.6l-12.6,3.46l-7.3,2.84l-3.1,-0.315"></path><path d="M441,58.4l-3.2,-2.8l-9.4,-1l-10.1,3.8l-8.5,6.3l-9.2,12l-2.8,12.6l6,7.24l12.3,3.775l13.2,-0.63l9.4,-2.205l10.1,-5.36"></path><path d="M501.2,72.3l-5.7,12.6l-9.2,8.49l-6.6,3.77l-6.3,2.21l-8.8,-0.95l-4.7,-3.14l-1.3,-9.78l4.8,-9.8l6.2,-9.4l10.1,-6.9l7.6,-3.5h5.7l6.9,1.3l1.3,4.7l1.2,37.785"></path></g></g></g></g></svg>