<?xml version="1.0" encoding="utf-8" ?>
<svg xmlns="http://www.w3.org/2000/svg" xmlns:cc="http://creativecommons.org/ns" xmlns:dc="http://purl.org/dc/elements/1.1/" xmlns:ev="http://www.w3.org/2001/xml-events" xmlns:inkscape="http://www.inkscape.org/namespaces/inkscape" xmlns:rdf="http://www.w3.org/1999/02/22-rdf-syntax-ns" xmlns:sodipodi="http://sodipodi.sourceforge.net/DTD/sodipodi-0.dtd" xmlns:xlink="http://www.w3.org/1999/xlink" baseProfile="tiny" height="4.0cm" version="1.2" viewBox="0 0 340.1574803149606 151.1811023622047" width="9.0cm">
  <metadata>
    <rdf:RDF>
      <cc:Work>
        <dc:format>image/svg+xml</dc:format>
        <dc:source>vpype read -m -l1 -c fanusele/francesca.svg scaleto -l1 -o 0 0 4.5cm 1.5cm layout -l -v center -h center 9cmx4cm write fanusele/francesca.out.svg
</dc:source>
        <dc:date>2022-11-20T19:46:46.508832</dc:date>
      </cc:Work>
    </rdf:RDF>
  </metadata>
  <defs/>
  <g fill="none" id="layer1" inkscape:groupmode="layer" inkscape:label="1" stroke="#010100" stroke-width="1.0" style="display:inline">
    <polyline points="106.8381,64.3409 99.2937,64.7929 94.1482,65.662 89.42,66.114 85.8042,66.8789 85.1437,63.7151 86.2562,68.9649 87.2297,74.4233 87.2297,77.4827 85.0394,78.491 89.2114,76.8569 97.2077,75.5358 104.5435,74.319 89.1071,76.8569 87.2297,77.7261 87.1254,87.0279"/>
    <polyline points="110.4538,71.0509 110.0366,86.8072 111.1144,77.9347 113.7567,74.5276 117.129,72.5806 119.8756,71.4681 121.0924,71.3638 124.7082,71.7115 125.1254,72.0244"/>
    <polyline points="142.7869,77.7261 140.8052,82.1067 137.6066,85.0584 135.312,86.3691 133.1217,87.1374 130.0623,86.8072 128.4282,85.7155 127.9763,82.3153 129.6451,78.9082 131.8006,75.6401 135.312,73.2412 137.9543,72.0244 139.936,72.0244 142.3349,72.4763 142.7869,74.1104 143.2041,87.247"/>
    <polyline points="145.8255,71.7115 145.9333,86.6994 145.8255,76.0921 149.8793,73.4498 153.8079,71.5724 156.3459,71.3638 158.1885,71.5724 159.4054,72.8935 160.2745,76.7179 160.1702,87.0279"/>
    <polyline points="178.1446,72.8935 177.0321,71.9201 173.764,71.5724 170.2526,72.8935 167.2974,75.0838 164.0989,79.2558 163.1254,83.6364 165.2114,86.1535 169.4877,87.466 174.0769,87.247 177.345,86.4804 180.8564,84.6169"/>
    <polyline points="185.2718,77.0655 189.6524,76.9612 194.6936,76.8569 197.9616,76.3007 198.5179,75.0838 198.0659,73.9018 195.2151,71.3638 191.5993,71.3638 188.3313,72.5806 186.0367,74.6666 184.3679,78.9082 183.8325,81.4461 183.7247,83.1845 185.5847,85.6042 188.6442,87.1374 192.1556,86.9184 195.8756,86.0423 198.5179,84.7281 199.4914,83.5321"/>
    <polyline points="216.3532,72.4763 215.2407,71.3638 211.9726,71.3638 208.2526,72.1287 204.8454,73.9018 203.42,76.1964 203.42,78.6996 204.8454,79.8121 208.0092,79.8121 211.4164,79.1515 213.6067,79.2558 215.345,79.9164 216.4575,80.8899 216.1446,82.5239 212.7375,85.1662 208.3569,86.3691 205.8189,87.3565 204.7411,87.247"/>
    <polyline points="233.7714,72.8935 232.6588,71.9201 229.3907,71.5724 225.8793,72.8935 222.9241,75.0838 219.7256,79.2558 218.7521,83.6364 220.8381,86.1535 225.1144,87.466 229.7036,87.247 232.9717,86.4804 236.4832,84.6169"/>
    <polyline points="254.7009,77.7261 252.7192,82.1067 249.5207,85.0584 247.2261,86.3691 245.0358,87.1374 241.9763,86.8072 240.3423,85.7155 239.8903,82.3153 241.5591,78.9082 243.7146,75.6401 247.2261,73.2412 249.8683,72.0244 251.85,72.0244 254.2489,72.4763 254.7009,74.1104 255.1181,87.247"/>
  </g>
</svg>
