<?xml version="1.0" encoding="utf-8" ?>
<svg xmlns="http://www.w3.org/2000/svg" xmlns:cc="http://creativecommons.org/ns" xmlns:dc="http://purl.org/dc/elements/1.1/" xmlns:ev="http://www.w3.org/2001/xml-events" xmlns:inkscape="http://www.inkscape.org/namespaces/inkscape" xmlns:rdf="http://www.w3.org/1999/02/22-rdf-syntax-ns" xmlns:sodipodi="http://sodipodi.sourceforge.net/DTD/sodipodi-0.dtd" xmlns:xlink="http://www.w3.org/1999/xlink" baseProfile="tiny" height="4.0cm" version="1.2" viewBox="0 0 340.1574803149606 151.1811023622047" width="9.0cm">
  <metadata>
    <rdf:RDF>
      <cc:Work>
        <dc:format>image/svg+xml</dc:format>
        <dc:source>vpype read -m -l1 -c fanusele/francesco.svg scaleto -l1 -o 0 0 4.5cm 1.5cm layout -l -v center -h center 9cmx4cm write fanusele/francesco.out.svg
</dc:source>
        <dc:date>2022-11-20T19:46:48.029165</dc:date>
      </cc:Work>
    </rdf:RDF>
  </metadata>
  <defs/>
  <g fill="none" id="layer1" inkscape:groupmode="layer" inkscape:label="1" stroke="#010100" stroke-width="1.0" style="display:inline">
    <polyline points="106.6438,64.4412 99.1667,64.8891 94.0671,65.7506 89.3809,66.1985 85.7974,66.9565 85.1427,63.821 86.2454,69.0239 87.2101,74.4337 87.2101,77.4659 85.0394,78.4651 89.1742,76.8456 97.0992,75.5363 104.3696,74.3303 89.0708,76.8456 87.2101,77.7071 87.1068,86.926"/>
    <polyline points="110.2273,71.0914 109.8138,86.7072 110.882,77.9138 113.5007,74.537 116.843,72.6075 119.5651,71.5048 120.7711,71.4015 124.3546,71.746 124.7681,72.0561"/>
    <polyline points="142.2721,77.7071 140.3081,82.0486 137.138,84.974 134.8639,86.273 132.6931,87.0345 129.6609,86.7072 128.0415,85.6252 127.5935,82.2554 129.2474,78.8786 131.3838,75.6397 134.8639,73.2621 137.4826,72.0561 139.4466,72.0561 141.8242,72.5041 142.2721,74.1236 142.6856,87.1431"/>
    <polyline points="145.2836,71.746 145.3904,86.6004 145.2836,76.0876 149.3013,73.4689 153.1949,71.6082 155.7103,71.4015 157.5365,71.6082 158.7425,72.9176 159.6039,76.7078 159.5005,86.926"/>
    <polyline points="177.3147,72.9176 176.212,71.9528 172.9731,71.6082 169.493,72.9176 166.5641,75.0883 163.3941,79.2232 162.4293,83.5647 164.4967,86.0594 168.7349,87.3601 173.2832,87.1431 176.5222,86.3833 180.0023,84.5364"/>
    <polyline points="184.3783,77.0524 188.7199,76.949 193.7161,76.8456 196.955,76.2943 197.5063,75.0883 197.0584,73.9168 194.233,71.4015 190.6494,71.4015 187.4105,72.6075 185.1364,74.6749 183.4824,78.8786 182.9518,81.3939 182.845,83.1168 184.6884,85.515 187.7206,87.0345 191.2008,86.8174 194.8876,85.9491 197.5063,84.6467 198.4711,83.4613"/>
    <polyline points="215.1827,72.5041 214.0801,71.4015 210.8411,71.4015 207.1543,72.1595 203.7775,73.9168 202.3648,76.191 202.3648,78.6719 203.7775,79.7745 206.9131,79.7745 210.2898,79.1198 212.4606,79.2232 214.1834,79.8778 215.2861,80.8426 214.9759,82.4621 211.5992,85.0808 207.2576,86.273 204.7423,87.2516 203.6741,87.1431"/>
    <polyline points="232.4455,72.9176 231.3429,71.9528 228.104,71.6082 224.6238,72.9176 221.695,75.0883 218.525,79.2232 217.5602,83.5647 219.6276,86.0594 223.8658,87.3601 228.4141,87.1431 231.653,86.3833 235.1332,84.5364"/>
    <polyline points="246.6417,71.0914 242.3002,73.0209 240.026,76.2943 238.5099,79.5333 239.268,83.8852 240.6807,86.273 245.2635,87.0345 249.0537,86.0594 252.9473,83.5647 255.1181,79.5333 254.3601,74.537 252.6372,72.6075 250.6732,71.4015 246.6417,71.0914"/>
  </g>
</svg>
