<svg xmlns="http://www.w3.org/2000/svg" xmlns:xlink="http://www.w3.org/1999/xlink" version="1.1" width="259" height="137"><g fill="none" fill-rule="nonzero" stroke="#010100" stroke-width="1" stroke-linecap="butt" stroke-linejoin="miter" stroke-miterlimit="10" stroke-dasharray="" stroke-dashoffset="0" font-family="none" font-weight="none" font-size="none" text-anchor="none" style="mix-blend-mode: normal" transform="scale(1)"><g><g id="text"><g id="text-line-0"><path d="M54.8,32l-9.1,0.9l-9.8,4.7l-7.2,6.3l-5.7,6l-6,10.7l-4.1,11.4l-0.6,10.4l1.9,7.5l4.7,5.38l9.1,3.775l9.5,-1.575l11.3,-5.36l7.3,-5.32l5.6,-5.4l1.3,-2.5l0.6,-19.2l-30.5,5.3l41.2,-6.9l-10.4,1.9v44.41"></path><path d="M128.3,72.3l-5.7,12.6l-9.2,8.49l-6.6,3.77l-6.3,2.21l-8.8,-0.95l-4.7,-3.14l-1.3,-9.78l4.8,-9.8l6.2,-9.4l10.1,-6.9l7.6,-3.5h5.7l6.9,1.3l1.3,4.7l1.2,37.785"></path><path d="M142.4,32.9l0.6,63.01l4.7,1.88l8.2,-1.57l12.3,-5.04l15.1,-11.98l6,-10.4l2.2,-8.2l-1.9,-4.4l-4.7,-1.9l-11,1l-9.8,6.6l-10.7,7.5l-9.7,13.9"></path><path d="M221.4,53.1l-12.6,5.6l-6.6,9.5l-4.4,9.4l2.2,12.63l4.1,6.93l13.3,2.21l11,-2.83l11.3,-7.24l6.3,-11.7l-2.2,-14.5l-5,-5.6l-5.7,-3.5l-11.7,-0.9"></path></g></g></g></g></svg>