<svg xmlns="http://www.w3.org/2000/svg" xmlns:xlink="http://www.w3.org/1999/xlink" version="1.1" width="331" height="175"><g fill="none" fill-rule="nonzero" stroke="#010100" stroke-width="1" stroke-linecap="butt" stroke-linejoin="miter" stroke-miterlimit="10" stroke-dasharray="" stroke-dashoffset="0" font-family="none" font-weight="none" font-size="none" text-anchor="none" style="mix-blend-mode: normal" transform="scale(1)"><g><g id="text"><g id="text-line-0"><path d="M54.8,32l-9.1,0.9l-9.8,4.7l-7.2,6.3l-5.7,6l-6,10.7l-4.1,11.4l-0.6,10.4l1.9,7.5l4.7,5.38l9.1,3.775l9.5,-1.575l11.3,-5.36l7.3,-5.32l5.6,-5.4l1.3,-2.5l0.6,-19.2l-30.5,5.3l41.2,-6.9l-10.4,1.9v44.41"></path><path d="M92.7,36.4h1.8M95.2,55.3l0.9,40.29l1.9,1.89"></path><path d="M153.5,72.3l-5.7,12.6l-9.2,8.49l-6.6,3.77l-6.3,2.21l-8.8,-0.95l-4.7,-3.14l-1.3,-9.78l4.8,-9.8l6.2,-9.4l10.1,-6.9l7.6,-3.5h5.7l6.9,1.3l1.3,4.7l1.2,37.785"></path><path d="M162.24,55l0.31,43.11l-0.31,-30.51l11.66,-7.6l11.3,-5.4l7.3,-0.6l5.3,0.6l3.5,3.8l2.5,11l-0.3,29.655"></path><path d="M257,73.9l-6.6,11.3l-11.9,9.44l-13,4.73h-9.1l-2.8,-4.73l3.8,-11.94l9.4,-14.2l10.7,-8.8l6.9,-3.5l7,1l5.6,4.4l1.6,44.7l-1.2,15.1l-3.5,9.5l-4.4,6.3l-4.1,3.4l-5.4,1l-4.1,0.3l-11.3,-0.3"></path><path d="M268,57.5l32.5,46.28l17.9,-47.28l-32.7,86"></path></g></g></g></g></svg>