<svg xmlns="http://www.w3.org/2000/svg" xmlns:xlink="http://www.w3.org/1999/xlink" version="1.1" width="267" height="136"><g fill="none" fill-rule="nonzero" stroke="#010100" stroke-width="1" stroke-linecap="butt" stroke-linejoin="miter" stroke-miterlimit="10" stroke-dasharray="" stroke-dashoffset="0" font-family="none" font-weight="none" font-size="none" text-anchor="none" style="mix-blend-mode: normal" transform="scale(1)"><g><g id="text"><g id="text-line-0"><path d="M54.8,32l-9.1,0.9l-9.8,4.7l-7.2,6.3l-5.7,6l-6,10.7l-4.1,11.4l-0.6,10.4l1.9,7.5l4.7,5.38l9.1,3.775l9.5,-1.575l11.3,-5.36l7.3,-5.32l5.6,-5.4l1.3,-2.5l0.6,-19.2l-30.5,5.3l41.2,-6.9l-10.4,1.9v44.41"></path><path d="M92.7,36.4h1.8M95.2,55.3l0.9,40.29l1.9,1.89"></path><path d="M113.4,54l-2.5,14.5l-0.9,16.7l3.8,9.76l7.8,4.095l13.3,-0.945l7.5,-4.72l4.1,-1.9l4.1,-5.69l2.9,-6l-2.3,-27l3.2,45.94"></path><path d="M166.7,31l0.9,44.1l0.7,20.81"></path><path d="M188.2,36.4h1.8M190.7,55.3l0.9,40.29l1.9,1.89"></path><path d="M230,53.1l-12.6,5.6l-6.6,9.5l-4.4,9.4l2.2,12.63l4.1,6.93l13.3,2.21l11,-2.83l11.3,-7.24l6.3,-11.7l-2.2,-14.5l-5,-5.6l-5.7,-3.5l-11.7,-0.9"></path></g></g></g></g></svg>