<?xml version="1.0" encoding="utf-8" ?>
<svg xmlns="http://www.w3.org/2000/svg" xmlns:cc="http://creativecommons.org/ns" xmlns:dc="http://purl.org/dc/elements/1.1/" xmlns:ev="http://www.w3.org/2001/xml-events" xmlns:inkscape="http://www.inkscape.org/namespaces/inkscape" xmlns:rdf="http://www.w3.org/1999/02/22-rdf-syntax-ns" xmlns:sodipodi="http://sodipodi.sourceforge.net/DTD/sodipodi-0.dtd" xmlns:xlink="http://www.w3.org/1999/xlink" baseProfile="tiny" height="4.0cm" version="1.2" viewBox="0 0 340.1574803149606 151.1811023622047" width="9.0cm">
  <metadata>
    <rdf:RDF>
      <cc:Work>
        <dc:format>image/svg+xml</dc:format>
        <dc:source>vpype read -m -l1 -c fanusele/guglielmo.svg scaleto -l1 -o 0 0 4.5cm 1.5cm layout -l -v center -h center 9cmx4cm write fanusele/guglielmo.out.svg
</dc:source>
        <dc:date>2022-11-20T20:02:41.693338</dc:date>
      </cc:Work>
    </rdf:RDF>
  </metadata>
  <defs/>
  <g fill="none" id="layer1" inkscape:groupmode="layer" inkscape:label="1" stroke="#010100" stroke-width="1.0" style="display:inline">
    <polyline points="101.8378,54.0689 98.2409,54.4246 94.3674,56.2823 91.5216,58.7724 89.2686,61.1439 86.8971,65.3732 85.2765,69.8791 85.0394,73.9898 85.7904,76.9542 87.6481,79.0807 91.2449,80.5728 94.9998,79.9502 99.4662,77.8317 102.3516,75.7289 104.565,73.5945 105.0789,72.6064 105.316,65.0174 93.2607,67.1123 109.5453,64.385 105.4346,65.136 105.4346,82.6894"/>
    <polyline points="115.0393,62.7645 114.0512,68.4957 113.6954,75.0965 115.1974,78.9542 118.2804,80.5728 123.5373,80.1992 126.5017,78.3336 128.1223,77.5826 129.7428,75.3336 130.8891,72.9621 129.98,62.2902 131.2448,80.4482"/>
    <polyline points="151.4029,70.6301 148.7942,75.0965 144.0906,78.8277 138.9523,80.6973 135.3555,80.6973 134.2488,78.8277 135.7507,74.1083 139.4661,68.4957 143.6954,65.0174 146.4227,63.6341 149.1895,64.0293 151.4029,65.7684 152.0353,83.4364 151.561,89.4048 150.1776,93.1597 148.4385,95.6498 146.8179,96.9937 144.6835,97.3889 143.063,97.5075 138.5966,97.3889"/>
    <polyline points="157.8851,53.6736 158.2408,71.1044 158.5175,79.3297"/>
    <line x1="166.3831" x2="167.0946" y1="55.808" y2="55.808"/>
    <polyline points="167.3712,63.2783 167.727,79.2032 168.478,79.9502"/>
    <polyline points="174.723,69.2467 179.7032,69.1281 185.4344,69.0095 189.1499,68.3771 189.7823,66.9937 189.2684,65.6499 186.0273,62.7645 181.9167,62.7645 178.2013,64.1479 175.5926,66.5194 173.6953,71.3415 173.0866,74.2269 172.9641,76.2032 175.0787,78.9542 178.557,80.6973 182.5491,80.4482 186.7783,79.4522 189.7823,77.9581 190.889,76.5985"/>
    <polyline points="196.8573,53.6736 197.2131,71.1044 197.4898,79.3297"/>
    <polyline points="203.1024,62.6459 203.3395,80.8218 204.8415,68.3771 207.3316,64.6222 211.6795,62.7645 214.2881,62.6459 216.0273,63.7526 217.4107,67.1123 216.8968,80.8218 218.2802,68.14 221.2842,64.7408 225.5134,62.7645 229.1103,62.7645 231.3632,63.7526 231.8375,66.8752 231.9956,72.7249 232.2328,80.4482"/>
    <polyline points="245.3948,62.4088 240.4146,64.6222 237.8059,68.3771 236.0668,72.0925 236.9363,77.0846 238.5569,79.8237 243.8138,80.6973 248.1616,79.5787 252.628,76.717 255.1181,72.0925 254.2485,66.3613 252.2723,64.1479 250.0193,62.7645 245.3948,62.4088"/>
  </g>
</svg>
