<svg xmlns="http://www.w3.org/2000/svg" xmlns:xlink="http://www.w3.org/1999/xlink" version="1.1" width="455" height="173"><g fill="none" fill-rule="nonzero" stroke="#010100" stroke-width="1" stroke-linecap="butt" stroke-linejoin="miter" stroke-miterlimit="10" stroke-dasharray="" stroke-dashoffset="0" font-family="none" font-weight="none" font-size="none" text-anchor="none" style="mix-blend-mode: normal" transform="scale(1)"><g><g id="text"><g id="text-line-0"><path d="M54.8,32l-9.1,0.9l-9.8,4.7l-7.2,6.3l-5.7,6l-6,10.7l-4.1,11.4l-0.6,10.4l1.9,7.5l4.7,5.38l9.1,3.775l9.5,-1.575l11.3,-5.36l7.3,-5.32l5.6,-5.4l1.3,-2.5l0.6,-19.2l-30.5,5.3l41.2,-6.9l-10.4,1.9v44.41"></path><path d="M88.2,54l-2.5,14.5l-0.9,16.7l3.8,9.76l7.8,4.095l13.3,-0.945l7.5,-4.72l4.1,-1.9l4.1,-5.69l2.9,-6l-2.3,-27l3.2,45.94"></path><path d="M180.2,73.9l-6.6,11.3l-11.9,9.44l-13,4.73h-9.1l-2.8,-4.73l3.8,-11.94l9.4,-14.2l10.7,-8.8l6.9,-3.5l7,1l5.6,4.4l1.6,44.7l-1.2,15.1l-3.5,9.5l-4.4,6.3l-4.1,3.4l-5.4,1l-4.1,0.3l-11.3,-0.3"></path><path d="M196.6,31l0.9,44.1l0.7,20.81"></path><path d="M218.1,36.4h1.8M220.6,55.3l0.9,40.29l1.9,1.89"></path><path d="M239.2,70.4l12.6,-0.3l14.5,-0.3l9.4,-1.6l1.6,-3.5l-1.3,-3.4l-8.2,-7.3h-10.4l-9.4,3.5l-6.6,6l-4.8,12.2l-1.54,7.3l-0.31,5l5.35,6.96l8.8,4.41l10.1,-0.63l10.7,-2.52l7.6,-3.78l2.8,-3.44"></path><path d="M295.2,31l0.9,44.1l0.7,20.81"></path><path d="M311,53.7l0.6,45.985l3.8,-31.485l6.3,-9.5l11,-4.7l6.6,-0.3l4.4,2.8l3.5,8.5l-1.3,34.685l3.5,-32.085l7.6,-8.6l10.7,-5h9.1l5.7,2.5l1.2,7.9l0.4,14.8l0.6,19.54"></path><path d="M418,53.1l-12.6,5.6l-6.6,9.5l-4.4,9.4l2.2,12.63l4.1,6.93l13.3,2.21l11,-2.83l11.3,-7.24l6.3,-11.7l-2.2,-14.5l-5,-5.6l-5.7,-3.5l-11.7,-0.9"></path></g></g></g></g></svg>