<svg xmlns="http://www.w3.org/2000/svg" xmlns:xlink="http://www.w3.org/1999/xlink" version="1.1" width="231" height="174"><g fill="none" fill-rule="nonzero" stroke="#010100" stroke-width="1" stroke-linecap="butt" stroke-linejoin="miter" stroke-miterlimit="10" stroke-dasharray="" stroke-dashoffset="0" font-family="none" font-weight="none" font-size="none" text-anchor="none" style="mix-blend-mode: normal" transform="scale(1)"><g><g id="text"><g id="text-line-0"><path d="M14.8,32.9v0.6l0.3,27.4v16.4l-0.9,14.19l-0.3,5.67h20.1l28.7,0.63"></path><path d="M115.3,72.3l-5.7,12.6l-9.2,8.49l-6.6,3.77l-6.3,2.21l-8.8,-0.95l-4.7,-3.14l-1.3,-9.78l4.8,-9.8l6.2,-9.4l10.1,-6.9l7.6,-3.5h5.7l6.9,1.3l1.3,4.7l1.2,37.785"></path><path d="M131.6,31l0.9,44.1l0.7,20.81"></path><path d="M151.8,31l0.9,44.1l0.7,20.81"></path><path d="M166.6,57.5l32.5,46.28l17.9,-47.28l-32.7,86"></path></g></g></g></g></svg>