<?xml version="1.0" encoding="utf-8" ?>
<svg xmlns="http://www.w3.org/2000/svg" xmlns:cc="http://creativecommons.org/ns" xmlns:dc="http://purl.org/dc/elements/1.1/" xmlns:ev="http://www.w3.org/2001/xml-events" xmlns:inkscape="http://www.inkscape.org/namespaces/inkscape" xmlns:rdf="http://www.w3.org/1999/02/22-rdf-syntax-ns" xmlns:sodipodi="http://sodipodi.sourceforge.net/DTD/sodipodi-0.dtd" xmlns:xlink="http://www.w3.org/1999/xlink" baseProfile="tiny" height="4.0cm" version="1.2" viewBox="0 0 340.1574803149606 151.1811023622047" width="9.0cm">
  <metadata>
    <rdf:RDF>
      <cc:Work>
        <dc:format>image/svg+xml</dc:format>
        <dc:source>vpype read -m -l1 -c fanusele/lauretta.svg scaleto -l1 -o 0 0 4.5cm 1.5cm layout -l -v center -h center 9cmx4cm write fanusele/lauretta.out.svg
</dc:source>
        <dc:date>2022-11-20T19:35:25.858982</dc:date>
      </cc:Work>
    </rdf:RDF>
  </metadata>
  <defs/>
  <g fill="none" id="layer1" inkscape:groupmode="layer" inkscape:label="1" stroke="#010100" stroke-width="1.0" style="display:inline">
    <polyline points="85.4267,61.2197 85.4267,61.4779 85.5558,73.2698 85.5558,80.3278 85.1685,86.4346 85.0394,88.8747 93.6896,88.8747 106.041,89.1459"/>
    <polyline points="128.678,78.1759 126.2249,83.5985 122.2656,87.2523 119.4252,88.8747 116.714,89.8258 112.9268,89.417 110.9041,88.0656 110.3446,83.8567 112.4103,79.6392 115.0786,75.5938 119.4252,72.6243 122.696,71.118 125.149,71.118 128.1185,71.6775 128.678,73.7002 129.1944,89.9614"/>
    <polyline points="134.3157,70.3003 133.2398,76.5406 132.8525,83.7276 134.4879,87.9279 137.8447,89.6903 143.5685,89.2836 146.7962,87.2523 148.5607,86.4346 150.3252,83.9858 151.5732,81.4037 150.5834,69.7839 151.9605,89.5547"/>
    <polyline points="155.6186,69.913 155.1022,89.417 156.4363,78.4342 159.707,74.2166 163.8815,71.8066 167.2814,70.4294 168.7877,70.3003 173.2634,70.7307 173.7798,71.118"/>
    <polyline points="178.5569,77.3583 183.9794,77.2292 190.2196,77.1 194.265,76.4115 194.9536,74.9052 194.3941,73.442 190.8652,70.3003 186.3894,70.3003 182.344,71.8066 179.5037,74.3888 177.4379,79.6392 176.7752,82.7808 176.6417,84.9326 178.9442,87.9279 182.7314,89.8258 187.078,89.5547 191.6829,88.4702 194.9536,86.8434 196.1586,85.363"/>
    <polyline points="207.3911,61.2197 208.0796,89.8258 207.6923,73.8293 199.4036,73.8293 214.8363,73.7002"/>
    <polyline points="225.4232,61.2197 226.1118,89.8258 225.7244,73.8293 217.4357,73.8293 232.8684,73.7002"/>
    <polyline points="254.6017,78.1759 252.1486,83.5985 248.1893,87.2523 245.3489,88.8747 242.6376,89.8258 238.8505,89.417 236.8278,88.0656 236.2683,83.8567 238.334,79.6392 241.0023,75.5938 245.3489,72.6243 248.6197,71.118 251.0727,71.118 254.0422,71.6775 254.6017,73.7002 255.1181,89.9614"/>
  </g>
</svg>
