<svg xmlns="http://www.w3.org/2000/svg" xmlns:xlink="http://www.w3.org/1999/xlink" version="1.1" width="239" height="133"><g fill="none" fill-rule="nonzero" stroke="#010100" stroke-width="1" stroke-linecap="butt" stroke-linejoin="miter" stroke-miterlimit="10" stroke-dasharray="" stroke-dashoffset="0" font-family="none" font-weight="none" font-size="none" text-anchor="none" style="mix-blend-mode: normal" transform="scale(1)"><g><g id="text"><g id="text-line-0"><path d="M14.8,32.9v0.6l0.3,27.4v16.4l-0.9,14.19l-0.3,5.67h20.1l28.7,0.63"></path><path d="M96.3,53.1l-12.6,5.6l-6.6,9.5l-4.4,9.4l2.2,12.63l4.1,6.93l13.3,2.21l11,-2.83l11.3,-7.24l6.3,-11.7l-2.2,-14.5l-5,-5.6l-5.7,-3.5l-11.7,-0.9"></path><path d="M130,53.1l-1.2,45.32l3.1,-25.52l7.6,-9.8l9.7,-5.6l7.9,-3.2l3.5,-0.3l10.4,1l1.2,0.9"></path><path d="M183.3,70.4l12.6,-0.3l14.5,-0.3l9.4,-1.6l1.6,-3.5l-1.3,-3.4l-8.2,-7.3h-10.4l-9.4,3.5l-6.6,6l-4.8,12.2l-1.54,7.3l-0.31,5l5.35,6.96l8.8,4.41l10.1,-0.63l10.7,-2.52l7.6,-3.78l2.8,-3.44"></path></g></g></g></g></svg>