<svg xmlns="http://www.w3.org/2000/svg" xmlns:xlink="http://www.w3.org/1999/xlink" version="1.1" width="252" height="133"><g fill="none" fill-rule="nonzero" stroke="#010100" stroke-width="1" stroke-linecap="butt" stroke-linejoin="miter" stroke-miterlimit="10" stroke-dasharray="" stroke-dashoffset="0" font-family="none" font-weight="none" font-size="none" text-anchor="none" style="mix-blend-mode: normal" transform="scale(1)"><g><g id="text"><g id="text-line-0"><path d="M11.3,97.16l3.2,-31.76l2.5,-22.7l2.2,-8.9l1.9,-0.6l4.4,3.2l7.6,15.4l7.9,15.1l6.9,14.2l4.4,-6.3l11.6,-21.7l10.4,-20.2l2.2,1.6l2.3,9.1l2.2,15.4l2.5,16.4l2.5,23.34"></path><path d="M137.7,72.3l-5.7,12.6l-9.2,8.49l-6.6,3.77l-6.3,2.21l-8.8,-0.95l-4.7,-3.14l-1.3,-9.78l4.8,-9.8l6.2,-9.4l10.1,-6.9l7.6,-3.5h5.7l6.9,1.3l1.3,4.7l1.2,37.785"></path><path d="M146.44,55l0.31,43.11l-0.31,-30.51l11.66,-7.6l11.3,-5.4l7.3,-0.6l5.3,0.6l3.5,3.8l2.5,11l-0.3,29.655"></path><path d="M199.3,54l-2.5,14.5l-0.9,16.7l3.8,9.76l7.8,4.095l13.3,-0.945l7.5,-4.72l4.1,-1.9l4.1,-5.69l2.9,-6l-2.3,-27l3.2,45.94"></path></g></g></g></g></svg>