<?xml version="1.0" encoding="utf-8" ?>
<svg xmlns="http://www.w3.org/2000/svg" xmlns:cc="http://creativecommons.org/ns" xmlns:dc="http://purl.org/dc/elements/1.1/" xmlns:ev="http://www.w3.org/2001/xml-events" xmlns:inkscape="http://www.inkscape.org/namespaces/inkscape" xmlns:rdf="http://www.w3.org/1999/02/22-rdf-syntax-ns" xmlns:sodipodi="http://sodipodi.sourceforge.net/DTD/sodipodi-0.dtd" xmlns:xlink="http://www.w3.org/1999/xlink" baseProfile="tiny" height="4.0cm" version="1.2" viewBox="0 0 340.1574803149606 151.1811023622047" width="9.0cm">
  <metadata>
    <rdf:RDF>
      <cc:Work>
        <dc:format>image/svg+xml</dc:format>
        <dc:source>vpype read -m -l1 -c fanusele/marco-d--v-.svg scaleto -l1 -o 0 0 4.5cm 1.5cm layout -l -v center -h center 9cmx4cm write fanusele/marco-d--v-.out.svg
</dc:source>
        <dc:date>2022-11-20T20:08:59.151465</dc:date>
      </cc:Work>
    </rdf:RDF>
  </metadata>
  <defs/>
  <g fill="none" id="layer1" inkscape:groupmode="layer" inkscape:label="1" stroke="#010100" stroke-width="1.0" style="display:inline">
    <polyline points="85.0394,85.5654 86.079,75.247 86.8912,67.872 87.606,64.9805 88.2233,64.7856 89.6528,65.8252 92.1219,70.8285 94.6885,75.7343 96.9303,80.3477 98.3598,78.3009 102.1285,71.2509 105.5073,64.6881 106.2221,65.208 106.9693,68.1644 107.684,73.1677 108.4963,78.4959 109.3085,86.0787"/>
    <polyline points="126.1052,77.4887 124.2533,81.5823 121.2644,84.3406 119.1201,85.5654 117.0733,86.2834 114.2143,85.9748 112.6873,84.9546 112.265,81.7772 113.8244,78.5933 115.8387,75.5394 119.1201,73.2977 121.5892,72.1605 123.4411,72.1605 125.6828,72.5829 126.1052,74.1099 126.495,86.3858"/>
    <polyline points="130.1663,71.2509 129.7764,85.9748 130.7836,77.6836 133.2527,74.4997 136.4041,72.6804 138.9707,71.6407 140.1078,71.5433 143.4867,71.8681 143.8765,72.1605"/>
    <polyline points="160.3808,72.9728 159.3412,72.0631 156.2873,71.7382 153.0059,72.9728 150.2443,75.0196 147.2554,78.9182 146.3457,83.0118 148.295,85.364 152.2911,86.5904 156.5797,86.3858 159.6336,85.6694 162.915,83.928"/>
    <polygon points="173.7662,71.2509 169.6726,73.0702 167.5284,76.1567 166.0989,79.2106 166.8136,83.3139 168.1457,85.5654 172.4667,86.2834 176.0404,85.364 179.7117,83.0118 181.7585,79.2106 181.0437,74.4997 179.4193,72.6804 177.5674,71.5433"/>
    <polyline points="196.8008,64.5907 196.8982,86.4881 199.8547,86.0787 203.461,84.9546 207.2297,83.0118 210.3161,80.8675 212.7527,78.3984 214.7021,75.5394 215.3194,73.1677 215.027,70.5361 212.8502,67.9695 209.2764,66.0202 205.8001,65.1105 202.2264,64.8831 199.5623,65.208 196.8982,65.8252"/>
    <line x1="218.1979" x2="218.6982" y1="86.1811" y2="86.0787"/>
    <polyline points="233.643,64.9805 242.7399,85.0553 243.9745,85.26 247.9706,75.117 252.584,64.6881"/>
    <line x1="254.6178" x2="255.1181" y1="86.1811" y2="86.0787"/>
  </g>
</svg>
