<?xml version="1.0" encoding="utf-8" ?>
<svg xmlns="http://www.w3.org/2000/svg" xmlns:cc="http://creativecommons.org/ns" xmlns:dc="http://purl.org/dc/elements/1.1/" xmlns:ev="http://www.w3.org/2001/xml-events" xmlns:inkscape="http://www.inkscape.org/namespaces/inkscape" xmlns:rdf="http://www.w3.org/1999/02/22-rdf-syntax-ns" xmlns:sodipodi="http://sodipodi.sourceforge.net/DTD/sodipodi-0.dtd" xmlns:xlink="http://www.w3.org/1999/xlink" baseProfile="tiny" height="4.0cm" version="1.2" viewBox="0 0 340.1574803149606 151.1811023622047" width="9.0cm">
  <metadata>
    <rdf:RDF>
      <cc:Work>
        <dc:format>image/svg+xml</dc:format>
        <dc:source>vpype read -m -l1 -c fanusele/marco-p-.svg scaleto -l1 -o 0 0 4.5cm 1.5cm layout -l -v center -h center 9cmx4cm write fanusele/marco-p-.out.svg
</dc:source>
        <dc:date>2022-11-20T19:39:24.868742</dc:date>
      </cc:Work>
    </rdf:RDF>
  </metadata>
  <defs/>
  <g fill="none" id="layer1" inkscape:groupmode="layer" inkscape:label="1" stroke="#010100" stroke-width="1.0" style="display:inline">
    <polyline points="85.0394,88.5742 86.3646,75.4218 87.3998,66.0213 88.3109,62.3356 89.0977,62.0872 90.9199,63.4123 94.0672,69.7898 97.3387,76.043 100.1961,81.9235 102.0183,79.3145 106.822,70.3281 111.1289,61.9629 112.0399,62.6255 112.9924,66.394 113.9035,72.7714 114.9388,79.563 115.9741,89.2285"/>
    <polyline points="137.384,78.2792 135.0236,83.4971 131.2137,87.013 128.4805,88.5742 125.8715,89.4894 122.2273,89.096 120.2809,87.7957 119.7426,83.7456 121.7303,79.6872 124.2979,75.7945 128.4805,72.9371 131.6278,71.4877 133.9883,71.4877 136.8457,72.026 137.384,73.9724 137.881,89.6199"/>
    <polyline points="142.5605,70.3281 142.0636,89.096 143.3473,78.5277 146.4947,74.4693 150.5116,72.1503 153.7832,70.8251 155.2326,70.7008 159.5394,71.115 160.0364,71.4877"/>
    <polyline points="181.0736,72.523 179.7484,71.3634 175.8557,70.9493 171.6731,72.523 168.1531,75.1319 164.3432,80.1013 163.1837,85.3192 165.6684,88.3175 170.762,89.8808 176.2284,89.6199 180.1211,88.7067 184.3037,86.4871"/>
    <polyline points="198.1353,70.3281 192.9174,72.6472 190.1842,76.5813 188.3621,80.4741 189.2732,85.7044 190.9711,88.5742 196.4788,89.4894 201.0341,88.3175 205.7137,85.3192 208.3226,80.4741 207.4116,74.4693 205.341,72.1503 202.9805,70.7008 198.1353,70.3281"/>
    <polyline points="228.4074,88.5742 228.4074,81.2609 228.7801,71.115 229.07,66.9324 230.2295,64.0335 233.8738,62.2114 239.5058,61.3003 245.0964,61.4246 249.9416,63.2881 251.3496,64.8203 251.2254,67.9677 249.5275,70.5766 245.759,72.9371 241.0381,74.3451 236.607,75.0077 228.6559,75.2561"/>
    <line x1="254.4804" x2="255.1181" y1="89.359" y2="89.2285"/>
  </g>
</svg>
