<svg xmlns="http://www.w3.org/2000/svg" xmlns:xlink="http://www.w3.org/1999/xlink" version="1.1" width="332" height="133"><g fill="none" fill-rule="nonzero" stroke="#010100" stroke-width="1" stroke-linecap="butt" stroke-linejoin="miter" stroke-miterlimit="10" stroke-dasharray="" stroke-dashoffset="0" font-family="none" font-weight="none" font-size="none" text-anchor="none" style="mix-blend-mode: normal" transform="scale(1)"><g><g id="text"><g id="text-line-0"><path d="M11.3,97.16l3.2,-31.76l2.5,-22.7l2.2,-8.9l1.9,-0.6l4.4,3.2l7.6,15.4l7.9,15.1l6.9,14.2l4.4,-6.3l11.6,-21.7l10.4,-20.2l2.2,1.6l2.3,9.1l2.2,15.4l2.5,16.4l2.5,23.34"></path><path d="M137.7,72.3l-5.7,12.6l-9.2,8.49l-6.6,3.77l-6.3,2.21l-8.8,-0.95l-4.7,-3.14l-1.3,-9.78l4.8,-9.8l6.2,-9.4l10.1,-6.9l7.6,-3.5h5.7l6.9,1.3l1.3,4.7l1.2,37.785"></path><path d="M150.2,53.1l-1.2,45.32l3.1,-25.52l7.6,-9.8l9.7,-5.6l7.9,-3.2l3.5,-0.3l10.4,1l1.2,0.9"></path><path d="M207.6,36.4h1.8M210.1,55.3l0.9,40.29l1.9,1.89"></path><path d="M223.94,32.6l1.86,38.1v28.04l0.7,-23.34l8.8,-7.5l22.7,-15.1l-30.6,21.4l12,8.8l27.1,14.79"></path><path d="M318.5,72.3l-5.7,12.6l-9.2,8.49l-6.6,3.77l-6.3,2.21l-8.8,-0.95l-4.7,-3.14l-1.3,-9.78l4.8,-9.8l6.2,-9.4l10.1,-6.9l7.6,-3.5h5.7l6.9,1.3l1.3,4.7l1.2,37.785"></path></g></g></g></g></svg>