<svg xmlns="http://www.w3.org/2000/svg" xmlns:xlink="http://www.w3.org/1999/xlink" version="1.1" width="329" height="132"><g fill="none" fill-rule="nonzero" stroke="#010100" stroke-width="1" stroke-linecap="butt" stroke-linejoin="miter" stroke-miterlimit="10" stroke-dasharray="" stroke-dashoffset="0" font-family="none" font-weight="none" font-size="none" text-anchor="none" style="mix-blend-mode: normal" transform="scale(1)"><g><g id="text"><g id="text-line-0"><path d="M12,97.16l0.9,-21.46l0.3,-18.5v-19.9l1.6,-3.1l10.7,11.6l12.6,16.4l16.4,21.1l8.8,11.98l0.3,-11.68v-22.7l-0.3,-28.6"></path><path d="M119.1,72.3l-5.7,12.6l-9.2,8.49l-6.6,3.77l-6.3,2.21l-8.8,-0.95l-4.7,-3.14l-1.3,-9.78l4.8,-9.8l6.2,-9.4l10.1,-6.9l7.6,-3.5h5.7l6.9,1.3l1.3,4.7l1.2,37.785"></path><path d="M146.4,32.9l1.6,66.47l-0.9,-37.17h-19.26l35.86,-0.3"></path><path d="M174.5,33.2l-1,31.2l1,34.97l2.5,-26.47l7.9,-10.1l9.1,-5.6l8.2,0.3l5.6,4.7l5.7,10.7l1,10.4l0.3,13.86"></path><path d="M265.9,72.3l-5.7,12.6l-9.2,8.49l-6.6,3.77l-6.3,2.21l-8.8,-0.95l-4.7,-3.14l-1.3,-9.78l4.8,-9.8l6.2,-9.4l10.1,-6.9l7.6,-3.5h5.7l6.9,1.3l1.3,4.7l1.2,37.785"></path><path d="M274.64,55l0.31,43.11l-0.31,-30.51l11.66,-7.6l11.3,-5.4l7.3,-0.6l5.3,0.6l3.5,3.8l2.5,11l-0.3,29.655"></path></g></g></g></g></svg>