<svg xmlns="http://www.w3.org/2000/svg" xmlns:xlink="http://www.w3.org/1999/xlink" version="1.1" width="307" height="132"><g fill="none" fill-rule="nonzero" stroke="#010100" stroke-width="1" stroke-linecap="butt" stroke-linejoin="miter" stroke-miterlimit="10" stroke-dasharray="" stroke-dashoffset="0" font-family="none" font-weight="none" font-size="none" text-anchor="none" style="mix-blend-mode: normal" transform="scale(1)"><g><g id="text"><g id="text-line-0"><path d="M12,97.16l0.9,-21.46l0.3,-18.5v-19.9l1.6,-3.1l10.7,11.6l12.6,16.4l16.4,21.1l8.8,11.98l0.3,-11.68v-22.7l-0.3,-28.6"></path><path d="M79,54l-2.5,14.5l-0.9,16.7l3.8,9.76l7.8,4.095l13.3,-0.945l7.5,-4.72l4.1,-1.9l4.1,-5.69l2.9,-6l-2.3,-27l3.2,45.94"></path><path d="M124.74,55l0.31,43.11l-0.31,-30.51l11.66,-7.6l11.3,-5.4l7.3,-0.6l5.3,0.6l3.5,3.8l2.5,11l-0.3,29.655"></path><path d="M176.1,54.6h1.2l38.8,0.4l1.9,1.5l-10.1,11.4l-18.3,16.3l-11,10.76l-1,3.15h10.4h29.3l2.6,0.945"></path><path d="M232.5,36.4h1.8M235,55.3l0.9,40.29l1.9,1.89"></path><path d="M293.3,72.3l-5.7,12.6l-9.2,8.49l-6.6,3.77l-6.3,2.21l-8.8,-0.95l-4.7,-3.14l-1.3,-9.78l4.8,-9.8l6.2,-9.4l10.1,-6.9l7.6,-3.5h5.7l6.9,1.3l1.3,4.7l1.2,37.785"></path></g></g></g></g></svg>