<?xml version="1.0" encoding="utf-8" ?>
<svg xmlns="http://www.w3.org/2000/svg" xmlns:cc="http://creativecommons.org/ns" xmlns:dc="http://purl.org/dc/elements/1.1/" xmlns:ev="http://www.w3.org/2001/xml-events" xmlns:inkscape="http://www.inkscape.org/namespaces/inkscape" xmlns:rdf="http://www.w3.org/1999/02/22-rdf-syntax-ns" xmlns:sodipodi="http://sodipodi.sourceforge.net/DTD/sodipodi-0.dtd" xmlns:xlink="http://www.w3.org/1999/xlink" baseProfile="tiny" height="18.1cm" version="1.2" viewBox="0 0 113.38582677165354 684.0944881889764" width="3.0cm">
  <metadata>
    <rdf:RDF>
      <cc:Work>
        <dc:format>image/svg+xml</dc:format>
        <dc:source>vpype read fanusele/25-novembre-2022.svg layout --fit-to-margins 0cm -h left 3cmx18.1cm write fanusele/out.svg
</dc:source>
        <dc:date>2022-11-20T10:47:29.326258</dc:date>
      </cc:Work>
    </rdf:RDF>
  </metadata>
  <defs/>
  <g fill="none" id="layer1" inkscape:groupmode="layer" inkscape:label="1" stroke="#010100" stroke-width="1.0" style="display:inline">
    <line x1="0.2896" x2="0.2896" y1="338.19" y2="341.2703"/>
    <polyline points="0.7609,338.19 0.7609,338.9486 1.3355,338.5923 2.1401,338.2935 2.9331,338.259 3.6917,338.3394 4.3124,338.6268 4.8526,339.0635 5.1054,339.4543 5.2893,339.96 5.2548,340.6152 5.0709,341.1553 4.5307,341.776 3.6917,342.5001 1.0137,344.4172"/>
    <polyline points="1.6344,344.4172 5.1744,344.4172 5.1744,343.2587"/>
    <line x1="5.7605" x2="5.7605" y1="343.2587" y2="345.5758"/>
    <line x1="5.1054" x2="0.7264" y1="344.8884" y2="344.8884"/>
    <polyline points="5.1399,345.5758 0.0,345.5758 0.0,344.8517"/>
    <polyline points="0.2896,344.3448 3.7262,341.1553 4.0595,340.5117 4.0595,339.7416 3.6228,339.0635 3.0366,338.8796 2.0941,338.8796 1.3815,339.2704 0.9448,339.8911 0.7264,340.7186 0.7264,341.3048"/>
    <polyline points="4.3813,339.4198 4.6687,339.9255 4.6687,340.5462 4.4848,340.9829 4.1285,341.4542"/>
    <polyline points="6.4777,343.4426 6.4777,344.8149 7.0938,345.2493 7.9673,345.5395 8.9787,345.6849 10.2085,345.3947 11.0361,344.7425 11.6222,343.7989 11.6567,342.7529 11.22,341.707 10.8637,341.2703 10.1741,340.937"/>
    <polyline points="6.8754,343.477 6.8754,344.0862 7.0938,344.4528 7.634,344.8884 8.3926,345.1769 9.1971,345.1413 10.0591,344.5988 10.3465,343.8793 10.4269,342.7874 10.2775,342.0633 9.7028,341.4887 9.0822,341.2358 8.3581,341.1898 7.634,341.3392 7.2432,341.6266"/>
    <polyline points="10.6798,344.3448 10.9671,343.6954 11.0361,343.0748 11.0016,342.5346 10.7487,341.9139"/>
    <polyline points="6.8754,341.6266 6.6226,341.5921 6.9122,338.5578 10.7487,338.5578 10.7487,337.7188"/>
    <line x1="11.2545" x2="11.2545" y1="337.6843" y2="339.6727"/>
    <polyline points="10.6108,339.5348 7.3122,339.5348 7.3122,340.937 7.7489,340.7186 8.1742,340.6152 8.9787,340.6496"/>
    <line x1="7.3811" x2="10.6108" y1="339.098" y2="339.0635"/>
    <line x1="16.5058" x2="20.0125" y1="345.4309" y2="345.4309"/>
    <polyline points="19.978,344.9609 18.7137,344.9609 18.5298,344.7793 18.5298,340.006"/>
    <polyline points="18.8976,340.5807 22.5526,345.5758 22.771,345.5758"/>
    <polyline points="23.1617,345.5758 23.1617,339.2359 23.3456,339.0176 24.5065,339.0176"/>
    <line x1="24.5754" x2="21.0354" y1="338.4774" y2="338.4774"/>
    <polyline points="21.0699,338.9831 22.2652,338.9831 22.5181,339.2359 22.5181,343.5805"/>
    <polyline points="22.0124,342.7874 18.9321,338.5578 16.5058,338.5578"/>
    <polyline points="16.4702,339.0176 17.6678,339.0176 17.9552,339.3164 17.9552,344.7068 17.7023,344.9609 16.5058,344.9609"/>
    <line x1="18.8172" x2="22.2997" y1="339.4198" y2="344.1322"/>
    <polyline points="25.3742,340.5807 25.1938,341.8794 25.2662,342.9024 25.8455,344.4528 26.7477,345.3223 28.2763,345.8286 29.5406,345.6125 30.8394,344.8517 31.598,343.5805 31.8968,342.2817 31.7474,340.6841 31.0578,339.4198 29.7245,338.4774 28.1959,338.259 27.081,338.5578 26.4259,339.0176"/>
    <polyline points="26.8282,339.6037 26.4259,340.3968 26.3569,341.4887 26.4949,342.9024 26.8971,344.0862 27.6212,344.8884 28.851,345.1045 29.9314,344.562 30.4026,343.5805 30.5176,342.1323 30.4026,340.868 30.0119,339.7876 29.3567,339.0635 28.5637,338.8796"/>
    <polyline points="25.9891,340.2129 25.8098,341.4082 25.8098,342.4311 25.9891,343.2242 26.173,343.7989 26.4604,344.3448"/>
    <polyline points="30.9199,343.615 31.1727,342.638 31.1727,341.4887 30.9199,340.3623 30.5176,339.6037"/>
    <polyline points="32.5427,338.9831 33.5978,338.9831 36.2758,345.6125 36.8505,345.6125 39.4251,339.2359 39.6779,339.0176 40.6204,338.9831"/>
    <line x1="40.6204" x2="37.0689" y1="338.4774" y2="338.4774"/>
    <polyline points="37.0689,339.0176 38.586,339.0176 38.7699,339.2014 36.885,343.9828"/>
    <polyline points="36.6321,343.3276 34.8966,338.9831 35.8391,338.9831"/>
    <line x1="35.8391" x2="32.4347" y1="338.5118" y2="338.5118"/>
    <line x1="34.3909" x2="36.5287" y1="339.3164" y2="344.5252"/>
    <polyline points="41.087,345.3585 47.528,345.3585 47.528,346.4447"/>
    <line x1="48.1142" x2="48.1142" y1="346.4447" y2="343.1897"/>
    <polyline points="47.6774,343.8793 47.6084,344.4896 47.3096,344.7425 43.5857,344.7425 43.7696,344.562 43.7696,342.569"/>
    <polyline points="43.7696,342.2128 44.5627,342.2128 44.9994,342.3507 45.1373,342.7529 45.1373,343.6609 45.5741,343.6609 45.5741,340.1094"/>
    <polyline points="45.1373,340.6152 45.1373,341.1898 44.9994,341.4887 44.7466,341.6266 43.8041,341.6266 43.8041,339.8566"/>
    <polyline points="43.5167,339.0635 46.4131,339.0635 46.7349,339.3164 46.9188,339.7416 46.9533,340.7646"/>
    <line x1="46.8843" x2="41.0158" y1="338.5118" y2="338.5118"/>
    <polyline points="40.979,338.9831 42.1375,338.9831 42.4249,339.098 42.5743,339.3509 42.5743,344.6344 42.3559,344.9965 40.979,344.9965"/>
    <line x1="43.149" x2="43.149" y1="344.6344" y2="339.3164"/>
    <line x1="47.4245" x2="47.1717" y1="340.6496" y2="337.6498"/>
    <line x1="48.6911" x2="52.0564" y1="345.4309" y2="345.4309"/>
    <polyline points="52.0909,344.9965 50.8956,344.9965 50.6772,344.7793 50.976,340.6841"/>
    <polyline points="51.2289,341.1209 53.5046,345.5033 53.8264,345.5395 56.401,340.4657"/>
    <polyline points="56.401,341.3392 56.7688,344.6344 56.6194,344.9241 55.3895,344.9241"/>
    <line x1="55.424" x2="59.2629" y1="345.4309" y2="345.4309"/>
    <polyline points="59.2284,344.9609 58.2859,344.9609 58.0675,344.7068 57.4929,339.3164 57.7112,339.0176 58.6422,339.0176"/>
    <polyline points="58.6077,338.5118 56.8722,338.5118 54.0448,344.0517"/>
    <polyline points="53.8264,343.477 51.2979,338.5118 49.3072,338.5118"/>
    <polyline points="49.3072,338.9486 50.5393,338.9486 50.6427,339.1325 50.1025,344.7068 49.8152,344.9609 48.6543,344.9609"/>
    <line x1="51.1484" x2="53.5391" y1="339.5348" y2="344.2011"/>
    <line x1="57.4124" x2="56.8377" y1="344.8884" y2="339.6382"/>
    <polyline points="59.6249,345.4309 64.5844,345.4309 65.4923,345.2137 66.2509,344.8517 66.8716,344.308 67.044,343.6609 67.0095,343.0058 66.6877,342.3162 66.0325,341.9139 65.3774,341.707"/>
    <polyline points="64.297,341.4542 65.205,341.1553 65.8142,340.6496 66.0325,339.96 65.8486,339.5348 65.3774,339.0635 64.6878,338.7647 63.8948,338.5578 62.596,338.5578 59.6605,338.5578"/>
    <polyline points="59.5893,338.9831 60.6076,338.9831 60.8949,338.9831 61.1478,339.2014 61.1478,344.7793 61.0329,344.9609 59.5893,344.9609"/>
    <polyline points="62.1592,344.9241 64.4809,344.9241 65.205,344.4896 65.6303,343.9828 65.7452,343.3276 65.5268,342.7185 65.0556,342.2472 64.4349,341.9944 63.5729,341.8105 62.3776,341.8105 62.3776,344.1322"/>
    <line x1="61.757" x2="61.757" y1="344.7425" y2="339.1325"/>
    <polyline points="62.1247,339.0635 63.389,339.167 64.1131,339.3509 64.6188,339.9255 64.6188,340.4313 64.297,340.868 63.7568,341.1898 62.9868,341.3048 62.3431,341.3048 62.3431,339.8221"/>
    <polyline points="65.0901,339.5692 65.274,340.006 65.205,340.3623 65.0211,340.6152"/>
    <polyline points="65.9636,342.5001 66.2854,342.9368 66.3544,343.3621 66.3199,343.7989 66.0325,344.3448"/>
    <line x1="67.7336" x2="71.8598" y1="345.3947" y2="345.3947"/>
    <polyline points="71.8598,344.9609 70.6299,344.9609 70.4461,344.7793 70.4461,342.7874"/>
    <polyline points="72.9516,342.638 74.032,342.2817 74.6872,341.7415 75.0779,341.0519 75.0435,340.2589 74.7561,339.5692 73.8481,338.9486 73.1585,338.6613 72.0092,338.5118 67.6968,338.5118"/>
    <polyline points="67.66,339.0176 68.9979,339.0176 69.1473,339.2014 69.1473,344.7068 68.9289,344.9609 67.7692,344.9609"/>
    <line x1="69.7909" x2="69.7909" y1="344.8884" y2="339.3509"/>
    <polyline points="70.1587,339.098 71.9747,339.098 72.5149,339.167 72.9057,339.3164 73.3079,339.5692 73.6298,339.96 73.7102,340.6152 73.6298,341.2703 73.124,341.8105 72.5149,342.0633 71.8598,342.0978 70.4461,342.0978 70.4461,339.8911"/>
    <polyline points="74.0665,339.7876 74.3998,340.4313 74.3998,340.937 74.1814,341.5231 73.9975,341.7415"/>
    <polyline points="70.7794,342.7185 71.6414,342.7185 71.9747,342.9024 72.1816,343.1552 72.5494,343.5805 73.5608,345.0689 73.9286,345.3947 74.1814,345.5395 74.7216,345.5395 75.2618,345.4309 75.8825,345.3223"/>
    <polyline points="75.917,344.8517 75.2963,344.9965 75.0779,344.9965 74.6067,344.4896 73.7792,343.2587 73.5263,342.9713 73.3424,342.9024"/>
    <polyline points="73.0206,343.3276 73.4574,343.7989 73.9286,344.5988 74.1355,344.8884 74.2849,344.9965"/>
    <polyline points="76.2802,345.3585 82.7211,345.3585 82.7211,346.4447"/>
    <line x1="83.3073" x2="83.3073" y1="346.4447" y2="343.1897"/>
    <polyline points="82.8705,343.8793 82.8016,344.4896 82.5028,344.7425 78.7789,344.7425 78.9627,344.562 78.9627,342.569"/>
    <polyline points="78.9627,342.2128 79.7558,342.2128 80.1926,342.3507 80.3305,342.7529 80.3305,343.6609 80.7672,343.6609 80.7672,340.1094"/>
    <polyline points="80.3305,340.6152 80.3305,341.1898 80.1926,341.4887 79.9397,341.6266 78.9972,341.6266 78.9972,339.8566"/>
    <polyline points="78.7099,339.0635 81.6063,339.0635 81.9281,339.3164 82.112,339.7416 82.1465,340.7646"/>
    <line x1="82.0775" x2="76.2089" y1="338.5118" y2="338.5118"/>
    <polyline points="76.1721,338.9831 77.3307,338.9831 77.618,339.098 77.7674,339.3509 77.7674,344.6344 77.549,344.9965 76.1721,344.9965"/>
    <line x1="78.3421" x2="78.3421" y1="344.6344" y2="339.3164"/>
    <line x1="82.6177" x2="82.3648" y1="340.6496" y2="337.6498"/>
    <line x1="88.6633" x2="88.6633" y1="338.19" y2="341.2703"/>
    <polyline points="89.1345,338.19 89.1345,338.9486 89.7092,338.5923 90.5137,338.2935 91.3068,338.259 92.0654,338.3394 92.686,338.6268 93.2262,339.0635 93.4791,339.4543 93.663,339.96 93.6285,340.6152 93.4446,341.1553 92.9044,341.776 92.0654,342.5001 89.3874,344.4172"/>
    <polyline points="90.008,344.4172 93.548,344.4172 93.548,343.2587"/>
    <line x1="94.1342" x2="94.1342" y1="343.2587" y2="345.5758"/>
    <line x1="93.4791" x2="89.1" y1="344.8884" y2="344.8884"/>
    <polyline points="93.5135,345.5758 88.3736,345.5758 88.3736,344.8517"/>
    <polyline points="88.6633,344.3448 92.0998,341.1553 92.4331,340.5117 92.4331,339.7416 91.9964,339.0635 91.4102,338.8796 90.4678,338.8796 89.7552,339.2704 89.3184,339.8911 89.1,340.7186 89.1,341.3048"/>
    <polyline points="92.755,339.4198 93.0423,339.9255 93.0423,340.5462 92.8584,340.9829 92.5021,341.4542"/>
    <polygon points="95.2491,339.4888 95.9732,338.7302 96.9501,338.2935 97.8236,338.259 98.7661,338.5118 99.6281,339.167 100.3177,340.3968 100.3867,341.4082 100.5016,342.684 100.1683,343.7644 99.6626,344.7425 98.835,345.3947 97.7432,345.7206 97.0995,345.7206 96.1915,345.3947 95.2858,344.5988 94.8146,343.546 94.6342,341.9599 94.7066,340.7186 94.9606,340.006"/>
    <polyline points="96.0881,339.96 96.3409,339.4198 96.7662,339.0635 97.3869,338.8796 98.1109,338.9831 98.6167,339.4888 99.0534,340.7646 99.1569,341.8794 99.1224,343.1552 98.9385,344.0172 98.6511,344.5988 97.8926,345.1045 97.3869,345.0689 96.8811,344.9241 96.4099,344.4896 96.0421,343.546 95.8697,342.7185 95.8237,341.3392"/>
    <polyline points="95.4674,340.1439 95.2491,341.4542 95.2134,342.4311 95.3582,343.3276 95.6513,344.0517 95.8697,344.3448"/>
    <polyline points="99.5246,343.8793 99.7775,342.8564 99.812,341.9599 99.743,341.1553 99.4902,340.1094 99.2373,339.5692"/>
    <line x1="101.582" x2="101.582" y1="338.19" y2="341.2703"/>
    <polyline points="102.0532,338.19 102.0532,338.9486 102.6279,338.5923 103.4324,338.2935 104.2255,338.259 104.9841,338.3394 105.6047,338.6268 106.1449,339.0635 106.3978,339.4543 106.5817,339.96 106.5472,340.6152 106.3633,341.1553 105.8231,341.776 104.9841,342.5001 102.3061,344.4172"/>
    <polyline points="102.9267,344.4172 106.4667,344.4172 106.4667,343.2587"/>
    <line x1="107.0529" x2="107.0529" y1="343.2587" y2="345.5758"/>
    <line x1="106.3978" x2="102.0187" y1="344.8884" y2="344.8884"/>
    <polyline points="106.4323,345.5758 101.2924,345.5758 101.2924,344.8517"/>
    <polyline points="101.582,344.3448 105.0185,341.1553 105.3519,340.5117 105.3519,339.7416 104.9151,339.0635 104.3289,338.8796 103.3865,338.8796 102.6739,339.2704 102.2371,339.8911 102.0187,340.7186 102.0187,341.3048"/>
    <polyline points="105.6737,339.4198 105.961,339.9255 105.961,340.5462 105.7771,340.9829 105.4208,341.4542"/>
    <line x1="107.9149" x2="107.9149" y1="338.19" y2="341.2703"/>
    <polyline points="108.3861,338.19 108.3861,338.9486 108.9608,338.5923 109.7654,338.2935 110.5584,338.259 111.317,338.3394 111.9376,338.6268 112.4778,339.0635 112.7307,339.4543 112.9146,339.96 112.8801,340.6152 112.6962,341.1553 112.156,341.776 111.317,342.5001 108.639,344.4172"/>
    <polyline points="109.2597,344.4172 112.7997,344.4172 112.7997,343.2587"/>
    <line x1="113.3858" x2="113.3858" y1="343.2587" y2="345.5758"/>
    <line x1="112.7307" x2="108.3517" y1="344.8884" y2="344.8884"/>
    <polyline points="112.7652,345.5758 107.6253,345.5758 107.6253,344.8517"/>
    <polyline points="107.9149,344.3448 111.3515,341.1553 111.6848,340.5117 111.6848,339.7416 111.248,339.0635 110.6619,338.8796 109.7194,338.8796 109.0068,339.2704 108.57,339.8911 108.3517,340.7186 108.3517,341.3048"/>
    <polyline points="112.0066,339.4198 112.2939,339.9255 112.2939,340.5462 112.11,340.9829 111.7537,341.4542"/>
  </g>
</svg>
