<svg xmlns="http://www.w3.org/2000/svg" xmlns:xlink="http://www.w3.org/1999/xlink" version="1.1" width="271" height="131"><g fill="none" fill-rule="nonzero" stroke="#010100" stroke-width="1" stroke-linecap="butt" stroke-linejoin="miter" stroke-miterlimit="10" stroke-dasharray="" stroke-dashoffset="0" font-family="none" font-weight="none" font-size="none" text-anchor="none" style="mix-blend-mode: normal" transform="scale(1)"><g><g id="text"><g id="text-line-0"><path d="M14.5,97.16v-17.66l0.9,-24.5l0.7,-10.1l2.8,-7l8.8,-4.4l13.6,-2.2l13.5,0.3l11.7,4.5l3.4,3.7l-0.3,7.6l-4.1,6.3l-9.1,5.7l-11.4,3.4l-10.7,1.6l-19.2,0.6"></path><path d="M121.3,72.3l-5.7,12.6l-9.2,8.49l-6.6,3.77l-6.3,2.21l-8.8,-0.95l-4.7,-3.14l-1.3,-9.78l4.8,-9.8l6.2,-9.4l10.1,-6.9l7.6,-3.5h5.7l6.9,1.3l1.3,4.7l1.2,37.785"></path><path d="M155.5,53.1l-12.6,5.6l-6.6,9.5l-4.4,9.4l2.2,12.63l4.1,6.93l13.3,2.21l11,-2.83l11.3,-7.24l6.3,-11.7l-2.2,-14.5l-5,-5.6l-5.7,-3.5l-11.7,-0.9"></path><path d="M193,31l0.9,44.1l0.7,20.81"></path><path d="M231.1,53.1l-12.6,5.6l-6.6,9.5l-4.4,9.4l2.2,12.63l4.1,6.93l13.3,2.21l11,-2.83l11.3,-7.24l6.3,-11.7l-2.2,-14.5l-5,-5.6l-5.7,-3.5l-11.7,-0.9"></path></g></g></g></g></svg>