<?xml version="1.0" encoding="utf-8" ?>
<svg xmlns="http://www.w3.org/2000/svg" xmlns:cc="http://creativecommons.org/ns" xmlns:dc="http://purl.org/dc/elements/1.1/" xmlns:ev="http://www.w3.org/2001/xml-events" xmlns:inkscape="http://www.inkscape.org/namespaces/inkscape" xmlns:rdf="http://www.w3.org/1999/02/22-rdf-syntax-ns" xmlns:sodipodi="http://sodipodi.sourceforge.net/DTD/sodipodi-0.dtd" xmlns:xlink="http://www.w3.org/1999/xlink" baseProfile="tiny" height="4.0cm" version="1.2" viewBox="0 0 340.1574803149606 151.1811023622047" width="9.0cm">
  <metadata>
    <rdf:RDF>
      <cc:Work>
        <dc:format>image/svg+xml</dc:format>
        <dc:source>vpype read -m -l1 -c fanusele/patrizia.svg scaleto -l1 -o 0 0 4.5cm 1.5cm layout -l -v center -h center 9cmx4cm write fanusele/patrizia.out.svg
</dc:source>
        <dc:date>2022-11-20T19:28:51.519657</dc:date>
      </cc:Work>
    </rdf:RDF>
  </metadata>
  <defs/>
  <g fill="none" id="layer1" inkscape:groupmode="layer" inkscape:label="1" stroke="#010100" stroke-width="1.0" style="display:inline">
    <polyline points="85.0394,90.7112 85.0394,82.2789 85.4691,70.5806 85.8033,65.758 87.1403,62.4157 91.3421,60.3147 97.8359,59.2643 104.2819,59.4075 109.8684,61.5562 111.4918,63.3229 111.3486,66.9517 109.3909,69.9599 105.0458,72.6815 99.6025,74.3049 94.4935,75.0689 85.3259,75.3554"/>
    <polyline points="136.0343,78.841 133.3127,84.8573 128.9199,88.9111 125.7685,90.7112 122.7604,91.7664 118.5585,91.3128 116.3144,89.8135 115.6937,85.1438 117.9856,80.4644 120.9459,75.9761 125.7685,72.6815 129.3974,71.0103 132.119,71.0103 135.4136,71.631 136.0343,73.8752 136.6073,91.9168"/>
    <polyline points="149.0696,60.0283 149.8335,91.7664 149.4038,74.0184 140.2075,74.0184 157.33,73.8752"/>
    <polyline points="162.0093,69.6734 161.4363,91.3128 162.9165,79.1275 166.5454,74.4482 171.1769,71.7743 174.949,70.2463 176.6202,70.1031 181.586,70.5806 182.159,71.0103"/>
    <line x1="189.4167" x2="190.2762" y1="61.6994" y2="61.6994"/>
    <polyline points="190.6104,70.7238 191.0402,89.9615 191.9474,90.864"/>
    <polyline points="198.5844,70.3896 199.1573,70.3896 217.6836,70.5806 218.5908,71.2968 213.7683,76.7401 205.0304,84.523 199.7781,89.6607 199.3006,91.1648 204.2664,91.1648 218.2566,91.1648 219.498,91.616"/>
    <line x1="225.5143" x2="226.3738" y1="61.6994" y2="61.6994"/>
    <polyline points="226.708,70.7238 227.1377,89.9615 228.0449,90.864"/>
    <polyline points="254.5451,78.841 251.8235,84.8573 247.4307,88.9111 244.2793,90.7112 241.2712,91.7664 237.0693,91.3128 234.8252,89.8135 234.2044,85.1438 236.4964,80.4644 239.4567,75.9761 244.2793,72.6815 247.9081,71.0103 250.6298,71.0103 253.9244,71.631 254.5451,73.8752 255.1181,91.9168"/>
  </g>
</svg>
