<?xml version="1.0" encoding="utf-8" ?>
<svg xmlns="http://www.w3.org/2000/svg" xmlns:cc="http://creativecommons.org/ns" xmlns:dc="http://purl.org/dc/elements/1.1/" xmlns:ev="http://www.w3.org/2001/xml-events" xmlns:inkscape="http://www.inkscape.org/namespaces/inkscape" xmlns:rdf="http://www.w3.org/1999/02/22-rdf-syntax-ns" xmlns:sodipodi="http://sodipodi.sourceforge.net/DTD/sodipodi-0.dtd" xmlns:xlink="http://www.w3.org/1999/xlink" baseProfile="tiny" height="4.0cm" version="1.2" viewBox="0 0 340.1574803149606 151.1811023622047" width="9.0cm">
  <metadata>
    <rdf:RDF>
      <cc:Work>
        <dc:format>image/svg+xml</dc:format>
        <dc:source>vpype read -m -l1 -c fanusele/roman.svg scaleto -l1 -o 0 0 4.5cm 1.5cm layout -l -v center -h center 9cmx4cm write fanusele/roman.out.svg
</dc:source>
        <dc:date>2022-11-20T19:46:43.786729</dc:date>
      </cc:Work>
    </rdf:RDF>
  </metadata>
  <defs/>
  <g fill="none" id="layer1" inkscape:groupmode="layer" inkscape:label="1" stroke="#010100" stroke-width="1.0" style="display:inline">
    <polyline points="85.0394,57.4286 85.5479,75.058 85.9434,93.7554 86.452,71.1592 85.3784,60.8188 91.0854,57.4286 97.8659,56.355 103.3468,57.0895 107.6412,57.2591 110.862,57.9936 112.7831,59.9148 113.3482,62.2315 110.4664,64.5481 105.3245,66.5258 100.5216,68.673 95.1537,70.4246 86.2825,73.1368 85.9434,74.5495 92.498,78.1092 97.6399,81.669 105.494,86.3024 117.586,94.2921 118.8291,94.4701"/>
    <polyline points="136.7976,68.5035 129.678,71.6677 125.9487,77.0357 123.4625,82.3471 124.7056,89.4836 127.0223,93.3994 134.5374,94.6481 140.7529,93.049 147.1379,88.9581 150.6977,82.3471 149.4546,74.1539 146.6293,70.9897 143.4086,69.012 136.7976,68.5035"/>
    <polyline points="155.5006,68.8425 155.8396,94.8261 157.9868,77.0357 161.5466,71.6677 167.7621,69.012 171.4914,68.8425 173.9776,70.4246 175.9552,75.2275 175.2207,94.8261 177.1983,76.6966 181.4927,71.8372 187.5387,69.012 192.6806,69.012 195.9013,70.4246 196.5794,74.8885 196.8054,83.2512 197.1444,94.2921"/>
    <polyline points="226.6963,79.3523 223.4756,86.4719 218.2771,91.2692 214.5478,93.3994 210.988,94.6481 206.0156,94.1113 203.3599,92.3371 202.6254,86.8109 205.3376,81.2735 208.8409,75.9621 214.5478,72.0633 218.8422,70.0856 222.0629,70.0856 225.9618,70.8202 226.6963,73.4759 227.3744,94.8261"/>
    <polyline points="231.6348,69.5771 231.81,93.9362 231.6348,76.6966 238.2232,72.4023 244.6083,69.351 248.7331,69.012 251.7278,69.351 253.7055,71.4982 255.1181,77.7137 254.9486,94.4701"/>
  </g>
</svg>
