<?xml version="1.0" encoding="utf-8" ?>
<svg xmlns="http://www.w3.org/2000/svg" xmlns:cc="http://creativecommons.org/ns" xmlns:dc="http://purl.org/dc/elements/1.1/" xmlns:ev="http://www.w3.org/2001/xml-events" xmlns:inkscape="http://www.inkscape.org/namespaces/inkscape" xmlns:rdf="http://www.w3.org/1999/02/22-rdf-syntax-ns" xmlns:sodipodi="http://sodipodi.sourceforge.net/DTD/sodipodi-0.dtd" xmlns:xlink="http://www.w3.org/1999/xlink" baseProfile="tiny" height="4.0cm" version="1.2" viewBox="0 0 340.1574803149606 151.1811023622047" width="9.0cm">
  <metadata>
    <rdf:RDF>
      <cc:Work>
        <dc:format>image/svg+xml</dc:format>
        <dc:source>vpype read -m -l1 -c fanusele/rosanna.svg scaleto -l1 -o 0 0 4.5cm 1.5cm layout -l -v center -h center 9cmx4cm write fanusele/rosanna.out.svg
</dc:source>
        <dc:date>2022-11-20T20:08:33.985040</dc:date>
      </cc:Work>
    </rdf:RDF>
  </metadata>
  <defs/>
  <g fill="none" id="layer1" inkscape:groupmode="layer" inkscape:label="1" stroke="#010100" stroke-width="1.0" style="display:inline">
    <polyline points="85.0394,60.4984 85.4599,75.0766 85.787,90.5379 86.2075,71.8526 85.3197,63.3019 90.0389,60.4984 95.6459,59.6106 100.1782,60.218 103.7293,60.3582 106.3927,60.9656 107.9813,62.5543 108.4486,64.47 106.0656,66.3857 101.8136,68.0211 97.842,69.7967 93.4031,71.2451 86.0673,73.4879 85.787,74.6561 91.2071,77.5997 95.459,80.5434 101.9538,84.3748 111.9529,90.9817 112.9809,91.1289"/>
    <polygon points="127.8394,69.6565 121.9521,72.2731 118.8682,76.7119 116.8123,81.1041 117.8403,87.0055 119.756,90.2435 125.9704,91.2761 131.1101,89.9538 136.3901,86.5709 139.3337,81.1041 138.3058,74.329 135.9695,71.7124 133.3062,70.077"/>
    <polyline points="160.9674,71.5722 159.4722,70.077 155.08,70.077 150.0805,71.105 145.5014,73.4879 143.5857,76.5718 143.5857,79.936 145.5014,81.4312 149.7534,81.4312 154.3324,80.5434 157.2761,80.6836 159.6124,81.5713 161.1076,82.8796 160.687,85.0757 156.108,88.6268 150.2206,90.2435 146.8097,91.5705 145.3613,91.4233"/>
    <polyline points="184.3766,78.6277 181.7132,84.515 177.4146,88.482 174.3307,90.2435 171.387,91.2761 167.2752,90.8322 165.0792,89.3651 164.4717,84.7954 166.7145,80.2163 169.6115,75.8242 174.3307,72.6002 177.8818,70.9648 180.5451,70.9648 183.7691,71.5722 184.3766,73.7683 184.9373,91.4233"/>
    <polyline points="188.4603,70.5443 188.6052,90.6874 188.4603,76.4316 193.9085,72.8805 199.1884,70.3574 202.5993,70.077 205.0757,70.3574 206.7111,72.1329 207.8792,77.2726 207.739,91.1289"/>
    <polyline points="211.1219,70.5443 211.2668,90.6874 211.1219,76.4316 216.57,72.8805 221.85,70.3574 225.2609,70.077 227.7373,70.3574 229.3727,72.1329 230.5408,77.2726 230.4006,91.1289"/>
    <polyline points="254.5574,78.6277 251.8941,84.515 247.5954,88.482 244.5116,90.2435 241.5679,91.2761 237.4561,90.8322 235.26,89.3651 234.6526,84.7954 236.8954,80.2163 239.7923,75.8242 244.5116,72.6002 248.0626,70.9648 250.726,70.9648 253.95,71.5722 254.5574,73.7683 255.1181,91.4233"/>
  </g>
</svg>
