<?xml version="1.0" encoding="utf-8" ?>
<svg xmlns="http://www.w3.org/2000/svg" xmlns:cc="http://creativecommons.org/ns" xmlns:dc="http://purl.org/dc/elements/1.1/" xmlns:ev="http://www.w3.org/2001/xml-events" xmlns:inkscape="http://www.inkscape.org/namespaces/inkscape" xmlns:rdf="http://www.w3.org/1999/02/22-rdf-syntax-ns" xmlns:sodipodi="http://sodipodi.sourceforge.net/DTD/sodipodi-0.dtd" xmlns:xlink="http://www.w3.org/1999/xlink" baseProfile="tiny" height="4.0cm" version="1.2" viewBox="0 0 340.1574803149606 151.1811023622047" width="9.0cm">
  <metadata>
    <rdf:RDF>
      <cc:Work>
        <dc:format>image/svg+xml</dc:format>
        <dc:source>vpype read -m -l1 -c fanusele/rosario.svg scaleto -l1 -o 0 0 4.5cm 1.5cm layout -l -v center -h center 9cmx4cm write fanusele/rosario.out.svg
</dc:source>
        <dc:date>2022-11-20T20:02:29.992497</dc:date>
      </cc:Work>
    </rdf:RDF>
  </metadata>
  <defs/>
  <g fill="none" id="layer1" inkscape:groupmode="layer" inkscape:label="1" stroke="#010100" stroke-width="1.0" style="display:inline">
    <polyline points="85.0394,59.8452 85.4781,75.0543 85.8193,91.1848 86.258,71.6908 85.3319,62.7701 90.2553,59.8452 96.105,58.919 100.8334,59.5527 104.5382,59.699 107.3168,60.3327 108.9742,61.9901 109.4617,63.9887 106.9756,65.9874 102.5396,67.6935 98.3961,69.5459 93.7651,71.0571 86.1118,73.3969 85.8193,74.6156 91.474,77.6867 95.91,80.7577 102.6858,84.755 113.1177,91.6479 114.1902,91.8014"/>
    <polygon points="129.6917,69.3997 123.5496,72.1295 120.3323,76.7605 118.1874,81.3427 119.2599,87.4995 121.2585,90.8777 127.7419,91.955 133.104,90.5754 138.6125,87.0461 141.6835,81.3427 140.6111,74.2744 138.1737,71.5445 135.3952,69.8384"/>
    <polyline points="164.2535,71.3983 162.6935,69.8384 158.1113,69.8384 152.8954,70.9108 148.1182,73.3969 146.1195,76.6142 146.1195,80.124 148.1182,81.6839 152.5541,81.6839 157.3314,80.7577 160.4024,80.904 162.8398,81.8302 164.3997,83.1951 163.961,85.4862 159.1838,89.191 153.0416,90.8777 149.4831,92.2621 147.9719,92.1085"/>
    <polyline points="188.6758,78.7591 185.8972,84.9013 181.4124,89.0399 178.1951,90.8777 175.1241,91.955 170.8343,91.4919 168.5432,89.9612 167.9095,85.1937 170.2494,80.4165 173.2717,75.8343 178.1951,72.4707 181.8999,70.7646 184.6785,70.7646 188.0421,71.3983 188.6758,73.6894 189.2607,92.1085"/>
    <polyline points="194.7692,69.3997 194.1842,91.4919 195.6954,79.0516 199.4001,74.2744 204.1286,71.5445 207.9796,69.9846 209.6858,69.8384 214.7555,70.3259 215.3405,70.7646"/>
    <line x1="222.75" x2="223.6275" y1="61.2589" y2="61.2589"/>
    <polyline points="223.9687,70.4721 224.4074,90.1123 225.3336,91.0336"/>
    <polyline points="243.1263,69.3997 236.9842,72.1295 233.7669,76.7605 231.622,81.3427 232.6944,87.4995 234.6931,90.8777 241.1764,91.955 246.5386,90.5754 252.047,87.0461 255.1181,81.3427 254.0457,74.2744 251.6083,71.5445 248.8297,69.8384 243.1263,69.3997"/>
  </g>
</svg>
