<?xml version="1.0" encoding="utf-8" ?>
<svg xmlns="http://www.w3.org/2000/svg" xmlns:cc="http://creativecommons.org/ns" xmlns:dc="http://purl.org/dc/elements/1.1/" xmlns:ev="http://www.w3.org/2001/xml-events" xmlns:inkscape="http://www.inkscape.org/namespaces/inkscape" xmlns:rdf="http://www.w3.org/1999/02/22-rdf-syntax-ns" xmlns:sodipodi="http://sodipodi.sourceforge.net/DTD/sodipodi-0.dtd" xmlns:xlink="http://www.w3.org/1999/xlink" baseProfile="tiny" height="4.0cm" version="1.2" viewBox="0 0 340.1574803149606 151.1811023622047" width="9.0cm">
  <metadata>
    <rdf:RDF>
      <cc:Work>
        <dc:format>image/svg+xml</dc:format>
        <dc:source>vpype read -m -l1 -c fanusele/sele-posto.svg scaleto -l1 -o 0 0 4.5cm 1.5cm layout -l -v center -h center 9cmx4cm write fanusele/sele-posto.out.svg
</dc:source>
        <dc:date>2022-11-20T20:16:13.039226</dc:date>
      </cc:Work>
    </rdf:RDF>
  </metadata>
  <defs/>
  <g fill="none" id="layer1" inkscape:groupmode="layer" inkscape:label="1" stroke="#010100" stroke-width="1.0" style="display:inline">
    <polyline points="124.1977,55.3798 121.5429,52.725 116.1477,49.9845 108.0976,47.2441"/>
    <line x1="126.9382" x2="121.5429" y1="52.725" y2="49.9845"/>
    <polyline points="129.6786,49.9845 118.8881,47.2441 108.0976,47.2441 99.9619,49.9845 97.3071,52.725 94.5667,58.0346 97.3071,63.5155 99.9619,66.1703 108.0976,68.8251 129.6786,68.8251 134.9882,71.5655 137.7287,74.306 137.7287,79.6156 134.9882,87.7513"/>
    <polyline points="97.3071,60.775 99.9619,63.5155 108.0976,66.1703 132.3334,66.1703 137.7287,68.8251 140.4691,71.5655 140.4691,76.9608 137.7287,82.356"/>
    <polyline points="97.3071,52.725 97.3071,58.0346 99.9619,60.775 108.0976,63.5155 134.9882,63.5155 140.4691,66.1703 143.1239,71.5655 143.1239,76.9608 134.9882,87.7513 124.1977,103.937"/>
    <polyline points="91.8691,71.5655 94.5667,74.306 99.9619,76.9608 124.1977,76.9608 126.9382,79.6156 126.9382,82.356 124.1977,87.7513"/>
    <polyline points="94.5667,76.9608 99.9619,79.6156 121.5429,79.6156 124.1977,82.356"/>
    <polyline points="91.8691,71.5655 91.8691,74.306 94.5667,79.6156 99.9619,82.356 118.8881,82.356 124.1977,85.0965 124.1977,87.7513"/>
    <polyline points="91.8691,103.937 99.9619,98.5418 110.7524,95.8441 118.8881,95.8441 126.9382,98.5418"/>
    <polyline points="97.3071,101.2394 105.3572,98.5418 116.1477,98.5418 124.1977,101.2394"/>
    <polyline points="91.8691,103.937 102.6167,101.2394 116.1477,101.2394 124.1977,103.937"/>
    <polyline points="129.6786,49.9845 124.1977,55.3798 118.8881,63.5155"/>
    <line x1="116.1477" x2="110.7524" y1="68.8251" y2="76.9608"/>
    <polyline points="108.0976,82.356 102.6167,87.7513 97.3071,90.4061 94.5667,90.4061 94.5667,87.7513 97.3071,90.4061"/>
    <polyline points="159.3097,71.5655 159.3097,95.8441 153.8716,98.5418 156.5692,98.5418 161.9645,101.2394 164.6193,103.937"/>
    <polyline points="161.9645,71.5655 161.9645,98.5418 167.3597,101.2394"/>
    <polyline points="164.6193,71.5655 164.6193,95.8441 170.1001,98.5418 172.755,98.5418 167.3597,101.2394 164.6193,103.937"/>
    <polyline points="159.3097,71.5655 170.1001,68.8251 175.4098,66.1703 183.5454,76.9608 178.1502,79.6156 164.6193,87.7513"/>
    <line x1="172.755" x2="180.8906" y1="68.8251" y2="76.9608"/>
    <polyline points="164.6193,71.5655 170.1001,68.8251 178.1502,79.6156"/>
    <polyline points="194.3359,52.725 197.0764,58.0346 197.0764,95.8441 191.6383,98.5418 194.3359,98.5418 199.7312,101.2394 202.386,103.937"/>
    <polyline points="199.7312,58.0346 197.0764,52.725 199.7312,49.9845 199.7312,98.5418 205.1264,101.2394"/>
    <polyline points="194.3359,52.725 202.386,47.2441 202.386,95.8441 207.8669,98.5418 210.5217,98.5418 205.1264,101.2394 202.386,103.937"/>
    <polyline points="224.0526,71.5655 224.0526,95.8441 218.6146,98.5418 221.3122,98.5418 226.7074,101.2394 229.3622,103.937"/>
    <polyline points="226.7074,71.5655 226.7074,98.5418 232.1027,101.2394"/>
    <polyline points="229.3622,71.5655 229.3622,95.8441 234.8431,98.5418 237.4979,98.5418 232.1027,101.2394 229.3622,103.937"/>
    <polyline points="224.0526,71.5655 234.8431,68.8251 240.1527,66.1703 248.2884,76.9608 242.8932,79.6156 229.3622,87.7513"/>
    <line x1="237.4979" x2="245.6336" y1="68.8251" y2="76.9608"/>
    <polyline points="229.3622,71.5655 234.8431,68.8251 242.8932,79.6156"/>
  </g>
</svg>
