<svg xmlns="http://www.w3.org/2000/svg" xmlns:xlink="http://www.w3.org/1999/xlink" version="1.1" width="202" height="134"><g fill="none" fill-rule="nonzero" stroke="#010100" stroke-width="1" stroke-linecap="butt" stroke-linejoin="miter" stroke-miterlimit="10" stroke-dasharray="" stroke-dashoffset="0" font-family="none" font-weight="none" font-size="none" text-anchor="none" style="mix-blend-mode: normal" transform="scale(1)"><g><g id="text"><g id="text-line-0"><path d="M47.2,43.3l-3.1,-3.1l-6.3,-3.2l-9.4,-3.2M50.4,40.2l-6.3,-3.2M53.6,37l-12.6,-3.2h-12.6l-9.5,3.2l-3.1,3.2l-3.2,6.2l3.2,6.4l3.1,3.1l9.5,3.1h25.2l6.2,3.2l3.2,3.2v6.2l-3.2,9.5M15.8,49.6l3.1,3.2l9.5,3.1h28.3l6.3,3.1l3.2,3.2v6.3l-3.2,6.3M15.8,40.2v6.2l3.1,3.2l9.5,3.2h31.4l6.4,3.1l3.1,6.3v6.3l-9.5,12.6l-12.6,18.9M9.45,62.2l3.15,3.2l6.3,3.1h28.3l3.2,3.1v3.2l-3.2,6.3M12.6,68.5l6.3,3.1h25.2l3.1,3.2M9.45,62.2v3.2l3.15,6.2l6.3,3.2h22.1l6.2,3.2v3.1M9.45,100l9.45,-6.3l12.6,-3.15h9.5l9.4,3.15M15.8,96.85l9.4,-3.15h12.6l9.4,3.15M9.45,100l12.55,-3.15h15.8l9.4,3.15M53.6,37l-6.4,6.3l-6.2,9.5M37.8,59l-6.3,9.5M28.4,74.8l-6.4,6.3l-6.2,3.1h-3.2v-3.1l3.2,3.1"></path><path d="M88.2,62.2v28.35l-6.35,3.15h3.15l6.3,3.15l3.1,3.15M91.3,62.2v31.5l6.3,3.15M94.4,62.2v28.35l6.4,3.15h3.1l-6.3,3.15l-3.2,3.15M88.2,62.2l12.6,-3.2l6.2,-3.1l9.5,12.6l-6.3,3.1l-15.8,9.5M103.9,59l9.5,9.5M94.4,62.2l6.4,-3.2l9.4,12.6"></path><path d="M129.1,40.2l3.2,6.2v44.15l-6.35,3.15h3.15l6.3,3.15l3.1,3.15M135.4,46.4l-3.1,-6.2l3.1,-3.2v56.7l6.3,3.15M129.1,40.2l9.4,-6.4v56.75l6.4,3.15h3.1l-6.3,3.15l-3.2,3.15"></path><path d="M163.8,62.2v28.35l-6.35,3.15h3.15l6.3,3.15l3.1,3.15M166.9,62.2v31.5l6.3,3.15M170,62.2v28.35l6.4,3.15h3.1l-6.3,3.15l-3.2,3.15M163.8,62.2l12.6,-3.2l6.2,-3.1l9.5,12.6l-6.3,3.1l-15.8,9.5M179.5,59l9.5,9.5M170,62.2l6.4,-3.2l9.4,12.6"></path></g></g></g></g></svg>