<svg xmlns="http://www.w3.org/2000/svg" xmlns:xlink="http://www.w3.org/1999/xlink" version="1.1" width="296" height="174"><g fill="none" fill-rule="nonzero" stroke="#010100" stroke-width="1" stroke-linecap="butt" stroke-linejoin="miter" stroke-miterlimit="10" stroke-dasharray="" stroke-dashoffset="0" font-family="none" font-weight="none" font-size="none" text-anchor="none" style="mix-blend-mode: normal" transform="scale(1)"><g><g id="text"><g id="text-line-0"><path d="M63,33.5l-12.9,2.2l-13.2,3.5l-12,3.5l-5.1,4.1l-2.5,3.1l-0.9,2.9l2.5,4.4l13.2,4.4l12.3,4.4l12.6,5l6.9,3.8l4.1,3.5l-0.3,3.4l-5.3,6.3l-12.3,6.33l-14.5,4.725l-10.7,0.63l-7.6,-0.945l-4.4,-2.2l-1.6,-3.15"></path><path d="M95.1,32.9l1.6,66.47l-0.9,-37.17h-19.26l35.86,-0.3"></path><path d="M123.2,70.4l12.6,-0.3l14.5,-0.3l9.4,-1.6l1.6,-3.5l-1.3,-3.4l-8.2,-7.3h-10.4l-9.4,3.5l-6.6,6l-4.8,12.2l-1.54,7.3l-0.31,5l5.35,6.96l8.8,4.41l10.1,-0.63l10.7,-2.52l7.6,-3.78l2.8,-3.44"></path><path d="M223.6,45.8l-8.8,-9.4l-10.4,-4.8l-6.9,-0.6l-8.2,5.4l-3.8,8.5v9.1l1.6,8.5l3.4,19.2l1.3,15.78l-2.5,-22.98l-18.61,2.8l35.31,-4.7l16.3,-2.2"></path><path d="M234,57.5l32.5,46.28l17.9,-47.28l-32.7,86"></path></g></g></g></g></svg>