<svg xmlns="http://www.w3.org/2000/svg" xmlns:xlink="http://www.w3.org/1999/xlink" version="1.1" width="191" height="130"><g fill="none" fill-rule="nonzero" stroke="#010100" stroke-width="1" stroke-linecap="butt" stroke-linejoin="miter" stroke-miterlimit="10" stroke-dasharray="" stroke-dashoffset="0" font-family="none" font-weight="none" font-size="none" text-anchor="none" style="mix-blend-mode: normal" transform="scale(1)"><g><g id="text"><g id="text-line-0"><path d="M11,32.9l7,6.3l9.4,10.7l14.2,15.5l12,-32.5l3.1,-2.8l-2.8,2.8l-13.6,37.2l-8.8,28.01"></path><path d="M67.1,54l-2.5,14.5l-0.9,16.7l3.8,9.76l7.8,4.095l13.3,-0.945l7.5,-4.72l4.1,-1.9l4.1,-5.69l2.9,-6l-2.3,-27l3.2,45.94"></path><path d="M116.6,53.1l-1.2,45.32l3.1,-25.52l7.6,-9.8l9.7,-5.6l7.9,-3.2l3.5,-0.3l10.4,1l1.2,0.9"></path><path d="M174,36.4h1.8M176.5,55.3l0.9,40.29l1.9,1.89"></path></g></g></g></g></svg>