<?xml version="1.0" encoding="utf-8" ?>
<svg xmlns="http://www.w3.org/2000/svg" xmlns:cc="http://creativecommons.org/ns" xmlns:dc="http://purl.org/dc/elements/1.1/" xmlns:ev="http://www.w3.org/2001/xml-events" xmlns:inkscape="http://www.inkscape.org/namespaces/inkscape" xmlns:rdf="http://www.w3.org/1999/02/22-rdf-syntax-ns" xmlns:sodipodi="http://sodipodi.sourceforge.net/DTD/sodipodi-0.dtd" xmlns:xlink="http://www.w3.org/1999/xlink" baseProfile="tiny" height="4.0cm" version="1.2" viewBox="0 0 340.1574803149606 151.1811023622047" width="9.0cm">
  <metadata>
    <rdf:RDF>
      <cc:Work>
        <dc:format>image/svg+xml</dc:format>
        <dc:source>vpype read -m -l1 -c fanusele/zia-nadia.svg scaleto -l1 -o 0 0 4.5cm 1.5cm layout -l -v center -h center 9cmx4cm write fanusele/zia-nadia.out.svg
</dc:source>
        <dc:date>2022-11-20T20:02:13.579401</dc:date>
      </cc:Work>
    </rdf:RDF>
  </metadata>
  <defs/>
  <g fill="none" id="layer1" inkscape:groupmode="layer" inkscape:label="1" stroke="#010100" stroke-width="1.0" style="display:inline">
    <polyline points="85.0394,62.4427 107.5321,62.3224 104.2444,67.3743 95.5039,77.8388 87.8059,86.9522 87.0441,87.8383 91.0936,88.8466 95.5039,88.9729 108.5345,88.2151"/>
    <line x1="113.7066" x2="114.4283" y1="63.7257" y2="63.7257"/>
    <polyline points="114.7089,71.3035 115.0698,87.4574 115.8316,88.2151"/>
    <polyline points="138.0837,78.1195 135.7984,83.1713 132.1097,86.5753 129.4635,88.0868 126.9376,88.9729 123.4093,88.592 121.5249,87.3331 121.0037,83.4119 122.9282,79.4827 125.414,75.7138 129.4635,72.9474 132.5107,71.5441 134.796,71.5441 137.5625,72.0653 138.0837,73.9497 138.5649,89.0992"/>
    <polyline points="157.8902,88.0868 158.251,79.4827 158.3713,72.0653 158.3713,64.0866 159.0128,62.8437 163.3029,67.4946 168.3547,74.07 174.9301,82.5298 178.4584,87.3331 178.5787,82.6501 178.5787,73.5488 178.4584,62.0819"/>
    <polyline points="200.8308,78.1195 198.5455,83.1713 194.8568,86.5753 192.2106,88.0868 189.6847,88.9729 186.1564,88.592 184.272,87.3331 183.7508,83.4119 185.6753,79.4827 188.1611,75.7138 192.2106,72.9474 195.2578,71.5441 197.5431,71.5441 200.3096,72.0653 200.8308,73.9497 201.312,89.0992"/>
    <polyline points="222.8825,63.0842 222.2811,73.7091 222.0005,80.5251 222.2811,86.0661 222.4014,88.4677 222.1608,81.8883 218.4722,85.8135 212.5383,88.4677 208.3685,88.7203 205.4817,87.0765 204.5836,82.7704 206.7247,78.6006 211.8968,75.0723 216.5878,74.3106 220.116,74.8318 222.4014,77.2374"/>
    <line x1="230.2598" x2="230.9815" y1="63.7257" y2="63.7257"/>
    <polyline points="231.2622,71.3035 231.623,87.4574 232.3848,88.2151"/>
    <polyline points="254.637,78.1195 252.3516,83.1713 248.663,86.5753 246.0168,88.0868 243.4909,88.9729 239.9626,88.592 238.0782,87.3331 237.5569,83.4119 239.4815,79.4827 241.9673,75.7138 246.0168,72.9474 249.0639,71.5441 251.3493,71.5441 254.1158,72.0653 254.637,73.9497 255.1181,89.0992"/>
  </g>
</svg>
