<svg xmlns="http://www.w3.org/2000/svg" xmlns:xlink="http://www.w3.org/1999/xlink" version="1.1" width="467" height="175"><g fill="none" fill-rule="nonzero" stroke="#010100" stroke-width="1" stroke-linecap="butt" stroke-linejoin="miter" stroke-miterlimit="10" stroke-dasharray="" stroke-dashoffset="0" font-family="none" font-weight="none" font-size="none" text-anchor="none" style="mix-blend-mode: normal" transform="scale(1)"><g><g id="text"><g id="text-line-0"><path d="M12.3,33.2l56.1,-0.3l-8.2,12.6l-21.8,26.1l-19.2,22.73l-1.9,2.21l10.1,2.515l11,0.315l32.5,-1.89"></path><path d="M83.8,36.4h1.8M86.3,55.3l0.9,40.29l1.9,1.89"></path><path d="M144.6,72.3l-5.7,12.6l-9.2,8.49l-6.6,3.77l-6.3,2.21l-8.8,-0.95l-4.7,-3.14l-1.3,-9.78l4.8,-9.8l6.2,-9.4l10.1,-6.9l7.6,-3.5h5.7l6.9,1.3l1.3,4.7l1.2,37.785"></path><path d="M196.8,32.9v0.6l0.3,27.4v16.4l-0.9,14.19l-0.3,5.67h20.1l28.7,0.63"></path><path d="M257.2,54l-2.5,14.5l-0.9,16.7l3.8,9.76l7.8,4.095l13.3,-0.945l7.5,-4.72l4.1,-1.9l4.1,-5.69l2.9,-6l-2.3,-27l3.2,45.94"></path><path d="M311.8,36.4h1.8M314.3,55.3l0.9,40.29l1.9,1.89"></path><path d="M374.4,73.9l-6.6,11.3l-11.9,9.44l-13,4.73h-9.1l-2.8,-4.73l3.8,-11.94l9.4,-14.2l10.7,-8.8l6.9,-3.5l7,1l5.6,4.4l1.6,44.7l-1.2,15.1l-3.5,9.5l-4.4,6.3l-4.1,3.4l-5.4,1l-4.1,0.3l-11.3,-0.3"></path><path d="M392.1,36.4h1.8M394.6,55.3l0.9,40.29l1.9,1.89"></path><path d="M452.9,72.3l-5.7,12.6l-9.2,8.49l-6.6,3.77l-6.3,2.21l-8.8,-0.95l-4.7,-3.14l-1.3,-9.78l4.8,-9.8l6.2,-9.4l10.1,-6.9l7.6,-3.5h5.7l6.9,1.3l1.3,4.7l1.2,37.785"></path></g></g></g></g></svg>