<?xml version="1.0" encoding="utf-8" ?>
<svg xmlns="http://www.w3.org/2000/svg" xmlns:cc="http://creativecommons.org/ns" xmlns:dc="http://purl.org/dc/elements/1.1/" xmlns:ev="http://www.w3.org/2001/xml-events" xmlns:inkscape="http://www.inkscape.org/namespaces/inkscape" xmlns:rdf="http://www.w3.org/1999/02/22-rdf-syntax-ns" xmlns:sodipodi="http://sodipodi.sourceforge.net/DTD/sodipodi-0.dtd" xmlns:xlink="http://www.w3.org/1999/xlink" baseProfile="tiny" height="4.0cm" version="1.2" viewBox="0 0 340.1574803149606 151.1811023622047" width="9.0cm">
  <metadata>
    <rdf:RDF>
      <cc:Work>
        <dc:format>image/svg+xml</dc:format>
        <dc:source>vpype read -m -l1 -c fanusele/zia-lucia.svg scaleto -l1 -o 0 0 4.5cm 1.5cm layout -l -v center -h center 9cmx4cm write fanusele/zia-lucia.out.svg
</dc:source>
        <dc:date>2022-11-20T19:54:06.916077</dc:date>
      </cc:Work>
    </rdf:RDF>
  </metadata>
  <defs/>
  <g fill="none" id="layer1" inkscape:groupmode="layer" inkscape:label="1" stroke="#010100" stroke-width="1.0" style="display:inline">
    <polyline points="85.0394,62.1167 107.6654,61.9957 104.3582,67.0775 95.5659,77.6041 87.8223,86.7715 87.056,87.6628 91.1295,88.6772 95.5659,88.8042 108.6737,88.042"/>
    <line x1="113.8765" x2="114.6025" y1="63.4074" y2="63.4074"/>
    <polyline points="114.8848,71.03 115.2478,87.2797 116.0141,88.042"/>
    <polyline points="138.3982,77.8864 136.0993,82.9682 132.3888,86.3924 129.7269,87.9129 127.186,88.8042 123.6368,88.4211 121.7412,87.1547 121.2169,83.2102 123.1528,79.2577 125.6534,75.4665 129.7269,72.6836 132.7921,71.272 135.091,71.272 137.8739,71.7963 138.3982,73.6919 138.8822,88.9313"/>
    <polyline points="159.4513,61.9957 159.4513,62.2377 159.5723,73.2886 159.5723,79.903 159.2093,85.6261 159.0884,87.9129 167.195,87.9129 178.7702,88.167"/>
    <polyline points="183.8117,70.5057 182.8034,76.3538 182.4404,83.0892 183.973,87.0256 187.1189,88.6772 192.483,88.296 195.5079,86.3924 197.1615,85.6261 198.8151,83.3312 199.9847,80.9113 199.0571,70.0218 200.3477,88.5501"/>
    <polyline points="220.1909,72.2803 218.9003,71.151 215.1091,70.7477 211.0356,72.2803 207.6074,74.8212 203.8969,79.661 202.7676,84.7428 205.1875,87.6628 210.1483,89.1854 215.4721,88.9313 219.2632,88.042 223.3367,85.8802"/>
    <line x1="230.1125" x2="230.8384" y1="63.4074" y2="63.4074"/>
    <polyline points="231.1208,71.03 231.4837,87.2797 232.25,88.042"/>
    <polyline points="254.6341,77.8864 252.3352,82.9682 248.6247,86.3924 245.9628,87.9129 243.4219,88.8042 239.8727,88.4211 237.9771,87.1547 237.4528,83.2102 239.3888,79.2577 241.8893,75.4665 245.9628,72.6836 249.028,71.272 251.3269,71.272 254.1098,71.7963 254.6341,73.6919 255.1181,88.9313"/>
  </g>
</svg>
