<svg xmlns="http://www.w3.org/2000/svg" xmlns:xlink="http://www.w3.org/1999/xlink" version="1.1" width="449" height="132"><g fill="none" fill-rule="nonzero" stroke="#010100" stroke-width="1" stroke-linecap="butt" stroke-linejoin="miter" stroke-miterlimit="10" stroke-dasharray="" stroke-dashoffset="0" font-family="none" font-weight="none" font-size="none" text-anchor="none" style="mix-blend-mode: normal" transform="scale(1)"><g><g id="text"><g id="text-line-0"><path d="M12.3,33.2l56.1,-0.3l-8.2,12.6l-21.8,26.1l-19.2,22.73l-1.9,2.21l10.1,2.515l11,0.315l32.5,-1.89"></path><path d="M83.8,36.4h1.8M86.3,55.3l0.9,40.29l1.9,1.89"></path><path d="M144.6,72.3l-5.7,12.6l-9.2,8.49l-6.6,3.77l-6.3,2.21l-8.8,-0.95l-4.7,-3.14l-1.3,-9.78l4.8,-9.8l6.2,-9.4l10.1,-6.9l7.6,-3.5h5.7l6.9,1.3l1.3,4.7l1.2,37.785"></path><path d="M194,97.16l0.9,-21.46l0.3,-18.5v-19.9l1.6,-3.1l10.7,11.6l12.6,16.4l16.4,21.1l8.8,11.98l0.3,-11.68v-22.7l-0.3,-28.6"></path><path d="M301.1,72.3l-5.7,12.6l-9.2,8.49l-6.6,3.77l-6.3,2.21l-8.8,-0.95l-4.7,-3.14l-1.3,-9.78l4.8,-9.8l6.2,-9.4l10.1,-6.9l7.6,-3.5h5.7l6.9,1.3l1.3,4.7l1.2,37.785"></path><path d="M356.1,34.8l-1.5,26.5l-0.7,17l0.7,13.82l0.3,5.99l-0.6,-16.41l-9.2,9.79l-14.8,6.62l-10.4,0.63l-7.2,-4.1l-2.24,-10.74l5.34,-10.4l12.9,-8.8l11.7,-1.9l8.8,1.3l5.7,6"></path><path d="M374.5,36.4h1.8M377,55.3l0.9,40.29l1.9,1.89"></path><path d="M435.3,72.3l-5.7,12.6l-9.2,8.49l-6.6,3.77l-6.3,2.21l-8.8,-0.95l-4.7,-3.14l-1.3,-9.78l4.8,-9.8l6.2,-9.4l10.1,-6.9l7.6,-3.5h5.7l6.9,1.3l1.3,4.7l1.2,37.785"></path></g></g></g></g></svg>