<?xml version="1.0" encoding="utf-8" ?>
<svg xmlns="http://www.w3.org/2000/svg" xmlns:cc="http://creativecommons.org/ns" xmlns:dc="http://purl.org/dc/elements/1.1/" xmlns:ev="http://www.w3.org/2001/xml-events" xmlns:inkscape="http://www.inkscape.org/namespaces/inkscape" xmlns:rdf="http://www.w3.org/1999/02/22-rdf-syntax-ns" xmlns:sodipodi="http://sodipodi.sourceforge.net/DTD/sodipodi-0.dtd" xmlns:xlink="http://www.w3.org/1999/xlink" baseProfile="tiny" height="4.0cm" version="1.2" viewBox="0 0 340.1574803149606 151.1811023622047" width="9.0cm">
  <metadata>
    <rdf:RDF>
      <cc:Work>
        <dc:format>image/svg+xml</dc:format>
        <dc:source>vpype read -m -l1 -c fanusele/zia-mariana.svg scaleto -l1 -o 0 0 4.5cm 1.5cm layout -l -v center -h center 9cmx4cm write fanusele/zia-mariana.out.svg
</dc:source>
        <dc:date>2022-11-20T20:02:18.174726</dc:date>
      </cc:Work>
    </rdf:RDF>
  </metadata>
  <defs/>
  <g fill="none" id="layer1" inkscape:groupmode="layer" inkscape:label="1" stroke="#010100" stroke-width="1.0" style="display:inline">
    <polyline points="85.0394,65.187 102.676,65.0927 100.0981,69.0538 93.2446,77.2591 87.2086,84.4049 86.6113,85.0997 89.7865,85.8904 93.2446,85.9894 103.4619,85.3952"/>
    <line x1="107.5174" x2="108.0833" y1="66.193" y2="66.193"/>
    <polyline points="108.3034,72.1347 108.5863,84.8011 109.1836,85.3952"/>
    <polyline points="126.6316,77.4792 124.8397,81.4403 121.9474,84.1094 119.8725,85.2946 117.8919,85.9894 115.1254,85.6907 113.6478,84.7036 113.2391,81.629 114.7481,78.5481 116.6973,75.5929 119.8725,73.4237 122.2618,72.3234 124.0537,72.3234 126.2229,72.7321 126.6316,74.2096 127.0089,86.0884"/>
    <polyline points="141.9419,85.2946 142.9479,75.31 143.7338,68.1736 144.4255,65.3756 145.0228,65.187 146.406,66.193 148.7953,71.0344 151.2789,75.7815 153.4481,80.2457 154.8314,78.2651 158.4782,71.4431 161.7477,65.0927 162.4393,65.5957 163.1624,68.4565 163.854,73.2979 164.64,78.4538 165.4259,85.7913"/>
    <polyline points="181.6793,77.4792 179.8873,81.4403 176.9951,84.1094 174.9202,85.2946 172.9396,85.9894 170.1731,85.6907 168.6955,84.7036 168.2868,81.629 169.7958,78.5481 171.7449,75.5929 174.9202,73.4237 177.3094,72.3234 179.1014,72.3234 181.2706,72.7321 181.6793,74.2096 182.0566,86.0884"/>
    <polyline points="185.609,71.4431 185.2318,85.6907 186.2064,77.6678 188.5956,74.5869 191.6451,72.8264 194.1287,71.8204 195.229,71.7261 198.4986,72.0404 198.8758,72.3234"/>
    <line x1="203.6544" x2="204.2202" y1="66.193" y2="66.193"/>
    <polyline points="204.4403,72.1347 204.7232,84.8011 205.3206,85.3952"/>
    <polyline points="222.7686,77.4792 220.9766,81.4403 218.0843,84.1094 216.0094,85.2946 214.0288,85.9894 211.2623,85.6907 209.7847,84.7036 209.376,81.629 210.8851,78.5481 212.8342,75.5929 216.0094,73.4237 218.3987,72.3234 220.1907,72.3234 222.3599,72.7321 222.7686,74.2096 223.1458,86.0884"/>
    <polyline points="225.5162,72.0404 225.6137,85.5933 225.5162,76.0016 229.1819,73.6123 232.7344,71.9147 235.0293,71.7261 236.6955,71.9147 237.7959,73.1093 238.5818,76.5675 238.4875,85.8904"/>
    <polyline points="254.7409,77.4792 252.9489,81.4403 250.0566,84.1094 247.9817,85.2946 246.0011,85.9894 243.2346,85.6907 241.757,84.7036 241.3483,81.629 242.8574,78.5481 244.8065,75.5929 247.9817,73.4237 250.371,72.3234 252.163,72.3234 254.3322,72.7321 254.7409,74.2096 255.1181,86.0884"/>
  </g>
</svg>
