<svg xmlns="http://www.w3.org/2000/svg" xmlns:xlink="http://www.w3.org/1999/xlink" version="1.1" width="398" height="133"><g fill="none" fill-rule="nonzero" stroke="#010100" stroke-width="1" stroke-linecap="butt" stroke-linejoin="miter" stroke-miterlimit="10" stroke-dasharray="" stroke-dashoffset="0" font-family="none" font-weight="none" font-size="none" text-anchor="none" style="mix-blend-mode: normal" transform="scale(1)"><g><g id="text"><g id="text-line-0"><path d="M12.3,33.2l56.1,-0.3l-8.2,12.6l-21.8,26.1l-19.2,22.73l-1.9,2.21l10.1,2.515l11,0.315l32.5,-1.89"></path><path d="M83.8,36.4h1.8M86.3,55.3l0.9,40.29l1.9,1.89"></path><path d="M144.6,72.3l-5.7,12.6l-9.2,8.49l-6.6,3.77l-6.3,2.21l-8.8,-0.95l-4.7,-3.14l-1.3,-9.78l4.8,-9.8l6.2,-9.4l10.1,-6.9l7.6,-3.5h5.7l6.9,1.3l1.3,4.7l1.2,37.785"></path><path d="M194.9,32.9l-0.3,26.1l-0.3,13.3l0.3,11.3v14.19"></path><path d="M205,53.7l0.6,45.985l3.8,-31.485l6.3,-9.5l11,-4.7l6.6,-0.3l4.4,2.8l3.5,8.5l-1.3,34.685l3.5,-32.085l7.6,-8.6l10.7,-5h9.1l5.7,2.5l1.2,7.9l0.4,14.8l0.6,19.54"></path><path d="M289.7,53.7l0.6,45.985l3.8,-31.485l6.3,-9.5l11,-4.7l6.6,-0.3l4.4,2.8l3.5,8.5l-1.3,34.685l3.5,-32.085l7.6,-8.6l10.7,-5h9.1l5.7,2.5l1.2,7.9l0.4,14.8l0.6,19.54"></path><path d="M380.1,36.4h1.8M382.6,55.3l0.9,40.29l1.9,1.89"></path></g></g></g></g></svg>