<?xml version="1.0" encoding="utf-8" ?>
<svg xmlns="http://www.w3.org/2000/svg" xmlns:cc="http://creativecommons.org/ns" xmlns:dc="http://purl.org/dc/elements/1.1/" xmlns:ev="http://www.w3.org/2001/xml-events" xmlns:inkscape="http://www.inkscape.org/namespaces/inkscape" xmlns:rdf="http://www.w3.org/1999/02/22-rdf-syntax-ns" xmlns:sodipodi="http://sodipodi.sourceforge.net/DTD/sodipodi-0.dtd" xmlns:xlink="http://www.w3.org/1999/xlink" baseProfile="tiny" height="4.0cm" version="1.2" viewBox="0 0 340.1574803149606 151.1811023622047" width="9.0cm">
  <metadata>
    <rdf:RDF>
      <cc:Work>
        <dc:format>image/svg+xml</dc:format>
        <dc:source>vpype read -m -l1 -c fanusele/zia-luigia.svg scaleto -l1 -o 0 0 4.5cm 1.5cm layout -l -v center -h center 9cmx4cm write fanusele/zia-luigia.out.svg
</dc:source>
        <dc:date>2022-11-20T20:02:23.186068</dc:date>
      </cc:Work>
    </rdf:RDF>
  </metadata>
  <defs/>
  <g fill="none" id="layer1" inkscape:groupmode="layer" inkscape:label="1" stroke="#010100" stroke-width="1.0" style="display:inline">
    <polyline points="85.0394,54.7253 106.6361,54.6098 103.4793,59.4604 95.087,69.5081 87.6956,78.2584 86.9642,79.1092 90.8524,80.0773 95.087,80.1986 107.5985,79.471"/>
    <line x1="112.5646" x2="113.2575" y1="55.9572" y2="55.9572"/>
    <polyline points="113.527,63.2331 113.8735,78.7434 114.6049,79.471"/>
    <polyline points="135.9706,69.7775 133.7763,74.6281 130.2346,77.8965 127.6938,79.3478 125.2685,80.1986 121.8808,79.8329 120.0714,78.6241 119.571,74.8591 121.4188,71.0864 123.8056,67.4677 127.6938,64.8115 130.6195,63.4641 132.8139,63.4641 135.4701,63.9645 135.9706,65.7739 136.4326,80.3199"/>
    <polyline points="156.0659,54.6098 156.0659,54.8408 156.1814,65.3889 156.1814,71.7024 155.8349,77.1651 155.7194,79.3478 163.4573,79.3478 174.5059,79.5904"/>
    <polyline points="179.318,62.7326 178.3555,68.3147 178.0091,74.7436 179.472,78.5009 182.4747,80.0773 187.5948,79.7136 190.482,77.8965 192.0604,77.1651 193.6388,74.9746 194.7552,72.6648 193.8697,62.2707 195.1016,79.9561"/>
    <line x1="200.3372" x2="201.0301" y1="55.9572" y2="55.9572"/>
    <polyline points="201.2996,63.2331 201.6461,78.7434 202.3775,79.471"/>
    <polyline points="224.4362,70.3935 221.8954,74.7436 217.3143,78.3777 212.3097,80.1986 208.8065,80.1986 207.7286,78.3777 209.1915,73.7812 212.8102,68.3147 216.9293,64.9269 219.5856,63.5796 222.2804,63.9645 224.4362,65.6584 225.0521,82.8664 224.5902,88.6795 223.2428,92.3366 221.5489,94.7619 219.9706,96.0708 217.8917,96.4558 216.3134,96.5713 211.9632,96.4558"/>
    <line x1="231.2501" x2="231.9431" y1="55.9572" y2="55.9572"/>
    <polyline points="232.2125,63.2331 232.559,78.7434 233.2904,79.471"/>
    <polyline points="254.6561,69.7775 252.4618,74.6281 248.9201,77.8965 246.3793,79.3478 243.954,80.1986 240.5663,79.8329 238.757,78.6241 238.2565,74.8591 240.1044,71.0864 242.4912,67.4677 246.3793,64.8115 249.3051,63.4641 251.4994,63.4641 254.1557,63.9645 254.6561,65.7739 255.1181,80.3199"/>
  </g>
</svg>
