<?xml version="1.0" encoding="utf-8" ?>
<svg xmlns="http://www.w3.org/2000/svg" xmlns:cc="http://creativecommons.org/ns" xmlns:dc="http://purl.org/dc/elements/1.1/" xmlns:ev="http://www.w3.org/2001/xml-events" xmlns:inkscape="http://www.inkscape.org/namespaces/inkscape" xmlns:rdf="http://www.w3.org/1999/02/22-rdf-syntax-ns" xmlns:sodipodi="http://sodipodi.sourceforge.net/DTD/sodipodi-0.dtd" xmlns:xlink="http://www.w3.org/1999/xlink" baseProfile="tiny" height="4.0cm" version="1.2" viewBox="0 0 340.1574803149606 151.1811023622047" width="9.0cm">
  <metadata>
    <rdf:RDF>
      <cc:Work>
        <dc:format>image/svg+xml</dc:format>
        <dc:source>vpype read -m -l1 -c fanusele/zio-gianni-m-.svg scaleto -l1 -o 0 0 4.5cm 1.5cm layout -l -v center -h center 9cmx4cm write fanusele/zio-gianni-m-.out.svg
</dc:source>
        <dc:date>2022-11-20T19:54:21.420383</dc:date>
      </cc:Work>
    </rdf:RDF>
  </metadata>
  <defs/>
  <g fill="none" id="layer1" inkscape:groupmode="layer" inkscape:label="1" stroke="#010100" stroke-width="1.0" style="display:inline">
    <polyline points="85.0394,65.3328 101.4788,65.2449 99.0758,68.9371 92.6876,76.5854 87.0613,83.2461 86.5046,83.8938 89.4642,84.6307 92.6876,84.7231 102.2113,84.1692"/>
    <line x1="105.9915" x2="106.519" y1="66.2705" y2="66.2705"/>
    <polyline points="106.7241,71.8089 106.9878,83.6154 107.5446,84.1692"/>
    <polyline points="118.2405,71.1642 114.5482,72.8052 112.6142,75.5891 111.3248,78.3436 111.9695,82.0447 113.1709,84.0754 117.0683,84.7231 120.2917,83.8938 123.6031,81.7722 125.4492,78.3436 124.8045,74.0946 123.3393,72.4536 121.669,71.428 118.2405,71.1642"/>
    <polyline points="151.4709,64.9811 148.8042,65.2449 145.9325,66.6222 143.8226,68.4683 142.1523,70.2265 140.3941,73.362 139.1926,76.7026 139.0168,79.7502 139.5736,81.948 140.9509,83.5245 143.6175,84.6307 146.4013,84.1692 149.7127,82.5985 151.8518,81.0396 153.4928,79.4572 153.8738,78.7246 154.0496,73.0983 145.112,74.6514 157.1851,72.6294 154.1375,73.1862 154.1375,86.2"/>
    <line x1="162.577" x2="163.1045" y1="66.2705" y2="66.2705"/>
    <polyline points="163.3096,71.8089 163.5733,83.6154 164.1301,84.1692"/>
    <polyline points="180.3936,76.7905 178.7233,80.4828 176.0274,82.9707 174.0933,84.0754 172.2472,84.7231 169.6685,84.4447 168.2912,83.5245 167.9103,80.6586 169.3168,77.7869 171.1337,75.0323 174.0933,73.0104 176.3204,71.9847 177.9907,71.9847 180.0127,72.3657 180.3936,73.743 180.7453,84.8154"/>
    <polyline points="182.9548,71.721 183.0456,84.3538 182.9548,75.4133 186.3716,73.1862 189.6829,71.6038 191.8221,71.428 193.3752,71.6038 194.4008,72.7173 195.1334,75.9407 195.0455,84.6307"/>
    <polyline points="197.1671,71.721 197.2579,84.3538 197.1671,75.4133 200.5839,73.1862 203.8952,71.6038 206.0344,71.428 207.5875,71.6038 208.6131,72.7173 209.3457,75.9407 209.2578,84.6307"/>
    <line x1="213.9757" x2="214.5032" y1="66.2705" y2="66.2705"/>
    <polyline points="214.7083,71.8089 214.972,83.6154 215.5288,84.1692"/>
    <polyline points="230.4737,84.0754 231.4114,74.7686 232.144,68.1166 232.7887,65.5086 233.3455,65.3328 234.6348,66.2705 236.8619,70.7833 239.1769,75.2081 241.1988,79.3693 242.4882,77.5231 245.8874,71.1642 248.935,65.2449 249.5797,65.7137 250.2537,68.3804 250.8984,72.8931 251.631,77.699 252.3636,84.5384"/>
    <line x1="254.6668" x2="255.1181" y1="84.6307" y2="84.5384"/>
  </g>
</svg>
