<?xml version="1.0" encoding="utf-8" ?>
<svg xmlns="http://www.w3.org/2000/svg" xmlns:cc="http://creativecommons.org/ns" xmlns:dc="http://purl.org/dc/elements/1.1/" xmlns:ev="http://www.w3.org/2001/xml-events" xmlns:inkscape="http://www.inkscape.org/namespaces/inkscape" xmlns:rdf="http://www.w3.org/1999/02/22-rdf-syntax-ns" xmlns:sodipodi="http://sodipodi.sourceforge.net/DTD/sodipodi-0.dtd" xmlns:xlink="http://www.w3.org/1999/xlink" baseProfile="tiny" height="4.0cm" version="1.2" viewBox="0 0 340.1574803149606 151.1811023622047" width="9.0cm">
  <metadata>
    <rdf:RDF>
      <cc:Work>
        <dc:format>image/svg+xml</dc:format>
        <dc:source>vpype read -m -l1 -c fanusele/zio-gianni-s-.svg scaleto -l1 -o 0 0 4.5cm 1.5cm layout -l -v center -h center 9cmx4cm write fanusele/zio-gianni-s-.out.svg
</dc:source>
        <dc:date>2022-11-20T20:02:09.902397</dc:date>
      </cc:Work>
    </rdf:RDF>
  </metadata>
  <defs/>
  <g fill="none" id="layer1" inkscape:groupmode="layer" inkscape:label="1" stroke="#010100" stroke-width="1.0" style="display:inline">
    <polyline points="85.0394,65.0289 101.9658,64.9384 99.4917,68.74 92.9142,76.6149 87.1212,83.4729 86.548,84.1397 89.5953,84.8986 92.9142,84.9936 102.7201,84.4234"/>
    <line x1="106.6122" x2="107.1553" y1="65.9944" y2="65.9944"/>
    <polyline points="107.3665,71.6969 107.6381,83.8531 108.2114,84.4234"/>
    <polyline points="119.2241,71.0331 115.4224,72.7227 113.4311,75.589 112.1035,78.4252 112.7673,82.2359 114.0043,84.3268 118.0172,84.9936 121.3361,84.1397 124.7455,81.9553 126.6464,78.4252 125.9826,74.0503 124.474,72.3607 122.7542,71.3046 119.2241,71.0331"/>
    <polyline points="153.439,64.6668 150.6933,64.9384 147.7365,66.3565 145.5641,68.2573 143.8443,70.0676 142.034,73.296 140.797,76.7356 140.6159,79.8734 141.1892,82.1363 142.6073,83.7596 145.3529,84.8986 148.2192,84.4234 151.6287,82.8062 153.8312,81.201 155.5208,79.5717 155.9131,78.8174 156.0941,73.0244 146.8917,74.6235 159.3225,72.5417 156.1846,73.115 156.1846,86.5143"/>
    <line x1="164.8741" x2="165.4172" y1="65.9944" y2="65.9944"/>
    <polyline points="165.6284,71.6969 165.8999,83.8531 166.4732,84.4234"/>
    <polyline points="183.2186,76.8261 181.4988,80.6277 178.723,83.1893 176.7316,84.3268 174.8308,84.9936 172.1757,84.707 170.7576,83.7596 170.3654,80.8088 171.8136,77.8519 173.6843,75.0158 176.7316,72.9339 179.0247,71.8779 180.7445,71.8779 182.8263,72.2701 183.2186,73.6882 183.5806,85.0887"/>
    <polyline points="185.8556,71.6064 185.9491,84.6134 185.8556,75.408 189.3736,73.115 192.7831,71.4857 194.9856,71.3046 196.5847,71.4857 197.6407,72.6322 198.395,75.9511 198.3045,84.8986"/>
    <polyline points="200.489,71.6064 200.5825,84.6134 200.489,75.408 204.007,73.115 207.4164,71.4857 209.619,71.3046 211.2181,71.4857 212.2741,72.6322 213.0284,75.9511 212.9379,84.8986"/>
    <line x1="217.7955" x2="218.3386" y1="65.9944" y2="65.9944"/>
    <polyline points="218.5498,71.6969 218.8214,83.8531 219.3946,84.4234"/>
    <polyline points="250.3811,65.1194 246.489,65.7832 242.5063,66.8392 238.8857,67.8952 237.3469,69.1323 236.5926,70.0676 236.321,70.9426 237.0753,72.2701 241.058,73.5977 244.7692,74.9253 248.5708,76.4339 250.6527,77.5804 251.8897,78.6364 251.7992,79.6622 250.2001,81.5631 246.489,83.4729 242.114,84.8986 238.8857,85.0887 236.5926,84.8035 235.265,84.1397 234.7823,83.1893"/>
    <line x1="254.6535" x2="255.1181" y1="84.8986" y2="84.8035"/>
  </g>
</svg>
