<svg xmlns="http://www.w3.org/2000/svg" xmlns:xlink="http://www.w3.org/1999/xlink" version="1.1" width="543" height="133"><g fill="none" fill-rule="nonzero" stroke="#010100" stroke-width="1" stroke-linecap="butt" stroke-linejoin="miter" stroke-miterlimit="10" stroke-dasharray="" stroke-dashoffset="0" font-family="none" font-weight="none" font-size="none" text-anchor="none" style="mix-blend-mode: normal" transform="scale(1)"><g><g id="text"><g id="text-line-0"><path d="M12.3,33.2l56.1,-0.3l-8.2,12.6l-21.8,26.1l-19.2,22.73l-1.9,2.21l10.1,2.515l11,0.315l32.5,-1.89"></path><path d="M83.8,36.4h1.8M86.3,55.3l0.9,40.29l1.9,1.89"></path><path d="M125.6,53.1l-12.6,5.6l-6.6,9.5l-4.4,9.4l2.2,12.63l4.1,6.93l13.3,2.21l11,-2.83l11.3,-7.24l6.3,-11.7l-2.2,-14.5l-5,-5.6l-5.7,-3.5l-11.7,-0.9"></path><path d="M194.9,99.685l12,-31.485l7.5,-20.8l5.4,-14.5l1.6,0.3l6,9.8l8.8,17.9l6.3,15.8l5.6,13.85l4.8,8.505M203.7,75.7l11.7,-2.5l13.5,-4.1l11.4,-2.2l10.7,-2.5"></path><path d="M260.74,55l0.31,43.11l-0.31,-30.51l11.66,-7.6l11.3,-5.4l7.3,-0.6l5.3,0.6l3.5,3.8l2.5,11l-0.3,29.655"></path><path d="M327.8,32.9l1.6,66.47l-0.9,-37.17h-19.26l35.86,-0.3"></path><path d="M376.6,53.1l-12.6,5.6l-6.6,9.5l-4.4,9.4l2.2,12.63l4.1,6.93l13.3,2.21l11,-2.83l11.3,-7.24l6.3,-11.7l-2.2,-14.5l-5,-5.6l-5.7,-3.5l-11.7,-0.9"></path><path d="M406.54,55l0.31,43.11l-0.31,-30.51l11.66,-7.6l11.3,-5.4l7.3,-0.6l5.3,0.6l3.5,3.8l2.5,11l-0.3,29.655"></path><path d="M463.9,36.4h1.8M466.4,55.3l0.9,40.29l1.9,1.89"></path><path d="M505.7,53.1l-12.6,5.6l-6.6,9.5l-4.4,9.4l2.2,12.63l4.1,6.93l13.3,2.21l11,-2.83l11.3,-7.24l6.3,-11.7l-2.2,-14.5l-5,-5.6l-5.7,-3.5l-11.7,-0.9"></path></g></g></g></g></svg>