<?xml version="1.0" encoding="utf-8" ?>
<svg xmlns="http://www.w3.org/2000/svg" xmlns:cc="http://creativecommons.org/ns" xmlns:dc="http://purl.org/dc/elements/1.1/" xmlns:ev="http://www.w3.org/2001/xml-events" xmlns:inkscape="http://www.inkscape.org/namespaces/inkscape" xmlns:rdf="http://www.w3.org/1999/02/22-rdf-syntax-ns" xmlns:sodipodi="http://sodipodi.sourceforge.net/DTD/sodipodi-0.dtd" xmlns:xlink="http://www.w3.org/1999/xlink" baseProfile="tiny" height="4.0cm" version="1.2" viewBox="0 0 340.1574803149606 151.1811023622047" width="9.0cm">
  <metadata>
    <rdf:RDF>
      <cc:Work>
        <dc:format>image/svg+xml</dc:format>
        <dc:source>vpype read -m -l1 -c fanusele/zio-antonio.svg scaleto -l1 -o 0 0 4.5cm 1.5cm layout -l -v center -h center 9cmx4cm write fanusele/zio-antonio.out.svg
</dc:source>
        <dc:date>2022-11-20T20:08:21.175004</dc:date>
      </cc:Work>
    </rdf:RDF>
  </metadata>
  <defs/>
  <g fill="none" id="layer1" inkscape:groupmode="layer" inkscape:label="1" stroke="#010100" stroke-width="1.0" style="display:inline">
    <polyline points="85.0394,64.725 103.4591,64.6265 100.7667,68.7636 93.609,77.3332 87.3049,84.7963 86.6811,85.5219 89.9973,86.3477 93.609,86.4511 104.2799,85.8306"/>
    <line x1="108.5155" x2="109.1065" y1="65.7757" y2="65.7757"/>
    <polyline points="109.3363,71.9813 109.6318,85.21 110.2557,85.8306"/>
    <polyline points="122.24,71.259 118.1029,73.0976 115.9359,76.2169 114.4912,79.3032 115.2136,83.4501 116.5598,85.7255 120.9266,86.4511 124.5384,85.5219 128.2486,83.1448 130.3171,79.3032 129.5947,74.5423 127.9531,72.7036 126.0815,71.5545 122.24,71.259"/>
    <polyline points="144.9938,86.5546 148.9338,76.2169 151.3963,69.3874 153.1694,64.6265 153.6947,64.725 155.6647,67.9428 158.5541,73.82 160.6226,79.0077 162.4613,83.5552 164.0373,86.3477"/>
    <polyline points="147.8831,78.6794 151.7247,77.8585 156.1572,76.5124 159.9003,75.79 163.4135,74.9692"/>
    <polyline points="166.6115,71.8828 166.7133,86.0374 166.6115,76.0199 170.4399,73.5245 174.1501,71.7515 176.547,71.5545 178.2872,71.7515 179.4364,72.9991 180.2572,76.6109 180.1587,86.3477"/>
    <polyline points="188.6298,64.6265 189.1551,86.4511 188.8596,74.2468 182.5359,74.2468 194.31,74.1483"/>
    <polygon points="204.6527,71.259 200.5156,73.0976 198.3486,76.2169 196.9039,79.3032 197.6262,83.4501 198.9724,85.7255 203.3393,86.4511 206.951,85.5219 210.6612,83.1448 212.7298,79.3032 212.0074,74.5423 210.3657,72.7036 208.4942,71.5545"/>
    <polyline points="214.4831,71.8828 214.5849,86.0374 214.4831,76.0199 218.3115,73.5245 222.0217,71.7515 224.4186,71.5545 226.1588,71.7515 227.3079,72.9991 228.1288,76.6109 228.0303,86.3477"/>
    <line x1="233.3165" x2="233.9075" y1="65.7757" y2="65.7757"/>
    <polyline points="234.1374,71.9813 234.4329,85.21 235.0567,85.8306"/>
    <polygon points="247.041,71.259 242.904,73.0976 240.7369,76.2169 239.2923,79.3032 240.0146,83.4501 241.3608,85.7255 245.7277,86.4511 249.3394,85.5219 253.0496,83.1448 255.1181,79.3032 254.3958,74.5423 252.7541,72.7036 250.8826,71.5545"/>
  </g>
</svg>
