<svg xmlns="http://www.w3.org/2000/svg" xmlns:xlink="http://www.w3.org/1999/xlink" version="1.1" width="589" height="137"><g fill="none" fill-rule="nonzero" stroke="#010100" stroke-width="1" stroke-linecap="butt" stroke-linejoin="miter" stroke-miterlimit="10" stroke-dasharray="" stroke-dashoffset="0" font-family="none" font-weight="none" font-size="none" text-anchor="none" style="mix-blend-mode: normal" transform="scale(1)"><g><g id="text"><g id="text-line-0"><path d="M12.3,33.2l56.1,-0.3l-8.2,12.6l-21.8,26.1l-19.2,22.73l-1.9,2.21l10.1,2.515l11,0.315l32.5,-1.89"></path><path d="M83.8,36.4h1.8M86.3,55.3l0.9,40.29l1.9,1.89"></path><path d="M125.6,53.1l-12.6,5.6l-6.6,9.5l-4.4,9.4l2.2,12.63l4.1,6.93l13.3,2.21l11,-2.83l11.3,-7.24l6.3,-11.7l-2.2,-14.5l-5,-5.6l-5.7,-3.5l-11.7,-0.9"></path><path d="M239,32l-9.1,0.9l-9.8,4.7l-7.2,6.3l-5.7,6l-6,10.7l-4.1,11.4l-0.6,10.4l1.9,7.5l4.7,5.38l9.1,3.775l9.5,-1.575l11.3,-5.36l7.3,-5.32l5.6,-5.4l1.3,-2.5l0.6,-19.2l-30.5,5.3l41.2,-6.9l-10.4,1.9v44.41"></path><path d="M276.9,36.4h1.8M279.4,55.3l0.9,40.29l1.9,1.89"></path><path d="M337.7,72.3l-5.7,12.6l-9.2,8.49l-6.6,3.77l-6.3,2.21l-8.8,-0.95l-4.7,-3.14l-1.3,-9.78l4.8,-9.8l6.2,-9.4l10.1,-6.9l7.6,-3.5h5.7l6.9,1.3l1.3,4.7l1.2,37.785"></path><path d="M346.44,55l0.31,43.11l-0.31,-30.51l11.66,-7.6l11.3,-5.4l7.3,-0.6l5.3,0.6l3.5,3.8l2.5,11l-0.3,29.655"></path><path d="M394.94,55l0.31,43.11l-0.31,-30.51l11.66,-7.6l11.3,-5.4l7.3,-0.6l5.3,0.6l3.5,3.8l2.5,11l-0.3,29.655"></path><path d="M452.3,36.4h1.8M454.8,55.3l0.9,40.29l1.9,1.89"></path><path d="M560.3,33.5l-12.9,2.2l-13.2,3.5l-12,3.5l-5.1,4.1l-2.5,3.1l-0.9,2.9l2.5,4.4l13.2,4.4l12.3,4.4l12.6,5l6.9,3.8l4.1,3.5l-0.3,3.4l-5.3,6.3l-12.3,6.33l-14.5,4.725l-10.7,0.63l-7.6,-0.945l-4.4,-2.2l-1.6,-3.15"></path><path d="M574.46,99.055l1.54,-0.315"></path></g></g></g></g></svg>