<?xml version="1.0" encoding="utf-8" ?>
<svg xmlns="http://www.w3.org/2000/svg" xmlns:cc="http://creativecommons.org/ns#" xmlns:dc="http://purl.org/dc/elements/1.1/" xmlns:ev="http://www.w3.org/2001/xml-events" xmlns:inkscape="http://www.inkscape.org/namespaces/inkscape" xmlns:rdf="http://www.w3.org/1999/02/22-rdf-syntax-ns#" xmlns:sodipodi="http://sodipodi.sourceforge.net/DTD/sodipodi-0.dtd" xmlns:xlink="http://www.w3.org/1999/xlink" baseProfile="tiny" height="24.0cm" version="1.2" viewBox="0 0 1209.4488188976377 907.0866141732283" width="32.0cm">
  <metadata>
    <rdf:RDF>
      <cc:Work>
        <dc:format>image/svg+xml</dc:format>
        <dc:source>vpype read map/campo_robia_small.svg translate -- 6.6600cm 19.7550cm pagesize -l 24cmx32cm write map/campo_robia_small.svg
</dc:source>
        <dc:date>2021-06-21T12:59:35.832323</dc:date>
      </cc:Work>
    </rdf:RDF>
  </metadata>
  <defs/>
  <g fill="none" id="layer1" inkscape:groupmode="layer" inkscape:label="1" stroke="#00f" style="display:inline">
    <polyline points="400.8898,747.1182 399.9449,747.5906 399.0001,748.5355 398.5276,749.4803 398.0552,750.8977 398.0552,752.7874 398.5276,754.2048 399.0001,755.1496 400.4174,756.0945 401.8347,756.5669 403.252,756.5669 404.6693,756.0945 405.6143,755.6221 406.5591,754.6772 407.0316,753.7323"/>
    <polyline points="399.0001,749.0079 398.5276,750.4253 398.5276,752.7874 399.4725,754.6772 400.8898,755.6221 402.3072,756.0945 403.7245,756.0945 405.1418,755.6221"/>
    <polyline points="400.8898,747.1182 399.9449,748.063 399.4725,749.0079 399.0001,750.4253 399.0001,752.315 399.4725,753.7323 400.8898,755.1496 402.3072,755.6221 403.7245,755.6221 405.1418,755.1496 406.0867,754.6772 407.0316,753.7323"/>
    <line x1="401.8347" x2="401.8347" y1="748.5355" y2="754.2048"/>
    <line x1="402.3072" x2="402.3072" y1="748.5355" y2="753.2599"/>
    <polyline points="402.7796,748.063 402.7796,752.7874 402.3072,753.7323 401.8347,754.2048"/>
    <polyline points="401.8347,748.5355 402.7796,748.063 404.1969,746.6457 405.1418,747.1182 406.0867,747.1182 406.5591,746.6457"/>
    <polyline points="403.7245,747.1182 404.6693,747.5906 405.6143,747.5906"/>
    <polyline points="403.252,747.5906 404.1969,748.063 405.1418,748.063 406.0867,747.5906 406.5591,746.6457"/>
    <line x1="405.1418" x2="405.1418" y1="748.063" y2="755.1496"/>
    <polyline points="409.6772,752.315 408.7323,753.2599 408.2599,754.2048 408.2599,755.1496 408.7323,756.0945 409.6772,756.5669 410.6221,755.6221 412.0394,755.1496"/>
    <polyline points="408.2599,754.2048 408.7323,755.1496 409.2048,755.6221 410.1496,756.0945"/>
    <polyline points="408.7323,753.2599 408.7323,754.2048 409.2048,755.1496 410.1496,755.6221 410.6221,755.6221"/>
    <polyline points="408.7323,751.3701 409.6772,751.3701 411.0945,750.8977 412.0394,750.4253 412.5119,749.9528 413.4567,750.8977 412.9843,751.3701 412.9843,755.1496 413.4567,755.6221 413.9292,755.6221"/>
    <polyline points="409.2048,750.4253 408.7323,750.8977 410.1496,750.8977"/>
    <polyline points="411.5669,750.8977 412.9843,750.8977 412.5119,750.4253 412.5119,755.6221 412.9843,756.0945"/>
    <polyline points="408.2599,750.8977 409.2048,749.9528 409.6772,750.4253 410.6221,750.8977 412.0394,751.3701 412.0394,755.6221 412.9843,756.5669 413.9292,755.6221"/>
    <line x1="408.2599" x2="410.6221" y1="750.8977" y2="753.2599"/>
    <polyline points="415.0158,750.8977 415.4882,750.8977 415.9606,751.3701 415.9606,755.1496 415.0158,755.6221 415.4882,755.6221 416.4331,756.0945 416.9056,756.5669"/>
    <polyline points="415.9606,750.4253 416.4331,750.8977 416.4331,755.6221 417.378,756.0945"/>
    <polyline points="415.0158,750.8977 415.9606,749.9528 416.9056,750.8977 416.9056,755.1496 417.8504,755.6221 416.9056,756.5669"/>
    <polyline points="416.9056,751.3701 418.3229,750.8977 419.2677,750.4253 419.7402,749.9528 420.6851,750.8977 420.6851,755.1496 421.63,755.6221 420.6851,756.5669"/>
    <polyline points="419.2677,750.4253 420.2126,750.8977 420.2126,755.6221 421.1575,756.0945"/>
    <polyline points="418.3229,750.8977 418.7953,750.8977 419.7402,751.3701 419.7402,755.1496 419.2677,755.6221 420.2126,756.0945 420.6851,756.5669"/>
    <polyline points="420.6851,751.3701 422.1024,750.8977 423.0473,750.4253 423.5197,749.9528 423.9922,750.4253 424.937,750.8977 425.4095,750.8977 424.4646,751.3701 424.4646,755.1496 424.937,755.6221 425.4095,755.6221"/>
    <polyline points="423.0473,750.4253 423.9922,750.8977 423.9922,755.6221 424.4646,756.0945"/>
    <polyline points="422.1024,750.8977 422.5748,750.8977 423.5197,751.3701 423.5197,755.6221 424.4646,756.5669 425.4095,755.6221"/>
    <polyline points="426.5433,749.9528 427.0157,750.8977 427.0157,755.1496 426.0709,755.6221 427.0157,755.6221 427.0157,759.874"/>
    <polyline points="427.0157,750.4253 427.4882,750.8977 427.4882,759.4016 427.9607,758.9292 427.4882,757.9843"/>
    <polyline points="427.4882,755.6221 427.9607,755.6221 428.9055,756.0945"/>
    <polyline points="426.5433,749.9528 427.4882,750.4253 427.9607,750.8977 427.9607,755.1496 428.9055,755.6221 429.378,756.0945"/>
    <polyline points="427.9607,756.0945 428.4331,756.5669 429.378,756.0945 430.7953,755.6221 431.7402,755.6221"/>
    <polyline points="427.9607,756.0945 427.9607,757.9843 428.4331,758.9292 427.0157,759.874"/>
    <polyline points="427.9607,751.3701 429.378,750.8977 430.3228,750.4253 430.7953,749.9528 431.2677,750.4253 432.2126,750.8977 432.6851,750.8977 431.7402,751.3701 431.7402,755.6221"/>
    <polyline points="430.3228,750.4253 431.2677,750.8977 431.2677,755.1496"/>
    <polyline points="429.378,750.8977 429.8504,750.8977 430.7953,751.3701 430.7953,755.6221"/>
    <polyline points="434.6693,750.8977 434.6693,755.1496 433.7244,755.6221"/>
    <polyline points="435.1417,751.3701 435.1417,755.1496 436.559,756.0945"/>
    <polyline points="435.6142,750.8977 435.6142,755.1496 436.559,755.6221 437.0315,756.0945"/>
    <polyline points="433.7244,755.6221 434.6693,755.6221 435.6142,756.0945 436.0866,756.5669 437.0315,756.0945 438.4488,755.6221 439.3937,755.6221"/>
    <polyline points="434.6693,750.8977 435.6142,750.8977 437.0315,750.4253 437.9764,749.9528 438.4488,750.4253 439.3937,750.8977 440.3386,750.8977 439.3937,751.3701 439.3937,755.6221"/>
    <polyline points="437.5039,750.4253 438.9212,751.3701 438.9212,755.1496"/>
    <polyline points="437.0315,750.4253 437.5039,750.8977 438.4488,751.3701 438.4488,755.6221"/>
    <polyline points="447.4251,747.5906 448.3701,746.6457 449.7874,746.6457 450.7322,747.1182 451.6771,746.6457"/>
    <line x1="448.8425" x2="450.2598" y1="747.1182" y2="747.1182"/>
    <polyline points="447.4251,747.5906 448.3701,747.1182 449.3149,747.5906 450.7322,747.5906 451.6771,746.6457"/>
    <polyline points="449.7874,749.0079 449.3149,749.4803 448.8425,750.4253 448.8425,750.8977 447.8976,750.8977 447.4251,751.3701 447.4251,752.315 447.8976,751.8426 448.8425,751.8426 448.8425,754.6772"/>
    <line x1="449.3149" x2="449.3149" y1="749.9528" y2="753.7323"/>
    <line x1="447.8976" x2="449.3149" y1="751.3701" y2="751.3701"/>
    <polyline points="449.7874,749.0079 449.7874,753.2599 449.3149,754.2048 448.8425,754.6772"/>
    <polyline points="448.3701,756.5669 449.7874,755.6221 451.2047,755.1496 452.1496,755.1496 453.5669,755.6221"/>
    <polyline points="449.3149,756.0945 450.2598,755.6221 452.1496,755.6221 453.0944,756.0945"/>
    <polyline points="448.3701,756.5669 450.2598,756.0945 451.6771,756.0945 452.622,756.5669 453.5669,755.6221"/>
    <polyline points="452.1496,748.063 451.6771,748.5355 451.2047,749.4803 451.2047,753.7323"/>
    <line x1="451.6771" x2="451.6771" y1="749.0079" y2="752.7874"/>
    <polyline points="452.1496,748.063 452.1496,752.315 451.6771,753.2599 451.2047,753.7323"/>
    <polyline points="452.1496,748.063 453.5669,747.1182 454.5117,746.6457 455.4567,747.1182 455.9291,748.063 455.9291,749.4803 455.4567,750.4253 454.9842,750.8977 453.0944,751.8426 452.1496,752.315"/>
    <polyline points="454.5117,747.1182 454.9842,747.1182 455.4567,748.063 455.4567,749.9528 454.9842,750.4253"/>
    <polyline points="453.5669,747.1182 454.5117,747.5906 454.9842,748.5355 454.9842,749.9528 454.5117,750.8977 453.0944,751.8426"/>
    <polyline points="453.0944,751.8426 454.0394,752.315 454.5117,752.7874 455.9291,755.1496 456.4015,755.6221 456.874,755.6221"/>
    <polyline points="454.5117,753.2599 455.4567,755.1496 456.4015,756.0945"/>
    <polyline points="453.0944,751.8426 454.0394,752.7874 454.9842,755.6221 455.9291,756.5669 456.874,755.6221"/>
    <polyline points="458.5748,750.8977 458.5748,755.1496 457.6298,755.6221"/>
    <polyline points="459.0472,751.3701 459.0472,755.1496 460.4644,756.0945"/>
    <polyline points="459.5198,750.8977 459.5198,755.1496 460.4644,755.6221 460.9371,756.0945"/>
    <polyline points="457.6298,755.6221 458.5748,755.6221 459.5198,756.0945 459.9917,756.5669 460.9371,756.0945 462.3544,755.6221 463.2991,755.6221"/>
    <polyline points="458.5748,750.8977 459.5198,750.8977 460.9371,750.4253 461.8817,749.9528 462.3544,750.4253 463.2991,750.8977 464.2445,750.8977 463.2991,751.3701 463.2991,755.6221"/>
    <polyline points="461.4091,750.4253 462.8264,751.3701 462.8264,755.1496"/>
    <polyline points="460.9371,750.4253 461.4091,750.8977 462.3544,751.3701 462.3544,755.6221"/>
    <polyline points="465.7561,747.5906 466.2281,748.5355 466.2281,755.1496 465.2834,755.6221"/>
    <polyline points="466.7007,748.5355 466.2281,747.5906 466.7007,747.1182 466.7007,755.1496 468.118,756.0945"/>
    <polyline points="465.7561,747.5906 467.1734,746.6457 467.1734,755.1496 468.118,755.6221 468.5907,756.0945"/>
    <polyline points="465.2834,755.6221 466.2281,755.6221 467.1734,756.0945 467.6454,756.5669 468.5907,756.0945 470.008,755.6221 470.9527,755.6221"/>
    <polyline points="467.1734,751.3701 468.5907,750.8977 469.5354,750.4253 470.008,749.9528 470.48,750.4253 471.4254,750.8977 471.898,750.8977 470.9527,751.3701 470.9527,755.6221"/>
    <polyline points="469.5354,750.4253 470.48,750.8977 470.48,755.1496"/>
    <polyline points="468.5907,750.8977 469.0627,750.8977 470.008,751.3701 470.008,755.6221"/>
    <polygon points="474.3543,746.6457 473.4096,747.5906 474.3543,748.063 475.2989,747.5906"/>
    <polygon points="474.3543,747.1182 473.8816,747.5906 474.8269,747.5906"/>
    <polyline points="474.3543,749.9528 473.8816,750.4253 472.9369,750.8977 473.8816,751.3701 473.8816,755.6221 474.8269,756.5669 475.7716,755.6221"/>
    <polyline points="474.3543,751.3701 474.8269,750.8977 474.3543,750.4253 473.8816,750.8977 474.3543,751.3701 474.3543,755.6221 474.8269,756.0945"/>
    <polyline points="474.3543,749.9528 474.8269,750.4253 475.7716,750.8977 474.8269,751.3701 474.8269,755.1496 475.2989,755.6221 475.7716,755.6221"/>
    <polyline points="479.0789,752.315 478.1335,753.2599 477.6616,754.2048 477.6616,755.1496 478.1335,756.0945 479.0789,756.5669 480.0235,755.6221 481.4409,755.1496"/>
    <polyline points="477.6616,754.2048 478.1335,755.1496 478.6062,755.6221 479.5509,756.0945"/>
    <polyline points="478.1335,753.2599 478.1335,754.2048 478.6062,755.1496 479.5509,755.6221 480.0235,755.6221"/>
    <polyline points="478.1335,751.3701 479.0789,751.3701 480.4962,750.8977 481.4409,750.4253 481.9135,749.9528 482.8582,750.8977 482.3855,751.3701 482.3855,755.1496 482.8582,755.6221 483.3309,755.6221"/>
    <polyline points="478.6062,750.4253 478.1335,750.8977 479.5509,750.8977"/>
    <polyline points="480.9682,750.8977 482.3855,750.8977 481.9135,750.4253 481.9135,755.6221 482.3855,756.0945"/>
    <polyline points="477.6616,750.8977 478.6062,749.9528 479.0789,750.4253 480.0235,750.8977 481.4409,751.3701 481.4409,755.6221 482.3855,756.5669 483.3309,755.6221"/>
    <line x1="477.6616" x2="480.0235" y1="750.8977" y2="753.2599"/>
  </g>
</svg>
