<?xml version="1.0" encoding="UTF-8" standalone="no"?>
<svg
   xmlns:dc="http://purl.org/dc/elements/1.1/"
   xmlns:cc="http://creativecommons.org/ns#"
   xmlns:rdf="http://www.w3.org/1999/02/22-rdf-syntax-ns#"
   xmlns:svg="http://www.w3.org/2000/svg"
   xmlns="http://www.w3.org/2000/svg"
   id="svg8"
   version="1.1"
   viewBox="0 0 210 297"
   height="297mm"
   width="210mm">
  <defs
     id="defs2" />
  <metadata
     id="metadata5">
    <rdf:RDF>
      <cc:Work
         rdf:about="">
        <dc:format>image/svg+xml</dc:format>
        <dc:type
           rdf:resource="http://purl.org/dc/dcmitype/StillImage" />
        <dc:title></dc:title>
      </cc:Work>
    </rdf:RDF>
  </metadata>
  <g
     id="layer1">
    <g
       id="g1959">
      <g
         id="g1957" />
      <g
         id="g14980">
        <g
           id="g14978">
          <path
             style="fill:none;stroke:#000000;stroke-linecap:round;stroke-linejoin:round;stroke-width:0.4"
             d="M 17.3155 17.7619 L 15.9821 18.4285 L 14.6488 19.7619 L 13.9821 21.0952 L 13.3155 23.0952 L 13.3155 25.7619 L 13.9821 27.7619 L 14.6488 29.0952 L 16.6488 30.4286 L 18.6488 31.0952 L 20.6488 31.0952 L 22.6488 30.4286 L 23.9822 29.7619 L 25.3155 28.4286 L 25.9822 27.0952 M 14.6488 20.4285 L 13.9821 22.4286 L 13.9821 25.7619 L 15.3155 28.4286 L 17.3155 29.7619 L 19.3155 30.4286 L 21.3155 30.4286 L 23.3155 29.7619 M 17.3155 17.7619 L 15.9821 19.0952 L 15.3155 20.4285 L 14.6488 22.4286 L 14.6488 25.0952 L 15.3155 27.0952 L 17.3155 29.0952 L 19.3155 29.7619 L 21.3155 29.7619 L 23.3155 29.0952 L 24.6488 28.4286 L 25.9822 27.0952 M 18.6488 19.7619 L 18.6488 27.7619 M 19.3155 19.7619 L 19.3155 26.4286 M 19.9821 19.0952 L 19.9821 25.7619 L 19.3155 27.0952 L 18.6488 27.7619 M 18.6488 19.7619 L 19.9821 19.0952 L 21.9822 17.0952 L 23.3155 17.7619 L 24.6488 17.7619 L 25.3155 17.0952 M 21.3155 17.7619 L 22.6488 18.4285 L 23.9822 18.4285 M 20.6488 18.4285 L 21.9822 19.0952 L 23.3155 19.0952 L 24.6488 18.4285 L 25.3155 17.0952 M 23.3155 19.0952 L 23.3155 29.0952"
             id="path14958" />
          <path
             style="fill:none;stroke:#000000;stroke-linecap:round;stroke-linejoin:round;stroke-width:0.4"
             d="M 29.7155 25.0952 L 28.3821 26.4286 L 27.7155 27.7619 L 27.7155 29.0952 L 28.3821 30.4286 L 29.7155 31.0952 L 31.0488 29.7619 L 33.0488 29.0952 M 27.7155 27.7619 L 28.3821 29.0952 L 29.0488 29.7619 L 30.3821 30.4286 M 28.3821 26.4286 L 28.3821 27.7619 L 29.0488 29.0952 L 30.3821 29.7619 L 31.0488 29.7619 M 28.3821 23.7619 L 29.7155 23.7619 L 31.7155 23.0952 L 33.0488 22.4286 L 33.7155 21.7619 L 35.0488 23.0952 L 34.3821 23.7619 L 34.3821 29.0952 L 35.0488 29.7619 L 35.7155 29.7619 M 29.0488 22.4286 L 28.3821 23.0952 L 30.3821 23.0952 M 32.3821 23.0952 L 34.3821 23.0952 L 33.7155 22.4286 L 33.7155 29.7619 L 34.3821 30.4286 M 27.7155 23.0952 L 29.0488 21.7619 L 29.7155 22.4286 L 31.0488 23.0952 L 33.0488 23.7619 L 33.0488 29.7619 L 34.3821 31.0952 L 35.7155 29.7619 M 27.7155 23.0952 L 31.0488 26.4286"
             id="path14960" />
          <path
             style="fill:none;stroke:#000000;stroke-linecap:round;stroke-linejoin:round;stroke-width:0.4"
             d="M 37.2488 23.0952 L 37.9155 23.0952 L 38.5821 23.7619 L 38.5821 29.0952 L 37.2488 29.7619 L 37.9155 29.7619 L 39.2488 30.4286 L 39.9155 31.0952 M 38.5821 22.4286 L 39.2488 23.0952 L 39.2488 29.7619 L 40.5821 30.4286 M 37.2488 23.0952 L 38.5821 21.7619 L 39.9155 23.0952 L 39.9155 29.0952 L 41.2488 29.7619 L 39.9155 31.0952 M 39.9155 23.7619 L 41.9155 23.0952 L 43.2488 22.4286 L 43.9155 21.7619 L 45.2488 23.0952 L 45.2488 29.0952 L 46.5822 29.7619 L 45.2488 31.0952 M 43.2488 22.4286 L 44.5821 23.0952 L 44.5821 29.7619 L 45.9155 30.4286 M 41.9155 23.0952 L 42.5821 23.0952 L 43.9155 23.7619 L 43.9155 29.0952 L 43.2488 29.7619 L 44.5821 30.4286 L 45.2488 31.0952 M 45.2488 23.7619 L 47.2488 23.0952 L 48.5822 22.4286 L 49.2488 21.7619 L 49.9155 22.4286 L 51.2488 23.0952 L 51.9155 23.0952 L 50.5822 23.7619 L 50.5822 29.0952 L 51.2488 29.7619 L 51.9155 29.7619 M 48.5822 22.4286 L 49.9155 23.0952 L 49.9155 29.7619 L 50.5822 30.4286 M 47.2488 23.0952 L 47.9155 23.0952 L 49.2488 23.7619 L 49.2488 29.7619 L 50.5822 31.0952 L 51.9155 29.7619"
             id="path14962" />
          <path
             style="fill:none;stroke:#000000;stroke-linecap:round;stroke-linejoin:round;stroke-width:0.4"
             d="M 53.5155 21.7619 L 54.1821 23.0952 L 54.1821 29.0952 L 52.8488 29.7619 L 54.1821 29.7619 L 54.1821 35.7619 M 54.1821 22.4286 L 54.8488 23.0952 L 54.8488 35.0952 L 55.5155 34.4286 L 54.8488 33.0952 M 54.8488 29.7619 L 55.5155 29.7619 L 56.8488 30.4286 M 53.5155 21.7619 L 54.8488 22.4286 L 55.5155 23.0952 L 55.5155 29.0952 L 56.8488 29.7619 L 57.5155 30.4286 M 55.5155 30.4286 L 56.1821 31.0952 L 57.5155 30.4286 L 59.5155 29.7619 L 60.8488 29.7619 M 55.5155 30.4286 L 55.5155 33.0952 L 56.1821 34.4286 L 54.1821 35.7619 M 55.5155 23.7619 L 57.5155 23.0952 L 58.8488 22.4286 L 59.5155 21.7619 L 60.1821 22.4286 L 61.5155 23.0952 L 62.1822 23.0952 L 60.8488 23.7619 L 60.8488 29.7619 M 58.8488 22.4286 L 60.1821 23.0952 L 60.1821 29.0952 M 57.5155 23.0952 L 58.1821 23.0952 L 59.5155 23.7619 L 59.5155 29.7619"
             id="path14964" />
          <path
             style="fill:none;stroke:#000000;stroke-linecap:round;stroke-linejoin:round;stroke-width:0.4"
             d="M 64.9821 23.0952 L 64.9821 29.0952 L 63.6488 29.7619 M 65.6488 23.7619 L 65.6488 29.0952 L 67.6488 30.4286 M 66.3155 23.0952 L 66.3155 29.0952 L 67.6488 29.7619 L 68.3155 30.4286 M 63.6488 29.7619 L 64.9821 29.7619 L 66.3155 30.4286 L 66.9821 31.0952 L 68.3155 30.4286 L 70.3155 29.7619 L 71.6488 29.7619 M 64.9821 23.0952 L 66.3155 23.0952 L 68.3155 22.4286 L 69.6488 21.7619 L 70.3155 22.4286 L 71.6488 23.0952 L 72.9822 23.0952 L 71.6488 23.7619 L 71.6488 29.7619 M 68.9821 22.4286 L 70.9821 23.7619 L 70.9821 29.0952 M 68.3155 22.4286 L 68.9821 23.0952 L 70.3155 23.7619 L 70.3155 29.7619"
             id="path14966" />
          <path
             style="fill:none;stroke:#000000;stroke-linecap:round;stroke-linejoin:round;stroke-width:0.4"
             d="M 82.9821 18.4285 L 84.3155 17.0952 L 86.3155 17.0952 L 87.6488 17.7619 L 88.9821 17.0952 M 84.9821 17.7619 L 86.9821 17.7619 M 82.9821 18.4285 L 84.3155 17.7619 L 85.6488 18.4285 L 87.6488 18.4285 L 88.9821 17.0952 M 86.3155 20.4285 L 85.6488 21.0952 L 84.9821 22.4286 L 84.9821 23.0952 L 83.6488 23.0952 L 82.9821 23.7619 L 82.9821 25.0952 L 83.6488 24.4286 L 84.9821 24.4286 L 84.9821 28.4286 M 85.6488 21.7619 L 85.6488 27.0952 M 83.6488 23.7619 L 85.6488 23.7619 M 86.3155 20.4285 L 86.3155 26.4286 L 85.6488 27.7619 L 84.9821 28.4286 M 84.3155 31.0952 L 86.3155 29.7619 L 88.3155 29.0952 L 89.6488 29.0952 L 91.6488 29.7619 M 85.6488 30.4286 L 86.9821 29.7619 L 89.6488 29.7619 L 90.9821 30.4286 M 84.3155 31.0952 L 86.9821 30.4286 L 88.9821 30.4286 L 90.3155 31.0952 L 91.6488 29.7619 M 89.6488 19.0952 L 88.9821 19.7619 L 88.3155 21.0952 L 88.3155 27.0952 M 88.9821 20.4285 L 88.9821 25.7619 M 89.6488 19.0952 L 89.6488 25.0952 L 88.9821 26.4286 L 88.3155 27.0952 M 89.6488 19.0952 L 91.6488 17.7619 L 92.9821 17.0952 L 94.3155 17.7619 L 94.9821 19.0952 L 94.9821 21.0952 L 94.3155 22.4286 L 93.6488 23.0952 L 90.9821 24.4286 L 89.6488 25.0952 M 92.9821 17.7619 L 93.6488 17.7619 L 94.3155 19.0952 L 94.3155 21.7619 L 93.6488 22.4286 M 91.6488 17.7619 L 92.9821 18.4285 L 93.6488 19.7619 L 93.6488 21.7619 L 92.9821 23.0952 L 90.9821 24.4286 M 90.9821 24.4286 L 92.3155 25.0952 L 92.9821 25.7619 L 94.9821 29.0952 L 95.6488 29.7619 L 96.3155 29.7619 M 92.9821 26.4286 L 94.3155 29.0952 L 95.6488 30.4286 M 90.9821 24.4286 L 92.3155 25.7619 L 93.6488 29.7619 L 94.9821 31.0952 L 96.3155 29.7619"
             id="path14968" />
          <path
             style="fill:none;stroke:#000000;stroke-linecap:round;stroke-linejoin:round;stroke-width:0.4"
             d="M 98.7155 23.0952 L 98.7155 29.0952 L 97.3821 29.7619 M 99.3821 23.7619 L 99.3821 29.0952 L 101.382 30.4286 M 100.049 23.0952 L 100.049 29.0952 L 101.382 29.7619 L 102.049 30.4286 M 97.3821 29.7619 L 98.7155 29.7619 L 100.049 30.4286 L 100.715 31.0952 L 102.049 30.4286 L 104.049 29.7619 L 105.382 29.7619 M 98.7155 23.0952 L 100.049 23.0952 L 102.049 22.4286 L 103.382 21.7619 L 104.049 22.4286 L 105.382 23.0952 L 106.716 23.0952 L 105.382 23.7619 L 105.382 29.7619 M 102.715 22.4286 L 104.715 23.7619 L 104.715 29.0952 M 102.049 22.4286 L 102.715 23.0952 L 104.049 23.7619 L 104.049 29.7619"
             id="path14970" />
          <path
             style="fill:none;stroke:#000000;stroke-linecap:round;stroke-linejoin:round;stroke-width:0.4"
             d="M 108.849 18.4285 L 109.515 19.7619 L 109.515 29.0952 L 108.182 29.7619 M 110.182 19.7619 L 109.515 18.4285 L 110.182 17.7619 L 110.182 29.0952 L 112.182 30.4286 M 108.849 18.4285 L 110.849 17.0952 L 110.849 29.0952 L 112.182 29.7619 L 112.849 30.4286 M 108.182 29.7619 L 109.515 29.7619 L 110.849 30.4286 L 111.515 31.0952 L 112.849 30.4286 L 114.849 29.7619 L 116.182 29.7619 M 110.849 23.7619 L 112.849 23.0952 L 114.182 22.4286 L 114.849 21.7619 L 115.515 22.4286 L 116.849 23.0952 L 117.516 23.0952 L 116.182 23.7619 L 116.182 29.7619 M 114.182 22.4286 L 115.515 23.0952 L 115.515 29.0952 M 112.849 23.0952 L 113.515 23.0952 L 114.849 23.7619 L 114.849 29.7619"
             id="path14972" />
          <path
             style="fill:none;stroke:#000000;stroke-linecap:round;stroke-linejoin:round;stroke-width:0.4"
             d="M 120.982 17.0952 L 119.649 18.4285 L 120.982 19.0952 L 122.315 18.4285 Z M 120.982 17.7619 L 120.315 18.4285 L 121.649 18.4285 Z M 120.982 21.7619 L 120.315 22.4286 L 118.982 23.0952 L 120.315 23.7619 L 120.315 29.7619 L 121.649 31.0952 L 122.982 29.7619 M 120.982 23.7619 L 121.649 23.0952 L 120.982 22.4286 L 120.315 23.0952 L 120.982 23.7619 L 120.982 29.7619 L 121.649 30.4286 M 120.982 21.7619 L 121.649 22.4286 L 122.982 23.0952 L 121.649 23.7619 L 121.649 29.0952 L 122.315 29.7619 L 122.982 29.7619"
             id="path14974" />
          <path
             style="fill:none;stroke:#000000;stroke-linecap:round;stroke-linejoin:round;stroke-width:0.4"
             d="M 127.649 25.0952 L 126.315 26.4286 L 125.649 27.7619 L 125.649 29.0952 L 126.315 30.4286 L 127.649 31.0952 L 128.982 29.7619 L 130.982 29.0952 M 125.649 27.7619 L 126.315 29.0952 L 126.982 29.7619 L 128.315 30.4286 M 126.315 26.4286 L 126.315 27.7619 L 126.982 29.0952 L 128.315 29.7619 L 128.982 29.7619 M 126.315 23.7619 L 127.649 23.7619 L 129.649 23.0952 L 130.982 22.4286 L 131.649 21.7619 L 132.982 23.0952 L 132.315 23.7619 L 132.315 29.0952 L 132.982 29.7619 L 133.649 29.7619 M 126.982 22.4286 L 126.315 23.0952 L 128.315 23.0952 M 130.315 23.0952 L 132.315 23.0952 L 131.649 22.4286 L 131.649 29.7619 L 132.315 30.4286 M 125.649 23.0952 L 126.982 21.7619 L 127.649 22.4286 L 128.982 23.0952 L 130.982 23.7619 L 130.982 29.7619 L 132.315 31.0952 L 133.649 29.7619 M 125.649 23.0952 L 128.982 26.4286"
             id="path14976" />
        </g>
      </g>
    </g>
  </g>
</svg>
