<?xml version="1.0" encoding="utf-8" ?>
<svg xmlns="http://www.w3.org/2000/svg" xmlns:cc="http://creativecommons.org/ns#" xmlns:dc="http://purl.org/dc/elements/1.1/" xmlns:ev="http://www.w3.org/2001/xml-events" xmlns:inkscape="http://www.inkscape.org/namespaces/inkscape" xmlns:rdf="http://www.w3.org/1999/02/22-rdf-syntax-ns#" xmlns:sodipodi="http://sodipodi.sourceforge.net/DTD/sodipodi-0.dtd" xmlns:xlink="http://www.w3.org/1999/xlink" baseProfile="tiny" height="24.0cm" version="1.2" viewBox="0 0 1209.4488188976377 907.0866141732283" width="32.0cm">
  <metadata>
    <rdf:RDF>
      <cc:Work>
        <dc:format>image/svg+xml</dc:format>
        <dc:source>vpype read map/cartiglio_subtitle_small.svg translate -- 10.6000cm 6.2750cm pagesize -l 24cmx32cm write map/cartiglio_subtitle_small.svg
</dc:source>
        <dc:date>2021-06-21T12:59:44.700582</dc:date>
      </cc:Work>
    </rdf:RDF>
  </metadata>
  <defs/>
  <g fill="none" id="layer1" inkscape:groupmode="layer" inkscape:label="1" stroke="#00f" style="display:inline">
    <polyline points="898.2824,238.3802 899.4973,237.1654 901.3195,237.1654 903.1418,237.7729 904.3567,237.1654"/>
    <line x1="900.1047" x2="902.5345" y1="237.7729" y2="237.7729"/>
    <polyline points="898.2824,238.3802 899.4973,237.7729 901.3195,238.3802 903.1418,238.3802 904.3567,237.1654"/>
    <polyline points="902.5345,240.2025 901.927,240.81 901.3195,242.0248 901.3195,242.6322 900.1047,242.6322 899.4973,243.2396 899.4973,244.4545 900.1047,243.8471 901.3195,243.8471 901.3195,246.8842"/>
    <line x1="901.927" x2="901.927" y1="241.4173" y2="245.6693"/>
    <line x1="900.1047" x2="901.927" y1="243.2396" y2="243.2396"/>
    <polyline points="902.5345,240.2025 902.5345,245.0619 901.927,246.2768 901.3195,246.8842"/>
    <polyline points="906.179,238.3802 904.9641,239.5951 904.3567,241.4173 904.3567,248.0991 903.7493,249.3139 902.5345,249.3139 900.1047,248.0991 898.8899,248.0991 897.675,248.7064 896.4602,249.9214"/>
    <line x1="904.9641" x2="904.9641" y1="240.2025" y2="247.4916"/>
    <polyline points="901.927,249.3139 901.3195,249.3139 900.1047,248.7064 898.2824,248.7064"/>
    <polyline points="906.179,238.3802 905.5716,239.5951 905.5716,246.8842 904.9641,248.0991 903.7493,249.3139 902.5345,249.9214 900.7122,249.9214 899.4973,249.3139 897.675,249.3139 896.4602,249.9214"/>
    <polyline points="908.6694,238.3802 909.2769,239.5951 909.2769,248.0991 908.062,248.7064 908.6694,248.7064 909.8843,249.3139 910.4917,249.9214"/>
    <polyline points="909.8843,239.5951 909.2769,238.3802 909.8843,237.7729 909.8843,248.7064 911.0992,249.3139"/>
    <polyline points="908.6694,238.3802 910.4917,237.1654 910.4917,248.0991 911.7065,248.7064 912.314,248.7064 911.0992,249.3139 910.4917,249.9214"/>
    <polyline points="925.6774,241.4173 924.4625,242.0248 922.6402,242.6322 922.6402,248.0991 921.4254,248.7064"/>
    <polyline points="923.2477,242.6322 923.2477,248.0991 925.0699,249.3139"/>
    <polyline points="925.6774,241.4173 923.8551,242.6322 923.8551,248.0991 925.0699,248.7064 925.6774,249.3139"/>
    <polyline points="921.4254,248.7064 922.6402,248.7064 923.8551,249.3139 924.4625,249.9214 925.6774,249.3139 927.4997,248.7064 928.7145,248.7064"/>
    <polyline points="922.6402,238.3802 924.4625,237.1654 925.0699,238.9877 928.7145,242.6322 928.7145,248.7064"/>
    <polyline points="924.4625,238.9877 923.2477,238.3802 923.8551,237.7729 924.4625,238.9877 928.107,242.6322 928.107,248.0991"/>
    <polyline points="922.6402,238.3802 927.4997,243.2396 927.4997,248.7064"/>
    <polyline points="931.9338,242.6322 931.9338,248.0991 930.719,248.7064"/>
    <polyline points="932.5413,243.2396 932.5413,248.0991 934.3636,249.3139"/>
    <polyline points="933.1487,242.6322 933.1487,248.0991 934.3636,248.7064 934.971,249.3139"/>
    <polyline points="930.719,248.7064 931.9338,248.7064 933.1487,249.3139 933.7561,249.9214 934.971,249.3139 936.7933,248.7064 938.0081,248.7064"/>
    <polyline points="931.9338,242.6322 933.1487,242.6322 934.971,242.0248 936.1858,241.4173 936.7933,242.0248 938.0081,242.6322 939.223,242.6322 938.0081,243.2396 938.0081,248.7064"/>
    <polyline points="935.5784,242.0248 937.4007,243.2396 937.4007,248.0991"/>
    <polyline points="934.971,242.0248 935.5784,242.6322 936.7933,243.2396 936.7933,248.7064"/>
    <polyline points="940.5593,242.6322 941.1667,242.6322 941.7741,243.2396 941.7741,248.0991 940.5593,248.7064 941.1667,248.7064 942.3816,249.3139 942.989,249.9214"/>
    <polyline points="941.7741,242.0248 942.3816,242.6322 942.3816,248.7064 943.5964,249.3139"/>
    <polyline points="940.5593,242.6322 941.7741,241.4173 942.989,242.6322 942.989,248.0991 944.2039,248.7064 942.989,249.9214"/>
    <polyline points="942.989,243.2396 944.8112,242.6322 946.0261,242.0248 946.6335,241.4173 947.8484,242.6322 947.8484,248.0991 949.0633,248.7064 947.8484,249.9214"/>
    <polyline points="946.0261,242.0248 947.241,242.6322 947.241,248.7064 948.4558,249.3139"/>
    <polyline points="944.8112,242.6322 945.4187,242.6322 946.6335,243.2396 946.6335,248.0991 946.0261,248.7064 947.241,249.3139 947.8484,249.9214"/>
    <polyline points="947.8484,243.2396 949.6706,242.6322 950.8855,242.0248 951.4929,241.4173 952.1004,242.0248 953.3152,242.6322 953.9226,242.6322 952.7078,243.2396 952.7078,248.0991 953.3152,248.7064 953.9226,248.7064"/>
    <polyline points="950.8855,242.0248 952.1004,242.6322 952.1004,248.7064 952.7078,249.3139"/>
    <polyline points="949.6706,242.6322 950.2781,242.6322 951.4929,243.2396 951.4929,248.7064 952.7078,249.9214 953.9226,248.7064"/>
    <polygon points="956.5954,237.1654 955.3805,238.3802 956.5954,238.9877 957.8102,238.3802"/>
    <polygon points="956.5954,237.7729 955.9879,238.3802 957.2027,238.3802"/>
    <polyline points="956.5954,241.4173 955.9879,242.0248 954.7731,242.6322 955.9879,243.2396 955.9879,248.7064 957.2027,249.9214 958.4176,248.7064"/>
    <polyline points="956.5954,243.2396 957.2027,242.6322 956.5954,242.0248 955.9879,242.6322 956.5954,243.2396 956.5954,248.7064 957.2027,249.3139"/>
    <polyline points="956.5954,241.4173 957.2027,242.0248 958.4176,242.6322 957.2027,243.2396 957.2027,248.0991 957.8102,248.7064 958.4176,248.7064"/>
    <polyline points="960.2399,242.6322 960.8473,242.6322 961.4547,243.2396 961.4547,248.0991 960.2399,248.7064 960.8473,248.7064 962.0622,249.3139 962.6696,249.9214"/>
    <polyline points="961.4547,242.0248 962.0622,242.6322 962.0622,248.7064 963.277,249.3139"/>
    <polyline points="960.2399,242.6322 961.4547,241.4173 962.6696,242.6322 962.6696,248.0991 963.8845,248.7064 962.6696,249.9214"/>
    <polyline points="962.6696,243.2396 964.4918,242.6322 965.7068,242.0248 966.3141,241.4173 966.9216,242.0248 968.1364,242.6322 968.7439,242.6322 967.529,243.2396 967.529,248.0991 968.1364,248.7064 968.7439,248.7064"/>
    <polyline points="965.7068,242.0248 966.9216,242.6322 966.9216,248.7064 967.529,249.3139"/>
    <polyline points="964.4918,242.6322 965.0993,242.6322 966.3141,243.2396 966.3141,248.7064 967.529,249.9214 968.7439,248.7064"/>
    <polygon points="971.9021,237.1654 970.6875,238.3802 971.9021,238.9877 973.1175,238.3802"/>
    <polygon points="971.9021,237.7729 971.2952,238.3802 972.5098,238.3802"/>
    <polyline points="971.9021,241.4173 971.2952,242.0248 970.0798,242.6322 971.2952,243.2396 971.2952,248.7064 972.5098,249.9214 973.7243,248.7064"/>
    <polyline points="971.9021,243.2396 972.5098,242.6322 971.9021,242.0248 971.2952,242.6322 971.9021,243.2396 971.9021,248.7064 972.5098,249.3139"/>
    <polyline points="971.9021,241.4173 972.5098,242.0248 973.7243,242.6322 972.5098,243.2396 972.5098,248.0991 973.1175,248.7064 973.7243,248.7064"/>
    <polyline points="976.7621,242.6322 976.7621,248.0991 975.5466,248.7064"/>
    <polyline points="977.3689,243.2396 977.3689,248.0991 979.1912,249.3139"/>
    <polyline points="977.9766,242.6322 977.9766,248.0991 979.1912,248.7064 979.7989,249.3139"/>
    <polyline points="975.5466,248.7064 976.7621,248.7064 977.9766,249.3139 978.5843,249.9214 979.7989,249.3139 981.6212,248.7064 982.8357,248.7064"/>
    <polyline points="976.7621,242.6322 977.9766,242.6322 979.7989,242.0248 981.0134,241.4173 981.6212,242.0248 982.8357,242.6322 984.0512,242.6322 982.8357,243.2396 982.8357,248.7064"/>
    <polyline points="980.4066,242.0248 982.2289,243.2396 982.2289,248.0991"/>
    <polyline points="979.7989,242.0248 980.4066,242.6322 981.6212,243.2396 981.6212,248.7064"/>
    <polyline points="993.7694,237.1654 994.3771,237.7729 994.9849,238.9877 994.9849,242.6322 993.7694,242.6322 993.1626,243.2396 993.1626,244.4545 993.7694,243.8471 994.9849,243.8471 994.9849,248.0991 993.7694,248.7064"/>
    <polyline points="994.9849,238.3802 995.5917,239.5951 995.5917,248.0991"/>
    <line x1="993.7694" x2="995.5917" y1="243.2396" y2="243.2396"/>
    <polyline points="996.1994,248.7064 998.0217,248.7064 999.2362,249.3139"/>
    <polyline points="993.7694,237.1654 994.9849,237.7729 995.5917,238.3802 996.1994,239.5951 996.1994,248.0991 998.6294,248.0991 1000.4517,248.7064"/>
    <polyline points="993.7694,248.7064 995.5917,248.7064 997.414,249.3139 998.6294,249.9214 1000.4517,248.7064 1002.274,248.0991 1003.4885,248.0991"/>
    <polyline points="998.6294,239.5951 1000.4517,238.9877 1001.6662,238.3802 1002.8808,237.1654 1003.4885,237.7729 1004.7031,238.3802 1003.4885,238.9877 1003.4885,248.0991"/>
    <polyline points="1002.8808,238.9877 1003.4885,238.3802 1002.8808,237.7729 1002.274,238.3802 1002.8808,238.9877 1002.8808,247.4916"/>
    <polyline points="1001.6662,238.3802 1002.274,238.9877 1002.274,248.0991"/>
    <line x1="998.6294" x2="998.6294" y1="239.5951" y2="248.0991"/>
    <polyline points="998.6294,241.4173 999.844,242.0248 1001.0585,242.0248 1002.274,241.4173"/>
    <polyline points="998.6294,245.0619 999.844,244.4545 1001.0585,244.4545 1002.274,245.0619"/>
    <polygon points="1007.5586,237.1654 1006.3431,238.3802 1007.5586,238.9877 1008.7731,238.3802"/>
    <polygon points="1007.5586,237.7729 1006.9508,238.3802 1008.1654,238.3802"/>
    <polyline points="1007.5586,241.4173 1006.9508,242.0248 1005.7363,242.6322 1006.9508,243.2396 1006.9508,248.7064 1008.1654,249.9214 1009.3809,248.7064"/>
    <polyline points="1007.5586,243.2396 1008.1654,242.6322 1007.5586,242.0248 1006.9508,242.6322 1007.5586,243.2396 1007.5586,248.7064 1008.1654,249.3139"/>
    <polyline points="1007.5586,241.4173 1008.1654,242.0248 1009.3809,242.6322 1008.1654,243.2396 1008.1654,248.0991 1008.7731,248.7064 1009.3809,248.7064"/>
    <polyline points="1012.4178,242.6322 1012.4178,248.0991 1011.2032,248.7064 1011.8101,248.7064 1013.0255,249.3139 1013.6323,249.9214 1014.2401,249.3139 1015.4546,248.7064 1017.2769,248.0991"/>
    <polyline points="1013.0255,243.2396 1013.0255,248.7064 1014.2401,249.3139"/>
    <polyline points="1013.6323,242.6322 1013.6323,248.0991 1014.8478,248.7064 1015.4546,248.7064"/>
    <polyline points="1012.4178,242.6322 1013.6323,242.6322 1015.4546,242.0248 1016.6701,241.4173 1017.2769,242.0248 1018.4924,242.6322 1019.7069,242.6322 1018.4924,243.2396 1018.4924,250.5287 1017.8846,252.351 1016.6701,253.5659 1015.4546,254.1732"/>
    <polyline points="1015.4545,254.1732 1014.8478,253.5659 1013.6323,252.9585 1012.4178,252.9585"/>
    <polyline points="1016.0623,242.0248 1017.8846,243.2396 1017.8846,250.5287"/>
    <polyline points="1016.0623,253.5659 1014.8478,252.9585 1014.2401,252.9585"/>
    <polyline points="1015.4546,242.0248 1016.0623,242.6322 1017.2769,243.2396 1017.2769,249.3139 1017.8846,251.1362 1017.8846,252.351"/>
    <polyline points="1016.6701,253.5659 1016.0623,252.9585 1014.8478,252.351 1013.6323,252.351 1012.4178,252.9585"/>
    <polygon points="1022.8658,237.1654 1021.6504,238.3802 1022.8658,238.9877 1024.0804,238.3802"/>
    <polygon points="1022.8658,237.7729 1022.2581,238.3802 1023.4726,238.3802"/>
    <polyline points="1022.8658,241.4173 1022.2581,242.0248 1021.0435,242.6322 1022.2581,243.2396 1022.2581,248.7064 1023.4726,249.9214 1024.6881,248.7064"/>
    <polyline points="1022.8658,243.2396 1023.4726,242.6322 1022.8658,242.0248 1022.2581,242.6322 1022.8658,243.2396 1022.8658,248.7064 1023.4726,249.3139"/>
    <polyline points="1022.8658,241.4173 1023.4726,242.0248 1024.6881,242.6322 1023.4726,243.2396 1023.4726,248.0991 1024.0804,248.7064 1024.6881,248.7064"/>
    <polyline points="1027.1172,238.3802 1027.7249,239.5951 1027.7249,248.0991 1026.5104,248.7064 1027.1172,248.7064 1028.3327,249.3139 1028.9395,249.9214"/>
    <polyline points="1028.3327,239.5951 1027.7249,238.3802 1028.3327,237.7729 1028.3327,248.7064 1029.5472,249.3139"/>
    <polyline points="1027.1172,238.3802 1028.9395,237.1654 1028.9395,248.0991 1030.1549,248.7064 1030.7618,248.7064 1029.5472,249.3139 1028.9395,249.9214"/>
    <polyline points="1033.1918,242.6322 1033.1918,248.0991 1031.9772,248.7064 1032.584,248.7064 1033.7995,249.3139 1034.4063,249.9214"/>
    <polyline points="1033.7995,242.6322 1033.7995,248.7064 1035.014,249.3139"/>
    <polyline points="1034.4063,242.6322 1034.4063,248.0991 1035.6218,248.7064 1036.2286,248.7064 1035.014,249.3139 1034.4063,249.9214"/>
    <polyline points="1033.1918,242.6322 1035.6218,242.0248 1036.8363,241.4173 1038.6586,243.8471 1037.4441,244.4545 1034.4063,246.2768"/>
    <line x1="1036.2286" x2="1038.0509" y1="242.0248" y2="243.8471"/>
    <polyline points="1034.4063,242.6322 1035.6218,242.0248 1037.4441,244.4545"/>
  </g>
</svg>
