<?xml version="1.0" encoding="UTF-8" standalone="no"?>
<svg
   xmlns:dc="http://purl.org/dc/elements/1.1/"
   xmlns:cc="http://creativecommons.org/ns#"
   xmlns:rdf="http://www.w3.org/1999/02/22-rdf-syntax-ns#"
   xmlns:svg="http://www.w3.org/2000/svg"
   xmlns="http://www.w3.org/2000/svg"
   width="210mm"
   height="297mm"
   viewBox="0 0 210 297"
   version="1.1"
   id="svg8">
  <defs
     id="defs2" />
  <metadata
     id="metadata5">
    <rdf:RDF>
      <cc:Work
         rdf:about="">
        <dc:format>image/svg+xml</dc:format>
        <dc:type
           rdf:resource="http://purl.org/dc/dcmitype/StillImage" />
        <dc:title></dc:title>
      </cc:Work>
    </rdf:RDF>
  </metadata>
  <g
     id="layer1">
    <g
       id="g1093">
      <g
         id="g1091">
        <path
           style="fill:none;stroke:#000000;stroke-linecap:round;stroke-linejoin:round;stroke-width:0.4"
           d="M 21.5345 27.6714 L 22.8678 26.3381 L 24.8678 26.3381 L 26.8678 27.0048 L 28.2012 26.3381 M 23.5345 27.0048 L 26.2012 27.0048 M 21.5345 27.6714 L 22.8678 27.0048 L 24.8678 27.6714 L 26.8678 27.6714 L 28.2012 26.3381 M 26.2012 29.6714 L 25.5345 30.3381 L 24.8678 31.6714 L 24.8678 32.3381 L 23.5345 32.3381 L 22.8678 33.0047 L 22.8678 34.3381 L 23.5345 33.6714 L 24.8678 33.6714 L 24.8678 37.0047 M 25.5345 31.0047 L 25.5345 35.6714 M 23.5345 33.0047 L 25.5345 33.0047 M 26.2012 29.6714 L 26.2012 35.0047 L 25.5345 36.3381 L 24.8678 37.0047 M 30.2012 27.6714 L 28.8678 29.0048 L 28.2012 31.0047 L 28.2012 38.3381 L 27.5345 39.6714 L 26.2012 39.6714 L 23.5345 38.3381 L 22.2012 38.3381 L 20.8678 39.0047 L 19.5345 40.3381 M 28.8678 29.6714 L 28.8678 37.6714 M 25.5345 39.6714 L 24.8678 39.6714 L 23.5345 39.0047 L 21.5345 39.0047 M 30.2012 27.6714 L 29.5345 29.0048 L 29.5345 37.0047 L 28.8678 38.3381 L 27.5345 39.6714 L 26.2012 40.3381 L 24.2012 40.3381 L 22.8678 39.6714 L 20.8678 39.6714 L 19.5345 40.3381"
           id="path1061" />
        <path
           style="fill:none;stroke:#000000;stroke-linecap:round;stroke-linejoin:round;stroke-width:0.4"
           d="M 32.9345 27.6714 L 33.6012 29.0048 L 33.6012 38.3381 L 32.2678 39.0047 L 32.9345 39.0047 L 34.2678 39.6714 L 34.9345 40.3381 M 34.2678 29.0048 L 33.6012 27.6714 L 34.2678 27.0048 L 34.2678 39.0047 L 35.6012 39.6714 M 32.9345 27.6714 L 34.9345 26.3381 L 34.9345 38.3381 L 36.2678 39.0047 L 36.9345 39.0047 L 35.6012 39.6714 L 34.9345 40.3381"
           id="path1063" />
        <path
           style="fill:none;stroke:#000000;stroke-linecap:round;stroke-linejoin:round;stroke-width:0.4"
           d="M 51.6012 31.0047 L 50.2678 31.6714 L 48.2678 32.3381 L 48.2678 38.3381 L 46.9345 39.0047 M 48.9345 32.3381 L 48.9345 38.3381 L 50.9345 39.6714 M 51.6012 31.0047 L 49.6012 32.3381 L 49.6012 38.3381 L 50.9345 39.0047 L 51.6012 39.6714 M 46.9345 39.0047 L 48.2678 39.0047 L 49.6012 39.6714 L 50.2678 40.3381 L 51.6012 39.6714 L 53.6012 39.0047 L 54.9345 39.0047 M 48.2678 27.6714 L 50.2678 26.3381 L 50.9345 28.3381 L 54.9345 32.3381 L 54.9345 39.0047 M 50.2678 28.3381 L 48.9345 27.6714 L 49.6012 27.0048 L 50.2678 28.3381 L 54.2678 32.3381 L 54.2678 38.3381 M 48.2678 27.6714 L 53.6012 33.0047 L 53.6012 39.0047"
           id="path1065" />
        <path
           style="fill:none;stroke:#000000;stroke-linecap:round;stroke-linejoin:round;stroke-width:0.4"
           d="M 58.4678 32.3381 L 58.4678 38.3381 L 57.1345 39.0047 M 59.1345 33.0047 L 59.1345 38.3381 L 61.1345 39.6714 M 59.8012 32.3381 L 59.8012 38.3381 L 61.1345 39.0047 L 61.8012 39.6714 M 57.1345 39.0047 L 58.4678 39.0047 L 59.8012 39.6714 L 60.4678 40.3381 L 61.8012 39.6714 L 63.8012 39.0047 L 65.1345 39.0047 M 58.4678 32.3381 L 59.8012 32.3381 L 61.8012 31.6714 L 63.1345 31.0047 L 63.8012 31.6714 L 65.1345 32.3381 L 66.4679 32.3381 L 65.1345 33.0047 L 65.1345 39.0047 M 62.4678 31.6714 L 64.4678 33.0047 L 64.4678 38.3381 M 61.8012 31.6714 L 62.4678 32.3381 L 63.8012 33.0047 L 63.8012 39.0047"
           id="path1067" />
        <path
           style="fill:none;stroke:#000000;stroke-linecap:round;stroke-linejoin:round;stroke-width:0.4"
           d="M 67.9345 32.3381 L 68.6011 32.3381 L 69.2678 33.0047 L 69.2678 38.3381 L 67.9345 39.0047 L 68.6011 39.0047 L 69.9345 39.6714 L 70.6011 40.3381 M 69.2678 31.6714 L 69.9345 32.3381 L 69.9345 39.0047 L 71.2678 39.6714 M 67.9345 32.3381 L 69.2678 31.0047 L 70.6011 32.3381 L 70.6011 38.3381 L 71.9345 39.0047 L 70.6011 40.3381 M 70.6011 33.0047 L 72.6011 32.3381 L 73.9345 31.6714 L 74.6011 31.0047 L 75.9345 32.3381 L 75.9345 38.3381 L 77.2678 39.0047 L 75.9345 40.3381 M 73.9345 31.6714 L 75.2678 32.3381 L 75.2678 39.0047 L 76.6011 39.6714 M 72.6011 32.3381 L 73.2678 32.3381 L 74.6011 33.0047 L 74.6011 38.3381 L 73.9345 39.0047 L 75.2678 39.6714 L 75.9345 40.3381 M 75.9345 33.0047 L 77.9344 32.3381 L 79.2678 31.6714 L 79.9344 31.0047 L 80.6011 31.6714 L 81.9344 32.3381 L 82.6011 32.3381 L 81.2678 33.0047 L 81.2678 38.3381 L 81.9344 39.0047 L 82.6011 39.0047 M 79.2678 31.6714 L 80.6011 32.3381 L 80.6011 39.0047 L 81.2678 39.6714 M 77.9344 32.3381 L 78.6011 32.3381 L 79.9344 33.0047 L 79.9344 39.0047 L 81.2678 40.3381 L 82.6011 39.0047"
           id="path1069" />
        <path
           style="fill:none;stroke:#000000;stroke-linecap:round;stroke-linejoin:round;stroke-width:0.4"
           d="M 85.5345 26.3381 L 84.2011 27.6714 L 85.5345 28.3381 L 86.8678 27.6714 Z M 85.5345 27.0048 L 84.8678 27.6714 L 86.2011 27.6714 Z M 85.5345 31.0047 L 84.8678 31.6714 L 83.5345 32.3381 L 84.8678 33.0047 L 84.8678 39.0047 L 86.2011 40.3381 L 87.5345 39.0047 M 85.5345 33.0047 L 86.2011 32.3381 L 85.5345 31.6714 L 84.8678 32.3381 L 85.5345 33.0047 L 85.5345 39.0047 L 86.2011 39.6714 M 85.5345 31.0047 L 86.2011 31.6714 L 87.5345 32.3381 L 86.2011 33.0047 L 86.2011 38.3381 L 86.8678 39.0047 L 87.5345 39.0047"
           id="path1071" />
        <path
           style="fill:none;stroke:#000000;stroke-linecap:round;stroke-linejoin:round;stroke-width:0.4"
           d="M 89.5345 32.3381 L 90.2011 32.3381 L 90.8678 33.0047 L 90.8678 38.3381 L 89.5345 39.0047 L 90.2011 39.0047 L 91.5345 39.6714 L 92.2011 40.3381 M 90.8678 31.6714 L 91.5345 32.3381 L 91.5345 39.0047 L 92.8678 39.6714 M 89.5345 32.3381 L 90.8678 31.0047 L 92.2011 32.3381 L 92.2011 38.3381 L 93.5345 39.0047 L 92.2011 40.3381 M 92.2011 33.0047 L 94.2011 32.3381 L 95.5345 31.6714 L 96.2011 31.0047 L 96.8678 31.6714 L 98.2011 32.3381 L 98.8678 32.3381 L 97.5345 33.0047 L 97.5345 38.3381 L 98.2011 39.0047 L 98.8678 39.0047 M 95.5345 31.6714 L 96.8678 32.3381 L 96.8678 39.0047 L 97.5345 39.6714 M 94.2011 32.3381 L 94.8678 32.3381 L 96.2011 33.0047 L 96.2011 39.0047 L 97.5345 40.3381 L 98.8678 39.0047"
           id="path1073" />
        <path
           style="fill:none;stroke:#000000;stroke-linecap:round;stroke-linejoin:round;stroke-width:0.4"
           d="M 102.334 26.3381 L 101.001 27.6714 L 102.334 28.3381 L 103.668 27.6714 Z M 102.334 27.0048 L 101.668 27.6714 L 103.001 27.6714 Z M 102.334 31.0047 L 101.668 31.6714 L 100.334 32.3381 L 101.668 33.0047 L 101.668 39.0047 L 103.001 40.3381 L 104.334 39.0047 M 102.334 33.0047 L 103.001 32.3381 L 102.334 31.6714 L 101.668 32.3381 L 102.334 33.0047 L 102.334 39.0047 L 103.001 39.6714 M 102.334 31.0047 L 103.001 31.6714 L 104.334 32.3381 L 103.001 33.0047 L 103.001 38.3381 L 103.668 39.0047 L 104.334 39.0047"
           id="path1075" />
        <path
           style="fill:none;stroke:#000000;stroke-linecap:round;stroke-linejoin:round;stroke-width:0.4"
           d="M 107.668 32.3381 L 107.668 38.3381 L 106.334 39.0047 M 108.334 33.0047 L 108.334 38.3381 L 110.334 39.6714 M 109.001 32.3381 L 109.001 38.3381 L 110.334 39.0047 L 111.001 39.6714 M 106.334 39.0047 L 107.668 39.0047 L 109.001 39.6714 L 109.668 40.3381 L 111.001 39.6714 L 113.001 39.0047 L 114.334 39.0047 M 107.668 32.3381 L 109.001 32.3381 L 111.001 31.6714 L 112.334 31.0047 L 113.001 31.6714 L 114.334 32.3381 L 115.668 32.3381 L 114.334 33.0047 L 114.334 39.0047 M 111.668 31.6714 L 113.668 33.0047 L 113.668 38.3381 M 111.001 31.6714 L 111.668 32.3381 L 113.001 33.0047 L 113.001 39.0047"
           id="path1077" />
        <path
           style="fill:none;stroke:#000000;stroke-linecap:round;stroke-linejoin:round;stroke-width:0.4"
           d="M 126.334 26.3381 L 127.001 27.0048 L 127.668 28.3381 L 127.668 32.3381 L 126.334 32.3381 L 125.668 33.0047 L 125.668 34.3381 L 126.334 33.6714 L 127.668 33.6714 L 127.668 38.3381 L 126.334 39.0047 M 127.668 27.6714 L 128.334 29.0048 L 128.334 38.3381 M 126.334 33.0047 L 128.334 33.0047 M 129.001 39.0047 L 131.001 39.0047 L 132.334 39.6714 M 126.334 26.3381 L 127.668 27.0048 L 128.334 27.6714 L 129.001 29.0048 L 129.001 38.3381 L 131.668 38.3381 L 133.668 39.0047 M 126.334 39.0047 L 128.334 39.0047 L 130.334 39.6714 L 131.668 40.3381 L 133.668 39.0047 L 135.668 38.3381 L 137.001 38.3381 M 131.668 29.0048 L 133.668 28.3381 L 135.001 27.6714 L 136.334 26.3381 L 137.001 27.0048 L 138.334 27.6714 L 137.001 28.3381 L 137.001 38.3381 M 136.334 28.3381 L 137.001 27.6714 L 136.334 27.0048 L 135.668 27.6714 L 136.334 28.3381 L 136.334 37.6714 M 135.001 27.6714 L 135.668 28.3381 L 135.668 38.3381 M 131.668 29.0048 L 131.668 38.3381 M 131.668 31.0047 L 133.001 31.6714 L 134.334 31.6714 L 135.668 31.0047 M 131.668 35.0047 L 133.001 34.3381 L 134.334 34.3381 L 135.668 35.0047"
           id="path1079" />
        <path
           style="fill:none;stroke:#000000;stroke-linecap:round;stroke-linejoin:round;stroke-width:0.4"
           d="M 141.468 26.3381 L 140.134 27.6714 L 141.468 28.3381 L 142.801 27.6714 Z M 141.468 27.0048 L 140.801 27.6714 L 142.134 27.6714 Z M 141.468 31.0047 L 140.801 31.6714 L 139.468 32.3381 L 140.801 33.0047 L 140.801 39.0047 L 142.134 40.3381 L 143.468 39.0047 M 141.468 33.0047 L 142.134 32.3381 L 141.468 31.6714 L 140.801 32.3381 L 141.468 33.0047 L 141.468 39.0047 L 142.134 39.6714 M 141.468 31.0047 L 142.134 31.6714 L 143.468 32.3381 L 142.134 33.0047 L 142.134 38.3381 L 142.801 39.0047 L 143.468 39.0047"
           id="path1081" />
        <path
           style="fill:none;stroke:#000000;stroke-linecap:round;stroke-linejoin:round;stroke-width:0.4"
           d="M 146.801 32.3381 L 146.801 38.3381 L 145.468 39.0047 L 146.134 39.0047 L 147.468 39.6714 L 148.134 40.3381 L 148.801 39.6714 L 150.134 39.0047 L 152.134 38.3381 M 147.468 33.0047 L 147.468 39.0047 L 148.801 39.6714 M 148.134 32.3381 L 148.134 38.3381 L 149.468 39.0047 L 150.134 39.0047 M 146.801 32.3381 L 148.134 32.3381 L 150.134 31.6714 L 151.468 31.0047 L 152.134 31.6714 L 153.468 32.3381 L 154.801 32.3381 L 153.468 33.0047 L 153.468 41.0047 L 152.801 43.0047 L 151.468 44.3381 L 150.134 45.0047 L 149.468 44.3381 L 148.134 43.6714 L 146.801 43.6714 M 150.801 31.6714 L 152.801 33.0047 L 152.801 41.0047 M 150.801 44.3381 L 149.468 43.6714 L 148.801 43.6714 M 150.134 31.6714 L 150.801 32.3381 L 152.134 33.0047 L 152.134 39.6714 L 152.801 41.6714 L 152.801 43.0047 M 151.468 44.3381 L 150.801 43.6714 L 149.468 43.0047 L 148.134 43.0047 L 146.801 43.6714"
           id="path1083" />
        <path
           style="fill:none;stroke:#000000;stroke-linecap:round;stroke-linejoin:round;stroke-width:0.4"
           d="M 158.268 26.3381 L 156.934 27.6714 L 158.268 28.3381 L 159.601 27.6714 Z M 158.268 27.0048 L 157.601 27.6714 L 158.934 27.6714 Z M 158.268 31.0047 L 157.601 31.6714 L 156.268 32.3381 L 157.601 33.0047 L 157.601 39.0047 L 158.934 40.3381 L 160.268 39.0047 M 158.268 33.0047 L 158.934 32.3381 L 158.268 31.6714 L 157.601 32.3381 L 158.268 33.0047 L 158.268 39.0047 L 158.934 39.6714 M 158.268 31.0047 L 158.934 31.6714 L 160.268 32.3381 L 158.934 33.0047 L 158.934 38.3381 L 159.601 39.0047 L 160.268 39.0047"
           id="path1085" />
        <path
           style="fill:none;stroke:#000000;stroke-linecap:round;stroke-linejoin:round;stroke-width:0.4"
           d="M 162.934 27.6714 L 163.601 29.0048 L 163.601 38.3381 L 162.268 39.0047 L 162.934 39.0047 L 164.268 39.6714 L 164.934 40.3381 M 164.268 29.0048 L 163.601 27.6714 L 164.268 27.0048 L 164.268 39.0047 L 165.601 39.6714 M 162.934 27.6714 L 164.934 26.3381 L 164.934 38.3381 L 166.268 39.0047 L 166.934 39.0047 L 165.601 39.6714 L 164.934 40.3381"
           id="path1087" />
        <path
           style="fill:none;stroke:#000000;stroke-linecap:round;stroke-linejoin:round;stroke-width:0.4"
           d="M 169.601 32.3381 L 169.601 38.3381 L 168.268 39.0047 L 168.934 39.0047 L 170.268 39.6714 L 170.934 40.3381 M 170.268 32.3381 L 170.268 39.0047 L 171.601 39.6714 M 170.934 32.3381 L 170.934 38.3381 L 172.268 39.0047 L 172.934 39.0047 L 171.601 39.6714 L 170.934 40.3381 M 169.601 32.3381 L 172.268 31.6714 L 173.601 31.0047 L 175.601 33.6714 L 174.268 34.3381 L 170.934 36.3381 M 172.934 31.6714 L 174.934 33.6714 M 170.934 32.3381 L 172.268 31.6714 L 174.268 34.3381"
           id="path1089" />
      </g>
    </g>
  </g>
</svg>
