<?xml version="1.0" encoding="utf-8" ?>
<svg xmlns="http://www.w3.org/2000/svg" xmlns:cc="http://creativecommons.org/ns#" xmlns:dc="http://purl.org/dc/elements/1.1/" xmlns:ev="http://www.w3.org/2001/xml-events" xmlns:inkscape="http://www.inkscape.org/namespaces/inkscape" xmlns:rdf="http://www.w3.org/1999/02/22-rdf-syntax-ns#" xmlns:sodipodi="http://sodipodi.sourceforge.net/DTD/sodipodi-0.dtd" xmlns:xlink="http://www.w3.org/1999/xlink" baseProfile="tiny" height="24.0cm" version="1.2" viewBox="0 0 1209.4488188976377 907.0866141732283" width="32.0cm">
  <metadata>
    <rdf:RDF>
      <cc:Work>
        <dc:format>image/svg+xml</dc:format>
        <dc:source>vpype read map/cartiglio_title_small.svg translate -- 10.6000cm 5.1000cm pagesize -l 24cmx32cm write map/cartiglio_title_small.svg
</dc:source>
        <dc:date>2021-06-21T12:59:40.257637</dc:date>
      </cc:Work>
    </rdf:RDF>
  </metadata>
  <defs/>
  <g fill="none" id="layer1" inkscape:groupmode="layer" inkscape:label="1" stroke="#00f" style="display:inline">
    <polyline points="896.7922,192.7559 898.2319,194.1958 899.6718,197.0754 899.6718,205.7143 896.7922,205.7143 895.3523,207.154 895.3523,210.0337 896.7922,208.5938 899.6718,208.5938 899.6718,218.6727 896.7922,220.1123"/>
    <polyline points="899.6718,195.6355 901.1117,198.5153 901.1117,218.6727"/>
    <line x1="896.7922" x2="901.1117" y1="207.154" y2="207.154"/>
    <polyline points="902.5514,220.1123 906.8708,220.1123 909.7506,221.5522"/>
    <polyline points="896.7922,192.7559 899.6718,194.1958 901.1117,195.6355 902.5514,198.5153 902.5514,218.6727 908.3107,218.6727 912.6302,220.1123"/>
    <polyline points="896.7922,220.1123 901.1117,220.1123 905.4311,221.5522 908.3107,222.9921 912.6302,220.1123 916.9496,218.6727 919.8294,218.6727"/>
    <polyline points="908.3107,198.5153 912.6302,197.0754 915.5099,195.6355 918.3895,192.7559 919.8294,194.1958 922.709,195.6355 919.8294,197.0754 919.8294,218.6727"/>
    <polyline points="918.3895,197.0754 919.8294,195.6355 918.3895,194.1958 916.9496,195.6355 918.3895,197.0754 918.3895,217.2328"/>
    <polyline points="915.5099,195.6355 916.9496,197.0754 916.9496,218.6727"/>
    <line x1="908.3107" x2="908.3107" y1="198.5153" y2="218.6727"/>
    <polyline points="908.3107,202.8345 911.1903,204.2744 914.0701,204.2744 916.9496,202.8345"/>
    <polyline points="908.3107,211.4734 911.1903,210.0337 914.0701,210.0337 916.9496,211.4734"/>
    <polyline points="930.916,210.0337 928.0362,212.9133 926.5965,215.7929 926.5965,218.6727 928.0362,221.5522 930.916,222.9921 933.7955,220.1123 938.115,218.6727"/>
    <polyline points="926.5965,215.7929 928.0362,218.6727 929.4761,220.1123 932.3556,221.5522"/>
    <polyline points="928.0362,212.9133 928.0362,215.7929 929.4761,218.6727 932.3556,220.1123 933.7955,220.1123"/>
    <polyline points="928.0362,207.154 930.916,207.154 935.2354,205.7143 938.115,204.2744 939.5549,202.8345 942.4344,205.7143 940.9945,207.154 940.9945,218.6727 942.4344,220.1123 943.8743,220.1123"/>
    <polyline points="929.4761,204.2744 928.0362,205.7143 932.3556,205.7143"/>
    <polyline points="936.6751,205.7143 940.9945,205.7143 939.5549,204.2744 939.5549,220.1123 940.9945,221.5522"/>
    <polyline points="926.5965,205.7143 929.4761,202.8345 930.916,204.2744 933.7955,205.7143 938.115,207.154 938.115,220.1123 940.9945,222.9921 943.8743,220.1123"/>
    <line x1="926.5965" x2="933.7955" y1="205.7143" y2="212.9133"/>
    <polyline points="948.6257,195.6355 950.0654,198.5153 950.0654,218.6727 947.1858,220.1123 948.6257,220.1123 951.5053,221.5522 952.9452,222.9921"/>
    <polyline points="951.5053,198.5153 950.0654,195.6355 951.5053,194.1958 951.5053,220.1123 954.3849,221.5522"/>
    <polyline points="948.6257,195.6355 952.9452,192.7559 952.9452,218.6727 955.8248,220.1123 957.2647,220.1123 954.3849,221.5522 952.9452,222.9921"/>
    <polyline points="965.9036,210.0337 963.0238,212.9133 961.5841,215.7929 961.5841,218.6727 963.0238,221.5522 965.9036,222.9921 968.7831,220.1123 973.1026,218.6727"/>
    <polyline points="961.5841,215.7929 963.0238,218.6727 964.4637,220.1123 967.3433,221.5522"/>
    <polyline points="963.0238,212.9133 963.0238,215.7929 964.4637,218.6727 967.3433,220.1123 968.7831,220.1123"/>
    <polyline points="963.0238,207.154 965.9036,207.154 970.223,205.7143 973.1026,204.2744 974.5425,202.8345 977.4221,205.7143 975.9822,207.154 975.9822,218.6727 977.4221,220.1123 978.862,220.1123"/>
    <polyline points="964.4637,204.2744 963.0238,205.7143 967.3433,205.7143"/>
    <polyline points="971.6627,205.7143 975.9822,205.7143 974.5425,204.2744 974.5425,220.1123 975.9822,221.5522"/>
    <polyline points="961.5841,205.7143 964.4637,202.8345 965.9036,204.2744 968.7831,205.7143 973.1026,207.154 973.1026,220.1123 975.9822,222.9921 978.862,220.1123"/>
    <line x1="961.5841" x2="968.7831" y1="205.7143" y2="212.9133"/>
    <polyline points="983.6134,205.7143 983.6134,211.4734 986.4929,212.9133 995.1319,212.9133 998.0114,214.3532 998.0114,220.1123"/>
    <line x1="985.053" x2="985.053" y1="205.7143" y2="211.4734"/>
    <line x1="996.5717" x2="996.5717" y1="214.3532" y2="220.1123"/>
    <polyline points="987.9328,204.2744 986.4929,205.7143 986.4929,211.4734 989.3725,212.9133"/>
    <polyline points="992.2523,212.9133 995.1319,214.3532 995.1319,220.1123 993.692,221.5522"/>
    <polyline points="983.6134,205.7143 987.9328,204.2744 990.8124,202.8345 993.692,204.2744 996.5717,204.2744 998.0114,202.8345"/>
    <line x1="989.3725" x2="992.2523" y1="204.2744" y2="204.2744"/>
    <polyline points="987.9328,204.2744 990.8124,205.7143 993.692,205.7143 996.5717,204.2744"/>
    <polyline points="998.0114,220.1123 993.692,221.5522 990.8124,222.9921 987.9328,221.5522 985.053,221.5522 982.1735,222.9921"/>
    <line x1="992.2523" x2="989.3725" y1="221.5522" y2="221.5522"/>
    <polyline points="993.692,221.5522 990.8124,220.1123 986.4929,220.1123 982.1735,222.9921"/>
    <polyline points="998.0114,202.8345 996.5717,205.7143 993.692,210.0337 986.4929,217.2328 982.1735,222.9921"/>
    <polyline points="1005.7864,205.7143 1005.7864,218.6727 1002.9069,220.1123 1004.3468,220.1123 1007.2263,221.5522 1008.6662,222.9921"/>
    <polyline points="1007.2263,205.7143 1007.2263,220.1123 1010.106,221.5522"/>
    <polyline points="1008.6662,205.7143 1008.6662,218.6727 1011.5459,220.1123 1012.9858,220.1123 1010.106,221.5522 1008.6662,222.9921"/>
    <polyline points="1005.7864,205.7143 1011.5459,204.2744 1014.4255,202.8345 1018.7449,208.5938 1015.8654,210.0337 1008.6662,214.3532"/>
    <line x1="1012.9858" x2="1017.3053" y1="204.2744" y2="208.5938"/>
    <polyline points="1008.6662,205.7143 1011.5459,204.2744 1015.8654,210.0337"/>
    <polyline points="1026.8081,210.0337 1023.9283,212.9133 1022.4886,215.7929 1022.4886,218.6727 1023.9283,221.5522 1026.8081,222.9921 1029.6876,220.1123 1034.0071,218.6727"/>
    <polyline points="1022.4886,215.7929 1023.9283,218.6727 1025.3682,220.1123 1028.2477,221.5522"/>
    <polyline points="1023.9283,212.9133 1023.9283,215.7929 1025.3682,218.6727 1028.2477,220.1123 1029.6876,220.1123"/>
    <polyline points="1023.9283,207.154 1026.8081,207.154 1031.1275,205.7143 1034.0071,204.2744 1035.447,202.8345 1038.3266,205.7143 1036.8867,207.154 1036.8867,218.6727 1038.3266,220.1123 1039.7664,220.1123"/>
    <polyline points="1025.3682,204.2744 1023.9283,205.7143 1028.2477,205.7143"/>
    <polyline points="1032.5672,205.7143 1036.8867,205.7143 1035.447,204.2744 1035.447,220.1123 1036.8867,221.5522"/>
    <polyline points="1022.4886,205.7143 1025.3682,202.8345 1026.8081,204.2744 1029.6876,205.7143 1034.0071,207.154 1034.0071,220.1123 1036.8867,222.9921 1039.7664,220.1123"/>
    <line x1="1022.4886" x2="1029.6876" y1="205.7143" y2="212.9133"/>
  </g>
</svg>
