<?xml version="1.0" encoding="UTF-8" standalone="no"?>
<svg
   xmlns:dc="http://purl.org/dc/elements/1.1/"
   xmlns:cc="http://creativecommons.org/ns#"
   xmlns:rdf="http://www.w3.org/1999/02/22-rdf-syntax-ns#"
   xmlns:svg="http://www.w3.org/2000/svg"
   xmlns="http://www.w3.org/2000/svg"
   width="210mm"
   height="297mm"
   viewBox="0 0 210 297"
   version="1.1"
   id="svg8">
  <defs
     id="defs2" />
  <metadata
     id="metadata5">
    <rdf:RDF>
      <cc:Work
         rdf:about="">
        <dc:format>image/svg+xml</dc:format>
        <dc:type
           rdf:resource="http://purl.org/dc/dcmitype/StillImage" />
        <dc:title></dc:title>
      </cc:Work>
    </rdf:RDF>
  </metadata>
  <g
     id="layer1">
    <g
       id="g966">
      <g
         id="g964">
        <path
           style="fill:none;stroke:#000000;stroke-linecap:round;stroke-linejoin:round;stroke-width:0.4"
           d="M 20.0298 26.1667 L 20.6964 26.8334 L 21.3631 28.1667 L 21.3631 32.1667 L 20.0298 32.1667 L 19.3631 32.8333 L 19.3631 34.1667 L 20.0298 33.5 L 21.3631 33.5 L 21.3631 38.1667 L 20.0298 38.8333 M 21.3631 27.5 L 22.0298 28.8334 L 22.0298 38.1667 M 20.0298 32.8333 L 22.0298 32.8333 M 22.6964 38.8333 L 24.6964 38.8333 L 26.0298 39.5 M 20.0298 26.1667 L 21.3631 26.8334 L 22.0298 27.5 L 22.6964 28.8334 L 22.6964 38.1667 L 25.3631 38.1667 L 27.3631 38.8333 M 20.0298 38.8333 L 22.0298 38.8333 L 24.0298 39.5 L 25.3631 40.1667 L 27.3631 38.8333 L 29.3631 38.1667 L 30.6965 38.1667 M 25.3631 28.8334 L 27.3631 28.1667 L 28.6965 27.5 L 30.0298 26.1667 L 30.6965 26.8334 L 32.0298 27.5 L 30.6965 28.1667 L 30.6965 38.1667 M 30.0298 28.1667 L 30.6965 27.5 L 30.0298 26.8334 L 29.3631 27.5 L 30.0298 28.1667 L 30.0298 37.5 M 28.6965 27.5 L 29.3631 28.1667 L 29.3631 38.1667 M 25.3631 28.8334 L 25.3631 38.1667 M 25.3631 30.8333 L 26.6964 31.5 L 28.0298 31.5 L 29.3631 30.8333 M 25.3631 34.8333 L 26.6964 34.1667 L 28.0298 34.1667 L 29.3631 34.8333"
           id="path950" />
        <path
           style="fill:none;stroke:#000000;stroke-linecap:round;stroke-linejoin:round;stroke-width:0.4"
           d="M 35.8298 34.1667 L 34.4964 35.5 L 33.8298 36.8333 L 33.8298 38.1667 L 34.4964 39.5 L 35.8298 40.1667 L 37.1631 38.8333 L 39.1631 38.1667 M 33.8298 36.8333 L 34.4964 38.1667 L 35.1631 38.8333 L 36.4964 39.5 M 34.4964 35.5 L 34.4964 36.8333 L 35.1631 38.1667 L 36.4964 38.8333 L 37.1631 38.8333 M 34.4964 32.8333 L 35.8298 32.8333 L 37.8298 32.1667 L 39.1631 31.5 L 39.8298 30.8333 L 41.1631 32.1667 L 40.4964 32.8333 L 40.4964 38.1667 L 41.1631 38.8333 L 41.8298 38.8333 M 35.1631 31.5 L 34.4964 32.1667 L 36.4964 32.1667 M 38.4964 32.1667 L 40.4964 32.1667 L 39.8298 31.5 L 39.8298 38.8333 L 40.4964 39.5 M 33.8298 32.1667 L 35.1631 30.8333 L 35.8298 31.5 L 37.1631 32.1667 L 39.1631 32.8333 L 39.1631 38.8333 L 40.4964 40.1667 L 41.8298 38.8333 M 33.8298 32.1667 L 37.1631 35.5"
           id="path952" />
        <path
           style="fill:none;stroke:#000000;stroke-linecap:round;stroke-linejoin:round;stroke-width:0.4"
           d="M 44.0298 27.5 L 44.6964 28.8334 L 44.6964 38.1667 L 43.3631 38.8333 L 44.0298 38.8333 L 45.3631 39.5 L 46.0298 40.1667 M 45.3631 28.8334 L 44.6964 27.5 L 45.3631 26.8334 L 45.3631 38.8333 L 46.6964 39.5 M 44.0298 27.5 L 46.0298 26.1667 L 46.0298 38.1667 L 47.3631 38.8333 L 48.0298 38.8333 L 46.6964 39.5 L 46.0298 40.1667"
           id="path954" />
        <path
           style="fill:none;stroke:#000000;stroke-linecap:round;stroke-linejoin:round;stroke-width:0.4"
           d="M 52.0298 34.1667 L 50.6964 35.5 L 50.0298 36.8333 L 50.0298 38.1667 L 50.6964 39.5 L 52.0298 40.1667 L 53.3631 38.8333 L 55.3631 38.1667 M 50.0298 36.8333 L 50.6964 38.1667 L 51.3631 38.8333 L 52.6964 39.5 M 50.6964 35.5 L 50.6964 36.8333 L 51.3631 38.1667 L 52.6964 38.8333 L 53.3631 38.8333 M 50.6964 32.8333 L 52.0298 32.8333 L 54.0298 32.1667 L 55.3631 31.5 L 56.0298 30.8333 L 57.3631 32.1667 L 56.6964 32.8333 L 56.6964 38.1667 L 57.3631 38.8333 L 58.0298 38.8333 M 51.3631 31.5 L 50.6964 32.1667 L 52.6964 32.1667 M 54.6964 32.1667 L 56.6964 32.1667 L 56.0298 31.5 L 56.0298 38.8333 L 56.6964 39.5 M 50.0298 32.1667 L 51.3631 30.8333 L 52.0298 31.5 L 53.3631 32.1667 L 55.3631 32.8333 L 55.3631 38.8333 L 56.6964 40.1667 L 58.0298 38.8333 M 50.0298 32.1667 L 53.3631 35.5"
           id="path956" />
        <path
           style="fill:none;stroke:#000000;stroke-linecap:round;stroke-linejoin:round;stroke-width:0.4"
           d="M 60.2298 32.1667 L 60.2298 34.8333 L 61.5631 35.5 L 65.5631 35.5 L 66.8964 36.1667 L 66.8964 38.8333 M 60.8964 32.1667 L 60.8964 34.8333 M 66.2298 36.1667 L 66.2298 38.8333 M 62.2298 31.5 L 61.5631 32.1667 L 61.5631 34.8333 L 62.8964 35.5 M 64.2298 35.5 L 65.5631 36.1667 L 65.5631 38.8333 L 64.8964 39.5 M 60.2298 32.1667 L 62.2298 31.5 L 63.5631 30.8333 L 64.8964 31.5 L 66.2298 31.5 L 66.8964 30.8333 M 62.8964 31.5 L 64.2298 31.5 M 62.2298 31.5 L 63.5631 32.1667 L 64.8964 32.1667 L 66.2298 31.5 M 66.8964 38.8333 L 64.8964 39.5 L 63.5631 40.1667 L 62.2298 39.5 L 60.8964 39.5 L 59.5631 40.1667 M 64.2298 39.5 L 62.8964 39.5 M 64.8964 39.5 L 63.5631 38.8333 L 61.5631 38.8333 L 59.5631 40.1667 M 66.8964 30.8333 L 66.2298 32.1667 L 64.8964 34.1667 L 61.5631 37.5 L 59.5631 40.1667"
           id="path958" />
        <path
           style="fill:none;stroke:#000000;stroke-linecap:round;stroke-linejoin:round;stroke-width:0.4"
           d="M 70.4964 32.1667 L 70.4964 38.1667 L 69.1631 38.8333 L 69.8298 38.8333 L 71.1631 39.5 L 71.8298 40.1667 M 71.1631 32.1667 L 71.1631 38.8333 L 72.4964 39.5 M 71.8298 32.1667 L 71.8298 38.1667 L 73.1631 38.8333 L 73.8298 38.8333 L 72.4964 39.5 L 71.8298 40.1667 M 70.4964 32.1667 L 73.1631 31.5 L 74.4964 30.8333 L 76.4964 33.5 L 75.1631 34.1667 L 71.8298 36.1667 M 73.8298 31.5 L 75.8298 33.5 M 71.8298 32.1667 L 73.1631 31.5 L 75.1631 34.1667"
           id="path960" />
        <path
           style="fill:none;stroke:#000000;stroke-linecap:round;stroke-linejoin:round;stroke-width:0.4"
           d="M 80.2298 34.1667 L 78.8964 35.5 L 78.2298 36.8333 L 78.2298 38.1667 L 78.8964 39.5 L 80.2298 40.1667 L 81.5631 38.8333 L 83.5631 38.1667 M 78.2298 36.8333 L 78.8964 38.1667 L 79.5631 38.8333 L 80.8964 39.5 M 78.8964 35.5 L 78.8964 36.8333 L 79.5631 38.1667 L 80.8964 38.8333 L 81.5631 38.8333 M 78.8964 32.8333 L 80.2298 32.8333 L 82.2298 32.1667 L 83.5631 31.5 L 84.2298 30.8333 L 85.5631 32.1667 L 84.8964 32.8333 L 84.8964 38.1667 L 85.5631 38.8333 L 86.2298 38.8333 M 79.5631 31.5 L 78.8964 32.1667 L 80.8964 32.1667 M 82.8964 32.1667 L 84.8964 32.1667 L 84.2298 31.5 L 84.2298 38.8333 L 84.8964 39.5 M 78.2298 32.1667 L 79.5631 30.8333 L 80.2298 31.5 L 81.5631 32.1667 L 83.5631 32.8333 L 83.5631 38.8333 L 84.8964 40.1667 L 86.2298 38.8333 M 78.2298 32.1667 L 81.5631 35.5"
           id="path962" />
      </g>
    </g>
  </g>
</svg>
