<?xml version="1.0" encoding="utf-8" ?>
<svg xmlns="http://www.w3.org/2000/svg" xmlns:cc="http://creativecommons.org/ns#" xmlns:dc="http://purl.org/dc/elements/1.1/" xmlns:ev="http://www.w3.org/2001/xml-events" xmlns:inkscape="http://www.inkscape.org/namespaces/inkscape" xmlns:rdf="http://www.w3.org/1999/02/22-rdf-syntax-ns#" xmlns:sodipodi="http://sodipodi.sourceforge.net/DTD/sodipodi-0.dtd" xmlns:xlink="http://www.w3.org/1999/xlink" baseProfile="tiny" height="24.0cm" version="1.2" viewBox="0 0 1209.4488188976377 907.0866141732283" width="32.0cm">
  <metadata>
    <rdf:RDF>
      <cc:Work>
        <dc:format>image/svg+xml</dc:format>
        <dc:source>vpype read map/catun_small.svg translate -- 4.5400cm 5.1000cm pagesize -l 24cmx32cm write map/catun_small.svg
</dc:source>
        <dc:date>2021-06-21T12:58:35.558683</dc:date>
      </cc:Work>
    </rdf:RDF>
  </metadata>
  <defs/>
  <g fill="none" id="layer1" inkscape:groupmode="layer" inkscape:label="1" stroke="#00f" style="display:inline">
    <polyline points="521.152,193.6558 519.3521,194.5556 517.5524,196.3555 516.6525,198.1552 515.7527,200.8549 515.7527,204.4545 516.6525,207.1541 517.5524,208.9539 520.252,210.7537 522.9517,211.6535 525.6514,211.6535 528.351,210.7537 530.1509,209.8538 531.9506,208.0541 532.8506,206.2542"/>
    <polyline points="517.5524,197.2553 516.6525,199.9551 516.6525,204.4545 518.4523,208.0541 521.152,209.8538 523.8516,210.7537 526.5513,210.7537 529.251,209.8538"/>
    <polyline points="521.152,193.6558 519.3521,195.4556 518.4523,197.2553 517.5524,199.9551 517.5524,203.5546 518.4523,206.2542 521.152,208.9539 523.8516,209.8538 526.5513,209.8538 529.251,208.9539 531.0507,208.0541 532.8506,206.2542"/>
    <line x1="522.9517" x2="522.9517" y1="196.3555" y2="207.1541"/>
    <line x1="523.8516" x2="523.8516" y1="196.3555" y2="205.3544"/>
    <polyline points="524.7514,195.4556 524.7514,204.4545 523.8516,206.2542 522.9517,207.1541"/>
    <polyline points="522.9517,196.3555 524.7514,195.4556 527.4512,192.7559 529.251,193.6558 531.0507,193.6558 531.9506,192.7559"/>
    <polyline points="526.5513,193.6558 528.351,194.5556 530.1509,194.5556"/>
    <polyline points="525.6514,194.5556 527.4512,195.4556 529.251,195.4556 531.0507,194.5556 531.9506,192.7559"/>
    <line x1="529.251" x2="529.251" y1="195.4556" y2="208.9539"/>
    <polyline points="521.152,193.6558 519.3521,194.5556 517.5524,196.3555 516.6525,198.1552 515.7527,200.8549 515.7527,204.4545 516.6525,207.1541 517.5524,208.9539 520.252,210.7537 522.9517,211.6535 525.6514,211.6535 528.351,210.7537 530.1509,209.8538 531.9506,208.0541 532.8506,206.2542"/>
    <polyline points="517.5524,197.2553 516.6525,199.9551 516.6525,204.4545 518.4523,208.0541 521.152,209.8538 523.8516,210.7537 526.5513,210.7537 529.251,209.8538"/>
    <polyline points="521.152,193.6558 519.3521,195.4556 518.4523,197.2553 517.5524,199.9551 517.5524,203.5546 518.4523,206.2542 521.152,208.9539 523.8516,209.8538 526.5513,209.8538 529.251,208.9539 531.0507,208.0541 532.8506,206.2542"/>
    <line x1="522.9517" x2="522.9517" y1="196.3555" y2="207.1541"/>
    <line x1="523.8516" x2="523.8516" y1="196.3555" y2="205.3544"/>
    <polyline points="524.7514,195.4556 524.7514,204.4545 523.8516,206.2542 522.9517,207.1541"/>
    <polyline points="522.9517,196.3555 524.7514,195.4556 527.4512,192.7559 529.251,193.6558 531.0507,193.6558 531.9506,192.7559"/>
    <polyline points="526.5513,193.6558 528.351,194.5556 530.1509,194.5556"/>
    <polyline points="525.6514,194.5556 527.4512,195.4556 529.251,195.4556 531.0507,194.5556 531.9506,192.7559"/>
    <line x1="529.251" x2="529.251" y1="195.4556" y2="208.9539"/>
    <polyline points="537.8899,203.5546 536.09,205.3544 535.1902,207.1541 535.1902,208.9539 536.09,210.7537 537.8899,211.6535 539.6896,209.8538 542.3894,208.9539"/>
    <polyline points="535.1902,207.1541 536.09,208.9539 536.99,209.8538 538.7897,210.7537"/>
    <polyline points="536.09,205.3544 536.09,207.1541 536.99,208.9539 538.7897,209.8538 539.6896,209.8538"/>
    <polyline points="536.09,201.7548 537.8899,201.7548 540.5897,200.8549 542.3894,199.9551 543.2893,199.0552 545.089,200.8549 544.1891,201.7548 544.1891,208.9539 545.089,209.8538 545.989,209.8538"/>
    <polyline points="536.99,199.9551 536.09,200.8549 538.7897,200.8549"/>
    <polyline points="541.4895,200.8549 544.1891,200.8549 543.2893,199.9551 543.2893,209.8538 544.1891,210.7537"/>
    <polyline points="535.1902,200.8549 536.99,199.0552 537.8899,199.9551 539.6896,200.8549 542.3894,201.7548 542.3894,209.8538 544.1891,211.6535 545.989,209.8538"/>
    <line x1="535.1902" x2="539.6896" y1="200.8549" y2="205.3544"/>
    <polyline points="548.9586,194.5556 549.8584,196.3555 549.8584,208.9539 548.0587,209.8538 548.9586,209.8538 550.7583,210.7537 551.6583,211.6535"/>
    <polyline points="550.7583,196.3555 549.8584,194.5556 550.7583,193.6558 550.7583,209.8538 552.5581,210.7537"/>
    <polyline points="548.9586,194.5556 551.6583,192.7559 551.6583,208.9539 553.458,209.8538 554.3579,209.8538 552.5581,210.7537 551.6583,211.6535"/>
    <line x1="547.1587" x2="549.8584" y1="199.0552" y2="199.0552"/>
    <line x1="551.6583" x2="554.3579" y1="199.0552" y2="199.0552"/>
    <polyline points="556.1577,200.8549 557.0576,200.8549 557.9574,201.7548 557.9574,208.9539 556.1577,209.8538"/>
    <polyline points="557.0576,199.9551 558.8573,200.8549 558.8573,209.8538 560.6571,210.7537"/>
    <polyline points="556.1577,200.8549 557.9574,199.0552 559.7573,200.8549 559.7573,208.9539 561.557,209.8538 562.4569,209.8538"/>
    <polyline points="556.1577,209.8538 557.0576,209.8538 558.8573,210.7537 559.7573,211.6535 560.6571,210.7537 562.4569,209.8538 565.1566,208.9539"/>
    <polyline points="565.1566,199.0552 566.0564,199.9551 567.8562,200.8549 568.7562,200.8549 566.9563,201.7548 566.9563,208.9539 567.8562,209.8538 568.7562,209.8538"/>
    <polyline points="564.2566,199.9551 566.0564,200.8549 566.0564,209.8538 566.9563,210.7537"/>
    <polyline points="565.1566,199.0552 563.3567,200.8549 565.1566,201.7548 565.1566,209.8538 566.9563,211.6535 568.7562,209.8538"/>
    <polyline points="570.7358,200.8549 571.6358,200.8549 572.5356,201.7548 572.5356,208.9539 570.7358,209.8538 571.6358,209.8538 573.4355,210.7537 574.3354,211.6535"/>
    <polyline points="572.5356,199.9551 573.4355,200.8549 573.4355,209.8538 575.2352,210.7537"/>
    <polyline points="570.7358,200.8549 572.5356,199.0552 574.3354,200.8549 574.3354,208.9539 576.1352,209.8538 574.3354,211.6535"/>
    <polyline points="574.3354,201.7548 577.0351,200.8549 578.8348,199.9551 579.7348,199.0552 580.6346,199.9551 582.4344,200.8549 583.3344,200.8549 581.5345,201.7548 581.5345,208.9539 582.4344,209.8538 583.3344,209.8538"/>
    <polyline points="578.8348,199.9551 580.6346,200.8549 580.6346,209.8538 581.5345,210.7537"/>
    <polyline points="577.0351,200.8549 577.9349,200.8549 579.7348,201.7548 579.7348,209.8538 581.5345,211.6535 583.3344,209.8538"/>
  </g>
</svg>
