<?xml version="1.0" encoding="UTF-8" standalone="no"?>
<svg
   xmlns:dc="http://purl.org/dc/elements/1.1/"
   xmlns:cc="http://creativecommons.org/ns#"
   xmlns:rdf="http://www.w3.org/1999/02/22-rdf-syntax-ns#"
   xmlns:svg="http://www.w3.org/2000/svg"
   xmlns="http://www.w3.org/2000/svg"
   width="210mm"
   height="297mm"
   viewBox="0 0 210 297"
   version="1.1"
   id="svg8">
  <defs
     id="defs2" />
  <metadata
     id="metadata5">
    <rdf:RDF>
      <cc:Work
         rdf:about="">
        <dc:format>image/svg+xml</dc:format>
        <dc:type
           rdf:resource="http://purl.org/dc/dcmitype/StillImage" />
        <dc:title></dc:title>
      </cc:Work>
    </rdf:RDF>
  </metadata>
  <g
     id="layer1">
    <g
       id="g1932">
      <g
         id="g1930">
        <path
           style="fill:none;stroke:#000000;stroke-linecap:round;stroke-linejoin:round;stroke-width:0.4"
           d="M 17.3155 17.7619 L 15.9821 18.4285 L 14.6488 19.7619 L 13.9821 21.0952 L 13.3155 23.0952 L 13.3155 25.7619 L 13.9821 27.7619 L 14.6488 29.0952 L 16.6488 30.4286 L 18.6488 31.0952 L 20.6488 31.0952 L 22.6488 30.4286 L 23.9822 29.7619 L 25.3155 28.4286 L 25.9822 27.0952 M 14.6488 20.4285 L 13.9821 22.4286 L 13.9821 25.7619 L 15.3155 28.4286 L 17.3155 29.7619 L 19.3155 30.4286 L 21.3155 30.4286 L 23.3155 29.7619 M 17.3155 17.7619 L 15.9821 19.0952 L 15.3155 20.4285 L 14.6488 22.4286 L 14.6488 25.0952 L 15.3155 27.0952 L 17.3155 29.0952 L 19.3155 29.7619 L 21.3155 29.7619 L 23.3155 29.0952 L 24.6488 28.4286 L 25.9822 27.0952 M 18.6488 19.7619 L 18.6488 27.7619 M 19.3155 19.7619 L 19.3155 26.4286 M 19.9821 19.0952 L 19.9821 25.7619 L 19.3155 27.0952 L 18.6488 27.7619 M 18.6488 19.7619 L 19.9821 19.0952 L 21.9822 17.0952 L 23.3155 17.7619 L 24.6488 17.7619 L 25.3155 17.0952 M 21.3155 17.7619 L 22.6488 18.4285 L 23.9822 18.4285 M 20.6488 18.4285 L 21.9822 19.0952 L 23.3155 19.0952 L 24.6488 18.4285 L 25.3155 17.0952 M 23.3155 19.0952 L 23.3155 29.0952"
           id="path1928" />
      </g>
    </g>
    <g
       id="g1959">
      <g
         id="g1957">
        <path
           style="fill:none;stroke:#000000;stroke-linecap:round;stroke-linejoin:round;stroke-width:0.4"
           d="M 17.3155 17.7619 L 15.9821 18.4285 L 14.6488 19.7619 L 13.9821 21.0952 L 13.3155 23.0952 L 13.3155 25.7619 L 13.9821 27.7619 L 14.6488 29.0952 L 16.6488 30.4286 L 18.6488 31.0952 L 20.6488 31.0952 L 22.6488 30.4286 L 23.9822 29.7619 L 25.3155 28.4286 L 25.9822 27.0952 M 14.6488 20.4285 L 13.9821 22.4286 L 13.9821 25.7619 L 15.3155 28.4286 L 17.3155 29.7619 L 19.3155 30.4286 L 21.3155 30.4286 L 23.3155 29.7619 M 17.3155 17.7619 L 15.9821 19.0952 L 15.3155 20.4285 L 14.6488 22.4286 L 14.6488 25.0952 L 15.3155 27.0952 L 17.3155 29.0952 L 19.3155 29.7619 L 21.3155 29.7619 L 23.3155 29.0952 L 24.6488 28.4286 L 25.9822 27.0952 M 18.6488 19.7619 L 18.6488 27.7619 M 19.3155 19.7619 L 19.3155 26.4286 M 19.9821 19.0952 L 19.9821 25.7619 L 19.3155 27.0952 L 18.6488 27.7619 M 18.6488 19.7619 L 19.9821 19.0952 L 21.9822 17.0952 L 23.3155 17.7619 L 24.6488 17.7619 L 25.3155 17.0952 M 21.3155 17.7619 L 22.6488 18.4285 L 23.9822 18.4285 M 20.6488 18.4285 L 21.9822 19.0952 L 23.3155 19.0952 L 24.6488 18.4285 L 25.3155 17.0952 M 23.3155 19.0952 L 23.3155 29.0952"
           id="path1947" />
        <path
           style="fill:none;stroke:#000000;stroke-linecap:round;stroke-linejoin:round;stroke-width:0.4"
           d="M 29.7155 25.0952 L 28.3821 26.4286 L 27.7155 27.7619 L 27.7155 29.0952 L 28.3821 30.4286 L 29.7155 31.0952 L 31.0488 29.7619 L 33.0488 29.0952 M 27.7155 27.7619 L 28.3821 29.0952 L 29.0488 29.7619 L 30.3821 30.4286 M 28.3821 26.4286 L 28.3821 27.7619 L 29.0488 29.0952 L 30.3821 29.7619 L 31.0488 29.7619 M 28.3821 23.7619 L 29.7155 23.7619 L 31.7155 23.0952 L 33.0488 22.4286 L 33.7155 21.7619 L 35.0488 23.0952 L 34.3821 23.7619 L 34.3821 29.0952 L 35.0488 29.7619 L 35.7155 29.7619 M 29.0488 22.4286 L 28.3821 23.0952 L 30.3821 23.0952 M 32.3821 23.0952 L 34.3821 23.0952 L 33.7155 22.4286 L 33.7155 29.7619 L 34.3821 30.4286 M 27.7155 23.0952 L 29.0488 21.7619 L 29.7155 22.4286 L 31.0488 23.0952 L 33.0488 23.7619 L 33.0488 29.7619 L 34.3821 31.0952 L 35.7155 29.7619 M 27.7155 23.0952 L 31.0488 26.4286"
           id="path1949" />
        <path
           style="fill:none;stroke:#000000;stroke-linecap:round;stroke-linejoin:round;stroke-width:0.4"
           d="M 37.9155 18.4285 L 38.5821 19.7619 L 38.5821 29.0952 L 37.2488 29.7619 L 37.9155 29.7619 L 39.2488 30.4286 L 39.9155 31.0952 M 39.2488 19.7619 L 38.5821 18.4285 L 39.2488 17.7619 L 39.2488 29.7619 L 40.5821 30.4286 M 37.9155 18.4285 L 39.9155 17.0952 L 39.9155 29.0952 L 41.2488 29.7619 L 41.9155 29.7619 L 40.5821 30.4286 L 39.9155 31.0952 M 36.5821 21.7619 L 38.5821 21.7619 M 39.9155 21.7619 L 41.9155 21.7619"
           id="path1951" />
        <path
           style="fill:none;stroke:#000000;stroke-linecap:round;stroke-linejoin:round;stroke-width:0.4"
           d="M 43.2488 23.0952 L 43.9155 23.0952 L 44.5821 23.7619 L 44.5821 29.0952 L 43.2488 29.7619 M 43.9155 22.4286 L 45.2488 23.0952 L 45.2488 29.7619 L 46.5821 30.4286 M 43.2488 23.0952 L 44.5821 21.7619 L 45.9155 23.0952 L 45.9155 29.0952 L 47.2488 29.7619 L 47.9155 29.7619 M 43.2488 29.7619 L 43.9155 29.7619 L 45.2488 30.4286 L 45.9155 31.0952 L 46.5821 30.4286 L 47.9155 29.7619 L 49.9155 29.0952 M 49.9155 21.7619 L 50.5821 22.4286 L 51.9155 23.0952 L 52.5822 23.0952 L 51.2488 23.7619 L 51.2488 29.0952 L 51.9155 29.7619 L 52.5822 29.7619 M 49.2488 22.4286 L 50.5821 23.0952 L 50.5821 29.7619 L 51.2488 30.4286 M 49.9155 21.7619 L 48.5821 23.0952 L 49.9155 23.7619 L 49.9155 29.7619 L 51.2488 31.0952 L 52.5822 29.7619"
           id="path1953" />
        <path
           style="fill:none;stroke:#000000;stroke-linecap:round;stroke-linejoin:round;stroke-width:0.4"
           d="M 54.0488 23.0952 L 54.7155 23.0952 L 55.3821 23.7619 L 55.3821 29.0952 L 54.0488 29.7619 L 54.7155 29.7619 L 56.0488 30.4286 L 56.7155 31.0952 M 55.3821 22.4286 L 56.0488 23.0952 L 56.0488 29.7619 L 57.3821 30.4286 M 54.0488 23.0952 L 55.3821 21.7619 L 56.7155 23.0952 L 56.7155 29.0952 L 58.0488 29.7619 L 56.7155 31.0952 M 56.7155 23.7619 L 58.7155 23.0952 L 60.0488 22.4286 L 60.7155 21.7619 L 61.3821 22.4286 L 62.7155 23.0952 L 63.3822 23.0952 L 62.0488 23.7619 L 62.0488 29.0952 L 62.7155 29.7619 L 63.3822 29.7619 M 60.0488 22.4286 L 61.3821 23.0952 L 61.3821 29.7619 L 62.0488 30.4286 M 58.7155 23.0952 L 59.3821 23.0952 L 60.7155 23.7619 L 60.7155 29.7619 L 62.0488 31.0952 L 63.3822 29.7619"
           id="path1955" />
      </g>
    </g>
  </g>
</svg>
