<?xml version="1.0" encoding="utf-8" ?>
<svg xmlns="http://www.w3.org/2000/svg" xmlns:cc="http://creativecommons.org/ns#" xmlns:dc="http://purl.org/dc/elements/1.1/" xmlns:ev="http://www.w3.org/2001/xml-events" xmlns:inkscape="http://www.inkscape.org/namespaces/inkscape" xmlns:rdf="http://www.w3.org/1999/02/22-rdf-syntax-ns#" xmlns:sodipodi="http://sodipodi.sourceforge.net/DTD/sodipodi-0.dtd" xmlns:xlink="http://www.w3.org/1999/xlink" baseProfile="tiny" height="24.0cm" version="1.2" viewBox="0 0 1209.4488188976377 907.0866141732283" width="32.0cm">
  <metadata>
    <rdf:RDF>
      <cc:Work>
        <dc:format>image/svg+xml</dc:format>
        <dc:source>vpype read map/champieu_small.svg translate -- 10.7000cm 17.0893cm pagesize -l 24cmx32cm write map/champieu_small.svg
</dc:source>
        <dc:date>2021-06-21T12:59:31.447875</dc:date>
      </cc:Work>
    </rdf:RDF>
  </metadata>
  <defs/>
  <g fill="none" id="layer1" inkscape:groupmode="layer" inkscape:label="1" stroke="#00f" style="display:inline">
    <polyline points="568.3675,646.3288 567.4995,646.7627 566.6316,647.6307 566.1976,648.4986 565.7637,649.8005 565.7637,651.5364 566.1976,652.8383 566.6316,653.7063 567.9335,654.5742 569.2354,655.0082 570.5373,655.0082 571.8392,654.5742 572.7072,654.1403 573.5751,653.2723 574.0091,652.4043"/>
    <polyline points="566.6316,648.0646 566.1976,649.3666 566.1976,651.5364 567.0656,653.2723 568.3675,654.1403 569.6694,654.5742 570.9713,654.5742 572.2732,654.1403"/>
    <polyline points="568.3675,646.3288 567.4995,647.1967 567.0656,648.0646 566.6316,649.3666 566.6316,651.1024 567.0656,652.4043 568.3675,653.7063 569.6694,654.1403 570.9713,654.1403 572.2732,653.7063 573.1411,653.2723 574.0091,652.4043"/>
    <line x1="569.2354" x2="569.2354" y1="647.6307" y2="652.8383"/>
    <line x1="569.6694" x2="569.6694" y1="647.6307" y2="651.9704"/>
    <polyline points="570.1033,647.1967 570.1033,651.5364 569.6694,652.4043 569.2354,652.8383"/>
    <polyline points="569.2354,647.6307 570.1033,647.1967 571.4053,645.8948 572.2732,646.3288 573.1411,646.3288 573.5751,645.8948"/>
    <polyline points="570.9713,646.3288 571.8392,646.7627 572.7072,646.7627"/>
    <polyline points="570.5373,646.7627 571.4053,647.1967 572.2732,647.1967 573.1411,646.7627 573.5751,645.8948"/>
    <line x1="572.2732" x2="572.2732" y1="647.1967" y2="653.7063"/>
    <polyline points="575.1374,646.7627 575.5714,647.6307 575.5714,653.7063 574.7034,654.1403 575.1374,654.1403 576.0053,654.5742 576.4393,655.0082"/>
    <polyline points="576.0053,647.6307 575.5714,646.7627 576.0053,646.3288 576.0053,654.1403 576.8733,654.5742"/>
    <polyline points="575.1374,646.7627 576.4393,645.8948 576.4393,653.7063 577.3073,654.1403 576.4393,655.0082"/>
    <polyline points="576.4393,650.2345 577.7412,649.8005 578.6092,649.3666 579.0432,648.9326 579.4771,649.3666 580.3451,649.8005 580.7791,649.8005 579.9111,650.2345 579.9111,654.1403 579.0432,655.0082 578.6092,655.8762"/>
    <polyline points="578.6092,649.3666 579.4771,649.8005 579.4771,654.1403 579.0432,655.0082"/>
    <polyline points="577.7412,649.8005 578.1752,649.8005 579.0432,650.2345 579.0432,654.1403 578.6092,655.8762 578.6092,657.1781 579.0432,658.046"/>
    <line x1="579.4771" x2="578.6092" y1="658.046" y2="657.1781"/>
    <polyline points="583.4697,651.1024 582.6017,651.9704 582.1677,652.8383 582.1677,653.7063 582.6017,654.5742 583.4697,655.0082 584.3376,654.1403 585.6395,653.7063"/>
    <polyline points="582.1677,652.8383 582.6017,653.7063 583.0357,654.1403 583.9036,654.5742"/>
    <polyline points="582.6017,651.9704 582.6017,652.8383 583.0357,653.7063 583.9036,654.1403 584.3376,654.1403"/>
    <polyline points="582.6017,650.2345 583.4697,650.2345 584.7716,649.8005 585.6395,649.3666 586.0735,648.9326 586.9414,649.8005 586.5074,650.2345 586.5074,653.7063 586.9414,654.1403 587.3754,654.1403"/>
    <polyline points="583.0357,649.3666 582.6017,649.8005 583.9036,649.8005"/>
    <polyline points="585.2055,649.8005 586.5074,649.8005 586.0735,649.3666 586.0735,654.1403 586.5074,654.5742"/>
    <polyline points="582.1677,649.8005 583.0357,648.9326 583.4697,649.3666 584.3376,649.8005 585.6395,650.2345 585.6395,654.1403 586.5074,655.0082 587.3754,654.1403"/>
    <line x1="582.1677" x2="584.3376" y1="649.8005" y2="651.9704"/>
    <polyline points="588.3735,649.8005 588.8075,649.8005 589.2414,650.2345 589.2414,653.7063 588.3735,654.1403 588.8075,654.1403 589.6754,654.5742 590.1094,655.0082"/>
    <polyline points="589.2414,649.3666 589.6754,649.8005 589.6754,654.1403 590.5433,654.5742"/>
    <polyline points="588.3735,649.8005 589.2414,648.9326 590.1094,649.8005 590.1094,653.7063 590.9773,654.1403 590.1094,655.0082"/>
    <polyline points="590.1094,650.2345 591.4113,649.8005 592.2793,649.3666 592.7133,648.9326 593.5812,649.8005 593.5812,653.7063 594.4492,654.1403 593.5812,655.0082"/>
    <polyline points="592.2793,649.3666 593.1472,649.8005 593.1472,654.1403 594.0152,654.5742"/>
    <polyline points="591.4113,649.8005 591.8453,649.8005 592.7133,650.2345 592.7133,653.7063 592.2793,654.1403 593.1472,654.5742 593.5812,655.0082"/>
    <polyline points="593.5812,650.2345 594.8831,649.8005 595.7511,649.3666 596.1851,648.9326 596.619,649.3666 597.487,649.8005 597.921,649.8005 597.053,650.2345 597.053,653.7063 597.487,654.1403 597.921,654.1403"/>
    <polyline points="595.7511,649.3666 596.619,649.8005 596.619,654.1403 597.053,654.5742"/>
    <polyline points="594.8831,649.8005 595.3171,649.8005 596.1851,650.2345 596.1851,654.1403 597.053,655.0082 597.921,654.1403"/>
    <polyline points="598.9625,648.9326 599.3964,649.8005 599.3964,653.7063 598.5285,654.1403 599.3964,654.1403 599.3964,658.046"/>
    <polyline points="599.3964,649.3666 599.8304,649.8005 599.8304,657.612 600.2644,657.1781 599.8304,656.3101"/>
    <polyline points="599.8304,654.1403 600.2644,654.1403 601.1323,654.5742"/>
    <polyline points="598.9625,648.9326 599.8304,649.3666 600.2644,649.8005 600.2644,653.7063 601.1323,654.1403 601.5663,654.5742"/>
    <polyline points="600.2644,654.5742 600.6983,655.0082 601.5663,654.5742 602.8682,654.1403 603.7361,654.1403"/>
    <polyline points="600.2644,654.5742 600.2644,656.3101 600.6983,657.1781 599.3964,658.046"/>
    <polyline points="600.2644,650.2345 601.5663,649.8005 602.4342,649.3666 602.8682,648.9326 603.3021,649.3666 604.1701,649.8005 604.6041,649.8005 603.7361,650.2345 603.7361,654.1403"/>
    <polyline points="602.4342,649.3666 603.3021,649.8005 603.3021,653.7063"/>
    <polyline points="601.5663,649.8005 602.0002,649.8005 602.8682,650.2345 602.8682,654.1403"/>
    <polygon points="606.8607,645.8948 605.9928,646.7627 606.8607,647.1967 607.7286,646.7627"/>
    <polygon points="606.8607,646.3288 606.4267,646.7627 607.2947,646.7627"/>
    <polyline points="606.8607,648.9326 606.4267,649.3666 605.5588,649.8005 606.4267,650.2345 606.4267,654.1403 607.2947,655.0082 608.1626,654.1403"/>
    <polyline points="606.8607,650.2345 607.2947,649.8005 606.8607,649.3666 606.4267,649.8005 606.8607,650.2345 606.8607,654.1403 607.2947,654.5742"/>
    <polyline points="606.8607,648.9326 607.2947,649.3666 608.1626,649.8005 607.2947,650.2345 607.2947,653.7063 607.7286,654.1403 608.1626,654.1403"/>
    <polyline points="610.3325,649.8005 610.3325,653.7063 609.4645,654.1403 609.8985,654.1403 610.7664,654.5742 611.2004,655.0082"/>
    <polyline points="610.7664,649.8005 610.7664,654.1403 611.6344,654.5742"/>
    <polyline points="611.2004,649.8005 611.2004,653.7063 612.0684,654.1403 612.5023,654.1403 611.6344,654.5742 611.2004,655.0082"/>
    <polyline points="610.3325,649.8005 612.0684,649.3666 612.9363,648.9326 614.2382,650.6685 613.3703,651.1024 611.2004,652.4043"/>
    <line x1="612.5023" x2="613.8043" y1="649.3666" y2="650.6685"/>
    <polyline points="611.2004,649.8005 612.0684,649.3666 613.3703,651.1024"/>
    <polyline points="614.9326,649.8005 615.3665,649.8005 615.8005,650.2345 615.8005,653.7063 614.9326,654.1403"/>
    <polyline points="615.3665,649.3666 616.2345,649.8005 616.2345,654.1403 617.1024,654.5742"/>
    <polyline points="614.9326,649.8005 615.8005,648.9326 616.6685,649.8005 616.6685,653.7063 617.5364,654.1403 617.9704,654.1403"/>
    <polyline points="614.9326,654.1403 615.3665,654.1403 616.2345,654.5742 616.6685,655.0082 617.1024,654.5742 617.9704,654.1403 619.2723,653.7063"/>
    <polyline points="619.2723,648.9326 619.7062,649.3666 620.5742,649.8005 621.0082,649.8005 620.1402,650.2345 620.1402,653.7063 620.5742,654.1403 621.0082,654.1403"/>
    <polyline points="618.8383,649.3666 619.7062,649.8005 619.7062,654.1403 620.1402,654.5742"/>
    <polyline points="619.2723,648.9326 618.4043,649.8005 619.2723,650.2345 619.2723,654.1403 620.1402,655.0082 621.0082,654.1403"/>
  </g>
</svg>
