<?xml version="1.0" encoding="UTF-8" standalone="no"?>
<svg
   xmlns:dc="http://purl.org/dc/elements/1.1/"
   xmlns:cc="http://creativecommons.org/ns#"
   xmlns:rdf="http://www.w3.org/1999/02/22-rdf-syntax-ns#"
   xmlns:svg="http://www.w3.org/2000/svg"
   xmlns="http://www.w3.org/2000/svg"
   width="210mm"
   height="297mm"
   viewBox="0 0 210 297"
   version="1.1"
   id="svg8">
  <defs
     id="defs2" />
  <metadata
     id="metadata5">
    <rdf:RDF>
      <cc:Work
         rdf:about="">
        <dc:format>image/svg+xml</dc:format>
        <dc:type
           rdf:resource="http://purl.org/dc/dcmitype/StillImage" />
        <dc:title></dc:title>
      </cc:Work>
    </rdf:RDF>
  </metadata>
  <g
     id="layer1">
    <g
       id="g1959">
      <g
         id="g1957" />
      <g
         id="g14919">
        <g
           id="g14917">
          <path
             style="fill:none;stroke:#000000;stroke-linecap:round;stroke-linejoin:round;stroke-width:0.4"
             d="M 17.3155 17.7619 L 15.9821 18.4285 L 14.6488 19.7619 L 13.9821 21.0952 L 13.3155 23.0952 L 13.3155 25.7619 L 13.9821 27.7619 L 14.6488 29.0952 L 16.6488 30.4286 L 18.6488 31.0952 L 20.6488 31.0952 L 22.6488 30.4286 L 23.9822 29.7619 L 25.3155 28.4286 L 25.9822 27.0952 M 14.6488 20.4285 L 13.9821 22.4286 L 13.9821 25.7619 L 15.3155 28.4286 L 17.3155 29.7619 L 19.3155 30.4286 L 21.3155 30.4286 L 23.3155 29.7619 M 17.3155 17.7619 L 15.9821 19.0952 L 15.3155 20.4285 L 14.6488 22.4286 L 14.6488 25.0952 L 15.3155 27.0952 L 17.3155 29.0952 L 19.3155 29.7619 L 21.3155 29.7619 L 23.3155 29.0952 L 24.6488 28.4286 L 25.9822 27.0952 M 18.6488 19.7619 L 18.6488 27.7619 M 19.3155 19.7619 L 19.3155 26.4286 M 19.9821 19.0952 L 19.9821 25.7619 L 19.3155 27.0952 L 18.6488 27.7619 M 18.6488 19.7619 L 19.9821 19.0952 L 21.9822 17.0952 L 23.3155 17.7619 L 24.6488 17.7619 L 25.3155 17.0952 M 21.3155 17.7619 L 22.6488 18.4285 L 23.9822 18.4285 M 20.6488 18.4285 L 21.9822 19.0952 L 23.3155 19.0952 L 24.6488 18.4285 L 25.3155 17.0952 M 23.3155 19.0952 L 23.3155 29.0952"
             id="path14901" />
          <path
             style="fill:none;stroke:#000000;stroke-linecap:round;stroke-linejoin:round;stroke-width:0.4"
             d="M 27.7155 18.4285 L 28.3821 19.7619 L 28.3821 29.0952 L 27.0488 29.7619 L 27.7155 29.7619 L 29.0488 30.4286 L 29.7155 31.0952 M 29.0488 19.7619 L 28.3821 18.4285 L 29.0488 17.7619 L 29.0488 29.7619 L 30.3821 30.4286 M 27.7155 18.4285 L 29.7155 17.0952 L 29.7155 29.0952 L 31.0488 29.7619 L 29.7155 31.0952 M 29.7155 23.7619 L 31.7155 23.0952 L 33.0488 22.4286 L 33.7155 21.7619 L 34.3821 22.4286 L 35.7155 23.0952 L 36.3822 23.0952 L 35.0488 23.7619 L 35.0488 29.7619 L 33.7155 31.0952 L 33.0488 32.4286 M 33.0488 22.4286 L 34.3821 23.0952 L 34.3821 29.7619 L 33.7155 31.0952 M 31.7155 23.0952 L 32.3821 23.0952 L 33.7155 23.7619 L 33.7155 29.7619 L 33.0488 32.4286 L 33.0488 34.4286 L 33.7155 35.7619 L 34.3821 35.7619 L 33.0488 34.4286"
             id="path14903" />
          <path
             style="fill:none;stroke:#000000;stroke-linecap:round;stroke-linejoin:round;stroke-width:0.4"
             d="M 40.5155 25.0952 L 39.1821 26.4286 L 38.5155 27.7619 L 38.5155 29.0952 L 39.1821 30.4286 L 40.5155 31.0952 L 41.8488 29.7619 L 43.8488 29.0952 M 38.5155 27.7619 L 39.1821 29.0952 L 39.8488 29.7619 L 41.1821 30.4286 M 39.1821 26.4286 L 39.1821 27.7619 L 39.8488 29.0952 L 41.1821 29.7619 L 41.8488 29.7619 M 39.1821 23.7619 L 40.5155 23.7619 L 42.5155 23.0952 L 43.8488 22.4286 L 44.5155 21.7619 L 45.8488 23.0952 L 45.1821 23.7619 L 45.1821 29.0952 L 45.8488 29.7619 L 46.5155 29.7619 M 39.8488 22.4286 L 39.1821 23.0952 L 41.1821 23.0952 M 43.1821 23.0952 L 45.1821 23.0952 L 44.5155 22.4286 L 44.5155 29.7619 L 45.1821 30.4286 M 38.5155 23.0952 L 39.8488 21.7619 L 40.5155 22.4286 L 41.8488 23.0952 L 43.8488 23.7619 L 43.8488 29.7619 L 45.1821 31.0952 L 46.5155 29.7619 M 38.5155 23.0952 L 41.8488 26.4286"
             id="path14905" />
          <path
             style="fill:none;stroke:#000000;stroke-linecap:round;stroke-linejoin:round;stroke-width:0.4"
             d="M 48.0488 23.0952 L 48.7155 23.0952 L 49.3821 23.7619 L 49.3821 29.0952 L 48.0488 29.7619 L 48.7155 29.7619 L 50.0488 30.4286 L 50.7155 31.0952 M 49.3821 22.4286 L 50.0488 23.0952 L 50.0488 29.7619 L 51.3821 30.4286 M 48.0488 23.0952 L 49.3821 21.7619 L 50.7155 23.0952 L 50.7155 29.0952 L 52.0488 29.7619 L 50.7155 31.0952 M 50.7155 23.7619 L 52.7155 23.0952 L 54.0488 22.4286 L 54.7155 21.7619 L 56.0488 23.0952 L 56.0488 29.0952 L 57.3822 29.7619 L 56.0488 31.0952 M 54.0488 22.4286 L 55.3821 23.0952 L 55.3821 29.7619 L 56.7155 30.4286 M 52.7155 23.0952 L 53.3821 23.0952 L 54.7155 23.7619 L 54.7155 29.0952 L 54.0488 29.7619 L 55.3821 30.4286 L 56.0488 31.0952 M 56.0488 23.7619 L 58.0488 23.0952 L 59.3822 22.4286 L 60.0488 21.7619 L 60.7155 22.4286 L 62.0488 23.0952 L 62.7155 23.0952 L 61.3822 23.7619 L 61.3822 29.0952 L 62.0488 29.7619 L 62.7155 29.7619 M 59.3822 22.4286 L 60.7155 23.0952 L 60.7155 29.7619 L 61.3822 30.4286 M 58.0488 23.0952 L 58.7155 23.0952 L 60.0488 23.7619 L 60.0488 29.7619 L 61.3822 31.0952 L 62.7155 29.7619"
             id="path14907" />
          <path
             style="fill:none;stroke:#000000;stroke-linecap:round;stroke-linejoin:round;stroke-width:0.4"
             d="M 64.3155 21.7619 L 64.9821 23.0952 L 64.9821 29.0952 L 63.6488 29.7619 L 64.9821 29.7619 L 64.9821 35.7619 M 64.9821 22.4286 L 65.6488 23.0952 L 65.6488 35.0952 L 66.3155 34.4286 L 65.6488 33.0952 M 65.6488 29.7619 L 66.3155 29.7619 L 67.6488 30.4286 M 64.3155 21.7619 L 65.6488 22.4286 L 66.3155 23.0952 L 66.3155 29.0952 L 67.6488 29.7619 L 68.3155 30.4286 M 66.3155 30.4286 L 66.9821 31.0952 L 68.3155 30.4286 L 70.3155 29.7619 L 71.6488 29.7619 M 66.3155 30.4286 L 66.3155 33.0952 L 66.9821 34.4286 L 64.9821 35.7619 M 66.3155 23.7619 L 68.3155 23.0952 L 69.6488 22.4286 L 70.3155 21.7619 L 70.9821 22.4286 L 72.3155 23.0952 L 72.9822 23.0952 L 71.6488 23.7619 L 71.6488 29.7619 M 69.6488 22.4286 L 70.9821 23.0952 L 70.9821 29.0952 M 68.3155 23.0952 L 68.9821 23.0952 L 70.3155 23.7619 L 70.3155 29.7619"
             id="path14909" />
          <path
             style="fill:none;stroke:#000000;stroke-linecap:round;stroke-linejoin:round;stroke-width:0.4"
             d="M 76.4488 17.0952 L 75.1155 18.4285 L 76.4488 19.0952 L 77.7821 18.4285 Z M 76.4488 17.7619 L 75.7821 18.4285 L 77.1155 18.4285 Z M 76.4488 21.7619 L 75.7821 22.4286 L 74.4488 23.0952 L 75.7821 23.7619 L 75.7821 29.7619 L 77.1155 31.0952 L 78.4488 29.7619 M 76.4488 23.7619 L 77.1155 23.0952 L 76.4488 22.4286 L 75.7821 23.0952 L 76.4488 23.7619 L 76.4488 29.7619 L 77.1155 30.4286 M 76.4488 21.7619 L 77.1155 22.4286 L 78.4488 23.0952 L 77.1155 23.7619 L 77.1155 29.0952 L 77.7821 29.7619 L 78.4488 29.7619"
             id="path14911" />
          <path
             style="fill:none;stroke:#000000;stroke-linecap:round;stroke-linejoin:round;stroke-width:0.4"
             d="M 81.7821 23.0952 L 81.7821 29.0952 L 80.4488 29.7619 L 81.1155 29.7619 L 82.4488 30.4286 L 83.1155 31.0952 M 82.4488 23.0952 L 82.4488 29.7619 L 83.7821 30.4286 M 83.1155 23.0952 L 83.1155 29.0952 L 84.4488 29.7619 L 85.1155 29.7619 L 83.7821 30.4286 L 83.1155 31.0952 M 81.7821 23.0952 L 84.4488 22.4286 L 85.7821 21.7619 L 87.7821 24.4286 L 86.4488 25.0952 L 83.1155 27.0952 M 85.1155 22.4286 L 87.1155 24.4286 M 83.1155 23.0952 L 84.4488 22.4286 L 86.4488 25.0952"
             id="path14913" />
          <path
             style="fill:none;stroke:#000000;stroke-linecap:round;stroke-linejoin:round;stroke-width:0.4"
             d="M 88.8488 23.0952 L 89.5155 23.0952 L 90.1821 23.7619 L 90.1821 29.0952 L 88.8488 29.7619 M 89.5155 22.4286 L 90.8488 23.0952 L 90.8488 29.7619 L 92.1821 30.4286 M 88.8488 23.0952 L 90.1821 21.7619 L 91.5155 23.0952 L 91.5155 29.0952 L 92.8488 29.7619 L 93.5155 29.7619 M 88.8488 29.7619 L 89.5155 29.7619 L 90.8488 30.4286 L 91.5155 31.0952 L 92.1821 30.4286 L 93.5155 29.7619 L 95.5155 29.0952 M 95.5155 21.7619 L 96.1821 22.4286 L 97.5155 23.0952 L 98.1822 23.0952 L 96.8488 23.7619 L 96.8488 29.0952 L 97.5155 29.7619 L 98.1822 29.7619 M 94.8488 22.4286 L 96.1821 23.0952 L 96.1821 29.7619 L 96.8488 30.4286 M 95.5155 21.7619 L 94.1821 23.0952 L 95.5155 23.7619 L 95.5155 29.7619 L 96.8488 31.0952 L 98.1822 29.7619"
             id="path14915" />
        </g>
      </g>
    </g>
  </g>
</svg>
