<?xml version="1.0" encoding="utf-8" ?>
<svg xmlns="http://www.w3.org/2000/svg" xmlns:cc="http://creativecommons.org/ns#" xmlns:dc="http://purl.org/dc/elements/1.1/" xmlns:ev="http://www.w3.org/2001/xml-events" xmlns:inkscape="http://www.inkscape.org/namespaces/inkscape" xmlns:rdf="http://www.w3.org/1999/02/22-rdf-syntax-ns#" xmlns:sodipodi="http://sodipodi.sourceforge.net/DTD/sodipodi-0.dtd" xmlns:xlink="http://www.w3.org/1999/xlink" baseProfile="tiny" height="24.0cm" version="1.2" viewBox="0 0 1209.4488188976377 907.0866141732283" width="32.0cm">
  <metadata>
    <rdf:RDF>
      <cc:Work>
        <dc:format>image/svg+xml</dc:format>
        <dc:source>vpype read map/elhyrst_small.svg translate -- 19.8000cm 8.9893cm pagesize -l 24cmx32cm write map/elhyrst_small.svg
</dc:source>
        <dc:date>2021-06-21T12:59:01.250074</dc:date>
      </cc:Work>
    </rdf:RDF>
  </metadata>
  <defs/>
  <g fill="none" id="layer1" inkscape:groupmode="layer" inkscape:label="1" stroke="#00f" style="display:inline">
    <polyline points="916.6659,340.621 917.5338,339.7531 918.4018,339.7531 919.2697,340.1871 920.1377,339.7531"/>
    <line x1="917.9678" x2="918.8358" y1="340.1871" y2="340.1871"/>
    <polyline points="916.6659,340.621 917.5338,340.1871 918.4018,340.621 919.2697,340.621 920.1377,339.7531"/>
    <polyline points="918.8358,341.9229 918.4018,342.3569 917.9678,343.2249 917.9678,343.6588 917.0999,343.6588 916.6659,344.0928 916.6659,344.9607 917.0999,344.5268 917.9678,344.5268 917.9678,347.1306"/>
    <line x1="918.4018" x2="918.4018" y1="342.7909" y2="346.2626"/>
    <line x1="917.0999" x2="918.4018" y1="344.0928" y2="344.0928"/>
    <polyline points="918.8358,341.9229 918.8358,345.8287 918.4018,346.6966 917.9678,347.1306"/>
    <polyline points="920.1377,342.7909 920.5717,341.489 921.0056,340.621 921.4397,340.1871 922.3076,339.7531 923.1755,339.7531 924.4774,340.1871"/>
    <polyline points="921.4397,340.621 922.3076,340.1871 923.1755,340.1871 924.0435,340.621"/>
    <polyline points="920.5717,341.489 921.0056,341.055 921.8737,340.621 922.7416,340.621 923.6095,341.055 924.4774,340.1871"/>
    <polyline points="920.1377,346.2626 920.5717,344.9607 921.0056,344.0928 921.4397,343.6588 922.3076,343.6588 923.1755,344.0928"/>
    <polyline points="921.4397,344.0928 922.3076,344.0928 922.7416,344.5268"/>
    <polyline points="920.5717,344.9607 921.0056,344.5268 921.8737,344.5268 922.3076,344.9607 923.1755,344.0928"/>
    <polyline points="917.5338,348.8665 918.8358,347.9986 920.5717,347.5646 922.7416,347.5646 924.4774,347.9986"/>
    <polyline points="918.4018,348.4325 919.7037,347.9986 922.7416,347.9986 924.0435,348.4325"/>
    <polyline points="917.5338,348.8665 919.2697,348.4325 922.3076,348.4325 923.6095,348.8665 924.4774,347.9986"/>
    <line x1="920.1377" x2="920.1377" y1="342.7909" y2="347.5646"/>
    <polyline points="925.6926,340.621 926.1266,341.489 926.1266,347.5646 925.2586,347.9986 925.6926,347.9986 926.5605,348.4325 926.9945,348.8665"/>
    <polyline points="926.5605,341.489 926.1266,340.621 926.5605,340.1871 926.5605,347.9986 927.4285,348.4325"/>
    <polyline points="925.6926,340.621 926.9945,339.7531 926.9945,347.5646 927.8625,347.9986 928.2964,347.9986 927.4285,348.4325 926.9945,348.8665"/>
    <polyline points="929.5983,340.621 930.0323,341.489 930.0323,347.5646 929.1644,347.9986 929.5983,347.9986 930.4663,348.4325 930.9002,348.8665"/>
    <polyline points="930.4663,341.489 930.0323,340.621 930.4663,340.1871 930.4663,347.9986 931.3342,348.4325"/>
    <polyline points="929.5983,340.621 930.9002,339.7531 930.9002,347.5646 931.7682,347.9986 930.9002,348.8665"/>
    <polyline points="930.9002,344.0928 932.2021,343.6588 933.0701,343.2249 933.504,342.7909 933.938,343.2249 934.8059,343.6588 935.2399,343.6588 934.372,344.0928 934.372,347.9986 933.504,348.8665 933.0701,349.7345"/>
    <polyline points="933.0701,343.2249 933.938,343.6588 933.938,347.9986 933.504,348.8665"/>
    <polyline points="932.2021,343.6588 932.6361,343.6588 933.504,344.0928 933.504,347.9986 933.0701,349.7345 933.0701,351.0364 933.5039,351.9043"/>
    <line x1="933.9379" x2="933.0701" y1="351.9043" y2="351.0364"/>
    <polyline points="936.1947,343.6588 936.6286,343.6588 937.0626,344.0928 937.0626,347.5646 936.1947,347.9986"/>
    <polyline points="936.6286,343.2249 937.4966,343.6588 937.4966,347.9986 938.3645,348.4325"/>
    <polyline points="936.1947,343.6588 937.0626,342.7909 937.9305,343.6588 937.9305,347.5646 938.7985,347.9986 939.2324,347.9986"/>
    <polyline points="936.1947,347.9986 936.6286,347.9986 937.4966,348.4325 937.9305,348.8665 938.3645,348.4325 939.2324,347.9986 940.5343,347.5646"/>
    <polyline points="940.5343,342.7909 940.9683,343.2249 941.8362,343.6588 942.2702,343.6588 941.4023,344.0928 941.4023,349.3005 940.9683,350.6024 940.1004,351.4703 939.2324,351.9043"/>
    <polyline points="939.2323,351.9043 938.7985,351.4703 937.9305,351.0364 937.0626,351.0364"/>
    <polyline points="940.1004,343.2249 940.9683,343.6588 940.9683,349.3005"/>
    <polyline points="939.6664,351.4703 938.7985,351.0364 938.3645,351.0364"/>
    <polyline points="940.5343,342.7909 939.6664,343.6588 940.5343,344.0928 940.5343,348.4325 940.9683,349.7345 940.9683,350.6024"/>
    <polyline points="940.1004,351.4703 939.6664,351.0364 938.7985,350.6024 937.9305,350.6024 937.0626,351.0364"/>
    <polyline points="943.225,343.6588 943.6589,343.6588 944.0929,344.0928 944.0929,347.5646 943.225,347.9986 943.6589,347.9986 944.5269,348.4325 944.9608,348.8665"/>
    <polyline points="943.6589,343.2249 944.5269,343.6588 944.5269,347.9986 945.3948,348.4325"/>
    <polyline points="943.225,343.6588 944.0929,342.7909 944.9608,343.6588 944.9608,347.5646 945.8288,347.9986 946.2627,347.9986 945.3948,348.4325 944.9608,348.8665"/>
    <polyline points="944.9608,343.6588 946.6967,342.7909 947.1307,343.2249 947.9986,343.6588 948.4326,343.6588"/>
    <polyline points="946.2627,343.2249 946.6967,343.6588 947.5646,343.6588"/>
    <polyline points="945.8288,343.2249 946.6967,344.0928 947.5646,344.0928 948.4326,343.6588"/>
    <polyline points="949.1269,343.6588 949.1269,345.3947 949.9949,345.8287 952.5987,345.8287 953.4667,346.2626 953.4667,347.9986"/>
    <line x1="949.5609" x2="949.5609" y1="343.6588" y2="345.3947"/>
    <line x1="953.0327" x2="953.0327" y1="346.2626" y2="347.9986"/>
    <polyline points="950.4288,343.2249 949.9949,343.6588 949.9949,345.3947 950.8628,345.8287"/>
    <polyline points="951.7308,345.8287 952.5987,346.2626 952.5987,347.9986 952.1648,348.4325"/>
    <polyline points="949.1269,343.6588 950.4288,343.2249 951.2968,342.7909 952.1648,343.2249 953.0327,343.2249 953.4667,342.7909"/>
    <line x1="950.8628" x2="951.7308" y1="343.2249" y2="343.2249"/>
    <polyline points="950.4288,343.2249 951.2968,343.6588 952.1648,343.6588 953.0327,343.2249"/>
    <polyline points="953.4667,347.9986 952.1648,348.4325 951.2968,348.8665 950.4288,348.4325 949.5609,348.4325 948.693,348.8665"/>
    <line x1="951.7308" x2="950.8628" y1="348.4325" y2="348.4325"/>
    <polyline points="952.1648,348.4325 951.2968,347.9986 949.9949,347.9986 948.693,348.8665"/>
    <polyline points="953.4667,342.7909 953.0327,343.6588 952.1648,344.9607 949.9949,347.1306 948.693,348.8665"/>
    <polyline points="955.3761,340.621 955.8101,341.489 955.8101,347.5646 954.9422,347.9986 955.3761,347.9986 956.2441,348.4325 956.678,348.8665"/>
    <polyline points="956.2441,341.489 955.8101,340.621 956.2441,340.1871 956.2441,347.9986 957.112,348.4325"/>
    <polyline points="955.3761,340.621 956.678,339.7531 956.678,347.5646 957.546,347.9986 957.9799,347.9986 957.112,348.4325 956.678,348.8665"/>
    <line x1="954.5082" x2="955.8101" y1="342.7909" y2="342.7909"/>
    <line x1="956.678" x2="957.9799" y1="342.7909" y2="342.7909"/>
  </g>
</svg>
