<?xml version="1.0" encoding="UTF-8" standalone="no"?>
<svg
   xmlns:dc="http://purl.org/dc/elements/1.1/"
   xmlns:cc="http://creativecommons.org/ns#"
   xmlns:rdf="http://www.w3.org/1999/02/22-rdf-syntax-ns#"
   xmlns:svg="http://www.w3.org/2000/svg"
   xmlns="http://www.w3.org/2000/svg"
   width="210mm"
   height="297mm"
   viewBox="0 0 210 297"
   version="1.1"
   id="svg8">
  <defs
     id="defs2" />
  <metadata
     id="metadata5">
    <rdf:RDF>
      <cc:Work
         rdf:about="">
        <dc:format>image/svg+xml</dc:format>
        <dc:type
           rdf:resource="http://purl.org/dc/dcmitype/StillImage" />
        <dc:title></dc:title>
      </cc:Work>
    </rdf:RDF>
  </metadata>
  <g
     id="layer1">
    <g
       id="g1959">
      <g
         id="g1957" />
      <g
         id="g14087">
        <g
           id="g14085">
          <path
             style="fill:none;stroke:#000000;stroke-linecap:round;stroke-linejoin:round;stroke-width:0.4"
             d="M 13.3155 18.4285 L 14.6488 17.0952 L 15.9821 17.0952 L 17.3155 17.7619 L 18.6488 17.0952 M 15.3155 17.7619 L 16.6488 17.7619 M 13.3155 18.4285 L 14.6488 17.7619 L 15.9821 18.4285 L 17.3155 18.4285 L 18.6488 17.0952 M 16.6488 20.4285 L 15.9821 21.0952 L 15.3155 22.4286 L 15.3155 23.0952 L 13.9821 23.0952 L 13.3155 23.7619 L 13.3155 25.0952 L 13.9821 24.4286 L 15.3155 24.4286 L 15.3155 28.4286 M 15.9821 21.7619 L 15.9821 27.0952 M 13.9821 23.7619 L 15.9821 23.7619 M 16.6488 20.4285 L 16.6488 26.4286 L 15.9821 27.7619 L 15.3155 28.4286 M 18.6488 21.7619 L 19.3155 19.7619 L 19.9821 18.4285 L 20.6488 17.7619 L 21.9821 17.0952 L 23.3154 17.0952 L 25.3154 17.7619 M 20.6488 18.4285 L 21.9821 17.7619 L 23.3154 17.7619 L 24.6488 18.4285 M 19.3155 19.7619 L 19.9821 19.0952 L 21.3155 18.4285 L 22.6488 18.4285 L 23.9821 19.0952 L 25.3154 17.7619 M 18.6488 27.0952 L 19.3155 25.0952 L 19.9821 23.7619 L 20.6488 23.0952 L 21.9821 23.0952 L 23.3154 23.7619 M 20.6488 23.7619 L 21.9821 23.7619 L 22.6488 24.4286 M 19.3155 25.0952 L 19.9821 24.4286 L 21.3155 24.4286 L 21.9821 25.0952 L 23.3154 23.7619 M 14.6488 31.0952 L 16.6488 29.7619 L 19.3155 29.0952 L 22.6488 29.0952 L 25.3154 29.7619 M 15.9821 30.4286 L 17.9821 29.7619 L 22.6488 29.7619 L 24.6488 30.4286 M 14.6488 31.0952 L 17.3155 30.4286 L 21.9821 30.4286 L 23.9821 31.0952 L 25.3154 29.7619 M 18.6488 21.7619 L 18.6488 29.0952"
             id="path14071" />
          <path
             style="fill:none;stroke:#000000;stroke-linecap:round;stroke-linejoin:round;stroke-width:0.4"
             d="M 27.1821 18.4285 L 27.8488 19.7619 L 27.8488 29.0952 L 26.5155 29.7619 L 27.1821 29.7619 L 28.5155 30.4286 L 29.1821 31.0952 M 28.5155 19.7619 L 27.8488 18.4285 L 28.5155 17.7619 L 28.5155 29.7619 L 29.8488 30.4286 M 27.1821 18.4285 L 29.1821 17.0952 L 29.1821 29.0952 L 30.5155 29.7619 L 31.1821 29.7619 L 29.8488 30.4286 L 29.1821 31.0952"
             id="path14073" />
          <path
             style="fill:none;stroke:#000000;stroke-linecap:round;stroke-linejoin:round;stroke-width:0.4"
             d="M 33.1821 18.4285 L 33.8488 19.7619 L 33.8488 29.0952 L 32.5155 29.7619 L 33.1821 29.7619 L 34.5155 30.4286 L 35.1821 31.0952 M 34.5155 19.7619 L 33.8488 18.4285 L 34.5155 17.7619 L 34.5155 29.7619 L 35.8488 30.4286 M 33.1821 18.4285 L 35.1821 17.0952 L 35.1821 29.0952 L 36.5155 29.7619 L 35.1821 31.0952 M 35.1821 23.7619 L 37.1821 23.0952 L 38.5155 22.4286 L 39.1821 21.7619 L 39.8488 22.4286 L 41.1821 23.0952 L 41.8488 23.0952 L 40.5155 23.7619 L 40.5155 29.7619 L 39.1821 31.0952 L 38.5155 32.4286 M 38.5155 22.4286 L 39.8488 23.0952 L 39.8488 29.7619 L 39.1821 31.0952 M 37.1821 23.0952 L 37.8488 23.0952 L 39.1821 23.7619 L 39.1821 29.7619 L 38.5155 32.4286 L 38.5155 34.4286 L 39.1821 35.7619 L 39.8488 35.7619 L 38.5155 34.4286"
             id="path14075" />
          <path
             style="fill:none;stroke:#000000;stroke-linecap:round;stroke-linejoin:round;stroke-width:0.4"
             d="M 43.3155 23.0952 L 43.9821 23.0952 L 44.6488 23.7619 L 44.6488 29.0952 L 43.3155 29.7619 M 43.9821 22.4286 L 45.3155 23.0952 L 45.3155 29.7619 L 46.6488 30.4286 M 43.3155 23.0952 L 44.6488 21.7619 L 45.9821 23.0952 L 45.9821 29.0952 L 47.3155 29.7619 L 47.9821 29.7619 M 43.3155 29.7619 L 43.9821 29.7619 L 45.3155 30.4286 L 45.9821 31.0952 L 46.6488 30.4286 L 47.9821 29.7619 L 49.9821 29.0952 M 49.9821 21.7619 L 50.6488 22.4286 L 51.9821 23.0952 L 52.6488 23.0952 L 51.3155 23.7619 L 51.3155 31.7619 L 50.6488 33.7619 L 49.3155 35.0952 L 47.9821 35.7619 L 47.3155 35.0952 L 45.9821 34.4286 L 44.6488 34.4286 M 49.3155 22.4286 L 50.6488 23.0952 L 50.6488 31.7619 M 48.6488 35.0952 L 47.3155 34.4286 L 46.6488 34.4286 M 49.9821 21.7619 L 48.6488 23.0952 L 49.9821 23.7619 L 49.9821 30.4286 L 50.6488 32.4286 L 50.6488 33.7619 M 49.3155 35.0952 L 48.6488 34.4286 L 47.3155 33.7619 L 45.9821 33.7619 L 44.6488 34.4286"
             id="path14077" />
          <path
             style="fill:none;stroke:#000000;stroke-linecap:round;stroke-linejoin:round;stroke-width:0.4"
             d="M 54.1155 23.0952 L 54.7821 23.0952 L 55.4488 23.7619 L 55.4488 29.0952 L 54.1155 29.7619 L 54.7821 29.7619 L 56.1155 30.4286 L 56.7821 31.0952 M 54.7821 22.4286 L 56.1155 23.0952 L 56.1155 29.7619 L 57.4488 30.4286 M 54.1155 23.0952 L 55.4488 21.7619 L 56.7821 23.0952 L 56.7821 29.0952 L 58.1155 29.7619 L 58.7821 29.7619 L 57.4488 30.4286 L 56.7821 31.0952 M 56.7821 23.0952 L 59.4488 21.7619 L 60.1155 22.4286 L 61.4488 23.0952 L 62.1155 23.0952 M 58.7821 22.4286 L 59.4488 23.0952 L 60.7821 23.0952 M 58.1155 22.4286 L 59.4488 23.7619 L 60.7821 23.7619 L 62.1155 23.0952"
             id="path14079" />
          <path
             style="fill:none;stroke:#000000;stroke-linecap:round;stroke-linejoin:round;stroke-width:0.4"
             d="M 63.1821 23.0952 L 63.1821 25.7619 L 64.5155 26.4286 L 68.5155 26.4286 L 69.8488 27.0952 L 69.8488 29.7619 M 63.8488 23.0952 L 63.8488 25.7619 M 69.1821 27.0952 L 69.1821 29.7619 M 65.1821 22.4286 L 64.5155 23.0952 L 64.5155 25.7619 L 65.8488 26.4286 M 67.1821 26.4286 L 68.5155 27.0952 L 68.5155 29.7619 L 67.8488 30.4286 M 63.1821 23.0952 L 65.1821 22.4286 L 66.5155 21.7619 L 67.8488 22.4286 L 69.1821 22.4286 L 69.8488 21.7619 M 65.8488 22.4286 L 67.1821 22.4286 M 65.1821 22.4286 L 66.5155 23.0952 L 67.8488 23.0952 L 69.1821 22.4286 M 69.8488 29.7619 L 67.8488 30.4286 L 66.5155 31.0952 L 65.1821 30.4286 L 63.8488 30.4286 L 62.5155 31.0952 M 67.1821 30.4286 L 65.8488 30.4286 M 67.8488 30.4286 L 66.5155 29.7619 L 64.5155 29.7619 L 62.5155 31.0952 M 69.8488 21.7619 L 69.1821 23.0952 L 67.8488 25.0952 L 64.5155 28.4286 L 62.5155 31.0952"
             id="path14081" />
          <path
             style="fill:none;stroke:#000000;stroke-linecap:round;stroke-linejoin:round;stroke-width:0.4"
             d="M 72.7821 18.4285 L 73.4488 19.7619 L 73.4488 29.0952 L 72.1155 29.7619 L 72.7821 29.7619 L 74.1155 30.4286 L 74.7821 31.0952 M 74.1155 19.7619 L 73.4488 18.4285 L 74.1155 17.7619 L 74.1155 29.7619 L 75.4488 30.4286 M 72.7821 18.4285 L 74.7821 17.0952 L 74.7821 29.0952 L 76.1155 29.7619 L 76.7821 29.7619 L 75.4488 30.4286 L 74.7821 31.0952 M 71.4488 21.7619 L 73.4488 21.7619 M 74.7821 21.7619 L 76.7821 21.7619"
             id="path14083" />
        </g>
      </g>
    </g>
  </g>
</svg>
