<?xml version="1.0" encoding="utf-8" ?>
<svg xmlns="http://www.w3.org/2000/svg" xmlns:cc="http://creativecommons.org/ns#" xmlns:dc="http://purl.org/dc/elements/1.1/" xmlns:ev="http://www.w3.org/2001/xml-events" xmlns:inkscape="http://www.inkscape.org/namespaces/inkscape" xmlns:rdf="http://www.w3.org/1999/02/22-rdf-syntax-ns#" xmlns:sodipodi="http://sodipodi.sourceforge.net/DTD/sodipodi-0.dtd" xmlns:xlink="http://www.w3.org/1999/xlink" baseProfile="tiny" height="0.5cm" version="1.2" viewBox="0 0 113.38582677165354 18.89763779527559" width="3.0cm">
  <metadata>
    <rdf:RDF>
      <cc:Work>
        <dc:format>image/svg+xml</dc:format>
        <dc:source>vpype rect 0cm 0cm 3cm 0.5cm line -- -0.500cm 0cm 0.000cm 0.5cm line -- -0.300cm 0cm 0.200cm 0.5cm line -- -0.100cm 0cm 0.400cm 0.5cm line -- 0.100cm 0cm 0.600cm 0.5cm line -- 0.300cm 0cm 0.800cm 0.5cm line -- 0.500cm 0cm 1.000cm 0.5cm line -- 0.700cm 0cm 1.200cm 0.5cm line -- 0.900cm 0cm 1.400cm 0.5cm line -- 1.100cm 0cm 1.600cm 0.5cm line -- 1.300cm 0cm 1.800cm 0.5cm line -- 1.500cm 0cm 2.000cm 0.5cm line -- 1.700cm 0cm 2.200cm 0.5cm line -- 1.900cm 0cm 2.400cm 0.5cm line -- 2.100cm 0cm 2.600cm 0.5cm line -- 2.300cm 0cm 2.800cm 0.5cm line -- 2.500cm 0cm 3.000cm 0.5cm line -- 2.700cm 0cm 3.200cm 0.5cm line -- 2.900cm 0cm 3.400cm 0.5cm crop 0cm 0cm 3cm 0.5cm write map/full_rect.svg
</dc:source>
        <dc:date>2021-06-21T12:58:21.084677</dc:date>
      </cc:Work>
    </rdf:RDF>
  </metadata>
  <defs/>
  <g fill="none" id="layer1" inkscape:groupmode="layer" inkscape:label="1" stroke="#00f" style="display:inline">
    <polygon points="0.0,0.0 0.0,18.8976 113.3858,18.8976 113.3858,0.0"/>
    <line x1="0.0" x2="7.5591" y1="11.3386" y2="18.8976"/>
    <line x1="0.0" x2="15.1181" y1="3.7795" y2="18.8976"/>
    <line x1="3.7795" x2="22.6772" y1="0.0" y2="18.8976"/>
    <line x1="11.3386" x2="30.2362" y1="0.0" y2="18.8976"/>
    <line x1="18.8976" x2="37.7953" y1="0.0" y2="18.8976"/>
    <line x1="26.4567" x2="45.3543" y1="0.0" y2="18.8976"/>
    <line x1="34.0157" x2="52.9134" y1="0.0" y2="18.8976"/>
    <line x1="41.5748" x2="60.4724" y1="0.0" y2="18.8976"/>
    <line x1="49.1339" x2="68.0315" y1="0.0" y2="18.8976"/>
    <line x1="56.6929" x2="75.5906" y1="0.0" y2="18.8976"/>
    <line x1="64.252" x2="83.1496" y1="0.0" y2="18.8976"/>
    <line x1="71.811" x2="90.7087" y1="0.0" y2="18.8976"/>
    <line x1="79.3701" x2="98.2677" y1="0.0" y2="18.8976"/>
    <line x1="86.9291" x2="105.8268" y1="0.0" y2="18.8976"/>
    <line x1="94.4882" x2="113.3858" y1="0.0" y2="18.8976"/>
    <line x1="102.0472" x2="113.3858" y1="0.0" y2="11.3386"/>
    <line x1="109.6063" x2="113.3858" y1="0.0" y2="3.7795"/>
  </g>
</svg>
