<?xml version="1.0" encoding="UTF-8" standalone="no"?>
<svg
   xmlns:dc="http://purl.org/dc/elements/1.1/"
   xmlns:cc="http://creativecommons.org/ns#"
   xmlns:rdf="http://www.w3.org/1999/02/22-rdf-syntax-ns#"
   xmlns:svg="http://www.w3.org/2000/svg"
   xmlns="http://www.w3.org/2000/svg"
   width="210mm"
   height="297mm"
   viewBox="0 0 210 297"
   version="1.1"
   id="svg8">
  <defs
     id="defs2" />
  <metadata
     id="metadata5">
    <rdf:RDF>
      <cc:Work
         rdf:about="">
        <dc:format>image/svg+xml</dc:format>
        <dc:type
           rdf:resource="http://purl.org/dc/dcmitype/StillImage" />
        <dc:title></dc:title>
      </cc:Work>
    </rdf:RDF>
  </metadata>
  <g
     id="layer1">
    <g
       id="g1959">
      <g
         id="g1957" />
      <g
         id="g14685">
        <g
           id="g14683">
          <path
             style="fill:none;stroke:#000000;stroke-linecap:round;stroke-linejoin:round;stroke-width:0.4"
             d="M 13.3155 18.4285 L 14.6488 17.0952 L 16.6488 17.0952 L 17.9821 17.7619 L 19.3155 17.0952 M 15.3155 17.7619 L 17.3155 17.7619 M 13.3155 18.4285 L 14.6488 17.7619 L 15.9821 18.4285 L 17.9821 18.4285 L 19.3155 17.0952 M 16.6488 20.4285 L 15.9821 21.0952 L 15.3155 22.4286 L 15.3155 23.0952 L 13.9821 23.0952 L 13.3155 23.7619 L 13.3155 25.0952 L 13.9821 24.4286 L 15.3155 24.4286 L 15.3155 28.4286 M 15.9821 21.7619 L 15.9821 27.0952 M 13.9821 23.7619 L 15.9821 23.7619 M 16.6488 20.4285 L 16.6488 26.4286 L 15.9821 27.7619 L 15.3155 28.4286 M 14.6488 31.0952 L 16.6488 29.7619 L 18.6488 29.0952 L 20.6488 29.0952 L 21.9821 29.7619 M 15.9821 30.4286 L 17.9821 29.7619 L 19.9821 29.7619 L 21.3155 30.4286 M 14.6488 31.0952 L 17.3155 30.4286 L 19.3155 30.4286 L 20.6488 31.0952 L 21.9821 29.7619 M 19.9821 19.0952 L 19.3155 19.7619 L 18.6488 21.0952 L 18.6488 27.0952 M 19.3155 20.4285 L 19.3155 25.7619 M 19.9821 19.0952 L 19.9821 25.0952 L 19.3155 26.4286 L 18.6488 27.0952 M 19.9821 19.0952 L 21.3155 17.7619 L 22.6488 17.0952 L 23.9821 17.0952 L 25.3154 17.7619 M 23.3154 17.7619 L 23.9821 17.7619 L 24.6488 18.4285 M 21.3155 17.7619 L 22.6488 17.7619 L 23.9821 19.0952 L 25.3154 17.7619 M 21.9821 23.0952 L 23.3154 22.4286 L 24.6488 21.0952 L 25.3154 21.7619 L 25.9821 23.7619 L 25.9821 26.4286 L 25.3154 29.0952 L 23.9821 31.0952 M 23.9821 21.7619 L 24.6488 22.4286 L 25.3154 23.7619 L 25.3154 27.0952 L 24.6488 29.0952 M 23.3154 22.4286 L 23.9821 22.4286 L 24.6488 23.7619 L 24.6488 27.0952 L 23.9821 31.0952 M 21.9821 23.0952 L 21.9821 29.7619 M 21.9821 25.0952 L 24.6488 25.0952 M 21.9821 27.0952 L 24.6488 27.0952"
             id="path14669" />
          <path
             style="fill:none;stroke:#000000;stroke-linecap:round;stroke-linejoin:round;stroke-width:0.4"
             d="M 29.7155 17.0952 L 28.3821 18.4285 L 29.7155 19.0952 L 31.0488 18.4285 Z M 29.7155 17.7619 L 29.0488 18.4285 L 30.3821 18.4285 Z M 29.7155 21.7619 L 29.0488 22.4286 L 27.7155 23.0952 L 29.0488 23.7619 L 29.0488 29.7619 L 30.3821 31.0952 L 31.7155 29.7619 M 29.7155 23.7619 L 30.3821 23.0952 L 29.7155 22.4286 L 29.0488 23.0952 L 29.7155 23.7619 L 29.7155 29.7619 L 30.3821 30.4286 M 29.7155 21.7619 L 30.3821 22.4286 L 31.7155 23.0952 L 30.3821 23.7619 L 30.3821 29.0952 L 31.0488 29.7619 L 31.7155 29.7619"
             id="path14671" />
          <path
             style="fill:none;stroke:#000000;stroke-linecap:round;stroke-linejoin:round;stroke-width:0.4"
             d="M 34.3821 18.4285 L 35.0488 19.7619 L 35.0488 29.0952 L 33.7155 29.7619 L 34.3821 29.7619 L 35.7155 30.4286 L 36.3821 31.0952 M 35.7155 19.7619 L 35.0488 18.4285 L 35.7155 17.7619 L 35.7155 29.7619 L 37.0488 30.4286 M 34.3821 18.4285 L 36.3821 17.0952 L 36.3821 29.0952 L 37.7155 29.7619 L 38.3821 29.7619 L 37.0488 30.4286 L 36.3821 31.0952"
             id="path14673" />
          <path
             style="fill:none;stroke:#000000;stroke-linecap:round;stroke-linejoin:round;stroke-width:0.4"
             d="M 40.3821 18.4285 L 41.0488 19.7619 L 41.0488 29.0952 L 39.7155 29.7619 L 40.3821 29.7619 L 41.7155 30.4286 L 42.3821 31.0952 M 41.7155 19.7619 L 41.0488 18.4285 L 41.7155 17.7619 L 41.7155 29.7619 L 43.0488 30.4286 M 40.3821 18.4285 L 42.3821 17.0952 L 42.3821 29.0952 L 43.7155 29.7619 L 44.3821 29.7619 L 43.0488 30.4286 L 42.3821 31.0952"
             id="path14675" />
          <path
             style="fill:none;stroke:#000000;stroke-linecap:round;stroke-linejoin:round;stroke-width:0.4"
             d="M 47.0488 18.4285 L 47.0488 29.0952 L 45.7155 29.7619 L 46.3821 29.7619 L 47.7155 30.4286 L 48.3821 31.0952 M 47.7155 18.4285 L 47.7155 29.7619 L 49.0488 30.4286 M 48.3821 18.4285 L 48.3821 29.0952 L 49.7155 29.7619 L 50.3821 29.7619 L 49.0488 30.4286 L 48.3821 31.0952 M 47.0488 18.4285 L 49.0488 17.7619 L 50.3821 17.0952 L 51.0488 17.7619 L 52.3821 18.4285 L 53.0488 18.4285 M 49.7155 17.7619 L 50.3821 18.4285 L 51.7155 18.4285 M 48.3821 18.4285 L 49.0488 17.7619 L 50.3821 19.0952 L 51.7155 19.0952 L 53.0488 18.4285 M 45.0488 21.7619 L 47.0488 21.7619 M 48.3821 21.7619 L 51.0488 21.7619"
             id="path14677" />
          <path
             style="fill:none;stroke:#000000;stroke-linecap:round;stroke-linejoin:round;stroke-width:0.4"
             d="M 56.1821 25.0952 L 54.8488 26.4286 L 54.1821 27.7619 L 54.1821 29.0952 L 54.8488 30.4286 L 56.1821 31.0952 L 57.5155 29.7619 L 59.5155 29.0952 M 54.1821 27.7619 L 54.8488 29.0952 L 55.5155 29.7619 L 56.8488 30.4286 M 54.8488 26.4286 L 54.8488 27.7619 L 55.5155 29.0952 L 56.8488 29.7619 L 57.5155 29.7619 M 54.8488 23.7619 L 56.1821 23.7619 L 58.1821 23.0952 L 59.5155 22.4286 L 60.1821 21.7619 L 61.5155 23.0952 L 60.8488 23.7619 L 60.8488 29.0952 L 61.5155 29.7619 L 62.1821 29.7619 M 55.5155 22.4286 L 54.8488 23.0952 L 56.8488 23.0952 M 58.8488 23.0952 L 60.8488 23.0952 L 60.1821 22.4286 L 60.1821 29.7619 L 60.8488 30.4286 M 54.1821 23.0952 L 55.5155 21.7619 L 56.1821 22.4286 L 57.5155 23.0952 L 59.5155 23.7619 L 59.5155 29.7619 L 60.8488 31.0952 L 62.1821 29.7619 M 54.1821 23.0952 L 57.5155 26.4286"
             id="path14679" />
          <path
             style="fill:none;stroke:#000000;stroke-linecap:round;stroke-linejoin:round;stroke-width:0.4"
             d="M 63.7155 23.0952 L 64.3821 23.0952 L 65.0488 23.7619 L 65.0488 29.0952 L 63.7155 29.7619 L 64.3821 29.7619 L 65.7155 30.4286 L 66.3821 31.0952 M 64.3821 22.4286 L 65.7155 23.0952 L 65.7155 29.7619 L 67.0488 30.4286 M 63.7155 23.0952 L 65.0488 21.7619 L 66.3821 23.0952 L 66.3821 29.0952 L 67.7155 29.7619 L 68.3821 29.7619 L 67.0488 30.4286 L 66.3821 31.0952 M 66.3821 23.0952 L 69.0488 21.7619 L 69.7155 22.4286 L 71.0488 23.0952 L 71.7155 23.0952 M 68.3821 22.4286 L 69.0488 23.0952 L 70.3821 23.0952 M 67.7155 22.4286 L 69.0488 23.7619 L 70.3821 23.7619 L 71.7155 23.0952"
             id="path14681" />
        </g>
      </g>
    </g>
  </g>
</svg>
