<?xml version="1.0" encoding="utf-8" ?>
<svg xmlns="http://www.w3.org/2000/svg" xmlns:cc="http://creativecommons.org/ns#" xmlns:dc="http://purl.org/dc/elements/1.1/" xmlns:ev="http://www.w3.org/2001/xml-events" xmlns:inkscape="http://www.inkscape.org/namespaces/inkscape" xmlns:rdf="http://www.w3.org/1999/02/22-rdf-syntax-ns#" xmlns:sodipodi="http://sodipodi.sourceforge.net/DTD/sodipodi-0.dtd" xmlns:xlink="http://www.w3.org/1999/xlink" baseProfile="tiny" height="24.0cm" version="1.2" viewBox="0 0 1209.4488188976377 907.0866141732283" width="32.0cm">
  <metadata>
    <rdf:RDF>
      <cc:Work>
        <dc:format>image/svg+xml</dc:format>
        <dc:source>vpype read map/hillfar_small.svg translate -- 4.0850cm 12.0750cm pagesize -l 24cmx32cm write map/hillfar_small.svg
</dc:source>
        <dc:date>2021-06-21T12:59:18.329680</dc:date>
      </cc:Work>
    </rdf:RDF>
  </metadata>
  <defs/>
  <g fill="none" id="layer1" inkscape:groupmode="layer" inkscape:label="1" stroke="#00f" style="display:inline">
    <polyline points="323.6626,457.2779 324.5625,456.378 325.9123,456.378 326.8122,456.828 327.7121,456.378"/>
    <line x1="325.0125" x2="326.3623" y1="456.828" y2="456.828"/>
    <polyline points="323.6626,457.2779 324.5625,456.828 325.4624,457.2779 326.8122,457.2779 327.7121,456.378"/>
    <polyline points="325.9123,458.6277 325.4624,459.0777 325.0125,459.9776 325.0125,460.4275 324.1125,460.4275 323.6626,460.8775 323.6626,461.7773 324.1125,461.3274 325.0125,461.3274 325.0125,464.0271"/>
    <line x1="325.4624" x2="325.4624" y1="459.5276" y2="463.1272"/>
    <line x1="324.1125" x2="325.4624" y1="460.8775" y2="460.8775"/>
    <polyline points="325.9123,458.6277 325.9123,462.6773 325.4624,463.5771 325.0125,464.0271"/>
    <polyline points="324.5625,465.8268 325.9123,464.927 327.2622,464.477 328.612,464.477 329.5119,464.927"/>
    <polyline points="325.4624,465.3769 326.8122,464.927 328.162,464.927 329.062,465.3769"/>
    <polyline points="324.5625,465.8268 326.3623,465.3769 327.7121,465.3769 328.612,465.8268 329.5119,464.927"/>
    <polyline points="328.162,457.7278 327.7121,458.1778 327.2622,459.0777 327.2622,463.1272"/>
    <line x1="327.7121" x2="327.7121" y1="458.6277" y2="462.2273"/>
    <polyline points="328.162,457.7278 328.162,461.7773 327.7121,462.6773 327.2622,463.1272"/>
    <polyline points="328.162,457.7278 329.062,456.828 329.9618,456.378 330.8617,456.378 331.7616,456.828"/>
    <polyline points="330.4117,456.828 330.8617,456.828 331.3117,457.2779"/>
    <polyline points="329.062,456.828 329.9618,456.828 330.8617,457.7278 331.7616,456.828"/>
    <polyline points="329.5119,460.4275 330.4117,459.9776 331.3117,459.0777 331.7616,459.5276 332.2115,460.8775 332.2115,462.6773 331.7616,464.477 330.8617,465.8268"/>
    <polyline points="330.8617,459.5276 331.3117,459.9776 331.7616,460.8775 331.7616,463.1272 331.3117,464.477"/>
    <polyline points="330.4117,459.9776 330.8617,459.9776 331.3117,460.8775 331.3117,463.1272 330.8617,465.8268"/>
    <line x1="329.5119" x2="329.5119" y1="460.4275" y2="464.927"/>
    <line x1="329.5119" x2="331.3117" y1="461.7773" y2="461.7773"/>
    <line x1="329.5119" x2="331.3117" y1="463.1272" y2="463.1272"/>
    <polygon points="334.7313,456.378 333.8313,457.2779 334.7313,457.7278 335.6311,457.2779"/>
    <polygon points="334.7313,456.828 334.2813,457.2779 335.1812,457.2779"/>
    <polyline points="334.7313,459.5276 334.2813,459.9776 333.3814,460.4275 334.2813,460.8775 334.2813,464.927 335.1812,465.8268 336.0811,464.927"/>
    <polyline points="334.7313,460.8775 335.1812,460.4275 334.7313,459.9776 334.2813,460.4275 334.7313,460.8775 334.7313,464.927 335.1812,465.3769"/>
    <polyline points="334.7313,459.5276 335.1812,459.9776 336.0811,460.4275 335.1812,460.8775 335.1812,464.477 335.6311,464.927 336.0811,464.927"/>
    <polyline points="337.8808,457.2779 338.3308,458.1778 338.3308,464.477 337.4309,464.927 337.8808,464.927 338.7808,465.3769 339.2307,465.8268"/>
    <polyline points="338.7808,458.1778 338.3308,457.2779 338.7808,456.828 338.7808,464.927 339.6806,465.3769"/>
    <polyline points="337.8808,457.2779 339.2307,456.378 339.2307,464.477 340.1306,464.927 340.5805,464.927 339.6806,465.3769 339.2307,465.8268"/>
    <polyline points="341.9303,457.2779 342.3803,458.1778 342.3803,464.477 341.4804,464.927 341.9303,464.927 342.8302,465.3769 343.2801,465.8268"/>
    <polyline points="342.8302,458.1778 342.3803,457.2779 342.8302,456.828 342.8302,464.927 343.7301,465.3769"/>
    <polyline points="341.9303,457.2779 343.2801,456.378 343.2801,464.477 344.1801,464.927 344.63,464.927 343.7301,465.3769 343.2801,465.8268"/>
    <polyline points="346.4298,457.2779 346.4298,464.477 345.5299,464.927 345.9798,464.927 346.8797,465.3769 347.3296,465.8268"/>
    <polyline points="346.8797,457.2779 346.8797,464.927 347.7796,465.3769"/>
    <polyline points="347.3296,457.2779 347.3296,464.477 348.2296,464.927 348.6795,464.927 347.7796,465.3769 347.3296,465.8268"/>
    <polyline points="346.4298,457.2779 347.7796,456.828 348.6795,456.378 349.1294,456.828 350.0293,457.2779 350.4793,457.2779"/>
    <polyline points="348.2296,456.828 348.6795,457.2779 349.5794,457.2779"/>
    <polyline points="347.3296,457.2779 347.7796,456.828 348.6795,457.7278 349.5794,457.7278 350.4793,457.2779"/>
    <line x1="345.0799" x2="346.4298" y1="459.5276" y2="459.5276"/>
    <line x1="347.3296" x2="349.1294" y1="459.5276" y2="459.5276"/>
    <polyline points="352.594,461.7773 351.6941,462.6773 351.2441,463.5771 351.2441,464.477 351.6941,465.3769 352.594,465.8268 353.4939,464.927 354.8437,464.477"/>
    <polyline points="351.2441,463.5771 351.6941,464.477 352.1441,464.927 353.0439,465.3769"/>
    <polyline points="351.6941,462.6773 351.6941,463.5771 352.1441,464.477 353.0439,464.927 353.4939,464.927"/>
    <polyline points="351.6941,460.8775 352.594,460.8775 353.9438,460.4275 354.8437,459.9776 355.2936,459.5276 356.1936,460.4275 355.7436,460.8775 355.7436,464.477 356.1936,464.927 356.6435,464.927"/>
    <polyline points="352.1441,459.9776 351.6941,460.4275 353.0439,460.4275"/>
    <polyline points="354.3938,460.4275 355.7436,460.4275 355.2936,459.9776 355.2936,464.927 355.7436,465.3769"/>
    <polyline points="351.2441,460.4275 352.1441,459.5276 352.594,459.9776 353.4939,460.4275 354.8437,460.8775 354.8437,464.927 355.7436,465.8268 356.6435,464.927"/>
    <line x1="351.2441" x2="353.4939" y1="460.4275" y2="462.6773"/>
    <polyline points="357.6784,460.4275 358.1283,460.4275 358.5783,460.8775 358.5783,464.477 357.6784,464.927 358.1283,464.927 359.0282,465.3769 359.4781,465.8268"/>
    <polyline points="358.1283,459.9776 359.0282,460.4275 359.0282,464.927 359.9281,465.3769"/>
    <polyline points="357.6784,460.4275 358.5783,459.5276 359.4781,460.4275 359.4781,464.477 360.3781,464.927 360.828,464.927 359.9281,465.3769 359.4781,465.8268"/>
    <polyline points="359.4781,460.4275 361.2779,459.5276 361.7279,459.9776 362.6277,460.4275 363.0777,460.4275"/>
    <polyline points="360.828,459.9776 361.2779,460.4275 362.1778,460.4275"/>
    <polyline points="360.3781,459.9776 361.2779,460.8775 362.1778,460.8775 363.0777,460.4275"/>
  </g>
</svg>
