<?xml version="1.0" encoding="utf-8" ?>
<svg xmlns="http://www.w3.org/2000/svg" xmlns:cc="http://creativecommons.org/ns#" xmlns:dc="http://purl.org/dc/elements/1.1/" xmlns:ev="http://www.w3.org/2001/xml-events" xmlns:inkscape="http://www.inkscape.org/namespaces/inkscape" xmlns:rdf="http://www.w3.org/1999/02/22-rdf-syntax-ns#" xmlns:sodipodi="http://sodipodi.sourceforge.net/DTD/sodipodi-0.dtd" xmlns:xlink="http://www.w3.org/1999/xlink" baseProfile="tiny" height="24.0cm" version="1.2" viewBox="0 0 1209.4488188976377 907.0866141732283" width="32.0cm">
  <metadata>
    <rdf:RDF>
      <cc:Work>
        <dc:format>image/svg+xml</dc:format>
        <dc:source>vpype read map/kabin_small.svg translate -- 11.6700cm 10.3550cm pagesize -l 24cmx32cm write map/kabin_small.svg
</dc:source>
        <dc:date>2021-06-21T12:59:05.494816</dc:date>
      </cc:Work>
    </rdf:RDF>
  </metadata>
  <defs/>
  <g fill="none" id="layer1" inkscape:groupmode="layer" inkscape:label="1" stroke="#00f" style="display:inline">
    <polyline points="612.927,392.27 613.8269,391.3701 615.1767,391.3701 616.0766,391.8201 616.9765,391.3701"/>
    <line x1="614.2769" x2="615.6267" y1="391.8201" y2="391.8201"/>
    <polyline points="612.927,392.27 613.8269,391.8201 614.7268,392.27 616.0766,392.27 616.9765,391.3701"/>
    <polyline points="615.1767,393.6198 614.7268,394.0698 614.2769,394.9697 614.2769,395.4196 613.3769,395.4196 612.927,395.8696 612.927,396.7694 613.3769,396.3195 614.2769,396.3195 614.2769,399.0192"/>
    <line x1="614.7268" x2="614.7268" y1="394.5197" y2="398.1193"/>
    <line x1="613.3769" x2="614.7268" y1="395.8696" y2="395.8696"/>
    <polyline points="615.1767,393.6198 615.1767,397.6694 614.7268,398.5692 614.2769,399.0192"/>
    <polyline points="613.8269,400.8189 615.1767,399.9191 616.5266,399.4691 617.8764,399.4691 618.7763,399.9191"/>
    <polyline points="614.7268,400.369 615.6267,399.9191 617.4264,399.9191 618.3264,400.369"/>
    <polyline points="613.8269,400.8189 615.6267,400.369 616.9765,400.369 617.8764,400.8189 618.7763,399.9191"/>
    <polyline points="617.4264,392.7199 616.9765,393.1699 616.5266,394.0698 616.5266,398.1193"/>
    <line x1="616.9765" x2="616.9765" y1="393.6198" y2="397.2194"/>
    <polyline points="617.4264,392.7199 617.4264,396.7694 616.9765,397.6694 616.5266,398.1193"/>
    <polyline points="617.4264,392.7199 618.3264,391.8201 619.2262,391.3701 620.1261,391.3701 621.0259,391.8201"/>
    <polyline points="619.6761,391.8201 620.1261,391.8201 620.5761,392.27"/>
    <polyline points="618.3264,391.8201 619.2262,391.8201 620.1261,392.7199 621.0259,391.8201"/>
    <polyline points="618.7763,395.4196 620.1261,394.0698 620.5761,394.5197 621.4759,394.9697"/>
    <polyline points="619.6761,394.5197 620.5761,394.9697 621.4759,394.9697"/>
    <polyline points="621.4759,394.9697 620.5761,396.3195 619.6761,397.2194 618.7763,398.1193"/>
    <polyline points="619.6761,397.2194 620.5761,397.6694 621.0259,399.4691 621.4759,400.369 621.9259,400.369"/>
    <line x1="620.5761" x2="621.0259" y1="398.5692" y2="400.369"/>
    <polyline points="619.6761,397.2194 620.1261,397.6694 620.5761,400.369 621.0259,400.8189 621.4759,400.8189 621.9259,400.369"/>
    <line x1="618.7763" x2="618.7763" y1="395.4196" y2="399.9191"/>
    <polyline points="624.4455,396.7694 623.5457,397.6694 623.0957,398.5692 623.0957,399.4691 623.5457,400.369 624.4455,400.8189 625.3455,399.9191 626.6953,399.4691"/>
    <polyline points="623.0957,398.5692 623.5457,399.4691 623.9956,399.9191 624.8955,400.369"/>
    <polyline points="623.5457,397.6694 623.5457,398.5692 623.9956,399.4691 624.8955,399.9191 625.3455,399.9191"/>
    <polyline points="623.5457,395.8696 624.4455,395.8696 625.7954,395.4196 626.6953,394.9697 627.1452,394.5197 628.0451,395.4196 627.5952,395.8696 627.5952,399.4691 628.0451,399.9191 628.495,399.9191"/>
    <polyline points="623.9956,394.9697 623.5457,395.4196 624.8955,395.4196"/>
    <polyline points="626.2453,395.4196 627.5952,395.4196 627.1452,394.9697 627.1452,399.9191 627.5952,400.369"/>
    <polyline points="623.0957,395.4196 623.9956,394.5197 624.4455,394.9697 625.3455,395.4196 626.6953,395.8696 626.6953,399.9191 627.5952,400.8189 628.495,399.9191"/>
    <line x1="623.0957" x2="625.3455" y1="395.4196" y2="397.6694"/>
    <polyline points="629.9799,392.27 630.4298,393.1699 630.4298,399.4691 629.53,399.9191"/>
    <polyline points="630.8798,393.1699 630.4298,392.27 630.8798,391.8201 630.8798,399.4691 632.2296,400.369"/>
    <polyline points="629.9799,392.27 631.3297,391.3701 631.3297,399.4691 632.2296,399.9191 632.6795,400.369"/>
    <polyline points="629.53,399.9191 630.4298,399.9191 631.3297,400.369 631.7797,400.8189 632.6795,400.369 634.0293,399.9191 634.9293,399.9191"/>
    <polyline points="631.3297,395.8696 632.6795,395.4196 633.5794,394.9697 634.0293,394.5197 634.4793,394.9697 635.3792,395.4196 635.8291,395.4196 634.9293,395.8696 634.9293,399.9191"/>
    <polyline points="633.5794,394.9697 634.4793,395.4196 634.4793,399.4691"/>
    <polyline points="632.6795,395.4196 633.1295,395.4196 634.0293,395.8696 634.0293,399.9191"/>
    <polygon points="638.1689,391.3701 637.2689,392.27 638.1689,392.7199 639.0687,392.27"/>
    <polygon points="638.1689,391.8201 637.7189,392.27 638.6188,392.27"/>
    <polyline points="638.1689,394.5197 637.7189,394.9697 636.819,395.4196 637.7189,395.8696 637.7189,399.9191 638.6188,400.8189 639.5187,399.9191"/>
    <polyline points="638.1689,395.8696 638.6188,395.4196 638.1689,394.9697 637.7189,395.4196 638.1689,395.8696 638.1689,399.9191 638.6188,400.369"/>
    <polyline points="638.1689,394.5197 638.6188,394.9697 639.5187,395.4196 638.6188,395.8696 638.6188,399.4691 639.0687,399.9191 639.5187,399.9191"/>
    <polyline points="640.8685,395.4196 641.3184,395.4196 641.7684,395.8696 641.7684,399.4691 640.8685,399.9191 641.3184,399.9191 642.2184,400.369 642.6683,400.8189"/>
    <polyline points="641.7684,394.9697 642.2184,395.4196 642.2184,399.9191 643.1182,400.369"/>
    <polyline points="640.8685,395.4196 641.7684,394.5197 642.6683,395.4196 642.6683,399.4691 643.5682,399.9191 642.6683,400.8189"/>
    <polyline points="642.6683,395.8696 644.0181,395.4196 644.918,394.9697 645.3679,394.5197 645.8179,394.9697 646.7178,395.4196 647.1677,395.4196 646.2679,395.8696 646.2679,399.4691 646.7178,399.9191 647.1677,399.9191"/>
    <polyline points="644.918,394.9697 645.8179,395.4196 645.8179,399.9191 646.2679,400.369"/>
    <polyline points="644.0181,395.4196 644.4681,395.4196 645.3679,395.8696 645.3679,399.9191 646.2679,400.8189 647.1677,399.9191"/>
  </g>
</svg>
