<?xml version="1.0" encoding="utf-8" ?>
<svg xmlns="http://www.w3.org/2000/svg" xmlns:cc="http://creativecommons.org/ns#" xmlns:dc="http://purl.org/dc/elements/1.1/" xmlns:ev="http://www.w3.org/2001/xml-events" xmlns:inkscape="http://www.inkscape.org/namespaces/inkscape" xmlns:rdf="http://www.w3.org/1999/02/22-rdf-syntax-ns#" xmlns:sodipodi="http://sodipodi.sourceforge.net/DTD/sodipodi-0.dtd" xmlns:xlink="http://www.w3.org/1999/xlink" baseProfile="tiny" height="24.0cm" version="1.2" viewBox="0 0 1209.4488188976377 907.0866141732283" width="32.0cm">
  <metadata>
    <rdf:RDF>
      <cc:Work>
        <dc:format>image/svg+xml</dc:format>
        <dc:source>vpype read map/knoll_small.svg translate -- 11.6400cm 13.4450cm pagesize -l 24cmx32cm write map/knoll_small.svg
</dc:source>
        <dc:date>2021-06-21T12:59:14.063909</dc:date>
      </cc:Work>
    </rdf:RDF>
  </metadata>
  <defs/>
  <g fill="none" id="layer1" inkscape:groupmode="layer" inkscape:label="1" stroke="#00f" style="display:inline">
    <polyline points="613.1655,509.0574 614.0653,508.1575 615.4152,508.1575 616.315,508.6075 617.215,508.1575"/>
    <line x1="614.5153" x2="615.8651" y1="508.6075" y2="508.6075"/>
    <polyline points="613.1655,509.0574 614.0653,508.6075 614.9652,509.0574 616.315,509.0574 617.215,508.1575"/>
    <polyline points="615.4152,510.4072 614.9652,510.8572 614.5153,511.7571 614.5153,512.207 613.6154,512.207 613.1655,512.657 613.1655,513.5568 613.6154,513.1069 614.5153,513.1069 614.5153,515.8066"/>
    <line x1="614.9652" x2="614.9652" y1="511.3071" y2="514.9067"/>
    <line x1="613.6154" x2="614.9652" y1="512.657" y2="512.657"/>
    <polyline points="615.4152,510.4072 615.4152,514.4568 614.9652,515.3566 614.5153,515.8066"/>
    <polyline points="614.0653,517.6063 615.4152,516.7065 616.765,516.2565 618.1148,516.2565 619.0147,516.7065"/>
    <polyline points="614.9652,517.1564 615.8651,516.7065 617.6649,516.7065 618.5648,517.1564"/>
    <polyline points="614.0653,517.6063 615.8651,517.1564 617.215,517.1564 618.1148,517.6063 619.0147,516.7065"/>
    <polyline points="617.6649,509.5073 617.215,509.9573 616.765,510.8572 616.765,514.9067"/>
    <line x1="617.215" x2="617.215" y1="510.4072" y2="514.0068"/>
    <polyline points="617.6649,509.5073 617.6649,513.5568 617.215,514.4568 616.765,514.9067"/>
    <polyline points="617.6649,509.5073 618.5648,508.6075 619.4647,508.1575 620.3645,508.1575 621.2644,508.6075"/>
    <polyline points="619.9146,508.6075 620.3645,508.6075 620.8145,509.0574"/>
    <polyline points="618.5648,508.6075 619.4647,508.6075 620.3645,509.5073 621.2644,508.6075"/>
    <polyline points="619.0147,512.207 620.3645,510.8572 620.8145,511.3071 621.7144,511.7571"/>
    <polyline points="619.9146,511.3071 620.8145,511.7571 621.7144,511.7571"/>
    <polyline points="621.7144,511.7571 620.8145,513.1069 619.9146,514.0068 619.0147,514.9067"/>
    <polyline points="619.9146,514.0068 620.8145,514.4568 621.2644,516.2565 621.7144,517.1564 622.1643,517.1564"/>
    <line x1="620.8145" x2="621.2644" y1="515.3566" y2="517.1564"/>
    <polyline points="619.9146,514.0068 620.3645,514.4568 620.8145,517.1564 621.2644,517.6063 621.7144,517.6063 622.1643,517.1564"/>
    <line x1="619.0147" x2="619.0147" y1="512.207" y2="516.7065"/>
    <polyline points="622.8843,512.207 623.3342,512.207 623.7841,512.657 623.7841,516.2565 622.8843,516.7065 623.3342,516.7065 624.2341,517.1564 624.684,517.6063"/>
    <polyline points="623.7841,511.7571 624.2341,512.207 624.2341,516.7065 625.134,517.1564"/>
    <polyline points="622.8843,512.207 623.7841,511.3071 624.684,512.207 624.684,516.2565 625.5839,516.7065 624.684,517.6063"/>
    <polyline points="624.684,512.657 626.0338,512.207 626.9337,511.7571 627.3836,511.3071 627.8336,511.7571 628.7335,512.207 629.1834,512.207 628.2836,512.657 628.2836,516.2565 628.7335,516.7065 629.1834,516.7065"/>
    <polyline points="626.9337,511.7571 627.8336,512.207 627.8336,516.7065 628.2836,517.1564"/>
    <polyline points="626.0338,512.207 626.4838,512.207 627.3836,512.657 627.3836,516.7065 628.2836,517.6063 629.1834,516.7065"/>
    <polyline points="631.0732,512.207 631.0732,516.2565 630.1733,516.7065"/>
    <polyline points="631.5232,512.657 631.5232,516.2565 632.873,517.1564"/>
    <polyline points="631.9731,512.207 631.9731,516.2565 632.873,516.7065 633.3229,517.1564"/>
    <polyline points="630.1733,516.7065 631.0732,516.7065 631.9731,517.1564 632.423,517.6063 633.3229,517.1564 634.6727,516.7065 635.5727,516.7065"/>
    <polyline points="631.0732,512.207 631.9731,512.207 633.3229,511.7571 634.2228,511.3071 634.6727,511.7571 635.5727,512.207 636.4725,512.207 635.5727,512.657 635.5727,516.7065"/>
    <polyline points="633.7729,511.7571 635.1227,512.657 635.1227,516.2565"/>
    <polyline points="633.3229,511.7571 633.7729,512.207 634.6727,512.657 634.6727,516.7065"/>
    <polyline points="637.9123,509.0574 638.3623,509.9573 638.3623,516.2565 637.4624,516.7065 637.9123,516.7065 638.8123,517.1564 639.2622,517.6063"/>
    <polyline points="638.8123,509.9573 638.3623,509.0574 638.8123,508.6075 638.8123,516.7065 639.7121,517.1564"/>
    <polyline points="637.9123,509.0574 639.2622,508.1575 639.2622,516.2565 640.1621,516.7065 640.612,516.7065 639.7121,517.1564 639.2622,517.6063"/>
    <polyline points="641.9618,509.0574 642.4118,509.9573 642.4118,516.2565 641.5119,516.7065 641.9618,516.7065 642.8618,517.1564 643.3117,517.6063"/>
    <polyline points="642.8618,509.9573 642.4118,509.0574 642.8618,508.6075 642.8618,516.7065 643.7616,517.1564"/>
    <polyline points="641.9618,509.0574 643.3117,508.1575 643.3117,516.2565 644.2116,516.7065 644.6615,516.7065 643.7616,517.1564 643.3117,517.6063"/>
  </g>
</svg>
