<?xml version="1.0" encoding="utf-8" ?>
<svg xmlns="http://www.w3.org/2000/svg" xmlns:cc="http://creativecommons.org/ns#" xmlns:dc="http://purl.org/dc/elements/1.1/" xmlns:ev="http://www.w3.org/2001/xml-events" xmlns:inkscape="http://www.inkscape.org/namespaces/inkscape" xmlns:rdf="http://www.w3.org/1999/02/22-rdf-syntax-ns#" xmlns:sodipodi="http://sodipodi.sourceforge.net/DTD/sodipodi-0.dtd" xmlns:xlink="http://www.w3.org/1999/xlink" baseProfile="tiny" height="24.0cm" version="1.2" viewBox="0 0 1209.4488188976377 907.0866141732283" width="32.0cm">
  <metadata>
    <rdf:RDF>
      <cc:Work>
        <dc:format>image/svg+xml</dc:format>
        <dc:source>vpype read map/lamorsin_small.svg translate -- 16.9000cm 8.2050cm pagesize -l 24cmx32cm write map/lamorsin_small.svg
</dc:source>
        <dc:date>2021-06-21T12:58:56.895109</dc:date>
      </cc:Work>
    </rdf:RDF>
  </metadata>
  <defs/>
  <g fill="none" id="layer1" inkscape:groupmode="layer" inkscape:label="1" stroke="#00f" style="display:inline">
    <polyline points="799.6626,311.0101 800.5625,310.1102 801.9123,310.1102 802.8122,310.5602 803.7121,310.1102"/>
    <line x1="801.0124" x2="802.3623" y1="310.5602" y2="310.5602"/>
    <polyline points="799.6626,311.0101 800.5625,310.5602 801.4623,311.0101 802.8122,311.0101 803.7121,310.1102"/>
    <polyline points="801.9123,312.3599 801.4623,312.8099 801.0124,313.7098 801.0124,314.1597 800.1125,314.1597 799.6626,314.6097 799.6626,315.5095 800.1125,315.0596 801.0124,315.0596 801.0124,317.7593"/>
    <line x1="801.4623" x2="801.4623" y1="313.2598" y2="316.8594"/>
    <line x1="800.1125" x2="801.4623" y1="314.6097" y2="314.6097"/>
    <polyline points="801.9123,312.3599 801.9123,316.4095 801.4623,317.3093 801.0124,317.7593"/>
    <polyline points="800.5625,319.559 801.9123,318.6592 803.7121,318.2092 805.9618,318.2092 807.7615,318.6592"/>
    <polyline points="801.4623,319.1091 802.8122,318.6592 805.9618,318.6592 807.3116,319.1091"/>
    <polyline points="800.5625,319.559 802.3623,319.1091 805.5118,319.1091 806.8617,319.559 807.7615,318.6592"/>
    <polyline points="804.162,311.46 803.7121,311.91 803.2621,312.8099 803.2621,316.8594"/>
    <line x1="803.7121" x2="803.7121" y1="312.3599" y2="315.9595"/>
    <polyline points="804.162,311.46 804.162,315.5095 803.7121,316.4095 803.2621,316.8594"/>
    <polyline points="804.162,311.46 805.0619,310.5602 805.9618,310.1102 806.8617,310.1102 807.7615,310.5602"/>
    <polyline points="806.4117,310.5602 806.8617,310.5602 807.3116,311.0101"/>
    <polyline points="805.0619,310.5602 805.9618,310.5602 806.8617,311.46 807.7615,310.5602"/>
    <line x1="805.9618" x2="805.9618" y1="310.5602" y2="318.2092"/>
    <polyline points="810.3713,315.5095 809.4713,316.4095 809.0214,317.3093 809.0214,318.2092 809.4713,319.1091 810.3713,319.559 811.2712,318.6592 812.6211,318.2092"/>
    <polyline points="809.0214,317.3093 809.4713,318.2092 809.9213,318.6592 810.8213,319.1091"/>
    <polyline points="809.4713,316.4095 809.4713,317.3093 809.9213,318.2092 810.8213,318.6592 811.2712,318.6592"/>
    <polyline points="809.4713,314.6097 810.3713,314.6097 811.7211,314.1597 812.6211,313.7098 813.071,313.2598 813.9709,314.1597 813.5209,314.6097 813.5209,318.2092 813.9709,318.6592 814.4208,318.6592"/>
    <polyline points="809.9213,313.7098 809.4713,314.1597 810.8213,314.1597"/>
    <polyline points="812.1711,314.1597 813.5209,314.1597 813.071,313.7098 813.071,318.6592 813.5209,319.1091"/>
    <polyline points="809.0214,314.1597 809.9213,313.2598 810.3713,313.7098 811.2712,314.1597 812.6211,314.6097 812.6211,318.6592 813.5209,319.559 814.4208,318.6592"/>
    <line x1="809.0214" x2="811.2712" y1="314.1597" y2="316.4095"/>
    <polyline points="815.4557,314.1597 815.9056,314.1597 816.3556,314.6097 816.3556,318.2092 815.4557,318.6592 815.9056,318.6592 816.8056,319.1091 817.2555,319.559"/>
    <polyline points="816.3556,313.7098 816.8056,314.1597 816.8056,318.6592 817.7054,319.1091"/>
    <polyline points="815.4557,314.1597 816.3556,313.2598 817.2555,314.1597 817.2555,318.2092 818.1554,318.6592 817.2555,319.559"/>
    <polyline points="817.2555,314.6097 818.6053,314.1597 819.5052,313.7098 819.9551,313.2598 820.855,314.1597 820.855,318.2092 821.7549,318.6592 820.855,319.559"/>
    <polyline points="819.5052,313.7098 820.4051,314.1597 820.4051,318.6592 821.3049,319.1091"/>
    <polyline points="818.6053,314.1597 819.0552,314.1597 819.9551,314.6097 819.9551,318.2092 819.5052,318.6592 820.4051,319.1091 820.855,319.559"/>
    <polyline points="820.855,314.6097 822.2048,314.1597 823.1047,313.7098 823.5546,313.2598 824.0046,313.7098 824.9045,314.1597 825.3544,314.1597 824.4546,314.6097 824.4546,318.2092 824.9045,318.6592 825.3544,318.6592"/>
    <polyline points="823.1047,313.7098 824.0046,314.1597 824.0046,318.6592 824.4546,319.1091"/>
    <polyline points="822.2048,314.1597 822.6548,314.1597 823.5546,314.6097 823.5546,318.6592 824.4546,319.559 825.3544,318.6592"/>
    <polyline points="826.8843,314.1597 826.8843,318.2092 825.9844,318.6592"/>
    <polyline points="827.3342,314.6097 827.3342,318.2092 828.6841,319.1091"/>
    <polyline points="827.7841,314.1597 827.7841,318.2092 828.6841,318.6592 829.134,319.1091"/>
    <polyline points="825.9844,318.6592 826.8843,318.6592 827.7841,319.1091 828.2341,319.559 829.134,319.1091 830.4838,318.6592 831.3837,318.6592"/>
    <polyline points="826.8843,314.1597 827.7841,314.1597 829.134,313.7098 830.0339,313.2598 830.4838,313.7098 831.3837,314.1597 832.2836,314.1597 831.3837,314.6097 831.3837,318.6592"/>
    <polyline points="829.5839,313.7098 830.9338,314.6097 830.9338,318.2092"/>
    <polyline points="829.134,313.7098 829.5839,314.1597 830.4838,314.6097 830.4838,318.6592"/>
    <polyline points="833.2735,314.1597 833.7234,314.1597 834.1734,314.6097 834.1734,318.2092 833.2735,318.6592 833.7234,318.6592 834.6233,319.1091 835.0732,319.559"/>
    <polyline points="833.7234,313.7098 834.6233,314.1597 834.6233,318.6592 835.5232,319.1091"/>
    <polyline points="833.2735,314.1597 834.1734,313.2598 835.0732,314.1597 835.0732,318.2092 835.9732,318.6592 836.4231,318.6592 835.5232,319.1091 835.0732,319.559"/>
    <polyline points="835.0732,314.1597 836.873,313.2598 837.323,313.7098 838.2229,314.1597 838.6728,314.1597"/>
    <polyline points="836.4231,313.7098 836.873,314.1597 837.7729,314.1597"/>
    <polyline points="835.9732,313.7098 836.873,314.6097 837.7729,314.6097 838.6728,314.1597"/>
    <polyline points="839.3927,314.1597 839.3927,315.9595 840.2926,316.4095 842.9923,316.4095 843.8921,316.8594 843.8921,318.6592"/>
    <line x1="839.8427" x2="839.8427" y1="314.1597" y2="315.9595"/>
    <line x1="843.4422" x2="843.4422" y1="316.8594" y2="318.6592"/>
    <polyline points="840.7425,313.7098 840.2926,314.1597 840.2926,315.9595 841.1925,316.4095"/>
    <polyline points="842.0923,316.4095 842.9923,316.8594 842.9923,318.6592 842.5423,319.1091"/>
    <polyline points="839.3927,314.1597 840.7425,313.7098 841.6424,313.2598 842.5423,313.7098 843.4422,313.7098 843.8921,313.2598"/>
    <line x1="841.1925" x2="842.0923" y1="313.7098" y2="313.7098"/>
    <polyline points="840.7425,313.7098 841.6424,314.1597 842.5423,314.1597 843.4422,313.7098"/>
    <polyline points="843.8921,318.6592 842.5423,319.1091 841.6424,319.559 840.7425,319.1091 839.8427,319.1091 838.9428,319.559"/>
    <line x1="842.0923" x2="841.1925" y1="319.1091" y2="319.1091"/>
    <polyline points="842.5423,319.1091 841.6424,318.6592 840.2926,318.6592 838.9428,319.559"/>
    <polyline points="843.8921,313.2598 843.4422,314.1597 842.5423,315.5095 840.2926,317.7593 838.9428,319.559"/>
    <polygon points="846.7718,310.1102 845.8719,311.0101 846.7718,311.46 847.6717,311.0101"/>
    <polygon points="846.7718,310.5602 846.3218,311.0101 847.2217,311.0101"/>
    <polyline points="846.7718,313.2598 846.3218,313.7098 845.422,314.1597 846.3218,314.6097 846.3218,318.6592 847.2217,319.559 848.1216,318.6592"/>
    <polyline points="846.7718,314.6097 847.2217,314.1597 846.7718,313.7098 846.3218,314.1597 846.7718,314.6097 846.7718,318.6592 847.2217,319.1091"/>
    <polyline points="846.7718,313.2598 847.2217,313.7098 848.1216,314.1597 847.2217,314.6097 847.2217,318.2092 847.6717,318.6592 848.1216,318.6592"/>
    <polyline points="849.4715,314.1597 849.9214,314.1597 850.3713,314.6097 850.3713,318.2092 849.4715,318.6592 849.9214,318.6592 850.8213,319.1091 851.2712,319.559"/>
    <polyline points="850.3713,313.7098 850.8213,314.1597 850.8213,318.6592 851.7212,319.1091"/>
    <polyline points="849.4715,314.1597 850.3713,313.2598 851.2712,314.1597 851.2712,318.2092 852.1711,318.6592 851.2712,319.559"/>
    <polyline points="851.2712,314.6097 852.621,314.1597 853.521,313.7098 853.9709,313.2598 854.4208,313.7098 855.3207,314.1597 855.7707,314.1597 854.8708,314.6097 854.8708,318.2092 855.3207,318.6592 855.7707,318.6592"/>
    <polyline points="853.521,313.7098 854.4208,314.1597 854.4208,318.6592 854.8708,319.1091"/>
    <polyline points="852.621,314.1597 853.071,314.1597 853.9709,314.6097 853.9709,318.6592 854.8708,319.559 855.7707,318.6592"/>
  </g>
</svg>
