<?xml version="1.0" encoding="UTF-8" standalone="no"?>
<svg
   xmlns:dc="http://purl.org/dc/elements/1.1/"
   xmlns:cc="http://creativecommons.org/ns#"
   xmlns:rdf="http://www.w3.org/1999/02/22-rdf-syntax-ns#"
   xmlns:svg="http://www.w3.org/2000/svg"
   xmlns="http://www.w3.org/2000/svg"
   width="210mm"
   height="297mm"
   viewBox="0 0 210 297"
   version="1.1"
   id="svg8">
  <defs
     id="defs2" />
  <metadata
     id="metadata5">
    <rdf:RDF>
      <cc:Work
         rdf:about="">
        <dc:format>image/svg+xml</dc:format>
        <dc:type
           rdf:resource="http://purl.org/dc/dcmitype/StillImage" />
        <dc:title></dc:title>
      </cc:Work>
    </rdf:RDF>
  </metadata>
  <g
     id="layer1">
    <g
       id="g1959">
      <g
         id="g1957" />
      <g
         id="g13972">
        <g
           id="g13970">
          <path
             style="fill:none;stroke:#000000;stroke-linecap:round;stroke-linejoin:round;stroke-width:0.4"
             d="M 13.3155 18.4285 L 14.6488 17.0952 L 16.6488 17.0952 L 17.9821 17.7619 L 19.3155 17.0952 M 15.3155 17.7619 L 17.3155 17.7619 M 13.3155 18.4285 L 14.6488 17.7619 L 15.9821 18.4285 L 17.9821 18.4285 L 19.3155 17.0952 M 16.6488 20.4285 L 15.9821 21.0952 L 15.3155 22.4286 L 15.3155 23.0952 L 13.9821 23.0952 L 13.3155 23.7619 L 13.3155 25.0952 L 13.9821 24.4286 L 15.3155 24.4286 L 15.3155 28.4286 M 15.9821 21.7619 L 15.9821 27.0952 M 13.9821 23.7619 L 15.9821 23.7619 M 16.6488 20.4285 L 16.6488 26.4286 L 15.9821 27.7619 L 15.3155 28.4286 M 14.6488 31.0952 L 16.6488 29.7619 L 19.3155 29.0952 L 22.6488 29.0952 L 25.3154 29.7619 M 15.9821 30.4286 L 17.9821 29.7619 L 22.6488 29.7619 L 24.6488 30.4286 M 14.6488 31.0952 L 17.3155 30.4286 L 21.9821 30.4286 L 23.9821 31.0952 L 25.3154 29.7619 M 19.9821 19.0952 L 19.3155 19.7619 L 18.6488 21.0952 L 18.6488 27.0952 M 19.3155 20.4285 L 19.3155 25.7619 M 19.9821 19.0952 L 19.9821 25.0952 L 19.3155 26.4286 L 18.6488 27.0952 M 19.9821 19.0952 L 21.3155 17.7619 L 22.6488 17.0952 L 23.9821 17.0952 L 25.3154 17.7619 M 23.3154 17.7619 L 23.9821 17.7619 L 24.6488 18.4285 M 21.3155 17.7619 L 22.6488 17.7619 L 23.9821 19.0952 L 25.3154 17.7619 M 22.6488 17.7619 L 22.6488 29.0952"
             id="path13954" />
          <path
             style="fill:none;stroke:#000000;stroke-linecap:round;stroke-linejoin:round;stroke-width:0.4"
             d="M 29.1821 25.0952 L 27.8488 26.4286 L 27.1821 27.7619 L 27.1821 29.0952 L 27.8488 30.4286 L 29.1821 31.0952 L 30.5155 29.7619 L 32.5155 29.0952 M 27.1821 27.7619 L 27.8488 29.0952 L 28.5155 29.7619 L 29.8488 30.4286 M 27.8488 26.4286 L 27.8488 27.7619 L 28.5155 29.0952 L 29.8488 29.7619 L 30.5155 29.7619 M 27.8488 23.7619 L 29.1821 23.7619 L 31.1821 23.0952 L 32.5155 22.4286 L 33.1821 21.7619 L 34.5155 23.0952 L 33.8488 23.7619 L 33.8488 29.0952 L 34.5155 29.7619 L 35.1821 29.7619 M 28.5155 22.4286 L 27.8488 23.0952 L 29.8488 23.0952 M 31.8488 23.0952 L 33.8488 23.0952 L 33.1821 22.4286 L 33.1821 29.7619 L 33.8488 30.4286 M 27.1821 23.0952 L 28.5155 21.7619 L 29.1821 22.4286 L 30.5155 23.0952 L 32.5155 23.7619 L 32.5155 29.7619 L 33.8488 31.0952 L 35.1821 29.7619 M 27.1821 23.0952 L 30.5155 26.4286"
             id="path13956" />
          <path
             style="fill:none;stroke:#000000;stroke-linecap:round;stroke-linejoin:round;stroke-width:0.4"
             d="M 36.7155 23.0952 L 37.3821 23.0952 L 38.0488 23.7619 L 38.0488 29.0952 L 36.7155 29.7619 L 37.3821 29.7619 L 38.7155 30.4286 L 39.3821 31.0952 M 38.0488 22.4286 L 38.7155 23.0952 L 38.7155 29.7619 L 40.0488 30.4286 M 36.7155 23.0952 L 38.0488 21.7619 L 39.3821 23.0952 L 39.3821 29.0952 L 40.7155 29.7619 L 39.3821 31.0952 M 39.3821 23.7619 L 41.3821 23.0952 L 42.7155 22.4286 L 43.3821 21.7619 L 44.7155 23.0952 L 44.7155 29.0952 L 46.0488 29.7619 L 44.7155 31.0952 M 42.7155 22.4286 L 44.0488 23.0952 L 44.0488 29.7619 L 45.3821 30.4286 M 41.3821 23.0952 L 42.0488 23.0952 L 43.3821 23.7619 L 43.3821 29.0952 L 42.7155 29.7619 L 44.0488 30.4286 L 44.7155 31.0952 M 44.7155 23.7619 L 46.7154 23.0952 L 48.0488 22.4286 L 48.7154 21.7619 L 49.3821 22.4286 L 50.7154 23.0952 L 51.3821 23.0952 L 50.0488 23.7619 L 50.0488 29.0952 L 50.7154 29.7619 L 51.3821 29.7619 M 48.0488 22.4286 L 49.3821 23.0952 L 49.3821 29.7619 L 50.0488 30.4286 M 46.7154 23.0952 L 47.3821 23.0952 L 48.7154 23.7619 L 48.7154 29.7619 L 50.0488 31.0952 L 51.3821 29.7619"
             id="path13958" />
          <path
             style="fill:none;stroke:#000000;stroke-linecap:round;stroke-linejoin:round;stroke-width:0.4"
             d="M 53.6488 23.0952 L 53.6488 29.0952 L 52.3155 29.7619 M 54.3155 23.7619 L 54.3155 29.0952 L 56.3155 30.4286 M 54.9821 23.0952 L 54.9821 29.0952 L 56.3155 29.7619 L 56.9821 30.4286 M 52.3155 29.7619 L 53.6488 29.7619 L 54.9821 30.4286 L 55.6488 31.0952 L 56.9821 30.4286 L 58.9821 29.7619 L 60.3155 29.7619 M 53.6488 23.0952 L 54.9821 23.0952 L 56.9821 22.4286 L 58.3155 21.7619 L 58.9821 22.4286 L 60.3155 23.0952 L 61.6488 23.0952 L 60.3155 23.7619 L 60.3155 29.7619 M 57.6488 22.4286 L 59.6488 23.7619 L 59.6488 29.0952 M 56.9821 22.4286 L 57.6488 23.0952 L 58.9821 23.7619 L 58.9821 29.7619"
             id="path13960" />
          <path
             style="fill:none;stroke:#000000;stroke-linecap:round;stroke-linejoin:round;stroke-width:0.4"
             d="M 63.1155 23.0952 L 63.7821 23.0952 L 64.4488 23.7619 L 64.4488 29.0952 L 63.1155 29.7619 L 63.7821 29.7619 L 65.1155 30.4286 L 65.7821 31.0952 M 63.7821 22.4286 L 65.1155 23.0952 L 65.1155 29.7619 L 66.4488 30.4286 M 63.1155 23.0952 L 64.4488 21.7619 L 65.7821 23.0952 L 65.7821 29.0952 L 67.1155 29.7619 L 67.7821 29.7619 L 66.4488 30.4286 L 65.7821 31.0952 M 65.7821 23.0952 L 68.4488 21.7619 L 69.1155 22.4286 L 70.4488 23.0952 L 71.1155 23.0952 M 67.7821 22.4286 L 68.4488 23.0952 L 69.7821 23.0952 M 67.1155 22.4286 L 68.4488 23.7619 L 69.7821 23.7619 L 71.1155 23.0952"
             id="path13962" />
          <path
             style="fill:none;stroke:#000000;stroke-linecap:round;stroke-linejoin:round;stroke-width:0.4"
             d="M 72.1821 23.0952 L 72.1821 25.7619 L 73.5155 26.4286 L 77.5155 26.4286 L 78.8488 27.0952 L 78.8488 29.7619 M 72.8488 23.0952 L 72.8488 25.7619 M 78.1821 27.0952 L 78.1821 29.7619 M 74.1821 22.4286 L 73.5155 23.0952 L 73.5155 25.7619 L 74.8488 26.4286 M 76.1821 26.4286 L 77.5155 27.0952 L 77.5155 29.7619 L 76.8488 30.4286 M 72.1821 23.0952 L 74.1821 22.4286 L 75.5155 21.7619 L 76.8488 22.4286 L 78.1821 22.4286 L 78.8488 21.7619 M 74.8488 22.4286 L 76.1821 22.4286 M 74.1821 22.4286 L 75.5155 23.0952 L 76.8488 23.0952 L 78.1821 22.4286 M 78.8488 29.7619 L 76.8488 30.4286 L 75.5155 31.0952 L 74.1821 30.4286 L 72.8488 30.4286 L 71.5155 31.0952 M 76.1821 30.4286 L 74.8488 30.4286 M 76.8488 30.4286 L 75.5155 29.7619 L 73.5155 29.7619 L 71.5155 31.0952 M 78.8488 21.7619 L 78.1821 23.0952 L 76.8488 25.0952 L 73.5155 28.4286 L 71.5155 31.0952"
             id="path13964" />
          <path
             style="fill:none;stroke:#000000;stroke-linecap:round;stroke-linejoin:round;stroke-width:0.4"
             d="M 83.1155 17.0952 L 81.7821 18.4285 L 83.1155 19.0952 L 84.4488 18.4285 Z M 83.1155 17.7619 L 82.4488 18.4285 L 83.7821 18.4285 Z M 83.1155 21.7619 L 82.4488 22.4286 L 81.1155 23.0952 L 82.4488 23.7619 L 82.4488 29.7619 L 83.7821 31.0952 L 85.1155 29.7619 M 83.1155 23.7619 L 83.7821 23.0952 L 83.1155 22.4286 L 82.4488 23.0952 L 83.1155 23.7619 L 83.1155 29.7619 L 83.7821 30.4286 M 83.1155 21.7619 L 83.7821 22.4286 L 85.1155 23.0952 L 83.7821 23.7619 L 83.7821 29.0952 L 84.4488 29.7619 L 85.1155 29.7619"
             id="path13966" />
          <path
             style="fill:none;stroke:#000000;stroke-linecap:round;stroke-linejoin:round;stroke-width:0.4"
             d="M 87.1155 23.0952 L 87.7821 23.0952 L 88.4488 23.7619 L 88.4488 29.0952 L 87.1155 29.7619 L 87.7821 29.7619 L 89.1155 30.4286 L 89.7821 31.0952 M 88.4488 22.4286 L 89.1155 23.0952 L 89.1155 29.7619 L 90.4488 30.4286 M 87.1155 23.0952 L 88.4488 21.7619 L 89.7821 23.0952 L 89.7821 29.0952 L 91.1155 29.7619 L 89.7821 31.0952 M 89.7821 23.7619 L 91.7821 23.0952 L 93.1155 22.4286 L 93.7821 21.7619 L 94.4488 22.4286 L 95.7821 23.0952 L 96.4488 23.0952 L 95.1155 23.7619 L 95.1155 29.0952 L 95.7821 29.7619 L 96.4488 29.7619 M 93.1155 22.4286 L 94.4488 23.0952 L 94.4488 29.7619 L 95.1155 30.4286 M 91.7821 23.0952 L 92.4488 23.0952 L 93.7821 23.7619 L 93.7821 29.7619 L 95.1155 31.0952 L 96.4488 29.7619"
             id="path13968" />
        </g>
      </g>
    </g>
  </g>
</svg>
