<?xml version="1.0" encoding="utf-8" ?>
<svg xmlns="http://www.w3.org/2000/svg" xmlns:cc="http://creativecommons.org/ns#" xmlns:dc="http://purl.org/dc/elements/1.1/" xmlns:ev="http://www.w3.org/2001/xml-events" xmlns:inkscape="http://www.inkscape.org/namespaces/inkscape" xmlns:rdf="http://www.w3.org/1999/02/22-rdf-syntax-ns#" xmlns:sodipodi="http://sodipodi.sourceforge.net/DTD/sodipodi-0.dtd" xmlns:xlink="http://www.w3.org/1999/xlink" baseProfile="tiny" height="24.0cm" version="1.2" viewBox="0 0 1209.4488188976377 907.0866141732283" width="32.0cm">
  <metadata>
    <rdf:RDF>
      <cc:Work>
        <dc:format>image/svg+xml</dc:format>
        <dc:source>vpype read map/lauren_small.svg translate -- 4.0000cm 13.8500cm pagesize -l 24cmx32cm write map/lauren_small.svg
</dc:source>
        <dc:date>2021-06-21T12:58:44.056643</dc:date>
      </cc:Work>
    </rdf:RDF>
  </metadata>
  <defs/>
  <g fill="none" id="layer1" inkscape:groupmode="layer" inkscape:label="1" stroke="#00f" style="display:inline">
    <polyline points="488.4142,525.2643 490.2139,523.4646 492.9136,523.4646 494.7133,524.3645 496.5132,523.4646"/>
    <line x1="491.1138" x2="493.8135" y1="524.3645" y2="524.3645"/>
    <polyline points="488.4142,525.2643 490.2139,524.3645 492.0136,525.2643 494.7133,525.2643 496.5132,523.4646"/>
    <polyline points="492.9136,527.964 492.0136,528.8639 491.1138,530.6638 491.1138,531.5636 489.314,531.5636 488.4142,532.4635 488.4142,534.2633 489.314,533.3635 491.1138,533.3635 491.1138,538.7628"/>
    <line x1="492.0136" x2="492.0136" y1="529.7639" y2="536.9629"/>
    <line x1="489.314" x2="492.0136" y1="532.4635" y2="532.4635"/>
    <polyline points="492.9136,527.964 492.9136,536.0631 492.0136,537.8628 491.1138,538.7628"/>
    <polyline points="490.2139,542.3622 492.9136,540.5625 496.5132,539.6626 501.0125,539.6626 504.612,540.5625"/>
    <polyline points="492.0136,541.4624 494.7133,540.5625 501.0125,540.5625 503.7122,541.4624"/>
    <polyline points="490.2139,542.3622 493.8135,541.4624 500.1126,541.4624 502.8123,542.3622 504.612,540.5625"/>
    <polyline points="497.413,526.1643 496.5132,527.0642 495.6132,528.8639 495.6132,536.9629"/>
    <line x1="496.5132" x2="496.5132" y1="527.964" y2="535.1632"/>
    <polyline points="497.413,526.1643 497.413,534.2633 496.5132,536.0631 495.6132,536.9629"/>
    <polyline points="497.413,526.1643 499.2128,524.3645 501.0125,523.4646 502.8123,523.4646 504.612,524.3645"/>
    <polyline points="501.9123,524.3645 502.8123,524.3645 503.7122,525.2643"/>
    <polyline points="499.2128,524.3645 501.0125,524.3645 502.8123,526.1643 504.612,524.3645"/>
    <line x1="501.0125" x2="501.0125" y1="524.3645" y2="539.6626"/>
    <polyline points="509.8314,534.2633 508.0317,536.0631 507.1317,537.8628 507.1317,539.6626 508.0317,541.4624 509.8314,542.3622 511.6313,540.5625 514.3309,539.6626"/>
    <polyline points="507.1317,537.8628 508.0317,539.6626 508.9316,540.5625 510.7313,541.4624"/>
    <polyline points="508.0317,536.0631 508.0317,537.8628 508.9316,539.6626 510.7313,540.5625 511.6313,540.5625"/>
    <polyline points="508.0317,532.4635 509.8314,532.4635 512.5311,531.5636 514.3309,530.6638 515.2307,529.7639 517.0306,531.5636 516.1307,532.4635 516.1307,539.6626 517.0306,540.5625 517.9304,540.5625"/>
    <polyline points="508.9316,530.6638 508.0317,531.5636 510.7313,531.5636"/>
    <polyline points="513.431,531.5636 516.1307,531.5636 515.2307,530.6638 515.2307,540.5625 516.1307,541.4624"/>
    <polyline points="507.1317,531.5636 508.9316,529.7639 509.8314,530.6638 511.6313,531.5636 514.3309,532.4635 514.3309,540.5625 516.1307,542.3622 517.9304,540.5625"/>
    <line x1="507.1317" x2="511.6313" y1="531.5636" y2="536.0631"/>
    <polyline points="520.0002,531.5636 520.9,531.5636 521.8,532.4635 521.8,539.6626 520.0002,540.5625"/>
    <polyline points="520.9,530.6638 522.6999,531.5636 522.6999,540.5625 524.4996,541.4624"/>
    <polyline points="520.0002,531.5636 521.8,529.7639 523.5997,531.5636 523.5997,539.6626 525.3995,540.5625 526.2993,540.5625"/>
    <polyline points="520.0002,540.5625 520.9,540.5625 522.6999,541.4624 523.5997,542.3622 524.4996,541.4624 526.2993,540.5625 528.999,539.6626"/>
    <polyline points="528.999,529.7639 529.8989,530.6638 531.6987,531.5636 532.5986,531.5636 530.7989,532.4635 530.7989,539.6626 531.6987,540.5625 532.5986,540.5625"/>
    <polyline points="528.0992,530.6638 529.8989,531.5636 529.8989,540.5625 530.7989,541.4624"/>
    <polyline points="528.999,529.7639 527.1993,531.5636 528.999,532.4635 528.999,540.5625 530.7989,542.3622 532.5986,540.5625"/>
    <polyline points="534.5784,531.5636 535.4782,531.5636 536.3781,532.4635 536.3781,539.6626 534.5784,540.5625 535.4782,540.5625 537.2781,541.4624 538.1779,542.3622"/>
    <polyline points="535.4782,530.6638 537.2781,531.5636 537.2781,540.5625 539.0778,541.4624"/>
    <polyline points="534.5784,531.5636 536.3781,529.7639 538.1779,531.5636 538.1779,539.6626 539.9777,540.5625 540.8775,540.5625 539.0778,541.4624 538.1779,542.3622"/>
    <polyline points="538.1779,531.5636 541.7775,529.7639 542.6774,530.6638 544.4771,531.5636 545.377,531.5636"/>
    <polyline points="540.8775,530.6638 541.7775,531.5636 543.5772,531.5636"/>
    <polyline points="539.9777,530.6638 541.7775,532.4635 543.5772,532.4635 545.377,531.5636"/>
    <polyline points="547.7167,531.5636 547.7167,539.6626 545.917,540.5625 546.8168,540.5625 548.6166,541.4624 549.5164,542.3622"/>
    <polyline points="548.6166,531.5636 548.6166,540.5625 550.4164,541.4624"/>
    <polyline points="549.5164,531.5636 549.5164,539.6626 551.3163,540.5625 552.2161,540.5625 550.4164,541.4624 549.5164,542.3622"/>
    <polyline points="547.7167,531.5636 551.3163,530.6638 553.116,529.7639 555.8157,533.3635 554.016,534.2633 549.5164,536.9629"/>
    <line x1="552.2161" x2="554.9158" y1="530.6638" y2="533.3635"/>
    <polyline points="549.5164,531.5636 551.3163,530.6638 554.016,534.2633"/>
    <polyline points="557.2556,531.5636 558.1554,531.5636 559.0553,532.4635 559.0553,539.6626 557.2556,540.5625 558.1554,540.5625 559.9552,541.4624 560.855,542.3622"/>
    <polyline points="559.0553,530.6638 559.9552,531.5636 559.9552,540.5625 561.755,541.4624"/>
    <polyline points="557.2556,531.5636 559.0553,529.7639 560.855,531.5636 560.855,539.6626 562.6549,540.5625 560.855,542.3622"/>
    <polyline points="560.855,532.4635 563.5547,531.5636 565.3546,530.6638 566.2543,529.7639 567.1543,530.6638 568.954,531.5636 569.8539,531.5636 568.0542,532.4635 568.0542,539.6626 568.954,540.5625 569.8539,540.5625"/>
    <polyline points="565.3546,530.6638 567.1543,531.5636 567.1543,540.5625 568.0542,541.4624"/>
    <polyline points="563.5547,531.5636 564.4546,531.5636 566.2543,532.4635 566.2543,540.5625 568.0542,542.3622 569.8539,540.5625"/>
  </g>
</svg>
