<?xml version="1.0" encoding="UTF-8" standalone="no"?>
<svg
   xmlns:dc="http://purl.org/dc/elements/1.1/"
   xmlns:cc="http://creativecommons.org/ns#"
   xmlns:rdf="http://www.w3.org/1999/02/22-rdf-syntax-ns#"
   xmlns:svg="http://www.w3.org/2000/svg"
   xmlns="http://www.w3.org/2000/svg"
   id="svg8"
   version="1.1"
   viewBox="0 0 210 297"
   height="297mm"
   width="210mm">
  <defs
     id="defs2" />
  <metadata
     id="metadata5">
    <rdf:RDF>
      <cc:Work
         rdf:about="">
        <dc:format>image/svg+xml</dc:format>
        <dc:type
           rdf:resource="http://purl.org/dc/dcmitype/StillImage" />
        <dc:title></dc:title>
      </cc:Work>
    </rdf:RDF>
  </metadata>
  <g
     id="layer1">
    <g
       id="g1959">
      <g
         id="g1957" />
      <g
         id="g14632">
        <g
           id="g14630">
          <path
             style="fill:none;stroke:#000000;stroke-linecap:round;stroke-linejoin:round;stroke-width:0.4"
             d="M 13.3155 18.4285 L 14.6488 17.0952 L 16.6488 17.0952 L 17.9821 17.7619 L 19.3155 17.0952 M 15.3155 17.7619 L 17.3155 17.7619 M 13.3155 18.4285 L 14.6488 17.7619 L 15.9821 18.4285 L 17.9821 18.4285 L 19.3155 17.0952 M 16.6488 20.4285 L 15.9821 21.0952 L 15.3155 22.4286 L 15.3155 23.0952 L 13.9821 23.0952 L 13.3155 23.7619 L 13.3155 25.0952 L 13.9821 24.4286 L 15.3155 24.4286 L 15.3155 28.4286 M 15.9821 21.7619 L 15.9821 27.0952 M 13.9821 23.7619 L 15.9821 23.7619 M 16.6488 20.4285 L 16.6488 26.4286 L 15.9821 27.7619 L 15.3155 28.4286 M 14.6488 31.0952 L 16.6488 29.7619 L 19.3155 29.0952 L 22.6488 29.0952 L 25.3154 29.7619 M 15.9821 30.4286 L 17.9821 29.7619 L 22.6488 29.7619 L 24.6488 30.4286 M 14.6488 31.0952 L 17.3155 30.4286 L 21.9821 30.4286 L 23.9821 31.0952 L 25.3154 29.7619 M 19.9821 19.0952 L 19.3155 19.7619 L 18.6488 21.0952 L 18.6488 27.0952 M 19.3155 20.4285 L 19.3155 25.7619 M 19.9821 19.0952 L 19.9821 25.0952 L 19.3155 26.4286 L 18.6488 27.0952 M 19.9821 19.0952 L 21.3155 17.7619 L 22.6488 17.0952 L 23.9821 17.0952 L 25.3154 17.7619 M 23.3154 17.7619 L 23.9821 17.7619 L 24.6488 18.4285 M 21.3155 17.7619 L 22.6488 17.7619 L 23.9821 19.0952 L 25.3154 17.7619 M 22.6488 17.7619 L 22.6488 29.0952"
             id="path14618" />
          <path
             style="fill:none;stroke:#000000;stroke-linecap:round;stroke-linejoin:round;stroke-width:0.4"
             d="M 29.1821 25.0952 L 27.8488 26.4286 L 27.1821 27.7619 L 27.1821 29.0952 L 27.8488 30.4286 L 29.1821 31.0952 L 30.5155 29.7619 L 32.5155 29.0952 M 27.1821 27.7619 L 27.8488 29.0952 L 28.5155 29.7619 L 29.8488 30.4286 M 27.8488 26.4286 L 27.8488 27.7619 L 28.5155 29.0952 L 29.8488 29.7619 L 30.5155 29.7619 M 27.8488 23.7619 L 29.1821 23.7619 L 31.1821 23.0952 L 32.5155 22.4286 L 33.1821 21.7619 L 34.5155 23.0952 L 33.8488 23.7619 L 33.8488 29.0952 L 34.5155 29.7619 L 35.1821 29.7619 M 28.5155 22.4286 L 27.8488 23.0952 L 29.8488 23.0952 M 31.8488 23.0952 L 33.8488 23.0952 L 33.1821 22.4286 L 33.1821 29.7619 L 33.8488 30.4286 M 27.1821 23.0952 L 28.5155 21.7619 L 29.1821 22.4286 L 30.5155 23.0952 L 32.5155 23.7619 L 32.5155 29.7619 L 33.8488 31.0952 L 35.1821 29.7619 M 27.1821 23.0952 L 30.5155 26.4286"
             id="path14620" />
          <path
             style="fill:none;stroke:#000000;stroke-linecap:round;stroke-linejoin:round;stroke-width:0.4"
             d="M 36.7155 23.0952 L 37.3821 23.0952 L 38.0488 23.7619 L 38.0488 29.0952 L 36.7155 29.7619 M 37.3821 22.4286 L 38.7155 23.0952 L 38.7155 29.7619 L 40.0488 30.4286 M 36.7155 23.0952 L 38.0488 21.7619 L 39.3821 23.0952 L 39.3821 29.0952 L 40.7155 29.7619 L 41.3821 29.7619 M 36.7155 29.7619 L 37.3821 29.7619 L 38.7155 30.4286 L 39.3821 31.0952 L 40.0488 30.4286 L 41.3821 29.7619 L 43.3821 29.0952 M 43.3821 21.7619 L 44.0488 22.4286 L 45.3821 23.0952 L 46.0488 23.0952 L 44.7155 23.7619 L 44.7155 29.0952 L 45.3821 29.7619 L 46.0488 29.7619 M 42.7155 22.4286 L 44.0488 23.0952 L 44.0488 29.7619 L 44.7155 30.4286 M 43.3821 21.7619 L 42.0488 23.0952 L 43.3821 23.7619 L 43.3821 29.7619 L 44.7155 31.0952 L 46.0488 29.7619"
             id="path14622" />
          <path
             style="fill:none;stroke:#000000;stroke-linecap:round;stroke-linejoin:round;stroke-width:0.4"
             d="M 47.5155 23.0952 L 48.1821 23.0952 L 48.8488 23.7619 L 48.8488 29.0952 L 47.5155 29.7619 L 48.1821 29.7619 L 49.5155 30.4286 L 50.1821 31.0952 M 48.1821 22.4286 L 49.5155 23.0952 L 49.5155 29.7619 L 50.8488 30.4286 M 47.5155 23.0952 L 48.8488 21.7619 L 50.1821 23.0952 L 50.1821 29.0952 L 51.5155 29.7619 L 52.1821 29.7619 L 50.8488 30.4286 L 50.1821 31.0952 M 50.1821 23.0952 L 52.8488 21.7619 L 53.5155 22.4286 L 54.8488 23.0952 L 55.5155 23.0952 M 52.1821 22.4286 L 52.8488 23.0952 L 54.1821 23.0952 M 51.5155 22.4286 L 52.8488 23.7619 L 54.1821 23.7619 L 55.5155 23.0952"
             id="path14624" />
          <path
             style="fill:none;stroke:#000000;stroke-linecap:round;stroke-linejoin:round;stroke-width:0.4"
             d="M 57.2488 23.0952 L 57.2488 29.0952 L 55.9155 29.7619 L 56.5821 29.7619 L 57.9155 30.4286 L 58.5821 31.0952 M 57.9155 23.0952 L 57.9155 29.7619 L 59.2488 30.4286 M 58.5821 23.0952 L 58.5821 29.0952 L 59.9155 29.7619 L 60.5821 29.7619 L 59.2488 30.4286 L 58.5821 31.0952 M 57.2488 23.0952 L 59.9155 22.4286 L 61.2488 21.7619 L 63.2488 24.4286 L 61.9155 25.0952 L 58.5821 27.0952 M 60.5821 22.4286 L 62.5821 24.4286 M 58.5821 23.0952 L 59.9155 22.4286 L 61.9155 25.0952"
             id="path14626" />
          <path
             style="fill:none;stroke:#000000;stroke-linecap:round;stroke-linejoin:round;stroke-width:0.4"
             d="M 64.3155 23.0952 L 64.9821 23.0952 L 65.6488 23.7619 L 65.6488 29.0952 L 64.3155 29.7619 L 64.9821 29.7619 L 66.3155 30.4286 L 66.9821 31.0952 M 65.6488 22.4286 L 66.3155 23.0952 L 66.3155 29.7619 L 67.6488 30.4286 M 64.3155 23.0952 L 65.6488 21.7619 L 66.9821 23.0952 L 66.9821 29.0952 L 68.3155 29.7619 L 66.9821 31.0952 M 66.9821 23.7619 L 68.9821 23.0952 L 70.3155 22.4286 L 70.9821 21.7619 L 71.6488 22.4286 L 72.9821 23.0952 L 73.6488 23.0952 L 72.3155 23.7619 L 72.3155 29.0952 L 72.9821 29.7619 L 73.6488 29.7619 M 70.3155 22.4286 L 71.6488 23.0952 L 71.6488 29.7619 L 72.3155 30.4286 M 68.9821 23.0952 L 69.6488 23.0952 L 70.9821 23.7619 L 70.9821 29.7619 L 72.3155 31.0952 L 73.6488 29.7619"
             id="path14628" />
        </g>
      </g>
    </g>
  </g>
</svg>
