<?xml version="1.0" encoding="utf-8" ?>
<svg xmlns="http://www.w3.org/2000/svg" xmlns:cc="http://creativecommons.org/ns#" xmlns:dc="http://purl.org/dc/elements/1.1/" xmlns:ev="http://www.w3.org/2001/xml-events" xmlns:inkscape="http://www.inkscape.org/namespaces/inkscape" xmlns:rdf="http://www.w3.org/1999/02/22-rdf-syntax-ns#" xmlns:sodipodi="http://sodipodi.sourceforge.net/DTD/sodipodi-0.dtd" xmlns:xlink="http://www.w3.org/1999/xlink" baseProfile="tiny" height="24.0cm" version="1.2" viewBox="0 0 1209.4488188976377 907.0866141732283" width="32.0cm">
  <metadata>
    <rdf:RDF>
      <cc:Work>
        <dc:format>image/svg+xml</dc:format>
        <dc:source>vpype read map/orthabuhr_small.svg translate -- 10.4000cm 7.0393cm pagesize -l 24cmx32cm write map/orthabuhr_small.svg
</dc:source>
        <dc:date>2021-06-21T12:58:52.591482</dc:date>
      </cc:Work>
    </rdf:RDF>
  </metadata>
  <defs/>
  <g fill="none" id="layer1" inkscape:groupmode="layer" inkscape:label="1" stroke="#00f" style="display:inline">
    <polyline points="555.1195,266.0523 554.2515,266.4863 553.3836,267.3542 552.9496,268.2221 552.5157,269.5241 552.5157,271.2599 552.9496,272.5618 553.3836,273.4298 554.2515,274.2978 555.1195,274.7317 556.4214,275.1657 557.2893,275.1657 558.5912,274.7317 559.4592,274.2978 560.3271,273.4298 560.7611,272.5618 561.195,271.2599 561.195,269.5241 560.7611,268.2221 560.3271,267.3542 559.4592,266.4863 558.5912,266.0523 558.1573,266.4863 556.8553,267.3542 555.5534,267.7882"/>
    <polyline points="553.3836,267.7882 552.9496,269.0901 552.9496,271.6939 553.3836,272.9958"/>
    <polyline points="555.1195,266.0523 554.2515,266.9202 553.8176,267.7882 553.3836,269.0901 553.3836,271.6939 553.8176,272.9958 554.2515,273.8638 555.1195,274.7317"/>
    <polyline points="560.3271,272.9958 560.7611,271.6939 560.7611,269.0901 559.8931,267.3542 559.4592,266.9202"/>
    <polyline points="558.5912,274.7317 559.4592,273.8638 559.8931,272.9958 560.3271,271.6939 560.3271,269.0901 559.8931,268.2221 559.0252,266.9202 558.1573,266.4863"/>
    <line x1="555.5534" x2="555.5534" y1="267.7882" y2="273.4298"/>
    <line x1="555.9874" x2="555.9874" y1="267.7882" y2="272.5618"/>
    <polyline points="556.4214,267.7882 556.4214,272.1279 555.9874,272.9958 555.5534,273.4298"/>
    <line x1="558.1573" x2="558.1573" y1="266.4863" y2="274.7317"/>
    <polyline points="558.1573,269.0901 559.0252,269.5241 559.4592,269.5241 560.3271,269.0901"/>
    <polyline points="558.1573,271.6939 559.0252,271.2599 559.4592,271.2599 560.3271,271.6939"/>
    <polyline points="562.2366,269.958 562.6706,269.958 563.1045,270.392 563.1045,273.8638 562.2366,274.2978 562.6706,274.2978 563.5385,274.7317 563.9725,275.1657"/>
    <polyline points="562.6706,269.5241 563.5385,269.958 563.5385,274.2978 564.4064,274.7317"/>
    <polyline points="562.2366,269.958 563.1045,269.0901 563.9725,269.958 563.9725,273.8638 564.8404,274.2978 565.2744,274.2978 564.4064,274.7317 563.9725,275.1657"/>
    <polyline points="563.9725,269.958 565.7083,269.0901 566.1423,269.5241 567.0102,269.958 567.4442,269.958"/>
    <polyline points="565.2744,269.5241 565.7083,269.958 566.5763,269.958"/>
    <polyline points="564.8404,269.5241 565.7083,270.392 566.5763,270.392 567.4442,269.958"/>
    <polyline points="568.1386,266.9202 568.5725,267.7882 568.5725,273.8638 567.7046,274.2978 568.1386,274.2978 569.0065,274.7317 569.4405,275.1657"/>
    <polyline points="569.0065,267.7882 568.5725,266.9202 569.0065,266.4863 569.0065,274.2978 569.8744,274.7317"/>
    <polyline points="568.1386,266.9202 569.4405,266.0523 569.4405,273.8638 570.3084,274.2978 570.7424,274.2978 569.8744,274.7317 569.4405,275.1657"/>
    <line x1="567.2706" x2="568.5725" y1="269.0901" y2="269.0901"/>
    <line x1="569.4405" x2="570.7424" y1="269.0901" y2="269.0901"/>
    <polyline points="572.0443,266.9202 572.4782,267.7882 572.4782,273.8638 571.6103,274.2978 572.0443,274.2978 572.9122,274.7317 573.3462,275.1657"/>
    <polyline points="572.9122,267.7882 572.4782,266.9202 572.9122,266.4863 572.9122,274.2978 573.7802,274.7317"/>
    <polyline points="572.0443,266.9202 573.3462,266.0523 573.3462,273.8638 574.2141,274.2978 573.3462,275.1657"/>
    <polyline points="573.3462,270.392 574.6481,269.958 575.5161,269.5241 575.95,269.0901 576.384,269.5241 577.252,269.958 577.6859,269.958 576.818,270.392 576.818,274.2978 575.95,275.1657 575.5161,276.0337"/>
    <polyline points="575.5161,269.5241 576.384,269.958 576.384,274.2978 575.95,275.1657"/>
    <polyline points="574.6481,269.958 575.0821,269.958 575.95,270.392 575.95,274.2978 575.5161,276.0337 575.5161,277.3356 575.95,278.2035"/>
    <line x1="576.3839" x2="575.5161" y1="278.2035" y2="277.3356"/>
    <polyline points="580.3765,271.2599 579.5086,272.1279 579.0746,272.9958 579.0746,273.8638 579.5086,274.7317 580.3765,275.1657 581.2445,274.2978 582.5464,273.8638"/>
    <polyline points="579.0746,272.9958 579.5086,273.8638 579.9425,274.2978 580.8105,274.7317"/>
    <polyline points="579.5086,272.1279 579.5086,272.9958 579.9425,273.8638 580.8105,274.2978 581.2445,274.2978"/>
    <polyline points="579.5086,270.392 580.3765,270.392 581.6784,269.958 582.5464,269.5241 582.9804,269.0901 583.8483,269.958 583.4143,270.392 583.4143,273.8638 583.8483,274.2978 584.2823,274.2978"/>
    <polyline points="579.9425,269.5241 579.5086,269.958 580.8105,269.958"/>
    <polyline points="582.1124,269.958 583.4143,269.958 582.9804,269.5241 582.9804,274.2978 583.4143,274.7317"/>
    <polyline points="579.0746,269.958 579.9425,269.0901 580.3765,269.5241 581.2445,269.958 582.5464,270.392 582.5464,274.2978 583.4143,275.1657 584.2823,274.2978"/>
    <line x1="579.0746" x2="581.2445" y1="269.958" y2="272.1279"/>
    <polyline points="585.7144,266.9202 586.1483,267.7882 586.1483,273.8638 585.2804,274.2978"/>
    <polyline points="586.5823,267.7882 586.1483,266.9202 586.5823,266.4863 586.5823,273.8638 587.8842,274.7317"/>
    <polyline points="585.7144,266.9202 587.0163,266.0523 587.0163,273.8638 587.8842,274.2978 588.3182,274.7317"/>
    <polyline points="585.2804,274.2978 586.1483,274.2978 587.0163,274.7317 587.4502,275.1657 588.3182,274.7317 589.6201,274.2978 590.488,274.2978"/>
    <polyline points="587.0163,270.392 588.3182,269.958 589.1861,269.5241 589.6201,269.0901 590.054,269.5241 590.922,269.958 591.356,269.958 590.488,270.392 590.488,274.2978"/>
    <polyline points="589.1861,269.5241 590.054,269.958 590.054,273.8638"/>
    <polyline points="588.3182,269.958 588.7521,269.958 589.6201,270.392 589.6201,274.2978"/>
    <polyline points="592.3107,269.958 592.7447,269.958 593.1786,270.392 593.1786,273.8638 592.3107,274.2978"/>
    <polyline points="592.7447,269.5241 593.6126,269.958 593.6126,274.2978 594.4805,274.7317"/>
    <polyline points="592.3107,269.958 593.1786,269.0901 594.0466,269.958 594.0466,273.8638 594.9145,274.2978 595.3485,274.2978"/>
    <polyline points="592.3107,274.2978 592.7447,274.2978 593.6126,274.7317 594.0466,275.1657 594.4805,274.7317 595.3485,274.2978 596.6504,273.8638"/>
    <polyline points="596.6504,269.0901 597.0843,269.5241 597.9523,269.958 598.3863,269.958 597.5183,270.392 597.5183,273.8638 597.9523,274.2978 598.3863,274.2978"/>
    <polyline points="596.2164,269.5241 597.0843,269.958 597.0843,274.2978 597.5183,274.7317"/>
    <polyline points="596.6504,269.0901 595.7824,269.958 596.6504,270.392 596.6504,274.2978 597.5183,275.1657 598.3863,274.2978"/>
    <polyline points="599.775,266.9202 600.2089,267.7882 600.2089,273.8638 599.341,274.2978 599.775,274.2978 600.6429,274.7317 601.0769,275.1657"/>
    <polyline points="600.6429,267.7882 600.2089,266.9202 600.6429,266.4863 600.6429,274.2978 601.5108,274.7317"/>
    <polyline points="599.775,266.9202 601.0769,266.0523 601.0769,273.8638 601.9448,274.2978 601.0769,275.1657"/>
    <polyline points="601.0769,270.392 602.3788,269.958 603.2467,269.5241 603.6807,269.0901 604.1147,269.5241 604.9826,269.958 605.4166,269.958 604.5486,270.392 604.5486,274.2978 603.6807,275.1657 603.2467,276.0337"/>
    <polyline points="603.2467,269.5241 604.1147,269.958 604.1147,274.2978 603.6807,275.1657"/>
    <polyline points="602.3788,269.958 602.8127,269.958 603.6807,270.392 603.6807,274.2978 603.2467,276.0337 603.2467,277.3356 603.6807,278.2035"/>
    <line x1="604.1147" x2="603.2467" y1="278.2035" y2="277.3356"/>
    <polyline points="606.3713,269.958 606.8053,269.958 607.2392,270.392 607.2392,273.8638 606.3713,274.2978 606.8053,274.2978 607.6732,274.7317 608.1072,275.1657"/>
    <polyline points="606.8053,269.5241 607.6732,269.958 607.6732,274.2978 608.5411,274.7317"/>
    <polyline points="606.3713,269.958 607.2392,269.0901 608.1072,269.958 608.1072,273.8638 608.9753,274.2978 609.4088,274.2978 608.5411,274.7317 608.1072,275.1657"/>
    <polyline points="608.1072,269.958 609.843,269.0901 610.2772,269.5241 611.1449,269.958 611.5791,269.958"/>
    <polyline points="609.4088,269.5241 609.843,269.958 610.7107,269.958"/>
    <polyline points="608.9753,269.5241 609.843,270.392 610.7107,270.392 611.5791,269.958"/>
  </g>
</svg>
