<?xml version="1.0" encoding="UTF-8" standalone="no"?>
<svg
   xmlns:dc="http://purl.org/dc/elements/1.1/"
   xmlns:cc="http://creativecommons.org/ns#"
   xmlns:rdf="http://www.w3.org/1999/02/22-rdf-syntax-ns#"
   xmlns:svg="http://www.w3.org/2000/svg"
   xmlns="http://www.w3.org/2000/svg"
   id="svg8"
   version="1.1"
   viewBox="0 0 210 297"
   height="297mm"
   width="210mm">
  <defs
     id="defs2" />
  <metadata
     id="metadata5">
    <rdf:RDF>
      <cc:Work
         rdf:about="">
        <dc:format>image/svg+xml</dc:format>
        <dc:type
           rdf:resource="http://purl.org/dc/dcmitype/StillImage" />
        <dc:title></dc:title>
      </cc:Work>
    </rdf:RDF>
  </metadata>
  <g
     id="layer1">
    <g
       id="g1959">
      <g
         id="g1957" />
      <g
         id="g14031">
        <g
           id="g14029">
          <path
             style="fill:none;stroke:#000000;stroke-linecap:round;stroke-linejoin:round;stroke-width:0.4"
             d="M 17.3155 17.0952 L 15.9821 17.7619 L 14.6488 19.0952 L 13.9821 20.4285 L 13.3155 22.4286 L 13.3155 25.0952 L 13.9821 27.0952 L 14.6488 28.4286 L 15.9821 29.7619 L 17.3155 30.4286 L 19.3155 31.0952 L 20.6488 31.0952 L 22.6488 30.4286 L 23.9822 29.7619 L 25.3155 28.4286 L 25.9822 27.0952 L 26.6488 25.0952 L 26.6488 22.4286 L 25.9822 20.4285 L 25.3155 19.0952 L 23.9822 17.7619 L 22.6488 17.0952 L 21.9822 17.7619 L 19.9821 19.0952 L 17.9821 19.7619 M 14.6488 19.7619 L 13.9821 21.7619 L 13.9821 25.7619 L 14.6488 27.7619 M 17.3155 17.0952 L 15.9821 18.4285 L 15.3155 19.7619 L 14.6488 21.7619 L 14.6488 25.7619 L 15.3155 27.7619 L 15.9821 29.0952 L 17.3155 30.4286 M 25.3155 27.7619 L 25.9822 25.7619 L 25.9822 21.7619 L 24.6488 19.0952 L 23.9822 18.4285 M 22.6488 30.4286 L 23.9822 29.0952 L 24.6488 27.7619 L 25.3155 25.7619 L 25.3155 21.7619 L 24.6488 20.4285 L 23.3155 18.4285 L 21.9822 17.7619 M 17.9821 19.7619 L 17.9821 28.4286 M 18.6488 19.7619 L 18.6488 27.0952 M 19.3155 19.7619 L 19.3155 26.4286 L 18.6488 27.7619 L 17.9821 28.4286 M 21.9822 17.7619 L 21.9822 30.4286 M 21.9822 21.7619 L 23.3155 22.4286 L 23.9822 22.4286 L 25.3155 21.7619 M 21.9822 25.7619 L 23.3155 25.0952 L 23.9822 25.0952 L 25.3155 25.7619"
             id="path14011" />
          <path
             style="fill:none;stroke:#000000;stroke-linecap:round;stroke-linejoin:round;stroke-width:0.4"
             d="M 28.2488 23.0952 L 28.9155 23.0952 L 29.5821 23.7619 L 29.5821 29.0952 L 28.2488 29.7619 L 28.9155 29.7619 L 30.2488 30.4286 L 30.9155 31.0952 M 28.9155 22.4286 L 30.2488 23.0952 L 30.2488 29.7619 L 31.5821 30.4286 M 28.2488 23.0952 L 29.5821 21.7619 L 30.9155 23.0952 L 30.9155 29.0952 L 32.2488 29.7619 L 32.9155 29.7619 L 31.5821 30.4286 L 30.9155 31.0952 M 30.9155 23.0952 L 33.5821 21.7619 L 34.2488 22.4286 L 35.5821 23.0952 L 36.2488 23.0952 M 32.9155 22.4286 L 33.5821 23.0952 L 34.9155 23.0952 M 32.2488 22.4286 L 33.5821 23.7619 L 34.9155 23.7619 L 36.2488 23.0952"
             id="path14013" />
          <path
             style="fill:none;stroke:#000000;stroke-linecap:round;stroke-linejoin:round;stroke-width:0.4"
             d="M 37.3155 18.4285 L 37.9821 19.7619 L 37.9821 29.0952 L 36.6488 29.7619 L 37.3155 29.7619 L 38.6488 30.4286 L 39.3155 31.0952 M 38.6488 19.7619 L 37.9821 18.4285 L 38.6488 17.7619 L 38.6488 29.7619 L 39.9821 30.4286 M 37.3155 18.4285 L 39.3155 17.0952 L 39.3155 29.0952 L 40.6488 29.7619 L 41.3155 29.7619 L 39.9821 30.4286 L 39.3155 31.0952 M 35.9821 21.7619 L 37.9821 21.7619 M 39.3155 21.7619 L 41.3155 21.7619"
             id="path14015" />
          <path
             style="fill:none;stroke:#000000;stroke-linecap:round;stroke-linejoin:round;stroke-width:0.4"
             d="M 43.3155 18.4285 L 43.9821 19.7619 L 43.9821 29.0952 L 42.6488 29.7619 L 43.3155 29.7619 L 44.6488 30.4286 L 45.3155 31.0952 M 44.6488 19.7619 L 43.9821 18.4285 L 44.6488 17.7619 L 44.6488 29.7619 L 45.9821 30.4286 M 43.3155 18.4285 L 45.3155 17.0952 L 45.3155 29.0952 L 46.6488 29.7619 L 45.3155 31.0952 M 45.3155 23.7619 L 47.3155 23.0952 L 48.6488 22.4286 L 49.3155 21.7619 L 49.9821 22.4286 L 51.3155 23.0952 L 51.9822 23.0952 L 50.6488 23.7619 L 50.6488 29.7619 L 49.3155 31.0952 L 48.6488 32.4286 M 48.6488 22.4286 L 49.9821 23.0952 L 49.9821 29.7619 L 49.3155 31.0952 M 47.3155 23.0952 L 47.9821 23.0952 L 49.3155 23.7619 L 49.3155 29.7619 L 48.6488 32.4286 L 48.6488 34.4286 L 49.3155 35.7619 L 49.9821 35.7619 L 48.6488 34.4286"
             id="path14017" />
          <path
             style="fill:none;stroke:#000000;stroke-linecap:round;stroke-linejoin:round;stroke-width:0.4"
             d="M 56.1155 25.0952 L 54.7821 26.4286 L 54.1155 27.7619 L 54.1155 29.0952 L 54.7821 30.4286 L 56.1155 31.0952 L 57.4488 29.7619 L 59.4488 29.0952 M 54.1155 27.7619 L 54.7821 29.0952 L 55.4488 29.7619 L 56.7821 30.4286 M 54.7821 26.4286 L 54.7821 27.7619 L 55.4488 29.0952 L 56.7821 29.7619 L 57.4488 29.7619 M 54.7821 23.7619 L 56.1155 23.7619 L 58.1155 23.0952 L 59.4488 22.4286 L 60.1155 21.7619 L 61.4488 23.0952 L 60.7821 23.7619 L 60.7821 29.0952 L 61.4488 29.7619 L 62.1155 29.7619 M 55.4488 22.4286 L 54.7821 23.0952 L 56.7821 23.0952 M 58.7821 23.0952 L 60.7821 23.0952 L 60.1155 22.4286 L 60.1155 29.7619 L 60.7821 30.4286 M 54.1155 23.0952 L 55.4488 21.7619 L 56.1155 22.4286 L 57.4488 23.0952 L 59.4488 23.7619 L 59.4488 29.7619 L 60.7821 31.0952 L 62.1155 29.7619 M 54.1155 23.0952 L 57.4488 26.4286"
             id="path14019" />
          <path
             style="fill:none;stroke:#000000;stroke-linecap:round;stroke-linejoin:round;stroke-width:0.4"
             d="M 64.3155 18.4285 L 64.9821 19.7619 L 64.9821 29.0952 L 63.6488 29.7619 M 65.6488 19.7619 L 64.9821 18.4285 L 65.6488 17.7619 L 65.6488 29.0952 L 67.6488 30.4286 M 64.3155 18.4285 L 66.3155 17.0952 L 66.3155 29.0952 L 67.6488 29.7619 L 68.3155 30.4286 M 63.6488 29.7619 L 64.9821 29.7619 L 66.3155 30.4286 L 66.9821 31.0952 L 68.3155 30.4286 L 70.3155 29.7619 L 71.6488 29.7619 M 66.3155 23.7619 L 68.3155 23.0952 L 69.6488 22.4286 L 70.3155 21.7619 L 70.9821 22.4286 L 72.3155 23.0952 L 72.9822 23.0952 L 71.6488 23.7619 L 71.6488 29.7619 M 69.6488 22.4286 L 70.9821 23.0952 L 70.9821 29.0952 M 68.3155 23.0952 L 68.9821 23.0952 L 70.3155 23.7619 L 70.3155 29.7619"
             id="path14021" />
          <path
             style="fill:none;stroke:#000000;stroke-linecap:round;stroke-linejoin:round;stroke-width:0.4"
             d="M 74.4488 23.0952 L 75.1155 23.0952 L 75.7821 23.7619 L 75.7821 29.0952 L 74.4488 29.7619 M 75.1155 22.4286 L 76.4488 23.0952 L 76.4488 29.7619 L 77.7821 30.4286 M 74.4488 23.0952 L 75.7821 21.7619 L 77.1155 23.0952 L 77.1155 29.0952 L 78.4488 29.7619 L 79.1155 29.7619 M 74.4488 29.7619 L 75.1155 29.7619 L 76.4488 30.4286 L 77.1155 31.0952 L 77.7821 30.4286 L 79.1155 29.7619 L 81.1155 29.0952 M 81.1155 21.7619 L 81.7821 22.4286 L 83.1155 23.0952 L 83.7822 23.0952 L 82.4488 23.7619 L 82.4488 29.0952 L 83.1155 29.7619 L 83.7822 29.7619 M 80.4488 22.4286 L 81.7821 23.0952 L 81.7821 29.7619 L 82.4488 30.4286 M 81.1155 21.7619 L 79.7821 23.0952 L 81.1155 23.7619 L 81.1155 29.7619 L 82.4488 31.0952 L 83.7822 29.7619"
             id="path14023" />
          <path
             style="fill:none;stroke:#000000;stroke-linecap:round;stroke-linejoin:round;stroke-width:0.4"
             d="M 85.9155 18.4285 L 86.5821 19.7619 L 86.5821 29.0952 L 85.2488 29.7619 L 85.9155 29.7619 L 87.2488 30.4286 L 87.9155 31.0952 M 87.2488 19.7619 L 86.5821 18.4285 L 87.2488 17.7619 L 87.2488 29.7619 L 88.5821 30.4286 M 85.9155 18.4285 L 87.9155 17.0952 L 87.9155 29.0952 L 89.2488 29.7619 L 87.9155 31.0952 M 87.9155 23.7619 L 89.9155 23.0952 L 91.2488 22.4286 L 91.9155 21.7619 L 92.5821 22.4286 L 93.9155 23.0952 L 94.5822 23.0952 L 93.2488 23.7619 L 93.2488 29.7619 L 91.9155 31.0952 L 91.2488 32.4286 M 91.2488 22.4286 L 92.5821 23.0952 L 92.5821 29.7619 L 91.9155 31.0952 M 89.9155 23.0952 L 90.5821 23.0952 L 91.9155 23.7619 L 91.9155 29.7619 L 91.2488 32.4286 L 91.2488 34.4286 L 91.9155 35.7619 L 92.5821 35.7619 L 91.2488 34.4286"
             id="path14025" />
          <path
             style="fill:none;stroke:#000000;stroke-linecap:round;stroke-linejoin:round;stroke-width:0.4"
             d="M 96.0488 23.0952 L 96.7155 23.0952 L 97.3821 23.7619 L 97.3821 29.0952 L 96.0488 29.7619 L 96.7155 29.7619 L 98.0488 30.4286 L 98.7155 31.0952 M 96.7155 22.4286 L 98.0488 23.0952 L 98.0488 29.7619 L 99.3821 30.4286 M 96.0488 23.0952 L 97.3821 21.7619 L 98.7155 23.0952 L 98.7155 29.0952 L 100.049 29.7619 L 100.715 29.7619 L 99.3821 30.4286 L 98.7155 31.0952 M 98.7155 23.0952 L 101.382 21.7619 L 102.049 22.4286 L 103.382 23.0952 L 104.049 23.0952 M 100.715 22.4286 L 101.382 23.0952 L 102.715 23.0952 M 100.049 22.4286 L 101.382 23.7619 L 102.715 23.7619 L 104.049 23.0952"
             id="path14027" />
        </g>
      </g>
    </g>
  </g>
</svg>
