<?xml version="1.0" encoding="UTF-8" standalone="no"?>
<svg
   xmlns:dc="http://purl.org/dc/elements/1.1/"
   xmlns:cc="http://creativecommons.org/ns#"
   xmlns:rdf="http://www.w3.org/1999/02/22-rdf-syntax-ns#"
   xmlns:svg="http://www.w3.org/2000/svg"
   xmlns="http://www.w3.org/2000/svg"
   id="svg8"
   version="1.1"
   viewBox="0 0 210 297"
   height="297mm"
   width="210mm">
  <defs
     id="defs2" />
  <metadata
     id="metadata5">
    <rdf:RDF>
      <cc:Work
         rdf:about="">
        <dc:format>image/svg+xml</dc:format>
        <dc:type
           rdf:resource="http://purl.org/dc/dcmitype/StillImage" />
        <dc:title></dc:title>
      </cc:Work>
    </rdf:RDF>
  </metadata>
  <g
     id="layer1">
    <g
       id="g1959">
      <g
         id="g1957" />
      <g
         id="g14784">
        <g
           id="g14782">
          <path
             style="fill:none;stroke:#000000;stroke-linecap:round;stroke-linejoin:round;stroke-width:0.4"
             d="M 13.9821 17.0952 L 14.6488 17.7619 L 15.3155 19.0952 L 15.3155 23.0952 L 13.9821 23.0952 L 13.3155 23.7619 L 13.3155 25.0952 L 13.9821 24.4286 L 15.3155 24.4286 L 15.3155 29.7619 L 13.3155 31.0952 L 15.3155 30.4286 L 15.3155 35.7619 L 16.6488 34.4286 M 15.3155 18.4285 L 15.9821 19.7619 L 15.9821 34.4286 M 13.9821 23.7619 L 15.9821 23.7619 M 13.9821 17.0952 L 15.3155 17.7619 L 15.9821 18.4285 L 16.6488 19.7619 L 16.6488 34.4286 M 16.6488 20.4285 L 18.6488 19.0952 L 21.3155 17.0952 L 23.9821 19.7619 L 23.9821 29.0952 M 21.3155 17.7619 L 23.3154 19.7619 L 23.3154 29.0952 M 19.9821 18.4285 L 20.6488 18.4285 L 22.6488 20.4285 L 22.6488 29.7619 M 18.6488 29.0952 L 20.6488 29.0952 L 22.6488 29.7619 M 19.3155 29.7619 L 20.6488 29.7619 L 21.9821 30.4286 M 18.6488 30.4286 L 19.9821 30.4286 L 21.3155 31.0952 L 22.6488 29.7619 L 23.9821 29.0952 M 18.6488 19.0952 L 18.6488 33.7619 M 18.6488 21.7619 L 19.9821 22.4286 L 21.3155 22.4286 L 22.6488 21.7619 M 18.6488 25.7619 L 19.9821 25.0952 L 21.3155 25.0952 L 22.6488 25.7619"
             id="path14760" />
          <path
             style="fill:none;stroke:#000000;stroke-linecap:round;stroke-linejoin:round;stroke-width:0.4"
             d="M 27.8488 23.0952 L 27.8488 29.0952 L 26.5155 29.7619 M 28.5155 23.7619 L 28.5155 29.0952 L 30.5155 30.4286 M 29.1821 23.0952 L 29.1821 29.0952 L 30.5155 29.7619 L 31.1821 30.4286 M 26.5155 29.7619 L 27.8488 29.7619 L 29.1821 30.4286 L 29.8488 31.0952 L 31.1821 30.4286 L 33.1821 29.7619 L 34.5155 29.7619 M 27.8488 23.0952 L 29.1821 23.0952 L 31.1821 22.4286 L 32.5155 21.7619 L 33.1821 22.4286 L 34.5155 23.0952 L 35.8488 23.0952 L 34.5155 23.7619 L 34.5155 29.7619 M 31.8488 22.4286 L 33.8488 23.7619 L 33.8488 29.0952 M 31.1821 22.4286 L 31.8488 23.0952 L 33.1821 23.7619 L 33.1821 29.7619"
             id="path14762" />
          <path
             style="fill:none;stroke:#000000;stroke-linecap:round;stroke-linejoin:round;stroke-width:0.4"
             d="M 37.3155 23.0952 L 37.9821 23.0952 L 38.6488 23.7619 L 38.6488 29.0952 L 37.3155 29.7619 L 37.9821 29.7619 L 39.3155 30.4286 L 39.9821 31.0952 M 37.9821 22.4286 L 39.3155 23.0952 L 39.3155 29.7619 L 40.6488 30.4286 M 37.3155 23.0952 L 38.6488 21.7619 L 39.9821 23.0952 L 39.9821 29.0952 L 41.3155 29.7619 L 41.9821 29.7619 L 40.6488 30.4286 L 39.9821 31.0952 M 39.9821 23.0952 L 42.6488 21.7619 L 43.3155 22.4286 L 44.6488 23.0952 L 45.3155 23.0952 M 41.9821 22.4286 L 42.6488 23.0952 L 43.9821 23.0952 M 41.3155 22.4286 L 42.6488 23.7619 L 43.9821 23.7619 L 45.3155 23.0952"
             id="path14764" />
          <path
             style="fill:none;stroke:#000000;stroke-linecap:round;stroke-linejoin:round;stroke-width:0.4"
             d="M 46.3821 18.4285 L 47.0488 19.7619 L 47.0488 29.0952 L 45.7155 29.7619 L 46.3821 29.7619 L 47.7155 30.4286 L 48.3821 31.0952 M 47.7155 19.7619 L 47.0488 18.4285 L 47.7155 17.7619 L 47.7155 29.7619 L 49.0488 30.4286 M 46.3821 18.4285 L 48.3821 17.0952 L 48.3821 29.0952 L 49.7155 29.7619 L 50.3821 29.7619 L 49.0488 30.4286 L 48.3821 31.0952 M 45.0488 21.7619 L 47.0488 21.7619 M 48.3821 21.7619 L 50.3821 21.7619"
             id="path14766" />
          <path
             style="fill:none;stroke:#000000;stroke-linecap:round;stroke-linejoin:round;stroke-width:0.4"
             d="M 53.0488 23.0952 L 53.0488 29.0952 L 51.7155 29.7619 M 53.7155 23.7619 L 53.7155 29.0952 L 55.7155 30.4286 M 54.3821 23.0952 L 54.3821 29.0952 L 55.7155 29.7619 L 56.3821 30.4286 M 51.7155 29.7619 L 53.0488 29.7619 L 54.3821 30.4286 L 55.0488 31.0952 L 56.3821 30.4286 L 58.3821 29.7619 L 59.7155 29.7619 M 53.0488 23.0952 L 54.3821 23.0952 L 56.3821 22.4286 L 57.7155 21.7619 L 58.3821 22.4286 L 59.7155 23.0952 L 61.0488 23.0952 L 59.7155 23.7619 L 59.7155 29.7619 M 57.0488 22.4286 L 59.0488 23.7619 L 59.0488 29.0952 M 56.3821 22.4286 L 57.0488 23.0952 L 58.3821 23.7619 L 58.3821 29.7619"
             id="path14768" />
          <path
             style="fill:none;stroke:#000000;stroke-linecap:round;stroke-linejoin:round;stroke-width:0.4"
             d="M 71.0488 18.4285 L 72.3821 17.0952 L 74.3821 17.0952 L 75.7155 17.7619 L 77.0488 17.0952 M 73.0488 17.7619 L 75.0488 17.7619 M 71.0488 18.4285 L 72.3821 17.7619 L 73.7155 18.4285 L 75.7155 18.4285 L 77.0488 17.0952 M 74.3821 20.4285 L 73.7155 21.0952 L 73.0488 22.4286 L 73.0488 23.0952 L 71.7155 23.0952 L 71.0488 23.7619 L 71.0488 25.0952 L 71.7155 24.4286 L 73.0488 24.4286 L 73.0488 28.4286 M 73.7155 21.7619 L 73.7155 27.0952 M 71.7155 23.7619 L 73.7155 23.7619 M 74.3821 20.4285 L 74.3821 26.4286 L 73.7155 27.7619 L 73.0488 28.4286 M 72.3821 31.0952 L 74.3821 29.7619 L 77.0488 29.0952 L 80.3822 29.0952 L 83.0488 29.7619 M 73.7155 30.4286 L 75.7155 29.7619 L 80.3822 29.7619 L 82.3822 30.4286 M 72.3821 31.0952 L 75.0488 30.4286 L 79.7155 30.4286 L 81.7155 31.0952 L 83.0488 29.7619 M 77.7155 19.0952 L 77.0488 19.7619 L 76.3821 21.0952 L 76.3821 27.0952 M 77.0488 20.4285 L 77.0488 25.7619 M 77.7155 19.0952 L 77.7155 25.0952 L 77.0488 26.4286 L 76.3821 27.0952 M 77.7155 19.0952 L 79.0488 17.7619 L 80.3822 17.0952 L 81.7155 17.0952 L 83.0488 17.7619 M 81.0488 17.7619 L 81.7155 17.7619 L 82.3822 18.4285 M 79.0488 17.7619 L 80.3822 17.7619 L 81.7155 19.0952 L 83.0488 17.7619 M 80.3822 17.7619 L 80.3822 29.0952"
             id="path14770" />
          <path
             style="fill:none;stroke:#000000;stroke-linecap:round;stroke-linejoin:round;stroke-width:0.4"
             d="M 85.5821 23.0952 L 85.5821 29.0952 L 84.2488 29.7619 L 84.9155 29.7619 L 86.2488 30.4286 L 86.9155 31.0952 M 86.2488 23.0952 L 86.2488 29.7619 L 87.5821 30.4286 M 86.9155 23.0952 L 86.9155 29.0952 L 88.2488 29.7619 L 88.9155 29.7619 L 87.5821 30.4286 L 86.9155 31.0952 M 85.5821 23.0952 L 88.2488 22.4286 L 89.5821 21.7619 L 91.5821 24.4286 L 90.2488 25.0952 L 86.9155 27.0952 M 88.9155 22.4286 L 90.9155 24.4286 M 86.9155 23.0952 L 88.2488 22.4286 L 90.2488 25.0952"
             id="path14772" />
          <path
             style="fill:none;stroke:#000000;stroke-linecap:round;stroke-linejoin:round;stroke-width:0.4"
             d="M 92.6488 23.0952 L 93.3155 23.0952 L 93.9821 23.7619 L 93.9821 29.0952 L 92.6488 29.7619 L 93.3155 29.7619 L 94.6488 30.4286 L 95.3155 31.0952 M 93.9821 22.4286 L 94.6488 23.0952 L 94.6488 29.7619 L 95.9821 30.4286 M 92.6488 23.0952 L 93.9821 21.7619 L 95.3155 23.0952 L 95.3155 29.0952 L 96.6488 29.7619 L 95.3155 31.0952 M 95.3155 23.7619 L 97.3155 23.0952 L 98.6488 22.4286 L 99.3155 21.7619 L 100.649 23.0952 L 100.649 29.0952 L 101.982 29.7619 L 100.649 31.0952 M 98.6488 22.4286 L 99.9821 23.0952 L 99.9821 29.7619 L 101.315 30.4286 M 97.3155 23.0952 L 97.9821 23.0952 L 99.3155 23.7619 L 99.3155 29.0952 L 98.6488 29.7619 L 99.9821 30.4286 L 100.649 31.0952 M 100.649 23.7619 L 102.649 23.0952 L 103.982 22.4286 L 104.649 21.7619 L 105.315 22.4286 L 106.649 23.0952 L 107.315 23.0952 L 105.982 23.7619 L 105.982 29.0952 L 106.649 29.7619 L 107.315 29.7619 M 103.982 22.4286 L 105.315 23.0952 L 105.315 29.7619 L 105.982 30.4286 M 102.649 23.0952 L 103.315 23.0952 L 104.649 23.7619 L 104.649 29.7619 L 105.982 31.0952 L 107.315 29.7619"
             id="path14774" />
          <path
             style="fill:none;stroke:#000000;stroke-linecap:round;stroke-linejoin:round;stroke-width:0.4"
             d="M 109.582 23.0952 L 109.582 29.0952 L 108.249 29.7619 M 110.249 23.7619 L 110.249 29.0952 L 112.249 30.4286 M 110.915 23.0952 L 110.915 29.0952 L 112.249 29.7619 L 112.915 30.4286 M 108.249 29.7619 L 109.582 29.7619 L 110.915 30.4286 L 111.582 31.0952 L 112.915 30.4286 L 114.915 29.7619 L 116.249 29.7619 M 109.582 23.0952 L 110.915 23.0952 L 112.915 22.4286 L 114.249 21.7619 L 114.915 22.4286 L 116.249 23.0952 L 117.582 23.0952 L 116.249 23.7619 L 116.249 29.7619 M 113.582 22.4286 L 115.582 23.7619 L 115.582 29.0952 M 112.915 22.4286 L 113.582 23.0952 L 114.915 23.7619 L 114.915 29.7619"
             id="path14776" />
          <path
             style="fill:none;stroke:#000000;stroke-linecap:round;stroke-linejoin:round;stroke-width:0.4"
             d="M 120.382 23.0952 L 120.382 29.0952 L 119.049 29.7619 M 121.049 23.7619 L 121.049 29.0952 L 123.049 30.4286 M 121.715 23.0952 L 121.715 29.0952 L 123.049 29.7619 L 123.715 30.4286 M 119.049 29.7619 L 120.382 29.7619 L 121.715 30.4286 L 122.382 31.0952 L 123.715 30.4286 L 125.715 29.7619 L 127.049 29.7619 M 120.382 23.0952 L 121.715 23.0952 L 123.715 22.4286 L 125.049 21.7619 L 125.715 22.4286 L 127.049 23.0952 L 128.382 23.0952 L 127.049 23.7619 L 127.049 29.7619 M 124.382 22.4286 L 126.382 23.7619 L 126.382 29.0952 M 123.715 22.4286 L 124.382 23.0952 L 125.715 23.7619 L 125.715 29.7619"
             id="path14778" />
          <path
             style="fill:none;stroke:#000000;stroke-linecap:round;stroke-linejoin:round;stroke-width:0.4"
             d="M 129.849 23.0952 L 130.515 23.0952 L 131.182 23.7619 L 131.182 29.0952 L 129.849 29.7619 L 130.515 29.7619 L 131.849 30.4286 L 132.515 31.0952 M 130.515 22.4286 L 131.849 23.0952 L 131.849 29.7619 L 133.182 30.4286 M 129.849 23.0952 L 131.182 21.7619 L 132.515 23.0952 L 132.515 29.0952 L 133.849 29.7619 L 134.515 29.7619 L 133.182 30.4286 L 132.515 31.0952 M 132.515 23.0952 L 135.182 21.7619 L 135.849 22.4286 L 137.182 23.0952 L 137.849 23.0952 M 134.515 22.4286 L 135.182 23.0952 L 136.515 23.0952 M 133.849 22.4286 L 135.182 23.7619 L 136.515 23.7619 L 137.849 23.0952"
             id="path14780" />
        </g>
      </g>
    </g>
  </g>
</svg>
