<?xml version="1.0" encoding="utf-8" ?>
<svg xmlns="http://www.w3.org/2000/svg" xmlns:cc="http://creativecommons.org/ns#" xmlns:dc="http://purl.org/dc/elements/1.1/" xmlns:ev="http://www.w3.org/2001/xml-events" xmlns:inkscape="http://www.inkscape.org/namespaces/inkscape" xmlns:rdf="http://www.w3.org/1999/02/22-rdf-syntax-ns#" xmlns:sodipodi="http://sodipodi.sourceforge.net/DTD/sodipodi-0.dtd" xmlns:xlink="http://www.w3.org/1999/xlink" baseProfile="tiny" height="24.0cm" version="1.2" viewBox="0 0 1209.4488188976377 907.0866141732283" width="32.0cm">
  <metadata>
    <rdf:RDF>
      <cc:Work>
        <dc:format>image/svg+xml</dc:format>
        <dc:source>vpype read map/porto_lemoor_small.svg translate -- 4.6500cm 14.2750cm pagesize -l 24cmx32cm write map/porto_lemoor_small.svg
</dc:source>
        <dc:date>2021-06-21T12:59:22.641081</dc:date>
      </cc:Work>
    </rdf:RDF>
  </metadata>
  <defs/>
  <g fill="none" id="layer1" inkscape:groupmode="layer" inkscape:label="1" stroke="#00f" style="display:inline">
    <polyline points="321.0709,539.5276 321.5434,540.0001 322.0158,540.9449 322.0158,543.7796 321.0709,543.7796 320.5985,544.252 320.5985,545.1969 321.0709,544.7245 322.0158,544.7245 322.0158,548.504 320.5985,549.4488 322.0158,548.9764 322.0158,552.7559 322.9607,551.8111"/>
    <polyline points="322.0158,540.4725 322.4882,541.4174 322.4882,551.8111"/>
    <line x1="321.0709" x2="322.4882" y1="544.252" y2="544.252"/>
    <polyline points="321.0709,539.5276 322.0158,540.0001 322.4882,540.4725 322.9607,541.4174 322.9607,551.8111"/>
    <polyline points="322.9607,541.8898 324.378,540.9449 326.2678,539.5276 328.1575,541.4174 328.1575,548.0315"/>
    <polyline points="326.2678,540.0001 327.685,541.4174 327.685,548.0315"/>
    <polyline points="325.3229,540.4725 325.7953,540.4725 327.2127,541.8898 327.2127,548.504"/>
    <polyline points="324.378,548.0315 325.7953,548.0315 327.2127,548.504"/>
    <polyline points="324.8505,548.504 325.7953,548.504 326.7402,548.9764"/>
    <polyline points="324.378,548.9764 325.3229,548.9764 326.2678,549.4488 327.2127,548.504 328.1575,548.0315"/>
    <line x1="324.378" x2="324.378" y1="540.9449" y2="551.3386"/>
    <polyline points="324.378,542.8347 325.3229,543.3072 326.2678,543.3072 327.2127,542.8347"/>
    <polyline points="324.378,545.6693 325.3229,545.1969 326.2678,545.1969 327.2127,545.6693"/>
    <polyline points="330.8977,543.7796 330.8977,548.0315 329.9528,548.504"/>
    <polyline points="331.3701,544.252 331.3701,548.0315 332.7875,548.9764"/>
    <polyline points="331.8425,543.7796 331.8425,548.0315 332.7875,548.504 333.2599,548.9764"/>
    <polyline points="329.9528,548.504 330.8977,548.504 331.8425,548.9764 332.315,549.4488 333.2599,548.9764 334.6772,548.504 335.6221,548.504"/>
    <polyline points="330.8977,543.7796 331.8425,543.7796 333.2599,543.3072 334.2048,542.8347 334.6772,543.3072 335.6221,543.7796 336.567,543.7796 335.6221,544.252 335.6221,548.504"/>
    <polyline points="333.7323,543.3072 335.1496,544.252 335.1496,548.0315"/>
    <polyline points="333.2599,543.3072 333.7323,543.7796 334.6772,544.252 334.6772,548.504"/>
    <polyline points="337.6064,543.7796 338.0787,543.7796 338.5512,544.252 338.5512,548.0315 337.6064,548.504 338.0787,548.504 339.0237,548.9764 339.4961,549.4488"/>
    <polyline points="338.0787,543.3072 339.0237,543.7796 339.0237,548.504 339.9685,548.9764"/>
    <polyline points="337.6064,543.7796 338.5512,542.8347 339.4961,543.7796 339.4961,548.0315 340.441,548.504 340.9134,548.504 339.9685,548.9764 339.4961,549.4488"/>
    <polyline points="339.4961,543.7796 341.3859,542.8347 341.8583,543.3072 342.8032,543.7796 343.2756,543.7796"/>
    <polyline points="340.9134,543.3072 341.3859,543.7796 342.3307,543.7796"/>
    <polyline points="340.441,543.3072 341.3859,544.252 342.3307,544.252 343.2756,543.7796"/>
    <polyline points="344.0315,540.4725 344.504,541.4174 344.504,548.0315 343.5591,548.504 344.0315,548.504 344.9764,548.9764 345.4488,549.4488"/>
    <polyline points="344.9764,541.4174 344.504,540.4725 344.9764,540.0001 344.9764,548.504 345.9213,548.9764"/>
    <polyline points="344.0315,540.4725 345.4488,539.5276 345.4488,548.0315 346.3937,548.504 346.8661,548.504 345.9213,548.9764 345.4488,549.4488"/>
    <line x1="343.0866" x2="344.504" y1="542.8347" y2="542.8347"/>
    <line x1="345.4488" x2="346.8661" y1="542.8347" y2="542.8347"/>
    <polyline points="348.7559,543.7796 348.7559,548.0315 347.8111,548.504"/>
    <polyline points="349.2284,544.252 349.2284,548.0315 350.6457,548.9764"/>
    <polyline points="349.7008,543.7796 349.7008,548.0315 350.6457,548.504 351.1181,548.9764"/>
    <polyline points="347.8111,548.504 348.7559,548.504 349.7008,548.9764 350.1732,549.4488 351.1181,548.9764 352.5354,548.504 353.4803,548.504"/>
    <polyline points="348.7559,543.7796 349.7008,543.7796 351.1181,543.3072 352.063,542.8347 352.5354,543.3072 353.4803,543.7796 354.4252,543.7796 353.4803,544.252 353.4803,548.504"/>
    <polyline points="351.5906,543.3072 353.0079,544.252 353.0079,548.0315"/>
    <polyline points="351.1181,543.3072 351.5906,543.7796 352.5354,544.252 352.5354,548.504"/>
    <polyline points="361.5118,540.4725 362.4567,539.5276 363.874,539.5276 364.8189,540.0001 365.7638,539.5276"/>
    <line x1="362.9291" x2="364.3464" y1="540.0001" y2="540.0001"/>
    <polyline points="361.5118,540.4725 362.4567,540.0001 363.4016,540.4725 364.8189,540.4725 365.7638,539.5276"/>
    <polyline points="363.874,541.8898 363.4016,542.3622 362.9291,543.3072 362.9291,543.7796 361.9843,543.7796 361.5118,544.252 361.5118,545.1969 361.9843,544.7245 362.9291,544.7245 362.9291,547.5591"/>
    <line x1="363.4016" x2="363.4016" y1="542.8347" y2="546.6142"/>
    <line x1="361.9843" x2="363.4016" y1="544.252" y2="544.252"/>
    <polyline points="363.874,541.8898 363.874,546.1418 363.4016,547.0867 362.9291,547.5591"/>
    <polyline points="362.4567,549.4488 363.874,548.504 365.7638,548.0315 368.126,548.0315 370.0157,548.504"/>
    <polyline points="363.4016,548.9764 364.8189,548.504 368.126,548.504 369.5433,548.9764"/>
    <polyline points="362.4567,549.4488 364.3464,548.9764 367.6535,548.9764 369.0709,549.4488 370.0157,548.504"/>
    <polyline points="366.2362,540.9449 365.7638,541.4174 365.2913,542.3622 365.2913,546.6142"/>
    <line x1="365.7638" x2="365.7638" y1="541.8898" y2="545.6693"/>
    <polyline points="366.2362,540.9449 366.2362,545.1969 365.7638,546.1418 365.2913,546.6142"/>
    <polyline points="366.2362,540.9449 367.1811,540.0001 368.126,539.5276 369.0709,539.5276 370.0157,540.0001"/>
    <polyline points="368.5984,540.0001 369.0709,540.0001 369.5433,540.4725"/>
    <polyline points="367.1811,540.0001 368.126,540.0001 369.0709,540.9449 370.0157,540.0001"/>
    <line x1="368.126" x2="368.126" y1="540.0001" y2="548.0315"/>
    <polyline points="371.811,543.7796 371.811,548.0315 370.8661,548.504 371.3386,548.504 372.2834,548.9764 372.7559,549.4488"/>
    <polyline points="372.2834,543.7796 372.2834,548.504 373.2283,548.9764"/>
    <polyline points="372.7559,543.7796 372.7559,548.0315 373.7008,548.504 374.1732,548.504 373.2283,548.9764 372.7559,549.4488"/>
    <polyline points="371.811,543.7796 373.7008,543.3072 374.6456,542.8347 376.0629,544.7245 375.1181,545.1969 372.7559,546.6142"/>
    <line x1="374.1732" x2="375.5905" y1="543.3072" y2="544.7245"/>
    <polyline points="372.7559,543.7796 373.7008,543.3072 375.1181,545.1969"/>
    <polyline points="376.8189,543.7796 377.2913,543.7796 377.7637,544.252 377.7637,548.0315 376.8189,548.504 377.2913,548.504 378.2362,548.9764 378.7086,549.4488"/>
    <polyline points="377.7637,543.3072 378.2362,543.7796 378.2362,548.504 379.181,548.9764"/>
    <polyline points="376.8189,543.7796 377.7637,542.8347 378.7086,543.7796 378.7086,548.0315 379.6535,548.504 378.7086,549.4488"/>
    <polyline points="378.7086,544.252 380.126,543.7796 381.0708,543.3072 381.5433,542.8347 382.4883,543.7796 382.4883,548.0315 383.4329,548.504 382.4883,549.4488"/>
    <polyline points="381.0708,543.3072 382.0157,543.7796 382.0157,548.504 382.9603,548.9764"/>
    <polyline points="380.126,543.7796 380.5984,543.7796 381.5433,544.252 381.5433,548.0315 381.0708,548.504 382.0157,548.9764 382.4883,549.4488"/>
    <polyline points="382.4883,544.252 383.9056,543.7796 384.8502,543.3072 385.3229,542.8347 385.7949,543.3072 386.7402,543.7796 387.2122,543.7796 386.2676,544.252 386.2676,548.0315 386.7402,548.504 387.2122,548.504"/>
    <polyline points="384.8502,543.3072 385.7949,543.7796 385.7949,548.504 386.2676,548.9764"/>
    <polyline points="383.9056,543.7796 384.3776,543.7796 385.3229,544.252 385.3229,548.504 386.2676,549.4488 387.2122,548.504"/>
    <polyline points="388.8187,543.7796 388.8187,548.0315 387.8741,548.504"/>
    <polyline points="389.2914,544.252 389.2914,548.0315 390.7087,548.9764"/>
    <polyline points="389.7634,543.7796 389.7634,548.0315 390.7087,548.504 391.1807,548.9764"/>
    <polyline points="387.8741,548.504 388.8187,548.504 389.7634,548.9764 390.2361,549.4488 391.1807,548.9764 392.598,548.504 393.5434,548.504"/>
    <polyline points="388.8187,543.7796 389.7634,543.7796 391.1807,543.3072 392.1261,542.8347 392.598,543.3072 393.5434,543.7796 394.488,543.7796 393.5434,544.252 393.5434,548.504"/>
    <polyline points="391.6534,543.3072 393.0707,544.252 393.0707,548.0315"/>
    <polyline points="391.1807,543.3072 391.6534,543.7796 392.598,544.252 392.598,548.504"/>
    <polyline points="396.4724,543.7796 396.4724,548.0315 395.5277,548.504"/>
    <polyline points="396.9451,544.252 396.9451,548.0315 398.3624,548.9764"/>
    <polyline points="397.417,543.7796 397.417,548.0315 398.3624,548.504 398.8343,548.9764"/>
    <polyline points="395.5277,548.504 396.4724,548.504 397.417,548.9764 397.8897,549.4488 398.8343,548.9764 400.2517,548.504 401.197,548.504"/>
    <polyline points="396.4724,543.7796 397.417,543.7796 398.8343,543.3072 399.7797,542.8347 400.2517,543.3072 401.197,543.7796 402.1417,543.7796 401.197,544.252 401.197,548.504"/>
    <polyline points="399.307,543.3072 400.7243,544.252 400.7243,548.0315"/>
    <polyline points="398.8343,543.3072 399.307,543.7796 400.2517,544.252 400.2517,548.504"/>
    <polyline points="403.1813,543.7796 403.6532,543.7796 404.1259,544.252 404.1259,548.0315 403.1813,548.504 403.6532,548.504 404.5986,548.9764 405.0705,549.4488"/>
    <polyline points="403.6532,543.3072 404.5986,543.7796 404.5986,548.504 405.5432,548.9764"/>
    <polyline points="403.1813,543.7796 404.1259,542.8347 405.0705,543.7796 405.0705,548.0315 406.0159,548.504 406.4879,548.504 405.5432,548.9764 405.0705,549.4488"/>
    <polyline points="405.0705,543.7796 406.9605,542.8347 407.4332,543.3072 408.3779,543.7796 408.8505,543.7796"/>
    <polyline points="406.4879,543.3072 406.9605,543.7796 407.9052,543.7796"/>
    <polyline points="406.0159,543.3072 406.9605,544.252 407.9052,544.252 408.8505,543.7796"/>
  </g>
</svg>
