<?xml version="1.0" encoding="utf-8" ?>
<svg xmlns="http://www.w3.org/2000/svg" xmlns:cc="http://creativecommons.org/ns#" xmlns:dc="http://purl.org/dc/elements/1.1/" xmlns:ev="http://www.w3.org/2001/xml-events" xmlns:inkscape="http://www.inkscape.org/namespaces/inkscape" xmlns:rdf="http://www.w3.org/1999/02/22-rdf-syntax-ns#" xmlns:sodipodi="http://sodipodi.sourceforge.net/DTD/sodipodi-0.dtd" xmlns:xlink="http://www.w3.org/1999/xlink" baseProfile="tiny" height="18.1cm" version="1.2" viewBox="0 0 113.38582677165354 684.0944881889764" width="3.0cm">
  <metadata>
    <rdf:RDF>
      <cc:Work>
        <dc:format>image/svg+xml</dc:format>
        <dc:source>vpype read --single-layer -l 1 map/full_rect.svg translate -l 1 0.0cm 0cm read --single-layer -l 2 map/full_rect.svg translate -l 2 6.0cm 0cm read --single-layer -l 3 map/full_rect.svg translate -l 3 12.0cm 0cm read --single-layer -l 4 map/full_rect.svg translate -l 4 18.0cm 0cm read --single-layer -l 5 map/full_rect.svg translate -l 5 24.0cm 0cm read --single-layer -l 6 map/full_rect.svg translate -l 6 30.0cm 0cm read --single-layer -l 7 map/full_rect.svg translate -l 7 36.0cm 0cm read --single-layer -l 8 map/full_rect.svg translate -l 8 42.0cm 0cm read --single-layer -l 9 map/full_rect.svg translate -l 9 48.0cm 0cm read --single-layer -l 10 map/full_rect.svg translate -l 10 54.0cm 0cm read --single-layer -l 11 map/full_rect.svg translate -l 11 60.0cm 0cm read --single-layer -l 12 map/full_rect.svg translate -l 12 66.0cm 0cm read --single-layer -l 13 map/full_rect.svg translate -l 13 72.0cm 0cm read --single-layer -l 14 map/full_rect.svg translate -l 14 78.0cm 0cm read --single-layer -l 15 map/full_rect.svg translate -l 15 84.0cm 0cm read --single-layer -l 16 map/full_rect.svg translate -l 16 90.0cm 0cm read --single-layer -l 17 map/empty_rect.svg translate -l 17 3.0cm 0cm read --single-layer -l 18 map/empty_rect.svg translate -l 18 9.0cm 0cm read --single-layer -l 19 map/empty_rect.svg translate -l 19 15.0cm 0cm read --single-layer -l 20 map/empty_rect.svg translate -l 20 21.0cm 0cm read --single-layer -l 21 map/empty_rect.svg translate -l 21 27.0cm 0cm read --single-layer -l 22 map/empty_rect.svg translate -l 22 33.0cm 0cm read --single-layer -l 23 map/empty_rect.svg translate -l 23 39.0cm 0cm read --single-layer -l 24 map/empty_rect.svg translate -l 24 45.0cm 0cm read --single-layer -l 25 map/empty_rect.svg translate -l 25 51.0cm 0cm read --single-layer -l 26 map/empty_rect.svg translate -l 26 57.0cm 0cm read --single-layer -l 27 map/empty_rect.svg translate -l 27 63.0cm 0cm read --single-layer -l 28 map/empty_rect.svg translate -l 28 69.0cm 0cm read --single-layer -l 29 map/empty_rect.svg translate -l 29 75.0cm 0cm read --single-layer -l 30 map/empty_rect.svg translate -l 30 81.0cm 0cm read --single-layer -l 31 map/empty_rect.svg translate -l 31 87.0cm 0cm read --single-layer -l 32 map/empty_rect.svg translate -l 32 93.0cm 0cm scaleto -o 0 0 18.1cm 3cm rotate 90 layout --fit-to-margins 0cm -h left 3cmx18.1cm write map/rect_column.svg
</dc:source>
        <dc:date>2021-06-21T12:58:25.851601</dc:date>
      </cc:Work>
    </rdf:RDF>
  </metadata>
  <defs/>
  <g fill="none" id="layer1" inkscape:groupmode="layer" inkscape:label="1" stroke="#00f" style="display:inline">
    <polygon points="3.563,0.0 0.0,0.0 0.0,21.378 3.563,21.378"/>
    <line x1="1.4252" x2="0.0" y1="0.0" y2="1.4252"/>
    <line x1="2.8504" x2="0.0" y1="0.0" y2="2.8504"/>
    <line x1="3.563" x2="0.0" y1="0.7126" y2="4.2756"/>
    <line x1="3.563" x2="0.0" y1="2.1378" y2="5.7008"/>
    <line x1="3.563" x2="0.0" y1="3.563" y2="7.126"/>
    <line x1="3.563" x2="0.0" y1="4.9882" y2="8.5512"/>
    <line x1="3.563" x2="0.0" y1="6.4134" y2="9.9764"/>
    <line x1="3.563" x2="0.0" y1="7.8386" y2="11.4016"/>
    <line x1="3.563" x2="0.0" y1="9.2638" y2="12.8268"/>
    <line x1="3.563" x2="0.0" y1="10.689" y2="14.252"/>
    <line x1="3.563" x2="0.0" y1="12.1142" y2="15.6772"/>
    <line x1="3.563" x2="0.0" y1="13.5394" y2="17.1024"/>
    <line x1="3.563" x2="0.0" y1="14.9646" y2="18.5276"/>
    <line x1="3.563" x2="0.0" y1="16.3898" y2="19.9528"/>
    <line x1="3.563" x2="0.0" y1="17.815" y2="21.378"/>
    <line x1="3.563" x2="1.4252" y1="19.2402" y2="21.378"/>
    <line x1="3.563" x2="2.8504" y1="20.6654" y2="21.378"/>
  </g>
  <g fill="none" id="layer2" inkscape:groupmode="layer" inkscape:label="2" stroke="#080" style="display:inline">
    <polygon points="3.563,42.7559 0.0,42.7559 0.0,64.1339 3.563,64.1339"/>
    <line x1="1.4252" x2="0.0" y1="42.7559" y2="44.1811"/>
    <line x1="2.8504" x2="0.0" y1="42.7559" y2="45.6063"/>
    <line x1="3.563" x2="0.0" y1="43.4685" y2="47.0315"/>
    <line x1="3.563" x2="0.0" y1="44.8937" y2="48.4567"/>
    <line x1="3.563" x2="0.0" y1="46.3189" y2="49.8819"/>
    <line x1="3.563" x2="0.0" y1="47.7441" y2="51.3071"/>
    <line x1="3.563" x2="0.0" y1="49.1693" y2="52.7323"/>
    <line x1="3.563" x2="0.0" y1="50.5945" y2="54.1575"/>
    <line x1="3.563" x2="0.0" y1="52.0197" y2="55.5827"/>
    <line x1="3.563" x2="0.0" y1="53.4449" y2="57.0079"/>
    <line x1="3.563" x2="0.0" y1="54.8701" y2="58.4331"/>
    <line x1="3.563" x2="0.0" y1="56.2953" y2="59.8583"/>
    <line x1="3.563" x2="0.0" y1="57.7205" y2="61.2835"/>
    <line x1="3.563" x2="0.0" y1="59.1457" y2="62.7087"/>
    <line x1="3.563" x2="0.0" y1="60.5709" y2="64.1339"/>
    <line x1="3.563" x2="1.4252" y1="61.9961" y2="64.1339"/>
    <line x1="3.563" x2="2.8504" y1="63.4213" y2="64.1339"/>
  </g>
  <g fill="none" id="layer3" inkscape:groupmode="layer" inkscape:label="3" stroke="#f00" style="display:inline">
    <polygon points="3.563,85.5118 0.0,85.5118 0.0,106.8898 3.563,106.8898"/>
    <line x1="1.4252" x2="0.0" y1="85.5118" y2="86.937"/>
    <line x1="2.8504" x2="0.0" y1="85.5118" y2="88.3622"/>
    <line x1="3.563" x2="0.0" y1="86.2244" y2="89.7874"/>
    <line x1="3.563" x2="0.0" y1="87.6496" y2="91.2126"/>
    <line x1="3.563" x2="0.0" y1="89.0748" y2="92.6378"/>
    <line x1="3.563" x2="0.0" y1="90.5" y2="94.063"/>
    <line x1="3.563" x2="0.0" y1="91.9252" y2="95.4882"/>
    <line x1="3.563" x2="0.0" y1="93.3504" y2="96.9134"/>
    <line x1="3.563" x2="0.0" y1="94.7756" y2="98.3386"/>
    <line x1="3.563" x2="0.0" y1="96.2008" y2="99.7638"/>
    <line x1="3.563" x2="0.0" y1="97.626" y2="101.189"/>
    <line x1="3.563" x2="0.0" y1="99.0512" y2="102.6142"/>
    <line x1="3.563" x2="0.0" y1="100.4764" y2="104.0394"/>
    <line x1="3.563" x2="0.0" y1="101.9016" y2="105.4646"/>
    <line x1="3.563" x2="0.0" y1="103.3268" y2="106.8898"/>
    <line x1="3.563" x2="1.4252" y1="104.752" y2="106.8898"/>
    <line x1="3.563" x2="2.8504" y1="106.1772" y2="106.8898"/>
  </g>
  <g fill="none" id="layer4" inkscape:groupmode="layer" inkscape:label="4" stroke="#0cc" style="display:inline">
    <polygon points="3.563,128.2677 0.0,128.2677 0.0,149.6457 3.563,149.6457"/>
    <line x1="1.4252" x2="0.0" y1="128.2677" y2="129.6929"/>
    <line x1="2.8504" x2="0.0" y1="128.2677" y2="131.1181"/>
    <line x1="3.563" x2="0.0" y1="128.9803" y2="132.5433"/>
    <line x1="3.563" x2="0.0" y1="130.4055" y2="133.9685"/>
    <line x1="3.563" x2="0.0" y1="131.8307" y2="135.3937"/>
    <line x1="3.563" x2="0.0" y1="133.2559" y2="136.8189"/>
    <line x1="3.563" x2="0.0" y1="134.6811" y2="138.2441"/>
    <line x1="3.563" x2="0.0" y1="136.1063" y2="139.6693"/>
    <line x1="3.563" x2="0.0" y1="137.5315" y2="141.0945"/>
    <line x1="3.563" x2="0.0" y1="138.9567" y2="142.5197"/>
    <line x1="3.563" x2="0.0" y1="140.3819" y2="143.9449"/>
    <line x1="3.563" x2="0.0" y1="141.8071" y2="145.3701"/>
    <line x1="3.563" x2="0.0" y1="143.2323" y2="146.7953"/>
    <line x1="3.563" x2="0.0" y1="144.6575" y2="148.2205"/>
    <line x1="3.563" x2="0.0" y1="146.0827" y2="149.6457"/>
    <line x1="3.563" x2="1.4252" y1="147.5079" y2="149.6457"/>
    <line x1="3.563" x2="2.8504" y1="148.9331" y2="149.6457"/>
  </g>
  <g fill="none" id="layer5" inkscape:groupmode="layer" inkscape:label="5" stroke="#0f0" style="display:inline">
    <polygon points="3.563,171.0236 0.0,171.0236 0.0,192.4016 3.563,192.4016"/>
    <line x1="1.4252" x2="0.0" y1="171.0236" y2="172.4488"/>
    <line x1="2.8504" x2="0.0" y1="171.0236" y2="173.874"/>
    <line x1="3.563" x2="0.0" y1="171.7362" y2="175.2992"/>
    <line x1="3.563" x2="0.0" y1="173.1614" y2="176.7244"/>
    <line x1="3.563" x2="0.0" y1="174.5866" y2="178.1496"/>
    <line x1="3.563" x2="0.0" y1="176.0118" y2="179.5748"/>
    <line x1="3.563" x2="0.0" y1="177.437" y2="181.0"/>
    <line x1="3.563" x2="0.0" y1="178.8622" y2="182.4252"/>
    <line x1="3.563" x2="0.0" y1="180.2874" y2="183.8504"/>
    <line x1="3.563" x2="0.0" y1="181.7126" y2="185.2756"/>
    <line x1="3.563" x2="0.0" y1="183.1378" y2="186.7008"/>
    <line x1="3.563" x2="0.0" y1="184.563" y2="188.126"/>
    <line x1="3.563" x2="0.0" y1="185.9882" y2="189.5512"/>
    <line x1="3.563" x2="0.0" y1="187.4134" y2="190.9764"/>
    <line x1="3.563" x2="0.0" y1="188.8386" y2="192.4016"/>
    <line x1="3.563" x2="1.4252" y1="190.2638" y2="192.4016"/>
    <line x1="3.563" x2="2.8504" y1="191.689" y2="192.4016"/>
  </g>
  <g fill="none" id="layer6" inkscape:groupmode="layer" inkscape:label="6" stroke="#c0c" style="display:inline">
    <polygon points="3.563,213.7795 0.0,213.7795 0.0,235.1575 3.563,235.1575"/>
    <line x1="1.4252" x2="0.0" y1="213.7795" y2="215.2047"/>
    <line x1="2.8504" x2="0.0" y1="213.7795" y2="216.6299"/>
    <line x1="3.563" x2="0.0" y1="214.4921" y2="218.0551"/>
    <line x1="3.563" x2="0.0" y1="215.9173" y2="219.4803"/>
    <line x1="3.563" x2="0.0" y1="217.3425" y2="220.9055"/>
    <line x1="3.563" x2="0.0" y1="218.7677" y2="222.3307"/>
    <line x1="3.563" x2="0.0" y1="220.1929" y2="223.7559"/>
    <line x1="3.563" x2="0.0" y1="221.6181" y2="225.1811"/>
    <line x1="3.563" x2="0.0" y1="223.0433" y2="226.6063"/>
    <line x1="3.563" x2="0.0" y1="224.4685" y2="228.0315"/>
    <line x1="3.563" x2="0.0" y1="225.8937" y2="229.4567"/>
    <line x1="3.563" x2="0.0" y1="227.3189" y2="230.8819"/>
    <line x1="3.563" x2="0.0" y1="228.7441" y2="232.3071"/>
    <line x1="3.563" x2="0.0" y1="230.1693" y2="233.7323"/>
    <line x1="3.563" x2="0.0" y1="231.5945" y2="235.1575"/>
    <line x1="3.563" x2="1.4252" y1="233.0197" y2="235.1575"/>
    <line x1="3.563" x2="2.8504" y1="234.4449" y2="235.1575"/>
  </g>
  <g fill="none" id="layer7" inkscape:groupmode="layer" inkscape:label="7" stroke="#cc0" style="display:inline">
    <polygon points="3.563,256.5354 0.0,256.5354 0.0,277.9134 3.563,277.9134"/>
    <line x1="1.4252" x2="0.0" y1="256.5354" y2="257.9606"/>
    <line x1="2.8504" x2="0.0" y1="256.5354" y2="259.3858"/>
    <line x1="3.563" x2="0.0" y1="257.248" y2="260.811"/>
    <line x1="3.563" x2="0.0" y1="258.6732" y2="262.2362"/>
    <line x1="3.563" x2="0.0" y1="260.0984" y2="263.6614"/>
    <line x1="3.563" x2="0.0" y1="261.5236" y2="265.0866"/>
    <line x1="3.563" x2="0.0" y1="262.9488" y2="266.5118"/>
    <line x1="3.563" x2="0.0" y1="264.374" y2="267.937"/>
    <line x1="3.563" x2="0.0" y1="265.7992" y2="269.3622"/>
    <line x1="3.563" x2="0.0" y1="267.2244" y2="270.7874"/>
    <line x1="3.563" x2="0.0" y1="268.6496" y2="272.2126"/>
    <line x1="3.563" x2="0.0" y1="270.0748" y2="273.6378"/>
    <line x1="3.563" x2="0.0" y1="271.5" y2="275.063"/>
    <line x1="3.563" x2="0.0" y1="272.9252" y2="276.4882"/>
    <line x1="3.563" x2="0.0" y1="274.3504" y2="277.9134"/>
    <line x1="3.563" x2="1.4252" y1="275.7756" y2="277.9134"/>
    <line x1="3.563" x2="2.8504" y1="277.2008" y2="277.9134"/>
  </g>
  <g fill="none" id="layer8" inkscape:groupmode="layer" inkscape:label="8" stroke="black" style="display:inline">
    <polygon points="3.563,299.2913 0.0,299.2913 0.0,320.6693 3.563,320.6693"/>
    <line x1="1.4252" x2="0.0" y1="299.2913" y2="300.7165"/>
    <line x1="2.8504" x2="0.0" y1="299.2913" y2="302.1417"/>
    <line x1="3.563" x2="0.0" y1="300.0039" y2="303.5669"/>
    <line x1="3.563" x2="0.0" y1="301.4291" y2="304.9921"/>
    <line x1="3.563" x2="0.0" y1="302.8543" y2="306.4173"/>
    <line x1="3.563" x2="0.0" y1="304.2795" y2="307.8425"/>
    <line x1="3.563" x2="0.0" y1="305.7047" y2="309.2677"/>
    <line x1="3.563" x2="0.0" y1="307.1299" y2="310.6929"/>
    <line x1="3.563" x2="0.0" y1="308.5551" y2="312.1181"/>
    <line x1="3.563" x2="0.0" y1="309.9803" y2="313.5433"/>
    <line x1="3.563" x2="0.0" y1="311.4055" y2="314.9685"/>
    <line x1="3.563" x2="0.0" y1="312.8307" y2="316.3937"/>
    <line x1="3.563" x2="0.0" y1="314.2559" y2="317.8189"/>
    <line x1="3.563" x2="0.0" y1="315.6811" y2="319.2441"/>
    <line x1="3.563" x2="0.0" y1="317.1063" y2="320.6693"/>
    <line x1="3.563" x2="1.4252" y1="318.5315" y2="320.6693"/>
    <line x1="3.563" x2="2.8504" y1="319.9567" y2="320.6693"/>
  </g>
  <g fill="none" id="layer9" inkscape:groupmode="layer" inkscape:label="9" stroke="#00f" style="display:inline">
    <polygon points="3.563,342.0472 0.0,342.0472 0.0,363.4252 3.563,363.4252"/>
    <line x1="1.4252" x2="0.0" y1="342.0472" y2="343.4724"/>
    <line x1="2.8504" x2="0.0" y1="342.0472" y2="344.8976"/>
    <line x1="3.563" x2="0.0" y1="342.7598" y2="346.3228"/>
    <line x1="3.563" x2="0.0" y1="344.185" y2="347.748"/>
    <line x1="3.563" x2="0.0" y1="345.6102" y2="349.1732"/>
    <line x1="3.563" x2="0.0" y1="347.0354" y2="350.5984"/>
    <line x1="3.563" x2="0.0" y1="348.4606" y2="352.0236"/>
    <line x1="3.563" x2="0.0" y1="349.8858" y2="353.4488"/>
    <line x1="3.563" x2="0.0" y1="351.311" y2="354.874"/>
    <line x1="3.563" x2="0.0" y1="352.7362" y2="356.2992"/>
    <line x1="3.563" x2="0.0" y1="354.1614" y2="357.7244"/>
    <line x1="3.563" x2="0.0" y1="355.5866" y2="359.1496"/>
    <line x1="3.563" x2="0.0" y1="357.0118" y2="360.5748"/>
    <line x1="3.563" x2="0.0" y1="358.437" y2="362.0"/>
    <line x1="3.563" x2="0.0" y1="359.8622" y2="363.4252"/>
    <line x1="3.563" x2="1.4252" y1="361.2874" y2="363.4252"/>
    <line x1="3.563" x2="2.8504" y1="362.7126" y2="363.4252"/>
  </g>
  <g fill="none" id="layer10" inkscape:groupmode="layer" inkscape:label="10" stroke="#080" style="display:inline">
    <polygon points="3.563,384.8031 0.0,384.8031 0.0,406.1811 3.563,406.1811"/>
    <line x1="1.4252" x2="0.0" y1="384.8031" y2="386.2284"/>
    <line x1="2.8504" x2="0.0" y1="384.8031" y2="387.6535"/>
    <line x1="3.563" x2="0.0" y1="385.5157" y2="389.0787"/>
    <line x1="3.563" x2="0.0" y1="386.9409" y2="390.5039"/>
    <line x1="3.563" x2="0.0" y1="388.3661" y2="391.9291"/>
    <line x1="3.563" x2="0.0" y1="389.7913" y2="393.3543"/>
    <line x1="3.563" x2="0.0" y1="391.2165" y2="394.7795"/>
    <line x1="3.563" x2="0.0" y1="392.6417" y2="396.2047"/>
    <line x1="3.563" x2="0.0" y1="394.0669" y2="397.6299"/>
    <line x1="3.563" x2="0.0" y1="395.4921" y2="399.0551"/>
    <line x1="3.563" x2="0.0" y1="396.9173" y2="400.4803"/>
    <line x1="3.563" x2="0.0" y1="398.3425" y2="401.9055"/>
    <line x1="3.563" x2="0.0" y1="399.7677" y2="403.3307"/>
    <line x1="3.563" x2="0.0" y1="401.1929" y2="404.7559"/>
    <line x1="3.563" x2="0.0" y1="402.6181" y2="406.1811"/>
    <line x1="3.563" x2="1.4252" y1="404.0433" y2="406.1811"/>
    <line x1="3.563" x2="2.8504" y1="405.4685" y2="406.1811"/>
  </g>
  <g fill="none" id="layer11" inkscape:groupmode="layer" inkscape:label="11" stroke="#f00" style="display:inline">
    <polygon points="3.563,427.5591 0.0,427.5591 0.0,448.937 3.563,448.937"/>
    <line x1="1.4252" x2="0.0" y1="427.5591" y2="428.9843"/>
    <line x1="2.8504" x2="0.0" y1="427.5591" y2="430.4094"/>
    <line x1="3.563" x2="0.0" y1="428.2716" y2="431.8347"/>
    <line x1="3.563" x2="0.0" y1="429.6969" y2="433.2598"/>
    <line x1="3.563" x2="0.0" y1="431.122" y2="434.685"/>
    <line x1="3.563" x2="0.0" y1="432.5472" y2="436.1102"/>
    <line x1="3.563" x2="0.0" y1="433.9724" y2="437.5354"/>
    <line x1="3.563" x2="0.0" y1="435.3976" y2="438.9606"/>
    <line x1="3.563" x2="0.0" y1="436.8228" y2="440.3858"/>
    <line x1="3.563" x2="0.0" y1="438.248" y2="441.811"/>
    <line x1="3.563" x2="0.0" y1="439.6732" y2="443.2362"/>
    <line x1="3.563" x2="0.0" y1="441.0984" y2="444.6614"/>
    <line x1="3.563" x2="0.0" y1="442.5236" y2="446.0866"/>
    <line x1="3.563" x2="0.0" y1="443.9488" y2="447.5118"/>
    <line x1="3.563" x2="0.0" y1="445.374" y2="448.937"/>
    <line x1="3.563" x2="1.4252" y1="446.7992" y2="448.937"/>
    <line x1="3.563" x2="2.8504" y1="448.2244" y2="448.937"/>
  </g>
  <g fill="none" id="layer12" inkscape:groupmode="layer" inkscape:label="12" stroke="#0cc" style="display:inline">
    <polygon points="3.563,470.315 0.0,470.315 0.0,491.6929 3.563,491.6929"/>
    <line x1="1.4252" x2="0.0" y1="470.315" y2="471.7402"/>
    <line x1="2.8504" x2="0.0" y1="470.315" y2="473.1653"/>
    <line x1="3.563" x2="0.0" y1="471.0275" y2="474.5906"/>
    <line x1="3.563" x2="0.0" y1="472.4528" y2="476.0157"/>
    <line x1="3.563" x2="0.0" y1="473.8779" y2="477.4409"/>
    <line x1="3.563" x2="0.0" y1="475.3031" y2="478.8661"/>
    <line x1="3.563" x2="0.0" y1="476.7283" y2="480.2913"/>
    <line x1="3.563" x2="0.0" y1="478.1535" y2="481.7165"/>
    <line x1="3.563" x2="0.0" y1="479.5787" y2="483.1417"/>
    <line x1="3.563" x2="0.0" y1="481.0039" y2="484.5669"/>
    <line x1="3.563" x2="0.0" y1="482.4291" y2="485.9921"/>
    <line x1="3.563" x2="0.0" y1="483.8543" y2="487.4173"/>
    <line x1="3.563" x2="0.0" y1="485.2795" y2="488.8425"/>
    <line x1="3.563" x2="0.0" y1="486.7047" y2="490.2677"/>
    <line x1="3.563" x2="0.0" y1="488.1299" y2="491.6929"/>
    <line x1="3.563" x2="1.4252" y1="489.5551" y2="491.6929"/>
    <line x1="3.563" x2="2.8504" y1="490.9803" y2="491.6929"/>
  </g>
  <g fill="none" id="layer13" inkscape:groupmode="layer" inkscape:label="13" stroke="#0f0" style="display:inline">
    <polygon points="3.563,513.0709 0.0,513.0709 0.0,534.4488 3.563,534.4488"/>
    <line x1="1.4252" x2="0.0" y1="513.0709" y2="514.4961"/>
    <line x1="2.8504" x2="0.0" y1="513.0709" y2="515.9213"/>
    <line x1="3.563" x2="0.0" y1="513.7835" y2="517.3465"/>
    <line x1="3.563" x2="0.0" y1="515.2087" y2="518.7716"/>
    <line x1="3.563" x2="0.0" y1="516.6338" y2="520.1969"/>
    <line x1="3.563" x2="0.0" y1="518.0591" y2="521.622"/>
    <line x1="3.563" x2="0.0" y1="519.4842" y2="523.0472"/>
    <line x1="3.563" x2="0.0" y1="520.9094" y2="524.4724"/>
    <line x1="3.563" x2="0.0" y1="522.3347" y2="525.8976"/>
    <line x1="3.563" x2="0.0" y1="523.7598" y2="527.3228"/>
    <line x1="3.563" x2="0.0" y1="525.185" y2="528.748"/>
    <line x1="3.563" x2="0.0" y1="526.6102" y2="530.1732"/>
    <line x1="3.563" x2="0.0" y1="528.0354" y2="531.5984"/>
    <line x1="3.563" x2="0.0" y1="529.4606" y2="533.0236"/>
    <line x1="3.563" x2="0.0" y1="530.8858" y2="534.4488"/>
    <line x1="3.563" x2="1.4252" y1="532.311" y2="534.4488"/>
    <line x1="3.563" x2="2.8504" y1="533.7362" y2="534.4488"/>
  </g>
  <g fill="none" id="layer14" inkscape:groupmode="layer" inkscape:label="14" stroke="#c0c" style="display:inline">
    <polygon points="3.563,555.8268 0.0,555.8268 0.0,577.2047 3.563,577.2047"/>
    <line x1="1.4252" x2="0.0" y1="555.8268" y2="557.252"/>
    <line x1="2.8504" x2="0.0" y1="555.8268" y2="558.6772"/>
    <line x1="3.563" x2="0.0" y1="556.5394" y2="560.1024"/>
    <line x1="3.563" x2="0.0" y1="557.9646" y2="561.5276"/>
    <line x1="3.563" x2="0.0" y1="559.3898" y2="562.9528"/>
    <line x1="3.563" x2="0.0" y1="560.815" y2="564.3779"/>
    <line x1="3.563" x2="0.0" y1="562.2401" y2="565.8032"/>
    <line x1="3.563" x2="0.0" y1="563.6654" y2="567.2283"/>
    <line x1="3.563" x2="0.0" y1="565.0906" y2="568.6535"/>
    <line x1="3.563" x2="0.0" y1="566.5157" y2="570.0788"/>
    <line x1="3.563" x2="0.0" y1="567.941" y2="571.5039"/>
    <line x1="3.563" x2="0.0" y1="569.3661" y2="572.9291"/>
    <line x1="3.563" x2="0.0" y1="570.7913" y2="574.3543"/>
    <line x1="3.563" x2="0.0" y1="572.2165" y2="575.7795"/>
    <line x1="3.563" x2="0.0" y1="573.6417" y2="577.2047"/>
    <line x1="3.563" x2="1.4252" y1="575.0669" y2="577.2047"/>
    <line x1="3.563" x2="2.8504" y1="576.4921" y2="577.2047"/>
  </g>
  <g fill="none" id="layer15" inkscape:groupmode="layer" inkscape:label="15" stroke="#cc0" style="display:inline">
    <polygon points="3.563,598.5827 0.0,598.5827 0.0,619.9606 3.563,619.9606"/>
    <line x1="1.4252" x2="0.0" y1="598.5827" y2="600.0079"/>
    <line x1="2.8504" x2="0.0" y1="598.5827" y2="601.4331"/>
    <line x1="3.563" x2="0.0" y1="599.2953" y2="602.8583"/>
    <line x1="3.563" x2="0.0" y1="600.7205" y2="604.2835"/>
    <line x1="3.563" x2="0.0" y1="602.1457" y2="605.7087"/>
    <line x1="3.563" x2="0.0" y1="603.5709" y2="607.1339"/>
    <line x1="3.563" x2="0.0" y1="604.9961" y2="608.5591"/>
    <line x1="3.563" x2="0.0" y1="606.4213" y2="609.9842"/>
    <line x1="3.563" x2="0.0" y1="607.8465" y2="611.4095"/>
    <line x1="3.563" x2="0.0" y1="609.2717" y2="612.8347"/>
    <line x1="3.563" x2="0.0" y1="610.6969" y2="614.2598"/>
    <line x1="3.563" x2="0.0" y1="612.122" y2="615.6851"/>
    <line x1="3.563" x2="0.0" y1="613.5473" y2="617.1102"/>
    <line x1="3.563" x2="0.0" y1="614.9724" y2="618.5354"/>
    <line x1="3.563" x2="0.0" y1="616.3976" y2="619.9606"/>
    <line x1="3.563" x2="1.4252" y1="617.8228" y2="619.9606"/>
    <line x1="3.563" x2="2.8504" y1="619.248" y2="619.9606"/>
  </g>
  <g fill="none" id="layer16" inkscape:groupmode="layer" inkscape:label="16" stroke="black" style="display:inline">
    <polygon points="3.563,641.3386 0.0,641.3386 0.0,662.7165 3.563,662.7165"/>
    <line x1="1.4252" x2="0.0" y1="641.3386" y2="642.7638"/>
    <line x1="2.8504" x2="0.0" y1="641.3386" y2="644.189"/>
    <line x1="3.563" x2="0.0" y1="642.0512" y2="645.6142"/>
    <line x1="3.563" x2="0.0" y1="643.4764" y2="647.0394"/>
    <line x1="3.563" x2="0.0" y1="644.9016" y2="648.4646"/>
    <line x1="3.563" x2="0.0" y1="646.3268" y2="649.8898"/>
    <line x1="3.563" x2="0.0" y1="647.752" y2="651.315"/>
    <line x1="3.563" x2="0.0" y1="649.1772" y2="652.7401"/>
    <line x1="3.563" x2="0.0" y1="650.6024" y2="654.1654"/>
    <line x1="3.563" x2="0.0" y1="652.0276" y2="655.5906"/>
    <line x1="3.563" x2="0.0" y1="653.4528" y2="657.0157"/>
    <line x1="3.563" x2="0.0" y1="654.8779" y2="658.441"/>
    <line x1="3.563" x2="0.0" y1="656.3032" y2="659.8661"/>
    <line x1="3.563" x2="0.0" y1="657.7283" y2="661.2913"/>
    <line x1="3.563" x2="0.0" y1="659.1535" y2="662.7165"/>
    <line x1="3.563" x2="1.4252" y1="660.5787" y2="662.7165"/>
    <line x1="3.563" x2="2.8504" y1="662.0039" y2="662.7165"/>
  </g>
  <g fill="none" id="layer17" inkscape:groupmode="layer" inkscape:label="17" stroke="#00f" style="display:inline">
    <polygon points="3.563,21.378 0.0,21.378 0.0,42.7559 3.563,42.7559"/>
  </g>
  <g fill="none" id="layer18" inkscape:groupmode="layer" inkscape:label="18" stroke="#080" style="display:inline">
    <polygon points="3.563,64.1339 0.0,64.1339 0.0,85.5118 3.563,85.5118"/>
  </g>
  <g fill="none" id="layer19" inkscape:groupmode="layer" inkscape:label="19" stroke="#f00" style="display:inline">
    <polygon points="3.563,106.8898 0.0,106.8898 0.0,128.2677 3.563,128.2677"/>
  </g>
  <g fill="none" id="layer20" inkscape:groupmode="layer" inkscape:label="20" stroke="#0cc" style="display:inline">
    <polygon points="3.563,149.6457 0.0,149.6457 0.0,171.0236 3.563,171.0236"/>
  </g>
  <g fill="none" id="layer21" inkscape:groupmode="layer" inkscape:label="21" stroke="#0f0" style="display:inline">
    <polygon points="3.563,192.4016 0.0,192.4016 0.0,213.7795 3.563,213.7795"/>
  </g>
  <g fill="none" id="layer22" inkscape:groupmode="layer" inkscape:label="22" stroke="#c0c" style="display:inline">
    <polygon points="3.563,235.1575 0.0,235.1575 0.0,256.5354 3.563,256.5354"/>
  </g>
  <g fill="none" id="layer23" inkscape:groupmode="layer" inkscape:label="23" stroke="#cc0" style="display:inline">
    <polygon points="3.563,277.9134 0.0,277.9134 0.0,299.2913 3.563,299.2913"/>
  </g>
  <g fill="none" id="layer24" inkscape:groupmode="layer" inkscape:label="24" stroke="black" style="display:inline">
    <polygon points="3.563,320.6693 0.0,320.6693 0.0,342.0472 3.563,342.0472"/>
  </g>
  <g fill="none" id="layer25" inkscape:groupmode="layer" inkscape:label="25" stroke="#00f" style="display:inline">
    <polygon points="3.563,363.4252 0.0,363.4252 0.0,384.8032 3.563,384.8032"/>
  </g>
  <g fill="none" id="layer26" inkscape:groupmode="layer" inkscape:label="26" stroke="#080" style="display:inline">
    <polygon points="3.563,406.1811 0.0,406.1811 0.0,427.5591 3.563,427.5591"/>
  </g>
  <g fill="none" id="layer27" inkscape:groupmode="layer" inkscape:label="27" stroke="#f00" style="display:inline">
    <polygon points="3.563,448.937 0.0,448.937 0.0,470.315 3.563,470.315"/>
  </g>
  <g fill="none" id="layer28" inkscape:groupmode="layer" inkscape:label="28" stroke="#0cc" style="display:inline">
    <polygon points="3.563,491.6929 0.0,491.6929 0.0,513.0709 3.563,513.0709"/>
  </g>
  <g fill="none" id="layer29" inkscape:groupmode="layer" inkscape:label="29" stroke="#0f0" style="display:inline">
    <polygon points="3.563,534.4488 0.0,534.4488 0.0,555.8268 3.563,555.8268"/>
  </g>
  <g fill="none" id="layer30" inkscape:groupmode="layer" inkscape:label="30" stroke="#c0c" style="display:inline">
    <polygon points="3.563,577.2047 0.0,577.2047 0.0,598.5827 3.563,598.5827"/>
  </g>
  <g fill="none" id="layer31" inkscape:groupmode="layer" inkscape:label="31" stroke="#cc0" style="display:inline">
    <polygon points="3.563,619.9606 0.0,619.9606 0.0,641.3386 3.563,641.3386"/>
  </g>
  <g fill="none" id="layer32" inkscape:groupmode="layer" inkscape:label="32" stroke="black" style="display:inline">
    <polygon points="3.563,662.7165 0.0,662.7165 0.0,684.0945 3.563,684.0945"/>
  </g>
</svg>
