<?xml version="1.0" encoding="utf-8" ?>
<svg xmlns="http://www.w3.org/2000/svg" xmlns:cc="http://creativecommons.org/ns#" xmlns:dc="http://purl.org/dc/elements/1.1/" xmlns:ev="http://www.w3.org/2001/xml-events" xmlns:inkscape="http://www.inkscape.org/namespaces/inkscape" xmlns:rdf="http://www.w3.org/1999/02/22-rdf-syntax-ns#" xmlns:sodipodi="http://sodipodi.sourceforge.net/DTD/sodipodi-0.dtd" xmlns:xlink="http://www.w3.org/1999/xlink" baseProfile="tiny" height="3.0cm" version="1.2" viewBox="0 0 986.4566929133858 113.38582677165354" width="26.1cm">
  <metadata>
    <rdf:RDF>
      <cc:Work>
        <dc:format>image/svg+xml</dc:format>
        <dc:source>vpype read --single-layer -l 1 map/full_rect.svg translate -l 1 0.0cm 0cm read --single-layer -l 2 map/full_rect.svg translate -l 2 6.0cm 0cm read --single-layer -l 3 map/full_rect.svg translate -l 3 12.0cm 0cm read --single-layer -l 4 map/full_rect.svg translate -l 4 18.0cm 0cm read --single-layer -l 5 map/full_rect.svg translate -l 5 24.0cm 0cm read --single-layer -l 6 map/full_rect.svg translate -l 6 30.0cm 0cm read --single-layer -l 7 map/full_rect.svg translate -l 7 36.0cm 0cm read --single-layer -l 8 map/full_rect.svg translate -l 8 42.0cm 0cm read --single-layer -l 9 map/full_rect.svg translate -l 9 48.0cm 0cm read --single-layer -l 10 map/full_rect.svg translate -l 10 54.0cm 0cm read --single-layer -l 11 map/full_rect.svg translate -l 11 60.0cm 0cm read --single-layer -l 12 map/full_rect.svg translate -l 12 66.0cm 0cm read --single-layer -l 13 map/full_rect.svg translate -l 13 72.0cm 0cm read --single-layer -l 14 map/full_rect.svg translate -l 14 78.0cm 0cm read --single-layer -l 15 map/full_rect.svg translate -l 15 84.0cm 0cm read --single-layer -l 16 map/full_rect.svg translate -l 16 90.0cm 0cm read --single-layer -l 17 map/full_rect.svg translate -l 17 96.0cm 0cm read --single-layer -l 18 map/full_rect.svg translate -l 18 102.0cm 0cm read --single-layer -l 19 map/full_rect.svg translate -l 19 108.0cm 0cm read --single-layer -l 20 map/full_rect.svg translate -l 20 114.0cm 0cm read --single-layer -l 21 map/full_rect.svg translate -l 21 120.0cm 0cm read --single-layer -l 22 map/full_rect.svg translate -l 22 126.0cm 0cm read --single-layer -l 23 map/empty_rect.svg translate -l 23 3.0cm 0cm read --single-layer -l 24 map/empty_rect.svg translate -l 24 9.0cm 0cm read --single-layer -l 25 map/empty_rect.svg translate -l 25 15.0cm 0cm read --single-layer -l 26 map/empty_rect.svg translate -l 26 21.0cm 0cm read --single-layer -l 27 map/empty_rect.svg translate -l 27 27.0cm 0cm read --single-layer -l 28 map/empty_rect.svg translate -l 28 33.0cm 0cm read --single-layer -l 29 map/empty_rect.svg translate -l 29 39.0cm 0cm read --single-layer -l 30 map/empty_rect.svg translate -l 30 45.0cm 0cm read --single-layer -l 31 map/empty_rect.svg translate -l 31 51.0cm 0cm read --single-layer -l 32 map/empty_rect.svg translate -l 32 57.0cm 0cm read --single-layer -l 33 map/empty_rect.svg translate -l 33 63.0cm 0cm read --single-layer -l 34 map/empty_rect.svg translate -l 34 69.0cm 0cm read --single-layer -l 35 map/empty_rect.svg translate -l 35 75.0cm 0cm read --single-layer -l 36 map/empty_rect.svg translate -l 36 81.0cm 0cm read --single-layer -l 37 map/empty_rect.svg translate -l 37 87.0cm 0cm read --single-layer -l 38 map/empty_rect.svg translate -l 38 93.0cm 0cm read --single-layer -l 39 map/empty_rect.svg translate -l 39 99.0cm 0cm read --single-layer -l 40 map/empty_rect.svg translate -l 40 105.0cm 0cm read --single-layer -l 41 map/empty_rect.svg translate -l 41 111.0cm 0cm read --single-layer -l 42 map/empty_rect.svg translate -l 42 117.0cm 0cm read --single-layer -l 43 map/empty_rect.svg translate -l 43 123.0cm 0cm read --single-layer -l 44 map/empty_rect.svg translate -l 44 129.0cm 0cm scaleto -o 0 0 26.1cm 3cm layout -l --fit-to-margins 0cm -v top 26.1cmx3cm write map/rect_line.svg
</dc:source>
        <dc:date>2021-06-21T12:58:24.185111</dc:date>
      </cc:Work>
    </rdf:RDF>
  </metadata>
  <defs/>
  <g fill="none" id="layer1" inkscape:groupmode="layer" inkscape:label="1" stroke="#00f" style="display:inline">
    <polygon points="0.0,0.0 0.0,3.7366 22.4195,3.7366 22.4195,0.0"/>
    <line x1="0.0" x2="1.4946" y1="2.242" y2="3.7366"/>
    <line x1="0.0" x2="2.9893" y1="0.7473" y2="3.7366"/>
    <line x1="0.7473" x2="4.4839" y1="0.0" y2="3.7366"/>
    <line x1="2.242" x2="5.9785" y1="0.0" y2="3.7366"/>
    <line x1="3.7366" x2="7.4732" y1="0.0" y2="3.7366"/>
    <line x1="5.2312" x2="8.9678" y1="0.0" y2="3.7366"/>
    <line x1="6.7258" x2="10.4624" y1="0.0" y2="3.7366"/>
    <line x1="8.2205" x2="11.957" y1="0.0" y2="3.7366"/>
    <line x1="9.7151" x2="13.4517" y1="0.0" y2="3.7366"/>
    <line x1="11.2097" x2="14.9463" y1="0.0" y2="3.7366"/>
    <line x1="12.7044" x2="16.441" y1="0.0" y2="3.7366"/>
    <line x1="14.199" x2="17.9356" y1="0.0" y2="3.7366"/>
    <line x1="15.6936" x2="19.4302" y1="0.0" y2="3.7366"/>
    <line x1="17.1883" x2="20.9249" y1="0.0" y2="3.7366"/>
    <line x1="18.6829" x2="22.4195" y1="0.0" y2="3.7366"/>
    <line x1="20.1775" x2="22.4195" y1="0.0" y2="2.242"/>
    <line x1="21.6722" x2="22.4195" y1="0.0" y2="0.7473"/>
  </g>
  <g fill="none" id="layer2" inkscape:groupmode="layer" inkscape:label="2" stroke="#080" style="display:inline">
    <polygon points="44.8389,0.0 44.8389,3.7366 67.2584,3.7366 67.2584,0.0"/>
    <line x1="44.8389" x2="46.3336" y1="2.242" y2="3.7366"/>
    <line x1="44.8389" x2="47.8282" y1="0.7473" y2="3.7366"/>
    <line x1="45.5863" x2="49.3228" y1="0.0" y2="3.7366"/>
    <line x1="47.0809" x2="50.8175" y1="0.0" y2="3.7366"/>
    <line x1="48.5755" x2="52.3121" y1="0.0" y2="3.7366"/>
    <line x1="50.0702" x2="53.8067" y1="0.0" y2="3.7366"/>
    <line x1="51.5648" x2="55.3014" y1="0.0" y2="3.7366"/>
    <line x1="53.0594" x2="56.796" y1="0.0" y2="3.7366"/>
    <line x1="54.5541" x2="58.2906" y1="0.0" y2="3.7366"/>
    <line x1="56.0487" x2="59.7853" y1="0.0" y2="3.7366"/>
    <line x1="57.5433" x2="61.2799" y1="0.0" y2="3.7366"/>
    <line x1="59.0379" x2="62.7745" y1="0.0" y2="3.7366"/>
    <line x1="60.5326" x2="64.2692" y1="0.0" y2="3.7366"/>
    <line x1="62.0272" x2="65.7638" y1="0.0" y2="3.7366"/>
    <line x1="63.5218" x2="67.2584" y1="0.0" y2="3.7366"/>
    <line x1="65.0165" x2="67.2584" y1="0.0" y2="2.242"/>
    <line x1="66.5111" x2="67.2584" y1="0.0" y2="0.7473"/>
  </g>
  <g fill="none" id="layer3" inkscape:groupmode="layer" inkscape:label="3" stroke="#f00" style="display:inline">
    <polygon points="89.6779,0.0 89.6779,3.7366 112.0974,3.7366 112.0974,0.0"/>
    <line x1="89.6779" x2="91.1725" y1="2.242" y2="3.7366"/>
    <line x1="89.6779" x2="92.6671" y1="0.7473" y2="3.7366"/>
    <line x1="90.4252" x2="94.1618" y1="0.0" y2="3.7366"/>
    <line x1="91.9198" x2="95.6564" y1="0.0" y2="3.7366"/>
    <line x1="93.4145" x2="97.151" y1="0.0" y2="3.7366"/>
    <line x1="94.9091" x2="98.6457" y1="0.0" y2="3.7366"/>
    <line x1="96.4037" x2="100.1403" y1="0.0" y2="3.7366"/>
    <line x1="97.8984" x2="101.6349" y1="0.0" y2="3.7366"/>
    <line x1="99.393" x2="103.1296" y1="0.0" y2="3.7366"/>
    <line x1="100.8876" x2="104.6242" y1="0.0" y2="3.7366"/>
    <line x1="102.3823" x2="106.1188" y1="0.0" y2="3.7366"/>
    <line x1="103.8769" x2="107.6135" y1="0.0" y2="3.7366"/>
    <line x1="105.3715" x2="109.1081" y1="0.0" y2="3.7366"/>
    <line x1="106.8661" x2="110.6027" y1="0.0" y2="3.7366"/>
    <line x1="108.3608" x2="112.0974" y1="0.0" y2="3.7366"/>
    <line x1="109.8554" x2="112.0974" y1="0.0" y2="2.242"/>
    <line x1="111.35" x2="112.0974" y1="0.0" y2="0.7473"/>
  </g>
  <g fill="none" id="layer4" inkscape:groupmode="layer" inkscape:label="4" stroke="#0cc" style="display:inline">
    <polygon points="134.5168,0.0 134.5168,3.7366 156.9363,3.7366 156.9363,0.0"/>
    <line x1="134.5168" x2="136.0115" y1="2.242" y2="3.7366"/>
    <line x1="134.5168" x2="137.5061" y1="0.7473" y2="3.7366"/>
    <line x1="135.2641" x2="139.0007" y1="0.0" y2="3.7366"/>
    <line x1="136.7588" x2="140.4953" y1="0.0" y2="3.7366"/>
    <line x1="138.2534" x2="141.99" y1="0.0" y2="3.7366"/>
    <line x1="139.748" x2="143.4846" y1="0.0" y2="3.7366"/>
    <line x1="141.2427" x2="144.9792" y1="0.0" y2="3.7366"/>
    <line x1="142.7373" x2="146.4739" y1="0.0" y2="3.7366"/>
    <line x1="144.2319" x2="147.9685" y1="0.0" y2="3.7366"/>
    <line x1="145.7266" x2="149.4632" y1="0.0" y2="3.7366"/>
    <line x1="147.2212" x2="150.9578" y1="0.0" y2="3.7366"/>
    <line x1="148.7158" x2="152.4524" y1="0.0" y2="3.7366"/>
    <line x1="150.2105" x2="153.947" y1="0.0" y2="3.7366"/>
    <line x1="151.7051" x2="155.4417" y1="0.0" y2="3.7366"/>
    <line x1="153.1997" x2="156.9363" y1="0.0" y2="3.7366"/>
    <line x1="154.6943" x2="156.9363" y1="0.0" y2="2.242"/>
    <line x1="156.189" x2="156.9363" y1="0.0" y2="0.7473"/>
  </g>
  <g fill="none" id="layer5" inkscape:groupmode="layer" inkscape:label="5" stroke="#0f0" style="display:inline">
    <polygon points="179.3558,0.0 179.3558,3.7366 201.7752,3.7366 201.7752,0.0"/>
    <line x1="179.3558" x2="180.8504" y1="2.242" y2="3.7366"/>
    <line x1="179.3558" x2="182.345" y1="0.7473" y2="3.7366"/>
    <line x1="180.1031" x2="183.8397" y1="0.0" y2="3.7366"/>
    <line x1="181.5977" x2="185.3343" y1="0.0" y2="3.7366"/>
    <line x1="183.0923" x2="186.8289" y1="0.0" y2="3.7366"/>
    <line x1="184.587" x2="188.3235" y1="0.0" y2="3.7366"/>
    <line x1="186.0816" x2="189.8182" y1="0.0" y2="3.7366"/>
    <line x1="187.5762" x2="191.3128" y1="0.0" y2="3.7366"/>
    <line x1="189.0709" x2="192.8075" y1="0.0" y2="3.7366"/>
    <line x1="190.5655" x2="194.3021" y1="0.0" y2="3.7366"/>
    <line x1="192.0601" x2="195.7967" y1="0.0" y2="3.7366"/>
    <line x1="193.5548" x2="197.2914" y1="0.0" y2="3.7366"/>
    <line x1="195.0494" x2="198.786" y1="0.0" y2="3.7366"/>
    <line x1="196.544" x2="200.2806" y1="0.0" y2="3.7366"/>
    <line x1="198.0387" x2="201.7752" y1="0.0" y2="3.7366"/>
    <line x1="199.5333" x2="201.7752" y1="0.0" y2="2.242"/>
    <line x1="201.0279" x2="201.7752" y1="0.0" y2="0.7473"/>
  </g>
  <g fill="none" id="layer6" inkscape:groupmode="layer" inkscape:label="6" stroke="#c0c" style="display:inline">
    <polygon points="224.1947,0.0 224.1947,3.7366 246.6142,3.7366 246.6142,0.0"/>
    <line x1="224.1947" x2="225.6893" y1="2.242" y2="3.7366"/>
    <line x1="224.1947" x2="227.184" y1="0.7473" y2="3.7366"/>
    <line x1="224.942" x2="228.6786" y1="0.0" y2="3.7366"/>
    <line x1="226.4367" x2="230.1732" y1="0.0" y2="3.7366"/>
    <line x1="227.9313" x2="231.6679" y1="0.0" y2="3.7366"/>
    <line x1="229.4259" x2="233.1625" y1="0.0" y2="3.7366"/>
    <line x1="230.9205" x2="234.6571" y1="0.0" y2="3.7366"/>
    <line x1="232.4152" x2="236.1518" y1="0.0" y2="3.7366"/>
    <line x1="233.9098" x2="237.6464" y1="0.0" y2="3.7366"/>
    <line x1="235.4044" x2="239.141" y1="0.0" y2="3.7366"/>
    <line x1="236.8991" x2="240.6357" y1="0.0" y2="3.7366"/>
    <line x1="238.3937" x2="242.1303" y1="0.0" y2="3.7366"/>
    <line x1="239.8883" x2="243.6249" y1="0.0" y2="3.7366"/>
    <line x1="241.383" x2="245.1196" y1="0.0" y2="3.7366"/>
    <line x1="242.8776" x2="246.6142" y1="0.0" y2="3.7366"/>
    <line x1="244.3722" x2="246.6142" y1="0.0" y2="2.242"/>
    <line x1="245.8669" x2="246.6142" y1="0.0" y2="0.7473"/>
  </g>
  <g fill="none" id="layer7" inkscape:groupmode="layer" inkscape:label="7" stroke="#cc0" style="display:inline">
    <polygon points="269.0336,0.0 269.0336,3.7366 291.4531,3.7366 291.4531,0.0"/>
    <line x1="269.0336" x2="270.5283" y1="2.242" y2="3.7366"/>
    <line x1="269.0336" x2="272.0229" y1="0.7473" y2="3.7366"/>
    <line x1="269.781" x2="273.5175" y1="0.0" y2="3.7366"/>
    <line x1="271.2756" x2="275.0122" y1="0.0" y2="3.7366"/>
    <line x1="272.7702" x2="276.5068" y1="0.0" y2="3.7366"/>
    <line x1="274.2649" x2="278.0014" y1="0.0" y2="3.7366"/>
    <line x1="275.7595" x2="279.4961" y1="0.0" y2="3.7366"/>
    <line x1="277.2541" x2="280.9907" y1="0.0" y2="3.7366"/>
    <line x1="278.7488" x2="282.4853" y1="0.0" y2="3.7366"/>
    <line x1="280.2434" x2="283.98" y1="0.0" y2="3.7366"/>
    <line x1="281.738" x2="285.4746" y1="0.0" y2="3.7366"/>
    <line x1="283.2326" x2="286.9692" y1="0.0" y2="3.7366"/>
    <line x1="284.7273" x2="288.4639" y1="0.0" y2="3.7366"/>
    <line x1="286.2219" x2="289.9585" y1="0.0" y2="3.7366"/>
    <line x1="287.7165" x2="291.4531" y1="0.0" y2="3.7366"/>
    <line x1="289.2112" x2="291.4531" y1="0.0" y2="2.242"/>
    <line x1="290.7058" x2="291.4531" y1="0.0" y2="0.7473"/>
  </g>
  <g fill="none" id="layer8" inkscape:groupmode="layer" inkscape:label="8" stroke="black" style="display:inline">
    <polygon points="313.8726,0.0 313.8726,3.7366 336.2921,3.7366 336.2921,0.0"/>
    <line x1="313.8726" x2="315.3672" y1="2.242" y2="3.7366"/>
    <line x1="313.8726" x2="316.8618" y1="0.7473" y2="3.7366"/>
    <line x1="314.6199" x2="318.3565" y1="0.0" y2="3.7366"/>
    <line x1="316.1145" x2="319.8511" y1="0.0" y2="3.7366"/>
    <line x1="317.6092" x2="321.3457" y1="0.0" y2="3.7366"/>
    <line x1="319.1038" x2="322.8404" y1="0.0" y2="3.7366"/>
    <line x1="320.5984" x2="324.335" y1="0.0" y2="3.7366"/>
    <line x1="322.0931" x2="325.8296" y1="0.0" y2="3.7366"/>
    <line x1="323.5877" x2="327.3243" y1="0.0" y2="3.7366"/>
    <line x1="325.0823" x2="328.8189" y1="0.0" y2="3.7366"/>
    <line x1="326.577" x2="330.3135" y1="0.0" y2="3.7366"/>
    <line x1="328.0716" x2="331.8082" y1="0.0" y2="3.7366"/>
    <line x1="329.5662" x2="333.3028" y1="0.0" y2="3.7366"/>
    <line x1="331.0608" x2="334.7974" y1="0.0" y2="3.7366"/>
    <line x1="332.5555" x2="336.2921" y1="0.0" y2="3.7366"/>
    <line x1="334.0501" x2="336.2921" y1="0.0" y2="2.242"/>
    <line x1="335.5447" x2="336.2921" y1="0.0" y2="0.7473"/>
  </g>
  <g fill="none" id="layer9" inkscape:groupmode="layer" inkscape:label="9" stroke="#00f" style="display:inline">
    <polygon points="358.7115,0.0 358.7115,3.7366 381.131,3.7366 381.131,0.0"/>
    <line x1="358.7115" x2="360.2062" y1="2.242" y2="3.7366"/>
    <line x1="358.7115" x2="361.7008" y1="0.7473" y2="3.7366"/>
    <line x1="359.4588" x2="363.1954" y1="0.0" y2="3.7366"/>
    <line x1="360.9535" x2="364.69" y1="0.0" y2="3.7366"/>
    <line x1="362.4481" x2="366.1847" y1="0.0" y2="3.7366"/>
    <line x1="363.9427" x2="367.6793" y1="0.0" y2="3.7366"/>
    <line x1="365.4374" x2="369.174" y1="0.0" y2="3.7366"/>
    <line x1="366.932" x2="370.6686" y1="0.0" y2="3.7366"/>
    <line x1="368.4266" x2="372.1632" y1="0.0" y2="3.7366"/>
    <line x1="369.9213" x2="373.6579" y1="0.0" y2="3.7366"/>
    <line x1="371.4159" x2="375.1525" y1="0.0" y2="3.7366"/>
    <line x1="372.9105" x2="376.6471" y1="0.0" y2="3.7366"/>
    <line x1="374.4052" x2="378.1417" y1="0.0" y2="3.7366"/>
    <line x1="375.8998" x2="379.6364" y1="0.0" y2="3.7366"/>
    <line x1="377.3944" x2="381.131" y1="0.0" y2="3.7366"/>
    <line x1="378.889" x2="381.131" y1="0.0" y2="2.242"/>
    <line x1="380.3837" x2="381.131" y1="0.0" y2="0.7473"/>
  </g>
  <g fill="none" id="layer10" inkscape:groupmode="layer" inkscape:label="10" stroke="#080" style="display:inline">
    <polygon points="403.5505,0.0 403.5505,3.7366 425.9699,3.7366 425.9699,0.0"/>
    <line x1="403.5505" x2="405.0451" y1="2.242" y2="3.7366"/>
    <line x1="403.5505" x2="406.5397" y1="0.7473" y2="3.7366"/>
    <line x1="404.2978" x2="408.0344" y1="0.0" y2="3.7366"/>
    <line x1="405.7924" x2="409.529" y1="0.0" y2="3.7366"/>
    <line x1="407.287" x2="411.0236" y1="0.0" y2="3.7366"/>
    <line x1="408.7817" x2="412.5182" y1="0.0" y2="3.7366"/>
    <line x1="410.2763" x2="414.0129" y1="0.0" y2="3.7366"/>
    <line x1="411.7709" x2="415.5075" y1="0.0" y2="3.7366"/>
    <line x1="413.2656" x2="417.0022" y1="0.0" y2="3.7366"/>
    <line x1="414.7602" x2="418.4968" y1="0.0" y2="3.7366"/>
    <line x1="416.2548" x2="419.9914" y1="0.0" y2="3.7366"/>
    <line x1="417.7495" x2="421.4861" y1="0.0" y2="3.7366"/>
    <line x1="419.2441" x2="422.9807" y1="0.0" y2="3.7366"/>
    <line x1="420.7387" x2="424.4753" y1="0.0" y2="3.7366"/>
    <line x1="422.2334" x2="425.9699" y1="0.0" y2="3.7366"/>
    <line x1="423.728" x2="425.9699" y1="0.0" y2="2.242"/>
    <line x1="425.2226" x2="425.9699" y1="0.0" y2="0.7473"/>
  </g>
  <g fill="none" id="layer11" inkscape:groupmode="layer" inkscape:label="11" stroke="#f00" style="display:inline">
    <polygon points="448.3894,0.0 448.3894,3.7366 470.8089,3.7366 470.8089,0.0"/>
    <line x1="448.3894" x2="449.884" y1="2.242" y2="3.7366"/>
    <line x1="448.3894" x2="451.3787" y1="0.7473" y2="3.7366"/>
    <line x1="449.1367" x2="452.8733" y1="0.0" y2="3.7366"/>
    <line x1="450.6314" x2="454.3679" y1="0.0" y2="3.7366"/>
    <line x1="452.126" x2="455.8626" y1="0.0" y2="3.7366"/>
    <line x1="453.6206" x2="457.3572" y1="0.0" y2="3.7366"/>
    <line x1="455.1152" x2="458.8518" y1="0.0" y2="3.7366"/>
    <line x1="456.6099" x2="460.3465" y1="0.0" y2="3.7366"/>
    <line x1="458.1045" x2="461.8411" y1="0.0" y2="3.7366"/>
    <line x1="459.5991" x2="463.3357" y1="0.0" y2="3.7366"/>
    <line x1="461.0938" x2="464.8304" y1="0.0" y2="3.7366"/>
    <line x1="462.5884" x2="466.325" y1="0.0" y2="3.7366"/>
    <line x1="464.083" x2="467.8196" y1="0.0" y2="3.7366"/>
    <line x1="465.5777" x2="469.3143" y1="0.0" y2="3.7366"/>
    <line x1="467.0723" x2="470.8089" y1="0.0" y2="3.7366"/>
    <line x1="468.5669" x2="470.8089" y1="0.0" y2="2.242"/>
    <line x1="470.0616" x2="470.8089" y1="0.0" y2="0.7473"/>
  </g>
  <g fill="none" id="layer12" inkscape:groupmode="layer" inkscape:label="12" stroke="#0cc" style="display:inline">
    <polygon points="493.2283,0.0 493.2283,3.7366 515.6478,3.7366 515.6478,0.0"/>
    <line x1="493.2283" x2="494.723" y1="2.242" y2="3.7366"/>
    <line x1="493.2283" x2="496.2176" y1="0.7473" y2="3.7366"/>
    <line x1="493.9757" x2="497.7122" y1="0.0" y2="3.7366"/>
    <line x1="495.4703" x2="499.2069" y1="0.0" y2="3.7366"/>
    <line x1="496.9649" x2="500.7015" y1="0.0" y2="3.7366"/>
    <line x1="498.4596" x2="502.1961" y1="0.0" y2="3.7366"/>
    <line x1="499.9542" x2="503.6908" y1="0.0" y2="3.7366"/>
    <line x1="501.4488" x2="505.1854" y1="0.0" y2="3.7366"/>
    <line x1="502.9435" x2="506.68" y1="0.0" y2="3.7366"/>
    <line x1="504.4381" x2="508.1747" y1="0.0" y2="3.7366"/>
    <line x1="505.9327" x2="509.6693" y1="0.0" y2="3.7366"/>
    <line x1="507.4273" x2="511.1639" y1="0.0" y2="3.7366"/>
    <line x1="508.922" x2="512.6586" y1="0.0" y2="3.7366"/>
    <line x1="510.4166" x2="514.1532" y1="0.0" y2="3.7366"/>
    <line x1="511.9112" x2="515.6478" y1="0.0" y2="3.7366"/>
    <line x1="513.4059" x2="515.6478" y1="0.0" y2="2.242"/>
    <line x1="514.9005" x2="515.6478" y1="0.0" y2="0.7473"/>
  </g>
  <g fill="none" id="layer13" inkscape:groupmode="layer" inkscape:label="13" stroke="#0f0" style="display:inline">
    <polygon points="538.0673,0.0 538.0673,3.7366 560.4868,3.7366 560.4868,0.0"/>
    <line x1="538.0673" x2="539.5619" y1="2.242" y2="3.7366"/>
    <line x1="538.0673" x2="541.0565" y1="0.7473" y2="3.7366"/>
    <line x1="538.8146" x2="542.5512" y1="0.0" y2="3.7366"/>
    <line x1="540.3092" x2="544.0458" y1="0.0" y2="3.7366"/>
    <line x1="541.8039" x2="545.5404" y1="0.0" y2="3.7366"/>
    <line x1="543.2985" x2="547.0351" y1="0.0" y2="3.7366"/>
    <line x1="544.7931" x2="548.5297" y1="0.0" y2="3.7366"/>
    <line x1="546.2878" x2="550.0243" y1="0.0" y2="3.7366"/>
    <line x1="547.7824" x2="551.519" y1="0.0" y2="3.7366"/>
    <line x1="549.277" x2="553.0136" y1="0.0" y2="3.7366"/>
    <line x1="550.7717" x2="554.5082" y1="0.0" y2="3.7366"/>
    <line x1="552.2663" x2="556.0029" y1="0.0" y2="3.7366"/>
    <line x1="553.7609" x2="557.4975" y1="0.0" y2="3.7366"/>
    <line x1="555.2555" x2="558.9921" y1="0.0" y2="3.7366"/>
    <line x1="556.7502" x2="560.4868" y1="0.0" y2="3.7366"/>
    <line x1="558.2448" x2="560.4868" y1="0.0" y2="2.242"/>
    <line x1="559.7394" x2="560.4868" y1="0.0" y2="0.7473"/>
  </g>
  <g fill="none" id="layer14" inkscape:groupmode="layer" inkscape:label="14" stroke="#c0c" style="display:inline">
    <polygon points="582.9062,0.0 582.9062,3.7366 605.3257,3.7366 605.3257,0.0"/>
    <line x1="582.9062" x2="584.4009" y1="2.242" y2="3.7366"/>
    <line x1="582.9062" x2="585.8955" y1="0.7473" y2="3.7366"/>
    <line x1="583.6535" x2="587.3901" y1="0.0" y2="3.7366"/>
    <line x1="585.1482" x2="588.8847" y1="0.0" y2="3.7366"/>
    <line x1="586.6428" x2="590.3794" y1="0.0" y2="3.7366"/>
    <line x1="588.1374" x2="591.874" y1="0.0" y2="3.7366"/>
    <line x1="589.6321" x2="593.3687" y1="0.0" y2="3.7366"/>
    <line x1="591.1267" x2="594.8633" y1="0.0" y2="3.7366"/>
    <line x1="592.6213" x2="596.3579" y1="0.0" y2="3.7366"/>
    <line x1="594.116" x2="597.8526" y1="0.0" y2="3.7366"/>
    <line x1="595.6106" x2="599.3472" y1="0.0" y2="3.7366"/>
    <line x1="597.1052" x2="600.8418" y1="0.0" y2="3.7366"/>
    <line x1="598.5999" x2="602.3364" y1="0.0" y2="3.7366"/>
    <line x1="600.0945" x2="603.8311" y1="0.0" y2="3.7366"/>
    <line x1="601.5891" x2="605.3257" y1="0.0" y2="3.7366"/>
    <line x1="603.0837" x2="605.3257" y1="0.0" y2="2.242"/>
    <line x1="604.5784" x2="605.3257" y1="0.0" y2="0.7473"/>
  </g>
  <g fill="none" id="layer15" inkscape:groupmode="layer" inkscape:label="15" stroke="#cc0" style="display:inline">
    <polygon points="627.7452,0.0 627.7452,3.7366 650.1646,3.7366 650.1646,0.0"/>
    <line x1="627.7452" x2="629.2398" y1="2.242" y2="3.7366"/>
    <line x1="627.7452" x2="630.7344" y1="0.7473" y2="3.7366"/>
    <line x1="628.4925" x2="632.2291" y1="0.0" y2="3.7366"/>
    <line x1="629.9871" x2="633.7237" y1="0.0" y2="3.7366"/>
    <line x1="631.4817" x2="635.2183" y1="0.0" y2="3.7366"/>
    <line x1="632.9764" x2="636.713" y1="0.0" y2="3.7366"/>
    <line x1="634.471" x2="638.2076" y1="0.0" y2="3.7366"/>
    <line x1="635.9656" x2="639.7022" y1="0.0" y2="3.7366"/>
    <line x1="637.4603" x2="641.1969" y1="0.0" y2="3.7366"/>
    <line x1="638.9549" x2="642.6915" y1="0.0" y2="3.7366"/>
    <line x1="640.4495" x2="644.1861" y1="0.0" y2="3.7366"/>
    <line x1="641.9442" x2="645.6808" y1="0.0" y2="3.7366"/>
    <line x1="643.4388" x2="647.1754" y1="0.0" y2="3.7366"/>
    <line x1="644.9334" x2="648.67" y1="0.0" y2="3.7366"/>
    <line x1="646.4281" x2="650.1646" y1="0.0" y2="3.7366"/>
    <line x1="647.9227" x2="650.1646" y1="0.0" y2="2.242"/>
    <line x1="649.4173" x2="650.1646" y1="0.0" y2="0.7473"/>
  </g>
  <g fill="none" id="layer16" inkscape:groupmode="layer" inkscape:label="16" stroke="black" style="display:inline">
    <polygon points="672.5841,0.0 672.5841,3.7366 695.0036,3.7366 695.0036,0.0"/>
    <line x1="672.5841" x2="674.0787" y1="2.242" y2="3.7366"/>
    <line x1="672.5841" x2="675.5734" y1="0.7473" y2="3.7366"/>
    <line x1="673.3314" x2="677.068" y1="0.0" y2="3.7366"/>
    <line x1="674.8261" x2="678.5626" y1="0.0" y2="3.7366"/>
    <line x1="676.3207" x2="680.0573" y1="0.0" y2="3.7366"/>
    <line x1="677.8153" x2="681.5519" y1="0.0" y2="3.7366"/>
    <line x1="679.3099" x2="683.0465" y1="0.0" y2="3.7366"/>
    <line x1="680.8046" x2="684.5412" y1="0.0" y2="3.7366"/>
    <line x1="682.2992" x2="686.0358" y1="0.0" y2="3.7366"/>
    <line x1="683.7938" x2="687.5304" y1="0.0" y2="3.7366"/>
    <line x1="685.2885" x2="689.0251" y1="0.0" y2="3.7366"/>
    <line x1="686.7831" x2="690.5197" y1="0.0" y2="3.7366"/>
    <line x1="688.2777" x2="692.0143" y1="0.0" y2="3.7366"/>
    <line x1="689.7724" x2="693.509" y1="0.0" y2="3.7366"/>
    <line x1="691.267" x2="695.0036" y1="0.0" y2="3.7366"/>
    <line x1="692.7616" x2="695.0036" y1="0.0" y2="2.242"/>
    <line x1="694.2563" x2="695.0036" y1="0.0" y2="0.7473"/>
  </g>
  <g fill="none" id="layer17" inkscape:groupmode="layer" inkscape:label="17" stroke="#00f" style="display:inline">
    <polygon points="717.423,0.0 717.423,3.7366 739.8425,3.7366 739.8425,0.0"/>
    <line x1="717.423" x2="718.9177" y1="2.242" y2="3.7366"/>
    <line x1="717.423" x2="720.4123" y1="0.7473" y2="3.7366"/>
    <line x1="718.1704" x2="721.9069" y1="0.0" y2="3.7366"/>
    <line x1="719.665" x2="723.4016" y1="0.0" y2="3.7366"/>
    <line x1="721.1596" x2="724.8962" y1="0.0" y2="3.7366"/>
    <line x1="722.6543" x2="726.3908" y1="0.0" y2="3.7366"/>
    <line x1="724.1489" x2="727.8855" y1="0.0" y2="3.7366"/>
    <line x1="725.6435" x2="729.3801" y1="0.0" y2="3.7366"/>
    <line x1="727.1382" x2="730.8747" y1="0.0" y2="3.7366"/>
    <line x1="728.6328" x2="732.3694" y1="0.0" y2="3.7366"/>
    <line x1="730.1274" x2="733.864" y1="0.0" y2="3.7366"/>
    <line x1="731.622" x2="735.3586" y1="0.0" y2="3.7366"/>
    <line x1="733.1167" x2="736.8533" y1="0.0" y2="3.7366"/>
    <line x1="734.6113" x2="738.3479" y1="0.0" y2="3.7366"/>
    <line x1="736.1059" x2="739.8425" y1="0.0" y2="3.7366"/>
    <line x1="737.6006" x2="739.8425" y1="0.0" y2="2.242"/>
    <line x1="739.0952" x2="739.8425" y1="0.0" y2="0.7473"/>
  </g>
  <g fill="none" id="layer18" inkscape:groupmode="layer" inkscape:label="18" stroke="#080" style="display:inline">
    <polygon points="762.262,0.0 762.262,3.7366 784.6815,3.7366 784.6815,0.0"/>
    <line x1="762.262" x2="763.7566" y1="2.242" y2="3.7366"/>
    <line x1="762.262" x2="765.2512" y1="0.7473" y2="3.7366"/>
    <line x1="763.0093" x2="766.7459" y1="0.0" y2="3.7366"/>
    <line x1="764.5039" x2="768.2405" y1="0.0" y2="3.7366"/>
    <line x1="765.9986" x2="769.7352" y1="0.0" y2="3.7366"/>
    <line x1="767.4932" x2="771.2298" y1="0.0" y2="3.7366"/>
    <line x1="768.9878" x2="772.7244" y1="0.0" y2="3.7366"/>
    <line x1="770.4825" x2="774.219" y1="0.0" y2="3.7366"/>
    <line x1="771.9771" x2="775.7137" y1="0.0" y2="3.7366"/>
    <line x1="773.4717" x2="777.2083" y1="0.0" y2="3.7366"/>
    <line x1="774.9664" x2="778.7029" y1="0.0" y2="3.7366"/>
    <line x1="776.461" x2="780.1976" y1="0.0" y2="3.7366"/>
    <line x1="777.9556" x2="781.6922" y1="0.0" y2="3.7366"/>
    <line x1="779.4502" x2="783.1868" y1="0.0" y2="3.7366"/>
    <line x1="780.9449" x2="784.6815" y1="0.0" y2="3.7366"/>
    <line x1="782.4395" x2="784.6815" y1="0.0" y2="2.242"/>
    <line x1="783.9342" x2="784.6815" y1="0.0" y2="0.7473"/>
  </g>
  <g fill="none" id="layer19" inkscape:groupmode="layer" inkscape:label="19" stroke="#f00" style="display:inline">
    <polygon points="807.1009,0.0 807.1009,3.7366 829.5204,3.7366 829.5204,0.0"/>
    <line x1="807.1009" x2="808.5956" y1="2.242" y2="3.7366"/>
    <line x1="807.1009" x2="810.0902" y1="0.7473" y2="3.7366"/>
    <line x1="807.8482" x2="811.5848" y1="0.0" y2="3.7366"/>
    <line x1="809.3429" x2="813.0794" y1="0.0" y2="3.7366"/>
    <line x1="810.8375" x2="814.5741" y1="0.0" y2="3.7366"/>
    <line x1="812.3321" x2="816.0687" y1="0.0" y2="3.7366"/>
    <line x1="813.8268" x2="817.5634" y1="0.0" y2="3.7366"/>
    <line x1="815.3214" x2="819.058" y1="0.0" y2="3.7366"/>
    <line x1="816.816" x2="820.5526" y1="0.0" y2="3.7366"/>
    <line x1="818.3107" x2="822.0473" y1="0.0" y2="3.7366"/>
    <line x1="819.8053" x2="823.5419" y1="0.0" y2="3.7366"/>
    <line x1="821.2999" x2="825.0365" y1="0.0" y2="3.7366"/>
    <line x1="822.7946" x2="826.5311" y1="0.0" y2="3.7366"/>
    <line x1="824.2892" x2="828.0258" y1="0.0" y2="3.7366"/>
    <line x1="825.7838" x2="829.5204" y1="0.0" y2="3.7366"/>
    <line x1="827.2785" x2="829.5204" y1="0.0" y2="2.242"/>
    <line x1="828.7731" x2="829.5204" y1="0.0" y2="0.7473"/>
  </g>
  <g fill="none" id="layer20" inkscape:groupmode="layer" inkscape:label="20" stroke="#0cc" style="display:inline">
    <polygon points="851.9399,0.0 851.9399,3.7366 874.3593,3.7366 874.3593,0.0"/>
    <line x1="851.9399" x2="853.4345" y1="2.242" y2="3.7366"/>
    <line x1="851.9399" x2="854.9291" y1="0.7473" y2="3.7366"/>
    <line x1="852.6872" x2="856.4238" y1="0.0" y2="3.7366"/>
    <line x1="854.1818" x2="857.9184" y1="0.0" y2="3.7366"/>
    <line x1="855.6764" x2="859.413" y1="0.0" y2="3.7366"/>
    <line x1="857.1711" x2="860.9077" y1="0.0" y2="3.7366"/>
    <line x1="858.6657" x2="862.4023" y1="0.0" y2="3.7366"/>
    <line x1="860.1603" x2="863.8969" y1="0.0" y2="3.7366"/>
    <line x1="861.655" x2="865.3916" y1="0.0" y2="3.7366"/>
    <line x1="863.1496" x2="866.8862" y1="0.0" y2="3.7366"/>
    <line x1="864.6442" x2="868.3808" y1="0.0" y2="3.7366"/>
    <line x1="866.1389" x2="869.8755" y1="0.0" y2="3.7366"/>
    <line x1="867.6335" x2="871.3701" y1="0.0" y2="3.7366"/>
    <line x1="869.1281" x2="872.8647" y1="0.0" y2="3.7366"/>
    <line x1="870.6228" x2="874.3593" y1="0.0" y2="3.7366"/>
    <line x1="872.1174" x2="874.3593" y1="0.0" y2="2.242"/>
    <line x1="873.612" x2="874.3593" y1="0.0" y2="0.7473"/>
  </g>
  <g fill="none" id="layer21" inkscape:groupmode="layer" inkscape:label="21" stroke="#0f0" style="display:inline">
    <polygon points="896.7788,0.0 896.7788,3.7366 919.1983,3.7366 919.1983,0.0"/>
    <line x1="896.7788" x2="898.2734" y1="2.242" y2="3.7366"/>
    <line x1="896.7788" x2="899.7681" y1="0.7473" y2="3.7366"/>
    <line x1="897.5261" x2="901.2627" y1="0.0" y2="3.7366"/>
    <line x1="899.0208" x2="902.7573" y1="0.0" y2="3.7366"/>
    <line x1="900.5154" x2="904.252" y1="0.0" y2="3.7366"/>
    <line x1="902.01" x2="905.7466" y1="0.0" y2="3.7366"/>
    <line x1="903.5046" x2="907.2412" y1="0.0" y2="3.7366"/>
    <line x1="904.9993" x2="908.7359" y1="0.0" y2="3.7366"/>
    <line x1="906.4939" x2="910.2305" y1="0.0" y2="3.7366"/>
    <line x1="907.9885" x2="911.7251" y1="0.0" y2="3.7366"/>
    <line x1="909.4832" x2="913.2198" y1="0.0" y2="3.7366"/>
    <line x1="910.9778" x2="914.7144" y1="0.0" y2="3.7366"/>
    <line x1="912.4724" x2="916.209" y1="0.0" y2="3.7366"/>
    <line x1="913.9671" x2="917.7037" y1="0.0" y2="3.7366"/>
    <line x1="915.4617" x2="919.1983" y1="0.0" y2="3.7366"/>
    <line x1="916.9563" x2="919.1983" y1="0.0" y2="2.242"/>
    <line x1="918.451" x2="919.1983" y1="0.0" y2="0.7473"/>
  </g>
  <g fill="none" id="layer22" inkscape:groupmode="layer" inkscape:label="22" stroke="#c0c" style="display:inline">
    <polygon points="941.6177,0.0 941.6177,3.7366 964.0372,3.7366 964.0372,0.0"/>
    <line x1="941.6177" x2="943.1124" y1="2.242" y2="3.7366"/>
    <line x1="941.6177" x2="944.607" y1="0.7473" y2="3.7366"/>
    <line x1="942.3651" x2="946.1016" y1="0.0" y2="3.7366"/>
    <line x1="943.8597" x2="947.5963" y1="0.0" y2="3.7366"/>
    <line x1="945.3543" x2="949.0909" y1="0.0" y2="3.7366"/>
    <line x1="946.849" x2="950.5855" y1="0.0" y2="3.7366"/>
    <line x1="948.3436" x2="952.0802" y1="0.0" y2="3.7366"/>
    <line x1="949.8382" x2="953.5748" y1="0.0" y2="3.7366"/>
    <line x1="951.3329" x2="955.0694" y1="0.0" y2="3.7366"/>
    <line x1="952.8275" x2="956.5641" y1="0.0" y2="3.7366"/>
    <line x1="954.3221" x2="958.0587" y1="0.0" y2="3.7366"/>
    <line x1="955.8167" x2="959.5533" y1="0.0" y2="3.7366"/>
    <line x1="957.3114" x2="961.048" y1="0.0" y2="3.7366"/>
    <line x1="958.806" x2="962.5426" y1="0.0" y2="3.7366"/>
    <line x1="960.3006" x2="964.0372" y1="0.0" y2="3.7366"/>
    <line x1="961.7953" x2="964.0372" y1="0.0" y2="2.242"/>
    <line x1="963.2899" x2="964.0372" y1="0.0" y2="0.7473"/>
  </g>
  <g fill="none" id="layer23" inkscape:groupmode="layer" inkscape:label="23" stroke="#cc0" style="display:inline">
    <polygon points="22.4195,0.0 22.4195,3.7366 44.8389,3.7366 44.8389,0.0"/>
  </g>
  <g fill="none" id="layer24" inkscape:groupmode="layer" inkscape:label="24" stroke="black" style="display:inline">
    <polygon points="67.2584,0.0 67.2584,3.7366 89.6779,3.7366 89.6779,0.0"/>
  </g>
  <g fill="none" id="layer25" inkscape:groupmode="layer" inkscape:label="25" stroke="#00f" style="display:inline">
    <polygon points="112.0974,0.0 112.0974,3.7366 134.5168,3.7366 134.5168,0.0"/>
  </g>
  <g fill="none" id="layer26" inkscape:groupmode="layer" inkscape:label="26" stroke="#080" style="display:inline">
    <polygon points="156.9363,0.0 156.9363,3.7366 179.3558,3.7366 179.3558,0.0"/>
  </g>
  <g fill="none" id="layer27" inkscape:groupmode="layer" inkscape:label="27" stroke="#f00" style="display:inline">
    <polygon points="201.7752,0.0 201.7752,3.7366 224.1947,3.7366 224.1947,0.0"/>
  </g>
  <g fill="none" id="layer28" inkscape:groupmode="layer" inkscape:label="28" stroke="#0cc" style="display:inline">
    <polygon points="246.6142,0.0 246.6142,3.7366 269.0336,3.7366 269.0336,0.0"/>
  </g>
  <g fill="none" id="layer29" inkscape:groupmode="layer" inkscape:label="29" stroke="#0f0" style="display:inline">
    <polygon points="291.4531,0.0 291.4531,3.7366 313.8726,3.7366 313.8726,0.0"/>
  </g>
  <g fill="none" id="layer30" inkscape:groupmode="layer" inkscape:label="30" stroke="#c0c" style="display:inline">
    <polygon points="336.2921,0.0 336.2921,3.7366 358.7115,3.7366 358.7115,0.0"/>
  </g>
  <g fill="none" id="layer31" inkscape:groupmode="layer" inkscape:label="31" stroke="#cc0" style="display:inline">
    <polygon points="381.131,0.0 381.131,3.7366 403.5505,3.7366 403.5505,0.0"/>
  </g>
  <g fill="none" id="layer32" inkscape:groupmode="layer" inkscape:label="32" stroke="black" style="display:inline">
    <polygon points="425.9699,0.0 425.9699,3.7366 448.3894,3.7366 448.3894,0.0"/>
  </g>
  <g fill="none" id="layer33" inkscape:groupmode="layer" inkscape:label="33" stroke="#00f" style="display:inline">
    <polygon points="470.8089,0.0 470.8089,3.7366 493.2283,3.7366 493.2283,0.0"/>
  </g>
  <g fill="none" id="layer34" inkscape:groupmode="layer" inkscape:label="34" stroke="#080" style="display:inline">
    <polygon points="515.6478,0.0 515.6478,3.7366 538.0673,3.7366 538.0673,0.0"/>
  </g>
  <g fill="none" id="layer35" inkscape:groupmode="layer" inkscape:label="35" stroke="#f00" style="display:inline">
    <polygon points="560.4868,0.0 560.4868,3.7366 582.9062,3.7366 582.9062,0.0"/>
  </g>
  <g fill="none" id="layer36" inkscape:groupmode="layer" inkscape:label="36" stroke="#0cc" style="display:inline">
    <polygon points="605.3257,0.0 605.3257,3.7366 627.7452,3.7366 627.7452,0.0"/>
  </g>
  <g fill="none" id="layer37" inkscape:groupmode="layer" inkscape:label="37" stroke="#0f0" style="display:inline">
    <polygon points="650.1646,0.0 650.1646,3.7366 672.5841,3.7366 672.5841,0.0"/>
  </g>
  <g fill="none" id="layer38" inkscape:groupmode="layer" inkscape:label="38" stroke="#c0c" style="display:inline">
    <polygon points="695.0036,0.0 695.0036,3.7366 717.4231,3.7366 717.4231,0.0"/>
  </g>
  <g fill="none" id="layer39" inkscape:groupmode="layer" inkscape:label="39" stroke="#cc0" style="display:inline">
    <polygon points="739.8425,0.0 739.8425,3.7366 762.262,3.7366 762.262,0.0"/>
  </g>
  <g fill="none" id="layer40" inkscape:groupmode="layer" inkscape:label="40" stroke="black" style="display:inline">
    <polygon points="784.6815,0.0 784.6815,3.7366 807.1009,3.7366 807.1009,0.0"/>
  </g>
  <g fill="none" id="layer41" inkscape:groupmode="layer" inkscape:label="41" stroke="#00f" style="display:inline">
    <polygon points="829.5204,0.0 829.5204,3.7366 851.9399,3.7366 851.9399,0.0"/>
  </g>
  <g fill="none" id="layer42" inkscape:groupmode="layer" inkscape:label="42" stroke="#080" style="display:inline">
    <polygon points="874.3593,0.0 874.3593,3.7366 896.7788,3.7366 896.7788,0.0"/>
  </g>
  <g fill="none" id="layer43" inkscape:groupmode="layer" inkscape:label="43" stroke="#f00" style="display:inline">
    <polygon points="919.1983,0.0 919.1983,3.7366 941.6178,3.7366 941.6178,0.0"/>
  </g>
  <g fill="none" id="layer44" inkscape:groupmode="layer" inkscape:label="44" stroke="#0cc" style="display:inline">
    <polygon points="964.0372,0.0 964.0372,3.7366 986.4567,3.7366 986.4567,0.0"/>
  </g>
</svg>
