<?xml version="1.0" encoding="utf-8" ?>
<svg xmlns="http://www.w3.org/2000/svg" xmlns:cc="http://creativecommons.org/ns#" xmlns:dc="http://purl.org/dc/elements/1.1/" xmlns:ev="http://www.w3.org/2001/xml-events" xmlns:inkscape="http://www.inkscape.org/namespaces/inkscape" xmlns:rdf="http://www.w3.org/1999/02/22-rdf-syntax-ns#" xmlns:sodipodi="http://sodipodi.sourceforge.net/DTD/sodipodi-0.dtd" xmlns:xlink="http://www.w3.org/1999/xlink" baseProfile="tiny" height="24.0cm" version="1.2" viewBox="0 0 1209.4488188976377 907.0866141732283" width="32.0cm">
  <metadata>
    <rdf:RDF>
      <cc:Work>
        <dc:format>image/svg+xml</dc:format>
        <dc:source>vpype read map/salesin_small.svg translate -- 9.2500cm 9.9000cm pagesize -l 24cmx32cm write map/salesin_small.svg
</dc:source>
        <dc:date>2021-06-21T12:58:31.109746</dc:date>
      </cc:Work>
    </rdf:RDF>
  </metadata>
  <defs/>
  <g fill="none" id="layer1" inkscape:groupmode="layer" inkscape:label="1" stroke="#00f" style="display:inline">
    <polyline points="682.8349,377.9527 681.575,376.6928 679.0554,375.4331 675.2758,374.1732"/>
    <line x1="684.0946" x2="681.575" y1="376.6928" y2="375.4331"/>
    <polyline points="685.3545,375.4331 680.3151,374.1732 675.2758,374.1732 671.4963,375.4331 670.2364,376.6928 668.9765,379.2126 670.2364,381.7323 671.4963,382.9922 675.2758,384.2521 685.3545,384.2521 687.8741,385.5118 689.134,386.7717 689.134,389.2913 687.8741,393.0708"/>
    <polyline points="670.2364,380.4723 671.4963,381.7323 675.2758,382.9922 686.6142,382.9922 689.134,384.2521 690.3937,385.5118 690.3937,388.0316 689.134,390.5512"/>
    <polyline points="670.2364,376.6928 670.2364,379.2126 671.4963,380.4723 675.2758,381.7323 687.8741,381.7323 690.3937,382.9922 691.6536,385.5118 691.6536,388.0316 687.8741,393.0708 682.8349,400.6299"/>
    <polyline points="667.7168,385.5118 668.9765,386.7717 671.4963,388.0316 682.8349,388.0316 684.0946,389.2913 684.0946,390.5512 682.8349,393.0708"/>
    <polyline points="668.9765,388.0316 671.4963,389.2913 681.575,389.2913 682.8349,390.5512"/>
    <polyline points="667.7168,385.5118 667.7168,386.7717 668.9765,389.2913 671.4963,390.5512 680.3151,390.5512 682.8349,391.8111 682.8349,393.0708"/>
    <polyline points="667.7168,400.6299 671.4963,398.1103 676.5355,396.8504 680.3151,396.8504 684.0946,398.1103"/>
    <polyline points="670.2364,399.3702 674.0159,398.1103 679.0554,398.1103 682.8349,399.3702"/>
    <polyline points="667.7168,400.6299 672.756,399.3702 679.0554,399.3702 682.8349,400.6299"/>
    <polyline points="685.3545,375.4331 682.8349,377.9527 680.3151,381.7323"/>
    <line x1="679.0554" x2="676.5355" y1="384.2521" y2="388.0316"/>
    <polyline points="675.2758,390.5512 672.756,393.0708 670.2364,394.3307 668.9765,394.3307 668.9765,393.0708 670.2364,394.3307"/>
    <polyline points="698.8348,389.2913 696.3151,391.8111 695.0552,394.3307 695.0552,396.8504 696.3151,399.3702 698.8348,400.6299"/>
    <polyline points="698.8348,400.6299 701.3546,398.1103 705.1341,396.8504"/>
    <polyline points="695.0552,394.3307 696.3151,396.8504 697.575,398.1103 700.0947,399.3702"/>
    <polyline points="696.3151,391.8111 696.3151,394.3307 697.575,396.8504 700.0947,398.1103 701.3546,398.1103"/>
    <polyline points="696.3151,386.7717 698.8348,386.7717 702.6143,385.5118 705.1341,384.2521 706.3938,382.9922 708.9136,385.5118 707.6537,386.7717 707.6537,396.8504 708.9136,398.1103 710.1733,398.1103"/>
    <polyline points="697.575,384.2521 696.3151,385.5118 700.0947,385.5118"/>
    <polyline points="703.8742,385.5118 707.6537,385.5118 706.3938,384.2521 706.3938,398.1103 707.6537,399.3702"/>
    <polyline points="695.0552,385.5118 697.575,382.9922 698.8348,384.2521 701.3546,385.5118 705.1341,386.7717 705.1341,398.1103 707.6537,400.6299"/>
    <line x1="707.6537" x2="710.1733" y1="400.6299" y2="398.1103"/>
    <line x1="695.0552" x2="701.3546" y1="385.5118" y2="391.8111"/>
    <polyline points="714.3308,376.6928 715.5907,379.2126 715.5907,396.8504 713.0711,398.1103 714.3308,398.1103 716.8506,399.3702 718.1103,400.6299"/>
    <polyline points="716.8506,379.2126 715.5907,376.6928 716.8506,375.4331 716.8506,398.1103 719.3702,399.3702"/>
    <polyline points="714.3308,376.6928 718.1103,374.1732 718.1103,396.8504 720.6302,398.1103 721.8899,398.1103 719.3702,399.3702 718.1103,400.6299"/>
    <polyline points="726.9293,385.5118 726.9293,396.8504 724.4097,398.1103 725.6694,398.1103 728.1892,399.3702 729.4489,400.6299"/>
    <polyline points="728.1892,385.5118 728.1892,398.1103 730.7088,399.3702"/>
    <polyline points="729.4489,385.5118 729.4489,396.8504 731.9687,398.1103 733.2285,398.1103 730.7088,399.3702 729.4489,400.6299"/>
    <polyline points="726.9293,385.5118 731.9687,384.2521 734.4884,382.9922 738.2679,388.0316 735.7483,389.2913 729.4489,393.0708"/>
    <line x1="733.2285" x2="737.008" y1="384.2521" y2="388.0316"/>
    <polyline points="729.4489,385.5118 731.9687,384.2521 735.7483,389.2913"/>
    <polyline points="741.5434,385.5118 741.5434,390.5512 744.0632,391.8111 751.6223,391.8111 754.1419,393.0708 754.1419,398.1103"/>
    <line x1="742.8033" x2="742.8033" y1="385.5118" y2="390.5512"/>
    <line x1="752.882" x2="752.882" y1="393.0708" y2="398.1103"/>
    <polyline points="745.3229,384.2521 744.0632,385.5118 744.0632,390.5512 746.5828,391.8111"/>
    <polyline points="749.1025,391.8111 751.6223,393.0708 751.6223,398.1103 750.3624,399.3702"/>
    <polyline points="741.5434,385.5118 745.3229,384.2521 747.8428,382.9922 750.3624,384.2521 752.882,384.2521 754.1419,382.9922"/>
    <line x1="746.5828" x2="749.1025" y1="384.2521" y2="384.2521"/>
    <polyline points="745.3229,384.2521 747.8428,385.5118 750.3624,385.5118 752.882,384.2521"/>
    <polyline points="754.1419,398.1103 750.3624,399.3702 747.8428,400.6299"/>
    <polyline points="747.8428,400.6299 745.3229,399.3702 742.8033,399.3702 740.2837,400.6299"/>
    <line x1="749.1025" x2="746.5828" y1="399.3702" y2="399.3702"/>
    <polyline points="750.3624,399.3702 747.8428,398.1103 744.0632,398.1103 740.2837,400.6299"/>
    <polyline points="754.1419,382.9922 752.882,385.5118 750.3624,389.2913 744.0632,395.5906 740.2837,400.6299"/>
    <polygon points="762.205,374.1732 759.6851,376.6928 762.205,377.9527 764.7246,376.6928"/>
    <polygon points="762.205,375.4331 760.9451,376.6928 763.4647,376.6928"/>
    <polyline points="762.205,382.9922 760.9451,384.2521 758.4254,385.5118 760.9451,386.7717 760.9451,398.1103 763.4647,400.6299"/>
    <line x1="763.4647" x2="765.9845" y1="400.6299" y2="398.1103"/>
    <polyline points="762.205,386.7717 763.4647,385.5118 762.205,384.2521 760.9451,385.5118 762.205,386.7717 762.205,398.1103 763.4647,399.3702"/>
    <polyline points="762.205,382.9922 763.4647,384.2521 765.9845,385.5118 763.4647,386.7717 763.4647,396.8504 764.7246,398.1103 765.9845,398.1103"/>
    <polyline points="769.764,385.5118 771.0237,385.5118 772.2836,386.7717 772.2836,396.8504 769.764,398.1103 771.0237,398.1103 773.5435,399.3702 774.8033,400.6299"/>
    <polyline points="772.2836,384.2521 773.5435,385.5118 773.5435,398.1103 776.0632,399.3702"/>
    <polyline points="769.764,385.5118 772.2836,382.9922 774.8033,385.5118 774.8033,396.8504 777.3231,398.1103 774.8033,400.6299"/>
    <polyline points="774.8033,386.7717 778.5828,385.5118 781.1026,384.2521 782.3623,382.9922 783.6222,384.2521 786.1418,385.5118 787.4017,385.5118 784.8821,386.7717 784.8821,396.8504 786.1418,398.1103 787.4017,398.1103"/>
    <polyline points="781.1026,384.2521 783.6222,385.5118 783.6222,398.1103 784.8821,399.3702"/>
    <polyline points="778.5828,385.5118 779.8427,385.5118 782.3623,386.7717 782.3623,398.1103 784.8821,400.6299"/>
    <line x1="784.8821" x2="787.4017" y1="400.6299" y2="398.1103"/>
  </g>
</svg>
