<?xml version="1.0" encoding="UTF-8" standalone="no"?>
<svg
   xmlns:dc="http://purl.org/dc/elements/1.1/"
   xmlns:cc="http://creativecommons.org/ns#"
   xmlns:rdf="http://www.w3.org/1999/02/22-rdf-syntax-ns#"
   xmlns:svg="http://www.w3.org/2000/svg"
   xmlns="http://www.w3.org/2000/svg"
   width="210mm"
   height="297mm"
   viewBox="0 0 210 297"
   version="1.1"
   id="svg8">
  <defs
     id="defs2" />
  <metadata
     id="metadata5">
    <rdf:RDF>
      <cc:Work
         rdf:about="">
        <dc:format>image/svg+xml</dc:format>
        <dc:type
           rdf:resource="http://purl.org/dc/dcmitype/StillImage" />
        <dc:title></dc:title>
      </cc:Work>
    </rdf:RDF>
  </metadata>
  <g
     id="layer1">
    <g
       id="g1959">
      <g
         id="g1957" />
      <g
         id="g13793">
        <g
           id="g13791">
          <path
             style="fill:none;stroke:#000000;stroke-linecap:round;stroke-linejoin:round;stroke-width:0.4"
             d="M 21.3155 19.0952 L 20.6488 18.4285 L 19.3155 17.7619 L 17.3155 17.0952 M 21.9821 18.4285 L 20.6488 17.7619 M 22.6488 17.7619 L 19.9821 17.0952 L 17.3155 17.0952 L 15.3155 17.7619 L 14.6488 18.4285 L 13.9821 19.7619 L 14.6488 21.0952 L 15.3155 21.7619 L 17.3155 22.4286 L 22.6488 22.4286 L 23.9821 23.0952 L 24.6488 23.7619 L 24.6488 25.0952 L 23.9821 27.0952 M 14.6488 20.4285 L 15.3155 21.0952 L 17.3155 21.7619 L 23.3154 21.7619 L 24.6488 22.4286 L 25.3154 23.0952 L 25.3154 24.4286 L 24.6488 25.7619 M 14.6488 18.4285 L 14.6488 19.7619 L 15.3155 20.4285 L 17.3155 21.0952 L 23.9821 21.0952 L 25.3154 21.7619 L 25.9821 23.0952 L 25.9821 24.4286 L 23.9821 27.0952 L 21.3155 31.0952 M 13.3155 23.0952 L 13.9821 23.7619 L 15.3155 24.4286 L 21.3155 24.4286 L 21.9821 25.0952 L 21.9821 25.7619 L 21.3155 27.0952 M 13.9821 24.4286 L 15.3155 25.0952 L 20.6488 25.0952 L 21.3155 25.7619 M 13.3155 23.0952 L 13.3155 23.7619 L 13.9821 25.0952 L 15.3155 25.7619 L 19.9821 25.7619 L 21.3155 26.4286 L 21.3155 27.0952 M 13.3155 31.0952 L 15.3155 29.7619 L 17.9821 29.0952 L 19.9821 29.0952 L 21.9821 29.7619 M 14.6488 30.4286 L 16.6488 29.7619 L 19.3155 29.7619 L 21.3155 30.4286 M 13.3155 31.0952 L 15.9821 30.4286 L 19.3155 30.4286 L 21.3155 31.0952 M 22.6488 17.7619 L 21.3155 19.0952 L 19.9821 21.0952 M 19.3155 22.4286 L 17.9821 24.4286 M 17.3155 25.7619 L 15.9821 27.0952 L 14.6488 27.7619 L 13.9821 27.7619 L 13.9821 27.0952 L 14.6488 27.7619"
             id="path13777" />
          <path
             style="fill:none;stroke:#000000;stroke-linecap:round;stroke-linejoin:round;stroke-width:0.4"
             d="M 29.7821 25.0952 L 28.4488 26.4286 L 27.7821 27.7619 L 27.7821 29.0952 L 28.4488 30.4286 L 29.7821 31.0952 L 31.1155 29.7619 L 33.1155 29.0952 M 27.7821 27.7619 L 28.4488 29.0952 L 29.1155 29.7619 L 30.4488 30.4286 M 28.4488 26.4286 L 28.4488 27.7619 L 29.1155 29.0952 L 30.4488 29.7619 L 31.1155 29.7619 M 28.4488 23.7619 L 29.7821 23.7619 L 31.7821 23.0952 L 33.1155 22.4286 L 33.7821 21.7619 L 35.1155 23.0952 L 34.4488 23.7619 L 34.4488 29.0952 L 35.1155 29.7619 L 35.7821 29.7619 M 29.1155 22.4286 L 28.4488 23.0952 L 30.4488 23.0952 M 32.4488 23.0952 L 34.4488 23.0952 L 33.7821 22.4286 L 33.7821 29.7619 L 34.4488 30.4286 M 27.7821 23.0952 L 29.1155 21.7619 L 29.7821 22.4286 L 31.1155 23.0952 L 33.1155 23.7619 L 33.1155 29.7619 L 34.4488 31.0952 L 35.7821 29.7619 M 27.7821 23.0952 L 31.1155 26.4286"
             id="path13779" />
          <path
             style="fill:none;stroke:#000000;stroke-linecap:round;stroke-linejoin:round;stroke-width:0.4"
             d="M 37.9821 18.4285 L 38.6488 19.7619 L 38.6488 29.0952 L 37.3155 29.7619 L 37.9821 29.7619 L 39.3155 30.4286 L 39.9821 31.0952 M 39.3155 19.7619 L 38.6488 18.4285 L 39.3155 17.7619 L 39.3155 29.7619 L 40.6488 30.4286 M 37.9821 18.4285 L 39.9821 17.0952 L 39.9821 29.0952 L 41.3155 29.7619 L 41.9821 29.7619 L 40.6488 30.4286 L 39.9821 31.0952"
             id="path13781" />
          <path
             style="fill:none;stroke:#000000;stroke-linecap:round;stroke-linejoin:round;stroke-width:0.4"
             d="M 44.6488 23.0952 L 44.6488 29.0952 L 43.3155 29.7619 L 43.9821 29.7619 L 45.3155 30.4286 L 45.9821 31.0952 M 45.3155 23.0952 L 45.3155 29.7619 L 46.6488 30.4286 M 45.9821 23.0952 L 45.9821 29.0952 L 47.3155 29.7619 L 47.9821 29.7619 L 46.6488 30.4286 L 45.9821 31.0952 M 44.6488 23.0952 L 47.3155 22.4286 L 48.6488 21.7619 L 50.6488 24.4286 L 49.3155 25.0952 L 45.9821 27.0952 M 47.9821 22.4286 L 49.9821 24.4286 M 45.9821 23.0952 L 47.3155 22.4286 L 49.3155 25.0952"
             id="path13783" />
          <path
             style="fill:none;stroke:#000000;stroke-linecap:round;stroke-linejoin:round;stroke-width:0.4"
             d="M 52.3821 23.0952 L 52.3821 25.7619 L 53.7155 26.4286 L 57.7155 26.4286 L 59.0488 27.0952 L 59.0488 29.7619 M 53.0488 23.0952 L 53.0488 25.7619 M 58.3821 27.0952 L 58.3821 29.7619 M 54.3821 22.4286 L 53.7155 23.0952 L 53.7155 25.7619 L 55.0488 26.4286 M 56.3821 26.4286 L 57.7155 27.0952 L 57.7155 29.7619 L 57.0488 30.4286 M 52.3821 23.0952 L 54.3821 22.4286 L 55.7155 21.7619 L 57.0488 22.4286 L 58.3821 22.4286 L 59.0488 21.7619 M 55.0488 22.4286 L 56.3821 22.4286 M 54.3821 22.4286 L 55.7155 23.0952 L 57.0488 23.0952 L 58.3821 22.4286 M 59.0488 29.7619 L 57.0488 30.4286 L 55.7155 31.0952 L 54.3821 30.4286 L 53.0488 30.4286 L 51.7155 31.0952 M 56.3821 30.4286 L 55.0488 30.4286 M 57.0488 30.4286 L 55.7155 29.7619 L 53.7155 29.7619 L 51.7155 31.0952 M 59.0488 21.7619 L 58.3821 23.0952 L 57.0488 25.0952 L 53.7155 28.4286 L 51.7155 31.0952"
             id="path13785" />
          <path
             style="fill:none;stroke:#000000;stroke-linecap:round;stroke-linejoin:round;stroke-width:0.4"
             d="M 63.3155 17.0952 L 61.9821 18.4285 L 63.3155 19.0952 L 64.6488 18.4285 Z M 63.3155 17.7619 L 62.6488 18.4285 L 63.9821 18.4285 Z M 63.3155 21.7619 L 62.6488 22.4286 L 61.3155 23.0952 L 62.6488 23.7619 L 62.6488 29.7619 L 63.9821 31.0952 L 65.3155 29.7619 M 63.3155 23.7619 L 63.9821 23.0952 L 63.3155 22.4286 L 62.6488 23.0952 L 63.3155 23.7619 L 63.3155 29.7619 L 63.9821 30.4286 M 63.3155 21.7619 L 63.9821 22.4286 L 65.3155 23.0952 L 63.9821 23.7619 L 63.9821 29.0952 L 64.6488 29.7619 L 65.3155 29.7619"
             id="path13787" />
          <path
             style="fill:none;stroke:#000000;stroke-linecap:round;stroke-linejoin:round;stroke-width:0.4"
             d="M 67.3155 23.0952 L 67.9821 23.0952 L 68.6488 23.7619 L 68.6488 29.0952 L 67.3155 29.7619 L 67.9821 29.7619 L 69.3155 30.4286 L 69.9821 31.0952 M 68.6488 22.4286 L 69.3155 23.0952 L 69.3155 29.7619 L 70.6488 30.4286 M 67.3155 23.0952 L 68.6488 21.7619 L 69.9821 23.0952 L 69.9821 29.0952 L 71.3155 29.7619 L 69.9821 31.0952 M 69.9821 23.7619 L 71.9821 23.0952 L 73.3155 22.4286 L 73.9821 21.7619 L 74.6488 22.4286 L 75.9821 23.0952 L 76.6488 23.0952 L 75.3155 23.7619 L 75.3155 29.0952 L 75.9821 29.7619 L 76.6488 29.7619 M 73.3155 22.4286 L 74.6488 23.0952 L 74.6488 29.7619 L 75.3155 30.4286 M 71.9821 23.0952 L 72.6488 23.0952 L 73.9821 23.7619 L 73.9821 29.7619 L 75.3155 31.0952 L 76.6488 29.7619"
             id="path13789" />
        </g>
      </g>
    </g>
  </g>
</svg>
