<?xml version="1.0" encoding="utf-8" ?>
<svg xmlns="http://www.w3.org/2000/svg" xmlns:cc="http://creativecommons.org/ns#" xmlns:dc="http://purl.org/dc/elements/1.1/" xmlns:ev="http://www.w3.org/2001/xml-events" xmlns:inkscape="http://www.inkscape.org/namespaces/inkscape" xmlns:rdf="http://www.w3.org/1999/02/22-rdf-syntax-ns#" xmlns:sodipodi="http://sodipodi.sourceforge.net/DTD/sodipodi-0.dtd" xmlns:xlink="http://www.w3.org/1999/xlink" baseProfile="tiny" height="24.0cm" version="1.2" viewBox="0 0 1209.4488188976377 907.0866141732283" width="32.0cm">
  <metadata>
    <rdf:RDF>
      <cc:Work>
        <dc:format>image/svg+xml</dc:format>
        <dc:source>vpype read map/steinhalsen_small.svg translate -- 11.0000cm 4.7500cm pagesize -l 24cmx32cm write map/steinhalsen_small.svg
</dc:source>
        <dc:date>2021-06-21T12:58:39.840709</dc:date>
      </cc:Work>
    </rdf:RDF>
  </metadata>
  <defs/>
  <g fill="none" id="layer1" inkscape:groupmode="layer" inkscape:label="1" stroke="#00f" style="display:inline">
    <polyline points="734.6458,182.3622 733.7009,181.4173 731.8112,180.4725 728.9765,179.5276"/>
    <line x1="735.5906" x2="733.7009" y1="181.4173" y2="180.4725"/>
    <polyline points="736.5355,180.4725 732.756,179.5276 728.9765,179.5276 726.1419,180.4725 725.197,181.4173 724.252,183.3072 725.197,185.1969 726.1419,186.1418 728.9765,187.0867 736.5355,187.0867 738.4253,188.0315 739.3702,188.9764 739.3702,190.8662 738.4253,193.7008"/>
    <polyline points="725.197,184.252 726.1419,185.1969 728.9765,186.1418 737.4803,186.1418 739.3702,187.0867 740.315,188.0315 740.315,189.9214 739.3702,191.8111"/>
    <polyline points="725.197,181.4173 725.197,183.3072 726.1419,184.252 728.9765,185.1969 738.4253,185.1969 740.315,186.1418 741.2599,188.0315 741.2599,189.9214 738.4253,193.7008 734.6458,199.3701"/>
    <polyline points="723.3073,188.0315 724.252,188.9764 726.1419,189.9214 734.6458,189.9214 735.5906,190.8662 735.5906,191.8111 734.6458,193.7008"/>
    <polyline points="724.252,189.9214 726.1419,190.8662 733.7009,190.8662 734.6458,191.8111"/>
    <polyline points="723.3073,188.0315 723.3073,188.9764 724.252,190.8662 726.1419,191.8111 732.756,191.8111 734.6458,192.756 734.6458,193.7008"/>
    <polyline points="723.3073,199.3701 726.1419,197.4804 729.9213,196.5354 732.756,196.5354 735.5906,197.4804"/>
    <polyline points="725.197,198.4253 728.0316,197.4804 731.8112,197.4804 734.6458,198.4253"/>
    <polyline points="723.3073,199.3701 727.0867,198.4253 731.8112,198.4253 734.6458,199.3701"/>
    <polyline points="736.5355,180.4725 734.6458,182.3622 732.756,185.1969"/>
    <line x1="731.8112" x2="729.9213" y1="187.0867" y2="189.9214"/>
    <polyline points="728.9765,191.8111 727.0867,193.7008 725.197,194.6457 724.252,194.6457 724.252,193.7008 725.197,194.6457"/>
    <polyline points="743.8111,181.4173 744.756,183.3072 744.756,196.5354 742.8663,197.4804 743.8111,197.4804 745.7009,198.4253 746.6457,199.3701"/>
    <polyline points="745.7009,183.3072 744.756,181.4173 745.7009,180.4725 745.7009,197.4804 747.5906,198.4253"/>
    <polyline points="743.8111,181.4173 746.6457,179.5276 746.6457,196.5354 748.5356,197.4804 749.4803,197.4804 747.5906,198.4253 746.6457,199.3701"/>
    <line x1="741.9214" x2="744.756" y1="186.1418" y2="186.1418"/>
    <line x1="746.6457" x2="749.4803" y1="186.1418" y2="186.1418"/>
    <polyline points="753.2599,188.0315 753.2599,196.5354 751.3702,197.4804 752.315,197.4804 754.2048,198.4253 755.1496,199.3701"/>
    <polyline points="754.2048,188.0315 754.2048,197.4804 756.0946,198.4253"/>
    <polyline points="755.1496,188.0315 755.1496,196.5354 757.0395,197.4804 757.9843,197.4804 756.0946,198.4253 755.1496,199.3701"/>
    <polyline points="753.2599,188.0315 757.0395,187.0867 758.9292,186.1418 761.7638,189.9214 759.8741,190.8662 755.1496,193.7008"/>
    <line x1="757.9843" x2="760.8189" y1="187.0867" y2="189.9214"/>
    <polyline points="755.1496,188.0315 757.0395,187.0867 759.8741,190.8662"/>
    <polygon points="766.1103,179.5276 764.2205,181.4173 766.1103,182.3622 768.0,181.4173"/>
    <polygon points="766.1103,180.4725 765.1654,181.4173 767.0551,181.4173"/>
    <polyline points="766.1103,186.1418 765.1654,187.0867 763.2757,188.0315 765.1654,188.9764 765.1654,197.4804 767.0551,199.3701 768.945,197.4804"/>
    <polyline points="766.1103,188.9764 767.0551,188.0315 766.1103,187.0867 765.1654,188.0315 766.1103,188.9764 766.1103,197.4804 767.0551,198.4253"/>
    <polyline points="766.1103,186.1418 767.0551,187.0867 768.945,188.0315 767.0551,188.9764 767.0551,196.5354 768.0,197.4804 768.945,197.4804"/>
    <polyline points="771.7796,188.0315 772.7244,188.0315 773.6693,188.9764 773.6693,196.5354 771.7796,197.4804 772.7244,197.4804 774.6143,198.4253 775.559,199.3701"/>
    <polyline points="773.6693,187.0867 774.6143,188.0315 774.6143,197.4804 776.504,198.4253"/>
    <polyline points="771.7796,188.0315 773.6693,186.1418 775.559,188.0315 775.559,196.5354 777.4489,197.4804 775.559,199.3701"/>
    <polyline points="775.559,188.9764 778.3937,188.0315 780.2835,187.0867 781.2283,186.1418 782.1733,187.0867 784.063,188.0315 785.0079,188.0315 783.1182,188.9764 783.1182,196.5354 784.063,197.4804 785.0079,197.4804"/>
    <polyline points="780.2835,187.0867 782.1733,188.0315 782.1733,197.4804 783.1182,198.4253"/>
    <polyline points="778.3937,188.0315 779.3386,188.0315 781.2283,188.9764 781.2283,197.4804 783.1182,199.3701 785.0079,197.4804"/>
    <polyline points="788.0315,181.4173 788.9764,183.3072 788.9764,196.5354 787.0867,197.4804 788.0315,197.4804 789.9213,198.4253 790.8661,199.3701"/>
    <polyline points="789.9213,183.3072 788.9764,181.4173 789.9213,180.4725 789.9213,197.4804 791.811,198.4253"/>
    <polyline points="788.0315,181.4173 790.8661,179.5276 790.8661,196.5354 792.756,197.4804 790.8661,199.3701"/>
    <polyline points="790.8661,188.9764 793.7007,188.0315 795.5906,187.0867 796.5354,186.1418 797.4803,187.0867 799.37,188.0315 800.315,188.0315 798.4252,188.9764 798.4252,197.4804 796.5354,199.3701 795.5906,201.2599"/>
    <polyline points="795.5906,187.0867 797.4803,188.0315 797.4803,197.4804 796.5354,199.3701"/>
    <polyline points="793.7007,188.0315 794.6457,188.0315 796.5354,188.9764 796.5354,197.4804 795.5906,201.2599 795.5906,204.0946 796.5354,205.9843"/>
    <line x1="797.4803" x2="795.5906" y1="205.9843" y2="204.0946"/>
    <polyline points="806.1732,190.8662 804.2834,192.756 803.3385,194.6457 803.3385,196.5354 804.2834,198.4253 806.1732,199.3701 808.063,197.4804 810.8977,196.5354"/>
    <polyline points="803.3385,194.6457 804.2834,196.5354 805.2284,197.4804 807.1181,198.4253"/>
    <polyline points="804.2834,192.756 804.2834,194.6457 805.2284,196.5354 807.1181,197.4804 808.063,197.4804"/>
    <polyline points="804.2834,188.9764 806.1732,188.9764 809.0078,188.0315 810.8977,187.0867 811.8424,186.1418 813.7323,188.0315 812.7874,188.9764 812.7874,196.5354 813.7323,197.4804 814.6771,197.4804"/>
    <polyline points="805.2284,187.0867 804.2834,188.0315 807.1181,188.0315"/>
    <polyline points="809.9527,188.0315 812.7874,188.0315 811.8424,187.0867 811.8424,197.4804 812.7874,198.4253"/>
    <polyline points="803.3385,188.0315 805.2284,186.1418 806.1732,187.0867 808.063,188.0315 810.8977,188.9764 810.8977,197.4804 812.7874,199.3701 814.6771,197.4804"/>
    <line x1="803.3385" x2="808.063" y1="188.0315" y2="192.756"/>
    <polyline points="817.7952,181.4173 818.7401,183.3072 818.7401,196.5354 816.8504,197.4804 817.7952,197.4804 819.685,198.4253 820.6299,199.3701"/>
    <polyline points="819.685,183.3072 818.7401,181.4173 819.685,180.4725 819.685,197.4804 821.5749,198.4253"/>
    <polyline points="817.7952,181.4173 820.6299,179.5276 820.6299,196.5354 822.5198,197.4804 823.4646,197.4804 821.5749,198.4253 820.6299,199.3701"/>
    <polyline points="826.2992,188.0315 826.2992,191.8111 828.1891,192.756 833.8583,192.756 835.7481,193.7008 835.7481,197.4804"/>
    <line x1="827.2441" x2="827.2441" y1="188.0315" y2="191.8111"/>
    <line x1="834.8031" x2="834.8031" y1="193.7008" y2="197.4804"/>
    <polyline points="829.1339,187.0867 828.1891,188.0315 828.1891,191.8111 830.0788,192.756"/>
    <polyline points="831.9685,192.756 833.8583,193.7008 833.8583,197.4804 832.9134,198.4253"/>
    <polyline points="826.2992,188.0315 829.1339,187.0867 831.0237,186.1418 832.9134,187.0867 834.8031,187.0867 835.7481,186.1418"/>
    <line x1="830.0788" x2="831.9685" y1="187.0867" y2="187.0867"/>
    <polyline points="829.1339,187.0867 831.0237,188.0315 832.9134,188.0315 834.8031,187.0867"/>
    <polyline points="835.7481,197.4804 832.9134,198.4253 831.0237,199.3701 829.1339,198.4253 827.2441,198.4253 825.3544,199.3701"/>
    <line x1="831.9685" x2="830.0788" y1="198.4253" y2="198.4253"/>
    <polyline points="832.9134,198.4253 831.0237,197.4804 828.1891,197.4804 825.3544,199.3701"/>
    <polyline points="835.7481,186.1418 834.8031,188.0315 832.9134,190.8662 828.1891,195.5907 825.3544,199.3701"/>
    <polyline points="840.8504,188.0315 840.8504,196.5354 838.9607,197.4804 839.9055,197.4804 841.7953,198.4253 842.7401,199.3701"/>
    <polyline points="841.7953,188.0315 841.7953,197.4804 843.6851,198.4253"/>
    <polyline points="842.7401,188.0315 842.7401,196.5354 844.63,197.4804 845.5748,197.4804 843.6851,198.4253 842.7401,199.3701"/>
    <polyline points="840.8504,188.0315 844.63,187.0867 846.52,186.1418 849.3546,189.9214 847.4639,190.8662 842.7401,193.7008"/>
    <line x1="845.5748" x2="848.4093" y1="187.0867" y2="189.9214"/>
    <polyline points="842.7401,188.0315 844.63,187.0867 847.4639,190.8662"/>
    <polyline points="850.8655,188.0315 851.8108,188.0315 852.7562,188.9764 852.7562,196.5354 850.8655,197.4804 851.8108,197.4804 853.7001,198.4253 854.6455,199.3701"/>
    <polyline points="852.7562,187.0867 853.7001,188.0315 853.7001,197.4804 855.5908,198.4253"/>
    <polyline points="850.8655,188.0315 852.7562,186.1418 854.6455,188.0315 854.6455,196.5354 856.5348,197.4804 854.6455,199.3701"/>
    <polyline points="854.6455,188.9764 857.4801,188.0315 859.3694,187.0867 860.3148,186.1418 861.2601,187.0867 863.1494,188.0315 864.0947,188.0315 862.204,188.9764 862.204,196.5354 863.1494,197.4804 864.0947,197.4804"/>
    <polyline points="859.3694,187.0867 861.2601,188.0315 861.2601,197.4804 862.204,198.4253"/>
    <polyline points="857.4801,188.0315 858.4255,188.0315 860.3148,188.9764 860.3148,197.4804 862.204,199.3701 864.0947,197.4804"/>
  </g>
</svg>
