<?xml version="1.0" encoding="UTF-8" standalone="no"?>
<svg
   xmlns:dc="http://purl.org/dc/elements/1.1/"
   xmlns:cc="http://creativecommons.org/ns#"
   xmlns:rdf="http://www.w3.org/1999/02/22-rdf-syntax-ns#"
   xmlns:svg="http://www.w3.org/2000/svg"
   xmlns="http://www.w3.org/2000/svg"
   id="svg8"
   version="1.1"
   viewBox="0 0 210 297"
   height="297mm"
   width="210mm">
  <defs
     id="defs2" />
  <metadata
     id="metadata5">
    <rdf:RDF>
      <cc:Work
         rdf:about="">
        <dc:format>image/svg+xml</dc:format>
        <dc:type
           rdf:resource="http://purl.org/dc/dcmitype/StillImage" />
        <dc:title></dc:title>
      </cc:Work>
    </rdf:RDF>
  </metadata>
  <g
     id="layer1">
    <g
       id="g1959">
      <g
         id="g1957" />
      <g
         id="g13912">
        <g
           id="g13910">
          <path
             style="fill:none;stroke:#000000;stroke-linecap:round;stroke-linejoin:round;stroke-width:0.4"
             d="M 21.3155 19.0952 L 20.6488 18.4285 L 19.3155 17.7619 L 17.3155 17.0952 M 21.9821 18.4285 L 20.6488 17.7619 M 22.6488 17.7619 L 19.9821 17.0952 L 17.3155 17.0952 L 15.3155 17.7619 L 14.6488 18.4285 L 13.9821 19.7619 L 14.6488 21.0952 L 15.3155 21.7619 L 17.3155 22.4286 L 22.6488 22.4286 L 23.9821 23.0952 L 24.6488 23.7619 L 24.6488 25.0952 L 23.9821 27.0952 M 14.6488 20.4285 L 15.3155 21.0952 L 17.3155 21.7619 L 23.3154 21.7619 L 24.6488 22.4286 L 25.3154 23.0952 L 25.3154 24.4286 L 24.6488 25.7619 M 14.6488 18.4285 L 14.6488 19.7619 L 15.3155 20.4285 L 17.3155 21.0952 L 23.9821 21.0952 L 25.3154 21.7619 L 25.9821 23.0952 L 25.9821 24.4286 L 23.9821 27.0952 L 21.3155 31.0952 M 13.3155 23.0952 L 13.9821 23.7619 L 15.3155 24.4286 L 21.3155 24.4286 L 21.9821 25.0952 L 21.9821 25.7619 L 21.3155 27.0952 M 13.9821 24.4286 L 15.3155 25.0952 L 20.6488 25.0952 L 21.3155 25.7619 M 13.3155 23.0952 L 13.3155 23.7619 L 13.9821 25.0952 L 15.3155 25.7619 L 19.9821 25.7619 L 21.3155 26.4286 L 21.3155 27.0952 M 13.3155 31.0952 L 15.3155 29.7619 L 17.9821 29.0952 L 19.9821 29.0952 L 21.9821 29.7619 M 14.6488 30.4286 L 16.6488 29.7619 L 19.3155 29.7619 L 21.3155 30.4286 M 13.3155 31.0952 L 15.9821 30.4286 L 19.3155 30.4286 L 21.3155 31.0952 M 22.6488 17.7619 L 21.3155 19.0952 L 19.9821 21.0952 M 19.3155 22.4286 L 17.9821 24.4286 M 17.3155 25.7619 L 15.9821 27.0952 L 14.6488 27.7619 L 13.9821 27.7619 L 13.9821 27.0952 L 14.6488 27.7619"
             id="path13888" />
          <path
             style="fill:none;stroke:#000000;stroke-linecap:round;stroke-linejoin:round;stroke-width:0.4"
             d="M 27.7821 18.4285 L 28.4488 19.7619 L 28.4488 29.0952 L 27.1155 29.7619 L 27.7821 29.7619 L 29.1155 30.4286 L 29.7821 31.0952 M 29.1155 19.7619 L 28.4488 18.4285 L 29.1155 17.7619 L 29.1155 29.7619 L 30.4488 30.4286 M 27.7821 18.4285 L 29.7821 17.0952 L 29.7821 29.0952 L 31.1155 29.7619 L 31.7821 29.7619 L 30.4488 30.4286 L 29.7821 31.0952 M 26.4488 21.7619 L 28.4488 21.7619 M 29.7821 21.7619 L 31.7821 21.7619"
             id="path13890" />
          <path
             style="fill:none;stroke:#000000;stroke-linecap:round;stroke-linejoin:round;stroke-width:0.4"
             d="M 34.4488 23.0952 L 34.4488 29.0952 L 33.1155 29.7619 L 33.7821 29.7619 L 35.1155 30.4286 L 35.7821 31.0952 M 35.1155 23.0952 L 35.1155 29.7619 L 36.4488 30.4286 M 35.7821 23.0952 L 35.7821 29.0952 L 37.1155 29.7619 L 37.7821 29.7619 L 36.4488 30.4286 L 35.7821 31.0952 M 34.4488 23.0952 L 37.1155 22.4286 L 38.4488 21.7619 L 40.4488 24.4286 L 39.1155 25.0952 L 35.7821 27.0952 M 37.7821 22.4286 L 39.7821 24.4286 M 35.7821 23.0952 L 37.1155 22.4286 L 39.1155 25.0952"
             id="path13892" />
          <path
             style="fill:none;stroke:#000000;stroke-linecap:round;stroke-linejoin:round;stroke-width:0.4"
             d="M 43.5155 17.0952 L 42.1821 18.4285 L 43.5155 19.0952 L 44.8488 18.4285 Z M 43.5155 17.7619 L 42.8488 18.4285 L 44.1821 18.4285 Z M 43.5155 21.7619 L 42.8488 22.4286 L 41.5155 23.0952 L 42.8488 23.7619 L 42.8488 29.7619 L 44.1821 31.0952 L 45.5155 29.7619 M 43.5155 23.7619 L 44.1821 23.0952 L 43.5155 22.4286 L 42.8488 23.0952 L 43.5155 23.7619 L 43.5155 29.7619 L 44.1821 30.4286 M 43.5155 21.7619 L 44.1821 22.4286 L 45.5155 23.0952 L 44.1821 23.7619 L 44.1821 29.0952 L 44.8488 29.7619 L 45.5155 29.7619"
             id="path13894" />
          <path
             style="fill:none;stroke:#000000;stroke-linecap:round;stroke-linejoin:round;stroke-width:0.4"
             d="M 47.5155 23.0952 L 48.1821 23.0952 L 48.8488 23.7619 L 48.8488 29.0952 L 47.5155 29.7619 L 48.1821 29.7619 L 49.5155 30.4286 L 50.1821 31.0952 M 48.8488 22.4286 L 49.5155 23.0952 L 49.5155 29.7619 L 50.8488 30.4286 M 47.5155 23.0952 L 48.8488 21.7619 L 50.1821 23.0952 L 50.1821 29.0952 L 51.5155 29.7619 L 50.1821 31.0952 M 50.1821 23.7619 L 52.1821 23.0952 L 53.5155 22.4286 L 54.1821 21.7619 L 54.8488 22.4286 L 56.1821 23.0952 L 56.8488 23.0952 L 55.5155 23.7619 L 55.5155 29.0952 L 56.1821 29.7619 L 56.8488 29.7619 M 53.5155 22.4286 L 54.8488 23.0952 L 54.8488 29.7619 L 55.5155 30.4286 M 52.1821 23.0952 L 52.8488 23.0952 L 54.1821 23.7619 L 54.1821 29.7619 L 55.5155 31.0952 L 56.8488 29.7619"
             id="path13896" />
          <path
             style="fill:none;stroke:#000000;stroke-linecap:round;stroke-linejoin:round;stroke-width:0.4"
             d="M 58.9821 18.4285 L 59.6488 19.7619 L 59.6488 29.0952 L 58.3155 29.7619 L 58.9821 29.7619 L 60.3155 30.4286 L 60.9821 31.0952 M 60.3155 19.7619 L 59.6488 18.4285 L 60.3155 17.7619 L 60.3155 29.7619 L 61.6488 30.4286 M 58.9821 18.4285 L 60.9821 17.0952 L 60.9821 29.0952 L 62.3155 29.7619 L 60.9821 31.0952 M 60.9821 23.7619 L 62.9821 23.0952 L 64.3155 22.4286 L 64.9821 21.7619 L 65.6488 22.4286 L 66.9821 23.0952 L 67.6488 23.0952 L 66.3155 23.7619 L 66.3155 29.7619 L 64.9821 31.0952 L 64.3155 32.4286 M 64.3155 22.4286 L 65.6488 23.0952 L 65.6488 29.7619 L 64.9821 31.0952 M 62.9821 23.0952 L 63.6488 23.0952 L 64.9821 23.7619 L 64.9821 29.7619 L 64.3155 32.4286 L 64.3155 34.4286 L 64.9821 35.7619 L 65.6488 35.7619 L 64.3155 34.4286"
             id="path13898" />
          <path
             style="fill:none;stroke:#000000;stroke-linecap:round;stroke-linejoin:round;stroke-width:0.4"
             d="M 71.7821 25.0952 L 70.4488 26.4286 L 69.7821 27.7619 L 69.7821 29.0952 L 70.4488 30.4286 L 71.7821 31.0952 L 73.1155 29.7619 L 75.1155 29.0952 M 69.7821 27.7619 L 70.4488 29.0952 L 71.1155 29.7619 L 72.4488 30.4286 M 70.4488 26.4286 L 70.4488 27.7619 L 71.1155 29.0952 L 72.4488 29.7619 L 73.1155 29.7619 M 70.4488 23.7619 L 71.7821 23.7619 L 73.7821 23.0952 L 75.1155 22.4286 L 75.7821 21.7619 L 77.1155 23.0952 L 76.4488 23.7619 L 76.4488 29.0952 L 77.1155 29.7619 L 77.7821 29.7619 M 71.1155 22.4286 L 70.4488 23.0952 L 72.4488 23.0952 M 74.4488 23.0952 L 76.4488 23.0952 L 75.7821 22.4286 L 75.7821 29.7619 L 76.4488 30.4286 M 69.7821 23.0952 L 71.1155 21.7619 L 71.7821 22.4286 L 73.1155 23.0952 L 75.1155 23.7619 L 75.1155 29.7619 L 76.4488 31.0952 L 77.7821 29.7619 M 69.7821 23.0952 L 73.1155 26.4286"
             id="path13900" />
          <path
             style="fill:none;stroke:#000000;stroke-linecap:round;stroke-linejoin:round;stroke-width:0.4"
             d="M 79.9821 18.4285 L 80.6488 19.7619 L 80.6488 29.0952 L 79.3155 29.7619 L 79.9821 29.7619 L 81.3155 30.4286 L 81.9821 31.0952 M 81.3155 19.7619 L 80.6488 18.4285 L 81.3155 17.7619 L 81.3155 29.7619 L 82.6488 30.4286 M 79.9821 18.4285 L 81.9821 17.0952 L 81.9821 29.0952 L 83.3155 29.7619 L 83.9821 29.7619 L 82.6488 30.4286 L 81.9821 31.0952"
             id="path13902" />
          <path
             style="fill:none;stroke:#000000;stroke-linecap:round;stroke-linejoin:round;stroke-width:0.4"
             d="M 85.9821 23.0952 L 85.9821 25.7619 L 87.3155 26.4286 L 91.3155 26.4286 L 92.6488 27.0952 L 92.6488 29.7619 M 86.6488 23.0952 L 86.6488 25.7619 M 91.9821 27.0952 L 91.9821 29.7619 M 87.9821 22.4286 L 87.3155 23.0952 L 87.3155 25.7619 L 88.6488 26.4286 M 89.9821 26.4286 L 91.3155 27.0952 L 91.3155 29.7619 L 90.6488 30.4286 M 85.9821 23.0952 L 87.9821 22.4286 L 89.3155 21.7619 L 90.6488 22.4286 L 91.9821 22.4286 L 92.6488 21.7619 M 88.6488 22.4286 L 89.9821 22.4286 M 87.9821 22.4286 L 89.3155 23.0952 L 90.6488 23.0952 L 91.9821 22.4286 M 92.6488 29.7619 L 90.6488 30.4286 L 89.3155 31.0952 L 87.9821 30.4286 L 86.6488 30.4286 L 85.3155 31.0952 M 89.9821 30.4286 L 88.6488 30.4286 M 90.6488 30.4286 L 89.3155 29.7619 L 87.3155 29.7619 L 85.3155 31.0952 M 92.6488 21.7619 L 91.9821 23.0952 L 90.6488 25.0952 L 87.3155 28.4286 L 85.3155 31.0952"
             id="path13904" />
          <path
             style="fill:none;stroke:#000000;stroke-linecap:round;stroke-linejoin:round;stroke-width:0.4"
             d="M 96.2488 23.0952 L 96.2488 29.0952 L 94.9155 29.7619 L 95.5821 29.7619 L 96.9155 30.4286 L 97.5821 31.0952 M 96.9155 23.0952 L 96.9155 29.7619 L 98.2488 30.4286 M 97.5821 23.0952 L 97.5821 29.0952 L 98.9155 29.7619 L 99.5821 29.7619 L 98.2488 30.4286 L 97.5821 31.0952 M 96.2488 23.0952 L 98.9155 22.4286 L 100.249 21.7619 L 102.249 24.4286 L 100.915 25.0952 L 97.5821 27.0952 M 99.5821 22.4286 L 101.582 24.4286 M 97.5821 23.0952 L 98.9155 22.4286 L 100.915 25.0952"
             id="path13906" />
          <path
             style="fill:none;stroke:#000000;stroke-linecap:round;stroke-linejoin:round;stroke-width:0.4"
             d="M 103.315 23.0952 L 103.982 23.0952 L 104.649 23.7619 L 104.649 29.0952 L 103.315 29.7619 L 103.982 29.7619 L 105.315 30.4286 L 105.982 31.0952 M 104.649 22.4286 L 105.315 23.0952 L 105.315 29.7619 L 106.649 30.4286 M 103.315 23.0952 L 104.649 21.7619 L 105.982 23.0952 L 105.982 29.0952 L 107.315 29.7619 L 105.982 31.0952 M 105.982 23.7619 L 107.982 23.0952 L 109.315 22.4286 L 109.982 21.7619 L 110.649 22.4286 L 111.982 23.0952 L 112.649 23.0952 L 111.315 23.7619 L 111.315 29.0952 L 111.982 29.7619 L 112.649 29.7619 M 109.315 22.4286 L 110.649 23.0952 L 110.649 29.7619 L 111.315 30.4286 M 107.982 23.0952 L 108.649 23.0952 L 109.982 23.7619 L 109.982 29.7619 L 111.315 31.0952 L 112.649 29.7619"
             id="path13908" />
        </g>
      </g>
    </g>
  </g>
</svg>
