<?xml version="1.0" encoding="UTF-8" standalone="no"?>
<svg
   xmlns:dc="http://purl.org/dc/elements/1.1/"
   xmlns:cc="http://creativecommons.org/ns#"
   xmlns:rdf="http://www.w3.org/1999/02/22-rdf-syntax-ns#"
   xmlns:svg="http://www.w3.org/2000/svg"
   xmlns="http://www.w3.org/2000/svg"
   width="210mm"
   height="297mm"
   viewBox="0 0 210 297"
   version="1.1"
   id="svg8">
  <defs
     id="defs2" />
  <metadata
     id="metadata5">
    <rdf:RDF>
      <cc:Work
         rdf:about="">
        <dc:format>image/svg+xml</dc:format>
        <dc:type
           rdf:resource="http://purl.org/dc/dcmitype/StillImage" />
        <dc:title></dc:title>
      </cc:Work>
    </rdf:RDF>
  </metadata>
  <g
     id="layer1">
    <g
       id="g1959">
      <g
         id="g1957" />
      <g
         id="g14532">
        <g
           id="g14530">
          <path
             style="fill:none;stroke:#000000;stroke-linecap:round;stroke-linejoin:round;stroke-width:0.4"
             d="M 13.3155 18.4285 L 14.6488 17.0952 L 15.9821 17.0952 L 17.9821 17.7619 L 19.3155 17.0952 M 15.3155 17.7619 L 17.3155 17.7619 M 13.3155 18.4285 L 14.6488 17.7619 L 16.6488 18.4285 L 17.9821 18.4285 L 19.3155 17.0952 M 15.3155 19.7619 L 14.6488 21.0952 L 13.9821 23.0952 L 13.9821 25.7619 L 14.6488 27.7619 L 15.3155 29.0952 L 16.6488 30.4286 L 18.6488 31.0952 L 20.6488 31.0952 L 22.6488 30.4286 L 23.9821 29.7619 L 25.3154 31.0952 L 26.6488 29.7619 M 14.6488 25.7619 L 15.3155 27.7619 L 17.3155 29.7619 L 19.3155 30.4286 L 21.3155 30.4286 M 15.3155 19.7619 L 14.6488 22.4286 L 14.6488 24.4286 L 15.3155 26.4286 L 15.9821 27.7619 L 17.3155 29.0952 L 19.3155 29.7619 L 21.9821 29.7619 L 23.9821 29.0952 M 21.9821 19.0952 L 19.3155 19.7619 L 18.6488 21.0952 L 18.6488 27.7619 M 19.3155 20.4285 L 19.3155 26.4286 M 19.9821 19.7619 L 19.9821 25.7619 L 19.3155 27.0952 L 18.6488 27.7619 M 21.9821 19.0952 L 23.3154 18.4285 L 24.6488 17.0952 L 25.3154 17.7619 L 26.6488 18.4285 L 25.3154 19.0952 L 25.3154 28.4286 L 25.9821 29.7619 L 26.6488 29.7619 M 24.6488 19.0952 L 25.3154 18.4285 L 24.6488 17.7619 L 23.9821 18.4285 L 24.6488 19.0952 L 24.6488 29.0952 L 25.9821 30.4286 M 23.3154 18.4285 L 23.9821 19.0952 L 23.9821 29.0952 M 21.9821 19.0952 L 21.9821 29.7619 M 21.9821 22.4286 L 23.9821 22.4286 M 21.9821 25.0952 L 23.9821 25.0952"
             id="path14516" />
          <path
             style="fill:none;stroke:#000000;stroke-linecap:round;stroke-linejoin:round;stroke-width:0.4"
             d="M 28.3821 18.4285 L 29.0488 19.7619 L 29.0488 29.0952 L 27.7155 29.7619 L 28.3821 29.7619 L 29.7155 30.4286 L 30.3821 31.0952 M 29.7155 19.7619 L 29.0488 18.4285 L 29.7155 17.7619 L 29.7155 29.7619 L 31.0488 30.4286 M 28.3821 18.4285 L 30.3821 17.0952 L 30.3821 29.0952 L 31.7155 29.7619 L 32.3821 29.7619 L 31.0488 30.4286 L 30.3821 31.0952 M 27.0488 21.7619 L 29.0488 21.7619 M 30.3821 21.7619 L 32.3821 21.7619"
             id="path14518" />
          <path
             style="fill:none;stroke:#000000;stroke-linecap:round;stroke-linejoin:round;stroke-width:0.4"
             d="M 36.3821 25.0952 L 35.0488 26.4286 L 34.3821 27.7619 L 34.3821 29.0952 L 35.0488 30.4286 L 36.3821 31.0952 L 37.7155 29.7619 L 39.7155 29.0952 M 34.3821 27.7619 L 35.0488 29.0952 L 35.7155 29.7619 L 37.0488 30.4286 M 35.0488 26.4286 L 35.0488 27.7619 L 35.7155 29.0952 L 37.0488 29.7619 L 37.7155 29.7619 M 35.0488 23.7619 L 36.3821 23.7619 L 38.3821 23.0952 L 39.7155 22.4286 L 40.3821 21.7619 L 41.7155 23.0952 L 41.0488 23.7619 L 41.0488 29.0952 L 41.7155 29.7619 L 42.3821 29.7619 M 35.7155 22.4286 L 35.0488 23.0952 L 37.0488 23.0952 M 39.0488 23.0952 L 41.0488 23.0952 L 40.3821 22.4286 L 40.3821 29.7619 L 41.0488 30.4286 M 34.3821 23.0952 L 35.7155 21.7619 L 36.3821 22.4286 L 37.7155 23.0952 L 39.7155 23.7619 L 39.7155 29.7619 L 41.0488 31.0952 L 42.3821 29.7619 M 34.3821 23.0952 L 37.7155 26.4286"
             id="path14520" />
          <path
             style="fill:none;stroke:#000000;stroke-linecap:round;stroke-linejoin:round;stroke-width:0.4"
             d="M 45.9155 17.0952 L 45.2488 17.7619 L 45.2488 21.7619 M 45.9155 17.7619 L 45.2488 21.7619 M 45.9155 17.0952 L 46.5821 17.7619 L 45.2488 21.7619"
             id="path14522" />
          <path
             style="fill:none;stroke:#000000;stroke-linecap:round;stroke-linejoin:round;stroke-width:0.4"
             d="M 49.9821 17.0952 L 50.6488 17.7619 L 51.3155 19.0952 L 51.3155 23.0952 L 49.9821 23.0952 L 49.3155 23.7619 L 49.3155 25.0952 L 49.9821 24.4286 L 51.3155 24.4286 L 51.3155 29.0952 L 49.9821 29.7619 M 51.3155 18.4285 L 51.9821 19.7619 L 51.9821 29.0952 M 49.9821 23.7619 L 51.9821 23.7619 M 52.6488 29.7619 L 54.6488 29.7619 L 55.9821 30.4286 M 49.9821 17.0952 L 51.3155 17.7619 L 51.9821 18.4285 L 52.6488 19.7619 L 52.6488 29.0952 L 55.3155 29.0952 L 57.3155 29.7619 M 49.9821 29.7619 L 51.9821 29.7619 L 53.9821 30.4286 L 55.3155 31.0952 L 57.3155 29.7619 L 59.3154 29.0952 L 60.6488 29.0952 M 55.3155 19.7619 L 57.3155 19.0952 L 58.6488 18.4285 L 59.9821 17.0952 L 60.6488 17.7619 L 61.9821 18.4285 L 60.6488 19.0952 L 60.6488 29.0952 M 59.9821 19.0952 L 60.6488 18.4285 L 59.9821 17.7619 L 59.3154 18.4285 L 59.9821 19.0952 L 59.9821 28.4286 M 58.6488 18.4285 L 59.3154 19.0952 L 59.3154 29.0952 M 55.3155 19.7619 L 55.3155 29.0952 M 55.3155 21.7619 L 56.6488 22.4286 L 57.9821 22.4286 L 59.3154 21.7619 M 55.3155 25.7619 L 56.6488 25.0952 L 57.9821 25.0952 L 59.3154 25.7619"
             id="path14524" />
          <path
             style="fill:none;stroke:#000000;stroke-linecap:round;stroke-linejoin:round;stroke-width:0.4"
             d="M 64.4488 23.0952 L 64.4488 29.0952 L 63.1155 29.7619 L 63.7821 29.7619 L 65.1155 30.4286 L 65.7821 31.0952 M 65.1155 23.0952 L 65.1155 29.7619 L 66.4488 30.4286 M 65.7821 23.0952 L 65.7821 29.0952 L 67.1155 29.7619 L 67.7821 29.7619 L 66.4488 30.4286 L 65.7821 31.0952 M 64.4488 23.0952 L 67.1155 22.4286 L 68.4488 21.7619 L 70.4488 24.4286 L 69.1155 25.0952 L 65.7821 27.0952 M 67.7821 22.4286 L 69.7821 24.4286 M 65.7821 23.0952 L 67.1155 22.4286 L 69.1155 25.0952"
             id="path14526" />
          <path
             style="fill:none;stroke:#000000;stroke-linecap:round;stroke-linejoin:round;stroke-width:0.4"
             d="M 72.1821 18.4285 L 72.8488 19.7619 L 72.8488 29.0952 L 71.5155 29.7619 L 72.1821 29.7619 L 73.5155 30.4286 L 74.1821 31.0952 M 73.5155 19.7619 L 72.8488 18.4285 L 73.5155 17.7619 L 73.5155 29.7619 L 74.8488 30.4286 M 72.1821 18.4285 L 74.1821 17.0952 L 74.1821 29.0952 L 75.5155 29.7619 L 76.1821 29.7619 L 74.8488 30.4286 L 74.1821 31.0952"
             id="path14528" />
        </g>
      </g>
    </g>
  </g>
</svg>
