<?xml version="1.0" encoding="utf-8" ?>
<svg xmlns="http://www.w3.org/2000/svg" xmlns:cc="http://creativecommons.org/ns#" xmlns:dc="http://purl.org/dc/elements/1.1/" xmlns:ev="http://www.w3.org/2001/xml-events" xmlns:inkscape="http://www.inkscape.org/namespaces/inkscape" xmlns:rdf="http://www.w3.org/1999/02/22-rdf-syntax-ns#" xmlns:sodipodi="http://sodipodi.sourceforge.net/DTD/sodipodi-0.dtd" xmlns:xlink="http://www.w3.org/1999/xlink" baseProfile="tiny" height="24.0cm" version="1.2" viewBox="0 0 1209.4488188976377 907.0866141732283" width="32.0cm">
  <metadata>
    <rdf:RDF>
      <cc:Work>
        <dc:format>image/svg+xml</dc:format>
        <dc:source>vpype read map/uta_vel_small.svg translate -- 16.3300cm 11.6950cm pagesize -l 24cmx32cm write map/uta_vel_small.svg
</dc:source>
        <dc:date>2021-06-21T12:59:09.797115</dc:date>
      </cc:Work>
    </rdf:RDF>
  </metadata>
  <defs/>
  <g fill="none" id="layer1" inkscape:groupmode="layer" inkscape:label="1" stroke="#00f" style="display:inline">
    <polyline points="784.9585,442.9156 785.8583,442.0157 786.7582,442.0157 788.108,442.4657 789.0079,442.0157"/>
    <line x1="786.3083" x2="787.6581" y1="442.4657" y2="442.4657"/>
    <polyline points="784.9585,442.9156 785.8583,442.4657 787.2081,442.9156 788.108,442.9156 789.0079,442.0157"/>
    <polyline points="786.3083,443.8155 785.8583,444.7154 785.4084,446.0653 785.4084,447.8651 785.8583,449.2149 786.3083,450.1148 787.2081,451.0147 788.558,451.4646 789.9078,451.4646 791.2576,451.0147 792.1575,450.5648 793.0574,451.4646 793.9573,450.5648"/>
    <polyline points="785.8583,447.8651 786.3083,449.2149 787.6581,450.5648 789.0079,451.0147 790.3578,451.0147"/>
    <polyline points="786.3083,443.8155 785.8583,445.6153 785.8583,446.9652 786.3083,448.3151 786.7582,449.2149 787.6581,450.1148 789.0079,450.5648 790.8077,450.5648 792.1575,450.1148"/>
    <polyline points="790.8077,443.3655 789.0079,443.8155 788.558,444.7154 788.558,449.2149"/>
    <line x1="789.0079" x2="789.0079" y1="444.2654" y2="448.3151"/>
    <polyline points="789.4578,443.8155 789.4578,447.8651 789.0079,448.765 788.558,449.2149"/>
    <polyline points="790.8077,443.3655 791.7075,442.9156 792.6075,442.0157 793.0574,442.4657 793.9573,442.9156 793.0574,443.3655 793.0574,449.6649 793.5073,450.5648 793.9573,450.5648"/>
    <polyline points="792.6075,443.3655 793.0574,442.9156 792.6075,442.4657 792.1575,442.9156 792.6075,443.3655 792.6075,450.1148 793.5073,451.0147"/>
    <polyline points="791.7075,442.9156 792.1575,443.3655 792.1575,450.1148"/>
    <line x1="790.8077" x2="790.8077" y1="443.3655" y2="450.5648"/>
    <line x1="790.8077" x2="792.1575" y1="445.6153" y2="445.6153"/>
    <line x1="790.8077" x2="792.1575" y1="447.4151" y2="447.4151"/>
    <polyline points="795.1271,442.9156 795.5771,443.8155 795.5771,450.1148 794.6772,450.5648 795.1271,450.5648 796.0271,451.0147 796.477,451.4646"/>
    <polyline points="796.0271,443.8155 795.5771,442.9156 796.0271,442.4657 796.0271,450.5648 796.9269,451.0147"/>
    <polyline points="795.1271,442.9156 796.477,442.0157 796.477,450.1148 797.3769,450.5648 797.8268,450.5648 796.9269,451.0147 796.477,451.4646"/>
    <line x1="794.2273" x2="795.5771" y1="445.1653" y2="445.1653"/>
    <line x1="796.477" x2="797.8268" y1="445.1653" y2="445.1653"/>
    <polyline points="800.5265,447.4151 799.6266,448.3151 799.1766,449.2149 799.1766,450.1148 799.6266,451.0147 800.5265,451.4646 801.4264,450.5648 802.7763,450.1148"/>
    <polyline points="799.1766,449.2149 799.6266,450.1148 800.0766,450.5648 800.9764,451.0147"/>
    <polyline points="799.6266,448.3151 799.6266,449.2149 800.0766,450.1148 800.9764,450.5648 801.4264,450.5648"/>
    <polyline points="799.6266,446.5153 800.5265,446.5153 801.8764,446.0653 802.7763,445.6153 803.2262,445.1653 804.1262,446.0653 803.6762,446.5153 803.6762,450.1148 804.1262,450.5648 804.5761,450.5648"/>
    <polyline points="800.0766,445.6153 799.6266,446.0653 800.9764,446.0653"/>
    <polyline points="802.3264,446.0653 803.6762,446.0653 803.2262,445.6153 803.2262,450.5648 803.6762,451.0147"/>
    <polyline points="799.1766,446.0653 800.0766,445.1653 800.5265,445.6153 801.4264,446.0653 802.7763,446.5153 802.7763,450.5648 803.6762,451.4646 804.5761,450.5648"/>
    <line x1="799.1766" x2="801.4264" y1="446.0653" y2="448.3151"/>
    <polyline points="806.9608,442.0157 806.5108,442.4657 806.5108,445.1653"/>
    <line x1="806.9608" x2="806.5108" y1="442.4657" y2="445.1653"/>
    <polyline points="806.9608,442.0157 807.4107,442.4657 806.5108,445.1653"/>
    <polyline points="809.7054,442.0157 810.1554,442.4657 810.6053,443.3655 810.6053,446.0653 809.7054,446.0653 809.2555,446.5153 809.2555,447.4151 809.7054,446.9652 810.6053,446.9652 810.6053,450.1148 809.7054,450.5648"/>
    <polyline points="810.6053,442.9156 811.0552,443.8155 811.0552,450.1148"/>
    <line x1="809.7054" x2="811.0552" y1="446.5153" y2="446.5153"/>
    <polyline points="811.5052,450.5648 812.855,450.5648 813.7549,451.0147"/>
    <polyline points="809.7054,442.0157 810.6053,442.4657 811.0552,442.9156 811.5052,443.8155 811.5052,450.1148 813.305,450.1148 814.6548,450.5648"/>
    <polyline points="809.7054,450.5648 811.0552,450.5648 812.4051,451.0147 813.305,451.4646 814.6548,450.5648 816.0046,450.1148 816.9045,450.1148"/>
    <polyline points="813.305,443.8155 814.6548,443.3655 815.5547,442.9156 816.4546,442.0157 816.9045,442.4657 817.8044,442.9156 816.9045,443.3655 816.9045,450.1148"/>
    <polyline points="816.4546,443.3655 816.9045,442.9156 816.4546,442.4657 816.0046,442.9156 816.4546,443.3655 816.4546,449.6649"/>
    <polyline points="815.5547,442.9156 816.0046,443.3655 816.0046,450.1148"/>
    <line x1="813.305" x2="813.305" y1="443.8155" y2="450.1148"/>
    <polyline points="813.305,445.1653 814.2049,445.6153 815.1047,445.6153 816.0046,445.1653"/>
    <polyline points="813.305,447.8651 814.2049,447.4151 815.1047,447.4151 816.0046,447.8651"/>
    <polyline points="819.4692,446.0653 819.4692,450.1148 818.5694,450.5648 819.0192,450.5648 819.9192,451.0147 820.3691,451.4646"/>
    <polyline points="819.9192,446.0653 819.9192,450.5648 820.819,451.0147"/>
    <polyline points="820.3691,446.0653 820.3691,450.1148 821.269,450.5648 821.7189,450.5648 820.819,451.0147 820.3691,451.4646"/>
    <polyline points="819.4692,446.0653 821.269,445.6153 822.1689,445.1653 823.5187,446.9652 822.6188,447.4151 820.3691,448.765"/>
    <line x1="821.7189" x2="823.0687" y1="445.6153" y2="446.9652"/>
    <polyline points="820.3691,446.0653 821.269,445.6153 822.6188,447.4151"/>
    <polyline points="824.6885,442.9156 825.1385,443.8155 825.1385,450.1148 824.2386,450.5648 824.6885,450.5648 825.5885,451.0147 826.0384,451.4646"/>
    <polyline points="825.5885,443.8155 825.1385,442.9156 825.5885,442.4657 825.5885,450.5648 826.4883,451.0147"/>
    <polyline points="824.6885,442.9156 826.0384,442.0157 826.0384,450.1148 826.9383,450.5648 827.3882,450.5648 826.4883,451.0147 826.0384,451.4646"/>
  </g>
</svg>
