<?xml version="1.0" encoding="UTF-8" standalone="no"?>
<svg
   xmlns:dc="http://purl.org/dc/elements/1.1/"
   xmlns:cc="http://creativecommons.org/ns#"
   xmlns:rdf="http://www.w3.org/1999/02/22-rdf-syntax-ns#"
   xmlns:svg="http://www.w3.org/2000/svg"
   xmlns="http://www.w3.org/2000/svg"
   id="svg8"
   version="1.1"
   viewBox="0 0 210 297"
   height="297mm"
   width="210mm">
  <defs
     id="defs2" />
  <metadata
     id="metadata5">
    <rdf:RDF>
      <cc:Work
         rdf:about="">
        <dc:format>image/svg+xml</dc:format>
        <dc:type
           rdf:resource="http://purl.org/dc/dcmitype/StillImage" />
        <dc:title></dc:title>
      </cc:Work>
    </rdf:RDF>
  </metadata>
  <g
     id="layer1">
    <g
       id="g1959">
      <g
         id="g1957" />
      <g
         id="g14844">
        <g
           id="g14842">
          <path
             style="fill:none;stroke:#000000;stroke-linecap:round;stroke-linejoin:round;stroke-width:0.4"
             d="M 13.9821 17.0952 L 14.6488 17.7619 L 15.3155 19.0952 L 15.3155 23.0952 L 13.9821 23.0952 L 13.3155 23.7619 L 13.3155 25.0952 L 13.9821 24.4286 L 15.3155 24.4286 L 15.3155 29.0952 L 13.9821 29.7619 M 15.3155 18.4285 L 15.9821 19.7619 L 15.9821 29.0952 M 13.9821 23.7619 L 15.9821 23.7619 M 16.6488 29.7619 L 18.6488 29.7619 L 19.9821 30.4286 M 13.9821 17.0952 L 15.3155 17.7619 L 15.9821 18.4285 L 16.6488 19.7619 L 16.6488 29.0952 L 19.3155 29.0952 L 21.3155 29.7619 M 13.9821 29.7619 L 15.9821 29.7619 L 17.9821 30.4286 L 19.3155 31.0952 L 21.3155 29.7619 L 23.3154 29.0952 L 24.6488 29.0952 M 19.3155 19.7619 L 21.3155 19.0952 L 22.6488 18.4285 L 23.9821 17.0952 L 24.6488 17.7619 L 25.9821 18.4285 L 24.6488 19.0952 L 24.6488 29.0952 M 23.9821 19.0952 L 24.6488 18.4285 L 23.9821 17.7619 L 23.3154 18.4285 L 23.9821 19.0952 L 23.9821 28.4286 M 22.6488 18.4285 L 23.3154 19.0952 L 23.3154 29.0952 M 19.3155 19.7619 L 19.3155 29.0952 M 19.3155 21.7619 L 20.6488 22.4286 L 21.9821 22.4286 L 23.3154 21.7619 M 19.3155 25.7619 L 20.6488 25.0952 L 21.9821 25.0952 L 23.3154 25.7619"
             id="path14826" />
          <path
             style="fill:none;stroke:#000000;stroke-linecap:round;stroke-linejoin:round;stroke-width:0.4"
             d="M 29.7821 25.0952 L 28.4488 26.4286 L 27.7821 27.7619 L 27.7821 29.0952 L 28.4488 30.4286 L 29.7821 31.0952 L 31.1155 29.7619 L 33.1155 29.0952 M 27.7821 27.7619 L 28.4488 29.0952 L 29.1155 29.7619 L 30.4488 30.4286 M 28.4488 26.4286 L 28.4488 27.7619 L 29.1155 29.0952 L 30.4488 29.7619 L 31.1155 29.7619 M 28.4488 23.7619 L 29.7821 23.7619 L 31.7821 23.0952 L 33.1155 22.4286 L 33.7821 21.7619 L 35.1155 23.0952 L 34.4488 23.7619 L 34.4488 29.0952 L 35.1155 29.7619 L 35.7821 29.7619 M 29.1155 22.4286 L 28.4488 23.0952 L 30.4488 23.0952 M 32.4488 23.0952 L 34.4488 23.0952 L 33.7821 22.4286 L 33.7821 29.7619 L 34.4488 30.4286 M 27.7821 23.0952 L 29.1155 21.7619 L 29.7821 22.4286 L 31.1155 23.0952 L 33.1155 23.7619 L 33.1155 29.7619 L 34.4488 31.0952 L 35.7821 29.7619 M 27.7821 23.0952 L 31.1155 26.4286"
             id="path14828" />
          <path
             style="fill:none;stroke:#000000;stroke-linecap:round;stroke-linejoin:round;stroke-width:0.4"
             d="M 37.9821 18.4285 L 38.6488 19.7619 L 38.6488 29.0952 L 37.3155 29.7619 L 37.9821 29.7619 L 39.3155 30.4286 L 39.9821 31.0952 M 39.3155 19.7619 L 38.6488 18.4285 L 39.3155 17.7619 L 39.3155 29.7619 L 40.6488 30.4286 M 37.9821 18.4285 L 39.9821 17.0952 L 39.9821 29.0952 L 41.3155 29.7619 L 41.9821 29.7619 L 40.6488 30.4286 L 39.9821 31.0952"
             id="path14830" />
          <path
             style="fill:none;stroke:#000000;stroke-linecap:round;stroke-linejoin:round;stroke-width:0.4"
             d="M 43.9821 18.4285 L 44.6488 19.7619 L 44.6488 29.0952 L 43.3155 29.7619 L 43.9821 29.7619 L 45.3155 30.4286 L 45.9821 31.0952 M 45.3155 19.7619 L 44.6488 18.4285 L 45.3155 17.7619 L 45.3155 29.7619 L 46.6488 30.4286 M 43.9821 18.4285 L 45.9821 17.0952 L 45.9821 29.0952 L 47.3155 29.7619 L 47.9821 29.7619 L 46.6488 30.4286 L 45.9821 31.0952"
             id="path14832" />
          <path
             style="fill:none;stroke:#000000;stroke-linecap:round;stroke-linejoin:round;stroke-width:0.4"
             d="M 49.3155 23.0952 L 49.9821 23.0952 L 50.6488 23.7619 L 50.6488 29.0952 L 49.3155 29.7619 M 49.9821 22.4286 L 51.3155 23.0952 L 51.3155 29.7619 L 52.6488 30.4286 M 49.3155 23.0952 L 50.6488 21.7619 L 51.9821 23.0952 L 51.9821 29.0952 L 53.3155 29.7619 L 53.9821 29.7619 M 49.3155 29.7619 L 49.9821 29.7619 L 51.3155 30.4286 L 51.9821 31.0952 L 52.6488 30.4286 L 53.9821 29.7619 L 55.9821 29.0952 M 55.9821 21.7619 L 56.6488 22.4286 L 57.9821 23.0952 L 58.6488 23.0952 L 57.3155 23.7619 L 57.3155 29.0952 L 57.9821 29.7619 L 58.6488 29.7619 M 55.3155 22.4286 L 56.6488 23.0952 L 56.6488 29.7619 L 57.3155 30.4286 M 55.9821 21.7619 L 54.6488 23.0952 L 55.9821 23.7619 L 55.9821 29.7619 L 57.3155 31.0952 L 58.6488 29.7619"
             id="path14834" />
          <path
             style="fill:none;stroke:#000000;stroke-linecap:round;stroke-linejoin:round;stroke-width:0.4"
             d="M 60.1155 23.0952 L 60.7821 23.0952 L 61.4488 23.7619 L 61.4488 29.0952 L 60.1155 29.7619 L 60.7821 29.7619 L 62.1155 30.4286 L 62.7821 31.0952 M 60.7821 22.4286 L 62.1155 23.0952 L 62.1155 29.7619 L 63.4488 30.4286 M 60.1155 23.0952 L 61.4488 21.7619 L 62.7821 23.0952 L 62.7821 29.0952 L 64.1155 29.7619 L 64.7821 29.7619 L 63.4488 30.4286 L 62.7821 31.0952 M 62.7821 23.0952 L 65.4488 21.7619 L 66.1155 22.4286 L 67.4488 23.0952 L 68.1155 23.0952 M 64.7821 22.4286 L 65.4488 23.0952 L 66.7821 23.0952 M 64.1155 22.4286 L 65.4488 23.7619 L 66.7821 23.7619 L 68.1155 23.0952"
             id="path14836" />
          <path
             style="fill:none;stroke:#000000;stroke-linecap:round;stroke-linejoin:round;stroke-width:0.4"
             d="M 69.1821 23.0952 L 69.1821 25.7619 L 70.5155 26.4286 L 74.5155 26.4286 L 75.8488 27.0952 L 75.8488 29.7619 M 69.8488 23.0952 L 69.8488 25.7619 M 75.1821 27.0952 L 75.1821 29.7619 M 71.1821 22.4286 L 70.5155 23.0952 L 70.5155 25.7619 L 71.8488 26.4286 M 73.1821 26.4286 L 74.5155 27.0952 L 74.5155 29.7619 L 73.8488 30.4286 M 69.1821 23.0952 L 71.1821 22.4286 L 72.5155 21.7619 L 73.8488 22.4286 L 75.1821 22.4286 L 75.8488 21.7619 M 71.8488 22.4286 L 73.1821 22.4286 M 71.1821 22.4286 L 72.5155 23.0952 L 73.8488 23.0952 L 75.1821 22.4286 M 75.8488 29.7619 L 73.8488 30.4286 L 72.5155 31.0952 L 71.1821 30.4286 L 69.8488 30.4286 L 68.5155 31.0952 M 73.1821 30.4286 L 71.8488 30.4286 M 73.8488 30.4286 L 72.5155 29.7619 L 70.5155 29.7619 L 68.5155 31.0952 M 75.8488 21.7619 L 75.1821 23.0952 L 73.8488 25.0952 L 70.5155 28.4286 L 68.5155 31.0952"
             id="path14838" />
          <path
             style="fill:none;stroke:#000000;stroke-linecap:round;stroke-linejoin:round;stroke-width:0.4"
             d="M 80.7821 25.0952 L 79.4488 26.4286 L 78.7821 27.7619 L 78.7821 29.0952 L 79.4488 30.4286 L 80.7821 31.0952 L 82.1155 29.7619 L 84.1155 29.0952 M 78.7821 27.7619 L 79.4488 29.0952 L 80.1155 29.7619 L 81.4488 30.4286 M 79.4488 26.4286 L 79.4488 27.7619 L 80.1155 29.0952 L 81.4488 29.7619 L 82.1155 29.7619 M 79.4488 23.7619 L 80.7821 23.7619 L 82.7821 23.0952 L 84.1155 22.4286 L 84.7821 21.7619 L 86.1155 23.0952 L 85.4488 23.7619 L 85.4488 29.0952 L 86.1155 29.7619 L 86.7821 29.7619 M 80.1155 22.4286 L 79.4488 23.0952 L 81.4488 23.0952 M 83.4488 23.0952 L 85.4488 23.0952 L 84.7821 22.4286 L 84.7821 29.7619 L 85.4488 30.4286 M 78.7821 23.0952 L 80.1155 21.7619 L 80.7821 22.4286 L 82.1155 23.0952 L 84.1155 23.7619 L 84.1155 29.7619 L 85.4488 31.0952 L 86.7821 29.7619 M 78.7821 23.0952 L 82.1155 26.4286"
             id="path14840" />
        </g>
      </g>
    </g>
  </g>
</svg>
