<?xml version="1.0" encoding="utf-8" ?>
<svg xmlns="http://www.w3.org/2000/svg" xmlns:cc="http://creativecommons.org/ns#" xmlns:dc="http://purl.org/dc/elements/1.1/" xmlns:ev="http://www.w3.org/2001/xml-events" xmlns:inkscape="http://www.inkscape.org/namespaces/inkscape" xmlns:rdf="http://www.w3.org/1999/02/22-rdf-syntax-ns#" xmlns:sodipodi="http://sodipodi.sourceforge.net/DTD/sodipodi-0.dtd" xmlns:xlink="http://www.w3.org/1999/xlink" baseProfile="tiny" height="24.0cm" version="1.2" viewBox="0 0 1209.4488188976377 907.0866141732283" width="32.0cm">
  <metadata>
    <rdf:RDF>
      <cc:Work>
        <dc:format>image/svg+xml</dc:format>
        <dc:source>vpype read map/vallursa_small.svg translate -- 6.1800cm 15.4450cm pagesize -l 24cmx32cm write map/vallursa_small.svg
</dc:source>
        <dc:date>2021-06-21T12:59:27.058839</dc:date>
      </cc:Work>
    </rdf:RDF>
  </metadata>
  <defs/>
  <g fill="none" id="layer1" inkscape:groupmode="layer" inkscape:label="1" stroke="#00f" style="display:inline">
    <polyline points="398.2093,583.748 398.6593,584.198 399.1092,585.0978 399.1092,587.7975 398.2093,587.7975 397.7594,588.2475 397.7594,589.1473 398.2093,588.6974 399.1092,588.6974 399.1092,591.847 398.2093,592.297"/>
    <polyline points="399.1092,584.6479 399.5591,585.5478 399.5591,591.847"/>
    <line x1="398.2093" x2="399.5591" y1="588.2475" y2="588.2475"/>
    <polyline points="400.0091,592.297 401.3589,592.297 402.2588,592.7469"/>
    <polyline points="398.2093,583.748 399.1092,584.198 399.5591,584.6479 400.0091,585.5478 400.0091,591.847 401.8089,591.847 403.1587,592.297"/>
    <polyline points="398.2093,592.297 399.5591,592.297 400.909,592.7469 401.8089,593.1968 403.1587,592.297 404.5085,591.847 405.4084,591.847"/>
    <polyline points="401.8089,585.5478 403.1587,585.0978 404.0586,584.6479 404.9585,583.748 405.4084,584.198 406.3083,584.6479 405.4084,585.0978 405.4084,591.847"/>
    <polyline points="404.9585,585.0978 405.4084,584.6479 404.9585,584.198 404.5085,584.6479 404.9585,585.0978 404.9585,591.3971"/>
    <polyline points="404.0586,584.6479 404.5085,585.0978 404.5085,591.847"/>
    <line x1="401.8089" x2="401.8089" y1="585.5478" y2="591.847"/>
    <polyline points="401.8089,586.8976 402.7088,587.3476 403.6086,587.3476 404.5085,586.8976"/>
    <polyline points="401.8089,589.5973 402.7088,589.1473 403.6086,589.1473 404.5085,589.5973"/>
    <polyline points="408.873,589.1473 407.9731,590.0473 407.5231,590.9471 407.5231,591.847 407.9731,592.7469 408.873,593.1968 409.7729,592.297 411.1227,591.847"/>
    <polyline points="407.5231,590.9471 407.9731,591.847 408.4231,592.297 409.3229,592.7469"/>
    <polyline points="407.9731,590.0473 407.9731,590.9471 408.4231,591.847 409.3229,592.297 409.7729,592.297"/>
    <polyline points="407.9731,588.2475 408.873,588.2475 410.2228,587.7975 411.1227,587.3476 411.5726,586.8976 412.4726,587.7975 412.0226,588.2475 412.0226,591.847 412.4726,592.297 412.9225,592.297"/>
    <polyline points="408.4231,587.3476 407.9731,587.7975 409.3229,587.7975"/>
    <polyline points="410.6728,587.7975 412.0226,587.7975 411.5726,587.3476 411.5726,592.297 412.0226,592.7469"/>
    <polyline points="407.5231,587.7975 408.4231,586.8976 408.873,587.3476 409.7729,587.7975 411.1227,588.2475 411.1227,592.297 412.0226,593.1968 412.9225,592.297"/>
    <line x1="407.5231" x2="409.7729" y1="587.7975" y2="590.0473"/>
    <polyline points="414.4073,584.6479 414.8572,585.5478 414.8572,591.847 413.9574,592.297 414.4073,592.297 415.3072,592.7469 415.7571,593.1968"/>
    <polyline points="415.3072,585.5478 414.8572,584.6479 415.3072,584.198 415.3072,592.297 416.2071,592.7469"/>
    <polyline points="414.4073,584.6479 415.7571,583.748 415.7571,591.847 416.657,592.297 417.1069,592.297 416.2071,592.7469 415.7571,593.1968"/>
    <polyline points="418.4568,584.6479 418.9067,585.5478 418.9067,591.847 418.0069,592.297 418.4568,592.297 419.3567,592.7469 419.8066,593.1968"/>
    <polyline points="419.3567,585.5478 418.9067,584.6479 419.3567,584.198 419.3567,592.297 420.2566,592.7469"/>
    <polyline points="418.4568,584.6479 419.8066,583.748 419.8066,591.847 420.7065,592.297 421.1564,592.297 420.2566,592.7469 419.8066,593.1968"/>
    <polyline points="422.0564,587.7975 422.5063,587.7975 422.9562,588.2475 422.9562,591.847 422.0564,592.297"/>
    <polyline points="422.5063,587.3476 423.4062,587.7975 423.4062,592.297 424.3061,592.7469"/>
    <polyline points="422.0564,587.7975 422.9562,586.8976 423.8561,587.7975 423.8561,591.847 424.756,592.297 425.2059,592.297"/>
    <polyline points="422.0564,592.297 422.5063,592.297 423.4062,592.7469 423.8561,593.1968 424.3061,592.7469 425.2059,592.297 426.5558,591.847"/>
    <polyline points="426.5558,586.8976 427.0057,587.3476 427.9056,587.7975 428.3556,587.7975 427.4557,588.2475 427.4557,591.847 427.9056,592.297 428.3556,592.297"/>
    <polyline points="426.1059,587.3476 427.0057,587.7975 427.0057,592.297 427.4557,592.7469"/>
    <polyline points="426.5558,586.8976 425.6559,587.7975 426.5558,588.2475 426.5558,592.297 427.4557,593.1968 428.3556,592.297"/>
    <polyline points="429.3455,587.7975 429.7953,587.7975 430.2453,588.2475 430.2453,591.847 429.3455,592.297 429.7953,592.297 430.6953,592.7469 431.1452,593.1968"/>
    <polyline points="429.7953,587.3476 430.6953,587.7975 430.6953,592.297 431.5951,592.7469"/>
    <polyline points="429.3455,587.7975 430.2453,586.8976 431.1452,587.7975 431.1452,591.847 432.0451,592.297 432.495,592.297 431.5951,592.7469 431.1452,593.1968"/>
    <polyline points="431.1452,587.7975 432.945,586.8976 433.3949,587.3476 434.2948,587.7975 434.7448,587.7975"/>
    <polyline points="432.495,587.3476 432.945,587.7975 433.8448,587.7975"/>
    <polyline points="432.0451,587.3476 432.945,588.2475 433.8448,588.2475 434.7448,587.7975"/>
    <polyline points="435.4646,587.7975 435.4646,589.5973 436.3646,590.0473 439.0642,590.0473 439.9641,590.4972 439.9641,592.297"/>
    <line x1="435.9146" x2="435.9146" y1="587.7975" y2="589.5973"/>
    <line x1="439.5141" x2="439.5141" y1="590.4972" y2="592.297"/>
    <polyline points="436.8145,587.3476 436.3646,587.7975 436.3646,589.5973 437.2644,590.0473"/>
    <polyline points="438.1643,590.0473 439.0642,590.4972 439.0642,592.297 438.6143,592.7469"/>
    <polyline points="435.4646,587.7975 436.8145,587.3476 437.7144,586.8976 438.6143,587.3476 439.5141,587.3476 439.9641,586.8976"/>
    <line x1="437.2644" x2="438.1643" y1="587.3476" y2="587.3476"/>
    <polyline points="436.8145,587.3476 437.7144,587.7975 438.6143,587.7975 439.5141,587.3476"/>
    <polyline points="439.9641,592.297 438.6143,592.7469 437.7144,593.1968 436.8145,592.7469 435.9146,592.7469 435.0147,593.1968"/>
    <line x1="438.1643" x2="437.2644" y1="592.7469" y2="592.7469"/>
    <polyline points="438.6143,592.7469 437.7144,592.297 436.3646,592.297 435.0147,593.1968"/>
    <polyline points="439.9641,586.8976 439.5141,587.7975 438.6143,589.1473 436.3646,591.3971 435.0147,593.1968"/>
    <polyline points="443.2937,589.1473 442.3938,590.0473 441.9438,590.9471 441.9438,591.847 442.3938,592.7469 443.2937,593.1968 444.1936,592.297 445.5434,591.847"/>
    <polyline points="441.9438,590.9471 442.3938,591.847 442.8438,592.297 443.7436,592.7469"/>
    <polyline points="442.3938,590.0473 442.3938,590.9471 442.8438,591.847 443.7436,592.297 444.1936,592.297"/>
    <polyline points="442.3938,588.2475 443.2937,588.2475 444.6435,587.7975 445.5434,587.3476 445.9933,586.8976 446.8933,587.7975 446.4433,588.2475 446.4433,591.847 446.8933,592.297 447.3432,592.297"/>
    <polyline points="442.8438,587.3476 442.3938,587.7975 443.7436,587.7975"/>
    <polyline points="445.0935,587.7975 446.4433,587.7975 445.9933,587.3476 445.9933,592.297 446.4433,592.7469"/>
    <polyline points="441.9438,587.7975 442.8438,586.8976 443.2937,587.3476 444.1936,587.7975 445.5434,588.2475 445.5434,592.297 446.4433,593.1968 447.3432,592.297"/>
    <line x1="441.9438" x2="444.1936" y1="587.7975" y2="590.0473"/>
  </g>
</svg>
