<?xml version="1.0" encoding="utf-8" ?>
<svg xmlns="http://www.w3.org/2000/svg" xmlns:cc="http://creativecommons.org/ns#" xmlns:dc="http://purl.org/dc/elements/1.1/" xmlns:ev="http://www.w3.org/2001/xml-events" xmlns:inkscape="http://www.inkscape.org/namespaces/inkscape" xmlns:rdf="http://www.w3.org/1999/02/22-rdf-syntax-ns#" xmlns:sodipodi="http://sodipodi.sourceforge.net/DTD/sodipodi-0.dtd" xmlns:xlink="http://www.w3.org/1999/xlink" baseProfile="tiny" height="24.0cm" version="1.2" viewBox="0 0 1209.4488188976377 907.0866141732283" width="32.0cm">
  <metadata>
    <rdf:RDF>
      <cc:Work>
        <dc:format>image/svg+xml</dc:format>
        <dc:source>vpype read map/wachefels_small.svg translate -- -2.6000cm 16.9000cm pagesize -l 24cmx32cm write map/wachefels_small.svg
</dc:source>
        <dc:date>2021-06-21T12:58:48.319998</dc:date>
      </cc:Work>
    </rdf:RDF>
  </metadata>
  <defs/>
  <g fill="none" id="layer1" inkscape:groupmode="layer" inkscape:label="1" stroke="#00f" style="display:inline">
    <polyline points="221.4333,638.7402 222.3782,639.6851 223.3232,641.5748 223.3232,647.2441 221.4333,647.2441 220.4885,648.189 220.4885,650.0788 221.4333,649.134 223.3232,649.134 223.3232,655.748 221.4333,656.693"/>
    <polyline points="223.3232,640.6299 224.268,642.5198 224.268,655.748"/>
    <line x1="221.4333" x2="224.268" y1="648.189" y2="648.189"/>
    <polyline points="225.2129,656.693 227.1026,656.693 228.9925,657.6379"/>
    <polyline points="221.4333,638.7402 223.3232,639.6851 224.268,640.6299 225.2129,642.5198 225.2129,655.748 228.0475,655.748 229.9372,656.693"/>
    <polyline points="221.4333,656.693 224.268,656.693 227.1026,657.6379 228.0475,658.5827 229.9372,656.693 232.7719,655.748 234.6616,656.693 235.6065,658.5827 237.4962,656.693 240.3309,655.748"/>
    <polyline points="228.0475,640.6299 230.8822,638.7402 232.7719,640.6299 232.7719,655.748 235.6065,655.748 237.4962,656.693"/>
    <polyline points="230.8822,639.6851 231.8271,640.6299 231.8271,655.748"/>
    <polyline points="228.0475,640.6299 229.9372,640.6299 230.8822,641.5748 230.8822,655.748 229.9372,656.693"/>
    <line x1="235.6065" x2="236.5515" y1="656.693" y2="657.6379"/>
    <polyline points="235.6065,640.6299 238.4412,638.7402 240.3309,640.6299 240.3309,655.748"/>
    <polyline points="238.4412,639.6851 239.3861,640.6299 239.3861,655.748"/>
    <polyline points="235.6065,640.6299 237.4962,640.6299 238.4412,641.5748 238.4412,655.748 237.4962,656.693"/>
    <line x1="228.0475" x2="228.0475" y1="640.6299" y2="655.748"/>
    <line x1="235.6065" x2="235.6065" y1="640.6299" y2="655.748"/>
    <line x1="228.0475" x2="230.8822" y1="646.2993" y2="646.2993"/>
    <line x1="228.0475" x2="230.8822" y1="650.0788" y2="650.0788"/>
    <line x1="235.6065" x2="238.4412" y1="646.2993" y2="646.2993"/>
    <line x1="235.6065" x2="238.4412" y1="650.0788" y2="650.0788"/>
    <polyline points="247.2286,650.0788 245.3388,651.9686 244.3939,653.8583 244.3939,655.748 245.3388,657.6379 247.2286,658.5827 249.1184,656.693 251.953,655.748"/>
    <polyline points="244.3939,653.8583 245.3388,655.748 246.2838,656.693 248.1735,657.6379"/>
    <polyline points="245.3388,651.9686 245.3388,653.8583 246.2838,655.748 248.1735,656.693 249.1184,656.693"/>
    <polyline points="245.3388,648.189 247.2286,648.189 250.0632,647.2441 251.953,646.2993 252.8978,645.3544 254.7877,647.2441 253.8428,648.189 253.8428,655.748 254.7877,656.693 255.7325,656.693"/>
    <polyline points="246.2838,646.2993 245.3388,647.2441 248.1735,647.2441"/>
    <polyline points="251.0081,647.2441 253.8428,647.2441 252.8978,646.2993 252.8978,656.693 253.8428,657.6379"/>
    <polyline points="244.3939,647.2441 246.2838,645.3544 247.2286,646.2993 249.1184,647.2441 251.953,648.189 251.953,656.693 253.8428,658.5827 255.7325,656.693"/>
    <line x1="244.3939" x2="249.1184" y1="647.2441" y2="651.9686"/>
    <polyline points="259.7955,647.2441 259.7955,655.748 257.9058,656.693 258.8506,656.693 260.7404,657.6379 261.6852,658.5827"/>
    <polyline points="260.7404,647.2441 260.7404,656.693 262.6301,657.6379"/>
    <polyline points="261.6852,647.2441 261.6852,655.748 263.5751,656.693 264.5199,656.693 262.6301,657.6379 261.6852,658.5827"/>
    <polyline points="259.7955,647.2441 263.5751,646.2993 265.4648,645.3544 266.4097,646.2993 268.2994,647.2441 269.2444,647.2441"/>
    <polyline points="264.5199,646.2993 265.4648,647.2441 267.3545,647.2441"/>
    <polyline points="261.6852,647.2441 263.5751,646.2993 265.4648,648.189 267.3545,648.189 269.2444,647.2441"/>
    <polyline points="270.7561,640.6299 271.701,642.5198 271.701,655.748 269.8113,656.693 270.7561,656.693 272.6459,657.6379 273.5907,658.5827"/>
    <polyline points="272.6459,642.5198 271.701,640.6299 272.6459,639.6851 272.6459,656.693 274.5356,657.6379"/>
    <polyline points="270.7561,640.6299 273.5907,638.7402 273.5907,655.748 275.4806,656.693 273.5907,658.5827"/>
    <polyline points="273.5907,648.189 276.4253,647.2441 278.3152,646.2993 279.26,645.3544 280.2049,646.2993 282.0946,647.2441 283.0396,647.2441 281.1498,648.189 281.1498,656.693 279.26,658.5827 278.3152,660.4725"/>
    <polyline points="278.3152,646.2993 280.2049,647.2441 280.2049,656.693 279.26,658.5827"/>
    <polyline points="276.4253,647.2441 277.3703,647.2441 279.26,648.189 279.26,656.693 278.3152,660.4725 278.3152,663.3072 279.26,665.1969"/>
    <line x1="280.2049" x2="278.3152" y1="665.1969" y2="663.3072"/>
    <polyline points="287.0081,647.2441 287.0081,655.748 285.1183,656.693 286.0631,656.693 287.953,657.6379 288.8978,658.5827"/>
    <polyline points="287.953,647.2441 287.953,656.693 289.8427,657.6379"/>
    <polyline points="288.8978,647.2441 288.8978,655.748 290.7876,656.693 291.7324,656.693 289.8427,657.6379 288.8978,658.5827"/>
    <polyline points="287.0081,647.2441 290.7876,646.2993 292.6773,645.3544 295.512,649.134 293.6223,650.0788 288.8978,652.9134"/>
    <line x1="291.7324" x2="294.567" y1="646.2993" y2="649.134"/>
    <polyline points="288.8978,647.2441 290.7876,646.2993 293.6223,650.0788"/>
    <polyline points="298.9135,640.6299 298.9135,655.748 297.0238,656.693 297.9686,656.693 299.8585,657.6379 300.8033,658.5827"/>
    <polyline points="299.8585,640.6299 299.8585,656.693 301.7482,657.6379"/>
    <polyline points="300.8033,640.6299 300.8033,655.748 302.6931,656.693 303.6379,656.693 301.7482,657.6379 300.8033,658.5827"/>
    <polyline points="298.9135,640.6299 301.7482,639.6851 303.6379,638.7402 304.5828,639.6851 306.4725,640.6299 307.4175,640.6299"/>
    <polyline points="302.6931,639.6851 303.6379,640.6299 305.5278,640.6299"/>
    <polyline points="300.8033,640.6299 301.7482,639.6851 303.6379,641.5748 305.5278,641.5748 307.4175,640.6299"/>
    <line x1="296.0789" x2="298.9135" y1="645.3544" y2="645.3544"/>
    <line x1="300.8033" x2="304.5828" y1="645.3544" y2="645.3544"/>
    <polyline points="309.9686,647.2441 309.9686,655.748 308.0789,656.693 309.0237,656.693 310.9136,657.6379 311.8584,658.5827"/>
    <polyline points="310.9136,647.2441 310.9136,656.693 312.8033,657.6379"/>
    <polyline points="311.8584,647.2441 311.8584,655.748 313.7482,656.693 314.693,656.693 312.8033,657.6379 311.8584,658.5827"/>
    <polyline points="309.9686,647.2441 313.7482,646.2993 315.6379,645.3544 318.4726,649.134 316.5829,650.0788 311.8584,652.9134"/>
    <line x1="314.693" x2="317.5276" y1="646.2993" y2="649.134"/>
    <polyline points="311.8584,647.2441 313.7482,646.2993 316.5829,650.0788"/>
    <polyline points="320.9292,640.6299 321.8741,642.5198 321.8741,655.748 319.9844,656.693 320.9292,656.693 322.8191,657.6379 323.7638,658.5827"/>
    <polyline points="322.8191,642.5198 321.8741,640.6299 322.8191,639.6851 322.8191,656.693 324.7088,657.6379"/>
    <polyline points="320.9292,640.6299 323.7638,638.7402 323.7638,655.748 325.6537,656.693 326.5985,656.693 324.7088,657.6379 323.7638,658.5827"/>
    <polyline points="329.4331,647.2441 329.4331,651.0237 331.323,651.9686 336.9923,651.9686 338.882,652.9134 338.882,656.693"/>
    <line x1="330.3781" x2="330.3781" y1="647.2441" y2="651.0237"/>
    <line x1="337.937" x2="337.937" y1="652.9134" y2="656.693"/>
    <polyline points="332.2678,646.2993 331.323,647.2441 331.323,651.0237 333.2127,651.9686"/>
    <polyline points="335.1024,651.9686 336.9923,652.9134 336.9923,656.693 336.0473,657.6379"/>
    <polyline points="329.4331,647.2441 332.2678,646.2993 334.1576,645.3544 336.0473,646.2993 337.937,646.2993 338.882,645.3544"/>
    <line x1="333.2127" x2="335.1024" y1="646.2993" y2="646.2993"/>
    <polyline points="332.2678,646.2993 334.1576,647.2441 336.0473,647.2441 337.937,646.2993"/>
    <polyline points="338.882,656.693 336.0473,657.6379 334.1576,658.5827 332.2678,657.6379 330.3781,657.6379 328.4883,658.5827"/>
    <line x1="335.1024" x2="333.2127" y1="657.6379" y2="657.6379"/>
    <polyline points="336.0473,657.6379 334.1576,656.693 331.323,656.693 328.4883,658.5827"/>
    <polyline points="338.882,645.3544 337.937,647.2441 336.0473,650.0788 331.323,654.8033 328.4883,658.5827"/>
  </g>
</svg>
