<?xml version="1.0" encoding="UTF-8" standalone="no"?>
<svg
   xmlns:dc="http://purl.org/dc/elements/1.1/"
   xmlns:cc="http://creativecommons.org/ns#"
   xmlns:rdf="http://www.w3.org/1999/02/22-rdf-syntax-ns#"
   xmlns:svg="http://www.w3.org/2000/svg"
   xmlns="http://www.w3.org/2000/svg"
   width="210mm"
   height="297mm"
   viewBox="0 0 210 297"
   version="1.1"
   id="svg8">
  <defs
     id="defs2" />
  <metadata
     id="metadata5">
    <rdf:RDF>
      <cc:Work
         rdf:about="">
        <dc:format>image/svg+xml</dc:format>
        <dc:type
           rdf:resource="http://purl.org/dc/dcmitype/StillImage" />
        <dc:title></dc:title>
      </cc:Work>
    </rdf:RDF>
  </metadata>
  <g
     id="layer1">
    <g
       id="g1959">
      <g
         id="g1957" />
      <g
         id="g15041">
        <g
           id="g15039">
          <path
             style="fill:none;stroke:#000000;stroke-linecap:round;stroke-linejoin:round;stroke-width:0.4"
             d="M 13.9821 17.0952 L 14.6488 17.7619 L 15.3155 19.0952 L 15.3155 23.0952 L 13.9821 23.0952 L 13.3155 23.7619 L 13.3155 25.0952 L 13.9821 24.4286 L 15.3155 24.4286 L 15.3155 29.0952 L 13.9821 29.7619 M 15.3155 18.4285 L 15.9821 19.7619 L 15.9821 29.0952 M 13.9821 23.7619 L 15.9821 23.7619 M 16.6488 29.7619 L 17.9821 29.7619 L 19.3155 30.4286 M 13.9821 17.0952 L 15.3155 17.7619 L 15.9821 18.4285 L 16.6488 19.7619 L 16.6488 29.0952 L 18.6488 29.0952 L 19.9821 29.7619 M 13.9821 29.7619 L 15.9821 29.7619 L 17.9821 30.4286 L 18.6488 31.0952 L 19.9821 29.7619 L 21.9821 29.0952 L 23.3154 29.7619 L 23.9821 31.0952 L 25.3154 29.7619 L 27.3154 29.0952 M 18.6488 18.4285 L 20.6488 17.0952 L 21.9821 18.4285 L 21.9821 29.0952 L 23.9821 29.0952 L 25.3154 29.7619 M 20.6488 17.7619 L 21.3155 18.4285 L 21.3155 29.0952 M 18.6488 18.4285 L 19.9821 18.4285 L 20.6488 19.0952 L 20.6488 29.0952 L 19.9821 29.7619 M 23.9821 29.7619 L 24.6488 30.4286 M 23.9821 18.4285 L 25.9821 17.0952 L 27.3154 18.4285 L 27.3154 29.0952 M 25.9821 17.7619 L 26.6488 18.4285 L 26.6488 29.0952 M 23.9821 18.4285 L 25.3154 18.4285 L 25.9821 19.0952 L 25.9821 29.0952 L 25.3154 29.7619 M 18.6488 18.4285 L 18.6488 29.0952 M 23.9821 18.4285 L 23.9821 29.0952 M 18.6488 22.4286 L 20.6488 22.4286 M 18.6488 25.0952 L 20.6488 25.0952 M 23.9821 22.4286 L 25.9821 22.4286 M 23.9821 25.0952 L 25.9821 25.0952"
             id="path15021" />
          <path
             style="fill:none;stroke:#000000;stroke-linecap:round;stroke-linejoin:round;stroke-width:0.4"
             d="M 32.1821 25.0952 L 30.8488 26.4286 L 30.1821 27.7619 L 30.1821 29.0952 L 30.8488 30.4286 L 32.1821 31.0952 L 33.5155 29.7619 L 35.5155 29.0952 M 30.1821 27.7619 L 30.8488 29.0952 L 31.5155 29.7619 L 32.8488 30.4286 M 30.8488 26.4286 L 30.8488 27.7619 L 31.5155 29.0952 L 32.8488 29.7619 L 33.5155 29.7619 M 30.8488 23.7619 L 32.1821 23.7619 L 34.1821 23.0952 L 35.5155 22.4286 L 36.1821 21.7619 L 37.5155 23.0952 L 36.8488 23.7619 L 36.8488 29.0952 L 37.5155 29.7619 L 38.1821 29.7619 M 31.5155 22.4286 L 30.8488 23.0952 L 32.8488 23.0952 M 34.8488 23.0952 L 36.8488 23.0952 L 36.1821 22.4286 L 36.1821 29.7619 L 36.8488 30.4286 M 30.1821 23.0952 L 31.5155 21.7619 L 32.1821 22.4286 L 33.5155 23.0952 L 35.5155 23.7619 L 35.5155 29.7619 L 36.8488 31.0952 L 38.1821 29.7619 M 30.1821 23.0952 L 33.5155 26.4286"
             id="path15023" />
          <path
             style="fill:none;stroke:#000000;stroke-linecap:round;stroke-linejoin:round;stroke-width:0.4"
             d="M 41.0488 23.0952 L 41.0488 29.0952 L 39.7155 29.7619 L 40.3821 29.7619 L 41.7155 30.4286 L 42.3821 31.0952 M 41.7155 23.0952 L 41.7155 29.7619 L 43.0488 30.4286 M 42.3821 23.0952 L 42.3821 29.0952 L 43.7155 29.7619 L 44.3821 29.7619 L 43.0488 30.4286 L 42.3821 31.0952 M 41.0488 23.0952 L 43.7155 22.4286 L 45.0488 21.7619 L 45.7155 22.4286 L 47.0488 23.0952 L 47.7155 23.0952 M 44.3821 22.4286 L 45.0488 23.0952 L 46.3821 23.0952 M 42.3821 23.0952 L 43.7155 22.4286 L 45.0488 23.7619 L 46.3821 23.7619 L 47.7155 23.0952"
             id="path15025" />
          <path
             style="fill:none;stroke:#000000;stroke-linecap:round;stroke-linejoin:round;stroke-width:0.4"
             d="M 48.7821 18.4285 L 49.4488 19.7619 L 49.4488 29.0952 L 48.1155 29.7619 L 48.7821 29.7619 L 50.1155 30.4286 L 50.7821 31.0952 M 50.1155 19.7619 L 49.4488 18.4285 L 50.1155 17.7619 L 50.1155 29.7619 L 51.4488 30.4286 M 48.7821 18.4285 L 50.7821 17.0952 L 50.7821 29.0952 L 52.1155 29.7619 L 50.7821 31.0952 M 50.7821 23.7619 L 52.7821 23.0952 L 54.1155 22.4286 L 54.7821 21.7619 L 55.4488 22.4286 L 56.7821 23.0952 L 57.4488 23.0952 L 56.1155 23.7619 L 56.1155 29.7619 L 54.7821 31.0952 L 54.1155 32.4286 M 54.1155 22.4286 L 55.4488 23.0952 L 55.4488 29.7619 L 54.7821 31.0952 M 52.7821 23.0952 L 53.4488 23.0952 L 54.7821 23.7619 L 54.7821 29.7619 L 54.1155 32.4286 L 54.1155 34.4286 L 54.7821 35.7619 L 55.4488 35.7619 L 54.1155 34.4286"
             id="path15027" />
          <path
             style="fill:none;stroke:#000000;stroke-linecap:round;stroke-linejoin:round;stroke-width:0.4"
             d="M 60.2488 23.0952 L 60.2488 29.0952 L 58.9155 29.7619 L 59.5821 29.7619 L 60.9155 30.4286 L 61.5821 31.0952 M 60.9155 23.0952 L 60.9155 29.7619 L 62.2488 30.4286 M 61.5821 23.0952 L 61.5821 29.0952 L 62.9155 29.7619 L 63.5821 29.7619 L 62.2488 30.4286 L 61.5821 31.0952 M 60.2488 23.0952 L 62.9155 22.4286 L 64.2488 21.7619 L 66.2488 24.4286 L 64.9155 25.0952 L 61.5821 27.0952 M 63.5821 22.4286 L 65.5821 24.4286 M 61.5821 23.0952 L 62.9155 22.4286 L 64.9155 25.0952"
             id="path15029" />
          <path
             style="fill:none;stroke:#000000;stroke-linecap:round;stroke-linejoin:round;stroke-width:0.4"
             d="M 68.6488 18.4285 L 68.6488 29.0952 L 67.3155 29.7619 L 67.9821 29.7619 L 69.3155 30.4286 L 69.9821 31.0952 M 69.3155 18.4285 L 69.3155 29.7619 L 70.6488 30.4286 M 69.9821 18.4285 L 69.9821 29.0952 L 71.3155 29.7619 L 71.9821 29.7619 L 70.6488 30.4286 L 69.9821 31.0952 M 68.6488 18.4285 L 70.6488 17.7619 L 71.9821 17.0952 L 72.6488 17.7619 L 73.9821 18.4285 L 74.6488 18.4285 M 71.3155 17.7619 L 71.9821 18.4285 L 73.3155 18.4285 M 69.9821 18.4285 L 70.6488 17.7619 L 71.9821 19.0952 L 73.3155 19.0952 L 74.6488 18.4285 M 66.6488 21.7619 L 68.6488 21.7619 M 69.9821 21.7619 L 72.6488 21.7619"
             id="path15031" />
          <path
             style="fill:none;stroke:#000000;stroke-linecap:round;stroke-linejoin:round;stroke-width:0.4"
             d="M 76.4488 23.0952 L 76.4488 29.0952 L 75.1155 29.7619 L 75.7821 29.7619 L 77.1155 30.4286 L 77.7821 31.0952 M 77.1155 23.0952 L 77.1155 29.7619 L 78.4488 30.4286 M 77.7821 23.0952 L 77.7821 29.0952 L 79.1155 29.7619 L 79.7821 29.7619 L 78.4488 30.4286 L 77.7821 31.0952 M 76.4488 23.0952 L 79.1155 22.4286 L 80.4488 21.7619 L 82.4488 24.4286 L 81.1155 25.0952 L 77.7821 27.0952 M 79.7821 22.4286 L 81.7821 24.4286 M 77.7821 23.0952 L 79.1155 22.4286 L 81.1155 25.0952"
             id="path15033" />
          <path
             style="fill:none;stroke:#000000;stroke-linecap:round;stroke-linejoin:round;stroke-width:0.4"
             d="M 84.1821 18.4285 L 84.8488 19.7619 L 84.8488 29.0952 L 83.5155 29.7619 L 84.1821 29.7619 L 85.5155 30.4286 L 86.1821 31.0952 M 85.5155 19.7619 L 84.8488 18.4285 L 85.5155 17.7619 L 85.5155 29.7619 L 86.8488 30.4286 M 84.1821 18.4285 L 86.1821 17.0952 L 86.1821 29.0952 L 87.5155 29.7619 L 88.1821 29.7619 L 86.8488 30.4286 L 86.1821 31.0952"
             id="path15035" />
          <path
             style="fill:none;stroke:#000000;stroke-linecap:round;stroke-linejoin:round;stroke-width:0.4"
             d="M 90.1821 23.0952 L 90.1821 25.7619 L 91.5155 26.4286 L 95.5155 26.4286 L 96.8488 27.0952 L 96.8488 29.7619 M 90.8488 23.0952 L 90.8488 25.7619 M 96.1821 27.0952 L 96.1821 29.7619 M 92.1821 22.4286 L 91.5155 23.0952 L 91.5155 25.7619 L 92.8488 26.4286 M 94.1821 26.4286 L 95.5155 27.0952 L 95.5155 29.7619 L 94.8488 30.4286 M 90.1821 23.0952 L 92.1821 22.4286 L 93.5155 21.7619 L 94.8488 22.4286 L 96.1821 22.4286 L 96.8488 21.7619 M 92.8488 22.4286 L 94.1821 22.4286 M 92.1821 22.4286 L 93.5155 23.0952 L 94.8488 23.0952 L 96.1821 22.4286 M 96.8488 29.7619 L 94.8488 30.4286 L 93.5155 31.0952 L 92.1821 30.4286 L 90.8488 30.4286 L 89.5155 31.0952 M 94.1821 30.4286 L 92.8488 30.4286 M 94.8488 30.4286 L 93.5155 29.7619 L 91.5155 29.7619 L 89.5155 31.0952 M 96.8488 21.7619 L 96.1821 23.0952 L 94.8488 25.0952 L 91.5155 28.4286 L 89.5155 31.0952"
             id="path15037" />
        </g>
      </g>
    </g>
  </g>
</svg>
